<?xml version="1.0" encoding="UTF-8" standalone="no"?><!DOCTYPE svg PUBLIC "-//W3C//DTD SVG 1.1//EN" "http://www.w3.org/Graphics/SVG/1.1/DTD/svg11.dtd"><svg width="100%" height="100%" viewBox="0 0 298 420" version="1.1" xmlns="http://www.w3.org/2000/svg" xmlns:xlink="http://www.w3.org/1999/xlink" xml:space="preserve" xmlns:serif="http://www.serif.com/" style="fill-rule:evenodd;clip-rule:evenodd;"><g id="Ebene-1" serif:id="Ebene 1"><rect x="218.758" y="385.673" width="3.28" height="13.775" style="fill:#f39260;"/><path d="M245.758,399.449l-0,-13.776l-3.28,0l-0,8.423l-6.298,-8.423l-3.148,0l-0,8.423l-6.271,-8.423l-3.149,0l-0,13.776l3.28,-0l-0,-8.397l6.271,8.397l3.175,-0l-0,-8.397l6.271,8.397l3.149,-0Z" style="fill:#f39260;fill-rule:nonzero;"/><path d="M254.154,388.56c2.23,-0 3.831,1.627 3.831,3.988c-0,2.362 -1.601,3.988 -3.831,3.988c-2.257,0 -3.831,-1.626 -3.831,-3.988c0,-2.361 1.601,-3.988 3.831,-3.988m0,-3.149c-4.251,0 -7.268,3.044 -7.268,7.137c-0,4.093 3.017,7.137 7.268,7.137c4.251,0 7.268,-3.044 7.268,-7.137c0,-4.093 -3.017,-7.137 -7.268,-7.137" style="fill:#f39260;fill-rule:nonzero;"/><path d="M269.609,388.56c2.23,-0 3.831,1.627 3.831,3.988c-0,0.446 -0.053,0.866 -0.158,1.26l-0.446,-0.604l-3.568,0l2.177,2.913c-0.524,0.262 -1.154,0.419 -1.81,0.419c-2.23,0 -3.831,-1.626 -3.831,-3.988c-0.026,-2.335 1.574,-3.988 3.805,-3.988m-0,-3.149c-4.251,0 -7.268,3.044 -7.268,7.137c-0,4.093 3.017,7.137 7.268,7.137c1.443,0 2.676,-0.394 3.726,-1.076l0.603,0.814l3.857,-0l-2.178,-2.939c0.761,-1.102 1.207,-2.388 1.207,-3.936c0.053,-4.093 -2.965,-7.137 -7.215,-7.137" style="fill:#004153;fill-rule:nonzero;"/></g><g id="Ebene-11" serif:id="Ebene 1"><g transform="matrix(1,0,0,1,148.819,82.2047)"><g transform="matrix(16,0,0,16,-128.976,-50.8427)"><path d="M0.064,-0.7l-0,0.7l0.166,-0l0,-0.262l0.025,-0l0.185,0.262l0.198,-0l-0.2,-0.267c0.125,-0.02 0.195,-0.098 0.195,-0.209c-0,-0.138 -0.092,-0.224 -0.265,-0.224l-0.304,0Zm0.302,0.151c0.059,0 0.097,0.023 0.097,0.073c0,0.05 -0.037,0.074 -0.097,0.074l-0.136,-0l0,-0.147l0.136,0Z" style="fill:#004153;fill-rule:nonzero;"/></g><g transform="matrix(16,0,0,16,-118.592,-50.8427)"><path d="M0.295,-0.504c-0.153,0 -0.266,0.11 -0.266,0.259c0,0.148 0.113,0.258 0.266,0.258c0.154,-0 0.266,-0.11 0.266,-0.258c0,-0.149 -0.112,-0.259 -0.266,-0.259Zm-0,0.146c0.062,-0 0.107,0.046 0.107,0.113c-0,0.066 -0.045,0.112 -0.107,0.112c-0.061,0 -0.106,-0.046 -0.106,-0.112c-0,-0.067 0.045,-0.113 0.106,-0.113Z" style="fill:#004153;fill-rule:nonzero;"/></g><g transform="matrix(16,0,0,16,-109.144,-50.8427)"><path d="M0.295,-0.504c-0.153,0 -0.266,0.11 -0.266,0.259c0,0.148 0.113,0.258 0.266,0.258c0.154,-0 0.266,-0.11 0.266,-0.258c0,-0.149 -0.112,-0.259 -0.266,-0.259Zm-0,0.146c0.062,-0 0.107,0.046 0.107,0.113c-0,0.066 -0.045,0.112 -0.107,0.112c-0.061,0 -0.106,-0.046 -0.106,-0.112c-0,-0.067 0.045,-0.113 0.106,-0.113Z" style="fill:#004153;fill-rule:nonzero;"/></g><g transform="matrix(16,0,0,16,-99.7764,-50.8427)"><path d="M0.432,-0.49l-0.168,-0l0,-0.143l-0.156,-0l0,0.143l-0.091,-0l-0,0.138l0.091,-0l0,0.164c0,0.123 0.06,0.201 0.191,0.201c0.079,-0 0.128,-0.023 0.174,-0.055l-0.054,-0.121c-0.025,0.014 -0.056,0.03 -0.085,0.03c-0.04,0 -0.07,-0.019 -0.07,-0.075l0,-0.144l0.168,-0l-0,-0.138Z" style="fill:#004153;fill-rule:nonzero;"/></g><g transform="matrix(16,0,0,16,-88.5124,-50.8427)"><path d="M0.293,-0.504c-0.156,0 -0.264,0.108 -0.264,0.259c0,0.15 0.108,0.258 0.264,0.258c0.091,-0 0.163,-0.04 0.21,-0.106l-0.122,-0.087c-0.024,0.031 -0.055,0.047 -0.092,0.047c-0.055,0 -0.1,-0.041 -0.1,-0.112c-0,-0.071 0.046,-0.113 0.101,-0.113c0.038,-0 0.066,0.015 0.09,0.047l0.123,-0.086c-0.047,-0.066 -0.119,-0.107 -0.21,-0.107Z" style="fill:#004153;fill-rule:nonzero;"/></g><g transform="matrix(16,0,0,16,-80.3684,-50.8427)"><path d="M0.549,-0.49l-0.151,-0l0,0.053c-0.029,-0.039 -0.074,-0.067 -0.141,-0.067c-0.131,0 -0.228,0.114 -0.228,0.258c0,0.145 0.097,0.259 0.228,0.259c0.067,-0 0.112,-0.028 0.141,-0.066l0,0.053l0.151,-0l0,-0.49Zm-0.254,0.132c0.061,-0 0.105,0.047 0.105,0.113c-0,0.065 -0.044,0.112 -0.105,0.112c-0.063,0 -0.105,-0.048 -0.105,-0.112c-0,-0.065 0.042,-0.113 0.105,-0.113Z" style="fill:#004153;fill-rule:nonzero;"/></g><g transform="matrix(16,0,0,16,-70.7044,-50.8427)"><path d="M0.525,-0.49l-0.156,-0l0,0.266c0,0.063 -0.034,0.091 -0.081,0.091c-0.047,0 -0.08,-0.028 -0.08,-0.091l-0,-0.266l-0.156,-0l-0,0.28c-0,0.153 0.105,0.223 0.236,0.223c0.131,-0 0.237,-0.07 0.237,-0.223l-0,-0.28Z" style="fill:#004153;fill-rule:nonzero;"/></g><g transform="matrix(16,0,0,16,-61.5364,-50.8427)"><path d="M0.467,-0.461c-0.08,-0.031 -0.131,-0.042 -0.211,-0.042c-0.133,-0 -0.211,0.059 -0.211,0.163c-0,0.088 0.055,0.138 0.172,0.155l0.029,0.004c0.056,0.009 0.078,0.016 0.078,0.035c-0,0.021 -0.02,0.032 -0.069,0.032c-0.068,0 -0.124,-0.017 -0.173,-0.046l-0.054,0.121c0.056,0.036 0.142,0.051 0.226,0.051c0.143,0 0.227,-0.064 0.227,-0.171c-0,-0.083 -0.056,-0.134 -0.16,-0.15l-0.036,-0.005c-0.049,-0.008 -0.08,-0.013 -0.08,-0.034c0,-0.018 0.016,-0.03 0.057,-0.03c0.051,0.001 0.114,0.018 0.162,0.038l0.043,-0.121Z" style="fill:#004153;fill-rule:nonzero;"/></g><g transform="matrix(16,0,0,16,-53.4564,-50.8427)"><path d="M0.281,-0.504c-0.15,0 -0.252,0.107 -0.252,0.261c0,0.154 0.104,0.256 0.259,0.256c0.09,-0 0.164,-0.03 0.215,-0.08l-0.1,-0.095c-0.031,0.029 -0.071,0.044 -0.107,0.044c-0.055,-0 -0.093,-0.025 -0.106,-0.079l0.333,-0c0.002,-0.011 0.003,-0.033 0.003,-0.049c-0.001,-0.153 -0.1,-0.258 -0.245,-0.258Zm0,0.133c0.046,-0 0.076,0.026 0.089,0.075l-0.179,0c0.012,-0.049 0.041,-0.075 0.09,-0.075Z" style="fill:#004153;fill-rule:nonzero;"/></g><g transform="matrix(16,0,0,16,-40.9844,-50.8427)"><path d="M0.549,-0.49l-0.151,-0l0,0.053c-0.029,-0.039 -0.074,-0.067 -0.141,-0.067c-0.131,0 -0.228,0.114 -0.228,0.258c0,0.145 0.097,0.259 0.228,0.259c0.067,-0 0.112,-0.028 0.141,-0.066l0,0.053l0.151,-0l0,-0.49Zm-0.254,0.132c0.061,-0 0.105,0.047 0.105,0.113c-0,0.065 -0.044,0.112 -0.105,0.112c-0.063,0 -0.105,-0.048 -0.105,-0.112c-0,-0.065 0.042,-0.113 0.105,-0.113Z" style="fill:#004153;fill-rule:nonzero;"/></g><g transform="matrix(16,0,0,16,-31.3204,-50.8427)"><path d="M0.351,-0.504c-0.066,0 -0.115,0.024 -0.146,0.075l-0,-0.061l-0.15,-0l0,0.49l0.156,-0l0,-0.264c0,-0.064 0.036,-0.093 0.08,-0.093c0.049,-0 0.078,0.032 0.078,0.09l-0,0.267l0.156,-0l-0,-0.322c-0,-0.113 -0.076,-0.182 -0.174,-0.182Z" style="fill:#004153;fill-rule:nonzero;"/></g><g transform="matrix(16,0,0,16,-22.0964,-50.8427)"><path d="M0.549,-0.49l-0.151,-0l0,0.053c-0.029,-0.039 -0.074,-0.067 -0.141,-0.067c-0.131,0 -0.228,0.114 -0.228,0.258c0,0.145 0.097,0.259 0.228,0.259c0.067,-0 0.112,-0.028 0.141,-0.066l0,0.053l0.151,-0l0,-0.49Zm-0.254,0.132c0.061,-0 0.105,0.047 0.105,0.113c-0,0.065 -0.044,0.112 -0.105,0.112c-0.063,0 -0.105,-0.048 -0.105,-0.112c-0,-0.065 0.042,-0.113 0.105,-0.113Z" style="fill:#004153;fill-rule:nonzero;"/></g><g transform="matrix(16,0,0,16,-12.4324,-50.8427)"><rect x="0.055" y="-0.72" width="0.156" height="0.72" style="fill:#004153;fill-rule:nonzero;"/></g><g transform="matrix(16,0,0,16,-8.17638,-50.8427)"><path d="M0.576,-0.49l-0.171,-0l-0.11,0.22l-0.111,-0.22l-0.18,-0l0.207,0.382l-0.168,0.309l0.171,-0l0.362,-0.691Z" style="fill:#004153;fill-rule:nonzero;"/></g><g transform="matrix(16,0,0,16,0.791622,-50.8427)"><path d="M0.467,-0.461c-0.08,-0.031 -0.131,-0.042 -0.211,-0.042c-0.133,-0 -0.211,0.059 -0.211,0.163c-0,0.088 0.055,0.138 0.172,0.155l0.029,0.004c0.056,0.009 0.078,0.016 0.078,0.035c-0,0.021 -0.02,0.032 -0.069,0.032c-0.068,0 -0.124,-0.017 -0.173,-0.046l-0.054,0.121c0.056,0.036 0.142,0.051 0.226,0.051c0.143,0 0.227,-0.064 0.227,-0.171c-0,-0.083 -0.056,-0.134 -0.16,-0.15l-0.036,-0.005c-0.049,-0.008 -0.08,-0.013 -0.08,-0.034c0,-0.018 0.016,-0.03 0.057,-0.03c0.051,0.001 0.114,0.018 0.162,0.038l0.043,-0.121Z" style="fill:#004153;fill-rule:nonzero;"/></g><g transform="matrix(16,0,0,16,8.92762,-50.8427)"><path d="M0.211,-0.49l-0.156,-0l0,0.49l0.156,-0l0,-0.49Zm-0.078,-0.245c-0.053,-0 -0.094,0.041 -0.094,0.094c0,0.052 0.041,0.093 0.094,0.093c0.052,-0 0.093,-0.041 0.093,-0.093c-0,-0.053 -0.041,-0.094 -0.093,-0.094Z" style="fill:#004153;fill-rule:nonzero;"/></g><g transform="matrix(16,0,0,16,13.1836,-50.8427)"><path d="M0.467,-0.461c-0.08,-0.031 -0.131,-0.042 -0.211,-0.042c-0.133,-0 -0.211,0.059 -0.211,0.163c-0,0.088 0.055,0.138 0.172,0.155l0.029,0.004c0.056,0.009 0.078,0.016 0.078,0.035c-0,0.021 -0.02,0.032 -0.069,0.032c-0.068,0 -0.124,-0.017 -0.173,-0.046l-0.054,0.121c0.056,0.036 0.142,0.051 0.226,0.051c0.143,0 0.227,-0.064 0.227,-0.171c-0,-0.083 -0.056,-0.134 -0.16,-0.15l-0.036,-0.005c-0.049,-0.008 -0.08,-0.013 -0.08,-0.034c0,-0.018 0.016,-0.03 0.057,-0.03c0.051,0.001 0.114,0.018 0.162,0.038l0.043,-0.121Z" style="fill:#004153;fill-rule:nonzero;"/></g><g transform="matrix(12,0,0,12,-128.976,-27.9388)"><path d="M0.411,-0.7l-0.109,0l-0.285,0.7l0.092,-0l0.076,-0.191l0.34,-0l0.077,0.191l0.095,-0l-0.285,-0.7Zm-0.056,0.087l0.136,0.339l-0.273,-0l0.137,-0.339Z" style="fill:#004153;fill-rule:nonzero;"/></g><g transform="matrix(12,0,0,12,-120.408,-27.9388)"><path d="M0.442,-0.433c-0.046,-0.031 -0.114,-0.051 -0.19,-0.051c-0.115,-0 -0.19,0.054 -0.19,0.145c-0,0.072 0.051,0.121 0.157,0.134l0.056,0.006c0.064,0.008 0.095,0.03 0.095,0.065c0,0.047 -0.048,0.073 -0.126,0.073c-0.08,-0 -0.127,-0.023 -0.162,-0.051l-0.038,0.061c0.062,0.047 0.141,0.061 0.199,0.061c0.13,-0 0.211,-0.058 0.211,-0.149c-0,-0.078 -0.059,-0.121 -0.16,-0.135l-0.056,-0.007c-0.057,-0.007 -0.092,-0.024 -0.092,-0.062c0,-0.043 0.042,-0.071 0.107,-0.071c0.063,0 0.124,0.024 0.154,0.044l0.035,-0.063Z" style="fill:#004153;fill-rule:nonzero;"/></g><g transform="matrix(12,0,0,12,-114.444,-27.9388)"><path d="M0.168,-0.72l-0.081,0l-0,0.72l0.081,-0l-0,-0.211l0.064,-0l0.18,0.211l0.103,-0l-0.215,-0.251l0.212,-0.224l-0.103,0l-0.176,0.19l-0.065,0l-0,-0.435Z" style="fill:#004153;fill-rule:nonzero;"/></g><g transform="matrix(12,0,0,12,-104.94,-27.9388)"><path d="M0.14,-0.72l-0,0.258l0.081,-0l0,-0.258l-0.081,0Zm0.171,0l-0,0.258l0.081,-0l0,-0.258l-0.081,0Z" style="fill:#004153;fill-rule:nonzero;"/></g><g transform="matrix(12,0,0,12,-98.3704,-27.9388)"><path d="M1.069,-0.7l-0.09,0l-0.188,0.601l-0.191,-0.601l-0.1,-0l-0.192,0.601l-0.187,-0.601l-0.093,0l0.225,0.7l0.108,0l0.188,-0.584l0.187,0.584l0.109,0l0.224,-0.7Z" style="fill:#004153;fill-rule:nonzero;"/></g><g transform="matrix(12,0,0,12,-85.2064,-27.9388)"><path d="M0.168,-0.72l-0.081,0l-0,0.72l0.081,-0l-0,-0.267c-0,-0.088 0.064,-0.141 0.141,-0.141c0.082,0 0.13,0.052 0.13,0.139l0,0.269l0.082,-0l-0,-0.295c-0,-0.114 -0.081,-0.19 -0.198,-0.19c-0.055,0 -0.116,0.018 -0.155,0.071l-0,-0.306Z" style="fill:#004153;fill-rule:nonzero;"/></g><g transform="matrix(12,0,0,12,-78.1444,-27.9388)"><path d="M0.525,-0.475l-0.09,0l-0.163,0.292l-0.171,-0.292l-0.091,0l0.217,0.373l-0.176,0.304l0.09,0l0.384,-0.677Z" style="fill:#004153;fill-rule:nonzero;"/></g><g transform="matrix(12,0,0,12,-71.7604,-27.9388)"><path d="M0.177,-0.225l0.004,-0.082c0.145,-0.016 0.226,-0.088 0.226,-0.205c0,-0.122 -0.099,-0.201 -0.262,-0.201c-0.026,0 -0.06,0.003 -0.082,0.006l0.007,0.084c0.019,-0.002 0.045,-0.004 0.071,-0.004c0.109,-0 0.175,0.044 0.175,0.118c0,0.08 -0.065,0.127 -0.178,0.127l-0.035,-0l0,0.157l0.074,0Zm-0.037,0.098c-0.036,0 -0.068,0.032 -0.068,0.068c-0,0.037 0.032,0.069 0.068,0.069c0.036,-0 0.068,-0.032 0.068,-0.069c-0,-0.036 -0.032,-0.068 -0.068,-0.068Z" style="fill:#004153;fill-rule:nonzero;"/></g><g transform="matrix(12,0,0,12,-66.3544,-27.9388)"><path d="M0.14,-0.72l-0,0.258l0.081,-0l0,-0.258l-0.081,0Zm0.171,0l-0,0.258l0.081,-0l0,-0.258l-0.081,0Z" style="fill:#004153;fill-rule:nonzero;"/></g><g transform="matrix(12,0,0,12,-56.7544,-27.9388)"><path d="M0.396,-0.475l-0.183,0l0,-0.081c0,-0.062 0.025,-0.098 0.082,-0.098c0.035,0 0.07,0.013 0.095,0.028l0.03,-0.068c-0.034,-0.021 -0.077,-0.036 -0.131,-0.036c-0.112,0 -0.157,0.074 -0.157,0.174l-0,0.081l-0.106,0l0,0.074l0.106,0l-0,0.401l0.081,-0l0,-0.401l0.183,0l-0,-0.074Z" style="fill:#004153;fill-rule:nonzero;"/></g><g transform="matrix(12,0,0,12,-51.6004,-27.9388)"><path d="M0.168,-0.475l-0.081,0l-0,0.475l0.081,-0l-0,-0.475Zm-0.041,-0.225c-0.033,-0 -0.058,0.025 -0.058,0.058c0,0.033 0.025,0.057 0.058,0.057c0.032,0 0.058,-0.024 0.058,-0.057c-0,-0.033 -0.026,-0.058 -0.058,-0.058Z" style="fill:#004153;fill-rule:nonzero;"/></g><g transform="matrix(12,0,0,12,-48.5464,-27.9388)"><path d="M0.509,-0.475l-0.087,0l-0.159,0.392l-0.16,-0.392l-0.089,0l0.2,0.475l0.096,0l0.199,-0.475Z" style="fill:#004153;fill-rule:nonzero;"/></g><g transform="matrix(12,0,0,12,-42.3424,-27.9388)"><path d="M0.287,-0.485c-0.137,0 -0.236,0.101 -0.236,0.247c-0,0.149 0.099,0.248 0.241,0.248c0.07,-0 0.136,-0.017 0.194,-0.072l-0.043,-0.056c-0.04,0.035 -0.091,0.057 -0.146,0.057c-0.082,-0 -0.151,-0.049 -0.162,-0.148l0.373,0c0.001,-0.009 0.002,-0.02 0.002,-0.03c-0.001,-0.146 -0.094,-0.246 -0.223,-0.246Zm-0.002,0.072c0.077,0 0.132,0.054 0.142,0.139l-0.291,-0c0.012,-0.082 0.065,-0.139 0.149,-0.139Z" style="fill:#004153;fill-rule:nonzero;"/></g><g transform="matrix(12,0,0,12,-32.4964,-27.9388)"><path d="M0.409,-0.475l-0.2,0l0,-0.149l-0.081,0l-0,0.149l-0.102,0l0,0.074l0.102,0l-0,0.234c-0,0.121 0.061,0.177 0.164,0.177c0.058,-0 0.106,-0.021 0.142,-0.047l-0.038,-0.061c-0.027,0.018 -0.062,0.032 -0.097,0.032c-0.052,-0 -0.09,-0.031 -0.09,-0.103l0,-0.232l0.2,0l-0,-0.074Z" style="fill:#004153;fill-rule:nonzero;"/></g><g transform="matrix(12,0,0,12,-27.0544,-27.9388)"><path d="M0.168,-0.475l-0.081,0l-0,0.475l0.081,-0l-0,-0.475Zm-0.041,-0.225c-0.033,-0 -0.058,0.025 -0.058,0.058c0,0.033 0.025,0.057 0.058,0.057c0.032,0 0.058,-0.024 0.058,-0.057c-0,-0.033 -0.026,-0.058 -0.058,-0.058Z" style="fill:#004153;fill-rule:nonzero;"/></g><g transform="matrix(12,0,0,12,-24.0004,-27.9388)"><path d="M0.676,-0.485c-0.065,0 -0.139,0.024 -0.178,0.095c-0.031,-0.059 -0.094,-0.095 -0.175,-0.095c-0.055,0 -0.117,0.019 -0.156,0.072l0,-0.062l-0.08,0l-0,0.475l0.081,-0l-0,-0.266c-0,-0.089 0.064,-0.142 0.141,-0.142c0.082,0 0.13,0.052 0.13,0.139l0,0.269l0.082,-0l-0,-0.267c-0,-0.086 0.061,-0.141 0.14,-0.141c0.083,0 0.131,0.052 0.131,0.139l-0,0.269l0.081,-0l0,-0.295c0,-0.114 -0.08,-0.19 -0.197,-0.19Z" style="fill:#004153;fill-rule:nonzero;"/></g><g transform="matrix(12,0,0,12,-12.5404,-27.9388)"><path d="M0.287,-0.485c-0.137,0 -0.236,0.101 -0.236,0.247c-0,0.149 0.099,0.248 0.241,0.248c0.07,-0 0.136,-0.017 0.194,-0.072l-0.043,-0.056c-0.04,0.035 -0.091,0.057 -0.146,0.057c-0.082,-0 -0.151,-0.049 -0.162,-0.148l0.373,0c0.001,-0.009 0.002,-0.02 0.002,-0.03c-0.001,-0.146 -0.094,-0.246 -0.223,-0.246Zm-0.002,0.072c0.077,0 0.132,0.054 0.142,0.139l-0.291,-0c0.012,-0.082 0.065,-0.139 0.149,-0.139Z" style="fill:#004153;fill-rule:nonzero;"/></g><g transform="matrix(12,0,0,12,-5.81438,-27.9388)"><path d="M0.442,-0.433c-0.046,-0.031 -0.114,-0.051 -0.19,-0.051c-0.115,-0 -0.19,0.054 -0.19,0.145c-0,0.072 0.051,0.121 0.157,0.134l0.056,0.006c0.064,0.008 0.095,0.03 0.095,0.065c0,0.047 -0.048,0.073 -0.126,0.073c-0.08,-0 -0.127,-0.023 -0.162,-0.051l-0.038,0.061c0.062,0.047 0.141,0.061 0.199,0.061c0.13,-0 0.211,-0.058 0.211,-0.149c-0,-0.078 -0.059,-0.121 -0.16,-0.135l-0.056,-0.007c-0.057,-0.007 -0.092,-0.024 -0.092,-0.062c0,-0.043 0.042,-0.071 0.107,-0.071c0.063,0 0.124,0.024 0.154,0.044l0.035,-0.063Z" style="fill:#004153;fill-rule:nonzero;"/></g><g transform="matrix(12,0,0,12,0.149622,-27.9388)"><path d="M0.09,-0.126l-0.029,0.257l0.07,-0l0.054,-0.257l-0.096,-0Z" style="fill:#004153;fill-rule:nonzero;"/></g><g transform="matrix(12,0,0,12,6.34162,-27.9388)"><path d="M0.442,-0.433c-0.046,-0.031 -0.114,-0.051 -0.19,-0.051c-0.115,-0 -0.19,0.054 -0.19,0.145c-0,0.072 0.051,0.121 0.157,0.134l0.056,0.006c0.064,0.008 0.095,0.03 0.095,0.065c0,0.047 -0.048,0.073 -0.126,0.073c-0.08,-0 -0.127,-0.023 -0.162,-0.051l-0.038,0.061c0.062,0.047 0.141,0.061 0.199,0.061c0.13,-0 0.211,-0.058 0.211,-0.149c-0,-0.078 -0.059,-0.121 -0.16,-0.135l-0.056,-0.007c-0.057,-0.007 -0.092,-0.024 -0.092,-0.062c0,-0.043 0.042,-0.071 0.107,-0.071c0.063,0 0.124,0.024 0.154,0.044l0.035,-0.063Z" style="fill:#004153;fill-rule:nonzero;"/></g><g transform="matrix(12,0,0,12,12.3056,-27.9388)"><path d="M0.409,-0.475l-0.2,0l0,-0.149l-0.081,0l-0,0.149l-0.102,0l0,0.074l0.102,0l-0,0.234c-0,0.121 0.061,0.177 0.164,0.177c0.058,-0 0.106,-0.021 0.142,-0.047l-0.038,-0.061c-0.027,0.018 -0.062,0.032 -0.097,0.032c-0.052,-0 -0.09,-0.031 -0.09,-0.103l0,-0.232l0.2,0l-0,-0.074Z" style="fill:#004153;fill-rule:nonzero;"/></g><g transform="matrix(12,0,0,12,17.7356,-27.9388)"><path d="M0.537,-0.475l-0.081,0l-0,0.064c-0.038,-0.045 -0.093,-0.074 -0.168,-0.074c-0.134,0 -0.237,0.104 -0.237,0.247c-0,0.144 0.103,0.248 0.237,0.248c0.075,-0 0.13,-0.029 0.168,-0.073l-0,0.063l0.081,-0l0,-0.475Zm-0.239,0.067c0.096,-0 0.163,0.073 0.163,0.17c-0,0.098 -0.067,0.172 -0.163,0.172c-0.098,-0 -0.164,-0.077 -0.164,-0.172c-0,-0.094 0.064,-0.17 0.164,-0.17Z" style="fill:#004153;fill-rule:nonzero;"/></g><g transform="matrix(12,0,0,12,25.2236,-27.9388)"><path d="M0.306,-0.485c-0.057,0 -0.106,0.026 -0.139,0.072l-0,-0.062l-0.08,0l-0,0.475l0.081,-0l-0,-0.264c-0,-0.088 0.051,-0.144 0.123,-0.144c0.027,0 0.059,0.007 0.082,0.019l0.02,-0.08c-0.026,-0.011 -0.053,-0.016 -0.087,-0.016Z" style="fill:#004153;fill-rule:nonzero;"/></g><g transform="matrix(12,0,0,12,30.3716,-27.9388)"><path d="M0.409,-0.475l-0.2,0l0,-0.149l-0.081,0l-0,0.149l-0.102,0l0,0.074l0.102,0l-0,0.234c-0,0.121 0.061,0.177 0.164,0.177c0.058,-0 0.106,-0.021 0.142,-0.047l-0.038,-0.061c-0.027,0.018 -0.062,0.032 -0.097,0.032c-0.052,-0 -0.09,-0.031 -0.09,-0.103l0,-0.232l0.2,0l-0,-0.074Z" style="fill:#004153;fill-rule:nonzero;"/></g><g transform="matrix(12,0,0,12,35.8136,-27.9388)"><path d="M0.168,-0.475l-0.081,0l-0,0.475l0.081,-0l-0,-0.475Zm-0.041,-0.225c-0.033,-0 -0.058,0.025 -0.058,0.058c0,0.033 0.025,0.057 0.058,0.057c0.032,0 0.058,-0.024 0.058,-0.057c-0,-0.033 -0.026,-0.058 -0.058,-0.058Z" style="fill:#004153;fill-rule:nonzero;"/></g><g transform="matrix(12,0,0,12,38.8676,-27.9388)"><path d="M0.323,-0.485c-0.055,0 -0.117,0.019 -0.156,0.072l0,-0.062l-0.08,0l-0,0.475l0.081,-0l-0,-0.266c-0,-0.089 0.064,-0.142 0.141,-0.142c0.082,0 0.13,0.052 0.13,0.139l0,0.269l0.082,-0l-0,-0.295c-0,-0.114 -0.081,-0.19 -0.198,-0.19Z" style="fill:#004153;fill-rule:nonzero;"/></g><g transform="matrix(12,0,0,12,46.0976,-27.9388)"><path d="M0.285,-0.485c-0.133,0 -0.234,0.099 -0.234,0.244c-0,0.145 0.101,0.243 0.234,0.243c0.074,0 0.128,-0.028 0.164,-0.073l0,0.041c0,0.106 -0.068,0.164 -0.171,0.164c-0.061,-0 -0.118,-0.021 -0.163,-0.053l-0.035,0.066c0.048,0.038 0.124,0.061 0.198,0.061c0.151,-0 0.253,-0.087 0.253,-0.241l-0,-0.442l-0.082,0l0,0.065c-0.036,-0.046 -0.09,-0.075 -0.164,-0.075Zm0.01,0.077c0.095,-0 0.161,0.072 0.161,0.167c0,0.095 -0.066,0.167 -0.161,0.167c-0.098,-0 -0.161,-0.075 -0.161,-0.167c-0,-0.092 0.063,-0.167 0.161,-0.167Z" style="fill:#004153;fill-rule:nonzero;"/></g><g transform="matrix(12,0,0,12,56.6276,-27.9388)"><path d="M0.396,-0.475l-0.183,0l0,-0.081c0,-0.062 0.025,-0.098 0.082,-0.098c0.035,0 0.07,0.013 0.095,0.028l0.03,-0.068c-0.034,-0.021 -0.077,-0.036 -0.131,-0.036c-0.112,0 -0.157,0.074 -0.157,0.174l-0,0.081l-0.106,0l0,0.074l0.106,0l-0,0.401l0.081,-0l0,-0.401l0.183,0l-0,-0.074Z" style="fill:#004153;fill-rule:nonzero;"/></g><g transform="matrix(12,0,0,12,61.6376,-27.9388)"><path d="M0.306,-0.485c-0.057,0 -0.106,0.026 -0.139,0.072l-0,-0.062l-0.08,0l-0,0.475l0.081,-0l-0,-0.264c-0,-0.088 0.051,-0.144 0.123,-0.144c0.027,0 0.059,0.007 0.082,0.019l0.02,-0.08c-0.026,-0.011 -0.053,-0.016 -0.087,-0.016Z" style="fill:#004153;fill-rule:nonzero;"/></g><g transform="matrix(12,0,0,12,66.4256,-27.9388)"><path d="M0.301,-0.485c-0.144,0 -0.25,0.106 -0.25,0.247c-0,0.142 0.106,0.248 0.25,0.248c0.145,-0 0.252,-0.106 0.252,-0.248c-0,-0.141 -0.107,-0.247 -0.252,-0.247Zm0,0.077c0.096,-0 0.168,0.071 0.168,0.17c0,0.1 -0.072,0.172 -0.168,0.172c-0.095,-0 -0.167,-0.072 -0.167,-0.172c-0,-0.099 0.072,-0.17 0.167,-0.17Z" style="fill:#004153;fill-rule:nonzero;"/></g><g transform="matrix(12,0,0,12,73.6676,-27.9388)"><path d="M0.676,-0.485c-0.065,0 -0.139,0.024 -0.178,0.095c-0.031,-0.059 -0.094,-0.095 -0.175,-0.095c-0.055,0 -0.117,0.019 -0.156,0.072l0,-0.062l-0.08,0l-0,0.475l0.081,-0l-0,-0.266c-0,-0.089 0.064,-0.142 0.141,-0.142c0.082,0 0.13,0.052 0.13,0.139l0,0.269l0.082,-0l-0,-0.267c-0,-0.086 0.061,-0.141 0.14,-0.141c0.083,0 0.131,0.052 0.131,0.139l-0,0.269l0.081,-0l0,-0.295c0,-0.114 -0.08,-0.19 -0.197,-0.19Z" style="fill:#004153;fill-rule:nonzero;"/></g><g transform="matrix(12,0,0,12,88.1156,-27.9388)"><path d="M0.525,-0.475l-0.09,0l-0.163,0.292l-0.171,-0.292l-0.091,0l0.217,0.373l-0.176,0.304l0.09,0l0.384,-0.677Z" style="fill:#004153;fill-rule:nonzero;"/></g><g transform="matrix(12,0,0,12,94.3976,-27.9388)"><path d="M0.301,-0.485c-0.144,0 -0.25,0.106 -0.25,0.247c-0,0.142 0.106,0.248 0.25,0.248c0.145,-0 0.252,-0.106 0.252,-0.248c-0,-0.141 -0.107,-0.247 -0.252,-0.247Zm0,0.077c0.096,-0 0.168,0.071 0.168,0.17c0,0.1 -0.072,0.172 -0.168,0.172c-0.095,-0 -0.167,-0.072 -0.167,-0.172c-0,-0.099 0.072,-0.17 0.167,-0.17Z" style="fill:#004153;fill-rule:nonzero;"/></g><g transform="matrix(12,0,0,12,101.64,-27.9388)"><path d="M0.515,-0.475l-0.082,0l0,0.269c0,0.097 -0.057,0.14 -0.135,0.14c-0.077,-0 -0.135,-0.043 -0.135,-0.14l0,-0.269l-0.081,0l-0,0.276c-0,0.144 0.102,0.209 0.216,0.209c0.114,-0 0.217,-0.065 0.217,-0.209l-0,-0.276Z" style="fill:#004153;fill-rule:nonzero;"/></g><g transform="matrix(12,0,0,12,108.798,-27.9388)"><path d="M0.306,-0.485c-0.057,0 -0.106,0.026 -0.139,0.072l-0,-0.062l-0.08,0l-0,0.475l0.081,-0l-0,-0.264c-0,-0.088 0.051,-0.144 0.123,-0.144c0.027,0 0.059,0.007 0.082,0.019l0.02,-0.08c-0.026,-0.011 -0.053,-0.016 -0.087,-0.016Z" style="fill:#004153;fill-rule:nonzero;"/></g><g transform="matrix(12,0,0,12,-128.976,-13.5388)"><path d="M0.168,-0.475l-0.081,0l-0,0.475l0.081,-0l-0,-0.475Zm-0.041,-0.225c-0.033,-0 -0.058,0.025 -0.058,0.058c0,0.033 0.025,0.057 0.058,0.057c0.032,0 0.058,-0.024 0.058,-0.057c-0,-0.033 -0.026,-0.058 -0.058,-0.058Z" style="fill:#004153;fill-rule:nonzero;"/></g><g transform="matrix(12,0,0,12,-125.922,-13.5388)"><path d="M0.323,-0.485c-0.055,0 -0.117,0.019 -0.156,0.072l0,-0.062l-0.08,0l-0,0.475l0.081,-0l-0,-0.266c-0,-0.089 0.064,-0.142 0.141,-0.142c0.082,0 0.13,0.052 0.13,0.139l0,0.269l0.082,-0l-0,-0.295c-0,-0.114 -0.081,-0.19 -0.198,-0.19Z" style="fill:#004153;fill-rule:nonzero;"/></g><g transform="matrix(12,0,0,12,-118.692,-13.5388)"><path d="M0.168,-0.475l-0.081,0l-0,0.475l0.081,-0l-0,-0.475Zm-0.041,-0.225c-0.033,-0 -0.058,0.025 -0.058,0.058c0,0.033 0.025,0.057 0.058,0.057c0.032,0 0.058,-0.024 0.058,-0.057c-0,-0.033 -0.026,-0.058 -0.058,-0.058Z" style="fill:#004153;fill-rule:nonzero;"/></g><g transform="matrix(12,0,0,12,-115.638,-13.5388)"><path d="M0.409,-0.475l-0.2,0l0,-0.149l-0.081,0l-0,0.149l-0.102,0l0,0.074l0.102,0l-0,0.234c-0,0.121 0.061,0.177 0.164,0.177c0.058,-0 0.106,-0.021 0.142,-0.047l-0.038,-0.061c-0.027,0.018 -0.062,0.032 -0.097,0.032c-0.052,-0 -0.09,-0.031 -0.09,-0.103l0,-0.232l0.2,0l-0,-0.074Z" style="fill:#004153;fill-rule:nonzero;"/></g><g transform="matrix(12,0,0,12,-110.196,-13.5388)"><path d="M0.168,-0.475l-0.081,0l-0,0.475l0.081,-0l-0,-0.475Zm-0.041,-0.225c-0.033,-0 -0.058,0.025 -0.058,0.058c0,0.033 0.025,0.057 0.058,0.057c0.032,0 0.058,-0.024 0.058,-0.057c-0,-0.033 -0.026,-0.058 -0.058,-0.058Z" style="fill:#004153;fill-rule:nonzero;"/></g><g transform="matrix(12,0,0,12,-107.142,-13.5388)"><path d="M0.537,-0.475l-0.081,0l-0,0.064c-0.038,-0.045 -0.093,-0.074 -0.168,-0.074c-0.134,0 -0.237,0.104 -0.237,0.247c-0,0.144 0.103,0.248 0.237,0.248c0.075,-0 0.13,-0.029 0.168,-0.073l-0,0.063l0.081,-0l0,-0.475Zm-0.239,0.067c0.096,-0 0.163,0.073 0.163,0.17c-0,0.098 -0.067,0.172 -0.163,0.172c-0.098,-0 -0.164,-0.077 -0.164,-0.172c-0,-0.094 0.064,-0.17 0.164,-0.17Z" style="fill:#004153;fill-rule:nonzero;"/></g><g transform="matrix(12,0,0,12,-99.6544,-13.5388)"><rect x="0.087" y="-0.72" width="0.081" height="0.72" style="fill:#004153;fill-rule:nonzero;"/></g><g transform="matrix(12,0,0,12,-93.3904,-13.5388)"><path d="M0.336,-0.485c-0.076,0 -0.131,0.029 -0.168,0.073l-0,-0.063l-0.081,0l-0,0.675l0.081,-0l-0,-0.263c0.037,0.044 0.092,0.073 0.168,0.073c0.133,-0 0.237,-0.104 0.237,-0.247c-0,-0.144 -0.104,-0.248 -0.237,-0.248Zm-0.01,0.077c0.097,-0 0.163,0.076 0.163,0.17c0,0.095 -0.064,0.172 -0.163,0.172c-0.096,-0 -0.163,-0.074 -0.163,-0.172c-0,-0.097 0.067,-0.17 0.163,-0.17Z" style="fill:#004153;fill-rule:nonzero;"/></g><g transform="matrix(12,0,0,12,-85.9084,-13.5388)"><path d="M0.306,-0.485c-0.057,0 -0.106,0.026 -0.139,0.072l-0,-0.062l-0.08,0l-0,0.475l0.081,-0l-0,-0.264c-0,-0.088 0.051,-0.144 0.123,-0.144c0.027,0 0.059,0.007 0.082,0.019l0.02,-0.08c-0.026,-0.011 -0.053,-0.016 -0.087,-0.016Z" style="fill:#004153;fill-rule:nonzero;"/></g><g transform="matrix(12,0,0,12,-81.1204,-13.5388)"><path d="M0.301,-0.485c-0.144,0 -0.25,0.106 -0.25,0.247c-0,0.142 0.106,0.248 0.25,0.248c0.145,-0 0.252,-0.106 0.252,-0.248c-0,-0.141 -0.107,-0.247 -0.252,-0.247Zm0,0.077c0.096,-0 0.168,0.071 0.168,0.17c0,0.1 -0.072,0.172 -0.168,0.172c-0.095,-0 -0.167,-0.072 -0.167,-0.172c-0,-0.099 0.072,-0.17 0.167,-0.17Z" style="fill:#004153;fill-rule:nonzero;"/></g><g transform="matrix(12,0,0,12,-73.8784,-13.5388)"><path d="M0.336,-0.485c-0.076,0 -0.131,0.029 -0.168,0.073l-0,-0.308l-0.081,0l-0,0.72l0.081,-0l-0,-0.064c0.037,0.045 0.092,0.074 0.168,0.074c0.133,-0 0.237,-0.104 0.237,-0.248c-0,-0.143 -0.104,-0.247 -0.237,-0.247Zm-0.01,0.077c0.097,-0 0.163,0.076 0.163,0.17c0,0.095 -0.064,0.172 -0.163,0.172c-0.096,-0 -0.163,-0.074 -0.163,-0.172c-0,-0.097 0.067,-0.17 0.163,-0.17Z" style="fill:#004153;fill-rule:nonzero;"/></g><g transform="matrix(12,0,0,12,-66.3964,-13.5388)"><rect x="0.087" y="-0.72" width="0.081" height="0.72" style="fill:#004153;fill-rule:nonzero;"/></g><g transform="matrix(12,0,0,12,-63.3424,-13.5388)"><path d="M0.287,-0.485c-0.137,0 -0.236,0.101 -0.236,0.247c-0,0.149 0.099,0.248 0.241,0.248c0.07,-0 0.136,-0.017 0.194,-0.072l-0.043,-0.056c-0.04,0.035 -0.091,0.057 -0.146,0.057c-0.082,-0 -0.151,-0.049 -0.162,-0.148l0.373,0c0.001,-0.009 0.002,-0.02 0.002,-0.03c-0.001,-0.146 -0.094,-0.246 -0.223,-0.246Zm-0.002,0.072c0.077,0 0.132,0.054 0.142,0.139l-0.291,-0c0.012,-0.082 0.065,-0.139 0.149,-0.139Z" style="fill:#004153;fill-rule:nonzero;"/></g><g transform="matrix(12,0,0,12,-56.6164,-13.5388)"><path d="M0.676,-0.485c-0.065,0 -0.139,0.024 -0.178,0.095c-0.031,-0.059 -0.094,-0.095 -0.175,-0.095c-0.055,0 -0.117,0.019 -0.156,0.072l0,-0.062l-0.08,0l-0,0.475l0.081,-0l-0,-0.266c-0,-0.089 0.064,-0.142 0.141,-0.142c0.082,0 0.13,0.052 0.13,0.139l0,0.269l0.082,-0l-0,-0.267c-0,-0.086 0.061,-0.141 0.14,-0.141c0.083,0 0.131,0.052 0.131,0.139l-0,0.269l0.081,-0l0,-0.295c0,-0.114 -0.08,-0.19 -0.197,-0.19Z" style="fill:#004153;fill-rule:nonzero;"/></g><g transform="matrix(12,0,0,12,-41.9464,-13.5388)"><path d="M0.344,-0.716c-0.163,0.064 -0.272,0.232 -0.272,0.432c0,0.2 0.109,0.368 0.272,0.432l0.029,-0.075c-0.132,-0.056 -0.214,-0.198 -0.214,-0.357c0,-0.159 0.082,-0.301 0.214,-0.357l-0.029,-0.075Z" style="fill:#004153;fill-rule:nonzero;"/></g><g transform="matrix(12,0,0,12,-36.9904,-13.5388)"><path d="M0.519,-0.208l-0.438,0l-0,0.074l0.438,0l0,-0.074Zm0,-0.188l-0.438,-0l-0,0.074l0.438,-0l0,-0.074Z" style="fill:#004153;fill-rule:nonzero;"/></g><g transform="matrix(12,0,0,12,-26.5804,-13.5388)"><path d="M0.676,-0.485c-0.065,0 -0.139,0.024 -0.178,0.095c-0.031,-0.059 -0.094,-0.095 -0.175,-0.095c-0.055,0 -0.117,0.019 -0.156,0.072l0,-0.062l-0.08,0l-0,0.475l0.081,-0l-0,-0.266c-0,-0.089 0.064,-0.142 0.141,-0.142c0.082,0 0.13,0.052 0.13,0.139l0,0.269l0.082,-0l-0,-0.267c-0,-0.086 0.061,-0.141 0.14,-0.141c0.083,0 0.131,0.052 0.131,0.139l-0,0.269l0.081,-0l0,-0.295c0,-0.114 -0.08,-0.19 -0.197,-0.19Z" style="fill:#004153;fill-rule:nonzero;"/></g><g transform="matrix(12,0,0,12,-15.1204,-13.5388)"><path d="M0.537,-0.475l-0.081,0l-0,0.064c-0.038,-0.045 -0.093,-0.074 -0.168,-0.074c-0.134,0 -0.237,0.104 -0.237,0.247c-0,0.144 0.103,0.248 0.237,0.248c0.075,-0 0.13,-0.029 0.168,-0.073l-0,0.063l0.081,-0l0,-0.475Zm-0.239,0.067c0.096,-0 0.163,0.073 0.163,0.17c-0,0.098 -0.067,0.172 -0.163,0.172c-0.098,-0 -0.164,-0.077 -0.164,-0.172c-0,-0.094 0.064,-0.17 0.164,-0.17Z" style="fill:#004153;fill-rule:nonzero;"/></g><g transform="matrix(12,0,0,12,-7.63238,-13.5388)"><path d="M0.525,-0.475l-0.09,0l-0.163,0.292l-0.171,-0.292l-0.091,0l0.217,0.373l-0.176,0.304l0.09,0l0.384,-0.677Z" style="fill:#004153;fill-rule:nonzero;"/></g><g transform="matrix(12,0,0,12,1.69162,-13.5388)"><path d="M0.336,-0.485c-0.076,0 -0.131,0.029 -0.168,0.073l-0,-0.308l-0.081,0l-0,0.72l0.081,-0l-0,-0.064c0.037,0.045 0.092,0.074 0.168,0.074c0.133,-0 0.237,-0.104 0.237,-0.248c-0,-0.143 -0.104,-0.247 -0.237,-0.247Zm-0.01,0.077c0.097,-0 0.163,0.076 0.163,0.17c0,0.095 -0.064,0.172 -0.163,0.172c-0.096,-0 -0.163,-0.074 -0.163,-0.172c-0,-0.097 0.067,-0.17 0.163,-0.17Z" style="fill:#004153;fill-rule:nonzero;"/></g><g transform="matrix(12,0,0,12,9.17362,-13.5388)"><path d="M0.287,-0.485c-0.137,0 -0.236,0.101 -0.236,0.247c-0,0.149 0.099,0.248 0.241,0.248c0.07,-0 0.136,-0.017 0.194,-0.072l-0.043,-0.056c-0.04,0.035 -0.091,0.057 -0.146,0.057c-0.082,-0 -0.151,-0.049 -0.162,-0.148l0.373,0c0.001,-0.009 0.002,-0.02 0.002,-0.03c-0.001,-0.146 -0.094,-0.246 -0.223,-0.246Zm-0.002,0.072c0.077,0 0.132,0.054 0.142,0.139l-0.291,-0c0.012,-0.082 0.065,-0.139 0.149,-0.139Z" style="fill:#004153;fill-rule:nonzero;"/></g><g transform="matrix(12,0,0,12,19.1096,-13.5388)"><path d="M0.537,-0.475l-0.081,0l-0,0.064c-0.038,-0.045 -0.093,-0.074 -0.168,-0.074c-0.134,0 -0.237,0.104 -0.237,0.247c-0,0.144 0.103,0.248 0.237,0.248c0.075,-0 0.13,-0.029 0.168,-0.073l-0,0.063l0.081,-0l0,-0.475Zm-0.239,0.067c0.096,-0 0.163,0.073 0.163,0.17c-0,0.098 -0.067,0.172 -0.163,0.172c-0.098,-0 -0.164,-0.077 -0.164,-0.172c-0,-0.094 0.064,-0.17 0.164,-0.17Z" style="fill:#004153;fill-rule:nonzero;"/></g><g transform="matrix(12,0,0,12,29.8076,-13.5388)"><path d="M0.442,-0.433c-0.046,-0.031 -0.114,-0.051 -0.19,-0.051c-0.115,-0 -0.19,0.054 -0.19,0.145c-0,0.072 0.051,0.121 0.157,0.134l0.056,0.006c0.064,0.008 0.095,0.03 0.095,0.065c0,0.047 -0.048,0.073 -0.126,0.073c-0.08,-0 -0.127,-0.023 -0.162,-0.051l-0.038,0.061c0.062,0.047 0.141,0.061 0.199,0.061c0.13,-0 0.211,-0.058 0.211,-0.149c-0,-0.078 -0.059,-0.121 -0.16,-0.135l-0.056,-0.007c-0.057,-0.007 -0.092,-0.024 -0.092,-0.062c0,-0.043 0.042,-0.071 0.107,-0.071c0.063,0 0.124,0.024 0.154,0.044l0.035,-0.063Z" style="fill:#004153;fill-rule:nonzero;"/></g><g transform="matrix(12,0,0,12,35.7716,-13.5388)"><path d="M0.525,-0.475l-0.09,0l-0.163,0.292l-0.171,-0.292l-0.091,0l0.217,0.373l-0.176,0.304l0.09,0l0.384,-0.677Z" style="fill:#004153;fill-rule:nonzero;"/></g><g transform="matrix(12,0,0,12,42.1556,-13.5388)"><path d="M0.676,-0.485c-0.065,0 -0.139,0.024 -0.178,0.095c-0.031,-0.059 -0.094,-0.095 -0.175,-0.095c-0.055,0 -0.117,0.019 -0.156,0.072l0,-0.062l-0.08,0l-0,0.475l0.081,-0l-0,-0.266c-0,-0.089 0.064,-0.142 0.141,-0.142c0.082,0 0.13,0.052 0.13,0.139l0,0.269l0.082,-0l-0,-0.267c-0,-0.086 0.061,-0.141 0.14,-0.141c0.083,0 0.131,0.052 0.131,0.139l-0,0.269l0.081,-0l0,-0.295c0,-0.114 -0.08,-0.19 -0.197,-0.19Z" style="fill:#004153;fill-rule:nonzero;"/></g><g transform="matrix(12,0,0,12,53.6156,-13.5388)"><path d="M0.336,-0.485c-0.076,0 -0.131,0.029 -0.168,0.073l-0,-0.063l-0.081,0l-0,0.675l0.081,-0l-0,-0.263c0.037,0.044 0.092,0.073 0.168,0.073c0.133,-0 0.237,-0.104 0.237,-0.247c-0,-0.144 -0.104,-0.248 -0.237,-0.248Zm-0.01,0.077c0.097,-0 0.163,0.076 0.163,0.17c0,0.095 -0.064,0.172 -0.163,0.172c-0.096,-0 -0.163,-0.074 -0.163,-0.172c-0,-0.097 0.067,-0.17 0.163,-0.17Z" style="fill:#004153;fill-rule:nonzero;"/></g><g transform="matrix(12,0,0,12,61.0376,-13.5388)"><path d="M0.409,-0.475l-0.2,0l0,-0.149l-0.081,0l-0,0.149l-0.102,0l0,0.074l0.102,0l-0,0.234c-0,0.121 0.061,0.177 0.164,0.177c0.058,-0 0.106,-0.021 0.142,-0.047l-0.038,-0.061c-0.027,0.018 -0.062,0.032 -0.097,0.032c-0.052,-0 -0.09,-0.031 -0.09,-0.103l0,-0.232l0.2,0l-0,-0.074Z" style="fill:#004153;fill-rule:nonzero;"/></g><g transform="matrix(12,0,0,12,66.4676,-13.5388)"><path d="M0.301,-0.485c-0.144,0 -0.25,0.106 -0.25,0.247c-0,0.142 0.106,0.248 0.25,0.248c0.145,-0 0.252,-0.106 0.252,-0.248c-0,-0.141 -0.107,-0.247 -0.252,-0.247Zm0,0.077c0.096,-0 0.168,0.071 0.168,0.17c0,0.1 -0.072,0.172 -0.168,0.172c-0.095,-0 -0.167,-0.072 -0.167,-0.172c-0,-0.099 0.072,-0.17 0.167,-0.17Z" style="fill:#004153;fill-rule:nonzero;"/></g><g transform="matrix(12,0,0,12,73.7096,-13.5388)"><path d="M0.676,-0.485c-0.065,0 -0.139,0.024 -0.178,0.095c-0.031,-0.059 -0.094,-0.095 -0.175,-0.095c-0.055,0 -0.117,0.019 -0.156,0.072l0,-0.062l-0.08,0l-0,0.475l0.081,-0l-0,-0.266c-0,-0.089 0.064,-0.142 0.141,-0.142c0.082,0 0.13,0.052 0.13,0.139l0,0.269l0.082,-0l-0,-0.267c-0,-0.086 0.061,-0.141 0.14,-0.141c0.083,0 0.131,0.052 0.131,0.139l-0,0.269l0.081,-0l0,-0.295c0,-0.114 -0.08,-0.19 -0.197,-0.19Z" style="fill:#004153;fill-rule:nonzero;"/></g><g transform="matrix(12,0,0,12,85.1696,-13.5388)"><path d="M0.069,0.147c0.163,-0.064 0.272,-0.232 0.272,-0.432c-0,-0.2 -0.109,-0.368 -0.272,-0.432l-0.029,0.075c0.132,0.056 0.214,0.198 0.214,0.357c-0,0.159 -0.082,0.301 -0.214,0.357l0.029,0.075Z" style="fill:#004153;fill-rule:nonzero;"/></g><g transform="matrix(12,0,0,12,90.1256,-13.5388)"><path d="M0.181,-0.7l-0.1,0l0.013,0.475l0.074,0l0.013,-0.475Zm-0.05,0.573c-0.036,-0 -0.068,0.031 -0.068,0.068c0,0.036 0.032,0.069 0.068,0.069c0.037,-0 0.068,-0.033 0.068,-0.069c0,-0.037 -0.031,-0.068 -0.068,-0.068Z" style="fill:#004153;fill-rule:nonzero;"/></g></g><rect x="86.957" y="89.008" width="190.339" height="30.047" style="fill:#fff;stroke:#004153;stroke-width:1px;"/><rect x="86.957" y="134.862" width="190.339" height="30.047" style="fill:#fff9f5;stroke:#004153;stroke-width:1px;"/><rect x="86.957" y="180.717" width="190.339" height="30.047" style="fill:#ffe6d9;stroke:#004153;stroke-width:1px;"/><rect x="86.957" y="226.571" width="190.339" height="30.047" style="fill:#ffcdb2;stroke:#004153;stroke-width:1px;"/><rect x="86.957" y="272.425" width="190.339" height="30.047" style="fill:#ffb58c;stroke:#004153;stroke-width:1px;"/><rect x="86.957" y="318.28" width="190.339" height="30.047" style="fill:#f39260;stroke:#004153;stroke-width:1px;"/><path d="M27.06,100.329c-0.791,-0.546 -1.757,-0.917 -3.023,-0.917c-1.771,-0 -3.21,0.905 -3.21,2.525c-0,1.434 1.103,2.076 2.489,2.244l0.781,0.096c1.308,0.162 2.01,0.534 2.01,1.314c-0,0.948 -0.984,1.459 -2.238,1.459c-1.069,-0 -2.155,-0.427 -2.736,-0.931l-0.576,0.841c0.81,0.677 2.117,1.091 3.312,1.091c1.818,-0 3.335,-0.876 3.335,-2.55c0,-1.482 -1.217,-2.058 -2.639,-2.232l-0.739,-0.09c-1.26,-0.156 -1.902,-0.546 -1.902,-1.308c0,-0.906 0.876,-1.458 2.107,-1.458c0.972,-0 1.806,0.312 2.49,0.774l0.539,-0.858Z" style="fill:#004153;fill-rule:nonzero;"/><path d="M34.135,102.232l-1.08,-0l-1.95,3.503l-2.052,-3.503l-1.098,-0l2.598,4.481l-2.106,3.648l1.086,-0l4.602,-8.129Z" style="fill:#004153;fill-rule:nonzero;"/><path d="M42.325,102.112c-0.775,-0 -1.657,0.281 -2.125,1.145c-0.377,-0.714 -1.139,-1.145 -2.105,-1.145c-0.661,-0 -1.399,0.221 -1.867,0.863l0,-0.743l-0.971,-0l-0,5.699l0.977,-0l0,-3.198c0,-1.062 0.768,-1.692 1.687,-1.692c0.99,-0 1.566,0.618 1.566,1.668l-0,3.222l0.983,-0l0,-3.198c0,-1.038 0.738,-1.692 1.681,-1.692c0.99,-0 1.566,0.618 1.566,1.668l-0,3.222l0.983,-0l0,-3.54c0,-1.368 -0.965,-2.279 -2.375,-2.279Z" style="fill:#004153;fill-rule:nonzero;"/><path d="M49.705,102.112c-0.901,-0 -1.567,0.347 -2.011,0.881l0,-0.761l-0.977,-0l-0,8.099l0.977,-0l0,-3.161c0.444,0.533 1.11,0.881 2.011,0.881c1.596,-0 2.849,-1.247 2.849,-2.969c0,-1.723 -1.253,-2.97 -2.849,-2.97Zm-0.114,0.923c1.164,-0 1.956,0.912 1.956,2.046c-0,1.134 -0.774,2.053 -1.956,2.053c-1.153,-0 -1.957,-0.883 -1.957,-2.053c0,-1.164 0.804,-2.046 1.957,-2.046Z" style="fill:#004153;fill-rule:nonzero;"/><path d="M58.008,102.232l-2.394,-0l0,-1.788l-0.983,-0l-0,1.788l-1.218,-0l-0,0.893l1.218,-0l-0,2.796c-0,1.452 0.737,2.13 1.973,2.13c0.702,-0 1.272,-0.246 1.71,-0.564l-0.462,-0.738c-0.324,0.223 -0.744,0.385 -1.164,0.385c-0.618,-0 -1.074,-0.373 -1.074,-1.231l0,-2.778l2.394,-0l0,-0.893Z" style="fill:#004153;fill-rule:nonzero;"/><path d="M62.149,102.112c-1.729,-0 -3.012,1.277 -3.012,2.969c-0,1.692 1.283,2.97 3.012,2.97c1.728,-0 3.017,-1.278 3.017,-2.97c0,-1.692 -1.289,-2.969 -3.017,-2.969Zm-0,0.923c1.14,-0 2.01,0.852 2.01,2.046c-0,1.194 -0.87,2.053 -2.01,2.053c-1.147,-0 -2.011,-0.859 -2.011,-2.053c0,-1.194 0.864,-2.046 2.011,-2.046Z" style="fill:#004153;fill-rule:nonzero;"/><path d="M73.879,102.112c-0.775,-0 -1.657,0.281 -2.125,1.145c-0.377,-0.714 -1.139,-1.145 -2.105,-1.145c-0.661,-0 -1.399,0.221 -1.867,0.863l0,-0.743l-0.971,-0l-0,5.699l0.977,-0l0,-3.198c0,-1.062 0.768,-1.692 1.687,-1.692c0.99,-0 1.566,0.618 1.566,1.668l-0,3.222l0.983,-0l0,-3.198c0,-1.038 0.738,-1.692 1.681,-1.692c0.99,-0 1.566,0.618 1.566,1.668l-0,3.222l0.983,-0l0,-3.54c0,-1.368 -0.965,-2.279 -2.375,-2.279Z" style="fill:#004153;fill-rule:nonzero;"/><path d="M23.652,145.278l-3.419,1.452l-0,1.056l2.406,-1.032l-0,7.031l1.013,0l0,-8.507Z" style="fill:#004153;fill-rule:nonzero;"/><path d="M26.473,152.262c-0.438,-0 -0.822,0.378 -0.822,0.815c-0,0.444 0.384,0.828 0.822,0.828c0.437,0 0.815,-0.384 0.815,-0.828c0,-0.437 -0.378,-0.815 -0.815,-0.815Z" style="fill:#004153;fill-rule:nonzero;"/><path d="M43.951,145.386l-1.086,-0l-2.244,7.211l-2.304,-7.217l-1.2,-0l-2.298,7.217l-2.25,-7.211l-1.11,-0l2.694,8.405l1.302,0l2.25,-7.013l2.25,7.013l1.308,0l2.688,-8.405Z" style="fill:#004153;fill-rule:nonzero;"/><path d="M46.302,145.146l-0.977,-0l-0,8.639l0.977,0l0,-3.198c0,-1.062 0.768,-1.692 1.687,-1.692c0.99,0 1.566,0.618 1.566,1.668l-0,3.222l0.983,0l0,-3.54c0,-1.368 -0.971,-2.279 -2.375,-2.279c-0.661,-0 -1.393,0.216 -1.861,0.857l0,-3.677Z" style="fill:#004153;fill-rule:nonzero;"/><path d="M57.649,148.086l-1.08,-0l-1.95,3.504l-2.052,-3.504l-1.098,-0l2.598,4.481l-2.106,3.648l1.086,0l4.602,-8.129Z" style="fill:#004153;fill-rule:nonzero;"/><path d="M59.856,151.091l0.048,-0.984c1.741,-0.192 2.718,-1.067 2.718,-2.466c0,-1.464 -1.199,-2.411 -3.15,-2.411c-0.311,-0 -0.719,0.03 -0.989,0.072l0.084,1.007c0.234,-0.024 0.546,-0.048 0.858,-0.048c1.302,0 2.1,0.534 2.1,1.422c-0,0.955 -0.786,1.513 -2.142,1.513l-0.414,-0l-0,1.895l0.887,0Zm-0.443,1.171c-0.438,-0 -0.822,0.378 -0.822,0.815c-0,0.444 0.384,0.828 0.822,0.828c0.437,0 0.815,-0.384 0.815,-0.828c0,-0.437 -0.378,-0.815 -0.815,-0.815Z" style="fill:#004153;fill-rule:nonzero;"/><path d="M21.139,193.112c0.402,-0.54 0.9,-1.021 1.836,-1.021c1.062,0 1.674,0.715 1.674,1.651c0,0.69 -0.336,1.254 -0.84,1.782l-3.144,3.318l0,0.797l5.31,0l-0,-0.965l-3.804,0l2.412,-2.562c0.54,-0.57 1.128,-1.32 1.128,-2.364c-0,-1.506 -0.996,-2.628 -2.712,-2.628c-1.452,0 -2.196,0.816 -2.592,1.398l0.732,0.594Z" style="fill:#004153;fill-rule:nonzero;"/><path d="M28.273,198.116c-0.438,0 -0.822,0.378 -0.822,0.816c0,0.444 0.384,0.827 0.822,0.827c0.438,0 0.816,-0.383 0.816,-0.827c-0,-0.438 -0.378,-0.816 -0.816,-0.816Z" style="fill:#004153;fill-rule:nonzero;"/><path d="M48.961,191.24l-1.086,0l-2.244,7.212l-2.304,-7.218l-1.2,0l-2.298,7.218l-2.25,-7.212l-1.11,0l2.694,8.405l1.302,0l2.25,-7.013l2.25,7.013l1.308,0l2.688,-8.405Z" style="fill:#004153;fill-rule:nonzero;"/><path d="M51.313,191l-0.978,0l0,8.639l0.978,0l-0,-3.198c-0,-1.062 0.768,-1.692 1.686,-1.692c0.99,0 1.566,0.618 1.566,1.668l0,3.222l0.984,0l-0,-3.54c-0,-1.368 -0.972,-2.279 -2.376,-2.279c-0.66,0 -1.392,0.216 -1.86,0.858l-0,-3.678Z" style="fill:#004153;fill-rule:nonzero;"/><path d="M62.659,193.94l-1.08,0l-1.95,3.504l-2.052,-3.504l-1.098,0l2.598,4.482l-2.106,3.647l1.086,0l4.602,-8.129Z" style="fill:#004153;fill-rule:nonzero;"/><path d="M64.867,196.945l0.048,-0.984c1.74,-0.191 2.718,-1.067 2.718,-2.465c-0,-1.464 -1.2,-2.412 -3.15,-2.412c-0.312,0 -0.72,0.03 -0.99,0.072l0.084,1.007c0.234,-0.024 0.546,-0.048 0.858,-0.048c1.302,0 2.1,0.535 2.1,1.423c0,0.954 -0.786,1.512 -2.142,1.512l-0.414,0l0,1.895l0.888,0Zm-0.444,1.171c-0.438,0 -0.822,0.378 -0.822,0.816c0,0.444 0.384,0.827 0.822,0.827c0.438,0 0.816,-0.383 0.816,-0.827c-0,-0.438 -0.378,-0.816 -0.816,-0.816Z" style="fill:#004153;fill-rule:nonzero;"/><path d="M22.921,236.975c-1.248,-0 -2.13,0.545 -2.61,1.271l0.732,0.618c0.36,-0.504 0.984,-0.942 1.812,-0.942c1.014,-0 1.8,0.546 1.8,1.428c-0,0.96 -0.792,1.441 -1.794,1.441l-1.08,-0l-0,0.929l1.08,-0c1.092,-0 1.98,0.528 1.98,1.47c-0,1.002 -0.852,1.477 -1.866,1.477c-0.81,-0 -1.572,-0.325 -2.094,-0.865l-0.648,0.684c0.612,0.708 1.572,1.128 2.766,1.128c1.488,-0 2.903,-0.774 2.903,-2.382c0,-0.978 -0.593,-1.644 -1.463,-1.98c0.767,-0.336 1.271,-0.978 1.271,-1.95c0,-1.386 -1.121,-2.327 -2.789,-2.327Z" style="fill:#004153;fill-rule:nonzero;"/><path d="M28.141,243.971c-0.438,-0 -0.822,0.377 -0.822,0.815c-0,0.444 0.384,0.828 0.822,0.828c0.437,-0 0.815,-0.384 0.815,-0.828c0,-0.438 -0.378,-0.815 -0.815,-0.815Z" style="fill:#004153;fill-rule:nonzero;"/><path d="M48.829,237.095l-1.086,-0l-2.244,7.211l-2.304,-7.217l-1.2,-0l-2.298,7.217l-2.25,-7.211l-1.11,-0l2.694,8.405l1.302,-0l2.25,-7.014l2.25,7.014l1.308,-0l2.688,-8.405Z" style="fill:#004153;fill-rule:nonzero;"/><path d="M51.18,236.855l-0.977,-0l-0,8.639l0.977,-0l0,-3.198c0,-1.062 0.768,-1.692 1.687,-1.692c0.99,-0 1.566,0.618 1.566,1.668l-0,3.222l0.983,-0l0,-3.54c0,-1.368 -0.971,-2.279 -2.375,-2.279c-0.661,-0 -1.393,0.215 -1.861,0.857l0,-3.677Z" style="fill:#004153;fill-rule:nonzero;"/><path d="M62.527,239.795l-1.08,-0l-1.95,3.503l-2.052,-3.503l-1.098,-0l2.598,4.481l-2.106,3.648l1.086,-0l4.602,-8.129Z" style="fill:#004153;fill-rule:nonzero;"/><path d="M64.734,242.8l0.048,-0.984c1.741,-0.192 2.718,-1.068 2.718,-2.466c0,-1.464 -1.199,-2.411 -3.15,-2.411c-0.311,-0 -0.719,0.03 -0.989,0.071l0.084,1.008c0.234,-0.024 0.546,-0.048 0.858,-0.048c1.302,-0 2.1,0.534 2.1,1.422c-0,0.954 -0.786,1.513 -2.142,1.513l-0.414,-0l-0,1.895l0.887,-0Zm-0.443,1.171c-0.438,-0 -0.822,0.377 -0.822,0.815c-0,0.444 0.384,0.828 0.822,0.828c0.437,-0 0.815,-0.384 0.815,-0.828c0,-0.438 -0.378,-0.815 -0.815,-0.815Z" style="fill:#004153;fill-rule:nonzero;"/><path d="M24.902,286.333l-1.013,-0l-0,2.322l-2.664,-0l3.072,-5.694l-1.152,-0l-3.138,5.874l-0,0.779l3.882,0l-0,1.734l1.013,0l0,-1.734l1.398,0l0,-0.959l-1.398,-0l0,-2.322Z" style="fill:#004153;fill-rule:nonzero;"/><path d="M28.37,289.825c-0.437,-0 -0.821,0.378 -0.821,0.815c-0,0.444 0.384,0.828 0.821,0.828c0.438,0 0.816,-0.384 0.816,-0.828c0,-0.437 -0.378,-0.815 -0.816,-0.815Z" style="fill:#004153;fill-rule:nonzero;"/><path d="M49.058,282.949l-1.086,-0l-2.244,7.211l-2.304,-7.217l-1.2,-0l-2.298,7.217l-2.25,-7.211l-1.11,-0l2.694,8.405l1.302,0l2.25,-7.013l2.25,7.013l1.308,0l2.688,-8.405Z" style="fill:#004153;fill-rule:nonzero;"/><path d="M51.41,282.709l-0.977,-0l-0,8.639l0.977,0l0,-3.198c0,-1.062 0.768,-1.692 1.686,-1.692c0.991,0 1.567,0.618 1.567,1.668l-0,3.222l0.983,0l0,-3.54c0,-1.368 -0.971,-2.279 -2.376,-2.279c-0.66,-0 -1.392,0.216 -1.86,0.857l0,-3.677Z" style="fill:#004153;fill-rule:nonzero;"/><path d="M62.756,285.649l-1.08,-0l-1.95,3.504l-2.052,-3.504l-1.098,-0l2.598,4.481l-2.106,3.648l1.086,0l4.602,-8.129Z" style="fill:#004153;fill-rule:nonzero;"/><path d="M64.964,288.654l0.048,-0.984c1.741,-0.192 2.718,-1.067 2.718,-2.466c0,-1.464 -1.199,-2.411 -3.15,-2.411c-0.311,-0 -0.719,0.03 -0.989,0.072l0.084,1.007c0.234,-0.024 0.546,-0.048 0.857,-0.048c1.302,0 2.101,0.534 2.101,1.422c-0,0.955 -0.787,1.513 -2.143,1.513l-0.413,-0l-0,1.895l0.887,0Zm-0.444,1.171c-0.437,-0 -0.821,0.378 -0.821,0.815c-0,0.444 0.384,0.828 0.821,0.828c0.438,0 0.816,-0.384 0.816,-0.828c0,-0.437 -0.378,-0.815 -0.816,-0.815Z" style="fill:#004153;fill-rule:nonzero;"/><path d="M25.55,328.803l-4.589,0l-0.096,4.295l1.854,0c1.614,0 2.178,0.739 2.178,1.609c-0,0.894 -0.642,1.65 -1.842,1.65c-0.828,0 -1.65,-0.372 -2.184,-1.008l-0.672,0.66c0.708,0.87 1.668,1.313 2.862,1.313c1.584,0 2.891,-0.959 2.891,-2.699c0,-1.339 -0.947,-2.484 -2.921,-2.484l-1.206,0l0.072,-2.377l3.653,0l0,-0.959Z" style="fill:#004153;fill-rule:nonzero;"/><path d="M28.226,335.679c-0.437,0 -0.821,0.378 -0.821,0.816c-0,0.444 0.384,0.827 0.821,0.827c0.438,0 0.816,-0.383 0.816,-0.827c0,-0.438 -0.378,-0.816 -0.816,-0.816Z" style="fill:#004153;fill-rule:nonzero;"/><path d="M48.914,328.803l-1.086,0l-2.244,7.212l-2.304,-7.218l-1.2,0l-2.298,7.218l-2.25,-7.212l-1.11,0l2.694,8.405l1.302,0l2.25,-7.013l2.25,7.013l1.308,0l2.688,-8.405Z" style="fill:#004153;fill-rule:nonzero;"/><path d="M51.266,328.563l-0.977,0l-0,8.639l0.977,0l0,-3.198c0,-1.062 0.768,-1.692 1.686,-1.692c0.991,0 1.567,0.618 1.567,1.668l-0,3.222l0.983,0l0,-3.54c0,-1.368 -0.971,-2.279 -2.376,-2.279c-0.66,0 -1.392,0.216 -1.86,0.857l0,-3.677Z" style="fill:#004153;fill-rule:nonzero;"/><path d="M62.612,331.503l-1.08,0l-1.95,3.504l-2.052,-3.504l-1.098,0l2.598,4.482l-2.106,3.647l1.086,0l4.602,-8.129Z" style="fill:#004153;fill-rule:nonzero;"/><path d="M64.82,334.508l0.048,-0.984c1.741,-0.191 2.718,-1.067 2.718,-2.465c0,-1.464 -1.199,-2.412 -3.15,-2.412c-0.311,0 -0.719,0.03 -0.989,0.072l0.084,1.007c0.234,-0.024 0.546,-0.048 0.857,-0.048c1.302,0 2.101,0.535 2.101,1.423c-0,0.954 -0.787,1.512 -2.143,1.512l-0.413,0l-0,1.895l0.887,0Zm-0.444,1.171c-0.437,0 -0.821,0.378 -0.821,0.816c-0,0.444 0.384,0.827 0.821,0.827c0.438,0 0.816,-0.383 0.816,-0.827c0,-0.438 -0.378,-0.816 -0.816,-0.816Z" style="fill:#004153;fill-rule:nonzero;"/><path d="M22.515,394.69c-1.323,0 -2.218,0.958 -2.218,2.227c0,1.27 0.895,2.228 2.218,2.228c0.635,-0 1.202,-0.234 1.589,-0.67l-0.455,-0.509c-0.297,0.288 -0.697,0.491 -1.152,0.491c-0.823,-0 -1.449,-0.644 -1.449,-1.54c0,-0.895 0.626,-1.534 1.449,-1.534c0.455,-0 0.819,0.175 1.134,0.481l0.473,-0.499c-0.383,-0.441 -0.954,-0.675 -1.589,-0.675Z" style="fill:#004153;fill-rule:nonzero;"/><path d="M29.216,394.78l-0.738,0l0,0.576c-0.337,-0.405 -0.837,-0.666 -1.507,-0.666c-1.202,0 -2.138,0.936 -2.138,2.227c0,1.292 0.936,2.228 2.138,2.228c0.67,-0 1.17,-0.261 1.507,-0.661l0,0.571l0.738,-0l-0,-4.275Zm-2.16,0.603c0.864,-0 1.467,0.661 1.467,1.534c0,0.878 -0.603,1.54 -1.467,1.54c-0.878,-0 -1.472,-0.689 -1.472,-1.54c0,-0.85 0.581,-1.534 1.472,-1.534Z" style="fill:#004153;fill-rule:nonzero;"/><path d="M32.748,394.69c-0.508,0 -0.954,0.234 -1.251,0.652l0,-0.562l-0.724,0l0,4.275l0.733,-0l0,-2.381c0,-0.787 0.459,-1.287 1.112,-1.287c0.243,0 0.531,0.059 0.733,0.167l0.18,-0.725c-0.229,-0.098 -0.477,-0.139 -0.783,-0.139Z" style="fill:#004153;fill-rule:nonzero;"/><path d="M36.178,394.69c-1.202,0 -2.138,0.936 -2.138,2.227c0,1.292 0.936,2.228 2.138,2.228c0.67,-0 1.17,-0.261 1.507,-0.661l0,0.571l0.738,-0l-0,-6.48l-0.738,0l0,2.781c-0.337,-0.405 -0.837,-0.666 -1.507,-0.666Zm0.085,0.693c0.864,-0 1.467,0.661 1.467,1.534c0,0.878 -0.603,1.54 -1.467,1.54c-0.878,-0 -1.472,-0.689 -1.472,-1.54c0,-0.85 0.581,-1.534 1.472,-1.534Z" style="fill:#004153;fill-rule:nonzero;"/><path d="M43.179,395.158c-0.413,-0.284 -1.03,-0.463 -1.705,-0.463c-1.04,-0 -1.719,0.494 -1.719,1.313c0,0.648 0.463,1.08 1.422,1.197l0.495,0.059c0.581,0.072 0.86,0.27 0.86,0.585c-0,0.423 -0.432,0.653 -1.135,0.653c-0.715,-0 -1.143,-0.207 -1.462,-0.455l-0.342,0.549c0.563,0.423 1.273,0.549 1.8,0.549c1.166,-0 1.894,-0.527 1.894,-1.341c0,-0.707 -0.535,-1.089 -1.444,-1.211l-0.495,-0.063c-0.518,-0.063 -0.828,-0.22 -0.828,-0.562c-0,-0.387 0.378,-0.635 0.963,-0.635c0.563,0 1.107,0.212 1.377,0.396l0.319,-0.571Z" style="fill:#004153;fill-rule:nonzero;"/><path d="M47.58,395.293l-0.76,0l0,1.742l-1.998,-0l2.304,-4.271l-0.864,0l-2.353,4.405l-0,0.585l2.911,0l0,1.301l0.76,-0l0,-1.301l1.049,0l-0,-0.719l-1.049,-0l0,-1.742Z" style="fill:#004153;fill-rule:nonzero;"/><path d="M49.79,394.159c0.302,-0.405 0.675,-0.765 1.377,-0.765c0.797,-0 1.256,0.535 1.256,1.237c-0,0.518 -0.252,0.941 -0.63,1.337l-2.358,2.489l-0,0.598l3.982,-0l-0,-0.724l-2.853,-0l1.809,-1.922c0.405,-0.428 0.846,-0.99 0.846,-1.773c-0,-1.13 -0.747,-1.971 -2.034,-1.971c-1.089,0 -1.647,0.612 -1.944,1.048l0.549,0.446Z" style="fill:#004153;fill-rule:nonzero;"/><path d="M55.141,397.912c-0.329,0 -0.617,0.283 -0.617,0.612c0,0.333 0.288,0.621 0.617,0.621c0.328,-0 0.611,-0.288 0.611,-0.621c0,-0.329 -0.283,-0.612 -0.611,-0.612Z" style="fill:#004153;fill-rule:nonzero;"/><path d="M58.966,394.69c-1.297,0 -2.259,0.958 -2.259,2.227c-0,1.27 0.962,2.228 2.259,2.228c1.296,-0 2.263,-0.958 2.263,-2.228c-0,-1.269 -0.967,-2.227 -2.263,-2.227Zm-0,0.693c0.855,-0 1.507,0.639 1.507,1.534c0,0.896 -0.652,1.54 -1.507,1.54c-0.86,-0 -1.508,-0.644 -1.508,-1.54c-0,-0.895 0.648,-1.534 1.508,-1.534Z" style="fill:#004153;fill-rule:nonzero;"/><path d="M64.437,394.69c-0.508,0 -0.954,0.234 -1.251,0.652l0,-0.562l-0.724,0l0,4.275l0.733,-0l0,-2.381c0,-0.787 0.459,-1.287 1.112,-1.287c0.243,0 0.531,0.059 0.733,0.167l0.18,-0.725c-0.229,-0.098 -0.477,-0.139 -0.783,-0.139Z" style="fill:#004153;fill-rule:nonzero;"/><path d="M67.844,394.69c-1.202,0 -2.115,0.891 -2.115,2.191c0,1.306 0.913,2.196 2.115,2.196c0.662,0 1.148,-0.256 1.472,-0.665l-0,0.377c-0,0.95 -0.617,1.468 -1.535,1.468c-0.554,-0 -1.062,-0.185 -1.472,-0.478l-0.319,0.595c0.436,0.35 1.125,0.553 1.791,0.553c1.35,-0 2.272,-0.787 2.272,-2.169l0,-3.978l-0.737,0l-0,0.581c-0.324,-0.41 -0.81,-0.671 -1.472,-0.671Zm0.086,0.693c0.85,-0 1.449,0.648 1.449,1.498c-0,0.855 -0.599,1.504 -1.449,1.504c-0.878,-0 -1.45,-0.671 -1.45,-1.504c0,-0.823 0.572,-1.498 1.45,-1.498Z" style="fill:#004153;fill-rule:nonzero;"/><path d="M75.4,392.125l-0.81,0l-3.821,7.83l0.81,-0l3.821,-7.83Z" style="fill:#004153;fill-rule:nonzero;"/><path d="M77.528,394.69c-0.509,0 -0.954,0.234 -1.251,0.652l-0,-0.562l-0.724,0l-0,4.275l0.733,-0l-0,-2.381c-0,-0.787 0.459,-1.287 1.111,-1.287c0.243,0 0.531,0.059 0.734,0.167l0.18,-0.725c-0.23,-0.098 -0.477,-0.139 -0.783,-0.139Z" style="fill:#004153;fill-rule:nonzero;"/><path d="M81.079,394.69c-1.297,0 -2.259,0.958 -2.259,2.227c-0,1.27 0.962,2.228 2.259,2.228c1.296,-0 2.263,-0.958 2.263,-2.228c-0,-1.269 -0.967,-2.227 -2.263,-2.227Zm-0,0.693c0.855,-0 1.507,0.639 1.507,1.534c0,0.896 -0.652,1.54 -1.507,1.54c-0.86,-0 -1.508,-0.644 -1.508,-1.54c-0,-0.895 0.648,-1.534 1.508,-1.534Z" style="fill:#004153;fill-rule:nonzero;"/><path d="M86.51,394.69c-1.296,0 -2.259,0.958 -2.259,2.227c0,1.27 0.963,2.228 2.259,2.228c1.296,-0 2.263,-0.958 2.263,-2.228c0,-1.269 -0.967,-2.227 -2.263,-2.227Zm0,0.693c0.855,-0 1.508,0.639 1.508,1.534c-0,0.896 -0.653,1.54 -1.508,1.54c-0.86,-0 -1.508,-0.644 -1.508,-1.54c0,-0.895 0.648,-1.534 1.508,-1.534Z" style="fill:#004153;fill-rule:nonzero;"/><path d="M92.864,394.78l-1.796,0l0,-1.341l-0.737,0l-0,1.341l-0.914,0l0,0.67l0.914,0l-0,2.097c-0,1.089 0.553,1.598 1.48,1.598c0.526,-0 0.954,-0.185 1.282,-0.423l-0.346,-0.553c-0.243,0.166 -0.558,0.288 -0.873,0.288c-0.464,-0 -0.806,-0.279 -0.806,-0.923l0,-2.084l1.796,0l-0,-0.67Z" style="fill:#004153;fill-rule:nonzero;"/><path d="M95.928,394.69c-1.323,0 -2.218,0.958 -2.218,2.227c0,1.27 0.895,2.228 2.218,2.228c0.635,-0 1.202,-0.234 1.589,-0.67l-0.455,-0.509c-0.297,0.288 -0.697,0.491 -1.152,0.491c-0.823,-0 -1.449,-0.644 -1.449,-1.54c0,-0.895 0.626,-1.534 1.449,-1.534c0.455,-0 0.819,0.175 1.134,0.481l0.473,-0.499c-0.383,-0.441 -0.954,-0.675 -1.589,-0.675Z" style="fill:#004153;fill-rule:nonzero;"/><path d="M102.629,394.78l-0.738,0l0,0.576c-0.337,-0.405 -0.837,-0.666 -1.507,-0.666c-1.202,0 -2.138,0.936 -2.138,2.227c0,1.292 0.936,2.228 2.138,2.228c0.67,-0 1.17,-0.261 1.507,-0.661l0,0.571l0.738,-0l-0,-4.275Zm-2.16,0.603c0.864,-0 1.467,0.661 1.467,1.534c0,0.878 -0.603,1.54 -1.467,1.54c-0.878,-0 -1.472,-0.689 -1.472,-1.54c0,-0.85 0.581,-1.534 1.472,-1.534Z" style="fill:#004153;fill-rule:nonzero;"/><path d="M108.042,394.78l-0.737,0l-0,2.417c-0,0.873 -0.518,1.26 -1.211,1.26c-0.698,-0 -1.215,-0.387 -1.215,-1.26l-0,-2.417l-0.738,0l0,2.484c0,1.292 0.922,1.881 1.953,1.881c1.022,-0 1.948,-0.589 1.948,-1.881l0,-2.484Z" style="fill:#004153;fill-rule:nonzero;"/><path d="M112.754,395.158c-0.414,-0.284 -1.03,-0.463 -1.705,-0.463c-1.04,-0 -1.719,0.494 -1.719,1.313c-0,0.648 0.463,1.08 1.421,1.197l0.496,0.059c0.58,0.072 0.859,0.27 0.859,0.585c0,0.423 -0.432,0.653 -1.134,0.653c-0.716,-0 -1.143,-0.207 -1.462,-0.455l-0.342,0.549c0.562,0.423 1.273,0.549 1.799,0.549c1.166,-0 1.895,-0.527 1.895,-1.341c-0,-0.707 -0.535,-1.089 -1.444,-1.211l-0.496,-0.063c-0.517,-0.063 -0.828,-0.22 -0.828,-0.562c0,-0.387 0.378,-0.635 0.964,-0.635c0.562,0 1.107,0.212 1.377,0.396l0.319,-0.571Z" style="fill:#004153;fill-rule:nonzero;"/><path d="M115.828,394.69c-1.229,0 -2.124,0.913 -2.124,2.227c-0,1.332 0.899,2.228 2.169,2.228c0.63,-0 1.224,-0.153 1.754,-0.648l-0.391,-0.504c-0.364,0.315 -0.819,0.509 -1.318,0.509c-0.734,-0 -1.351,-0.437 -1.454,-1.324l3.361,0c0.005,-0.081 0.014,-0.18 0.014,-0.274c-0.009,-1.31 -0.846,-2.214 -2.011,-2.214Zm-0.014,0.652c0.693,0 1.184,0.486 1.274,1.243l-2.615,-0c0.112,-0.73 0.585,-1.243 1.341,-1.243Z" style="fill:#004153;fill-rule:nonzero;"/><rect x="119.339" y="351.85" width="3.969" height="14.807" style="fill:none;"/></g></svg>