<?xml version="1.0" encoding="UTF-8" standalone="no"?><!DOCTYPE svg PUBLIC "-//W3C//DTD SVG 1.1//EN" "http://www.w3.org/Graphics/SVG/1.1/DTD/svg11.dtd"><svg width="100%" height="100%" viewBox="0 0 298 420" version="1.1" xmlns="http://www.w3.org/2000/svg" xmlns:xlink="http://www.w3.org/1999/xlink" xml:space="preserve" xmlns:serif="http://www.serif.com/" style="fill-rule:evenodd;clip-rule:evenodd;"><g id="Ebene-1" serif:id="Ebene 1"><rect x="218.758" y="385.673" width="3.28" height="13.775" style="fill:#f39260;"/><path d="M245.758,399.449l-0,-13.776l-3.28,0l-0,8.423l-6.298,-8.423l-3.148,0l-0,8.423l-6.271,-8.423l-3.149,0l-0,13.776l3.28,-0l-0,-8.397l6.271,8.397l3.175,-0l-0,-8.397l6.271,8.397l3.149,-0Z" style="fill:#f39260;fill-rule:nonzero;"/><path d="M254.154,388.56c2.23,-0 3.831,1.627 3.831,3.988c-0,2.362 -1.601,3.988 -3.831,3.988c-2.257,0 -3.831,-1.626 -3.831,-3.988c0,-2.361 1.601,-3.988 3.831,-3.988m0,-3.149c-4.251,0 -7.268,3.044 -7.268,7.137c-0,4.093 3.017,7.137 7.268,7.137c4.251,0 7.268,-3.044 7.268,-7.137c0,-4.093 -3.017,-7.137 -7.268,-7.137" style="fill:#f39260;fill-rule:nonzero;"/><path d="M269.609,388.56c2.23,-0 3.831,1.627 3.831,3.988c-0,0.446 -0.053,0.866 -0.158,1.26l-0.446,-0.604l-3.568,0l2.177,2.913c-0.524,0.262 -1.154,0.419 -1.81,0.419c-2.23,0 -3.831,-1.626 -3.831,-3.988c-0.026,-2.335 1.574,-3.988 3.805,-3.988m-0,-3.149c-4.251,0 -7.268,3.044 -7.268,7.137c-0,4.093 3.017,7.137 7.268,7.137c1.443,0 2.676,-0.394 3.726,-1.076l0.603,0.814l3.857,-0l-2.178,-2.939c0.761,-1.102 1.207,-2.388 1.207,-3.936c0.053,-4.093 -2.965,-7.137 -7.215,-7.137" style="fill:#004153;fill-rule:nonzero;"/></g><g id="Ebene-11" serif:id="Ebene 1"><g transform="matrix(1,0,0,1,148.819,65.9055)"><g transform="matrix(16,0,0,16,-128.976,-34.5435)"><path d="M0.365,-0.237c0.172,0 0.263,-0.091 0.263,-0.229c-0,-0.141 -0.091,-0.234 -0.264,-0.234l-0.3,0l-0,0.7l0.166,-0l0,-0.237l0.135,0Zm-0.004,-0.312c0.06,0 0.097,0.029 0.097,0.083c0,0.053 -0.037,0.081 -0.097,0.081l-0.131,-0l0,-0.164l0.131,0Z" style="fill:#f39260;fill-rule:nonzero;"/></g><g transform="matrix(16,0,0,16,-118.736,-34.5435)"><path d="M0.295,-0.504c-0.153,0 -0.266,0.11 -0.266,0.259c0,0.148 0.113,0.258 0.266,0.258c0.154,-0 0.266,-0.11 0.266,-0.258c0,-0.149 -0.112,-0.259 -0.266,-0.259Zm-0,0.146c0.062,-0 0.107,0.046 0.107,0.113c-0,0.066 -0.045,0.112 -0.107,0.112c-0.061,0 -0.106,-0.046 -0.106,-0.112c-0,-0.067 0.045,-0.113 0.106,-0.113Z" style="fill:#f39260;fill-rule:nonzero;"/></g><g transform="matrix(16,0,0,16,-109.4,-34.5435)"><path d="M0.467,-0.461c-0.08,-0.031 -0.131,-0.042 -0.211,-0.042c-0.133,-0 -0.211,0.059 -0.211,0.163c-0,0.088 0.055,0.138 0.172,0.155l0.029,0.004c0.056,0.009 0.078,0.016 0.078,0.035c-0,0.021 -0.02,0.032 -0.069,0.032c-0.068,0 -0.124,-0.017 -0.173,-0.046l-0.054,0.121c0.056,0.036 0.142,0.051 0.226,0.051c0.143,0 0.227,-0.064 0.227,-0.171c-0,-0.083 -0.056,-0.134 -0.16,-0.15l-0.036,-0.005c-0.049,-0.008 -0.08,-0.013 -0.08,-0.034c0,-0.018 0.016,-0.03 0.057,-0.03c0.051,0.001 0.114,0.018 0.162,0.038l0.043,-0.121Z" style="fill:#f39260;fill-rule:nonzero;"/></g><g transform="matrix(16,0,0,16,-101.264,-34.5435)"><path d="M0.211,-0.49l-0.156,-0l0,0.49l0.156,-0l0,-0.49Zm-0.078,-0.245c-0.053,-0 -0.094,0.041 -0.094,0.094c0,0.052 0.041,0.093 0.094,0.093c0.052,-0 0.093,-0.041 0.093,-0.093c-0,-0.053 -0.041,-0.094 -0.093,-0.094Z" style="fill:#f39260;fill-rule:nonzero;"/></g><g transform="matrix(16,0,0,16,-97.0084,-34.5435)"><path d="M0.432,-0.49l-0.168,-0l0,-0.143l-0.156,-0l0,0.143l-0.091,-0l-0,0.138l0.091,-0l0,0.164c0,0.123 0.06,0.201 0.191,0.201c0.079,-0 0.128,-0.023 0.174,-0.055l-0.054,-0.121c-0.025,0.014 -0.056,0.03 -0.085,0.03c-0.04,0 -0.07,-0.019 -0.07,-0.075l0,-0.144l0.168,-0l-0,-0.138Z" style="fill:#f39260;fill-rule:nonzero;"/></g><g transform="matrix(16,0,0,16,-89.3364,-34.5435)"><path d="M0.211,-0.49l-0.156,-0l0,0.49l0.156,-0l0,-0.49Zm-0.078,-0.245c-0.053,-0 -0.094,0.041 -0.094,0.094c0,0.052 0.041,0.093 0.094,0.093c0.052,-0 0.093,-0.041 0.093,-0.093c-0,-0.053 -0.041,-0.094 -0.093,-0.094Z" style="fill:#f39260;fill-rule:nonzero;"/></g><g transform="matrix(16,0,0,16,-85.0804,-34.5435)"><path d="M0.295,-0.504c-0.153,0 -0.266,0.11 -0.266,0.259c0,0.148 0.113,0.258 0.266,0.258c0.154,-0 0.266,-0.11 0.266,-0.258c0,-0.149 -0.112,-0.259 -0.266,-0.259Zm-0,0.146c0.062,-0 0.107,0.046 0.107,0.113c-0,0.066 -0.045,0.112 -0.107,0.112c-0.061,0 -0.106,-0.046 -0.106,-0.112c-0,-0.067 0.045,-0.113 0.106,-0.113Z" style="fill:#f39260;fill-rule:nonzero;"/></g><g transform="matrix(16,0,0,16,-75.6324,-34.5435)"><path d="M0.351,-0.504c-0.066,0 -0.115,0.024 -0.146,0.075l-0,-0.061l-0.15,-0l0,0.49l0.156,-0l0,-0.264c0,-0.064 0.036,-0.093 0.08,-0.093c0.049,-0 0.078,0.032 0.078,0.09l-0,0.267l0.156,-0l-0,-0.322c-0,-0.113 -0.076,-0.182 -0.174,-0.182Z" style="fill:#f39260;fill-rule:nonzero;"/></g><g transform="matrix(16,0,0,16,-66.4084,-34.5435)"><path d="M0.211,-0.49l-0.156,-0l0,0.49l0.156,-0l0,-0.49Zm-0.078,-0.245c-0.053,-0 -0.094,0.041 -0.094,0.094c0,0.052 0.041,0.093 0.094,0.093c0.052,-0 0.093,-0.041 0.093,-0.093c-0,-0.053 -0.041,-0.094 -0.093,-0.094Z" style="fill:#f39260;fill-rule:nonzero;"/></g><g transform="matrix(16,0,0,16,-62.1524,-34.5435)"><path d="M0.351,-0.504c-0.066,0 -0.115,0.024 -0.146,0.075l-0,-0.061l-0.15,-0l0,0.49l0.156,-0l0,-0.264c0,-0.064 0.036,-0.093 0.08,-0.093c0.049,-0 0.078,0.032 0.078,0.09l-0,0.267l0.156,-0l-0,-0.322c-0,-0.113 -0.076,-0.182 -0.174,-0.182Z" style="fill:#f39260;fill-rule:nonzero;"/></g><g transform="matrix(16,0,0,16,-52.9284,-34.5435)"><path d="M0.256,-0.504c-0.131,0 -0.227,0.109 -0.227,0.248c0,0.139 0.096,0.247 0.227,0.247c0.064,0 0.107,-0.025 0.136,-0.062l-0,0.031c-0,0.078 -0.06,0.113 -0.124,0.113c-0.058,0 -0.11,-0.016 -0.157,-0.05l-0.056,0.124c0.058,0.042 0.142,0.063 0.224,0.063c0.161,-0 0.266,-0.096 0.266,-0.257l-0,-0.443l-0.151,-0l-0,0.051c-0.029,-0.038 -0.073,-0.065 -0.138,-0.065Zm0.038,0.143c0.059,-0 0.1,0.044 0.1,0.105c-0,0.061 -0.041,0.105 -0.1,0.105c-0.062,0 -0.104,-0.045 -0.104,-0.105c0,-0.06 0.042,-0.105 0.104,-0.105Z" style="fill:#f39260;fill-rule:nonzero;"/></g><g transform="matrix(12,0,0,12,-128.976,-11.6396)"><path d="M1.069,-0.7l-0.09,0l-0.188,0.601l-0.191,-0.601l-0.1,-0l-0.192,0.601l-0.187,-0.601l-0.093,0l0.225,0.7l0.108,0l0.188,-0.584l0.187,0.584l0.109,0l0.224,-0.7Z" style="fill:#004153;fill-rule:nonzero;"/></g><g transform="matrix(12,0,0,12,-115.692,-11.6396)"><path d="M0.168,-0.72l-0.081,0l-0,0.72l0.081,-0l-0,-0.267c-0,-0.088 0.064,-0.141 0.141,-0.141c0.082,0 0.13,0.052 0.13,0.139l0,0.269l0.082,-0l-0,-0.295c-0,-0.114 -0.081,-0.19 -0.198,-0.19c-0.055,0 -0.116,0.018 -0.155,0.071l-0,-0.306Z" style="fill:#004153;fill-rule:nonzero;"/></g><g transform="matrix(12,0,0,12,-108.342,-11.6396)"><path d="M0.537,-0.475l-0.081,0l-0,0.064c-0.038,-0.045 -0.093,-0.074 -0.168,-0.074c-0.134,0 -0.237,0.104 -0.237,0.247c-0,0.144 0.103,0.248 0.237,0.248c0.075,-0 0.13,-0.029 0.168,-0.073l-0,0.063l0.081,-0l0,-0.475Zm-0.239,0.067c0.096,-0 0.163,0.073 0.163,0.17c-0,0.098 -0.067,0.172 -0.163,0.172c-0.098,-0 -0.164,-0.077 -0.164,-0.172c-0,-0.094 0.064,-0.17 0.164,-0.17Z" style="fill:#004153;fill-rule:nonzero;"/></g><g transform="matrix(12,0,0,12,-100.734,-11.6396)"><path d="M0.409,-0.475l-0.2,0l0,-0.149l-0.081,0l-0,0.149l-0.102,0l0,0.074l0.102,0l-0,0.234c-0,0.121 0.061,0.177 0.164,0.177c0.058,-0 0.106,-0.021 0.142,-0.047l-0.038,-0.061c-0.027,0.018 -0.062,0.032 -0.097,0.032c-0.052,-0 -0.09,-0.031 -0.09,-0.103l0,-0.232l0.2,0l-0,-0.074Z" style="fill:#004153;fill-rule:nonzero;"/></g><g transform="matrix(12,0,0,12,-91.8424,-11.6396)"><path d="M0.537,-0.475l-0.081,0l-0,0.064c-0.038,-0.045 -0.093,-0.074 -0.168,-0.074c-0.134,0 -0.237,0.104 -0.237,0.247c-0,0.144 0.103,0.248 0.237,0.248c0.075,-0 0.13,-0.029 0.168,-0.073l-0,0.063l0.081,-0l0,-0.475Zm-0.239,0.067c0.096,-0 0.163,0.073 0.163,0.17c-0,0.098 -0.067,0.172 -0.163,0.172c-0.098,-0 -0.164,-0.077 -0.164,-0.172c-0,-0.094 0.064,-0.17 0.164,-0.17Z" style="fill:#004153;fill-rule:nonzero;"/></g><g transform="matrix(12,0,0,12,-84.2344,-11.6396)"><path d="M0.306,-0.485c-0.057,0 -0.106,0.026 -0.139,0.072l-0,-0.062l-0.08,0l-0,0.475l0.081,-0l-0,-0.264c-0,-0.088 0.051,-0.144 0.123,-0.144c0.027,0 0.059,0.007 0.082,0.019l0.02,-0.08c-0.026,-0.011 -0.053,-0.016 -0.087,-0.016Z" style="fill:#004153;fill-rule:nonzero;"/></g><g transform="matrix(12,0,0,12,-79.3264,-11.6396)"><path d="M0.287,-0.485c-0.137,0 -0.236,0.101 -0.236,0.247c-0,0.149 0.099,0.248 0.241,0.248c0.07,-0 0.136,-0.017 0.194,-0.072l-0.043,-0.056c-0.04,0.035 -0.091,0.057 -0.146,0.057c-0.082,-0 -0.151,-0.049 -0.162,-0.148l0.373,0c0.001,-0.009 0.002,-0.02 0.002,-0.03c-0.001,-0.146 -0.094,-0.246 -0.223,-0.246Zm-0.002,0.072c0.077,0 0.132,0.054 0.142,0.139l-0.291,-0c0.012,-0.082 0.065,-0.139 0.149,-0.139Z" style="fill:#004153;fill-rule:nonzero;"/></g><g transform="matrix(12,0,0,12,-69.3724,-11.6396)"><path d="M0.525,-0.475l-0.09,0l-0.163,0.292l-0.171,-0.292l-0.091,0l0.217,0.373l-0.176,0.304l0.09,0l0.384,-0.677Z" style="fill:#004153;fill-rule:nonzero;"/></g><g transform="matrix(12,0,0,12,-62.9704,-11.6396)"><path d="M0.301,-0.485c-0.144,0 -0.25,0.106 -0.25,0.247c-0,0.142 0.106,0.248 0.25,0.248c0.145,-0 0.252,-0.106 0.252,-0.248c-0,-0.141 -0.107,-0.247 -0.252,-0.247Zm0,0.077c0.096,-0 0.168,0.071 0.168,0.17c0,0.1 -0.072,0.172 -0.168,0.172c-0.095,-0 -0.167,-0.072 -0.167,-0.172c-0,-0.099 0.072,-0.17 0.167,-0.17Z" style="fill:#004153;fill-rule:nonzero;"/></g><g transform="matrix(12,0,0,12,-55.6084,-11.6396)"><path d="M0.515,-0.475l-0.082,0l0,0.269c0,0.097 -0.057,0.14 -0.135,0.14c-0.077,-0 -0.135,-0.043 -0.135,-0.14l0,-0.269l-0.081,0l-0,0.276c-0,0.144 0.102,0.209 0.216,0.209c0.114,-0 0.217,-0.065 0.217,-0.209l-0,-0.276Z" style="fill:#004153;fill-rule:nonzero;"/></g><g transform="matrix(12,0,0,12,-48.3304,-11.6396)"><path d="M0.306,-0.485c-0.057,0 -0.106,0.026 -0.139,0.072l-0,-0.062l-0.08,0l-0,0.475l0.081,-0l-0,-0.264c-0,-0.088 0.051,-0.144 0.123,-0.144c0.027,0 0.059,0.007 0.082,0.019l0.02,-0.08c-0.026,-0.011 -0.053,-0.016 -0.087,-0.016Z" style="fill:#004153;fill-rule:nonzero;"/></g><g transform="matrix(12,0,0,12,-39.9844,-11.6396)"><path d="M0.442,-0.433c-0.046,-0.031 -0.114,-0.051 -0.19,-0.051c-0.115,-0 -0.19,0.054 -0.19,0.145c-0,0.072 0.051,0.121 0.157,0.134l0.056,0.006c0.064,0.008 0.095,0.03 0.095,0.065c0,0.047 -0.048,0.073 -0.126,0.073c-0.08,-0 -0.127,-0.023 -0.162,-0.051l-0.038,0.061c0.062,0.047 0.141,0.061 0.199,0.061c0.13,-0 0.211,-0.058 0.211,-0.149c-0,-0.078 -0.059,-0.121 -0.16,-0.135l-0.056,-0.007c-0.057,-0.007 -0.092,-0.024 -0.092,-0.062c0,-0.043 0.042,-0.071 0.107,-0.071c0.063,0 0.124,0.024 0.154,0.044l0.035,-0.063Z" style="fill:#004153;fill-rule:nonzero;"/></g><g transform="matrix(12,0,0,12,-33.9004,-11.6396)"><path d="M0.301,-0.485c-0.144,0 -0.25,0.106 -0.25,0.247c-0,0.142 0.106,0.248 0.25,0.248c0.145,-0 0.252,-0.106 0.252,-0.248c-0,-0.141 -0.107,-0.247 -0.252,-0.247Zm0,0.077c0.096,-0 0.168,0.071 0.168,0.17c0,0.1 -0.072,0.172 -0.168,0.172c-0.095,-0 -0.167,-0.072 -0.167,-0.172c-0,-0.099 0.072,-0.17 0.167,-0.17Z" style="fill:#004153;fill-rule:nonzero;"/></g><g transform="matrix(12,0,0,12,-26.5984,-11.6396)"><path d="M0.396,-0.475l-0.183,0l0,-0.081c0,-0.062 0.025,-0.098 0.082,-0.098c0.035,0 0.07,0.013 0.095,0.028l0.03,-0.068c-0.034,-0.021 -0.077,-0.036 -0.131,-0.036c-0.112,0 -0.157,0.074 -0.157,0.174l-0,0.081l-0.106,0l0,0.074l0.106,0l-0,0.401l0.081,-0l0,-0.401l0.183,0l-0,-0.074Z" style="fill:#004153;fill-rule:nonzero;"/></g><g transform="matrix(12,0,0,12,-21.4684,-11.6396)"><path d="M0.409,-0.475l-0.2,0l0,-0.149l-0.081,0l-0,0.149l-0.102,0l0,0.074l0.102,0l-0,0.234c-0,0.121 0.061,0.177 0.164,0.177c0.058,-0 0.106,-0.021 0.142,-0.047l-0.038,-0.061c-0.027,0.018 -0.062,0.032 -0.097,0.032c-0.052,-0 -0.09,-0.031 -0.09,-0.103l0,-0.232l0.2,0l-0,-0.074Z" style="fill:#004153;fill-rule:nonzero;"/></g><g transform="matrix(12,0,0,12,-15.9064,-11.6396)"><path d="M0.471,-0.475l-0.093,0l-0.135,0.388l-0.135,-0.388l-0.087,0l0.171,0.475l0.096,-0l0.135,-0.386l0.136,0.386l0.098,-0l0.171,-0.475l-0.086,0l-0.135,0.389l-0.136,-0.389Z" style="fill:#004153;fill-rule:nonzero;"/></g><g transform="matrix(12,0,0,12,-5.60438,-11.6396)"><path d="M0.537,-0.475l-0.081,0l-0,0.064c-0.038,-0.045 -0.093,-0.074 -0.168,-0.074c-0.134,0 -0.237,0.104 -0.237,0.247c-0,0.144 0.103,0.248 0.237,0.248c0.075,-0 0.13,-0.029 0.168,-0.073l-0,0.063l0.081,-0l0,-0.475Zm-0.239,0.067c0.096,-0 0.163,0.073 0.163,0.17c-0,0.098 -0.067,0.172 -0.163,0.172c-0.098,-0 -0.164,-0.077 -0.164,-0.172c-0,-0.094 0.064,-0.17 0.164,-0.17Z" style="fill:#004153;fill-rule:nonzero;"/></g><g transform="matrix(12,0,0,12,2.00362,-11.6396)"><path d="M0.306,-0.485c-0.057,0 -0.106,0.026 -0.139,0.072l-0,-0.062l-0.08,0l-0,0.475l0.081,-0l-0,-0.264c-0,-0.088 0.051,-0.144 0.123,-0.144c0.027,0 0.059,0.007 0.082,0.019l0.02,-0.08c-0.026,-0.011 -0.053,-0.016 -0.087,-0.016Z" style="fill:#004153;fill-rule:nonzero;"/></g><g transform="matrix(12,0,0,12,6.91162,-11.6396)"><path d="M0.287,-0.485c-0.137,0 -0.236,0.101 -0.236,0.247c-0,0.149 0.099,0.248 0.241,0.248c0.07,-0 0.136,-0.017 0.194,-0.072l-0.043,-0.056c-0.04,0.035 -0.091,0.057 -0.146,0.057c-0.082,-0 -0.151,-0.049 -0.162,-0.148l0.373,0c0.001,-0.009 0.002,-0.02 0.002,-0.03c-0.001,-0.146 -0.094,-0.246 -0.223,-0.246Zm-0.002,0.072c0.077,0 0.132,0.054 0.142,0.139l-0.291,-0c0.012,-0.082 0.065,-0.139 0.149,-0.139Z" style="fill:#004153;fill-rule:nonzero;"/></g><g transform="matrix(12,0,0,12,17.0876,-11.6396)"><path d="M0.442,-0.433c-0.046,-0.031 -0.114,-0.051 -0.19,-0.051c-0.115,-0 -0.19,0.054 -0.19,0.145c-0,0.072 0.051,0.121 0.157,0.134l0.056,0.006c0.064,0.008 0.095,0.03 0.095,0.065c0,0.047 -0.048,0.073 -0.126,0.073c-0.08,-0 -0.127,-0.023 -0.162,-0.051l-0.038,0.061c0.062,0.047 0.141,0.061 0.199,0.061c0.13,-0 0.211,-0.058 0.211,-0.149c-0,-0.078 -0.059,-0.121 -0.16,-0.135l-0.056,-0.007c-0.057,-0.007 -0.092,-0.024 -0.092,-0.062c0,-0.043 0.042,-0.071 0.107,-0.071c0.063,0 0.124,0.024 0.154,0.044l0.035,-0.063Z" style="fill:#004153;fill-rule:nonzero;"/></g><g transform="matrix(12,0,0,12,23.1716,-11.6396)"><path d="M0.525,-0.475l-0.09,0l-0.163,0.292l-0.171,-0.292l-0.091,0l0.217,0.373l-0.176,0.304l0.09,0l0.384,-0.677Z" style="fill:#004153;fill-rule:nonzero;"/></g><g transform="matrix(12,0,0,12,29.6276,-11.6396)"><path d="M0.442,-0.433c-0.046,-0.031 -0.114,-0.051 -0.19,-0.051c-0.115,-0 -0.19,0.054 -0.19,0.145c-0,0.072 0.051,0.121 0.157,0.134l0.056,0.006c0.064,0.008 0.095,0.03 0.095,0.065c0,0.047 -0.048,0.073 -0.126,0.073c-0.08,-0 -0.127,-0.023 -0.162,-0.051l-0.038,0.061c0.062,0.047 0.141,0.061 0.199,0.061c0.13,-0 0.211,-0.058 0.211,-0.149c-0,-0.078 -0.059,-0.121 -0.16,-0.135l-0.056,-0.007c-0.057,-0.007 -0.092,-0.024 -0.092,-0.062c0,-0.043 0.042,-0.071 0.107,-0.071c0.063,0 0.124,0.024 0.154,0.044l0.035,-0.063Z" style="fill:#004153;fill-rule:nonzero;"/></g><g transform="matrix(12,0,0,12,35.7116,-11.6396)"><path d="M0.409,-0.475l-0.2,0l0,-0.149l-0.081,0l-0,0.149l-0.102,0l0,0.074l0.102,0l-0,0.234c-0,0.121 0.061,0.177 0.164,0.177c0.058,-0 0.106,-0.021 0.142,-0.047l-0.038,-0.061c-0.027,0.018 -0.062,0.032 -0.097,0.032c-0.052,-0 -0.09,-0.031 -0.09,-0.103l0,-0.232l0.2,0l-0,-0.074Z" style="fill:#004153;fill-rule:nonzero;"/></g><g transform="matrix(12,0,0,12,41.2616,-11.6396)"><path d="M0.287,-0.485c-0.137,0 -0.236,0.101 -0.236,0.247c-0,0.149 0.099,0.248 0.241,0.248c0.07,-0 0.136,-0.017 0.194,-0.072l-0.043,-0.056c-0.04,0.035 -0.091,0.057 -0.146,0.057c-0.082,-0 -0.151,-0.049 -0.162,-0.148l0.373,0c0.001,-0.009 0.002,-0.02 0.002,-0.03c-0.001,-0.146 -0.094,-0.246 -0.223,-0.246Zm-0.002,0.072c0.077,0 0.132,0.054 0.142,0.139l-0.291,-0c0.012,-0.082 0.065,-0.139 0.149,-0.139Z" style="fill:#004153;fill-rule:nonzero;"/></g><g transform="matrix(12,0,0,12,48.1076,-11.6396)"><path d="M0.676,-0.485c-0.065,0 -0.139,0.024 -0.178,0.095c-0.031,-0.059 -0.094,-0.095 -0.175,-0.095c-0.055,0 -0.117,0.019 -0.156,0.072l0,-0.062l-0.08,0l-0,0.475l0.081,-0l-0,-0.266c-0,-0.089 0.064,-0.142 0.141,-0.142c0.082,0 0.13,0.052 0.13,0.139l0,0.269l0.082,-0l-0,-0.267c-0,-0.086 0.061,-0.141 0.14,-0.141c0.083,0 0.131,0.052 0.131,0.139l-0,0.269l0.081,-0l0,-0.295c0,-0.114 -0.08,-0.19 -0.197,-0.19Z" style="fill:#004153;fill-rule:nonzero;"/></g><g transform="matrix(12,0,0,12,59.5976,-11.6396)"><path d="M0.09,-0.72l-0.029,0.257l0.07,0l0.054,-0.257l-0.096,0Z" style="fill:#004153;fill-rule:nonzero;"/></g><g transform="matrix(12,0,0,12,62.0816,-11.6396)"><path d="M0.442,-0.433c-0.046,-0.031 -0.114,-0.051 -0.19,-0.051c-0.115,-0 -0.19,0.054 -0.19,0.145c-0,0.072 0.051,0.121 0.157,0.134l0.056,0.006c0.064,0.008 0.095,0.03 0.095,0.065c0,0.047 -0.048,0.073 -0.126,0.073c-0.08,-0 -0.127,-0.023 -0.162,-0.051l-0.038,0.061c0.062,0.047 0.141,0.061 0.199,0.061c0.13,-0 0.211,-0.058 0.211,-0.149c-0,-0.078 -0.059,-0.121 -0.16,-0.135l-0.056,-0.007c-0.057,-0.007 -0.092,-0.024 -0.092,-0.062c0,-0.043 0.042,-0.071 0.107,-0.071c0.063,0 0.124,0.024 0.154,0.044l0.035,-0.063Z" style="fill:#004153;fill-rule:nonzero;"/></g><g transform="matrix(12,0,0,12,-128.976,2.76045)"><path d="M0.442,-0.433c-0.046,-0.031 -0.114,-0.051 -0.19,-0.051c-0.115,-0 -0.19,0.054 -0.19,0.145c-0,0.072 0.051,0.121 0.157,0.134l0.056,0.006c0.064,0.008 0.095,0.03 0.095,0.065c0,0.047 -0.048,0.073 -0.126,0.073c-0.08,-0 -0.127,-0.023 -0.162,-0.051l-0.038,0.061c0.062,0.047 0.141,0.061 0.199,0.061c0.13,-0 0.211,-0.058 0.211,-0.149c-0,-0.078 -0.059,-0.121 -0.16,-0.135l-0.056,-0.007c-0.057,-0.007 -0.092,-0.024 -0.092,-0.062c0,-0.043 0.042,-0.071 0.107,-0.071c0.063,0 0.124,0.024 0.154,0.044l0.035,-0.063Z" style="fill:#004153;fill-rule:nonzero;"/></g><g transform="matrix(12,0,0,12,-122.892,2.76045)"><path d="M0.409,-0.475l-0.2,0l0,-0.149l-0.081,0l-0,0.149l-0.102,0l0,0.074l0.102,0l-0,0.234c-0,0.121 0.061,0.177 0.164,0.177c0.058,-0 0.106,-0.021 0.142,-0.047l-0.038,-0.061c-0.027,0.018 -0.062,0.032 -0.097,0.032c-0.052,-0 -0.09,-0.031 -0.09,-0.103l0,-0.232l0.2,0l-0,-0.074Z" style="fill:#004153;fill-rule:nonzero;"/></g><g transform="matrix(12,0,0,12,-117.33,2.76045)"><path d="M0.306,-0.485c-0.057,0 -0.106,0.026 -0.139,0.072l-0,-0.062l-0.08,0l-0,0.475l0.081,-0l-0,-0.264c-0,-0.088 0.051,-0.144 0.123,-0.144c0.027,0 0.059,0.007 0.082,0.019l0.02,-0.08c-0.026,-0.011 -0.053,-0.016 -0.087,-0.016Z" style="fill:#004153;fill-rule:nonzero;"/></g><g transform="matrix(12,0,0,12,-112.422,2.76045)"><path d="M0.287,-0.485c-0.137,0 -0.236,0.101 -0.236,0.247c-0,0.149 0.099,0.248 0.241,0.248c0.07,-0 0.136,-0.017 0.194,-0.072l-0.043,-0.056c-0.04,0.035 -0.091,0.057 -0.146,0.057c-0.082,-0 -0.151,-0.049 -0.162,-0.148l0.373,0c0.001,-0.009 0.002,-0.02 0.002,-0.03c-0.001,-0.146 -0.094,-0.246 -0.223,-0.246Zm-0.002,0.072c0.077,0 0.132,0.054 0.142,0.139l-0.291,-0c0.012,-0.082 0.065,-0.139 0.149,-0.139Z" style="fill:#004153;fill-rule:nonzero;"/></g><g transform="matrix(12,0,0,12,-105.576,2.76045)"><path d="M0.323,-0.485c-0.055,0 -0.117,0.019 -0.156,0.072l0,-0.062l-0.08,0l-0,0.475l0.081,-0l-0,-0.266c-0,-0.089 0.064,-0.142 0.141,-0.142c0.082,0 0.13,0.052 0.13,0.139l0,0.269l0.082,-0l-0,-0.295c-0,-0.114 -0.081,-0.19 -0.198,-0.19Z" style="fill:#004153;fill-rule:nonzero;"/></g><g transform="matrix(12,0,0,12,-98.2264,2.76045)"><path d="M0.285,-0.485c-0.133,0 -0.234,0.099 -0.234,0.244c-0,0.145 0.101,0.243 0.234,0.243c0.074,0 0.128,-0.028 0.164,-0.073l0,0.041c0,0.106 -0.068,0.164 -0.171,0.164c-0.061,-0 -0.118,-0.021 -0.163,-0.053l-0.035,0.066c0.048,0.038 0.124,0.061 0.198,0.061c0.151,-0 0.253,-0.087 0.253,-0.241l-0,-0.442l-0.082,0l0,0.065c-0.036,-0.046 -0.09,-0.075 -0.164,-0.075Zm0.01,0.077c0.095,-0 0.161,0.072 0.161,0.167c0,0.095 -0.066,0.167 -0.161,0.167c-0.098,-0 -0.161,-0.075 -0.161,-0.167c-0,-0.092 0.063,-0.167 0.161,-0.167Z" style="fill:#004153;fill-rule:nonzero;"/></g><g transform="matrix(12,0,0,12,-90.6964,2.76045)"><path d="M0.409,-0.475l-0.2,0l0,-0.149l-0.081,0l-0,0.149l-0.102,0l0,0.074l0.102,0l-0,0.234c-0,0.121 0.061,0.177 0.164,0.177c0.058,-0 0.106,-0.021 0.142,-0.047l-0.038,-0.061c-0.027,0.018 -0.062,0.032 -0.097,0.032c-0.052,-0 -0.09,-0.031 -0.09,-0.103l0,-0.232l0.2,0l-0,-0.074Z" style="fill:#004153;fill-rule:nonzero;"/></g><g transform="matrix(12,0,0,12,-85.1344,2.76045)"><path d="M0.168,-0.72l-0.081,0l-0,0.72l0.081,-0l-0,-0.267c-0,-0.088 0.064,-0.141 0.141,-0.141c0.082,0 0.13,0.052 0.13,0.139l0,0.269l0.082,-0l-0,-0.295c-0,-0.114 -0.081,-0.19 -0.198,-0.19c-0.055,0 -0.116,0.018 -0.155,0.071l-0,-0.306Z" style="fill:#004153;fill-rule:nonzero;"/></g><g transform="matrix(12,0,0,12,-77.7844,2.76045)"><path d="M0.442,-0.433c-0.046,-0.031 -0.114,-0.051 -0.19,-0.051c-0.115,-0 -0.19,0.054 -0.19,0.145c-0,0.072 0.051,0.121 0.157,0.134l0.056,0.006c0.064,0.008 0.095,0.03 0.095,0.065c0,0.047 -0.048,0.073 -0.126,0.073c-0.08,-0 -0.127,-0.023 -0.162,-0.051l-0.038,0.061c0.062,0.047 0.141,0.061 0.199,0.061c0.13,-0 0.211,-0.058 0.211,-0.149c-0,-0.078 -0.059,-0.121 -0.16,-0.135l-0.056,-0.007c-0.057,-0.007 -0.092,-0.024 -0.092,-0.062c0,-0.043 0.042,-0.071 0.107,-0.071c0.063,0 0.124,0.024 0.154,0.044l0.035,-0.063Z" style="fill:#004153;fill-rule:nonzero;"/></g><g transform="matrix(12,0,0,12,-71.7004,2.76045)"><path d="M0.09,-0.126l-0.029,0.257l0.07,-0l0.054,-0.257l-0.096,-0Z" style="fill:#004153;fill-rule:nonzero;"/></g><g transform="matrix(12,0,0,12,-65.3584,2.76045)"><path d="M0.471,-0.475l-0.093,0l-0.135,0.388l-0.135,-0.388l-0.087,0l0.171,0.475l0.096,-0l0.135,-0.386l0.136,0.386l0.098,-0l0.171,-0.475l-0.086,0l-0.135,0.389l-0.136,-0.389Z" style="fill:#004153;fill-rule:nonzero;"/></g><g transform="matrix(12,0,0,12,-55.0564,2.76045)"><path d="M0.287,-0.485c-0.137,0 -0.236,0.101 -0.236,0.247c-0,0.149 0.099,0.248 0.241,0.248c0.07,-0 0.136,-0.017 0.194,-0.072l-0.043,-0.056c-0.04,0.035 -0.091,0.057 -0.146,0.057c-0.082,-0 -0.151,-0.049 -0.162,-0.148l0.373,0c0.001,-0.009 0.002,-0.02 0.002,-0.03c-0.001,-0.146 -0.094,-0.246 -0.223,-0.246Zm-0.002,0.072c0.077,0 0.132,0.054 0.142,0.139l-0.291,-0c0.012,-0.082 0.065,-0.139 0.149,-0.139Z" style="fill:#004153;fill-rule:nonzero;"/></g><g transform="matrix(12,0,0,12,-48.2104,2.76045)"><path d="M0.537,-0.475l-0.081,0l-0,0.064c-0.038,-0.045 -0.093,-0.074 -0.168,-0.074c-0.134,0 -0.237,0.104 -0.237,0.247c-0,0.144 0.103,0.248 0.237,0.248c0.075,-0 0.13,-0.029 0.168,-0.073l-0,0.063l0.081,-0l0,-0.475Zm-0.239,0.067c0.096,-0 0.163,0.073 0.163,0.17c-0,0.098 -0.067,0.172 -0.163,0.172c-0.098,-0 -0.164,-0.077 -0.164,-0.172c-0,-0.094 0.064,-0.17 0.164,-0.17Z" style="fill:#004153;fill-rule:nonzero;"/></g><g transform="matrix(12,0,0,12,-40.6024,2.76045)"><path d="M0.168,-0.72l-0.081,0l-0,0.72l0.081,-0l-0,-0.211l0.064,-0l0.18,0.211l0.103,-0l-0.215,-0.251l0.212,-0.224l-0.103,0l-0.176,0.19l-0.065,0l-0,-0.435Z" style="fill:#004153;fill-rule:nonzero;"/></g><g transform="matrix(12,0,0,12,-34.0984,2.76045)"><path d="M0.323,-0.485c-0.055,0 -0.117,0.019 -0.156,0.072l0,-0.062l-0.08,0l-0,0.475l0.081,-0l-0,-0.266c-0,-0.089 0.064,-0.142 0.141,-0.142c0.082,0 0.13,0.052 0.13,0.139l0,0.269l0.082,-0l-0,-0.295c-0,-0.114 -0.081,-0.19 -0.198,-0.19Z" style="fill:#004153;fill-rule:nonzero;"/></g><g transform="matrix(12,0,0,12,-26.7484,2.76045)"><path d="M0.287,-0.485c-0.137,0 -0.236,0.101 -0.236,0.247c-0,0.149 0.099,0.248 0.241,0.248c0.07,-0 0.136,-0.017 0.194,-0.072l-0.043,-0.056c-0.04,0.035 -0.091,0.057 -0.146,0.057c-0.082,-0 -0.151,-0.049 -0.162,-0.148l0.373,0c0.001,-0.009 0.002,-0.02 0.002,-0.03c-0.001,-0.146 -0.094,-0.246 -0.223,-0.246Zm-0.002,0.072c0.077,0 0.132,0.054 0.142,0.139l-0.291,-0c0.012,-0.082 0.065,-0.139 0.149,-0.139Z" style="fill:#004153;fill-rule:nonzero;"/></g><g transform="matrix(12,0,0,12,-19.9024,2.76045)"><path d="M0.442,-0.433c-0.046,-0.031 -0.114,-0.051 -0.19,-0.051c-0.115,-0 -0.19,0.054 -0.19,0.145c-0,0.072 0.051,0.121 0.157,0.134l0.056,0.006c0.064,0.008 0.095,0.03 0.095,0.065c0,0.047 -0.048,0.073 -0.126,0.073c-0.08,-0 -0.127,-0.023 -0.162,-0.051l-0.038,0.061c0.062,0.047 0.141,0.061 0.199,0.061c0.13,-0 0.211,-0.058 0.211,-0.149c-0,-0.078 -0.059,-0.121 -0.16,-0.135l-0.056,-0.007c-0.057,-0.007 -0.092,-0.024 -0.092,-0.062c0,-0.043 0.042,-0.071 0.107,-0.071c0.063,0 0.124,0.024 0.154,0.044l0.035,-0.063Z" style="fill:#004153;fill-rule:nonzero;"/></g><g transform="matrix(12,0,0,12,-13.8184,2.76045)"><path d="M0.442,-0.433c-0.046,-0.031 -0.114,-0.051 -0.19,-0.051c-0.115,-0 -0.19,0.054 -0.19,0.145c-0,0.072 0.051,0.121 0.157,0.134l0.056,0.006c0.064,0.008 0.095,0.03 0.095,0.065c0,0.047 -0.048,0.073 -0.126,0.073c-0.08,-0 -0.127,-0.023 -0.162,-0.051l-0.038,0.061c0.062,0.047 0.141,0.061 0.199,0.061c0.13,-0 0.211,-0.058 0.211,-0.149c-0,-0.078 -0.059,-0.121 -0.16,-0.135l-0.056,-0.007c-0.057,-0.007 -0.092,-0.024 -0.092,-0.062c0,-0.043 0.042,-0.071 0.107,-0.071c0.063,0 0.124,0.024 0.154,0.044l0.035,-0.063Z" style="fill:#004153;fill-rule:nonzero;"/></g><g transform="matrix(12,0,0,12,-7.73438,2.76045)"><path d="M0.287,-0.485c-0.137,0 -0.236,0.101 -0.236,0.247c-0,0.149 0.099,0.248 0.241,0.248c0.07,-0 0.136,-0.017 0.194,-0.072l-0.043,-0.056c-0.04,0.035 -0.091,0.057 -0.146,0.057c-0.082,-0 -0.151,-0.049 -0.162,-0.148l0.373,0c0.001,-0.009 0.002,-0.02 0.002,-0.03c-0.001,-0.146 -0.094,-0.246 -0.223,-0.246Zm-0.002,0.072c0.077,0 0.132,0.054 0.142,0.139l-0.291,-0c0.012,-0.082 0.065,-0.139 0.149,-0.139Z" style="fill:#004153;fill-rule:nonzero;"/></g><g transform="matrix(12,0,0,12,-0.888378,2.76045)"><path d="M0.442,-0.433c-0.046,-0.031 -0.114,-0.051 -0.19,-0.051c-0.115,-0 -0.19,0.054 -0.19,0.145c-0,0.072 0.051,0.121 0.157,0.134l0.056,0.006c0.064,0.008 0.095,0.03 0.095,0.065c0,0.047 -0.048,0.073 -0.126,0.073c-0.08,-0 -0.127,-0.023 -0.162,-0.051l-0.038,0.061c0.062,0.047 0.141,0.061 0.199,0.061c0.13,-0 0.211,-0.058 0.211,-0.149c-0,-0.078 -0.059,-0.121 -0.16,-0.135l-0.056,-0.007c-0.057,-0.007 -0.092,-0.024 -0.092,-0.062c0,-0.043 0.042,-0.071 0.107,-0.071c0.063,0 0.124,0.024 0.154,0.044l0.035,-0.063Z" style="fill:#004153;fill-rule:nonzero;"/></g><g transform="matrix(12,0,0,12,5.19562,2.76045)"><path d="M0.09,-0.126l-0.029,0.257l0.07,-0l0.054,-0.257l-0.096,-0Z" style="fill:#004153;fill-rule:nonzero;"/></g><g transform="matrix(12,0,0,12,11.6276,2.76045)"><path d="M0.301,-0.485c-0.144,0 -0.25,0.106 -0.25,0.247c-0,0.142 0.106,0.248 0.25,0.248c0.145,-0 0.252,-0.106 0.252,-0.248c-0,-0.141 -0.107,-0.247 -0.252,-0.247Zm0,0.077c0.096,-0 0.168,0.071 0.168,0.17c0,0.1 -0.072,0.172 -0.168,0.172c-0.095,-0 -0.167,-0.072 -0.167,-0.172c-0,-0.099 0.072,-0.17 0.167,-0.17Z" style="fill:#004153;fill-rule:nonzero;"/></g><g transform="matrix(12,0,0,12,18.9896,2.76045)"><path d="M0.336,-0.485c-0.076,0 -0.131,0.029 -0.168,0.073l-0,-0.063l-0.081,0l-0,0.675l0.081,-0l-0,-0.263c0.037,0.044 0.092,0.073 0.168,0.073c0.133,-0 0.237,-0.104 0.237,-0.247c-0,-0.144 -0.104,-0.248 -0.237,-0.248Zm-0.01,0.077c0.097,-0 0.163,0.076 0.163,0.17c0,0.095 -0.064,0.172 -0.163,0.172c-0.096,-0 -0.163,-0.074 -0.163,-0.172c-0,-0.097 0.067,-0.17 0.163,-0.17Z" style="fill:#004153;fill-rule:nonzero;"/></g><g transform="matrix(12,0,0,12,26.5916,2.76045)"><path d="M0.336,-0.485c-0.076,0 -0.131,0.029 -0.168,0.073l-0,-0.063l-0.081,0l-0,0.675l0.081,-0l-0,-0.263c0.037,0.044 0.092,0.073 0.168,0.073c0.133,-0 0.237,-0.104 0.237,-0.247c-0,-0.144 -0.104,-0.248 -0.237,-0.248Zm-0.01,0.077c0.097,-0 0.163,0.076 0.163,0.17c0,0.095 -0.064,0.172 -0.163,0.172c-0.096,-0 -0.163,-0.074 -0.163,-0.172c-0,-0.097 0.067,-0.17 0.163,-0.17Z" style="fill:#004153;fill-rule:nonzero;"/></g><g transform="matrix(12,0,0,12,34.1936,2.76045)"><path d="M0.301,-0.485c-0.144,0 -0.25,0.106 -0.25,0.247c-0,0.142 0.106,0.248 0.25,0.248c0.145,-0 0.252,-0.106 0.252,-0.248c-0,-0.141 -0.107,-0.247 -0.252,-0.247Zm0,0.077c0.096,-0 0.168,0.071 0.168,0.17c0,0.1 -0.072,0.172 -0.168,0.172c-0.095,-0 -0.167,-0.072 -0.167,-0.172c-0,-0.099 0.072,-0.17 0.167,-0.17Z" style="fill:#004153;fill-rule:nonzero;"/></g><g transform="matrix(12,0,0,12,41.5556,2.76045)"><path d="M0.306,-0.485c-0.057,0 -0.106,0.026 -0.139,0.072l-0,-0.062l-0.08,0l-0,0.475l0.081,-0l-0,-0.264c-0,-0.088 0.051,-0.144 0.123,-0.144c0.027,0 0.059,0.007 0.082,0.019l0.02,-0.08c-0.026,-0.011 -0.053,-0.016 -0.087,-0.016Z" style="fill:#004153;fill-rule:nonzero;"/></g><g transform="matrix(12,0,0,12,46.8236,2.76045)"><path d="M0.409,-0.475l-0.2,0l0,-0.149l-0.081,0l-0,0.149l-0.102,0l0,0.074l0.102,0l-0,0.234c-0,0.121 0.061,0.177 0.164,0.177c0.058,-0 0.106,-0.021 0.142,-0.047l-0.038,-0.061c-0.027,0.018 -0.062,0.032 -0.097,0.032c-0.052,-0 -0.09,-0.031 -0.09,-0.103l0,-0.232l0.2,0l-0,-0.074Z" style="fill:#004153;fill-rule:nonzero;"/></g><g transform="matrix(12,0,0,12,52.3856,2.76045)"><path d="M0.515,-0.475l-0.082,0l0,0.269c0,0.097 -0.057,0.14 -0.135,0.14c-0.077,-0 -0.135,-0.043 -0.135,-0.14l0,-0.269l-0.081,0l-0,0.276c-0,0.144 0.102,0.209 0.216,0.209c0.114,-0 0.217,-0.065 0.217,-0.209l-0,-0.276Z" style="fill:#004153;fill-rule:nonzero;"/></g><g transform="matrix(12,0,0,12,59.6636,2.76045)"><path d="M0.323,-0.485c-0.055,0 -0.117,0.019 -0.156,0.072l0,-0.062l-0.08,0l-0,0.475l0.081,-0l-0,-0.266c-0,-0.089 0.064,-0.142 0.141,-0.142c0.082,0 0.13,0.052 0.13,0.139l0,0.269l0.082,-0l-0,-0.295c-0,-0.114 -0.081,-0.19 -0.198,-0.19Z" style="fill:#004153;fill-rule:nonzero;"/></g><g transform="matrix(12,0,0,12,67.0136,2.76045)"><path d="M0.168,-0.475l-0.081,0l-0,0.475l0.081,-0l-0,-0.475Zm-0.041,-0.225c-0.033,-0 -0.058,0.025 -0.058,0.058c0,0.033 0.025,0.057 0.058,0.057c0.032,0 0.058,-0.024 0.058,-0.057c-0,-0.033 -0.026,-0.058 -0.058,-0.058Z" style="fill:#004153;fill-rule:nonzero;"/></g><g transform="matrix(12,0,0,12,70.1876,2.76045)"><path d="M0.409,-0.475l-0.2,0l0,-0.149l-0.081,0l-0,0.149l-0.102,0l0,0.074l0.102,0l-0,0.234c-0,0.121 0.061,0.177 0.164,0.177c0.058,-0 0.106,-0.021 0.142,-0.047l-0.038,-0.061c-0.027,0.018 -0.062,0.032 -0.097,0.032c-0.052,-0 -0.09,-0.031 -0.09,-0.103l0,-0.232l0.2,0l-0,-0.074Z" style="fill:#004153;fill-rule:nonzero;"/></g><g transform="matrix(12,0,0,12,75.7496,2.76045)"><path d="M0.168,-0.475l-0.081,0l-0,0.475l0.081,-0l-0,-0.475Zm-0.041,-0.225c-0.033,-0 -0.058,0.025 -0.058,0.058c0,0.033 0.025,0.057 0.058,0.057c0.032,0 0.058,-0.024 0.058,-0.057c-0,-0.033 -0.026,-0.058 -0.058,-0.058Z" style="fill:#004153;fill-rule:nonzero;"/></g><g transform="matrix(12,0,0,12,78.9236,2.76045)"><path d="M0.287,-0.485c-0.137,0 -0.236,0.101 -0.236,0.247c-0,0.149 0.099,0.248 0.241,0.248c0.07,-0 0.136,-0.017 0.194,-0.072l-0.043,-0.056c-0.04,0.035 -0.091,0.057 -0.146,0.057c-0.082,-0 -0.151,-0.049 -0.162,-0.148l0.373,0c0.001,-0.009 0.002,-0.02 0.002,-0.03c-0.001,-0.146 -0.094,-0.246 -0.223,-0.246Zm-0.002,0.072c0.077,0 0.132,0.054 0.142,0.139l-0.291,-0c0.012,-0.082 0.065,-0.139 0.149,-0.139Z" style="fill:#004153;fill-rule:nonzero;"/></g><g transform="matrix(12,0,0,12,85.7696,2.76045)"><path d="M0.442,-0.433c-0.046,-0.031 -0.114,-0.051 -0.19,-0.051c-0.115,-0 -0.19,0.054 -0.19,0.145c-0,0.072 0.051,0.121 0.157,0.134l0.056,0.006c0.064,0.008 0.095,0.03 0.095,0.065c0,0.047 -0.048,0.073 -0.126,0.073c-0.08,-0 -0.127,-0.023 -0.162,-0.051l-0.038,0.061c0.062,0.047 0.141,0.061 0.199,0.061c0.13,-0 0.211,-0.058 0.211,-0.149c-0,-0.078 -0.059,-0.121 -0.16,-0.135l-0.056,-0.007c-0.057,-0.007 -0.092,-0.024 -0.092,-0.062c0,-0.043 0.042,-0.071 0.107,-0.071c0.063,0 0.124,0.024 0.154,0.044l0.035,-0.063Z" style="fill:#004153;fill-rule:nonzero;"/></g><g transform="matrix(12,0,0,12,91.8536,2.76045)"><path d="M0.09,-0.126l-0.029,0.257l0.07,-0l0.054,-0.257l-0.096,-0Z" style="fill:#004153;fill-rule:nonzero;"/></g><g transform="matrix(12,0,0,12,-128.976,17.1604)"><path d="M0.537,-0.475l-0.081,0l-0,0.064c-0.038,-0.045 -0.093,-0.074 -0.168,-0.074c-0.134,0 -0.237,0.104 -0.237,0.247c-0,0.144 0.103,0.248 0.237,0.248c0.075,-0 0.13,-0.029 0.168,-0.073l-0,0.063l0.081,-0l0,-0.475Zm-0.239,0.067c0.096,-0 0.163,0.073 0.163,0.17c-0,0.098 -0.067,0.172 -0.163,0.172c-0.098,-0 -0.164,-0.077 -0.164,-0.172c-0,-0.094 0.064,-0.17 0.164,-0.17Z" style="fill:#004153;fill-rule:nonzero;"/></g><g transform="matrix(12,0,0,12,-121.368,17.1604)"><path d="M0.323,-0.485c-0.055,0 -0.117,0.019 -0.156,0.072l0,-0.062l-0.08,0l-0,0.475l0.081,-0l-0,-0.266c-0,-0.089 0.064,-0.142 0.141,-0.142c0.082,0 0.13,0.052 0.13,0.139l0,0.269l0.082,-0l-0,-0.295c-0,-0.114 -0.081,-0.19 -0.198,-0.19Z" style="fill:#004153;fill-rule:nonzero;"/></g><g transform="matrix(12,0,0,12,-114.018,17.1604)"><path d="M0.288,-0.485c-0.134,0 -0.237,0.104 -0.237,0.247c-0,0.144 0.103,0.248 0.237,0.248c0.075,-0 0.13,-0.029 0.168,-0.073l-0,0.063l0.081,-0l0,-0.72l-0.081,0l-0,0.309c-0.038,-0.045 -0.093,-0.074 -0.168,-0.074Zm0.01,0.077c0.096,-0 0.163,0.073 0.163,0.17c-0,0.098 -0.067,0.172 -0.163,0.172c-0.098,-0 -0.164,-0.077 -0.164,-0.172c-0,-0.094 0.064,-0.17 0.164,-0.17Z" style="fill:#004153;fill-rule:nonzero;"/></g><g transform="matrix(12,0,0,12,-103.08,17.1604)"><path d="M0.344,-0.716c-0.163,0.064 -0.272,0.232 -0.272,0.432c0,0.2 0.109,0.368 0.272,0.432l0.029,-0.075c-0.132,-0.056 -0.214,-0.198 -0.214,-0.357c0,-0.159 0.082,-0.301 0.214,-0.357l-0.029,-0.075Z" style="fill:#004153;fill-rule:nonzero;"/></g><g transform="matrix(12,0,0,12,-98.0044,17.1604)"><path d="M0.515,-0.475l-0.082,0l0,0.269c0,0.097 -0.057,0.14 -0.135,0.14c-0.077,-0 -0.135,-0.043 -0.135,-0.14l0,-0.269l-0.081,0l-0,0.276c-0,0.144 0.102,0.209 0.216,0.209c0.114,-0 0.217,-0.065 0.217,-0.209l-0,-0.276Z" style="fill:#004153;fill-rule:nonzero;"/></g><g transform="matrix(12,0,0,12,-90.7264,17.1604)"><path d="M0.323,-0.485c-0.055,0 -0.117,0.019 -0.156,0.072l0,-0.062l-0.08,0l-0,0.475l0.081,-0l-0,-0.266c-0,-0.089 0.064,-0.142 0.141,-0.142c0.082,0 0.13,0.052 0.13,0.139l0,0.269l0.082,-0l-0,-0.295c-0,-0.114 -0.081,-0.19 -0.198,-0.19Z" style="fill:#004153;fill-rule:nonzero;"/></g><g transform="matrix(12,0,0,12,-83.3764,17.1604)"><rect x="0.07" y="-0.302" width="0.281" height="0.074" style="fill:#004153;fill-rule:nonzero;"/></g><g transform="matrix(12,0,0,12,-78.2104,17.1604)"><path d="M0.069,0.147c0.163,-0.064 0.272,-0.232 0.272,-0.432c-0,-0.2 -0.109,-0.368 -0.272,-0.432l-0.029,0.075c0.132,0.056 0.214,0.198 0.214,0.357c-0,0.159 -0.082,0.301 -0.214,0.357l0.029,0.075Z" style="fill:#004153;fill-rule:nonzero;"/></g><g transform="matrix(12,0,0,12,-73.1344,17.1604)"><path d="M0.297,-0.485c-0.147,0 -0.246,0.106 -0.246,0.247c-0,0.142 0.099,0.248 0.246,0.248c0.07,-0 0.133,-0.026 0.176,-0.074l-0.05,-0.057c-0.033,0.032 -0.078,0.055 -0.128,0.055c-0.092,-0 -0.161,-0.072 -0.161,-0.172c-0,-0.099 0.069,-0.17 0.161,-0.17c0.05,-0 0.091,0.019 0.126,0.053l0.052,-0.055c-0.042,-0.049 -0.106,-0.075 -0.176,-0.075Z" style="fill:#004153;fill-rule:nonzero;"/></g><g transform="matrix(12,0,0,12,-66.9664,17.1604)"><path d="M0.301,-0.485c-0.144,0 -0.25,0.106 -0.25,0.247c-0,0.142 0.106,0.248 0.25,0.248c0.145,-0 0.252,-0.106 0.252,-0.248c-0,-0.141 -0.107,-0.247 -0.252,-0.247Zm0,0.077c0.096,-0 0.168,0.071 0.168,0.17c0,0.1 -0.072,0.172 -0.168,0.172c-0.095,-0 -0.167,-0.072 -0.167,-0.172c-0,-0.099 0.072,-0.17 0.167,-0.17Z" style="fill:#004153;fill-rule:nonzero;"/></g><g transform="matrix(12,0,0,12,-59.6044,17.1604)"><path d="M0.323,-0.485c-0.055,0 -0.117,0.019 -0.156,0.072l0,-0.062l-0.08,0l-0,0.475l0.081,-0l-0,-0.266c-0,-0.089 0.064,-0.142 0.141,-0.142c0.082,0 0.13,0.052 0.13,0.139l0,0.269l0.082,-0l-0,-0.295c-0,-0.114 -0.081,-0.19 -0.198,-0.19Z" style="fill:#004153;fill-rule:nonzero;"/></g><g transform="matrix(12,0,0,12,-52.2544,17.1604)"><path d="M0.442,-0.433c-0.046,-0.031 -0.114,-0.051 -0.19,-0.051c-0.115,-0 -0.19,0.054 -0.19,0.145c-0,0.072 0.051,0.121 0.157,0.134l0.056,0.006c0.064,0.008 0.095,0.03 0.095,0.065c0,0.047 -0.048,0.073 -0.126,0.073c-0.08,-0 -0.127,-0.023 -0.162,-0.051l-0.038,0.061c0.062,0.047 0.141,0.061 0.199,0.061c0.13,-0 0.211,-0.058 0.211,-0.149c-0,-0.078 -0.059,-0.121 -0.16,-0.135l-0.056,-0.007c-0.057,-0.007 -0.092,-0.024 -0.092,-0.062c0,-0.043 0.042,-0.071 0.107,-0.071c0.063,0 0.124,0.024 0.154,0.044l0.035,-0.063Z" style="fill:#004153;fill-rule:nonzero;"/></g><g transform="matrix(12,0,0,12,-46.1704,17.1604)"><path d="M0.297,-0.485c-0.147,0 -0.246,0.106 -0.246,0.247c-0,0.142 0.099,0.248 0.246,0.248c0.07,-0 0.133,-0.026 0.176,-0.074l-0.05,-0.057c-0.033,0.032 -0.078,0.055 -0.128,0.055c-0.092,-0 -0.161,-0.072 -0.161,-0.172c-0,-0.099 0.069,-0.17 0.161,-0.17c0.05,-0 0.091,0.019 0.126,0.053l0.052,-0.055c-0.042,-0.049 -0.106,-0.075 -0.176,-0.075Z" style="fill:#004153;fill-rule:nonzero;"/></g><g transform="matrix(12,0,0,12,-39.9004,17.1604)"><path d="M0.168,-0.475l-0.081,0l-0,0.475l0.081,-0l-0,-0.475Zm-0.041,-0.225c-0.033,-0 -0.058,0.025 -0.058,0.058c0,0.033 0.025,0.057 0.058,0.057c0.032,0 0.058,-0.024 0.058,-0.057c-0,-0.033 -0.026,-0.058 -0.058,-0.058Z" style="fill:#004153;fill-rule:nonzero;"/></g><g transform="matrix(12,0,0,12,-36.7264,17.1604)"><path d="M0.301,-0.485c-0.144,0 -0.25,0.106 -0.25,0.247c-0,0.142 0.106,0.248 0.25,0.248c0.145,-0 0.252,-0.106 0.252,-0.248c-0,-0.141 -0.107,-0.247 -0.252,-0.247Zm0,0.077c0.096,-0 0.168,0.071 0.168,0.17c0,0.1 -0.072,0.172 -0.168,0.172c-0.095,-0 -0.167,-0.072 -0.167,-0.172c-0,-0.099 0.072,-0.17 0.167,-0.17Z" style="fill:#004153;fill-rule:nonzero;"/></g><g transform="matrix(12,0,0,12,-29.3644,17.1604)"><path d="M0.515,-0.475l-0.082,0l0,0.269c0,0.097 -0.057,0.14 -0.135,0.14c-0.077,-0 -0.135,-0.043 -0.135,-0.14l0,-0.269l-0.081,0l-0,0.276c-0,0.144 0.102,0.209 0.216,0.209c0.114,-0 0.217,-0.065 0.217,-0.209l-0,-0.276Z" style="fill:#004153;fill-rule:nonzero;"/></g><g transform="matrix(12,0,0,12,-22.0864,17.1604)"><path d="M0.442,-0.433c-0.046,-0.031 -0.114,-0.051 -0.19,-0.051c-0.115,-0 -0.19,0.054 -0.19,0.145c-0,0.072 0.051,0.121 0.157,0.134l0.056,0.006c0.064,0.008 0.095,0.03 0.095,0.065c0,0.047 -0.048,0.073 -0.126,0.073c-0.08,-0 -0.127,-0.023 -0.162,-0.051l-0.038,0.061c0.062,0.047 0.141,0.061 0.199,0.061c0.13,-0 0.211,-0.058 0.211,-0.149c-0,-0.078 -0.059,-0.121 -0.16,-0.135l-0.056,-0.007c-0.057,-0.007 -0.092,-0.024 -0.092,-0.062c0,-0.043 0.042,-0.071 0.107,-0.071c0.063,0 0.124,0.024 0.154,0.044l0.035,-0.063Z" style="fill:#004153;fill-rule:nonzero;"/></g><g transform="matrix(12,0,0,12,-12.6724,17.1604)"><path d="M0.306,-0.485c-0.057,0 -0.106,0.026 -0.139,0.072l-0,-0.062l-0.08,0l-0,0.475l0.081,-0l-0,-0.264c-0,-0.088 0.051,-0.144 0.123,-0.144c0.027,0 0.059,0.007 0.082,0.019l0.02,-0.08c-0.026,-0.011 -0.053,-0.016 -0.087,-0.016Z" style="fill:#004153;fill-rule:nonzero;"/></g><g transform="matrix(12,0,0,12,-7.52438,17.1604)"><path d="M0.168,-0.475l-0.081,0l-0,0.475l0.081,-0l-0,-0.475Zm-0.041,-0.225c-0.033,-0 -0.058,0.025 -0.058,0.058c0,0.033 0.025,0.057 0.058,0.057c0.032,0 0.058,-0.024 0.058,-0.057c-0,-0.033 -0.026,-0.058 -0.058,-0.058Z" style="fill:#004153;fill-rule:nonzero;"/></g><g transform="matrix(12,0,0,12,-4.35038,17.1604)"><path d="M0.442,-0.433c-0.046,-0.031 -0.114,-0.051 -0.19,-0.051c-0.115,-0 -0.19,0.054 -0.19,0.145c-0,0.072 0.051,0.121 0.157,0.134l0.056,0.006c0.064,0.008 0.095,0.03 0.095,0.065c0,0.047 -0.048,0.073 -0.126,0.073c-0.08,-0 -0.127,-0.023 -0.162,-0.051l-0.038,0.061c0.062,0.047 0.141,0.061 0.199,0.061c0.13,-0 0.211,-0.058 0.211,-0.149c-0,-0.078 -0.059,-0.121 -0.16,-0.135l-0.056,-0.007c-0.057,-0.007 -0.092,-0.024 -0.092,-0.062c0,-0.043 0.042,-0.071 0.107,-0.071c0.063,0 0.124,0.024 0.154,0.044l0.035,-0.063Z" style="fill:#004153;fill-rule:nonzero;"/></g><g transform="matrix(12,0,0,12,1.73362,17.1604)"><path d="M0.168,-0.72l-0.081,0l-0,0.72l0.081,-0l-0,-0.211l0.064,-0l0.18,0.211l0.103,-0l-0.215,-0.251l0.212,-0.224l-0.103,0l-0.176,0.19l-0.065,0l-0,-0.435Z" style="fill:#004153;fill-rule:nonzero;"/></g><g transform="matrix(12,0,0,12,8.23762,17.1604)"><path d="M0.442,-0.433c-0.046,-0.031 -0.114,-0.051 -0.19,-0.051c-0.115,-0 -0.19,0.054 -0.19,0.145c-0,0.072 0.051,0.121 0.157,0.134l0.056,0.006c0.064,0.008 0.095,0.03 0.095,0.065c0,0.047 -0.048,0.073 -0.126,0.073c-0.08,-0 -0.127,-0.023 -0.162,-0.051l-0.038,0.061c0.062,0.047 0.141,0.061 0.199,0.061c0.13,-0 0.211,-0.058 0.211,-0.149c-0,-0.078 -0.059,-0.121 -0.16,-0.135l-0.056,-0.007c-0.057,-0.007 -0.092,-0.024 -0.092,-0.062c0,-0.043 0.042,-0.071 0.107,-0.071c0.063,0 0.124,0.024 0.154,0.044l0.035,-0.063Z" style="fill:#004153;fill-rule:nonzero;"/></g><g transform="matrix(12,0,0,12,14.3216,17.1604)"><path d="M0.177,-0.225l0.004,-0.082c0.145,-0.016 0.226,-0.088 0.226,-0.205c0,-0.122 -0.099,-0.201 -0.262,-0.201c-0.026,0 -0.06,0.003 -0.082,0.006l0.007,0.084c0.019,-0.002 0.045,-0.004 0.071,-0.004c0.109,-0 0.175,0.044 0.175,0.118c0,0.08 -0.065,0.127 -0.178,0.127l-0.035,-0l0,0.157l0.074,0Zm-0.037,0.098c-0.036,0 -0.068,0.032 -0.068,0.068c-0,0.037 0.032,0.069 0.068,0.069c0.036,-0 0.068,-0.032 0.068,-0.069c-0,-0.036 -0.032,-0.068 -0.068,-0.068Z" style="fill:#004153;fill-rule:nonzero;"/></g></g><path d="M149.143,110.551l-0,257.953" style="fill:none;fill-rule:nonzero;stroke:#f39260;stroke-width:1px;"/><path d="M19.843,232.441l258.6,-0" style="fill:none;fill-rule:nonzero;stroke:#f39260;stroke-width:1px;"/><path d="M104.872,220.746c-0.594,-0.409 -1.318,-0.687 -2.268,-0.687c-1.328,-0 -2.407,0.678 -2.407,1.894c-0,1.075 0.827,1.557 1.867,1.683l0.585,0.072c0.981,0.121 1.508,0.4 1.508,0.985c-0,0.711 -0.738,1.094 -1.679,1.094c-0.801,0 -1.616,-0.32 -2.052,-0.698l-0.432,0.63c0.607,0.509 1.588,0.819 2.484,0.819c1.364,-0 2.502,-0.657 2.502,-1.912c-0,-1.112 -0.913,-1.544 -1.98,-1.674l-0.554,-0.068c-0.945,-0.117 -1.426,-0.409 -1.426,-0.981c-0,-0.679 0.657,-1.094 1.579,-1.094c0.73,0 1.355,0.234 1.868,0.581l0.405,-0.644Z" style="fill:#989799;fill-rule:nonzero;"/><path d="M109.133,222.174l-1.795,-0l-0,-1.341l-0.738,-0l0,1.341l-0.913,-0l-0,0.669l0.913,0l0,2.098c0,1.089 0.553,1.597 1.48,1.597c0.527,-0 0.954,-0.184 1.283,-0.423l-0.347,-0.553c-0.243,0.166 -0.558,0.288 -0.873,0.288c-0.463,0 -0.805,-0.279 -0.805,-0.923l-0,-2.084l1.795,0l0,-0.669Z" style="fill:#989799;fill-rule:nonzero;"/><path d="M112.288,222.084c-0.509,-0 -0.954,0.233 -1.251,0.651l-0,-0.561l-0.724,-0l-0,4.274l0.733,-0l-0,-2.38c-0,-0.788 0.459,-1.288 1.111,-1.288c0.243,0 0.531,0.059 0.734,0.167l0.18,-0.724c-0.23,-0.099 -0.477,-0.139 -0.783,-0.139Z" style="fill:#989799;fill-rule:nonzero;"/><path d="M115.703,222.084c-1.228,-0 -2.123,0.913 -2.123,2.227c-0,1.332 0.899,2.227 2.168,2.227c0.631,-0 1.225,-0.153 1.755,-0.647l-0.391,-0.505c-0.364,0.315 -0.819,0.509 -1.319,0.509c-0.733,0 -1.35,-0.437 -1.453,-1.324l3.361,0c0.005,-0.08 0.014,-0.179 0.014,-0.274c-0.009,-1.309 -0.846,-2.213 -2.012,-2.213Zm-0.013,0.651c0.693,0 1.184,0.487 1.274,1.243l-2.615,0c0.112,-0.729 0.585,-1.243 1.341,-1.243Z" style="fill:#989799;fill-rule:nonzero;"/><path d="M121.077,222.084c-0.496,-0 -1.049,0.166 -1.4,0.647l-0,-0.557l-0.729,-0l0,4.274l0.733,-0l0,-2.398c0,-0.797 0.576,-1.27 1.265,-1.27c0.743,0 1.175,0.464 1.175,1.251l-0,2.417l0.737,-0l0,-2.655c0,-1.026 -0.728,-1.709 -1.781,-1.709Z" style="fill:#989799;fill-rule:nonzero;"/><path d="M126.161,222.084c-1.201,-0 -2.114,0.89 -2.114,2.191c-0,1.305 0.913,2.195 2.114,2.195c0.662,0 1.148,-0.256 1.472,-0.665l0,0.378c0,0.949 -0.616,1.467 -1.535,1.467c-0.553,0 -1.062,-0.185 -1.471,-0.477l-0.319,0.594c0.436,0.351 1.124,0.553 1.79,0.553c1.351,-0 2.273,-0.787 2.273,-2.169l-0,-3.977l-0.738,-0l0,0.58c-0.324,-0.41 -0.81,-0.67 -1.472,-0.67Zm0.086,0.692c0.851,-0 1.449,0.648 1.449,1.499c0,0.855 -0.598,1.503 -1.449,1.503c-0.878,0 -1.449,-0.671 -1.449,-1.503c-0,-0.824 0.571,-1.499 1.449,-1.499Z" style="fill:#989799;fill-rule:nonzero;"/><path d="M132.83,222.174l-1.795,-0l-0,-1.341l-0.738,-0l0,1.341l-0.913,-0l-0,0.669l0.913,0l0,2.098c0,1.089 0.553,1.597 1.48,1.597c0.527,-0 0.954,-0.184 1.283,-0.423l-0.347,-0.553c-0.243,0.166 -0.558,0.288 -0.873,0.288c-0.463,0 -0.805,-0.279 -0.805,-0.923l-0,-2.084l1.795,0l0,-0.669Z" style="fill:#989799;fill-rule:nonzero;"/><path d="M134.743,219.969l-0.733,-0l-0,6.479l0.733,-0l-0,-2.399c-0,-0.796 0.576,-1.269 1.264,-1.269c0.743,0 1.175,0.464 1.175,1.251l0,2.417l0.738,-0l-0,-2.655c-0,-1.026 -0.729,-1.709 -1.782,-1.709c-0.495,-0 -1.044,0.161 -1.395,0.642l-0,-2.757Z" style="fill:#989799;fill-rule:nonzero;"/><path d="M142.631,222.551c-0.413,-0.283 -1.03,-0.463 -1.705,-0.463c-1.04,0 -1.719,0.495 -1.719,1.314c0,0.648 0.463,1.08 1.422,1.197l0.495,0.058c0.581,0.072 0.86,0.27 0.86,0.585c-0,0.423 -0.432,0.653 -1.135,0.653c-0.715,0 -1.143,-0.207 -1.462,-0.455l-0.342,0.549c0.562,0.423 1.273,0.549 1.8,0.549c1.166,-0 1.894,-0.526 1.894,-1.341c0,-0.706 -0.535,-1.089 -1.444,-1.21l-0.495,-0.063c-0.518,-0.063 -0.828,-0.221 -0.828,-0.563c-0,-0.387 0.378,-0.635 0.963,-0.635c0.563,0 1.107,0.212 1.377,0.396l0.319,-0.571Z" style="fill:#989799;fill-rule:nonzero;"/><path d="M164.78,220.149l-0.814,-0l-1.683,5.408l-1.728,-5.413l-0.9,0l-1.724,5.413l-1.687,-5.408l-0.833,-0l2.021,6.303l0.976,0l1.688,-5.26l1.687,5.26l0.981,0l2.016,-6.303Z" style="fill:#989799;fill-rule:nonzero;"/><path d="M167.161,222.084c-1.229,-0 -2.124,0.913 -2.124,2.227c0,1.332 0.9,2.227 2.169,2.227c0.63,-0 1.224,-0.153 1.755,-0.647l-0.391,-0.505c-0.365,0.315 -0.819,0.509 -1.319,0.509c-0.734,0 -1.35,-0.437 -1.454,-1.324l3.362,0c0.004,-0.08 0.013,-0.179 0.013,-0.274c-0.009,-1.309 -0.845,-2.213 -2.011,-2.213Zm-0.014,0.651c0.694,0 1.184,0.487 1.274,1.243l-2.615,0c0.113,-0.729 0.585,-1.243 1.341,-1.243Z" style="fill:#989799;fill-rule:nonzero;"/><path d="M174.464,222.174l-0.737,-0l-0,0.576c-0.338,-0.406 -0.837,-0.666 -1.508,-0.666c-1.202,-0 -2.137,0.935 -2.137,2.227c-0,1.291 0.935,2.227 2.137,2.227c0.671,-0 1.17,-0.261 1.508,-0.661l-0,0.571l0.737,-0l0,-4.274Zm-2.16,0.602c0.865,-0 1.468,0.662 1.468,1.535c-0,0.877 -0.603,1.539 -1.468,1.539c-0.877,0 -1.471,-0.689 -1.471,-1.539c-0,-0.851 0.58,-1.535 1.471,-1.535Z" style="fill:#989799;fill-rule:nonzero;"/><path d="M176.755,219.969l-0.733,-0l-0,6.479l0.733,-0l-0,-1.899l0.58,-0l1.616,1.899l0.931,-0l-1.935,-2.259l1.908,-2.015l-0.927,-0l-1.588,1.71l-0.585,-0l-0,-3.915Z" style="fill:#989799;fill-rule:nonzero;"/><path d="M182.938,222.084c-0.495,-0 -1.049,0.166 -1.4,0.647l0,-0.557l-0.728,-0l-0,4.274l0.733,-0l-0,-2.398c-0,-0.797 0.576,-1.27 1.264,-1.27c0.743,0 1.175,0.464 1.175,1.251l0,2.417l0.738,-0l-0,-2.655c-0,-1.026 -0.729,-1.709 -1.782,-1.709Z" style="fill:#989799;fill-rule:nonzero;"/><path d="M188.032,222.084c-1.229,-0 -2.124,0.913 -2.124,2.227c0,1.332 0.9,2.227 2.169,2.227c0.63,-0 1.224,-0.153 1.755,-0.647l-0.391,-0.505c-0.365,0.315 -0.819,0.509 -1.319,0.509c-0.734,0 -1.35,-0.437 -1.454,-1.324l3.362,0c0.004,-0.08 0.013,-0.179 0.013,-0.274c-0.009,-1.309 -0.845,-2.213 -2.011,-2.213Zm-0.014,0.651c0.694,0 1.184,0.487 1.274,1.243l-2.615,0c0.113,-0.729 0.585,-1.243 1.341,-1.243Z" style="fill:#989799;fill-rule:nonzero;"/><path d="M194.476,222.551c-0.414,-0.283 -1.03,-0.463 -1.706,-0.463c-1.039,0 -1.718,0.495 -1.718,1.314c-0,0.648 0.463,1.08 1.421,1.197l0.495,0.058c0.581,0.072 0.86,0.27 0.86,0.585c0,0.423 -0.432,0.653 -1.134,0.653c-0.716,0 -1.143,-0.207 -1.462,-0.455l-0.342,0.549c0.562,0.423 1.273,0.549 1.799,0.549c1.166,-0 1.895,-0.526 1.895,-1.341c-0,-0.706 -0.535,-1.089 -1.444,-1.21l-0.496,-0.063c-0.517,-0.063 -0.828,-0.221 -0.828,-0.563c0,-0.387 0.378,-0.635 0.963,-0.635c0.563,0 1.108,0.212 1.377,0.396l0.32,-0.571Z" style="fill:#989799;fill-rule:nonzero;"/><path d="M198.949,222.551c-0.414,-0.283 -1.03,-0.463 -1.706,-0.463c-1.039,0 -1.718,0.495 -1.718,1.314c-0,0.648 0.463,1.08 1.421,1.197l0.495,0.058c0.581,0.072 0.86,0.27 0.86,0.585c0,0.423 -0.432,0.653 -1.134,0.653c-0.716,0 -1.143,-0.207 -1.462,-0.455l-0.342,0.549c0.562,0.423 1.273,0.549 1.799,0.549c1.166,-0 1.895,-0.526 1.895,-1.341c-0,-0.706 -0.535,-1.089 -1.444,-1.21l-0.496,-0.063c-0.517,-0.063 -0.828,-0.221 -0.828,-0.563c0,-0.387 0.378,-0.635 0.963,-0.635c0.563,0 1.108,0.212 1.377,0.396l0.32,-0.571Z" style="fill:#989799;fill-rule:nonzero;"/><path d="M202.022,222.084c-1.228,-0 -2.123,0.913 -2.123,2.227c-0,1.332 0.899,2.227 2.168,2.227c0.631,-0 1.225,-0.153 1.755,-0.647l-0.391,-0.505c-0.364,0.315 -0.819,0.509 -1.319,0.509c-0.733,0 -1.35,-0.437 -1.453,-1.324l3.361,0c0.005,-0.08 0.014,-0.179 0.014,-0.274c-0.009,-1.309 -0.846,-2.213 -2.012,-2.213Zm-0.013,0.651c0.693,0 1.184,0.487 1.274,1.243l-2.615,0c0.112,-0.729 0.585,-1.243 1.341,-1.243Z" style="fill:#989799;fill-rule:nonzero;"/><path d="M208.466,222.551c-0.413,-0.283 -1.03,-0.463 -1.705,-0.463c-1.04,0 -1.719,0.495 -1.719,1.314c0,0.648 0.463,1.08 1.422,1.197l0.495,0.058c0.581,0.072 0.86,0.27 0.86,0.585c-0,0.423 -0.432,0.653 -1.135,0.653c-0.715,0 -1.143,-0.207 -1.462,-0.455l-0.342,0.549c0.562,0.423 1.273,0.549 1.8,0.549c1.166,-0 1.894,-0.526 1.894,-1.341c0,-0.706 -0.535,-1.089 -1.444,-1.21l-0.495,-0.063c-0.518,-0.063 -0.828,-0.221 -0.828,-0.563c-0,-0.387 0.378,-0.635 0.963,-0.635c0.563,0 1.107,0.212 1.377,0.396l0.319,-0.571Z" style="fill:#989799;fill-rule:nonzero;"/><path d="M156.055,237.983l0,6.3l0.792,-0l-0,-2.718l0.738,-0l2.165,2.718l0.98,-0l-2.218,-2.718l0.049,-0c1.351,-0 2.201,-0.702 2.201,-1.795c-0,-1.148 -0.783,-1.787 -2.205,-1.787l-2.502,0Zm2.484,0.742c0.914,0 1.4,0.347 1.4,1.045c-0,0.706 -0.473,1.075 -1.4,1.075l-1.692,0l-0,-2.12l1.692,0Z" style="fill:#989799;fill-rule:nonzero;"/><path d="M162.778,240.008l-0.733,0l-0,4.275l0.733,-0l-0,-4.275Zm-0.374,-2.029c-0.292,-0 -0.517,0.229 -0.517,0.526c0,0.293 0.225,0.513 0.517,0.513c0.293,0 0.527,-0.22 0.527,-0.513c-0,-0.297 -0.234,-0.526 -0.527,-0.526Z" style="fill:#989799;fill-rule:nonzero;"/><path d="M167.534,240.386c-0.413,-0.283 -1.03,-0.463 -1.705,-0.463c-1.04,-0 -1.719,0.495 -1.719,1.313c0,0.649 0.463,1.081 1.422,1.198l0.495,0.058c0.581,0.072 0.86,0.27 0.86,0.585c-0,0.423 -0.432,0.653 -1.135,0.653c-0.715,-0 -1.143,-0.207 -1.462,-0.455l-0.342,0.549c0.562,0.423 1.273,0.549 1.8,0.549c1.166,-0 1.894,-0.526 1.894,-1.341c0,-0.706 -0.535,-1.089 -1.444,-1.21l-0.495,-0.063c-0.518,-0.063 -0.828,-0.221 -0.828,-0.563c-0,-0.387 0.378,-0.635 0.963,-0.635c0.563,0 1.107,0.212 1.377,0.396l0.319,-0.571Z" style="fill:#989799;fill-rule:nonzero;"/><path d="M169.541,237.803l-0.733,0l0,6.48l0.733,-0l0,-1.899l0.581,-0l1.615,1.899l0.932,-0l-1.935,-2.259l1.908,-2.016l-0.927,0l-1.589,1.71l-0.585,0l0,-3.915Z" style="fill:#989799;fill-rule:nonzero;"/><path d="M176.795,240.386c-0.413,-0.283 -1.03,-0.463 -1.705,-0.463c-1.04,-0 -1.719,0.495 -1.719,1.313c0,0.649 0.463,1.081 1.422,1.198l0.495,0.058c0.581,0.072 0.86,0.27 0.86,0.585c-0,0.423 -0.432,0.653 -1.135,0.653c-0.715,-0 -1.143,-0.207 -1.462,-0.455l-0.342,0.549c0.562,0.423 1.273,0.549 1.8,0.549c1.166,-0 1.894,-0.526 1.894,-1.341c0,-0.706 -0.535,-1.089 -1.444,-1.21l-0.495,-0.063c-0.518,-0.063 -0.828,-0.221 -0.828,-0.563c-0,-0.387 0.378,-0.635 0.963,-0.635c0.563,0 1.107,0.212 1.377,0.396l0.319,-0.571Z" style="fill:#989799;fill-rule:nonzero;"/><path d="M85.756,237.889c-1.89,-0 -3.262,1.358 -3.262,3.244c-0,1.886 1.372,3.244 3.262,3.244c1.89,0 3.262,-1.358 3.262,-3.244c0,-1.886 -1.372,-3.244 -3.262,-3.244Zm-0,0.76c1.386,-0 2.435,1.004 2.435,2.484c-0,1.481 -1.049,2.484 -2.435,2.484c-1.386,0 -2.435,-1.003 -2.435,-2.484c0,-1.48 1.049,-2.484 2.435,-2.484Z" style="fill:#989799;fill-rule:nonzero;"/><path d="M92.578,239.918c-0.675,0 -1.175,0.261 -1.508,0.661l0,-0.571l-0.733,0l0,6.075l0.733,-0l0,-2.371c0.333,0.4 0.833,0.661 1.508,0.661c1.197,-0 2.137,-0.936 2.137,-2.227c0,-1.292 -0.94,-2.228 -2.137,-2.228Zm-0.086,0.693c0.874,-0 1.468,0.684 1.468,1.535c-0,0.85 -0.581,1.539 -1.468,1.539c-0.864,-0 -1.467,-0.662 -1.467,-1.539c0,-0.873 0.603,-1.535 1.467,-1.535Z" style="fill:#989799;fill-rule:nonzero;"/><path d="M98.189,239.918c-0.675,0 -1.174,0.261 -1.507,0.661l-0,-0.571l-0.733,0l-0,6.075l0.733,-0l-0,-2.371c0.333,0.4 0.832,0.661 1.507,0.661c1.198,-0 2.138,-0.936 2.138,-2.227c-0,-1.292 -0.94,-2.228 -2.138,-2.228Zm-0.085,0.693c0.873,-0 1.467,0.684 1.467,1.535c0,0.85 -0.58,1.539 -1.467,1.539c-0.864,-0 -1.467,-0.662 -1.467,-1.539c-0,-0.873 0.603,-1.535 1.467,-1.535Z" style="fill:#989799;fill-rule:nonzero;"/><path d="M103.495,239.918c-1.296,0 -2.259,0.958 -2.259,2.228c0,1.269 0.963,2.227 2.259,2.227c1.296,-0 2.263,-0.958 2.263,-2.227c0,-1.27 -0.967,-2.228 -2.263,-2.228Zm-0,0.693c0.855,-0 1.508,0.639 1.508,1.535c-0,0.895 -0.653,1.539 -1.508,1.539c-0.86,-0 -1.508,-0.644 -1.508,-1.539c0,-0.896 0.648,-1.535 1.508,-1.535Z" style="fill:#989799;fill-rule:nonzero;"/><path d="M108.967,239.918c-0.509,0 -0.954,0.234 -1.251,0.652l-0,-0.562l-0.724,0l-0,4.275l0.733,-0l-0,-2.38c-0,-0.788 0.459,-1.288 1.111,-1.288c0.243,0 0.531,0.059 0.734,0.167l0.18,-0.724c-0.23,-0.099 -0.477,-0.14 -0.783,-0.14Z" style="fill:#989799;fill-rule:nonzero;"/><path d="M113.755,240.008l-1.796,0l0,-1.341l-0.737,0l-0,1.341l-0.914,0l0,0.67l0.914,0l-0,2.098c-0,1.089 0.553,1.597 1.48,1.597c0.526,-0 0.954,-0.184 1.282,-0.423l-0.346,-0.553c-0.243,0.166 -0.558,0.288 -0.873,0.288c-0.464,-0 -0.806,-0.279 -0.806,-0.923l0,-2.084l1.796,0l-0,-0.67Z" style="fill:#989799;fill-rule:nonzero;"/><path d="M118.79,240.008l-0.737,0l-0,2.417c-0,0.873 -0.518,1.26 -1.211,1.26c-0.698,-0 -1.215,-0.387 -1.215,-1.26l-0,-2.417l-0.738,0l0,2.484c0,1.292 0.922,1.881 1.953,1.881c1.022,-0 1.948,-0.589 1.948,-1.881l0,-2.484Z" style="fill:#989799;fill-rule:nonzero;"/><path d="M122.431,239.918c-0.495,0 -1.049,0.167 -1.4,0.648l0,-0.558l-0.728,0l-0,4.275l0.733,-0l-0,-2.398c-0,-0.797 0.576,-1.27 1.264,-1.27c0.743,0 1.175,0.464 1.175,1.251l0,2.417l0.738,-0l-0,-2.655c-0,-1.026 -0.729,-1.71 -1.782,-1.71Z" style="fill:#989799;fill-rule:nonzero;"/><path d="M126.458,240.008l-0.733,0l0,4.275l0.733,-0l0,-4.275Zm-0.373,-2.029c-0.292,-0 -0.517,0.229 -0.517,0.526c-0,0.293 0.225,0.513 0.517,0.513c0.292,0 0.526,-0.22 0.526,-0.513c0,-0.297 -0.234,-0.526 -0.526,-0.526Z" style="fill:#989799;fill-rule:nonzero;"/><path d="M130.918,240.008l-1.796,0l0,-1.341l-0.737,0l-0,1.341l-0.914,0l0,0.67l0.914,0l-0,2.098c-0,1.089 0.553,1.597 1.48,1.597c0.526,-0 0.954,-0.184 1.282,-0.423l-0.346,-0.553c-0.243,0.166 -0.558,0.288 -0.873,0.288c-0.464,-0 -0.806,-0.279 -0.806,-0.923l0,-2.084l1.796,0l-0,-0.67Z" style="fill:#989799;fill-rule:nonzero;"/><path d="M132.83,240.008l-0.733,0l0,4.275l0.733,-0l0,-4.275Zm-0.373,-2.029c-0.292,-0 -0.517,0.229 -0.517,0.526c-0,0.293 0.225,0.513 0.517,0.513c0.292,0 0.526,-0.22 0.526,-0.513c0,-0.297 -0.234,-0.526 -0.526,-0.526Z" style="fill:#989799;fill-rule:nonzero;"/><path d="M136.187,239.918c-1.228,0 -2.123,0.913 -2.123,2.228c-0,1.332 0.899,2.227 2.168,2.227c0.631,-0 1.225,-0.153 1.755,-0.648l-0.391,-0.504c-0.364,0.315 -0.819,0.509 -1.319,0.509c-0.733,-0 -1.35,-0.437 -1.453,-1.324l3.361,0c0.005,-0.081 0.014,-0.179 0.014,-0.274c-0.009,-1.31 -0.846,-2.214 -2.012,-2.214Zm-0.013,0.652c0.693,0 1.184,0.487 1.274,1.243l-2.615,-0c0.112,-0.729 0.585,-1.243 1.341,-1.243Z" style="fill:#989799;fill-rule:nonzero;"/><path d="M142.631,240.386c-0.413,-0.283 -1.03,-0.463 -1.705,-0.463c-1.04,-0 -1.719,0.495 -1.719,1.313c0,0.649 0.463,1.081 1.422,1.198l0.495,0.058c0.581,0.072 0.86,0.27 0.86,0.585c-0,0.423 -0.432,0.653 -1.135,0.653c-0.715,-0 -1.143,-0.207 -1.462,-0.455l-0.342,0.549c0.562,0.423 1.273,0.549 1.8,0.549c1.166,-0 1.894,-0.526 1.894,-1.341c0,-0.706 -0.535,-1.089 -1.444,-1.21l-0.495,-0.063c-0.518,-0.063 -0.828,-0.221 -0.828,-0.563c-0,-0.387 0.378,-0.635 0.963,-0.635c0.563,0 1.107,0.212 1.377,0.396l0.319,-0.571Z" style="fill:#989799;fill-rule:nonzero;"/><path d="M22.515,394.69c-1.323,0 -2.218,0.958 -2.218,2.227c0,1.27 0.895,2.228 2.218,2.228c0.635,-0 1.202,-0.234 1.589,-0.67l-0.455,-0.509c-0.297,0.288 -0.697,0.491 -1.152,0.491c-0.823,-0 -1.449,-0.644 -1.449,-1.54c0,-0.895 0.626,-1.534 1.449,-1.534c0.455,-0 0.819,0.175 1.134,0.481l0.473,-0.499c-0.383,-0.441 -0.954,-0.675 -1.589,-0.675Z" style="fill:#004153;fill-rule:nonzero;"/><path d="M29.216,394.78l-0.738,0l0,0.576c-0.337,-0.405 -0.837,-0.666 -1.507,-0.666c-1.202,0 -2.138,0.936 -2.138,2.227c0,1.292 0.936,2.228 2.138,2.228c0.67,-0 1.17,-0.261 1.507,-0.661l0,0.571l0.738,-0l-0,-4.275Zm-2.16,0.603c0.864,-0 1.467,0.661 1.467,1.534c0,0.878 -0.603,1.54 -1.467,1.54c-0.878,-0 -1.472,-0.689 -1.472,-1.54c0,-0.85 0.581,-1.534 1.472,-1.534Z" style="fill:#004153;fill-rule:nonzero;"/><path d="M32.748,394.69c-0.508,0 -0.954,0.234 -1.251,0.652l0,-0.562l-0.724,0l0,4.275l0.733,-0l0,-2.381c0,-0.787 0.459,-1.287 1.112,-1.287c0.243,0 0.531,0.059 0.733,0.167l0.18,-0.725c-0.229,-0.098 -0.477,-0.139 -0.783,-0.139Z" style="fill:#004153;fill-rule:nonzero;"/><path d="M36.178,394.69c-1.202,0 -2.138,0.936 -2.138,2.227c0,1.292 0.936,2.228 2.138,2.228c0.67,-0 1.17,-0.261 1.507,-0.661l0,0.571l0.738,-0l-0,-6.48l-0.738,0l0,2.781c-0.337,-0.405 -0.837,-0.666 -1.507,-0.666Zm0.085,0.693c0.864,-0 1.467,0.661 1.467,1.534c0,0.878 -0.603,1.54 -1.467,1.54c-0.878,-0 -1.472,-0.689 -1.472,-1.54c0,-0.85 0.581,-1.534 1.472,-1.534Z" style="fill:#004153;fill-rule:nonzero;"/><path d="M43.179,395.158c-0.413,-0.284 -1.03,-0.463 -1.705,-0.463c-1.04,-0 -1.719,0.494 -1.719,1.313c0,0.648 0.463,1.08 1.422,1.197l0.495,0.059c0.581,0.072 0.86,0.27 0.86,0.585c-0,0.423 -0.432,0.653 -1.135,0.653c-0.715,-0 -1.143,-0.207 -1.462,-0.455l-0.342,0.549c0.563,0.423 1.273,0.549 1.8,0.549c1.166,-0 1.894,-0.527 1.894,-1.341c0,-0.707 -0.535,-1.089 -1.444,-1.211l-0.495,-0.063c-0.518,-0.063 -0.828,-0.22 -0.828,-0.562c-0,-0.387 0.378,-0.635 0.963,-0.635c0.563,0 1.107,0.212 1.377,0.396l0.319,-0.571Z" style="fill:#004153;fill-rule:nonzero;"/><path d="M47.58,395.293l-0.76,0l0,1.742l-1.998,-0l2.304,-4.271l-0.864,0l-2.353,4.405l-0,0.585l2.911,0l0,1.301l0.76,-0l0,-1.301l1.049,0l-0,-0.719l-1.049,-0l0,-1.742Z" style="fill:#004153;fill-rule:nonzero;"/><path d="M49.79,394.159c0.302,-0.405 0.675,-0.765 1.377,-0.765c0.797,-0 1.256,0.535 1.256,1.237c-0,0.518 -0.252,0.941 -0.63,1.337l-2.358,2.489l-0,0.598l3.982,-0l-0,-0.724l-2.853,-0l1.809,-1.922c0.405,-0.428 0.846,-0.99 0.846,-1.773c-0,-1.13 -0.747,-1.971 -2.034,-1.971c-1.089,0 -1.647,0.612 -1.944,1.048l0.549,0.446Z" style="fill:#004153;fill-rule:nonzero;"/><path d="M55.141,397.912c-0.329,0 -0.617,0.283 -0.617,0.612c0,0.333 0.288,0.621 0.617,0.621c0.328,-0 0.611,-0.288 0.611,-0.621c0,-0.329 -0.283,-0.612 -0.611,-0.612Z" style="fill:#004153;fill-rule:nonzero;"/><path d="M58.966,394.69c-1.297,0 -2.259,0.958 -2.259,2.227c-0,1.27 0.962,2.228 2.259,2.228c1.296,-0 2.263,-0.958 2.263,-2.228c-0,-1.269 -0.967,-2.227 -2.263,-2.227Zm-0,0.693c0.855,-0 1.507,0.639 1.507,1.534c0,0.896 -0.652,1.54 -1.507,1.54c-0.86,-0 -1.508,-0.644 -1.508,-1.54c-0,-0.895 0.648,-1.534 1.508,-1.534Z" style="fill:#004153;fill-rule:nonzero;"/><path d="M64.437,394.69c-0.508,0 -0.954,0.234 -1.251,0.652l0,-0.562l-0.724,0l0,4.275l0.733,-0l0,-2.381c0,-0.787 0.459,-1.287 1.112,-1.287c0.243,0 0.531,0.059 0.733,0.167l0.18,-0.725c-0.229,-0.098 -0.477,-0.139 -0.783,-0.139Z" style="fill:#004153;fill-rule:nonzero;"/><path d="M67.844,394.69c-1.202,0 -2.115,0.891 -2.115,2.191c0,1.306 0.913,2.196 2.115,2.196c0.662,0 1.148,-0.256 1.472,-0.665l-0,0.377c-0,0.95 -0.617,1.468 -1.535,1.468c-0.554,-0 -1.062,-0.185 -1.472,-0.478l-0.319,0.595c0.436,0.35 1.125,0.553 1.791,0.553c1.35,-0 2.272,-0.787 2.272,-2.169l0,-3.978l-0.737,0l-0,0.581c-0.324,-0.41 -0.81,-0.671 -1.472,-0.671Zm0.086,0.693c0.85,-0 1.449,0.648 1.449,1.498c-0,0.855 -0.599,1.504 -1.449,1.504c-0.878,-0 -1.45,-0.671 -1.45,-1.504c0,-0.823 0.572,-1.498 1.45,-1.498Z" style="fill:#004153;fill-rule:nonzero;"/><path d="M75.4,392.125l-0.81,0l-3.821,7.83l0.81,-0l3.821,-7.83Z" style="fill:#004153;fill-rule:nonzero;"/><path d="M77.794,394.69c-0.676,0 -1.175,0.261 -1.508,0.661l-0,-0.571l-0.733,0l-0,6.075l0.733,-0l-0,-2.371c0.333,0.4 0.832,0.661 1.508,0.661c1.197,-0 2.137,-0.936 2.137,-2.227c-0,-1.292 -0.94,-2.228 -2.137,-2.228Zm-0.086,0.693c0.873,-0 1.467,0.684 1.467,1.534c0,0.851 -0.58,1.54 -1.467,1.54c-0.864,-0 -1.467,-0.662 -1.467,-1.54c-0,-0.873 0.603,-1.534 1.467,-1.534Z" style="fill:#004153;fill-rule:nonzero;"/><path d="M83.099,394.69c-1.296,0 -2.259,0.958 -2.259,2.227c0,1.27 0.963,2.228 2.259,2.228c1.296,-0 2.263,-0.958 2.263,-2.228c0,-1.269 -0.967,-2.227 -2.263,-2.227Zm0,0.693c0.855,-0 1.508,0.639 1.508,1.534c-0,0.896 -0.653,1.54 -1.508,1.54c-0.86,-0 -1.508,-0.644 -1.508,-1.54c0,-0.895 0.648,-1.534 1.508,-1.534Z" style="fill:#004153;fill-rule:nonzero;"/><path d="M89.795,395.158c-0.414,-0.284 -1.03,-0.463 -1.705,-0.463c-1.04,-0 -1.719,0.494 -1.719,1.313c-0,0.648 0.463,1.08 1.421,1.197l0.496,0.059c0.58,0.072 0.859,0.27 0.859,0.585c0,0.423 -0.432,0.653 -1.134,0.653c-0.716,-0 -1.143,-0.207 -1.462,-0.455l-0.342,0.549c0.562,0.423 1.273,0.549 1.799,0.549c1.166,-0 1.895,-0.527 1.895,-1.341c-0,-0.707 -0.535,-1.089 -1.444,-1.211l-0.496,-0.063c-0.517,-0.063 -0.828,-0.22 -0.828,-0.562c0,-0.387 0.378,-0.635 0.964,-0.635c0.562,0 1.107,0.212 1.377,0.396l0.319,-0.571Z" style="fill:#004153;fill-rule:nonzero;"/><path d="M91.802,394.78l-0.733,0l-0,4.275l0.733,-0l-0,-4.275Zm-0.373,-2.029c-0.293,-0 -0.518,0.229 -0.518,0.526c0,0.293 0.225,0.513 0.518,0.513c0.292,0 0.526,-0.22 0.526,-0.513c-0,-0.297 -0.234,-0.526 -0.526,-0.526Z" style="fill:#004153;fill-rule:nonzero;"/><path d="M96.261,394.78l-1.795,0l-0,-1.341l-0.738,0l0,1.341l-0.913,0l-0,0.67l0.913,0l0,2.097c0,1.089 0.553,1.598 1.48,1.598c0.527,-0 0.954,-0.185 1.283,-0.423l-0.347,-0.553c-0.243,0.166 -0.558,0.288 -0.873,0.288c-0.463,-0 -0.805,-0.279 -0.805,-0.923l-0,-2.084l1.795,0l0,-0.67Z" style="fill:#004153;fill-rule:nonzero;"/><path d="M98.174,394.78l-0.733,0l-0,4.275l0.733,-0l-0,-4.275Zm-0.373,-2.029c-0.293,-0 -0.518,0.229 -0.518,0.526c0,0.293 0.225,0.513 0.518,0.513c0.292,0 0.526,-0.22 0.526,-0.513c-0,-0.297 -0.234,-0.526 -0.526,-0.526Z" style="fill:#004153;fill-rule:nonzero;"/><path d="M101.666,394.69c-1.296,0 -2.259,0.958 -2.259,2.227c0,1.27 0.963,2.228 2.259,2.228c1.296,-0 2.263,-0.958 2.263,-2.228c0,-1.269 -0.967,-2.227 -2.263,-2.227Zm0,0.693c0.855,-0 1.508,0.639 1.508,1.534c-0,0.896 -0.653,1.54 -1.508,1.54c-0.86,-0 -1.508,-0.644 -1.508,-1.54c0,-0.895 0.648,-1.534 1.508,-1.534Z" style="fill:#004153;fill-rule:nonzero;"/><path d="M107.291,394.69c-0.495,0 -1.049,0.166 -1.4,0.648l0,-0.558l-0.728,0l-0,4.275l0.733,-0l-0,-2.399c-0,-0.796 0.576,-1.269 1.265,-1.269c0.742,0 1.174,0.464 1.174,1.251l0,2.417l0.738,-0l-0,-2.655c-0,-1.026 -0.729,-1.71 -1.782,-1.71Z" style="fill:#004153;fill-rule:nonzero;"/><path d="M111.318,394.78l-0.733,0l0,4.275l0.733,-0l0,-4.275Zm-0.373,-2.029c-0.292,-0 -0.517,0.229 -0.517,0.526c-0,0.293 0.225,0.513 0.517,0.513c0.292,0 0.526,-0.22 0.526,-0.513c0,-0.297 -0.234,-0.526 -0.526,-0.526Z" style="fill:#004153;fill-rule:nonzero;"/><path d="M115.004,394.69c-0.495,0 -1.049,0.166 -1.4,0.648l0,-0.558l-0.728,0l-0,4.275l0.733,-0l-0,-2.399c-0,-0.796 0.576,-1.269 1.265,-1.269c0.742,0 1.174,0.464 1.174,1.251l0,2.417l0.738,-0l-0,-2.655c-0,-1.026 -0.729,-1.71 -1.782,-1.71Z" style="fill:#004153;fill-rule:nonzero;"/><path d="M120.089,394.69c-1.202,0 -2.115,0.891 -2.115,2.191c0,1.306 0.913,2.196 2.115,2.196c0.662,0 1.148,-0.256 1.472,-0.665l-0,0.377c-0,0.95 -0.617,1.468 -1.535,1.468c-0.554,-0 -1.062,-0.185 -1.472,-0.478l-0.319,0.595c0.436,0.35 1.125,0.553 1.791,0.553c1.35,-0 2.272,-0.787 2.272,-2.169l0,-3.978l-0.737,0l-0,0.581c-0.324,-0.41 -0.81,-0.671 -1.472,-0.671Zm0.086,0.693c0.85,-0 1.449,0.648 1.449,1.498c-0,0.855 -0.599,1.504 -1.449,1.504c-0.878,-0 -1.45,-0.671 -1.45,-1.504c0,-0.823 0.572,-1.498 1.45,-1.498Z" style="fill:#004153;fill-rule:nonzero;"/></g></svg>