<?xml version="1.0" encoding="UTF-8" standalone="no"?><!DOCTYPE svg PUBLIC "-//W3C//DTD SVG 1.1//EN" "http://www.w3.org/Graphics/SVG/1.1/DTD/svg11.dtd"><svg width="100%" height="100%" viewBox="0 0 298 420" version="1.1" xmlns="http://www.w3.org/2000/svg" xmlns:xlink="http://www.w3.org/1999/xlink" xml:space="preserve" xmlns:serif="http://www.serif.com/" style="fill-rule:evenodd;clip-rule:evenodd;stroke-linecap:round;stroke-linejoin:round;"><clipPath id="_clip1"><rect x="-13.701" y="-14.173" width="345.827" height="460.63"/></clipPath><g clip-path="url(#_clip1)"><g id="Ebene-1" serif:id="Ebene 1"><rect x="-13.701" y="-14.173" width="345.827" height="460.63" style="fill:#004153;"/><g><rect x="218.758" y="385.673" width="3.28" height="13.775" style="fill:#fff;"/><path d="M245.758,399.449l-0,-13.776l-3.28,0l-0,8.423l-6.298,-8.423l-3.148,0l-0,8.423l-6.271,-8.423l-3.149,0l-0,13.776l3.28,-0l-0,-8.397l6.271,8.397l3.175,-0l-0,-8.397l6.271,8.397l3.149,-0Z" style="fill:#fff;fill-rule:nonzero;"/><path d="M254.154,388.56c2.23,-0 3.831,1.627 3.831,3.988c-0,2.362 -1.601,3.988 -3.831,3.988c-2.257,0 -3.831,-1.626 -3.831,-3.988c0,-2.361 1.601,-3.988 3.831,-3.988m0,-3.149c-4.251,0 -7.268,3.044 -7.268,7.137c-0,4.093 3.017,7.137 7.268,7.137c4.251,0 7.268,-3.044 7.268,-7.137c0,-4.093 -3.017,-7.137 -7.268,-7.137" style="fill:#fff;fill-rule:nonzero;"/><path d="M269.609,388.56c2.23,-0 3.831,1.627 3.831,3.988c-0,0.446 -0.053,0.866 -0.158,1.26l-0.446,-0.604l-3.568,0l2.177,2.913c-0.524,0.262 -1.154,0.419 -1.81,0.419c-2.23,0 -3.831,-1.626 -3.831,-3.988c-0.026,-2.335 1.574,-3.988 3.805,-3.988m-0,-3.149c-4.251,0 -7.268,3.044 -7.268,7.137c-0,4.093 3.017,7.137 7.268,7.137c1.443,0 2.676,-0.394 3.726,-1.076l0.603,0.814l3.857,-0l-2.178,-2.939c0.761,-1.102 1.207,-2.388 1.207,-3.936c0.053,-4.093 -2.965,-7.137 -7.215,-7.137" style="fill:#f39260;fill-rule:nonzero;"/></g></g></g><g id="Ebene-11" serif:id="Ebene 1"><g transform="matrix(1,0,0,1,126.378,45.1181)"><g transform="matrix(16,0,0,16,-106.535,-13.7561)"><path d="M0.365,-0.237c0.172,0 0.263,-0.091 0.263,-0.229c-0,-0.141 -0.091,-0.234 -0.264,-0.234l-0.3,0l-0,0.7l0.166,-0l0,-0.237l0.135,0Zm-0.004,-0.312c0.06,0 0.097,0.029 0.097,0.083c0,0.053 -0.037,0.081 -0.097,0.081l-0.131,-0l0,-0.164l0.131,0Z" style="fill:#fff;fill-rule:nonzero;"/></g><g transform="matrix(16,0,0,16,-96.2954,-13.7561)"><path d="M0.549,-0.49l-0.151,-0l0,0.053c-0.029,-0.039 -0.074,-0.067 -0.141,-0.067c-0.131,0 -0.228,0.114 -0.228,0.258c0,0.145 0.097,0.259 0.228,0.259c0.067,-0 0.112,-0.028 0.141,-0.066l0,0.053l0.151,-0l0,-0.49Zm-0.254,0.132c0.061,-0 0.105,0.047 0.105,0.113c-0,0.065 -0.044,0.112 -0.105,0.112c-0.063,0 -0.105,-0.048 -0.105,-0.112c-0,-0.065 0.042,-0.113 0.105,-0.113Z" style="fill:#fff;fill-rule:nonzero;"/></g><g transform="matrix(16,0,0,16,-86.6314,-13.7561)"><path d="M0.432,-0.49l-0.168,-0l0,-0.143l-0.156,-0l0,0.143l-0.091,-0l-0,0.138l0.091,-0l0,0.164c0,0.123 0.06,0.201 0.191,0.201c0.079,-0 0.128,-0.023 0.174,-0.055l-0.054,-0.121c-0.025,0.014 -0.056,0.03 -0.085,0.03c-0.04,0 -0.07,-0.019 -0.07,-0.075l0,-0.144l0.168,-0l-0,-0.138Z" style="fill:#fff;fill-rule:nonzero;"/></g><g transform="matrix(16,0,0,16,-78.9594,-13.7561)"><path d="M0.211,-0.72l-0.156,-0l0,0.72l0.156,-0l0,-0.264c0,-0.064 0.036,-0.093 0.08,-0.093c0.049,-0 0.078,0.032 0.078,0.09l-0,0.267l0.156,-0l-0,-0.322c-0,-0.113 -0.076,-0.182 -0.174,-0.182c-0.061,0 -0.109,0.021 -0.14,0.065l0,-0.281Z" style="fill:#fff;fill-rule:nonzero;"/></g><g transform="matrix(16,0,0,16,-69.7354,-13.7561)"><path d="M0.467,-0.461c-0.08,-0.031 -0.131,-0.042 -0.211,-0.042c-0.133,-0 -0.211,0.059 -0.211,0.163c-0,0.088 0.055,0.138 0.172,0.155l0.029,0.004c0.056,0.009 0.078,0.016 0.078,0.035c-0,0.021 -0.02,0.032 -0.069,0.032c-0.068,0 -0.124,-0.017 -0.173,-0.046l-0.054,0.121c0.056,0.036 0.142,0.051 0.226,0.051c0.143,0 0.227,-0.064 0.227,-0.171c-0,-0.083 -0.056,-0.134 -0.16,-0.15l-0.036,-0.005c-0.049,-0.008 -0.08,-0.013 -0.08,-0.034c0,-0.018 0.016,-0.03 0.057,-0.03c0.051,0.001 0.114,0.018 0.162,0.038l0.043,-0.121Z" style="fill:#fff;fill-rule:nonzero;"/></g><g transform="matrix(16,0,0,16,-58.0074,-13.7561)"><path d="M0.351,-0.504c-0.066,0 -0.115,0.024 -0.146,0.075l-0,-0.061l-0.15,-0l0,0.49l0.156,-0l0,-0.264c0,-0.064 0.036,-0.093 0.08,-0.093c0.049,-0 0.078,0.032 0.078,0.09l-0,0.267l0.156,-0l-0,-0.322c-0,-0.113 -0.076,-0.182 -0.174,-0.182Z" style="fill:#fff;fill-rule:nonzero;"/></g><g transform="matrix(16,0,0,16,-48.7834,-13.7561)"><path d="M0.295,-0.504c-0.153,0 -0.266,0.11 -0.266,0.259c0,0.148 0.113,0.258 0.266,0.258c0.154,-0 0.266,-0.11 0.266,-0.258c0,-0.149 -0.112,-0.259 -0.266,-0.259Zm-0,0.146c0.062,-0 0.107,0.046 0.107,0.113c-0,0.066 -0.045,0.112 -0.107,0.112c-0.061,0 -0.106,-0.046 -0.106,-0.112c-0,-0.067 0.045,-0.113 0.106,-0.113Z" style="fill:#fff;fill-rule:nonzero;"/></g><g transform="matrix(16,0,0,16,-39.4154,-13.7561)"><path d="M0.432,-0.49l-0.168,-0l0,-0.143l-0.156,-0l0,0.143l-0.091,-0l-0,0.138l0.091,-0l0,0.164c0,0.123 0.06,0.201 0.191,0.201c0.079,-0 0.128,-0.023 0.174,-0.055l-0.054,-0.121c-0.025,0.014 -0.056,0.03 -0.085,0.03c-0.04,0 -0.07,-0.019 -0.07,-0.075l0,-0.144l0.168,-0l-0,-0.138Z" style="fill:#fff;fill-rule:nonzero;"/></g><g transform="matrix(16,0,0,16,-28.1754,-13.7561)"><path d="M0.432,-0.49l-0.168,-0l0,-0.143l-0.156,-0l0,0.143l-0.091,-0l-0,0.138l0.091,-0l0,0.164c0,0.123 0.06,0.201 0.191,0.201c0.079,-0 0.128,-0.023 0.174,-0.055l-0.054,-0.121c-0.025,0.014 -0.056,0.03 -0.085,0.03c-0.04,0 -0.07,-0.019 -0.07,-0.075l0,-0.144l0.168,-0l-0,-0.138Z" style="fill:#fff;fill-rule:nonzero;"/></g><g transform="matrix(16,0,0,16,-20.7034,-13.7561)"><path d="M0.549,-0.49l-0.151,-0l0,0.053c-0.029,-0.039 -0.074,-0.067 -0.141,-0.067c-0.131,0 -0.228,0.114 -0.228,0.258c0,0.145 0.097,0.259 0.228,0.259c0.067,-0 0.112,-0.028 0.141,-0.066l0,0.053l0.151,-0l0,-0.49Zm-0.254,0.132c0.061,-0 0.105,0.047 0.105,0.113c-0,0.065 -0.044,0.112 -0.105,0.112c-0.063,0 -0.105,-0.048 -0.105,-0.112c-0,-0.065 0.042,-0.113 0.105,-0.113Z" style="fill:#fff;fill-rule:nonzero;"/></g><g transform="matrix(16,0,0,16,-11.0394,-13.7561)"><path d="M0.211,-0.72l-0.156,0l0,0.72l0.156,-0l0,-0.19l0.034,0l0.121,0.19l0.189,-0l-0.182,-0.259l0.181,-0.231l-0.189,-0l-0.116,0.162l-0.038,0l0,-0.392Z" style="fill:#fff;fill-rule:nonzero;"/></g><g transform="matrix(16,0,0,16,-2.66343,-13.7561)"><path d="M0.281,-0.504c-0.15,0 -0.252,0.107 -0.252,0.261c0,0.154 0.104,0.256 0.259,0.256c0.09,-0 0.164,-0.03 0.215,-0.08l-0.1,-0.095c-0.031,0.029 -0.071,0.044 -0.107,0.044c-0.055,-0 -0.093,-0.025 -0.106,-0.079l0.333,-0c0.002,-0.011 0.003,-0.033 0.003,-0.049c-0.001,-0.153 -0.1,-0.258 -0.245,-0.258Zm0,0.133c0.046,-0 0.076,0.026 0.089,0.075l-0.179,0c0.012,-0.049 0.041,-0.075 0.09,-0.075Z" style="fill:#fff;fill-rule:nonzero;"/></g><g transform="matrix(16,0,0,16,6.21657,-13.7561)"><path d="M0.351,-0.504c-0.066,0 -0.115,0.024 -0.146,0.075l-0,-0.061l-0.15,-0l0,0.49l0.156,-0l0,-0.264c0,-0.064 0.036,-0.093 0.08,-0.093c0.049,-0 0.078,0.032 0.078,0.09l-0,0.267l0.156,-0l-0,-0.322c-0,-0.113 -0.076,-0.182 -0.174,-0.182Z" style="fill:#fff;fill-rule:nonzero;"/></g><g transform="matrix(12,0,0,12,-106.535,9.14785)"><path d="M1.069,-0.7l-0.09,0l-0.188,0.601l-0.191,-0.601l-0.1,-0l-0.192,0.601l-0.187,-0.601l-0.093,0l0.225,0.7l0.108,0l0.188,-0.584l0.187,0.584l0.109,0l0.224,-0.7Z" style="fill:#fff;fill-rule:nonzero;"/></g><g transform="matrix(12,0,0,12,-93.3714,9.14785)"><path d="M0.168,-0.72l-0.081,0l-0,0.72l0.081,-0l-0,-0.267c-0,-0.088 0.064,-0.141 0.141,-0.141c0.082,0 0.13,0.052 0.13,0.139l0,0.269l0.082,-0l-0,-0.295c-0,-0.114 -0.081,-0.19 -0.198,-0.19c-0.055,0 -0.116,0.018 -0.155,0.071l-0,-0.306Z" style="fill:#fff;fill-rule:nonzero;"/></g><g transform="matrix(12,0,0,12,-86.1414,9.14785)"><path d="M0.168,-0.475l-0.081,0l-0,0.475l0.081,-0l-0,-0.475Zm-0.041,-0.225c-0.033,-0 -0.058,0.025 -0.058,0.058c0,0.033 0.025,0.057 0.058,0.057c0.032,0 0.058,-0.024 0.058,-0.057c-0,-0.033 -0.026,-0.058 -0.058,-0.058Z" style="fill:#fff;fill-rule:nonzero;"/></g><g transform="matrix(12,0,0,12,-83.0874,9.14785)"><path d="M0.297,-0.485c-0.147,0 -0.246,0.106 -0.246,0.247c-0,0.142 0.099,0.248 0.246,0.248c0.07,-0 0.133,-0.026 0.176,-0.074l-0.05,-0.057c-0.033,0.032 -0.078,0.055 -0.128,0.055c-0.092,-0 -0.161,-0.072 -0.161,-0.172c-0,-0.099 0.069,-0.17 0.161,-0.17c0.05,-0 0.091,0.019 0.126,0.053l0.052,-0.055c-0.042,-0.049 -0.106,-0.075 -0.176,-0.075Z" style="fill:#fff;fill-rule:nonzero;"/></g><g transform="matrix(12,0,0,12,-76.9374,9.14785)"><path d="M0.168,-0.72l-0.081,0l-0,0.72l0.081,-0l-0,-0.267c-0,-0.088 0.064,-0.141 0.141,-0.141c0.082,0 0.13,0.052 0.13,0.139l0,0.269l0.082,-0l-0,-0.295c-0,-0.114 -0.081,-0.19 -0.198,-0.19c-0.055,0 -0.116,0.018 -0.155,0.071l-0,-0.306Z" style="fill:#fff;fill-rule:nonzero;"/></g><g transform="matrix(12,0,0,12,-66.4974,9.14785)"><path d="M0.301,-0.485c-0.144,0 -0.25,0.106 -0.25,0.247c-0,0.142 0.106,0.248 0.25,0.248c0.145,-0 0.252,-0.106 0.252,-0.248c-0,-0.141 -0.107,-0.247 -0.252,-0.247Zm0,0.077c0.096,-0 0.168,0.071 0.168,0.17c0,0.1 -0.072,0.172 -0.168,0.172c-0.095,-0 -0.167,-0.072 -0.167,-0.172c-0,-0.099 0.072,-0.17 0.167,-0.17Z" style="fill:#fff;fill-rule:nonzero;"/></g><g transform="matrix(12,0,0,12,-59.2554,9.14785)"><path d="M0.336,-0.485c-0.076,0 -0.131,0.029 -0.168,0.073l-0,-0.063l-0.081,0l-0,0.675l0.081,-0l-0,-0.263c0.037,0.044 0.092,0.073 0.168,0.073c0.133,-0 0.237,-0.104 0.237,-0.247c-0,-0.144 -0.104,-0.248 -0.237,-0.248Zm-0.01,0.077c0.097,-0 0.163,0.076 0.163,0.17c0,0.095 -0.064,0.172 -0.163,0.172c-0.096,-0 -0.163,-0.074 -0.163,-0.172c-0,-0.097 0.067,-0.17 0.163,-0.17Z" style="fill:#fff;fill-rule:nonzero;"/></g><g transform="matrix(12,0,0,12,-51.8334,9.14785)"><path d="M0.409,-0.475l-0.2,0l0,-0.149l-0.081,0l-0,0.149l-0.102,0l0,0.074l0.102,0l-0,0.234c-0,0.121 0.061,0.177 0.164,0.177c0.058,-0 0.106,-0.021 0.142,-0.047l-0.038,-0.061c-0.027,0.018 -0.062,0.032 -0.097,0.032c-0.052,-0 -0.09,-0.031 -0.09,-0.103l0,-0.232l0.2,0l-0,-0.074Z" style="fill:#fff;fill-rule:nonzero;"/></g><g transform="matrix(12,0,0,12,-46.3914,9.14785)"><path d="M0.168,-0.475l-0.081,0l-0,0.475l0.081,-0l-0,-0.475Zm-0.041,-0.225c-0.033,-0 -0.058,0.025 -0.058,0.058c0,0.033 0.025,0.057 0.058,0.057c0.032,0 0.058,-0.024 0.058,-0.057c-0,-0.033 -0.026,-0.058 -0.058,-0.058Z" style="fill:#fff;fill-rule:nonzero;"/></g><g transform="matrix(12,0,0,12,-43.3374,9.14785)"><path d="M0.301,-0.485c-0.144,0 -0.25,0.106 -0.25,0.247c-0,0.142 0.106,0.248 0.25,0.248c0.145,-0 0.252,-0.106 0.252,-0.248c-0,-0.141 -0.107,-0.247 -0.252,-0.247Zm0,0.077c0.096,-0 0.168,0.071 0.168,0.17c0,0.1 -0.072,0.172 -0.168,0.172c-0.095,-0 -0.167,-0.072 -0.167,-0.172c-0,-0.099 0.072,-0.17 0.167,-0.17Z" style="fill:#fff;fill-rule:nonzero;"/></g><g transform="matrix(12,0,0,12,-36.0954,9.14785)"><path d="M0.323,-0.485c-0.055,0 -0.117,0.019 -0.156,0.072l0,-0.062l-0.08,0l-0,0.475l0.081,-0l-0,-0.266c-0,-0.089 0.064,-0.142 0.141,-0.142c0.082,0 0.13,0.052 0.13,0.139l0,0.269l0.082,-0l-0,-0.295c-0,-0.114 -0.081,-0.19 -0.198,-0.19Z" style="fill:#fff;fill-rule:nonzero;"/></g><g transform="matrix(12,0,0,12,-28.8654,9.14785)"><path d="M0.442,-0.433c-0.046,-0.031 -0.114,-0.051 -0.19,-0.051c-0.115,-0 -0.19,0.054 -0.19,0.145c-0,0.072 0.051,0.121 0.157,0.134l0.056,0.006c0.064,0.008 0.095,0.03 0.095,0.065c0,0.047 -0.048,0.073 -0.126,0.073c-0.08,-0 -0.127,-0.023 -0.162,-0.051l-0.038,0.061c0.062,0.047 0.141,0.061 0.199,0.061c0.13,-0 0.211,-0.058 0.211,-0.149c-0,-0.078 -0.059,-0.121 -0.16,-0.135l-0.056,-0.007c-0.057,-0.007 -0.092,-0.024 -0.092,-0.062c0,-0.043 0.042,-0.071 0.107,-0.071c0.063,0 0.124,0.024 0.154,0.044l0.035,-0.063Z" style="fill:#fff;fill-rule:nonzero;"/></g><g transform="matrix(12,0,0,12,-19.7814,9.14785)"><path d="M0.471,-0.475l-0.093,0l-0.135,0.388l-0.135,-0.388l-0.087,0l0.171,0.475l0.096,-0l0.135,-0.386l0.136,0.386l0.098,-0l0.171,-0.475l-0.086,0l-0.135,0.389l-0.136,-0.389Z" style="fill:#fff;fill-rule:nonzero;"/></g><g transform="matrix(12,0,0,12,-9.59943,9.14785)"><path d="M0.287,-0.485c-0.137,0 -0.236,0.101 -0.236,0.247c-0,0.149 0.099,0.248 0.241,0.248c0.07,-0 0.136,-0.017 0.194,-0.072l-0.043,-0.056c-0.04,0.035 -0.091,0.057 -0.146,0.057c-0.082,-0 -0.151,-0.049 -0.162,-0.148l0.373,0c0.001,-0.009 0.002,-0.02 0.002,-0.03c-0.001,-0.146 -0.094,-0.246 -0.223,-0.246Zm-0.002,0.072c0.077,0 0.132,0.054 0.142,0.139l-0.291,-0c0.012,-0.082 0.065,-0.139 0.149,-0.139Z" style="fill:#fff;fill-rule:nonzero;"/></g><g transform="matrix(12,0,0,12,-2.87343,9.14785)"><path d="M0.306,-0.485c-0.057,0 -0.106,0.026 -0.139,0.072l-0,-0.062l-0.08,0l-0,0.475l0.081,-0l-0,-0.264c-0,-0.088 0.051,-0.144 0.123,-0.144c0.027,0 0.059,0.007 0.082,0.019l0.02,-0.08c-0.026,-0.011 -0.053,-0.016 -0.087,-0.016Z" style="fill:#fff;fill-rule:nonzero;"/></g><g transform="matrix(12,0,0,12,1.91457,9.14785)"><path d="M0.287,-0.485c-0.137,0 -0.236,0.101 -0.236,0.247c-0,0.149 0.099,0.248 0.241,0.248c0.07,-0 0.136,-0.017 0.194,-0.072l-0.043,-0.056c-0.04,0.035 -0.091,0.057 -0.146,0.057c-0.082,-0 -0.151,-0.049 -0.162,-0.148l0.373,0c0.001,-0.009 0.002,-0.02 0.002,-0.03c-0.001,-0.146 -0.094,-0.246 -0.223,-0.246Zm-0.002,0.072c0.077,0 0.132,0.054 0.142,0.139l-0.291,-0c0.012,-0.082 0.065,-0.139 0.149,-0.139Z" style="fill:#fff;fill-rule:nonzero;"/></g><g transform="matrix(12,0,0,12,11.8506,9.14785)"><path d="M0.288,-0.485c-0.134,0 -0.237,0.104 -0.237,0.247c-0,0.144 0.103,0.248 0.237,0.248c0.075,-0 0.13,-0.029 0.168,-0.073l-0,0.063l0.081,-0l0,-0.72l-0.081,0l-0,0.309c-0.038,-0.045 -0.093,-0.074 -0.168,-0.074Zm0.01,0.077c0.096,-0 0.163,0.073 0.163,0.17c-0,0.098 -0.067,0.172 -0.163,0.172c-0.098,-0 -0.164,-0.077 -0.164,-0.172c-0,-0.094 0.064,-0.17 0.164,-0.17Z" style="fill:#fff;fill-rule:nonzero;"/></g><g transform="matrix(12,0,0,12,19.3386,9.14785)"><path d="M0.287,-0.485c-0.137,0 -0.236,0.101 -0.236,0.247c-0,0.149 0.099,0.248 0.241,0.248c0.07,-0 0.136,-0.017 0.194,-0.072l-0.043,-0.056c-0.04,0.035 -0.091,0.057 -0.146,0.057c-0.082,-0 -0.151,-0.049 -0.162,-0.148l0.373,0c0.001,-0.009 0.002,-0.02 0.002,-0.03c-0.001,-0.146 -0.094,-0.246 -0.223,-0.246Zm-0.002,0.072c0.077,0 0.132,0.054 0.142,0.139l-0.291,-0c0.012,-0.082 0.065,-0.139 0.149,-0.139Z" style="fill:#fff;fill-rule:nonzero;"/></g><g transform="matrix(12,0,0,12,26.0646,9.14785)"><rect x="0.087" y="-0.72" width="0.081" height="0.72" style="fill:#fff;fill-rule:nonzero;"/></g><g transform="matrix(12,0,0,12,29.1186,9.14785)"><path d="M0.168,-0.475l-0.081,0l-0,0.475l0.081,-0l-0,-0.475Zm-0.041,-0.225c-0.033,-0 -0.058,0.025 -0.058,0.058c0,0.033 0.025,0.057 0.058,0.057c0.032,0 0.058,-0.024 0.058,-0.057c-0,-0.033 -0.026,-0.058 -0.058,-0.058Z" style="fill:#fff;fill-rule:nonzero;"/></g><g transform="matrix(12,0,0,12,32.1726,9.14785)"><path d="M0.336,-0.485c-0.076,0 -0.131,0.029 -0.168,0.073l-0,-0.308l-0.081,0l-0,0.72l0.081,-0l-0,-0.064c0.037,0.045 0.092,0.074 0.168,0.074c0.133,-0 0.237,-0.104 0.237,-0.248c-0,-0.143 -0.104,-0.247 -0.237,-0.247Zm-0.01,0.077c0.097,-0 0.163,0.076 0.163,0.17c0,0.095 -0.064,0.172 -0.163,0.172c-0.096,-0 -0.163,-0.074 -0.163,-0.172c-0,-0.097 0.067,-0.17 0.163,-0.17Z" style="fill:#fff;fill-rule:nonzero;"/></g><g transform="matrix(12,0,0,12,39.6546,9.14785)"><path d="M0.287,-0.485c-0.137,0 -0.236,0.101 -0.236,0.247c-0,0.149 0.099,0.248 0.241,0.248c0.07,-0 0.136,-0.017 0.194,-0.072l-0.043,-0.056c-0.04,0.035 -0.091,0.057 -0.146,0.057c-0.082,-0 -0.151,-0.049 -0.162,-0.148l0.373,0c0.001,-0.009 0.002,-0.02 0.002,-0.03c-0.001,-0.146 -0.094,-0.246 -0.223,-0.246Zm-0.002,0.072c0.077,0 0.132,0.054 0.142,0.139l-0.291,-0c0.012,-0.082 0.065,-0.139 0.149,-0.139Z" style="fill:#fff;fill-rule:nonzero;"/></g><g transform="matrix(12,0,0,12,46.3806,9.14785)"><path d="M0.306,-0.485c-0.057,0 -0.106,0.026 -0.139,0.072l-0,-0.062l-0.08,0l-0,0.475l0.081,-0l-0,-0.264c-0,-0.088 0.051,-0.144 0.123,-0.144c0.027,0 0.059,0.007 0.082,0.019l0.02,-0.08c-0.026,-0.011 -0.053,-0.016 -0.087,-0.016Z" style="fill:#fff;fill-rule:nonzero;"/></g><g transform="matrix(12,0,0,12,51.1686,9.14785)"><path d="M0.537,-0.475l-0.081,0l-0,0.064c-0.038,-0.045 -0.093,-0.074 -0.168,-0.074c-0.134,0 -0.237,0.104 -0.237,0.247c-0,0.144 0.103,0.248 0.237,0.248c0.075,-0 0.13,-0.029 0.168,-0.073l-0,0.063l0.081,-0l0,-0.475Zm-0.239,0.067c0.096,-0 0.163,0.073 0.163,0.17c-0,0.098 -0.067,0.172 -0.163,0.172c-0.098,-0 -0.164,-0.077 -0.164,-0.172c-0,-0.094 0.064,-0.17 0.164,-0.17Z" style="fill:#fff;fill-rule:nonzero;"/></g><g transform="matrix(12,0,0,12,58.6566,9.14785)"><path d="M0.409,-0.475l-0.2,0l0,-0.149l-0.081,0l-0,0.149l-0.102,0l0,0.074l0.102,0l-0,0.234c-0,0.121 0.061,0.177 0.164,0.177c0.058,-0 0.106,-0.021 0.142,-0.047l-0.038,-0.061c-0.027,0.018 -0.062,0.032 -0.097,0.032c-0.052,-0 -0.09,-0.031 -0.09,-0.103l0,-0.232l0.2,0l-0,-0.074Z" style="fill:#fff;fill-rule:nonzero;"/></g><g transform="matrix(12,0,0,12,64.0866,9.14785)"><path d="M0.287,-0.485c-0.137,0 -0.236,0.101 -0.236,0.247c-0,0.149 0.099,0.248 0.241,0.248c0.07,-0 0.136,-0.017 0.194,-0.072l-0.043,-0.056c-0.04,0.035 -0.091,0.057 -0.146,0.057c-0.082,-0 -0.151,-0.049 -0.162,-0.148l0.373,0c0.001,-0.009 0.002,-0.02 0.002,-0.03c-0.001,-0.146 -0.094,-0.246 -0.223,-0.246Zm-0.002,0.072c0.077,0 0.132,0.054 0.142,0.139l-0.291,-0c0.012,-0.082 0.065,-0.139 0.149,-0.139Z" style="fill:#fff;fill-rule:nonzero;"/></g><g transform="matrix(12,0,0,12,70.8126,9.14785)"><rect x="0.087" y="-0.72" width="0.081" height="0.72" style="fill:#fff;fill-rule:nonzero;"/></g><g transform="matrix(12,0,0,12,73.8666,9.14785)"><path d="M0.525,-0.475l-0.09,0l-0.163,0.292l-0.171,-0.292l-0.091,0l0.217,0.373l-0.176,0.304l0.09,0l0.384,-0.677Z" style="fill:#fff;fill-rule:nonzero;"/></g><g transform="matrix(12,0,0,12,83.1906,9.14785)"><path d="M0.323,-0.485c-0.055,0 -0.117,0.019 -0.156,0.072l0,-0.062l-0.08,0l-0,0.475l0.081,-0l-0,-0.266c-0,-0.089 0.064,-0.142 0.141,-0.142c0.082,0 0.13,0.052 0.13,0.139l0,0.269l0.082,-0l-0,-0.295c-0,-0.114 -0.081,-0.19 -0.198,-0.19Z" style="fill:#fff;fill-rule:nonzero;"/></g><g transform="matrix(12,0,0,12,90.4206,9.14785)"><path d="M0.301,-0.485c-0.144,0 -0.25,0.106 -0.25,0.247c-0,0.142 0.106,0.248 0.25,0.248c0.145,-0 0.252,-0.106 0.252,-0.248c-0,-0.141 -0.107,-0.247 -0.252,-0.247Zm0,0.077c0.096,-0 0.168,0.071 0.168,0.17c0,0.1 -0.072,0.172 -0.168,0.172c-0.095,-0 -0.167,-0.072 -0.167,-0.172c-0,-0.099 0.072,-0.17 0.167,-0.17Z" style="fill:#fff;fill-rule:nonzero;"/></g><g transform="matrix(12,0,0,12,97.6026,9.14785)"><path d="M0.409,-0.475l-0.2,0l0,-0.149l-0.081,0l-0,0.149l-0.102,0l0,0.074l0.102,0l-0,0.234c-0,0.121 0.061,0.177 0.164,0.177c0.058,-0 0.106,-0.021 0.142,-0.047l-0.038,-0.061c-0.027,0.018 -0.062,0.032 -0.097,0.032c-0.052,-0 -0.09,-0.031 -0.09,-0.103l0,-0.232l0.2,0l-0,-0.074Z" style="fill:#fff;fill-rule:nonzero;"/></g><g transform="matrix(12,0,0,12,-106.535,23.5478)"><path d="M0.336,-0.485c-0.076,0 -0.131,0.029 -0.168,0.073l-0,-0.063l-0.081,0l-0,0.675l0.081,-0l-0,-0.263c0.037,0.044 0.092,0.073 0.168,0.073c0.133,-0 0.237,-0.104 0.237,-0.247c-0,-0.144 -0.104,-0.248 -0.237,-0.248Zm-0.01,0.077c0.097,-0 0.163,0.076 0.163,0.17c0,0.095 -0.064,0.172 -0.163,0.172c-0.096,-0 -0.163,-0.074 -0.163,-0.172c-0,-0.097 0.067,-0.17 0.163,-0.17Z" style="fill:#fff;fill-rule:nonzero;"/></g><g transform="matrix(12,0,0,12,-99.0534,23.5478)"><path d="M0.515,-0.475l-0.082,0l0,0.269c0,0.097 -0.057,0.14 -0.135,0.14c-0.077,-0 -0.135,-0.043 -0.135,-0.14l0,-0.269l-0.081,0l-0,0.276c-0,0.144 0.102,0.209 0.216,0.209c0.114,-0 0.217,-0.065 0.217,-0.209l-0,-0.276Z" style="fill:#fff;fill-rule:nonzero;"/></g><g transform="matrix(12,0,0,12,-91.8954,23.5478)"><path d="M0.306,-0.485c-0.057,0 -0.106,0.026 -0.139,0.072l-0,-0.062l-0.08,0l-0,0.475l0.081,-0l-0,-0.264c-0,-0.088 0.051,-0.144 0.123,-0.144c0.027,0 0.059,0.007 0.082,0.019l0.02,-0.08c-0.026,-0.011 -0.053,-0.016 -0.087,-0.016Z" style="fill:#fff;fill-rule:nonzero;"/></g><g transform="matrix(12,0,0,12,-86.9694,23.5478)"><path d="M0.442,-0.433c-0.046,-0.031 -0.114,-0.051 -0.19,-0.051c-0.115,-0 -0.19,0.054 -0.19,0.145c-0,0.072 0.051,0.121 0.157,0.134l0.056,0.006c0.064,0.008 0.095,0.03 0.095,0.065c0,0.047 -0.048,0.073 -0.126,0.073c-0.08,-0 -0.127,-0.023 -0.162,-0.051l-0.038,0.061c0.062,0.047 0.141,0.061 0.199,0.061c0.13,-0 0.211,-0.058 0.211,-0.149c-0,-0.078 -0.059,-0.121 -0.16,-0.135l-0.056,-0.007c-0.057,-0.007 -0.092,-0.024 -0.092,-0.062c0,-0.043 0.042,-0.071 0.107,-0.071c0.063,0 0.124,0.024 0.154,0.044l0.035,-0.063Z" style="fill:#fff;fill-rule:nonzero;"/></g><g transform="matrix(12,0,0,12,-81.0054,23.5478)"><path d="M0.515,-0.475l-0.082,0l0,0.269c0,0.097 -0.057,0.14 -0.135,0.14c-0.077,-0 -0.135,-0.043 -0.135,-0.14l0,-0.269l-0.081,0l-0,0.276c-0,0.144 0.102,0.209 0.216,0.209c0.114,-0 0.217,-0.065 0.217,-0.209l-0,-0.276Z" style="fill:#fff;fill-rule:nonzero;"/></g><g transform="matrix(12,0,0,12,-73.8474,23.5478)"><path d="M0.287,-0.485c-0.137,0 -0.236,0.101 -0.236,0.247c-0,0.149 0.099,0.248 0.241,0.248c0.07,-0 0.136,-0.017 0.194,-0.072l-0.043,-0.056c-0.04,0.035 -0.091,0.057 -0.146,0.057c-0.082,-0 -0.151,-0.049 -0.162,-0.148l0.373,0c0.001,-0.009 0.002,-0.02 0.002,-0.03c-0.001,-0.146 -0.094,-0.246 -0.223,-0.246Zm-0.002,0.072c0.077,0 0.132,0.054 0.142,0.139l-0.291,-0c0.012,-0.082 0.065,-0.139 0.149,-0.139Z" style="fill:#fff;fill-rule:nonzero;"/></g><g transform="matrix(12,0,0,12,-67.1214,23.5478)"><path d="M0.288,-0.485c-0.134,0 -0.237,0.104 -0.237,0.247c-0,0.144 0.103,0.248 0.237,0.248c0.075,-0 0.13,-0.029 0.168,-0.073l-0,0.063l0.081,-0l0,-0.72l-0.081,0l-0,0.309c-0.038,-0.045 -0.093,-0.074 -0.168,-0.074Zm0.01,0.077c0.096,-0 0.163,0.073 0.163,0.17c-0,0.098 -0.067,0.172 -0.163,0.172c-0.098,-0 -0.164,-0.077 -0.164,-0.172c-0,-0.094 0.064,-0.17 0.164,-0.17Z" style="fill:#fff;fill-rule:nonzero;"/></g><g transform="matrix(12,0,0,12,-59.6334,23.5478)"><path d="M0.177,-0.225l0.004,-0.082c0.145,-0.016 0.226,-0.088 0.226,-0.205c0,-0.122 -0.099,-0.201 -0.262,-0.201c-0.026,0 -0.06,0.003 -0.082,0.006l0.007,0.084c0.019,-0.002 0.045,-0.004 0.071,-0.004c0.109,-0 0.175,0.044 0.175,0.118c0,0.08 -0.065,0.127 -0.178,0.127l-0.035,-0l0,0.157l0.074,0Zm-0.037,0.098c-0.036,0 -0.068,0.032 -0.068,0.068c-0,0.037 0.032,0.069 0.068,0.069c0.036,-0 0.068,-0.032 0.068,-0.069c-0,-0.036 -0.032,-0.068 -0.068,-0.068Z" style="fill:#fff;fill-rule:nonzero;"/></g><g transform="matrix(12,0,0,12,-51.3354,23.5478)"><path d="M1.069,-0.7l-0.09,0l-0.188,0.601l-0.191,-0.601l-0.1,-0l-0.192,0.601l-0.187,-0.601l-0.093,0l0.225,0.7l0.108,0l0.188,-0.584l0.187,0.584l0.109,0l0.224,-0.7Z" style="fill:#fff;fill-rule:nonzero;"/></g><g transform="matrix(12,0,0,12,-38.5314,23.5478)"><path d="M0.306,-0.485c-0.057,0 -0.106,0.026 -0.139,0.072l-0,-0.062l-0.08,0l-0,0.475l0.081,-0l-0,-0.264c-0,-0.088 0.051,-0.144 0.123,-0.144c0.027,0 0.059,0.007 0.082,0.019l0.02,-0.08c-0.026,-0.011 -0.053,-0.016 -0.087,-0.016Z" style="fill:#fff;fill-rule:nonzero;"/></g><g transform="matrix(12,0,0,12,-33.5034,23.5478)"><path d="M0.168,-0.475l-0.081,0l-0,0.475l0.081,-0l-0,-0.475Zm-0.041,-0.225c-0.033,-0 -0.058,0.025 -0.058,0.058c0,0.033 0.025,0.057 0.058,0.057c0.032,0 0.058,-0.024 0.058,-0.057c-0,-0.033 -0.026,-0.058 -0.058,-0.058Z" style="fill:#fff;fill-rule:nonzero;"/></g><g transform="matrix(12,0,0,12,-30.4494,23.5478)"><path d="M0.409,-0.475l-0.2,0l0,-0.149l-0.081,0l-0,0.149l-0.102,0l0,0.074l0.102,0l-0,0.234c-0,0.121 0.061,0.177 0.164,0.177c0.058,-0 0.106,-0.021 0.142,-0.047l-0.038,-0.061c-0.027,0.018 -0.062,0.032 -0.097,0.032c-0.052,-0 -0.09,-0.031 -0.09,-0.103l0,-0.232l0.2,0l-0,-0.074Z" style="fill:#fff;fill-rule:nonzero;"/></g><g transform="matrix(12,0,0,12,-25.0194,23.5478)"><path d="M0.287,-0.485c-0.137,0 -0.236,0.101 -0.236,0.247c-0,0.149 0.099,0.248 0.241,0.248c0.07,-0 0.136,-0.017 0.194,-0.072l-0.043,-0.056c-0.04,0.035 -0.091,0.057 -0.146,0.057c-0.082,-0 -0.151,-0.049 -0.162,-0.148l0.373,0c0.001,-0.009 0.002,-0.02 0.002,-0.03c-0.001,-0.146 -0.094,-0.246 -0.223,-0.246Zm-0.002,0.072c0.077,0 0.132,0.054 0.142,0.139l-0.291,-0c0.012,-0.082 0.065,-0.139 0.149,-0.139Z" style="fill:#fff;fill-rule:nonzero;"/></g><g transform="matrix(12,0,0,12,-15.1734,23.5478)"><path d="M0.409,-0.475l-0.2,0l0,-0.149l-0.081,0l-0,0.149l-0.102,0l0,0.074l0.102,0l-0,0.234c-0,0.121 0.061,0.177 0.164,0.177c0.058,-0 0.106,-0.021 0.142,-0.047l-0.038,-0.061c-0.027,0.018 -0.062,0.032 -0.097,0.032c-0.052,-0 -0.09,-0.031 -0.09,-0.103l0,-0.232l0.2,0l-0,-0.074Z" style="fill:#fff;fill-rule:nonzero;"/></g><g transform="matrix(12,0,0,12,-9.73143,23.5478)"><path d="M0.168,-0.72l-0.081,0l-0,0.72l0.081,-0l-0,-0.267c-0,-0.088 0.064,-0.141 0.141,-0.141c0.082,0 0.13,0.052 0.13,0.139l0,0.269l0.082,-0l-0,-0.295c-0,-0.114 -0.081,-0.19 -0.198,-0.19c-0.055,0 -0.116,0.018 -0.155,0.071l-0,-0.306Z" style="fill:#fff;fill-rule:nonzero;"/></g><g transform="matrix(12,0,0,12,-2.50143,23.5478)"><path d="M0.287,-0.485c-0.137,0 -0.236,0.101 -0.236,0.247c-0,0.149 0.099,0.248 0.241,0.248c0.07,-0 0.136,-0.017 0.194,-0.072l-0.043,-0.056c-0.04,0.035 -0.091,0.057 -0.146,0.057c-0.082,-0 -0.151,-0.049 -0.162,-0.148l0.373,0c0.001,-0.009 0.002,-0.02 0.002,-0.03c-0.001,-0.146 -0.094,-0.246 -0.223,-0.246Zm-0.002,0.072c0.077,0 0.132,0.054 0.142,0.139l-0.291,-0c0.012,-0.082 0.065,-0.139 0.149,-0.139Z" style="fill:#fff;fill-rule:nonzero;"/></g><g transform="matrix(12,0,0,12,4.22457,23.5478)"><path d="M0.676,-0.485c-0.065,0 -0.139,0.024 -0.178,0.095c-0.031,-0.059 -0.094,-0.095 -0.175,-0.095c-0.055,0 -0.117,0.019 -0.156,0.072l0,-0.062l-0.08,0l-0,0.475l0.081,-0l-0,-0.266c-0,-0.089 0.064,-0.142 0.141,-0.142c0.082,0 0.13,0.052 0.13,0.139l0,0.269l0.082,-0l-0,-0.267c-0,-0.086 0.061,-0.141 0.14,-0.141c0.083,0 0.131,0.052 0.131,0.139l-0,0.269l0.081,-0l0,-0.295c0,-0.114 -0.08,-0.19 -0.197,-0.19Z" style="fill:#fff;fill-rule:nonzero;"/></g><g transform="matrix(12,0,0,12,18.8946,23.5478)"><path d="M0.168,-0.475l-0.081,0l-0,0.475l0.081,-0l-0,-0.475Zm-0.041,-0.225c-0.033,-0 -0.058,0.025 -0.058,0.058c0,0.033 0.025,0.057 0.058,0.057c0.032,0 0.058,-0.024 0.058,-0.057c-0,-0.033 -0.026,-0.058 -0.058,-0.058Z" style="fill:#fff;fill-rule:nonzero;"/></g><g transform="matrix(12,0,0,12,21.9486,23.5478)"><path d="M0.323,-0.485c-0.055,0 -0.117,0.019 -0.156,0.072l0,-0.062l-0.08,0l-0,0.475l0.081,-0l-0,-0.266c-0,-0.089 0.064,-0.142 0.141,-0.142c0.082,0 0.13,0.052 0.13,0.139l0,0.269l0.082,-0l-0,-0.295c-0,-0.114 -0.081,-0.19 -0.198,-0.19Z" style="fill:#fff;fill-rule:nonzero;"/></g><g transform="matrix(12,0,0,12,29.1006,23.5478)"><path d="M0.409,-0.475l-0.2,0l0,-0.149l-0.081,0l-0,0.149l-0.102,0l0,0.074l0.102,0l-0,0.234c-0,0.121 0.061,0.177 0.164,0.177c0.058,-0 0.106,-0.021 0.142,-0.047l-0.038,-0.061c-0.027,0.018 -0.062,0.032 -0.097,0.032c-0.052,-0 -0.09,-0.031 -0.09,-0.103l0,-0.232l0.2,0l-0,-0.074Z" style="fill:#fff;fill-rule:nonzero;"/></g><g transform="matrix(12,0,0,12,34.5306,23.5478)"><path d="M0.301,-0.485c-0.144,0 -0.25,0.106 -0.25,0.247c-0,0.142 0.106,0.248 0.25,0.248c0.145,-0 0.252,-0.106 0.252,-0.248c-0,-0.141 -0.107,-0.247 -0.252,-0.247Zm0,0.077c0.096,-0 0.168,0.071 0.168,0.17c0,0.1 -0.072,0.172 -0.168,0.172c-0.095,-0 -0.167,-0.072 -0.167,-0.172c-0,-0.099 0.072,-0.17 0.167,-0.17Z" style="fill:#fff;fill-rule:nonzero;"/></g><g transform="matrix(12,0,0,12,44.8926,23.5478)"><path d="M0.409,-0.475l-0.2,0l0,-0.149l-0.081,0l-0,0.149l-0.102,0l0,0.074l0.102,0l-0,0.234c-0,0.121 0.061,0.177 0.164,0.177c0.058,-0 0.106,-0.021 0.142,-0.047l-0.038,-0.061c-0.027,0.018 -0.062,0.032 -0.097,0.032c-0.052,-0 -0.09,-0.031 -0.09,-0.103l0,-0.232l0.2,0l-0,-0.074Z" style="fill:#fff;fill-rule:nonzero;"/></g><g transform="matrix(12,0,0,12,50.3346,23.5478)"><path d="M0.168,-0.72l-0.081,0l-0,0.72l0.081,-0l-0,-0.267c-0,-0.088 0.064,-0.141 0.141,-0.141c0.082,0 0.13,0.052 0.13,0.139l0,0.269l0.082,-0l-0,-0.295c-0,-0.114 -0.081,-0.19 -0.198,-0.19c-0.055,0 -0.116,0.018 -0.155,0.071l-0,-0.306Z" style="fill:#fff;fill-rule:nonzero;"/></g><g transform="matrix(12,0,0,12,57.5646,23.5478)"><path d="M0.287,-0.485c-0.137,0 -0.236,0.101 -0.236,0.247c-0,0.149 0.099,0.248 0.241,0.248c0.07,-0 0.136,-0.017 0.194,-0.072l-0.043,-0.056c-0.04,0.035 -0.091,0.057 -0.146,0.057c-0.082,-0 -0.151,-0.049 -0.162,-0.148l0.373,0c0.001,-0.009 0.002,-0.02 0.002,-0.03c-0.001,-0.146 -0.094,-0.246 -0.223,-0.246Zm-0.002,0.072c0.077,0 0.132,0.054 0.142,0.139l-0.291,-0c0.012,-0.082 0.065,-0.139 0.149,-0.139Z" style="fill:#fff;fill-rule:nonzero;"/></g><g transform="matrix(12,0,0,12,67.5006,23.5478)"><path d="M0.442,-0.433c-0.046,-0.031 -0.114,-0.051 -0.19,-0.051c-0.115,-0 -0.19,0.054 -0.19,0.145c-0,0.072 0.051,0.121 0.157,0.134l0.056,0.006c0.064,0.008 0.095,0.03 0.095,0.065c0,0.047 -0.048,0.073 -0.126,0.073c-0.08,-0 -0.127,-0.023 -0.162,-0.051l-0.038,0.061c0.062,0.047 0.141,0.061 0.199,0.061c0.13,-0 0.211,-0.058 0.211,-0.149c-0,-0.078 -0.059,-0.121 -0.16,-0.135l-0.056,-0.007c-0.057,-0.007 -0.092,-0.024 -0.092,-0.062c0,-0.043 0.042,-0.071 0.107,-0.071c0.063,0 0.124,0.024 0.154,0.044l0.035,-0.063Z" style="fill:#fff;fill-rule:nonzero;"/></g><g transform="matrix(12,0,0,12,73.4646,23.5478)"><path d="M0.168,-0.475l-0.081,0l-0,0.475l0.081,-0l-0,-0.475Zm-0.041,-0.225c-0.033,-0 -0.058,0.025 -0.058,0.058c0,0.033 0.025,0.057 0.058,0.057c0.032,0 0.058,-0.024 0.058,-0.057c-0,-0.033 -0.026,-0.058 -0.058,-0.058Z" style="fill:#fff;fill-rule:nonzero;"/></g><g transform="matrix(12,0,0,12,76.5186,23.5478)"><path d="M0.285,-0.485c-0.133,0 -0.234,0.099 -0.234,0.244c-0,0.145 0.101,0.243 0.234,0.243c0.074,0 0.128,-0.028 0.164,-0.073l0,0.041c0,0.106 -0.068,0.164 -0.171,0.164c-0.061,-0 -0.118,-0.021 -0.163,-0.053l-0.035,0.066c0.048,0.038 0.124,0.061 0.198,0.061c0.151,-0 0.253,-0.087 0.253,-0.241l-0,-0.442l-0.082,0l0,0.065c-0.036,-0.046 -0.09,-0.075 -0.164,-0.075Zm0.01,0.077c0.095,-0 0.161,0.072 0.161,0.167c0,0.095 -0.066,0.167 -0.161,0.167c-0.098,-0 -0.161,-0.075 -0.161,-0.167c-0,-0.092 0.063,-0.167 0.161,-0.167Z" style="fill:#fff;fill-rule:nonzero;"/></g><g transform="matrix(12,0,0,12,83.9286,23.5478)"><path d="M0.323,-0.485c-0.055,0 -0.117,0.019 -0.156,0.072l0,-0.062l-0.08,0l-0,0.475l0.081,-0l-0,-0.266c-0,-0.089 0.064,-0.142 0.141,-0.142c0.082,0 0.13,0.052 0.13,0.139l0,0.269l0.082,-0l-0,-0.295c-0,-0.114 -0.081,-0.19 -0.198,-0.19Z" style="fill:#fff;fill-rule:nonzero;"/></g><g transform="matrix(12,0,0,12,91.1586,23.5478)"><path d="M0.336,-0.485c-0.076,0 -0.131,0.029 -0.168,0.073l-0,-0.063l-0.081,0l-0,0.675l0.081,-0l-0,-0.263c0.037,0.044 0.092,0.073 0.168,0.073c0.133,-0 0.237,-0.104 0.237,-0.247c-0,-0.144 -0.104,-0.248 -0.237,-0.248Zm-0.01,0.077c0.097,-0 0.163,0.076 0.163,0.17c0,0.095 -0.064,0.172 -0.163,0.172c-0.096,-0 -0.163,-0.074 -0.163,-0.172c-0,-0.097 0.067,-0.17 0.163,-0.17Z" style="fill:#fff;fill-rule:nonzero;"/></g><g transform="matrix(12,0,0,12,98.6406,23.5478)"><path d="M0.301,-0.485c-0.144,0 -0.25,0.106 -0.25,0.247c-0,0.142 0.106,0.248 0.25,0.248c0.145,-0 0.252,-0.106 0.252,-0.248c-0,-0.141 -0.107,-0.247 -0.252,-0.247Zm0,0.077c0.096,-0 0.168,0.071 0.168,0.17c0,0.1 -0.072,0.172 -0.168,0.172c-0.095,-0 -0.167,-0.072 -0.167,-0.172c-0,-0.099 0.072,-0.17 0.167,-0.17Z" style="fill:#fff;fill-rule:nonzero;"/></g><g transform="matrix(12,0,0,12,105.883,23.5478)"><path d="M0.442,-0.433c-0.046,-0.031 -0.114,-0.051 -0.19,-0.051c-0.115,-0 -0.19,0.054 -0.19,0.145c-0,0.072 0.051,0.121 0.157,0.134l0.056,0.006c0.064,0.008 0.095,0.03 0.095,0.065c0,0.047 -0.048,0.073 -0.126,0.073c-0.08,-0 -0.127,-0.023 -0.162,-0.051l-0.038,0.061c0.062,0.047 0.141,0.061 0.199,0.061c0.13,-0 0.211,-0.058 0.211,-0.149c-0,-0.078 -0.059,-0.121 -0.16,-0.135l-0.056,-0.007c-0.057,-0.007 -0.092,-0.024 -0.092,-0.062c0,-0.043 0.042,-0.071 0.107,-0.071c0.063,0 0.124,0.024 0.154,0.044l0.035,-0.063Z" style="fill:#fff;fill-rule:nonzero;"/></g><g transform="matrix(12,0,0,12,111.847,23.5478)"><path d="M0.409,-0.475l-0.2,0l0,-0.149l-0.081,0l-0,0.149l-0.102,0l0,0.074l0.102,0l-0,0.234c-0,0.121 0.061,0.177 0.164,0.177c0.058,-0 0.106,-0.021 0.142,-0.047l-0.038,-0.061c-0.027,0.018 -0.062,0.032 -0.097,0.032c-0.052,-0 -0.09,-0.031 -0.09,-0.103l0,-0.232l0.2,0l-0,-0.074Z" style="fill:#fff;fill-rule:nonzero;"/></g><g transform="matrix(12,0,0,12,117.289,23.5478)"><path d="M0.442,-0.433c-0.046,-0.031 -0.114,-0.051 -0.19,-0.051c-0.115,-0 -0.19,0.054 -0.19,0.145c-0,0.072 0.051,0.121 0.157,0.134l0.056,0.006c0.064,0.008 0.095,0.03 0.095,0.065c0,0.047 -0.048,0.073 -0.126,0.073c-0.08,-0 -0.127,-0.023 -0.162,-0.051l-0.038,0.061c0.062,0.047 0.141,0.061 0.199,0.061c0.13,-0 0.211,-0.058 0.211,-0.149c-0,-0.078 -0.059,-0.121 -0.16,-0.135l-0.056,-0.007c-0.057,-0.007 -0.092,-0.024 -0.092,-0.062c0,-0.043 0.042,-0.071 0.107,-0.071c0.063,0 0.124,0.024 0.154,0.044l0.035,-0.063Z" style="fill:#fff;fill-rule:nonzero;"/></g><g transform="matrix(12,0,0,12,123.253,23.5478)"><path d="M0.181,-0.7l-0.1,0l0.013,0.475l0.074,0l0.013,-0.475Zm-0.05,0.573c-0.036,-0 -0.068,0.031 -0.068,0.068c0,0.036 0.032,0.069 0.068,0.069c0.037,-0 0.068,-0.033 0.068,-0.069c0,-0.037 -0.031,-0.068 -0.068,-0.068Z" style="fill:#fff;fill-rule:nonzero;"/></g><g transform="matrix(12,0,0,12,-106.535,37.9478)"><path d="M1.069,-0.7l-0.09,0l-0.188,0.601l-0.191,-0.601l-0.1,-0l-0.192,0.601l-0.187,-0.601l-0.093,0l0.225,0.7l0.108,0l0.188,-0.584l0.187,0.584l0.109,0l0.224,-0.7Z" style="fill:#fff;fill-rule:nonzero;"/></g><g transform="matrix(12,0,0,12,-93.3714,37.9478)"><path d="M0.168,-0.72l-0.081,0l-0,0.72l0.081,-0l-0,-0.267c-0,-0.088 0.064,-0.141 0.141,-0.141c0.082,0 0.13,0.052 0.13,0.139l0,0.269l0.082,-0l-0,-0.295c-0,-0.114 -0.081,-0.19 -0.198,-0.19c-0.055,0 -0.116,0.018 -0.155,0.071l-0,-0.306Z" style="fill:#fff;fill-rule:nonzero;"/></g><g transform="matrix(12,0,0,12,-86.1414,37.9478)"><path d="M0.537,-0.475l-0.081,0l-0,0.064c-0.038,-0.045 -0.093,-0.074 -0.168,-0.074c-0.134,0 -0.237,0.104 -0.237,0.247c-0,0.144 0.103,0.248 0.237,0.248c0.075,-0 0.13,-0.029 0.168,-0.073l-0,0.063l0.081,-0l0,-0.475Zm-0.239,0.067c0.096,-0 0.163,0.073 0.163,0.17c-0,0.098 -0.067,0.172 -0.163,0.172c-0.098,-0 -0.164,-0.077 -0.164,-0.172c-0,-0.094 0.064,-0.17 0.164,-0.17Z" style="fill:#fff;fill-rule:nonzero;"/></g><g transform="matrix(12,0,0,12,-78.6534,37.9478)"><path d="M0.409,-0.475l-0.2,0l0,-0.149l-0.081,0l-0,0.149l-0.102,0l0,0.074l0.102,0l-0,0.234c-0,0.121 0.061,0.177 0.164,0.177c0.058,-0 0.106,-0.021 0.142,-0.047l-0.038,-0.061c-0.027,0.018 -0.062,0.032 -0.097,0.032c-0.052,-0 -0.09,-0.031 -0.09,-0.103l0,-0.232l0.2,0l-0,-0.074Z" style="fill:#fff;fill-rule:nonzero;"/></g><g transform="matrix(12,0,0,12,-70.0914,37.9478)"><path d="M0.471,-0.475l-0.093,0l-0.135,0.388l-0.135,-0.388l-0.087,0l0.171,0.475l0.096,-0l0.135,-0.386l0.136,0.386l0.098,-0l0.171,-0.475l-0.086,0l-0.135,0.389l-0.136,-0.389Z" style="fill:#fff;fill-rule:nonzero;"/></g><g transform="matrix(12,0,0,12,-59.9094,37.9478)"><path d="M0.287,-0.485c-0.137,0 -0.236,0.101 -0.236,0.247c-0,0.149 0.099,0.248 0.241,0.248c0.07,-0 0.136,-0.017 0.194,-0.072l-0.043,-0.056c-0.04,0.035 -0.091,0.057 -0.146,0.057c-0.082,-0 -0.151,-0.049 -0.162,-0.148l0.373,0c0.001,-0.009 0.002,-0.02 0.002,-0.03c-0.001,-0.146 -0.094,-0.246 -0.223,-0.246Zm-0.002,0.072c0.077,0 0.132,0.054 0.142,0.139l-0.291,-0c0.012,-0.082 0.065,-0.139 0.149,-0.139Z" style="fill:#fff;fill-rule:nonzero;"/></g><g transform="matrix(12,0,0,12,-53.1834,37.9478)"><path d="M0.306,-0.485c-0.057,0 -0.106,0.026 -0.139,0.072l-0,-0.062l-0.08,0l-0,0.475l0.081,-0l-0,-0.264c-0,-0.088 0.051,-0.144 0.123,-0.144c0.027,0 0.059,0.007 0.082,0.019l0.02,-0.08c-0.026,-0.011 -0.053,-0.016 -0.087,-0.016Z" style="fill:#fff;fill-rule:nonzero;"/></g><g transform="matrix(12,0,0,12,-48.3954,37.9478)"><path d="M0.287,-0.485c-0.137,0 -0.236,0.101 -0.236,0.247c-0,0.149 0.099,0.248 0.241,0.248c0.07,-0 0.136,-0.017 0.194,-0.072l-0.043,-0.056c-0.04,0.035 -0.091,0.057 -0.146,0.057c-0.082,-0 -0.151,-0.049 -0.162,-0.148l0.373,0c0.001,-0.009 0.002,-0.02 0.002,-0.03c-0.001,-0.146 -0.094,-0.246 -0.223,-0.246Zm-0.002,0.072c0.077,0 0.132,0.054 0.142,0.139l-0.291,-0c0.012,-0.082 0.065,-0.139 0.149,-0.139Z" style="fill:#fff;fill-rule:nonzero;"/></g><g transform="matrix(12,0,0,12,-38.5494,37.9478)"><path d="M0.409,-0.475l-0.2,0l0,-0.149l-0.081,0l-0,0.149l-0.102,0l0,0.074l0.102,0l-0,0.234c-0,0.121 0.061,0.177 0.164,0.177c0.058,-0 0.106,-0.021 0.142,-0.047l-0.038,-0.061c-0.027,0.018 -0.062,0.032 -0.097,0.032c-0.052,-0 -0.09,-0.031 -0.09,-0.103l0,-0.232l0.2,0l-0,-0.074Z" style="fill:#fff;fill-rule:nonzero;"/></g><g transform="matrix(12,0,0,12,-33.1074,37.9478)"><path d="M0.168,-0.72l-0.081,0l-0,0.72l0.081,-0l-0,-0.267c-0,-0.088 0.064,-0.141 0.141,-0.141c0.082,0 0.13,0.052 0.13,0.139l0,0.269l0.082,-0l-0,-0.295c-0,-0.114 -0.081,-0.19 -0.198,-0.19c-0.055,0 -0.116,0.018 -0.155,0.071l-0,-0.306Z" style="fill:#fff;fill-rule:nonzero;"/></g><g transform="matrix(12,0,0,12,-25.8774,37.9478)"><path d="M0.287,-0.485c-0.137,0 -0.236,0.101 -0.236,0.247c-0,0.149 0.099,0.248 0.241,0.248c0.07,-0 0.136,-0.017 0.194,-0.072l-0.043,-0.056c-0.04,0.035 -0.091,0.057 -0.146,0.057c-0.082,-0 -0.151,-0.049 -0.162,-0.148l0.373,0c0.001,-0.009 0.002,-0.02 0.002,-0.03c-0.001,-0.146 -0.094,-0.246 -0.223,-0.246Zm-0.002,0.072c0.077,0 0.132,0.054 0.142,0.139l-0.291,-0c0.012,-0.082 0.065,-0.139 0.149,-0.139Z" style="fill:#fff;fill-rule:nonzero;"/></g><g transform="matrix(12,0,0,12,-15.9414,37.9478)"><path d="M0.306,-0.485c-0.057,0 -0.106,0.026 -0.139,0.072l-0,-0.062l-0.08,0l-0,0.475l0.081,-0l-0,-0.264c-0,-0.088 0.051,-0.144 0.123,-0.144c0.027,0 0.059,0.007 0.082,0.019l0.02,-0.08c-0.026,-0.011 -0.053,-0.016 -0.087,-0.016Z" style="fill:#fff;fill-rule:nonzero;"/></g><g transform="matrix(12,0,0,12,-11.1534,37.9478)"><path d="M0.287,-0.485c-0.137,0 -0.236,0.101 -0.236,0.247c-0,0.149 0.099,0.248 0.241,0.248c0.07,-0 0.136,-0.017 0.194,-0.072l-0.043,-0.056c-0.04,0.035 -0.091,0.057 -0.146,0.057c-0.082,-0 -0.151,-0.049 -0.162,-0.148l0.373,0c0.001,-0.009 0.002,-0.02 0.002,-0.03c-0.001,-0.146 -0.094,-0.246 -0.223,-0.246Zm-0.002,0.072c0.077,0 0.132,0.054 0.142,0.139l-0.291,-0c0.012,-0.082 0.065,-0.139 0.149,-0.139Z" style="fill:#fff;fill-rule:nonzero;"/></g><g transform="matrix(12,0,0,12,-4.42743,37.9478)"><path d="M0.537,-0.475l-0.081,0l-0,0.064c-0.038,-0.045 -0.093,-0.074 -0.168,-0.074c-0.134,0 -0.237,0.104 -0.237,0.247c-0,0.144 0.103,0.248 0.237,0.248c0.075,-0 0.13,-0.029 0.168,-0.073l-0,0.063l0.081,-0l0,-0.475Zm-0.239,0.067c0.096,-0 0.163,0.073 0.163,0.17c-0,0.098 -0.067,0.172 -0.163,0.172c-0.098,-0 -0.164,-0.077 -0.164,-0.172c-0,-0.094 0.064,-0.17 0.164,-0.17Z" style="fill:#fff;fill-rule:nonzero;"/></g><g transform="matrix(12,0,0,12,3.06057,37.9478)"><path d="M0.442,-0.433c-0.046,-0.031 -0.114,-0.051 -0.19,-0.051c-0.115,-0 -0.19,0.054 -0.19,0.145c-0,0.072 0.051,0.121 0.157,0.134l0.056,0.006c0.064,0.008 0.095,0.03 0.095,0.065c0,0.047 -0.048,0.073 -0.126,0.073c-0.08,-0 -0.127,-0.023 -0.162,-0.051l-0.038,0.061c0.062,0.047 0.141,0.061 0.199,0.061c0.13,-0 0.211,-0.058 0.211,-0.149c-0,-0.078 -0.059,-0.121 -0.16,-0.135l-0.056,-0.007c-0.057,-0.007 -0.092,-0.024 -0.092,-0.062c0,-0.043 0.042,-0.071 0.107,-0.071c0.063,0 0.124,0.024 0.154,0.044l0.035,-0.063Z" style="fill:#fff;fill-rule:nonzero;"/></g><g transform="matrix(12,0,0,12,9.02457,37.9478)"><path d="M0.301,-0.485c-0.144,0 -0.25,0.106 -0.25,0.247c-0,0.142 0.106,0.248 0.25,0.248c0.145,-0 0.252,-0.106 0.252,-0.248c-0,-0.141 -0.107,-0.247 -0.252,-0.247Zm0,0.077c0.096,-0 0.168,0.071 0.168,0.17c0,0.1 -0.072,0.172 -0.168,0.172c-0.095,-0 -0.167,-0.072 -0.167,-0.172c-0,-0.099 0.072,-0.17 0.167,-0.17Z" style="fill:#fff;fill-rule:nonzero;"/></g><g transform="matrix(12,0,0,12,16.2666,37.9478)"><path d="M0.323,-0.485c-0.055,0 -0.117,0.019 -0.156,0.072l0,-0.062l-0.08,0l-0,0.475l0.081,-0l-0,-0.266c-0,-0.089 0.064,-0.142 0.141,-0.142c0.082,0 0.13,0.052 0.13,0.139l0,0.269l0.082,-0l-0,-0.295c-0,-0.114 -0.081,-0.19 -0.198,-0.19Z" style="fill:#fff;fill-rule:nonzero;"/></g><g transform="matrix(12,0,0,12,23.4966,37.9478)"><path d="M0.442,-0.433c-0.046,-0.031 -0.114,-0.051 -0.19,-0.051c-0.115,-0 -0.19,0.054 -0.19,0.145c-0,0.072 0.051,0.121 0.157,0.134l0.056,0.006c0.064,0.008 0.095,0.03 0.095,0.065c0,0.047 -0.048,0.073 -0.126,0.073c-0.08,-0 -0.127,-0.023 -0.162,-0.051l-0.038,0.061c0.062,0.047 0.141,0.061 0.199,0.061c0.13,-0 0.211,-0.058 0.211,-0.149c-0,-0.078 -0.059,-0.121 -0.16,-0.135l-0.056,-0.007c-0.057,-0.007 -0.092,-0.024 -0.092,-0.062c0,-0.043 0.042,-0.071 0.107,-0.071c0.063,0 0.124,0.024 0.154,0.044l0.035,-0.063Z" style="fill:#fff;fill-rule:nonzero;"/></g><g transform="matrix(12,0,0,12,29.4606,37.9478)"><path d="M0.177,-0.225l0.004,-0.082c0.145,-0.016 0.226,-0.088 0.226,-0.205c0,-0.122 -0.099,-0.201 -0.262,-0.201c-0.026,0 -0.06,0.003 -0.082,0.006l0.007,0.084c0.019,-0.002 0.045,-0.004 0.071,-0.004c0.109,-0 0.175,0.044 0.175,0.118c0,0.08 -0.065,0.127 -0.178,0.127l-0.035,-0l0,0.157l0.074,0Zm-0.037,0.098c-0.036,0 -0.068,0.032 -0.068,0.068c-0,0.037 0.032,0.069 0.068,0.069c0.036,-0 0.068,-0.032 0.068,-0.069c-0,-0.036 -0.032,-0.068 -0.068,-0.068Z" style="fill:#fff;fill-rule:nonzero;"/></g></g><path d="M78.174,281.893c-7.066,0 -12.794,4.002 -12.794,8.937l-0,53.623c-0,4.935 5.728,8.937 12.794,8.937l128.938,-0c3.453,0.001 6.759,-0.972 9.169,-2.699l37.265,-26.728c4.998,-3.489 5.001,-9.147 0.006,-12.639c-0.002,-0.001 -0.005,-0.003 -0.006,-0.004l-37.265,-26.745c-2.41,-1.727 -5.716,-2.701 -9.169,-2.699l-128.938,0.017Zm63.97,-14.174l-0,12.629m-0,-106.649l-0,20.348m-0,159.343l-0,44.685m-68.936,-204.08c-3.453,-0.002 -6.76,0.971 -9.17,2.699l-37.264,26.745c-0.002,0.001 -0.004,0.003 -0.006,0.004c-4.995,3.492 -4.992,9.15 0.006,12.639l37.264,26.728c2.41,1.727 5.717,2.7 9.17,2.699l128.938,-0c7.066,-0 12.794,-4.002 12.794,-8.937l0,-53.622c0,-4.936 -5.728,-8.937 -12.794,-8.937l-128.938,-0.018Zm4.963,-86.688c-7.066,0.606 -12.794,5.098 -12.794,10.034l-0,53.622c-0,4.936 5.728,8.446 12.794,7.84l128.938,-11.059c3.452,-0.295 6.759,-1.552 9.17,-3.486l37.264,-29.923c4.998,-3.918 5,-9.577 0.005,-12.64c-0.001,-0.001 -0.003,-0.002 -0.005,-0.003l-37.264,-23.55c-2.411,-1.52 -5.718,-2.21 -9.17,-1.912l-128.938,11.077Z" style="fill:#fff;fill-rule:nonzero;stroke:#989799;stroke-width:4px;"/><path d="M210.007,326.167l17.522,-17.522m-17.522,-0l17.522,17.522" style="fill:none;fill-rule:nonzero;stroke:#f39260;stroke-width:7px;"/><path d="M56.739,238.178l17.522,-17.522m-17.522,-0l17.522,17.522" style="fill:none;fill-rule:nonzero;stroke:#f39260;stroke-width:7px;"/><path d="M210.067,138.919l15.586,-19.257m-15.902,-0.04l16.218,19.337" style="fill:none;fill-rule:nonzero;stroke:#f39260;stroke-width:7px;"/><path d="M22.515,394.4c-1.323,0 -2.218,0.958 -2.218,2.228c0,1.269 0.895,2.227 2.218,2.227c0.635,-0 1.202,-0.234 1.589,-0.67l-0.455,-0.509c-0.297,0.288 -0.697,0.491 -1.152,0.491c-0.823,-0 -1.449,-0.644 -1.449,-1.539c0,-0.896 0.626,-1.535 1.449,-1.535c0.455,-0 0.819,0.175 1.134,0.481l0.473,-0.499c-0.383,-0.441 -0.954,-0.675 -1.589,-0.675Z" style="fill:#fff;fill-rule:nonzero;"/><path d="M29.216,394.49l-0.738,0l0,0.576c-0.337,-0.405 -0.837,-0.666 -1.507,-0.666c-1.202,0 -2.138,0.936 -2.138,2.228c0,1.291 0.936,2.227 2.138,2.227c0.67,-0 1.17,-0.261 1.507,-0.661l0,0.571l0.738,-0l-0,-4.275Zm-2.16,0.603c0.864,-0 1.467,0.661 1.467,1.535c0,0.877 -0.603,1.539 -1.467,1.539c-0.878,-0 -1.472,-0.689 -1.472,-1.539c0,-0.851 0.581,-1.535 1.472,-1.535Z" style="fill:#fff;fill-rule:nonzero;"/><path d="M32.748,394.4c-0.508,0 -0.954,0.234 -1.251,0.652l0,-0.562l-0.724,0l0,4.275l0.733,-0l0,-2.38c0,-0.788 0.459,-1.288 1.112,-1.288c0.243,0 0.531,0.059 0.733,0.167l0.18,-0.724c-0.229,-0.099 -0.477,-0.14 -0.783,-0.14Z" style="fill:#fff;fill-rule:nonzero;"/><path d="M36.178,394.4c-1.202,0 -2.138,0.936 -2.138,2.228c0,1.291 0.936,2.227 2.138,2.227c0.67,-0 1.17,-0.261 1.507,-0.661l0,0.571l0.738,-0l-0,-6.48l-0.738,0l0,2.781c-0.337,-0.405 -0.837,-0.666 -1.507,-0.666Zm0.085,0.693c0.864,-0 1.467,0.661 1.467,1.534c0,0.878 -0.603,1.54 -1.467,1.54c-0.878,-0 -1.472,-0.689 -1.472,-1.539c0,-0.851 0.581,-1.535 1.472,-1.535Z" style="fill:#fff;fill-rule:nonzero;"/><path d="M43.179,394.868c-0.413,-0.283 -1.03,-0.463 -1.705,-0.463c-1.04,-0 -1.719,0.494 -1.719,1.313c0,0.648 0.463,1.081 1.422,1.198l0.495,0.058c0.581,0.072 0.86,0.27 0.86,0.585c-0,0.423 -0.432,0.653 -1.135,0.653c-0.715,-0 -1.143,-0.207 -1.462,-0.455l-0.342,0.549c0.563,0.423 1.273,0.549 1.8,0.549c1.166,-0 1.894,-0.526 1.894,-1.341c0,-0.706 -0.535,-1.089 -1.444,-1.211l-0.495,-0.063c-0.518,-0.063 -0.828,-0.22 -0.828,-0.562c-0,-0.387 0.378,-0.635 0.963,-0.635c0.563,0 1.107,0.212 1.377,0.396l0.319,-0.571Z" style="fill:#fff;fill-rule:nonzero;"/><path d="M47.58,395.003l-0.76,0l0,1.742l-1.998,-0l2.304,-4.271l-0.864,0l-2.353,4.406l-0,0.584l2.911,0l0,1.301l0.76,-0l0,-1.301l1.049,0l-0,-0.719l-1.049,-0l0,-1.742Z" style="fill:#fff;fill-rule:nonzero;"/><path d="M49.79,393.869c0.302,-0.405 0.675,-0.765 1.377,-0.765c0.797,-0 1.256,0.535 1.256,1.237c-0,0.518 -0.252,0.941 -0.63,1.337l-2.358,2.489l-0,0.598l3.982,-0l-0,-0.724l-2.853,-0l1.809,-1.922c0.405,-0.427 0.846,-0.99 0.846,-1.773c-0,-1.13 -0.747,-1.971 -2.034,-1.971c-1.089,0 -1.647,0.612 -1.944,1.048l0.549,0.446Z" style="fill:#fff;fill-rule:nonzero;"/><path d="M55.141,397.622c-0.329,0 -0.617,0.284 -0.617,0.612c0,0.333 0.288,0.621 0.617,0.621c0.328,-0 0.611,-0.288 0.611,-0.621c0,-0.328 -0.283,-0.612 -0.611,-0.612Z" style="fill:#fff;fill-rule:nonzero;"/><path d="M58.966,394.4c-1.297,0 -2.259,0.958 -2.259,2.228c-0,1.269 0.962,2.227 2.259,2.227c1.296,-0 2.263,-0.958 2.263,-2.227c-0,-1.27 -0.967,-2.228 -2.263,-2.228Zm-0,0.693c0.855,-0 1.507,0.639 1.507,1.535c0,0.895 -0.652,1.539 -1.507,1.539c-0.86,-0 -1.508,-0.644 -1.508,-1.539c-0,-0.896 0.648,-1.535 1.508,-1.535Z" style="fill:#fff;fill-rule:nonzero;"/><path d="M64.437,394.4c-0.508,0 -0.954,0.234 -1.251,0.652l0,-0.562l-0.724,0l0,4.275l0.733,-0l0,-2.38c0,-0.788 0.459,-1.288 1.112,-1.288c0.243,0 0.531,0.059 0.733,0.167l0.18,-0.724c-0.229,-0.099 -0.477,-0.14 -0.783,-0.14Z" style="fill:#fff;fill-rule:nonzero;"/><path d="M67.844,394.4c-1.202,0 -2.115,0.891 -2.115,2.192c0,1.305 0.913,2.195 2.115,2.195c0.662,0 1.148,-0.256 1.472,-0.665l-0,0.378c-0,0.949 -0.617,1.467 -1.535,1.467c-0.554,-0 -1.062,-0.185 -1.472,-0.477l-0.319,0.594c0.436,0.35 1.125,0.553 1.791,0.553c1.35,-0 2.272,-0.787 2.272,-2.169l0,-3.978l-0.737,0l-0,0.581c-0.324,-0.41 -0.81,-0.671 -1.472,-0.671Zm0.086,0.693c0.85,-0 1.449,0.648 1.449,1.499c-0,0.855 -0.599,1.503 -1.449,1.503c-0.878,-0 -1.45,-0.671 -1.45,-1.503c0,-0.824 0.572,-1.499 1.45,-1.499Z" style="fill:#fff;fill-rule:nonzero;"/><path d="M75.4,391.835l-0.81,0l-3.821,7.83l0.81,-0l3.821,-7.83Z" style="fill:#fff;fill-rule:nonzero;"/><path d="M77.794,394.4c-0.676,0 -1.175,0.261 -1.508,0.661l-0,-0.571l-0.733,0l-0,6.075l0.733,-0l-0,-2.371c0.333,0.4 0.832,0.661 1.508,0.661c1.197,-0 2.137,-0.936 2.137,-2.227c-0,-1.292 -0.94,-2.228 -2.137,-2.228Zm-0.086,0.693c0.873,-0 1.467,0.684 1.467,1.535c0,0.85 -0.58,1.539 -1.467,1.539c-0.864,-0 -1.467,-0.662 -1.467,-1.539c-0,-0.874 0.603,-1.535 1.467,-1.535Z" style="fill:#fff;fill-rule:nonzero;"/><path d="M85.223,394.49l-0.738,0l0,0.576c-0.337,-0.405 -0.837,-0.666 -1.507,-0.666c-1.202,0 -2.138,0.936 -2.138,2.228c0,1.291 0.936,2.227 2.138,2.227c0.67,-0 1.17,-0.261 1.507,-0.661l0,0.571l0.738,-0l-0,-4.275Zm-2.16,0.603c0.864,-0 1.467,0.661 1.467,1.535c0,0.877 -0.603,1.539 -1.467,1.539c-0.878,-0 -1.472,-0.689 -1.472,-1.539c0,-0.851 0.581,-1.535 1.472,-1.535Z" style="fill:#fff;fill-rule:nonzero;"/><path d="M89.682,394.49l-1.795,0l-0,-1.341l-0.738,0l0,1.341l-0.913,0l-0,0.67l0.913,0l0,2.098c0,1.089 0.553,1.597 1.48,1.597c0.527,-0 0.954,-0.185 1.283,-0.423l-0.347,-0.553c-0.243,0.166 -0.558,0.288 -0.873,0.288c-0.463,-0 -0.805,-0.279 -0.805,-0.923l-0,-2.084l1.795,0l0,-0.67Z" style="fill:#fff;fill-rule:nonzero;"/><path d="M91.595,392.285l-0.733,0l-0,6.48l0.733,-0l-0,-2.399c-0,-0.796 0.576,-1.269 1.265,-1.269c0.742,0 1.174,0.464 1.174,1.251l0,2.417l0.738,-0l-0,-2.655c-0,-1.026 -0.729,-1.71 -1.782,-1.71c-0.495,0 -1.044,0.162 -1.395,0.643l-0,-2.758Z" style="fill:#fff;fill-rule:nonzero;"/><path d="M99.483,394.868c-0.413,-0.283 -1.03,-0.463 -1.705,-0.463c-1.04,-0 -1.719,0.494 -1.719,1.313c0,0.648 0.463,1.081 1.422,1.198l0.495,0.058c0.581,0.072 0.86,0.27 0.86,0.585c-0,0.423 -0.432,0.653 -1.135,0.653c-0.715,-0 -1.143,-0.207 -1.462,-0.455l-0.342,0.549c0.563,0.423 1.273,0.549 1.8,0.549c1.166,-0 1.894,-0.526 1.894,-1.341c0,-0.706 -0.535,-1.089 -1.444,-1.211l-0.495,-0.063c-0.518,-0.063 -0.828,-0.22 -0.828,-0.562c-0,-0.387 0.378,-0.635 0.963,-0.635c0.563,0 1.107,0.212 1.377,0.396l0.319,-0.571Z" style="fill:#fff;fill-rule:nonzero;"/></g></svg>