<?xml version="1.0" encoding="UTF-8" standalone="no"?><!DOCTYPE svg PUBLIC "-//W3C//DTD SVG 1.1//EN" "http://www.w3.org/Graphics/SVG/1.1/DTD/svg11.dtd"><svg width="100%" height="100%" viewBox="0 0 298 420" version="1.1" xmlns="http://www.w3.org/2000/svg" xmlns:xlink="http://www.w3.org/1999/xlink" xml:space="preserve" xmlns:serif="http://www.serif.com/" style="fill-rule:evenodd;clip-rule:evenodd;"><g id="Ebene-1" serif:id="Ebene 1"><rect x="-9.978" y="-15.969" width="324.567" height="445.984" style="fill:#f39260;"/><g><rect x="218.758" y="385.673" width="3.28" height="13.775" style="fill:#fff;"/><path d="M245.758,399.449l-0,-13.776l-3.28,0l-0,8.423l-6.298,-8.423l-3.148,0l-0,8.423l-6.271,-8.423l-3.149,0l-0,13.776l3.28,-0l-0,-8.397l6.271,8.397l3.175,-0l-0,-8.397l6.271,8.397l3.149,-0Z" style="fill:#fff;fill-rule:nonzero;"/><path d="M254.154,388.56c2.23,-0 3.831,1.627 3.831,3.988c-0,2.362 -1.601,3.988 -3.831,3.988c-2.257,0 -3.831,-1.626 -3.831,-3.988c0,-2.361 1.601,-3.988 3.831,-3.988m0,-3.149c-4.251,0 -7.268,3.044 -7.268,7.137c-0,4.093 3.017,7.137 7.268,7.137c4.251,0 7.268,-3.044 7.268,-7.137c0,-4.093 -3.017,-7.137 -7.268,-7.137" style="fill:#fff;fill-rule:nonzero;"/><path d="M269.609,388.56c2.23,-0 3.831,1.627 3.831,3.988c-0,0.446 -0.053,0.866 -0.158,1.26l-0.446,-0.604l-3.568,0l2.177,2.913c-0.524,0.262 -1.154,0.419 -1.81,0.419c-2.23,0 -3.831,-1.626 -3.831,-3.988c-0.026,-2.335 1.574,-3.988 3.805,-3.988m-0,-3.149c-4.251,0 -7.268,3.044 -7.268,7.137c-0,4.093 3.017,7.137 7.268,7.137c1.443,0 2.676,-0.394 3.726,-1.076l0.603,0.814l3.857,-0l-2.178,-2.939c0.761,-1.102 1.207,-2.388 1.207,-3.936c0.053,-4.093 -2.965,-7.137 -7.215,-7.137" style="fill:#004153;fill-rule:nonzero;"/></g></g><g id="Ebene-11" serif:id="Ebene 1"><path d="M33.522,20.163l-3.791,-0l-2.536,7.111l-2.553,-7.111l-3.783,-0l0,11.199l2.671,-0l0,-7.64l2.24,6.584l2.841,-0l2.24,-6.608l0,7.664l2.671,-0l0,-11.199Z" style="fill:#fff;fill-rule:nonzero;"/><path d="M43.755,23.515l-2.736,-0l-1.752,3.527l-1.784,-3.527l-2.872,-0l3.304,6.119l-2.688,4.944l2.736,-0l5.792,-11.063Z" style="fill:#fff;fill-rule:nonzero;"/><path d="M57.635,23.299c-1.081,-0 -1.961,0.407 -2.489,1.311c-0.48,-0.84 -1.359,-1.311 -2.391,-1.311c-1.049,-0 -1.841,0.375 -2.337,1.199l0,-0.983l-2.399,-0l0,7.847l2.503,-0l0,-4.224c0,-1.016 0.576,-1.488 1.273,-1.488c0.776,-0 1.24,0.52 1.24,1.448l0,4.264l2.503,-0l0,-4.224c0,-1.016 0.584,-1.488 1.273,-1.488c0.784,-0 1.248,0.52 1.248,1.448l0,4.264l2.503,-0l0,-5.152c0,-1.808 -1.136,-2.911 -2.927,-2.911Z" style="fill:#fff;fill-rule:nonzero;"/><path d="M66.107,23.299c-2.449,-0 -4.256,1.759 -4.256,4.135c0,2.376 1.807,4.136 4.256,4.136c2.456,-0 4.263,-1.76 4.263,-4.136c0,-2.376 -1.807,-4.135 -4.263,-4.135Zm-0,2.335c0.984,-0 1.704,0.744 1.704,1.8c0,1.056 -0.72,1.801 -1.704,1.801c-0.977,-0 -1.697,-0.745 -1.697,-1.801c0,-1.056 0.72,-1.8 1.697,-1.8Z" style="fill:#fff;fill-rule:nonzero;"/><path d="M78.202,23.978c-1.287,-0.496 -2.103,-0.671 -3.376,-0.671c-2.135,-0 -3.391,0.951 -3.391,2.623c0,1.408 0.88,2.192 2.767,2.472l0.456,0.064c0.889,0.136 1.241,0.256 1.241,0.56c0,0.336 -0.32,0.513 -1.097,0.513c-1.088,-0 -1.984,-0.273 -2.767,-0.737l-0.872,1.936c0.896,0.584 2.279,0.824 3.623,0.824c2.289,-0 3.632,-1.032 3.632,-2.752c0,-1.32 -0.888,-2.128 -2.567,-2.384l-0.576,-0.088c-0.769,-0.12 -1.265,-0.2 -1.265,-0.536c0,-0.288 0.256,-0.48 0.913,-0.48c0.8,0.007 1.808,0.28 2.583,0.608l0.696,-1.952Z" style="fill:#fff;fill-rule:nonzero;"/><path d="M85.658,23.515l-2.68,-0l0,-2.288l-2.503,-0l0,2.288l-1.464,-0l0,2.215l1.464,-0l0,2.616c0,1.968 0.952,3.224 3.055,3.224c1.264,-0 2.048,-0.36 2.784,-0.872l-0.864,-1.952c-0.392,0.232 -0.896,0.489 -1.36,0.489c-0.632,-0 -1.112,-0.305 -1.112,-1.209l0,-2.296l2.68,-0l0,-2.215Z" style="fill:#fff;fill-rule:nonzero;"/><path d="M95.555,23.299c-1.065,-0 -1.777,0.447 -2.249,1.063l0,-0.847l-2.415,-0l0,11.047l2.495,-0l0,-3.944c0.472,0.56 1.16,0.952 2.169,0.952c2.096,-0 3.655,-1.824 3.655,-4.143c0,-2.305 -1.559,-4.128 -3.655,-4.128Zm-0.601,2.335c1.009,-0 1.681,0.776 1.681,1.8c0,1.024 -0.672,1.801 -1.681,1.801c-0.984,-0 -1.672,-0.761 -1.672,-1.801c0,-1.04 0.688,-1.8 1.672,-1.8Z" style="fill:#fff;fill-rule:nonzero;"/><path d="M108.466,23.515l-2.423,-0l0,0.848c-0.472,-0.617 -1.192,-1.064 -2.249,-1.064c-2.104,-0 -3.655,1.823 -3.655,4.127c0,2.32 1.551,4.144 3.647,4.144c1.065,-0 1.785,-0.44 2.257,-1.056l0,0.848l2.423,-0l0,-7.847Zm-4.079,2.119c0.984,-0 1.68,0.76 1.68,1.8c0,1.04 -0.696,1.801 -1.68,1.801c-1.001,-0 -1.673,-0.777 -1.673,-1.801c0,-1.024 0.672,-1.8 1.673,-1.8Z" style="fill:#fff;fill-rule:nonzero;"/><path d="M112.722,23.515l-2.503,-0l0,7.847l2.503,-0l0,-7.847Zm-1.263,-3.92c-0.848,-0 -1.496,0.656 -1.496,1.504c0,0.84 0.648,1.488 1.496,1.488c0.839,-0 1.495,-0.648 1.495,-1.488c0,-0.848 -0.656,-1.504 -1.495,-1.504Z" style="fill:#fff;fill-rule:nonzero;"/><path d="M119.211,23.299c-1.049,-0 -1.841,0.375 -2.337,1.199l0,-0.983l-2.399,-0l0,7.847l2.503,-0l0,-4.224c0,-1.016 0.576,-1.488 1.273,-1.488c0.776,-0 1.24,0.52 1.24,1.448l0,4.264l2.503,-0l0,-5.152c0,-1.816 -1.215,-2.911 -2.783,-2.911Z" style="fill:#fff;fill-rule:nonzero;"/><path d="M128.978,23.515l-2.2,-0l0,-0.553c0,-0.68 0.272,-0.992 0.824,-0.992c0.48,-0 0.848,0.152 1.224,0.344l1.088,-1.848c-0.616,-0.464 -1.424,-0.831 -2.648,-0.831c-1.831,-0 -2.991,1.159 -2.991,3.271l0,0.609l-1.352,-0l0,2.215l1.352,-0l0,5.632l2.503,-0l0,-5.632l2.2,-0l0,-2.215Z" style="fill:#fff;fill-rule:nonzero;"/><path d="M137.722,23.515l-2.495,-0l0,4.264c0,1 -0.544,1.456 -1.288,1.456c-0.753,-0 -1.289,-0.456 -1.289,-1.456l0,-4.264l-2.503,-0l0,4.48c0,2.463 1.695,3.575 3.792,3.575c2.088,-0 3.783,-1.112 3.783,-3.567l0,-4.488Z" style="fill:#fff;fill-rule:nonzero;"/><rect x="139.427" y="19.843" width="2.503" height="11.519" style="fill:#fff;fill-rule:nonzero;"/><path d="M151.939,23.299c-1.065,-0 -1.777,0.447 -2.249,1.063l0,-0.847l-2.415,-0l0,11.047l2.495,-0l0,-3.944c0.472,0.56 1.16,0.952 2.169,0.952c2.096,-0 3.655,-1.824 3.655,-4.143c0,-2.305 -1.559,-4.128 -3.655,-4.128Zm-0.601,2.335c1.009,-0 1.681,0.776 1.681,1.8c0,1.024 -0.672,1.801 -1.681,1.801c-0.984,-0 -1.672,-0.761 -1.672,-1.801c0,-1.04 0.688,-1.8 1.672,-1.8Z" style="fill:#fff;fill-rule:nonzero;"/><path d="M161.482,23.299c-0.96,-0 -1.688,0.359 -2.144,1.119l0,-0.903l-2.399,-0l0,7.847l2.503,-0l0,-4.24c0,-0.976 0.544,-1.416 1.432,-1.416c0.448,-0 0.92,0.096 1.256,0.208l0.232,-2.496c-0.192,-0.056 -0.512,-0.119 -0.88,-0.119Z" style="fill:#fff;fill-rule:nonzero;"/><path d="M167.139,23.299c-2.449,-0 -4.256,1.759 -4.256,4.135c0,2.376 1.807,4.136 4.256,4.136c2.456,-0 4.263,-1.76 4.263,-4.136c0,-2.376 -1.807,-4.135 -4.263,-4.135Zm-0,2.335c0.984,-0 1.704,0.744 1.704,1.8c0,1.056 -0.72,1.801 -1.704,1.801c-0.977,-0 -1.697,-0.745 -1.697,-1.801c0,-1.056 0.72,-1.8 1.697,-1.8Z" style="fill:#fff;fill-rule:nonzero;"/><path d="M177.411,23.299c-1.009,-0 -1.697,0.399 -2.169,0.967l0,-4.423l-2.495,-0l0,11.519l2.415,-0l0,-0.84c0.472,0.616 1.184,1.048 2.249,1.048c2.096,-0 3.655,-1.824 3.655,-4.144c0,-2.304 -1.559,-4.127 -3.655,-4.127Zm-0.601,2.335c1.009,-0 1.681,0.776 1.681,1.8c0,1.024 -0.672,1.801 -1.681,1.801c-0.984,-0 -1.672,-0.761 -1.672,-1.801c0,-1.04 0.688,-1.8 1.672,-1.8Z" style="fill:#fff;fill-rule:nonzero;"/><rect x="182.411" y="19.843" width="2.503" height="11.519" style="fill:#fff;fill-rule:nonzero;"/><path d="M190.275,23.299c-2.385,-0 -4.024,1.711 -4.024,4.183c0,2.448 1.671,4.088 4.136,4.088c1.448,-0 2.639,-0.472 3.455,-1.288l-1.615,-1.504c-0.496,0.448 -1.128,0.689 -1.712,0.689c-0.865,-0 -1.473,-0.401 -1.681,-1.257l5.32,-0c0.032,-0.168 0.048,-0.52 0.048,-0.776c-0.008,-2.456 -1.599,-4.135 -3.927,-4.135Zm0.008,2.127c0.728,-0 1.216,0.416 1.416,1.201l-2.857,-0c0.192,-0.777 0.664,-1.201 1.441,-1.201Z" style="fill:#fff;fill-rule:nonzero;"/><path d="M205.163,23.299c-1.081,-0 -1.961,0.407 -2.489,1.311c-0.48,-0.84 -1.359,-1.311 -2.391,-1.311c-1.049,-0 -1.841,0.375 -2.337,1.199l0,-0.983l-2.399,-0l0,7.847l2.503,-0l0,-4.224c0,-1.016 0.576,-1.488 1.273,-1.488c0.776,-0 1.24,0.52 1.24,1.448l0,4.264l2.503,-0l0,-4.224c0,-1.016 0.584,-1.488 1.273,-1.488c0.784,-0 1.248,0.52 1.248,1.448l0,4.264l2.503,-0l0,-5.152c0,-1.808 -1.136,-2.911 -2.927,-2.911Z" style="fill:#fff;fill-rule:nonzero;"/><rect x="66.614" y="50.315" width="211.829" height="31.047" style="fill:#fff;"/><rect x="19.843" y="116.22" width="257.953" height="82.205" style="fill:#fff;"/><path d="M28.128,61.339l-1.055,-0l-0,6.593l-5.083,-6.599l-0.953,-0l-0,8.405l1.055,-0l0.006,-6.594l5.077,6.6l0.953,-0l0,-8.405Z" style="fill:#004153;fill-rule:nonzero;"/><path d="M35.778,64.039l-0.983,-0l-0,0.768c-0.45,-0.541 -1.116,-0.888 -2.01,-0.888c-1.603,-0 -2.85,1.247 -2.85,2.969c-0,1.723 1.247,2.97 2.85,2.97c0.894,-0 1.56,-0.348 2.01,-0.881l-0,0.761l0.983,-0l0,-5.699Zm-2.879,0.803c1.152,-0 1.956,0.882 1.956,2.046c-0,1.17 -0.804,2.053 -1.956,2.053c-1.171,-0 -1.963,-0.919 -1.963,-2.053c0,-1.134 0.774,-2.046 1.963,-2.046Z" style="fill:#004153;fill-rule:nonzero;"/><path d="M44.923,63.919c-0.775,-0 -1.657,0.281 -2.125,1.145c-0.377,-0.714 -1.139,-1.145 -2.105,-1.145c-0.661,-0 -1.399,0.221 -1.867,0.863l0,-0.743l-0.971,-0l-0,5.699l0.977,-0l0,-3.198c0,-1.062 0.768,-1.692 1.687,-1.692c0.99,-0 1.566,0.618 1.566,1.668l-0,3.222l0.983,-0l0,-3.198c0,-1.038 0.738,-1.692 1.681,-1.692c0.99,-0 1.566,0.618 1.566,1.668l-0,3.222l0.983,-0l0,-3.54c0,-1.368 -0.965,-2.279 -2.375,-2.279Z" style="fill:#004153;fill-rule:nonzero;"/><path d="M51.715,63.919c-1.639,-0 -2.832,1.217 -2.832,2.969c-0,1.776 1.199,2.97 2.892,2.97c0.84,-0 1.632,-0.204 2.339,-0.863l-0.521,-0.673c-0.486,0.421 -1.092,0.679 -1.758,0.679c-0.979,-0 -1.801,-0.583 -1.939,-1.765l4.482,-0c0.006,-0.108 0.018,-0.24 0.018,-0.366c-0.012,-1.746 -1.127,-2.951 -2.681,-2.951Zm-0.018,0.869c0.924,-0 1.578,0.648 1.698,1.657l-3.487,-0c0.15,-0.973 0.78,-1.657 1.789,-1.657Z" style="fill:#004153;fill-rule:nonzero;"/><path d="M27.06,100.219c-0.791,-0.546 -1.757,-0.918 -3.023,-0.918c-1.771,0 -3.21,0.906 -3.21,2.526c-0,1.434 1.103,2.076 2.489,2.244l0.781,0.096c1.308,0.162 2.01,0.534 2.01,1.314c-0,0.948 -0.984,1.458 -2.238,1.458c-1.069,0 -2.155,-0.426 -2.736,-0.93l-0.576,0.84c0.81,0.678 2.117,1.092 3.312,1.092c1.818,-0 3.335,-0.876 3.335,-2.55c0,-1.482 -1.217,-2.058 -2.639,-2.232l-0.739,-0.09c-1.26,-0.156 -1.902,-0.546 -1.902,-1.308c0,-0.906 0.876,-1.458 2.107,-1.458c0.972,-0 1.806,0.312 2.49,0.774l0.539,-0.858Z" style="fill:#004153;fill-rule:nonzero;"/><path d="M29.94,99.181l-0.977,0l-0,8.64l0.977,-0l0,-3.198c0,-1.062 0.768,-1.692 1.687,-1.692c0.99,-0 1.566,0.618 1.566,1.668l-0,3.222l0.983,-0l0,-3.54c0,-1.368 -0.971,-2.28 -2.375,-2.28c-0.661,0 -1.393,0.216 -1.861,0.858l0,-3.678Z" style="fill:#004153;fill-rule:nonzero;"/><path d="M38.773,102.001c-1.729,0 -3.012,1.278 -3.012,2.97c-0,1.692 1.283,2.97 3.012,2.97c1.728,-0 3.017,-1.278 3.017,-2.97c0,-1.692 -1.289,-2.97 -3.017,-2.97Zm-0,0.924c1.14,-0 2.01,0.852 2.01,2.046c-0,1.194 -0.87,2.052 -2.01,2.052c-1.147,0 -2.011,-0.858 -2.011,-2.052c0,-1.194 0.864,-2.046 2.011,-2.046Z" style="fill:#004153;fill-rule:nonzero;"/><path d="M46.068,102.001c-0.678,0 -1.272,0.312 -1.668,0.87l0,-0.75l-0.965,0l-0,5.7l0.977,-0l0,-3.174c0,-1.05 0.612,-1.716 1.482,-1.716c0.324,-0 0.708,0.078 0.978,0.222l0.24,-0.966c-0.306,-0.132 -0.636,-0.186 -1.044,-0.186Z" style="fill:#004153;fill-rule:nonzero;"/><path d="M52.452,102.121l-2.394,0l0,-1.788l-0.983,0l-0,1.788l-1.218,0l-0,0.894l1.218,-0l-0,2.796c-0,1.452 0.737,2.13 1.973,2.13c0.702,-0 1.272,-0.246 1.71,-0.564l-0.462,-0.738c-0.324,0.222 -0.744,0.384 -1.164,0.384c-0.618,0 -1.074,-0.372 -1.074,-1.23l0,-2.778l2.394,-0l0,-0.894Z" style="fill:#004153;fill-rule:nonzero;"/><path d="M59.653,102.001c-1.603,0 -2.85,1.248 -2.85,2.97c-0,1.722 1.247,2.97 2.85,2.97c0.894,-0 1.56,-0.348 2.01,-0.882l-0,0.762l0.983,-0l0,-8.64l-0.983,0l-0,3.708c-0.45,-0.54 -1.116,-0.888 -2.01,-0.888Zm0.114,0.924c1.152,-0 1.956,0.882 1.956,2.046c-0,1.17 -0.804,2.052 -1.956,2.052c-1.171,0 -1.963,-0.918 -1.963,-2.052c0,-1.134 0.774,-2.046 1.963,-2.046Z" style="fill:#004153;fill-rule:nonzero;"/><path d="M67.123,102.001c-1.639,0 -2.832,1.218 -2.832,2.97c-0,1.776 1.199,2.97 2.892,2.97c0.84,-0 1.632,-0.204 2.339,-0.864l-0.521,-0.672c-0.486,0.42 -1.092,0.678 -1.758,0.678c-0.979,0 -1.801,-0.582 -1.939,-1.764l4.482,-0c0.006,-0.108 0.018,-0.24 0.018,-0.366c-0.012,-1.746 -1.127,-2.952 -2.681,-2.952Zm-0.018,0.87c0.924,-0 1.578,0.648 1.698,1.656l-3.487,0c0.15,-0.972 0.78,-1.656 1.789,-1.656Z" style="fill:#004153;fill-rule:nonzero;"/><path d="M75.714,102.625c-0.551,-0.378 -1.373,-0.618 -2.274,-0.618c-1.386,0 -2.291,0.66 -2.291,1.752c-0,0.864 0.617,1.44 1.895,1.596l0.661,0.078c0.774,0.096 1.146,0.36 1.146,0.78c-0,0.564 -0.576,0.87 -1.513,0.87c-0.954,0 -1.524,-0.276 -1.949,-0.606l-0.456,0.732c0.75,0.564 1.697,0.732 2.399,0.732c1.555,-0 2.526,-0.702 2.526,-1.788c0,-0.942 -0.713,-1.452 -1.925,-1.614l-0.661,-0.084c-0.69,-0.084 -1.104,-0.294 -1.104,-0.75c0,-0.516 0.504,-0.846 1.284,-0.846c0.751,-0 1.477,0.282 1.837,0.528l0.425,-0.762Z" style="fill:#004153;fill-rule:nonzero;"/><path d="M79.938,102.001c-1.764,0 -2.957,1.278 -2.957,2.97c-0,1.692 1.193,2.97 2.957,2.97c0.846,-0 1.602,-0.312 2.118,-0.894l-0.606,-0.678c-0.396,0.384 -0.93,0.654 -1.536,0.654c-1.098,0 -1.932,-0.858 -1.932,-2.052c0,-1.194 0.834,-2.046 1.932,-2.046c0.606,-0 1.092,0.234 1.512,0.642l0.63,-0.666c-0.51,-0.588 -1.272,-0.9 -2.118,-0.9Z" style="fill:#004153;fill-rule:nonzero;"/><path d="M86.196,102.001c-0.678,0 -1.272,0.312 -1.668,0.87l0,-0.75l-0.965,0l-0,5.7l0.977,-0l0,-3.174c0,-1.05 0.612,-1.716 1.482,-1.716c0.324,-0 0.708,0.078 0.978,0.222l0.24,-0.966c-0.306,-0.132 -0.636,-0.186 -1.044,-0.186Z" style="fill:#004153;fill-rule:nonzero;"/><path d="M89.568,102.121l-0.977,0l-0,5.7l0.977,-0l0,-5.7Zm-0.497,-2.706c-0.39,0 -0.69,0.306 -0.69,0.702c-0,0.39 0.3,0.684 0.69,0.684c0.389,0 0.701,-0.294 0.701,-0.684c0,-0.396 -0.312,-0.702 -0.701,-0.702Z" style="fill:#004153;fill-rule:nonzero;"/><path d="M94.633,102.001c-0.901,0 -1.567,0.348 -2.011,0.882l0,-0.762l-0.977,0l-0,8.1l0.977,-0l0,-3.162c0.444,0.534 1.11,0.882 2.011,0.882c1.596,-0 2.849,-1.248 2.849,-2.97c0,-1.722 -1.253,-2.97 -2.849,-2.97Zm-0.114,0.924c1.164,-0 1.956,0.912 1.956,2.046c-0,1.134 -0.774,2.052 -1.956,2.052c-1.153,0 -1.957,-0.882 -1.957,-2.052c0,-1.164 0.804,-2.046 1.957,-2.046Z" style="fill:#004153;fill-rule:nonzero;"/><path d="M102.936,102.121l-2.394,0l0,-1.788l-0.983,0l-0,1.788l-1.218,0l-0,0.894l1.218,-0l-0,2.796c-0,1.452 0.737,2.13 1.973,2.13c0.702,-0 1.272,-0.246 1.71,-0.564l-0.462,-0.738c-0.324,0.222 -0.744,0.384 -1.164,0.384c-0.618,0 -1.074,-0.372 -1.074,-1.23l0,-2.778l2.394,-0l0,-0.894Z" style="fill:#004153;fill-rule:nonzero;"/><path d="M105.486,102.121l-0.977,0l-0,5.7l0.977,-0l0,-5.7Zm-0.497,-2.706c-0.39,0 -0.69,0.306 -0.69,0.702c-0,0.39 0.3,0.684 0.69,0.684c0.389,0 0.701,-0.294 0.701,-0.684c0,-0.396 -0.312,-0.702 -0.701,-0.702Z" style="fill:#004153;fill-rule:nonzero;"/><path d="M110.143,102.001c-1.729,0 -3.012,1.278 -3.012,2.97c-0,1.692 1.283,2.97 3.012,2.97c1.728,-0 3.017,-1.278 3.017,-2.97c0,-1.692 -1.289,-2.97 -3.017,-2.97Zm-0,0.924c1.14,-0 2.01,0.852 2.01,2.046c-0,1.194 -0.87,2.052 -2.01,2.052c-1.147,0 -2.011,-0.858 -2.011,-2.052c0,-1.194 0.864,-2.046 2.011,-2.046Z" style="fill:#004153;fill-rule:nonzero;"/><path d="M117.643,102.001c-0.661,0 -1.399,0.222 -1.867,0.864l0,-0.744l-0.971,0l-0,5.7l0.977,-0l0,-3.198c0,-1.062 0.768,-1.692 1.687,-1.692c0.99,-0 1.566,0.618 1.566,1.668l-0,3.222l0.983,-0l0,-3.54c0,-1.368 -0.971,-2.28 -2.375,-2.28Z" style="fill:#004153;fill-rule:nonzero;"/><path d="M24.229,221.563c1.896,-0 2.969,-0.948 2.969,-2.52c0,-1.572 -1.073,-2.52 -2.969,-2.52l-3.192,0l-0,8.4l1.055,-0l0,-3.36l2.137,-0Zm-0.024,-4.044c1.242,-0 1.896,0.504 1.896,1.524c-0,1.02 -0.654,1.524 -1.896,1.524l-2.113,0l0,-3.048l2.113,-0Z" style="fill:#004153;fill-rule:nonzero;"/><path d="M34.062,219.223l-0.983,0l-0,0.768c-0.45,-0.54 -1.116,-0.888 -2.01,-0.888c-1.603,0 -2.85,1.248 -2.85,2.97c-0,1.722 1.247,2.97 2.85,2.97c0.894,-0 1.56,-0.348 2.01,-0.882l-0,0.762l0.983,-0l0,-5.7Zm-2.879,0.804c1.152,-0 1.956,0.882 1.956,2.046c-0,1.17 -0.804,2.052 -1.956,2.052c-1.171,0 -1.963,-0.918 -1.963,-2.052c0,-1.134 0.774,-2.046 1.963,-2.046Z" style="fill:#004153;fill-rule:nonzero;"/><path d="M37.116,219.223l-0.977,0l-0,5.7l0.977,-0l0,-5.7Zm-0.497,-2.706c-0.39,0 -0.69,0.306 -0.69,0.702c-0,0.39 0.3,0.684 0.69,0.684c0.389,0 0.701,-0.294 0.701,-0.684c0,-0.396 -0.312,-0.702 -0.701,-0.702Z" style="fill:#004153;fill-rule:nonzero;"/><path d="M42.031,219.103c-0.661,0 -1.399,0.222 -1.867,0.864l0,-0.744l-0.971,0l-0,5.7l0.977,-0l0,-3.198c0,-1.062 0.768,-1.692 1.687,-1.692c0.99,-0 1.566,0.618 1.566,1.668l-0,3.222l0.983,-0l0,-3.54c0,-1.368 -0.971,-2.28 -2.375,-2.28Z" style="fill:#004153;fill-rule:nonzero;"/><path d="M53.898,219.727c-0.551,-0.378 -1.373,-0.618 -2.274,-0.618c-1.386,0 -2.291,0.66 -2.291,1.752c-0,0.864 0.617,1.44 1.895,1.596l0.661,0.078c0.774,0.096 1.146,0.36 1.146,0.78c-0,0.564 -0.576,0.87 -1.513,0.87c-0.954,0 -1.524,-0.276 -1.949,-0.606l-0.456,0.732c0.75,0.564 1.697,0.732 2.399,0.732c1.555,-0 2.526,-0.702 2.526,-1.788c0,-0.942 -0.713,-1.452 -1.925,-1.614l-0.661,-0.084c-0.69,-0.084 -1.104,-0.294 -1.104,-0.75c0,-0.516 0.504,-0.846 1.284,-0.846c0.751,-0 1.477,0.282 1.837,0.528l0.425,-0.762Z" style="fill:#004153;fill-rule:nonzero;"/><path d="M58.122,219.103c-1.764,0 -2.957,1.278 -2.957,2.97c-0,1.692 1.193,2.97 2.957,2.97c0.846,-0 1.602,-0.312 2.118,-0.894l-0.606,-0.678c-0.396,0.384 -0.93,0.654 -1.536,0.654c-1.098,0 -1.932,-0.858 -1.932,-2.052c0,-1.194 0.834,-2.046 1.932,-2.046c0.606,-0 1.092,0.234 1.512,0.642l0.63,-0.666c-0.51,-0.588 -1.272,-0.9 -2.118,-0.9Z" style="fill:#004153;fill-rule:nonzero;"/><path d="M67.056,219.223l-0.983,0l-0,0.768c-0.45,-0.54 -1.116,-0.888 -2.01,-0.888c-1.603,0 -2.85,1.248 -2.85,2.97c-0,1.722 1.247,2.97 2.85,2.97c0.894,-0 1.56,-0.348 2.01,-0.882l-0,0.762l0.983,-0l0,-5.7Zm-2.879,0.804c1.152,-0 1.956,0.882 1.956,2.046c-0,1.17 -0.804,2.052 -1.956,2.052c-1.171,0 -1.963,-0.918 -1.963,-2.052c0,-1.134 0.774,-2.046 1.963,-2.046Z" style="fill:#004153;fill-rule:nonzero;"/><rect x="69.133" y="216.283" width="0.977" height="8.639" style="fill:#004153;fill-rule:nonzero;"/><path d="M74.587,219.103c-1.639,0 -2.832,1.218 -2.832,2.97c-0,1.776 1.199,2.97 2.892,2.97c0.84,-0 1.632,-0.204 2.339,-0.864l-0.521,-0.672c-0.486,0.42 -1.092,0.678 -1.758,0.678c-0.979,0 -1.801,-0.582 -1.939,-1.764l4.482,-0c0.006,-0.108 0.018,-0.24 0.018,-0.366c-0.012,-1.746 -1.127,-2.952 -2.681,-2.952Zm-0.018,0.87c0.924,-0 1.578,0.648 1.698,1.656l-3.487,0c0.15,-0.972 0.78,-1.656 1.789,-1.656Z" style="fill:#004153;fill-rule:nonzero;"/><path d="M24.229,297.106c1.896,0 2.969,-0.947 2.969,-2.52c0,-1.572 -1.073,-2.519 -2.969,-2.519l-3.192,-0l-0,8.399l1.055,0l0,-3.36l2.137,0Zm-0.024,-4.044c1.242,0 1.896,0.504 1.896,1.524c-0,1.021 -0.654,1.525 -1.896,1.525l-2.113,-0l0,-3.049l2.113,0Z" style="fill:#004153;fill-rule:nonzero;"/><path d="M31.476,294.647c-0.678,-0 -1.272,0.312 -1.668,0.869l0,-0.749l-0.965,-0l-0,5.699l0.977,0l0,-3.174c0,-1.05 0.612,-1.716 1.482,-1.716c0.324,0 0.708,0.078 0.978,0.222l0.24,-0.965c-0.306,-0.132 -0.636,-0.186 -1.044,-0.186Z" style="fill:#004153;fill-rule:nonzero;"/><path d="M36.211,294.647c-1.729,-0 -3.012,1.277 -3.012,2.969c-0,1.693 1.283,2.97 3.012,2.97c1.728,0 3.017,-1.277 3.017,-2.97c0,-1.692 -1.289,-2.969 -3.017,-2.969Zm-0,0.923c1.14,0 2.01,0.852 2.01,2.046c-0,1.195 -0.87,2.053 -2.01,2.053c-1.147,-0 -2.011,-0.858 -2.011,-2.053c0,-1.194 0.864,-2.046 2.011,-2.046Z" style="fill:#004153;fill-rule:nonzero;"/><path d="M43.861,294.647c-0.901,-0 -1.567,0.347 -2.011,0.881l0,-3.701l-0.977,-0l-0,8.639l0.977,0l0,-0.762c0.444,0.534 1.11,0.882 2.011,0.882c1.596,0 2.849,-1.247 2.849,-2.97c0,-1.722 -1.253,-2.969 -2.849,-2.969Zm-0.114,0.923c1.164,0 1.956,0.912 1.956,2.046c-0,1.135 -0.774,2.053 -1.956,2.053c-1.153,-0 -1.957,-0.882 -1.957,-2.053c0,-1.164 0.804,-2.046 1.957,-2.046Z" style="fill:#004153;fill-rule:nonzero;"/><rect x="48.355" y="291.827" width="0.977" height="8.639" style="fill:#004153;fill-rule:nonzero;"/><path d="M53.809,294.647c-1.639,-0 -2.832,1.217 -2.832,2.969c-0,1.777 1.199,2.97 2.892,2.97c0.84,0 1.632,-0.204 2.339,-0.863l-0.521,-0.673c-0.486,0.421 -1.092,0.679 -1.758,0.679c-0.979,-0 -1.801,-0.582 -1.939,-1.765l4.482,0c0.006,-0.108 0.018,-0.24 0.018,-0.366c-0.012,-1.746 -1.127,-2.951 -2.681,-2.951Zm-0.018,0.869c0.924,0 1.578,0.648 1.698,1.657l-3.487,-0c0.15,-0.973 0.78,-1.657 1.789,-1.657Z" style="fill:#004153;fill-rule:nonzero;"/><path d="M65.203,294.647c-0.775,-0 -1.657,0.282 -2.125,1.145c-0.377,-0.714 -1.139,-1.145 -2.105,-1.145c-0.661,-0 -1.399,0.222 -1.867,0.863l0,-0.743l-0.971,-0l-0,5.699l0.977,0l0,-3.198c0,-1.062 0.768,-1.692 1.687,-1.692c0.99,0 1.566,0.618 1.566,1.668l-0,3.222l0.983,0l0,-3.198c0,-1.038 0.738,-1.692 1.681,-1.692c0.99,0 1.566,0.618 1.566,1.668l-0,3.222l0.983,0l0,-3.54c0,-1.368 -0.965,-2.279 -2.375,-2.279Z" style="fill:#004153;fill-rule:nonzero;"/><path d="M75.33,294.647c-1.764,-0 -2.957,1.277 -2.957,2.969c-0,1.693 1.193,2.97 2.957,2.97c0.846,0 1.602,-0.312 2.118,-0.893l-0.606,-0.678c-0.396,0.384 -0.93,0.654 -1.536,0.654c-1.098,-0 -1.932,-0.858 -1.932,-2.053c0,-1.194 0.834,-2.046 1.932,-2.046c0.606,0 1.092,0.234 1.512,0.642l0.63,-0.666c-0.51,-0.587 -1.272,-0.899 -2.118,-0.899Z" style="fill:#004153;fill-rule:nonzero;"/><path d="M81.433,294.647c-1.729,-0 -3.012,1.277 -3.012,2.969c-0,1.693 1.283,2.97 3.012,2.97c1.728,0 3.017,-1.277 3.017,-2.97c0,-1.692 -1.289,-2.969 -3.017,-2.969Zm-0,0.923c1.14,0 2.01,0.852 2.01,2.046c-0,1.195 -0.87,2.053 -2.01,2.053c-1.147,-0 -2.011,-0.858 -2.011,-2.053c0,-1.194 0.864,-2.046 2.011,-2.046Z" style="fill:#004153;fill-rule:nonzero;"/><path d="M90.36,295.27c-0.551,-0.377 -1.373,-0.617 -2.274,-0.617c-1.386,-0 -2.291,0.659 -2.291,1.751c-0,0.864 0.617,1.44 1.895,1.596l0.661,0.078c0.774,0.096 1.146,0.361 1.146,0.781c-0,0.564 -0.576,0.87 -1.513,0.87c-0.954,-0 -1.524,-0.276 -1.949,-0.606l-0.456,0.732c0.75,0.563 1.697,0.731 2.399,0.731c1.555,0 2.526,-0.701 2.526,-1.787c0,-0.943 -0.713,-1.453 -1.925,-1.615l-0.661,-0.084c-0.69,-0.084 -1.104,-0.294 -1.104,-0.75c0,-0.516 0.504,-0.846 1.284,-0.846c0.751,0 1.477,0.282 1.837,0.528l0.425,-0.762Z" style="fill:#004153;fill-rule:nonzero;"/><path d="M95.928,294.767l-2.394,-0l0,-1.788l-0.983,-0l-0,1.788l-1.218,-0l-0,0.893l1.218,0l-0,2.797c-0,1.452 0.737,2.129 1.973,2.129c0.702,0 1.272,-0.246 1.71,-0.564l-0.462,-0.737c-0.324,0.222 -0.744,0.384 -1.164,0.384c-0.618,-0 -1.074,-0.372 -1.074,-1.23l0,-2.779l2.394,0l0,-0.893Z" style="fill:#004153;fill-rule:nonzero;"/><path d="M103.111,294.647c-1.639,-0 -2.832,1.217 -2.832,2.969c-0,1.777 1.199,2.97 2.892,2.97c0.84,0 1.632,-0.204 2.339,-0.863l-0.521,-0.673c-0.486,0.421 -1.092,0.679 -1.758,0.679c-0.979,-0 -1.801,-0.582 -1.939,-1.765l4.482,0c0.006,-0.108 0.018,-0.24 0.018,-0.366c-0.012,-1.746 -1.127,-2.951 -2.681,-2.951Zm-0.018,0.869c0.924,0 1.578,0.648 1.698,1.657l-3.487,-0c0.15,-0.973 0.78,-1.657 1.789,-1.657Z" style="fill:#004153;fill-rule:nonzero;"/><path d="M111.702,295.27c-0.551,-0.377 -1.373,-0.617 -2.274,-0.617c-1.386,-0 -2.291,0.659 -2.291,1.751c-0,0.864 0.617,1.44 1.895,1.596l0.661,0.078c0.774,0.096 1.146,0.361 1.146,0.781c-0,0.564 -0.576,0.87 -1.513,0.87c-0.954,-0 -1.524,-0.276 -1.949,-0.606l-0.456,0.732c0.75,0.563 1.697,0.731 2.399,0.731c1.555,0 2.526,-0.701 2.526,-1.787c0,-0.943 -0.713,-1.453 -1.925,-1.615l-0.661,-0.084c-0.69,-0.084 -1.104,-0.294 -1.104,-0.75c0,-0.516 0.504,-0.846 1.284,-0.846c0.751,0 1.477,0.282 1.837,0.528l0.425,-0.762Z" style="fill:#004153;fill-rule:nonzero;"/><path d="M117.27,294.767l-2.394,-0l0,-1.788l-0.983,-0l-0,1.788l-1.218,-0l-0,0.893l1.218,0l-0,2.797c-0,1.452 0.737,2.129 1.973,2.129c0.702,0 1.272,-0.246 1.71,-0.564l-0.462,-0.737c-0.324,0.222 -0.744,0.384 -1.164,0.384c-0.618,-0 -1.074,-0.372 -1.074,-1.23l0,-2.779l2.394,0l0,-0.893Z" style="fill:#004153;fill-rule:nonzero;"/><path d="M119.82,294.767l-0.977,-0l-0,5.699l0.977,0l0,-5.699Zm-0.497,-2.706c-0.39,-0 -0.69,0.306 -0.69,0.702c-0,0.39 0.3,0.684 0.69,0.684c0.389,-0 0.701,-0.294 0.701,-0.684c0,-0.396 -0.312,-0.702 -0.701,-0.702Z" style="fill:#004153;fill-rule:nonzero;"/><path d="M128.965,294.647c-0.775,-0 -1.657,0.282 -2.125,1.145c-0.377,-0.714 -1.139,-1.145 -2.105,-1.145c-0.661,-0 -1.399,0.222 -1.867,0.863l0,-0.743l-0.971,-0l-0,5.699l0.977,0l0,-3.198c0,-1.062 0.768,-1.692 1.687,-1.692c0.99,0 1.566,0.618 1.566,1.668l-0,3.222l0.983,0l0,-3.198c0,-1.038 0.738,-1.692 1.681,-1.692c0.99,0 1.566,0.618 1.566,1.668l-0,3.222l0.983,0l0,-3.54c0,-1.368 -0.965,-2.279 -2.375,-2.279Z" style="fill:#004153;fill-rule:nonzero;"/><path d="M138.768,294.767l-0.983,-0l-0,0.768c-0.45,-0.541 -1.116,-0.888 -2.01,-0.888c-1.603,-0 -2.85,1.247 -2.85,2.969c-0,1.723 1.247,2.97 2.85,2.97c0.894,0 1.56,-0.348 2.01,-0.881l-0,0.761l0.983,0l0,-5.699Zm-2.879,0.803c1.152,0 1.956,0.882 1.956,2.046c-0,1.171 -0.804,2.053 -1.956,2.053c-1.171,-0 -1.963,-0.918 -1.963,-2.053c0,-1.134 0.774,-2.046 1.963,-2.046Z" style="fill:#004153;fill-rule:nonzero;"/><path d="M144.714,294.767l-2.394,-0l0,-1.788l-0.983,-0l-0,1.788l-1.218,-0l-0,0.893l1.218,0l-0,2.797c-0,1.452 0.737,2.129 1.973,2.129c0.702,0 1.272,-0.246 1.71,-0.564l-0.462,-0.737c-0.324,0.222 -0.744,0.384 -1.164,0.384c-0.618,-0 -1.074,-0.372 -1.074,-1.23l0,-2.779l2.394,0l0,-0.893Z" style="fill:#004153;fill-rule:nonzero;"/><path d="M147.264,294.767l-0.977,-0l-0,5.699l0.977,0l0,-5.699Zm-0.497,-2.706c-0.39,-0 -0.69,0.306 -0.69,0.702c-0,0.39 0.3,0.684 0.69,0.684c0.389,-0 0.701,-0.294 0.701,-0.684c0,-0.396 -0.312,-0.702 -0.701,-0.702Z" style="fill:#004153;fill-rule:nonzero;"/><path d="M151.921,294.647c-1.729,-0 -3.012,1.277 -3.012,2.969c-0,1.693 1.283,2.97 3.012,2.97c1.728,0 3.017,-1.277 3.017,-2.97c0,-1.692 -1.289,-2.969 -3.017,-2.969Zm-0,0.923c1.14,0 2.01,0.852 2.01,2.046c-0,1.195 -0.87,2.053 -2.01,2.053c-1.147,-0 -2.011,-0.858 -2.011,-2.053c0,-1.194 0.864,-2.046 2.011,-2.046Z" style="fill:#004153;fill-rule:nonzero;"/><path d="M159.421,294.647c-0.661,-0 -1.399,0.222 -1.867,0.863l0,-0.743l-0.971,-0l-0,5.699l0.977,0l0,-3.198c0,-1.062 0.768,-1.692 1.687,-1.692c0.99,0 1.566,0.618 1.566,1.668l-0,3.222l0.983,0l0,-3.54c0,-1.368 -0.971,-2.279 -2.375,-2.279Z" style="fill:#004153;fill-rule:nonzero;"/><g transform="matrix(1,0,0,1,47.0404,367.265)"><g transform="matrix(9,0,0,9,-27.5447,-3.28724)"><path d="M0.568,-0.394l-0.381,0l0,-0.223l0.401,0l-0,-0.083l-0.488,0l-0,0.7l0.087,-0l0,-0.311l0.381,-0l-0,-0.083Z" style="fill:#004153;fill-rule:nonzero;"/></g><g transform="matrix(9,0,0,9,-21.8342,-3.28724)"><path d="M0.306,-0.485c-0.057,0 -0.106,0.026 -0.139,0.072l-0,-0.062l-0.08,0l-0,0.475l0.081,-0l-0,-0.264c-0,-0.088 0.051,-0.144 0.123,-0.144c0.027,0 0.059,0.007 0.082,0.019l0.02,-0.08c-0.026,-0.011 -0.053,-0.016 -0.087,-0.016Z" style="fill:#004153;fill-rule:nonzero;"/></g><g transform="matrix(9,0,0,9,-18.2432,-3.28724)"><path d="M0.287,-0.485c-0.137,0 -0.236,0.101 -0.236,0.247c-0,0.149 0.099,0.248 0.241,0.248c0.07,-0 0.136,-0.017 0.194,-0.072l-0.043,-0.056c-0.04,0.035 -0.091,0.057 -0.146,0.057c-0.082,-0 -0.151,-0.049 -0.162,-0.148l0.373,0c0.001,-0.009 0.002,-0.02 0.002,-0.03c-0.001,-0.146 -0.094,-0.246 -0.223,-0.246Zm-0.002,0.072c0.077,0 0.132,0.054 0.142,0.139l-0.291,-0c0.012,-0.082 0.065,-0.139 0.149,-0.139Z" style="fill:#004153;fill-rule:nonzero;"/></g><g transform="matrix(9,0,0,9,-13.1987,-3.28724)"><path d="M0.288,-0.485c-0.134,0 -0.237,0.104 -0.237,0.247c-0,0.144 0.103,0.248 0.237,0.248c0.075,-0 0.13,-0.029 0.168,-0.073l-0,0.263l0.081,-0l0,-0.675l-0.081,0l-0,0.064c-0.038,-0.045 -0.093,-0.074 -0.168,-0.074Zm0.01,0.077c0.096,-0 0.163,0.073 0.163,0.17c-0,0.098 -0.067,0.172 -0.163,0.172c-0.098,-0 -0.164,-0.077 -0.164,-0.172c-0,-0.094 0.064,-0.17 0.164,-0.17Z" style="fill:#004153;fill-rule:nonzero;"/></g><g transform="matrix(9,0,0,9,-7.58266,-3.28724)"><path d="M0.515,-0.475l-0.082,0l0,0.269c0,0.097 -0.057,0.14 -0.135,0.14c-0.077,-0 -0.135,-0.043 -0.135,-0.14l0,-0.269l-0.081,0l-0,0.276c-0,0.144 0.102,0.209 0.216,0.209c0.114,-0 0.217,-0.065 0.217,-0.209l-0,-0.276Z" style="fill:#004153;fill-rule:nonzero;"/></g><g transform="matrix(9,0,0,9,-2.21416,-3.28724)"><path d="M0.287,-0.485c-0.137,0 -0.236,0.101 -0.236,0.247c-0,0.149 0.099,0.248 0.241,0.248c0.07,-0 0.136,-0.017 0.194,-0.072l-0.043,-0.056c-0.04,0.035 -0.091,0.057 -0.146,0.057c-0.082,-0 -0.151,-0.049 -0.162,-0.148l0.373,0c0.001,-0.009 0.002,-0.02 0.002,-0.03c-0.001,-0.146 -0.094,-0.246 -0.223,-0.246Zm-0.002,0.072c0.077,0 0.132,0.054 0.142,0.139l-0.291,-0c0.012,-0.082 0.065,-0.139 0.149,-0.139Z" style="fill:#004153;fill-rule:nonzero;"/></g><g transform="matrix(9,0,0,9,2.83034,-3.28724)"><path d="M0.323,-0.485c-0.055,0 -0.117,0.019 -0.156,0.072l0,-0.062l-0.08,0l-0,0.475l0.081,-0l-0,-0.266c-0,-0.089 0.064,-0.142 0.141,-0.142c0.082,0 0.13,0.052 0.13,0.139l0,0.269l0.082,-0l-0,-0.295c-0,-0.114 -0.081,-0.19 -0.198,-0.19Z" style="fill:#004153;fill-rule:nonzero;"/></g><g transform="matrix(9,0,0,9,8.25284,-3.28724)"><path d="M0.297,-0.485c-0.147,0 -0.246,0.106 -0.246,0.247c-0,0.142 0.099,0.248 0.246,0.248c0.07,-0 0.133,-0.026 0.176,-0.074l-0.05,-0.057c-0.033,0.032 -0.078,0.055 -0.128,0.055c-0.092,-0 -0.161,-0.072 -0.161,-0.172c-0,-0.099 0.069,-0.17 0.161,-0.17c0.05,-0 0.091,0.019 0.126,0.053l0.052,-0.055c-0.042,-0.049 -0.106,-0.075 -0.176,-0.075Z" style="fill:#004153;fill-rule:nonzero;"/></g><g transform="matrix(9,0,0,9,12.8878,-3.28724)"><path d="M0.525,-0.475l-0.09,0l-0.163,0.292l-0.171,-0.292l-0.091,0l0.217,0.373l-0.176,0.304l0.09,0l0.384,-0.677Z" style="fill:#004153;fill-rule:nonzero;"/></g><g transform="matrix(9,0,0,9,19.8808,-3.28724)"><path d="M0.301,-0.485c-0.144,0 -0.25,0.106 -0.25,0.247c-0,0.142 0.106,0.248 0.25,0.248c0.145,-0 0.252,-0.106 0.252,-0.248c-0,-0.141 -0.107,-0.247 -0.252,-0.247Zm0,0.077c0.096,-0 0.168,0.071 0.168,0.17c0,0.1 -0.072,0.172 -0.168,0.172c-0.095,-0 -0.167,-0.072 -0.167,-0.172c-0,-0.099 0.072,-0.17 0.167,-0.17Z" style="fill:#004153;fill-rule:nonzero;"/></g><g transform="matrix(9,0,0,9,25.2673,-3.28724)"><path d="M0.396,-0.475l-0.183,0l0,-0.081c0,-0.062 0.025,-0.098 0.082,-0.098c0.035,0 0.07,0.013 0.095,0.028l0.03,-0.068c-0.034,-0.021 -0.077,-0.036 -0.131,-0.036c-0.112,0 -0.157,0.074 -0.157,0.174l-0,0.081l-0.106,0l0,0.074l0.106,0l-0,0.401l0.081,-0l0,-0.401l0.183,0l-0,-0.074Z" style="fill:#004153;fill-rule:nonzero;"/></g><g transform="matrix(9,0,0,9,-27.5447,7.51276)"><path d="M0.301,-0.485c-0.144,0 -0.25,0.106 -0.25,0.247c-0,0.142 0.106,0.248 0.25,0.248c0.145,-0 0.252,-0.106 0.252,-0.248c-0,-0.141 -0.107,-0.247 -0.252,-0.247Zm0,0.077c0.096,-0 0.168,0.071 0.168,0.17c0,0.1 -0.072,0.172 -0.168,0.172c-0.095,-0 -0.167,-0.072 -0.167,-0.172c-0,-0.099 0.072,-0.17 0.167,-0.17Z" style="fill:#004153;fill-rule:nonzero;"/></g><g transform="matrix(9,0,0,9,-22.1132,7.51276)"><path d="M0.297,-0.485c-0.147,0 -0.246,0.106 -0.246,0.247c-0,0.142 0.099,0.248 0.246,0.248c0.07,-0 0.133,-0.026 0.176,-0.074l-0.05,-0.057c-0.033,0.032 -0.078,0.055 -0.128,0.055c-0.092,-0 -0.161,-0.072 -0.161,-0.172c-0,-0.099 0.069,-0.17 0.161,-0.17c0.05,-0 0.091,0.019 0.126,0.053l0.052,-0.055c-0.042,-0.049 -0.106,-0.075 -0.176,-0.075Z" style="fill:#004153;fill-rule:nonzero;"/></g><g transform="matrix(9,0,0,9,-17.5772,7.51276)"><path d="M0.297,-0.485c-0.147,0 -0.246,0.106 -0.246,0.247c-0,0.142 0.099,0.248 0.246,0.248c0.07,-0 0.133,-0.026 0.176,-0.074l-0.05,-0.057c-0.033,0.032 -0.078,0.055 -0.128,0.055c-0.092,-0 -0.161,-0.072 -0.161,-0.172c-0,-0.099 0.069,-0.17 0.161,-0.17c0.05,-0 0.091,0.019 0.126,0.053l0.052,-0.055c-0.042,-0.049 -0.106,-0.075 -0.176,-0.075Z" style="fill:#004153;fill-rule:nonzero;"/></g><g transform="matrix(9,0,0,9,-12.9647,7.51276)"><path d="M0.515,-0.475l-0.082,0l0,0.269c0,0.097 -0.057,0.14 -0.135,0.14c-0.077,-0 -0.135,-0.043 -0.135,-0.14l0,-0.269l-0.081,0l-0,0.276c-0,0.144 0.102,0.209 0.216,0.209c0.114,-0 0.217,-0.065 0.217,-0.209l-0,-0.276Z" style="fill:#004153;fill-rule:nonzero;"/></g><g transform="matrix(9,0,0,9,-7.59616,7.51276)"><path d="M0.306,-0.485c-0.057,0 -0.106,0.026 -0.139,0.072l-0,-0.062l-0.08,0l-0,0.475l0.081,-0l-0,-0.264c-0,-0.088 0.051,-0.144 0.123,-0.144c0.027,0 0.059,0.007 0.082,0.019l0.02,-0.08c-0.026,-0.011 -0.053,-0.016 -0.087,-0.016Z" style="fill:#004153;fill-rule:nonzero;"/></g><g transform="matrix(9,0,0,9,-3.82516,7.51276)"><path d="M0.306,-0.485c-0.057,0 -0.106,0.026 -0.139,0.072l-0,-0.062l-0.08,0l-0,0.475l0.081,-0l-0,-0.264c-0,-0.088 0.051,-0.144 0.123,-0.144c0.027,0 0.059,0.007 0.082,0.019l0.02,-0.08c-0.026,-0.011 -0.053,-0.016 -0.087,-0.016Z" style="fill:#004153;fill-rule:nonzero;"/></g><g transform="matrix(9,0,0,9,-0.234163,7.51276)"><path d="M0.287,-0.485c-0.137,0 -0.236,0.101 -0.236,0.247c-0,0.149 0.099,0.248 0.241,0.248c0.07,-0 0.136,-0.017 0.194,-0.072l-0.043,-0.056c-0.04,0.035 -0.091,0.057 -0.146,0.057c-0.082,-0 -0.151,-0.049 -0.162,-0.148l0.373,0c0.001,-0.009 0.002,-0.02 0.002,-0.03c-0.001,-0.146 -0.094,-0.246 -0.223,-0.246Zm-0.002,0.072c0.077,0 0.132,0.054 0.142,0.139l-0.291,-0c0.012,-0.082 0.065,-0.139 0.149,-0.139Z" style="fill:#004153;fill-rule:nonzero;"/></g><g transform="matrix(9,0,0,9,4.81034,7.51276)"><path d="M0.323,-0.485c-0.055,0 -0.117,0.019 -0.156,0.072l0,-0.062l-0.08,0l-0,0.475l0.081,-0l-0,-0.266c-0,-0.089 0.064,-0.142 0.141,-0.142c0.082,0 0.13,0.052 0.13,0.139l0,0.269l0.082,-0l-0,-0.295c-0,-0.114 -0.081,-0.19 -0.198,-0.19Z" style="fill:#004153;fill-rule:nonzero;"/></g><g transform="matrix(9,0,0,9,10.2328,7.51276)"><path d="M0.297,-0.485c-0.147,0 -0.246,0.106 -0.246,0.247c-0,0.142 0.099,0.248 0.246,0.248c0.07,-0 0.133,-0.026 0.176,-0.074l-0.05,-0.057c-0.033,0.032 -0.078,0.055 -0.128,0.055c-0.092,-0 -0.161,-0.072 -0.161,-0.172c-0,-0.099 0.069,-0.17 0.161,-0.17c0.05,-0 0.091,0.019 0.126,0.053l0.052,-0.055c-0.042,-0.049 -0.106,-0.075 -0.176,-0.075Z" style="fill:#004153;fill-rule:nonzero;"/></g><g transform="matrix(9,0,0,9,14.7688,7.51276)"><path d="M0.287,-0.485c-0.137,0 -0.236,0.101 -0.236,0.247c-0,0.149 0.099,0.248 0.241,0.248c0.07,-0 0.136,-0.017 0.194,-0.072l-0.043,-0.056c-0.04,0.035 -0.091,0.057 -0.146,0.057c-0.082,-0 -0.151,-0.049 -0.162,-0.148l0.373,0c0.001,-0.009 0.002,-0.02 0.002,-0.03c-0.001,-0.146 -0.094,-0.246 -0.223,-0.246Zm-0.002,0.072c0.077,0 0.132,0.054 0.142,0.139l-0.291,-0c0.012,-0.082 0.065,-0.139 0.149,-0.139Z" style="fill:#004153;fill-rule:nonzero;"/></g></g><path d="M148.786,364.333c-1.89,-0 -3.262,1.358 -3.262,3.244c0,1.886 1.372,3.244 3.262,3.244c1.089,0 2.03,-0.485 2.561,-1.273l-0.648,-0.472c-0.414,0.616 -1.103,0.985 -1.913,0.985c-1.386,0 -2.434,-1.003 -2.434,-2.484c-0,-1.481 1.048,-2.484 2.434,-2.484c0.815,-0 1.508,0.382 1.917,0.99l0.662,-0.446c-0.495,-0.81 -1.476,-1.304 -2.579,-1.304Z" style="fill:#004153;fill-rule:nonzero;"/><path d="M154.506,366.362c-1.296,0 -2.259,0.958 -2.259,2.227c0,1.27 0.963,2.228 2.259,2.228c1.296,-0 2.263,-0.958 2.263,-2.228c0,-1.269 -0.967,-2.227 -2.263,-2.227Zm0,0.693c0.855,-0 1.508,0.639 1.508,1.534c-0,0.896 -0.653,1.54 -1.508,1.54c-0.86,-0 -1.508,-0.644 -1.508,-1.54c0,-0.895 0.648,-1.534 1.508,-1.534Z" style="fill:#004153;fill-rule:nonzero;"/><path d="M161.202,366.83c-0.414,-0.283 -1.03,-0.463 -1.705,-0.463c-1.04,-0 -1.719,0.494 -1.719,1.313c-0,0.648 0.463,1.081 1.422,1.198l0.495,0.058c0.58,0.072 0.859,0.27 0.859,0.585c0,0.423 -0.432,0.653 -1.134,0.653c-0.716,-0 -1.143,-0.207 -1.462,-0.455l-0.342,0.549c0.562,0.423 1.273,0.549 1.8,0.549c1.165,-0 1.894,-0.526 1.894,-1.341c-0,-0.706 -0.535,-1.089 -1.444,-1.211l-0.495,-0.063c-0.518,-0.063 -0.829,-0.22 -0.829,-0.562c0,-0.387 0.378,-0.635 0.964,-0.635c0.562,0 1.107,0.212 1.377,0.396l0.319,-0.571Z" style="fill:#004153;fill-rule:nonzero;"/><path d="M165.378,366.452l-1.796,0l0,-1.341l-0.737,0l-0,1.341l-0.914,0l0,0.67l0.914,0l-0,2.098c-0,1.089 0.553,1.597 1.48,1.597c0.526,-0 0.954,-0.185 1.282,-0.423l-0.346,-0.553c-0.243,0.166 -0.558,0.288 -0.873,0.288c-0.464,-0 -0.806,-0.279 -0.806,-0.923l0,-2.084l1.796,0l-0,-0.67Z" style="fill:#004153;fill-rule:nonzero;"/><path d="M169.756,366.83c-0.413,-0.283 -1.03,-0.463 -1.705,-0.463c-1.04,-0 -1.719,0.494 -1.719,1.313c0,0.648 0.464,1.081 1.422,1.198l0.495,0.058c0.581,0.072 0.86,0.27 0.86,0.585c-0,0.423 -0.432,0.653 -1.134,0.653c-0.716,-0 -1.143,-0.207 -1.463,-0.455l-0.342,0.549c0.563,0.423 1.273,0.549 1.8,0.549c1.166,-0 1.894,-0.526 1.894,-1.341c0,-0.706 -0.535,-1.089 -1.444,-1.211l-0.495,-0.063c-0.518,-0.063 -0.828,-0.22 -0.828,-0.562c-0,-0.387 0.378,-0.635 0.963,-0.635c0.563,0 1.107,0.212 1.377,0.396l0.319,-0.571Z" style="fill:#004153;fill-rule:nonzero;"/><path d="M175.755,364.279c-1.463,0.576 -2.448,2.088 -2.448,3.892c0,1.804 0.985,3.316 2.448,3.888l0.261,-0.675c-1.188,-0.5 -1.922,-1.782 -1.922,-3.213c0,-1.431 0.734,-2.713 1.922,-3.213l-0.261,-0.679Z" style="fill:#004153;fill-rule:nonzero;"/><path d="M182.456,366.362c-0.581,0 -1.243,0.212 -1.594,0.859c-0.283,-0.535 -0.854,-0.859 -1.579,-0.859c-0.495,0 -1.049,0.167 -1.4,0.648l0,-0.558l-0.728,0l-0,4.275l0.733,-0l-0,-2.398c-0,-0.797 0.576,-1.27 1.265,-1.27c0.742,0 1.174,0.464 1.174,1.251l0,2.417l0.738,-0l-0,-2.399c-0,-0.778 0.553,-1.269 1.26,-1.269c0.743,0 1.175,0.464 1.175,1.251l-0,2.417l0.737,-0l0,-2.655c0,-1.026 -0.724,-1.71 -1.781,-1.71Z" style="fill:#004153;fill-rule:nonzero;"/><path d="M189.808,366.452l-0.737,0l-0,0.576c-0.338,-0.405 -0.837,-0.666 -1.508,-0.666c-1.202,0 -2.137,0.936 -2.137,2.227c-0,1.292 0.935,2.228 2.137,2.228c0.671,-0 1.17,-0.261 1.508,-0.661l-0,0.571l0.737,-0l0,-4.275Zm-2.159,0.603c0.864,-0 1.467,0.661 1.467,1.534c-0,0.878 -0.603,1.54 -1.467,1.54c-0.878,-0 -1.472,-0.689 -1.472,-1.54c-0,-0.85 0.58,-1.534 1.472,-1.534Z" style="fill:#004153;fill-rule:nonzero;"/><path d="M195.02,366.452l-0.869,0l-1.237,1.58l-1.229,-1.58l-0.9,0l1.647,2.093l-1.687,2.182l0.859,-0l1.269,-1.643l1.287,1.643l0.905,-0l-1.692,-2.191l1.647,-2.084Z" style="fill:#004153;fill-rule:nonzero;"/><path d="M195.843,372.054c1.463,-0.576 2.448,-2.088 2.448,-3.892c-0,-1.804 -0.985,-3.316 -2.448,-3.888l-0.261,0.675c1.188,0.5 1.922,1.782 1.922,3.213c-0,1.431 -0.734,2.713 -1.922,3.213l0.261,0.679Z" style="fill:#004153;fill-rule:nonzero;"/><path d="M217.818,364.333c-1.89,-0 -3.262,1.358 -3.262,3.244c0,1.886 1.372,3.244 3.262,3.244c1.089,0 2.029,-0.485 2.56,-1.273l-0.648,-0.472c-0.414,0.616 -1.102,0.985 -1.912,0.985c-1.386,0 -2.435,-1.003 -2.435,-2.484c0,-1.481 1.049,-2.484 2.435,-2.484c0.814,-0 1.507,0.382 1.917,0.99l0.661,-0.446c-0.495,-0.81 -1.476,-1.304 -2.578,-1.304Z" style="fill:#004153;fill-rule:nonzero;"/><path d="M223.538,366.362c-1.296,0 -2.259,0.958 -2.259,2.227c0,1.27 0.963,2.228 2.259,2.228c1.296,-0 2.263,-0.958 2.263,-2.228c-0,-1.269 -0.967,-2.227 -2.263,-2.227Zm-0,0.693c0.855,-0 1.508,0.639 1.508,1.534c-0,0.896 -0.653,1.54 -1.508,1.54c-0.86,-0 -1.508,-0.644 -1.508,-1.54c-0,-0.895 0.648,-1.534 1.508,-1.534Z" style="fill:#004153;fill-rule:nonzero;"/><path d="M230.234,366.83c-0.414,-0.283 -1.031,-0.463 -1.706,-0.463c-1.039,-0 -1.718,0.494 -1.718,1.313c-0,0.648 0.463,1.081 1.421,1.198l0.495,0.058c0.581,0.072 0.86,0.27 0.86,0.585c0,0.423 -0.432,0.653 -1.134,0.653c-0.716,-0 -1.143,-0.207 -1.463,-0.455l-0.341,0.549c0.562,0.423 1.273,0.549 1.799,0.549c1.166,-0 1.894,-0.526 1.894,-1.341c0,-0.706 -0.535,-1.089 -1.444,-1.211l-0.495,-0.063c-0.517,-0.063 -0.828,-0.22 -0.828,-0.562c-0,-0.387 0.378,-0.635 0.963,-0.635c0.563,0 1.107,0.212 1.377,0.396l0.32,-0.571Z" style="fill:#004153;fill-rule:nonzero;"/><path d="M234.409,366.452l-1.795,0l-0,-1.341l-0.737,0l-0,1.341l-0.914,0l0,0.67l0.914,0l-0,2.098c-0,1.089 0.553,1.597 1.479,1.597c0.527,-0 0.954,-0.185 1.283,-0.423l-0.347,-0.553c-0.243,0.166 -0.558,0.288 -0.873,0.288c-0.463,-0 -0.805,-0.279 -0.805,-0.923l-0,-2.084l1.795,0l0,-0.67Z" style="fill:#004153;fill-rule:nonzero;"/><path d="M238.788,366.83c-0.414,-0.283 -1.03,-0.463 -1.705,-0.463c-1.04,-0 -1.719,0.494 -1.719,1.313c0,0.648 0.463,1.081 1.422,1.198l0.495,0.058c0.58,0.072 0.86,0.27 0.86,0.585c-0,0.423 -0.433,0.653 -1.135,0.653c-0.715,-0 -1.143,-0.207 -1.462,-0.455l-0.342,0.549c0.562,0.423 1.273,0.549 1.8,0.549c1.166,-0 1.894,-0.526 1.894,-1.341c-0,-0.706 -0.535,-1.089 -1.444,-1.211l-0.495,-0.063c-0.518,-0.063 -0.829,-0.22 -0.829,-0.562c0,-0.387 0.379,-0.635 0.964,-0.635c0.562,0 1.107,0.212 1.377,0.396l0.319,-0.571Z" style="fill:#004153;fill-rule:nonzero;"/><path d="M244.786,364.279c-1.462,0.576 -2.447,2.088 -2.447,3.892c0,1.804 0.985,3.316 2.447,3.888l0.261,-0.675c-1.188,-0.5 -1.921,-1.782 -1.921,-3.213c-0,-1.431 0.733,-2.713 1.921,-3.213l-0.261,-0.679Z" style="fill:#004153;fill-rule:nonzero;"/><path d="M251.487,366.362c-0.58,0 -1.242,0.212 -1.593,0.859c-0.283,-0.535 -0.855,-0.859 -1.579,-0.859c-0.495,0 -1.049,0.167 -1.4,0.648l-0,-0.558l-0.728,0l-0,4.275l0.732,-0l0,-2.398c0,-0.797 0.577,-1.27 1.265,-1.27c0.743,0 1.175,0.464 1.175,1.251l0,2.417l0.737,-0l0,-2.399c0,-0.778 0.554,-1.269 1.261,-1.269c0.742,0 1.175,0.464 1.175,1.251l-0,2.417l0.737,-0l-0,-2.655c-0,-1.026 -0.724,-1.71 -1.782,-1.71Z" style="fill:#004153;fill-rule:nonzero;"/><path d="M255.514,366.452l-0.732,0l-0,4.275l0.732,-0l0,-4.275Zm-0.373,-2.029c-0.292,-0 -0.517,0.229 -0.517,0.526c0,0.293 0.225,0.513 0.517,0.513c0.293,0 0.526,-0.22 0.526,-0.513c0,-0.297 -0.233,-0.526 -0.526,-0.526Z" style="fill:#004153;fill-rule:nonzero;"/><path d="M259.2,366.362c-0.495,0 -1.048,0.167 -1.4,0.648l0,-0.558l-0.728,0l0,4.275l0.733,-0l-0,-2.398c-0,-0.797 0.576,-1.27 1.265,-1.27c0.742,0 1.175,0.464 1.175,1.251l-0,2.417l0.737,-0l-0,-2.655c-0,-1.026 -0.728,-1.71 -1.782,-1.71Z" style="fill:#004153;fill-rule:nonzero;"/><path d="M262.337,372.054c1.463,-0.576 2.447,-2.088 2.447,-3.892c0,-1.804 -0.984,-3.316 -2.447,-3.888l-0.261,0.675c1.188,0.5 1.922,1.782 1.922,3.213c-0,1.431 -0.734,2.713 -1.922,3.213l0.261,0.679Z" style="fill:#004153;fill-rule:nonzero;"/><path d="M29.57,262.997c-0.495,0 -1.048,0.166 -1.399,0.648l-0,-0.558l-0.729,0l0,4.275l0.733,-0l0,-2.399c0,-0.796 0.576,-1.269 1.265,-1.269c0.743,0 1.175,0.464 1.175,1.251l-0,2.417l0.737,-0l0,-2.655c0,-1.026 -0.728,-1.71 -1.782,-1.71Z" style="fill:#004153;fill-rule:nonzero;"/><path d="M34.799,262.997c-1.296,0 -2.258,0.958 -2.258,2.227c-0,1.27 0.962,2.228 2.258,2.228c1.297,-0 2.264,-0.958 2.264,-2.228c-0,-1.269 -0.967,-2.227 -2.264,-2.227Zm0,0.693c0.855,-0 1.508,0.639 1.508,1.534c0,0.896 -0.653,1.54 -1.508,1.54c-0.859,-0 -1.507,-0.644 -1.507,-1.54c-0,-0.895 0.648,-1.534 1.507,-1.534Z" style="fill:#004153;fill-rule:nonzero;"/><path d="M40.424,262.997c-0.495,0 -1.048,0.166 -1.399,0.648l-0,-0.558l-0.729,0l0,4.275l0.733,-0l0,-2.399c0,-0.796 0.576,-1.269 1.265,-1.269c0.743,0 1.175,0.464 1.175,1.251l-0,2.417l0.737,-0l0,-2.655c0,-1.026 -0.728,-1.71 -1.782,-1.71Z" style="fill:#004153;fill-rule:nonzero;"/><path d="M45.518,262.997c-1.228,0 -2.123,0.913 -2.123,2.227c-0,1.332 0.899,2.228 2.168,2.228c0.63,-0 1.225,-0.153 1.755,-0.648l-0.391,-0.504c-0.364,0.315 -0.819,0.509 -1.319,0.509c-0.733,-0 -1.35,-0.437 -1.453,-1.324l3.361,0c0.005,-0.081 0.014,-0.18 0.014,-0.274c-0.009,-1.31 -0.846,-2.214 -2.012,-2.214Zm-0.013,0.652c0.693,0 1.184,0.486 1.274,1.243l-2.615,-0c0.112,-0.73 0.585,-1.243 1.341,-1.243Z" style="fill:#004153;fill-rule:nonzero;"/><path d="M246.53,262.997c-1.228,0 -2.123,0.913 -2.123,2.227c-0,1.332 0.899,2.228 2.168,2.228c0.63,-0 1.225,-0.153 1.755,-0.648l-0.391,-0.504c-0.364,0.315 -0.819,0.509 -1.319,0.509c-0.733,-0 -1.35,-0.437 -1.453,-1.324l3.361,0c0.005,-0.081 0.014,-0.18 0.014,-0.274c-0.009,-1.31 -0.846,-2.214 -2.012,-2.214Zm-0.013,0.652c0.693,0 1.184,0.486 1.274,1.243l-2.615,-0c0.112,-0.73 0.585,-1.243 1.341,-1.243Z" style="fill:#004153;fill-rule:nonzero;"/><path d="M253.258,263.087l-0.869,0l-1.237,1.579l-1.229,-1.579l-0.9,0l1.647,2.092l-1.687,2.183l0.859,-0l1.269,-1.643l1.287,1.643l0.905,-0l-1.692,-2.192l1.647,-2.083Z" style="fill:#004153;fill-rule:nonzero;"/><path d="M257.141,263.087l-1.795,0l-0,-1.341l-0.738,0l0,1.341l-0.913,0l-0,0.67l0.913,0l0,2.097c0,1.089 0.553,1.598 1.48,1.598c0.527,-0 0.954,-0.185 1.283,-0.423l-0.347,-0.553c-0.243,0.166 -0.558,0.288 -0.873,0.288c-0.463,-0 -0.805,-0.279 -0.805,-0.923l-0,-2.084l1.795,0l0,-0.67Z" style="fill:#004153;fill-rule:nonzero;"/><path d="M260.296,262.997c-0.509,0 -0.954,0.234 -1.251,0.652l-0,-0.562l-0.724,0l-0,4.275l0.733,-0l-0,-2.381c-0,-0.787 0.459,-1.287 1.111,-1.287c0.243,0 0.531,0.059 0.734,0.167l0.18,-0.725c-0.23,-0.098 -0.477,-0.139 -0.783,-0.139Z" style="fill:#004153;fill-rule:nonzero;"/><path d="M263.711,262.997c-1.228,0 -2.123,0.913 -2.123,2.227c-0,1.332 0.899,2.228 2.168,2.228c0.63,-0 1.225,-0.153 1.755,-0.648l-0.391,-0.504c-0.364,0.315 -0.819,0.509 -1.319,0.509c-0.733,-0 -1.35,-0.437 -1.453,-1.324l3.361,0c0.005,-0.081 0.014,-0.18 0.014,-0.274c-0.009,-1.31 -0.846,-2.214 -2.012,-2.214Zm-0.013,0.652c0.693,0 1.184,0.486 1.274,1.243l-2.615,-0c0.112,-0.73 0.585,-1.243 1.341,-1.243Z" style="fill:#004153;fill-rule:nonzero;"/><path d="M272.257,262.997c-0.581,0 -1.242,0.211 -1.593,0.859c-0.284,-0.535 -0.855,-0.859 -1.58,-0.859c-0.495,0 -1.048,0.166 -1.399,0.648l-0,-0.558l-0.729,0l0,4.275l0.733,-0l0,-2.399c0,-0.796 0.576,-1.269 1.265,-1.269c0.743,0 1.175,0.464 1.175,1.251l-0,2.417l0.737,-0l0,-2.399c0,-0.778 0.554,-1.269 1.26,-1.269c0.743,0 1.175,0.464 1.175,1.251l0,2.417l0.738,-0l-0,-2.655c-0,-1.026 -0.724,-1.71 -1.782,-1.71Z" style="fill:#004153;fill-rule:nonzero;"/><path d="M277.351,262.997c-1.229,0 -2.124,0.913 -2.124,2.227c0,1.332 0.9,2.228 2.169,2.228c0.63,-0 1.224,-0.153 1.755,-0.648l-0.391,-0.504c-0.365,0.315 -0.82,0.509 -1.319,0.509c-0.734,-0 -1.35,-0.437 -1.454,-1.324l3.362,0c0.004,-0.081 0.013,-0.18 0.013,-0.274c-0.009,-1.31 -0.845,-2.214 -2.011,-2.214Zm-0.014,0.652c0.693,0 1.184,0.486 1.274,1.243l-2.615,-0c0.113,-0.73 0.585,-1.243 1.341,-1.243Z" style="fill:#004153;fill-rule:nonzero;"/><path d="M19.843,244.78l257.952,-0" style="fill:none;fill-rule:nonzero;stroke:#fff;stroke-width:2px;"/><path d="M37,232.024l0,25.511" style="fill:none;fill-rule:nonzero;stroke:#fff;stroke-width:2px;"/><path d="M261.638,232.024l-0,25.511" style="fill:none;fill-rule:nonzero;stroke:#fff;stroke-width:2px;"/><rect x="19.843" y="317.518" width="55.089" height="31.047" style="fill:#fff;"/><rect x="144.984" y="317.518" width="55.089" height="31.047" style="fill:#fff;"/><rect x="214.016" y="317.888" width="55.089" height="31.047" style="fill:#fff;"/><path d="M116.947,322.191l-4.632,0l-6.6,8.423l-6.552,-8.423l-4.8,0l8.784,11.159l-9,11.638l4.584,0l6.768,-8.758l6.864,8.758l4.824,0l-9.024,-11.686l8.784,-11.111Z" style="fill:#004153;fill-rule:nonzero;"/><path d="M206.791,331.334c-1.752,0 -3.288,1.512 -3.288,3.263c0,1.775 1.536,3.31 3.288,3.31c1.752,0 3.264,-1.535 3.264,-3.31c0,-1.751 -1.512,-3.263 -3.264,-3.263Zm-1.944,17.208l-1.392,12.357l3.384,0l2.592,-12.357l-4.584,0Z" style="fill:#004153;fill-rule:nonzero;"/><path d="M150.076,352.328l-9.27,-0l0,-40.774l9.27,-0l0,-4.556l-14.336,-0l0,49.886l14.336,-0l0,-4.556Z" style="fill:#004153;fill-rule:nonzero;"/><path d="M263.924,352.225l9.27,-0l-0,-40.774l-9.27,0l-0,-4.556l14.336,-0l-0,49.886l-14.336,0l-0,-4.556Z" style="fill:#004153;fill-rule:nonzero;"/><path d="M22.515,394.69c-1.323,0 -2.218,0.958 -2.218,2.227c0,1.27 0.895,2.228 2.218,2.228c0.635,-0 1.202,-0.234 1.589,-0.67l-0.455,-0.509c-0.297,0.288 -0.697,0.491 -1.152,0.491c-0.823,-0 -1.449,-0.644 -1.449,-1.54c0,-0.895 0.626,-1.534 1.449,-1.534c0.455,-0 0.819,0.175 1.134,0.481l0.473,-0.499c-0.383,-0.441 -0.954,-0.675 -1.589,-0.675Z" style="fill:#fff;fill-rule:nonzero;"/><path d="M29.216,394.78l-0.738,0l0,0.576c-0.337,-0.405 -0.837,-0.666 -1.507,-0.666c-1.202,0 -2.138,0.936 -2.138,2.227c0,1.292 0.936,2.228 2.138,2.228c0.67,-0 1.17,-0.261 1.507,-0.661l0,0.571l0.738,-0l-0,-4.275Zm-2.16,0.603c0.864,-0 1.467,0.661 1.467,1.534c0,0.878 -0.603,1.54 -1.467,1.54c-0.878,-0 -1.472,-0.689 -1.472,-1.54c0,-0.85 0.581,-1.534 1.472,-1.534Z" style="fill:#fff;fill-rule:nonzero;"/><path d="M32.748,394.69c-0.508,0 -0.954,0.234 -1.251,0.652l0,-0.562l-0.724,0l0,4.275l0.733,-0l0,-2.381c0,-0.787 0.459,-1.287 1.112,-1.287c0.243,0 0.531,0.059 0.733,0.167l0.18,-0.725c-0.229,-0.098 -0.477,-0.139 -0.783,-0.139Z" style="fill:#fff;fill-rule:nonzero;"/><path d="M36.178,394.69c-1.202,0 -2.138,0.936 -2.138,2.227c0,1.292 0.936,2.228 2.138,2.228c0.67,-0 1.17,-0.261 1.507,-0.661l0,0.571l0.738,-0l-0,-6.48l-0.738,0l0,2.781c-0.337,-0.405 -0.837,-0.666 -1.507,-0.666Zm0.085,0.693c0.864,-0 1.467,0.661 1.467,1.534c0,0.878 -0.603,1.54 -1.467,1.54c-0.878,-0 -1.472,-0.689 -1.472,-1.54c0,-0.85 0.581,-1.534 1.472,-1.534Z" style="fill:#fff;fill-rule:nonzero;"/><path d="M43.179,395.158c-0.413,-0.284 -1.03,-0.463 -1.705,-0.463c-1.04,-0 -1.719,0.494 -1.719,1.313c0,0.648 0.463,1.08 1.422,1.197l0.495,0.059c0.581,0.072 0.86,0.27 0.86,0.585c-0,0.423 -0.432,0.653 -1.135,0.653c-0.715,-0 -1.143,-0.207 -1.462,-0.455l-0.342,0.549c0.563,0.423 1.273,0.549 1.8,0.549c1.166,-0 1.894,-0.527 1.894,-1.341c0,-0.707 -0.535,-1.089 -1.444,-1.211l-0.495,-0.063c-0.518,-0.063 -0.828,-0.22 -0.828,-0.562c-0,-0.387 0.378,-0.635 0.963,-0.635c0.563,0 1.107,0.212 1.377,0.396l0.319,-0.571Z" style="fill:#fff;fill-rule:nonzero;"/><path d="M47.58,395.293l-0.76,0l0,1.742l-1.998,-0l2.304,-4.271l-0.864,0l-2.353,4.405l-0,0.585l2.911,0l0,1.301l0.76,-0l0,-1.301l1.049,0l-0,-0.719l-1.049,-0l0,-1.742Z" style="fill:#fff;fill-rule:nonzero;"/><path d="M49.79,394.159c0.302,-0.405 0.675,-0.765 1.377,-0.765c0.797,-0 1.256,0.535 1.256,1.237c-0,0.518 -0.252,0.941 -0.63,1.337l-2.358,2.489l-0,0.598l3.982,-0l-0,-0.724l-2.853,-0l1.809,-1.922c0.405,-0.428 0.846,-0.99 0.846,-1.773c-0,-1.13 -0.747,-1.971 -2.034,-1.971c-1.089,0 -1.647,0.612 -1.944,1.048l0.549,0.446Z" style="fill:#fff;fill-rule:nonzero;"/><path d="M55.141,397.912c-0.329,0 -0.617,0.283 -0.617,0.612c0,0.333 0.288,0.621 0.617,0.621c0.328,-0 0.611,-0.288 0.611,-0.621c0,-0.329 -0.283,-0.612 -0.611,-0.612Z" style="fill:#fff;fill-rule:nonzero;"/><path d="M58.966,394.69c-1.297,0 -2.259,0.958 -2.259,2.227c-0,1.27 0.962,2.228 2.259,2.228c1.296,-0 2.263,-0.958 2.263,-2.228c-0,-1.269 -0.967,-2.227 -2.263,-2.227Zm-0,0.693c0.855,-0 1.507,0.639 1.507,1.534c0,0.896 -0.652,1.54 -1.507,1.54c-0.86,-0 -1.508,-0.644 -1.508,-1.54c-0,-0.895 0.648,-1.534 1.508,-1.534Z" style="fill:#fff;fill-rule:nonzero;"/><path d="M64.437,394.69c-0.508,0 -0.954,0.234 -1.251,0.652l0,-0.562l-0.724,0l0,4.275l0.733,-0l0,-2.381c0,-0.787 0.459,-1.287 1.112,-1.287c0.243,0 0.531,0.059 0.733,0.167l0.18,-0.725c-0.229,-0.098 -0.477,-0.139 -0.783,-0.139Z" style="fill:#fff;fill-rule:nonzero;"/><path d="M67.844,394.69c-1.202,0 -2.115,0.891 -2.115,2.191c0,1.306 0.913,2.196 2.115,2.196c0.662,0 1.148,-0.256 1.472,-0.665l-0,0.377c-0,0.95 -0.617,1.468 -1.535,1.468c-0.554,-0 -1.062,-0.185 -1.472,-0.478l-0.319,0.595c0.436,0.35 1.125,0.553 1.791,0.553c1.35,-0 2.272,-0.787 2.272,-2.169l0,-3.978l-0.737,0l-0,0.581c-0.324,-0.41 -0.81,-0.671 -1.472,-0.671Zm0.086,0.693c0.85,-0 1.449,0.648 1.449,1.498c-0,0.855 -0.599,1.504 -1.449,1.504c-0.878,-0 -1.45,-0.671 -1.45,-1.504c0,-0.823 0.572,-1.498 1.45,-1.498Z" style="fill:#fff;fill-rule:nonzero;"/><path d="M75.4,392.125l-0.81,0l-3.821,7.83l0.81,-0l3.821,-7.83Z" style="fill:#fff;fill-rule:nonzero;"/><path d="M77.794,394.69c-0.676,0 -1.175,0.261 -1.508,0.661l-0,-0.571l-0.733,0l-0,6.075l0.733,-0l-0,-2.371c0.333,0.4 0.832,0.661 1.508,0.661c1.197,-0 2.137,-0.936 2.137,-2.227c-0,-1.292 -0.94,-2.228 -2.137,-2.228Zm-0.086,0.693c0.873,-0 1.467,0.684 1.467,1.534c0,0.851 -0.58,1.54 -1.467,1.54c-0.864,-0 -1.467,-0.662 -1.467,-1.54c-0,-0.873 0.603,-1.534 1.467,-1.534Z" style="fill:#fff;fill-rule:nonzero;"/><path d="M85.223,394.78l-0.738,0l0,0.576c-0.337,-0.405 -0.837,-0.666 -1.507,-0.666c-1.202,0 -2.138,0.936 -2.138,2.227c0,1.292 0.936,2.228 2.138,2.228c0.67,-0 1.17,-0.261 1.507,-0.661l0,0.571l0.738,-0l-0,-4.275Zm-2.16,0.603c0.864,-0 1.467,0.661 1.467,1.534c0,0.878 -0.603,1.54 -1.467,1.54c-0.878,-0 -1.472,-0.689 -1.472,-1.54c0,-0.85 0.581,-1.534 1.472,-1.534Z" style="fill:#fff;fill-rule:nonzero;"/><path d="M87.513,394.78l-0.733,0l0,4.275l0.733,-0l0,-4.275Zm-0.373,-2.029c-0.292,-0 -0.517,0.229 -0.517,0.526c-0,0.293 0.225,0.513 0.517,0.513c0.292,0 0.526,-0.22 0.526,-0.513c0,-0.297 -0.234,-0.526 -0.526,-0.526Z" style="fill:#fff;fill-rule:nonzero;"/><path d="M91.199,394.69c-0.495,0 -1.049,0.166 -1.4,0.648l0,-0.558l-0.728,0l-0,4.275l0.733,-0l-0,-2.399c-0,-0.796 0.576,-1.269 1.265,-1.269c0.742,0 1.174,0.464 1.174,1.251l0,2.417l0.738,-0l-0,-2.655c-0,-1.026 -0.729,-1.71 -1.782,-1.71Z" style="fill:#fff;fill-rule:nonzero;"/></g></svg>