<?xml version="1.0" encoding="UTF-8" standalone="no"?><!DOCTYPE svg PUBLIC "-//W3C//DTD SVG 1.1//EN" "http://www.w3.org/Graphics/SVG/1.1/DTD/svg11.dtd"><svg width="100%" height="100%" viewBox="0 0 298 420" version="1.1" xmlns="http://www.w3.org/2000/svg" xmlns:xlink="http://www.w3.org/1999/xlink" xml:space="preserve" xmlns:serif="http://www.serif.com/" style="fill-rule:evenodd;clip-rule:evenodd;stroke-linejoin:round;stroke-miterlimit:2;"><clipPath id="_clip1"><rect x="-13.701" y="-14.173" width="345.827" height="460.63"/></clipPath><g clip-path="url(#_clip1)"><g id="Ebene-1" serif:id="Ebene 1"><rect x="-13.701" y="-14.173" width="345.827" height="460.63" style="fill:#004153;"/><g><rect x="218.758" y="385.673" width="3.28" height="13.775" style="fill:#fff;"/><path d="M245.758,399.449l-0,-13.776l-3.28,0l-0,8.423l-6.298,-8.423l-3.148,0l-0,8.423l-6.271,-8.423l-3.149,0l-0,13.776l3.28,-0l-0,-8.397l6.271,8.397l3.175,-0l-0,-8.397l6.271,8.397l3.149,-0Z" style="fill:#fff;fill-rule:nonzero;"/><path d="M254.154,388.56c2.23,-0 3.831,1.627 3.831,3.988c-0,2.362 -1.601,3.988 -3.831,3.988c-2.257,0 -3.831,-1.626 -3.831,-3.988c0,-2.361 1.601,-3.988 3.831,-3.988m0,-3.149c-4.251,0 -7.268,3.044 -7.268,7.137c-0,4.093 3.017,7.137 7.268,7.137c4.251,0 7.268,-3.044 7.268,-7.137c0,-4.093 -3.017,-7.137 -7.268,-7.137" style="fill:#fff;fill-rule:nonzero;"/><path d="M269.609,388.56c2.23,-0 3.831,1.627 3.831,3.988c-0,0.446 -0.053,0.866 -0.158,1.26l-0.446,-0.604l-3.568,0l2.177,2.913c-0.524,0.262 -1.154,0.419 -1.81,0.419c-2.23,0 -3.831,-1.626 -3.831,-3.988c-0.026,-2.335 1.574,-3.988 3.805,-3.988m-0,-3.149c-4.251,0 -7.268,3.044 -7.268,7.137c-0,4.093 3.017,7.137 7.268,7.137c1.443,0 2.676,-0.394 3.726,-1.076l0.603,0.814l3.857,-0l-2.178,-2.939c0.761,-1.102 1.207,-2.388 1.207,-3.936c0.053,-4.093 -2.965,-7.137 -7.215,-7.137" style="fill:#f39260;fill-rule:nonzero;"/></g></g></g><g id="Ebene-11" serif:id="Ebene 1"><g><g><path d="M43.515,345.823c-13.763,-0.721 -24.374,-12.505 -23.652,-26.268l10.357,-197.634c0.721,-13.763 12.506,-24.374 26.269,-23.653l197.633,10.358c13.764,0.721 24.374,12.506 23.653,26.269l-10.357,197.633c-0.722,13.763 -12.506,24.374 -26.269,23.653l-197.634,-10.358Z" style="fill:#fff;fill-rule:nonzero;"/><path d="M253.842,113.972c10.816,0.567 19.154,9.827 18.587,20.643l-10.357,197.634c-0.567,10.815 -9.828,19.153 -20.643,18.587l-197.634,-10.358c-10.816,-0.567 -19.154,-9.827 -18.587,-20.643l10.358,-197.634c0.567,-10.815 9.827,-19.153 20.642,-18.587l197.634,10.358Zm0.561,-10.691l-197.634,-10.358c-16.668,-0.874 -31.021,12.049 -31.895,28.718l-10.357,197.634c-0.874,16.668 12.049,31.021 28.718,31.894l197.633,10.358c16.669,0.874 31.022,-12.05 31.895,-28.718l10.358,-197.634c0.873,-16.668 -12.05,-31.021 -28.718,-31.894Z" style="fill:#fe0;fill-rule:nonzero;"/></g><path d="M121.237,99.222c-0.571,-0.439 -1.28,-0.756 -2.228,-0.805c-1.326,-0.07 -2.44,0.552 -2.503,1.765c-0.057,1.074 0.744,1.598 1.776,1.779l0.581,0.102c0.973,0.173 1.484,0.479 1.454,1.063c-0.038,0.71 -0.795,1.054 -1.734,1.005c-0.8,-0.042 -1.597,-0.404 -2.013,-0.804l-0.464,0.606c0.58,0.54 1.543,0.901 2.438,0.948c1.362,0.071 2.532,-0.525 2.598,-1.779c0.058,-1.11 -0.831,-1.589 -1.889,-1.775l-0.55,-0.097c-0.937,-0.166 -1.403,-0.483 -1.373,-1.054c0.036,-0.679 0.713,-1.058 1.635,-1.01c0.728,0.038 1.34,0.305 1.834,0.678l0.438,-0.622Z" style="fill:#004153;fill-rule:nonzero;"/><path d="M124.569,100.736c-1.294,-0.068 -2.305,0.838 -2.372,2.106c-0.066,1.267 0.845,2.274 2.139,2.342c1.295,0.068 2.31,-0.838 2.377,-2.106c0.066,-1.267 -0.849,-2.274 -2.144,-2.342Zm-0.036,0.691c0.854,0.045 1.472,0.717 1.425,1.612c-0.046,0.894 -0.732,1.503 -1.586,1.458c-0.858,-0.045 -1.472,-0.722 -1.425,-1.616c0.047,-0.894 0.728,-1.499 1.586,-1.454Z" style="fill:#004153;fill-rule:nonzero;"/><path d="M130.793,101.152l-1.64,-0.086l0.038,-0.728c0.029,-0.553 0.27,-0.865 0.778,-0.838c0.315,0.016 0.628,0.145 0.846,0.292l0.297,-0.602c-0.296,-0.2 -0.671,-0.355 -1.156,-0.38c-1.007,-0.053 -1.455,0.595 -1.502,1.489l-0.038,0.729l-0.948,-0.05l-0.035,0.669l0.948,0.05l-0.189,3.599l0.737,0.039l0.188,-3.6l1.641,0.086l0.035,-0.669Z" style="fill:#004153;fill-rule:nonzero;"/><path d="M134.662,101.355l-1.793,-0.094l0.07,-1.339l-0.736,-0.039l-0.07,1.339l-0.913,-0.048l-0.035,0.67l0.912,0.047l-0.109,2.095c-0.057,1.087 0.468,1.624 1.394,1.672c0.526,0.028 0.962,-0.134 1.303,-0.355l-0.317,-0.57c-0.252,0.153 -0.572,0.258 -0.887,0.242c-0.463,-0.025 -0.79,-0.321 -0.756,-0.964l0.109,-2.081l1.793,0.094l0.035,-0.669Z" style="fill:#004153;fill-rule:nonzero;"/><path d="M139.295,101.598l-0.831,-0.044l-1.401,3.428l-1.026,-3.555l-0.786,-0.041l1.313,4.349l0.863,0.045l1.4,-3.409l1.04,3.537l0.876,0.046l1.761,-4.188l-0.768,-0.04l-1.397,3.436l-1.044,-3.564Z" style="fill:#004153;fill-rule:nonzero;"/><path d="M147.519,102.029l-0.737,-0.039l-0.03,0.575c-0.316,-0.422 -0.801,-0.709 -1.471,-0.744c-1.2,-0.063 -2.183,0.823 -2.25,2.113c-0.068,1.29 0.817,2.273 2.017,2.336c0.67,0.035 1.183,-0.2 1.541,-0.582l-0.03,0.571l0.736,0.038l0.224,-4.268Zm-2.188,0.488c0.863,0.045 1.43,0.738 1.384,1.61c-0.045,0.876 -0.682,1.505 -1.545,1.46c-0.877,-0.046 -1.434,-0.765 -1.39,-1.614c0.045,-0.85 0.661,-1.502 1.551,-1.456Z" style="fill:#004153;fill-rule:nonzero;"/><path d="M151.051,102.124c-0.508,-0.027 -0.965,0.183 -1.283,0.585l0.029,-0.561l-0.723,-0.038l-0.223,4.269l0.732,0.038l0.124,-2.377c0.041,-0.787 0.526,-1.261 1.177,-1.227c0.243,0.013 0.528,0.086 0.724,0.204l0.218,-0.713c-0.224,-0.111 -0.469,-0.164 -0.775,-0.18Z" style="fill:#004153;fill-rule:nonzero;"/><path d="M154.462,102.302c-1.227,-0.064 -2.168,0.801 -2.237,2.113c-0.07,1.331 0.782,2.272 2.049,2.338c0.629,0.033 1.231,-0.088 1.786,-0.555l-0.364,-0.524c-0.38,0.296 -0.844,0.466 -1.343,0.439c-0.733,-0.038 -1.326,-0.506 -1.383,-1.397l3.357,0.176c0.009,-0.081 0.023,-0.179 0.028,-0.274c0.059,-1.308 -0.729,-2.255 -1.893,-2.316Zm-0.047,0.651c0.692,0.036 1.156,0.547 1.207,1.307l-2.612,-0.137c0.151,-0.722 0.65,-1.21 1.405,-1.17Z" style="fill:#004153;fill-rule:nonzero;"/><path d="M162.345,102.716c-0.675,-0.036 -1.187,0.198 -1.541,0.581l0.145,-2.772l-0.731,-0.039l-0.34,6.471l0.732,0.038l0.03,-0.571c0.312,0.418 0.797,0.705 1.471,0.74c1.196,0.063 2.184,-0.823 2.251,-2.112c0.068,-1.29 -0.822,-2.274 -2.017,-2.336Zm-0.122,0.687c0.872,0.045 1.429,0.76 1.385,1.609c-0.045,0.849 -0.661,1.507 -1.546,1.46c-0.863,-0.045 -1.431,-0.737 -1.385,-1.614c0.046,-0.872 0.683,-1.501 1.546,-1.455Z" style="fill:#004153;fill-rule:nonzero;"/><path d="M167.683,102.995c-0.508,-0.026 -0.965,0.184 -1.283,0.586l0.029,-0.561l-0.723,-0.038l-0.224,4.268l0.732,0.039l0.125,-2.377c0.041,-0.787 0.525,-1.262 1.177,-1.228c0.243,0.013 0.527,0.087 0.724,0.205l0.218,-0.714c-0.224,-0.11 -0.47,-0.164 -0.775,-0.18Z" style="fill:#004153;fill-rule:nonzero;"/><path d="M171.094,103.174c-1.227,-0.064 -2.169,0.801 -2.237,2.113c-0.07,1.33 0.781,2.271 2.049,2.338c0.629,0.033 1.23,-0.089 1.786,-0.555l-0.364,-0.524c-0.381,0.296 -0.845,0.465 -1.344,0.439c-0.732,-0.038 -1.325,-0.507 -1.382,-1.398l3.357,0.176c0.009,-0.08 0.023,-0.179 0.028,-0.273c0.059,-1.308 -0.729,-2.255 -1.893,-2.316Zm-0.048,0.65c0.693,0.037 1.157,0.548 1.207,1.308l-2.611,-0.137c0.15,-0.722 0.649,-1.21 1.404,-1.171Z" style="fill:#004153;fill-rule:nonzero;"/><path d="M177.758,103.613l-0.831,-0.043l-1.401,3.427l-1.026,-3.554l-0.786,-0.042l1.313,4.35l0.863,0.045l1.4,-3.41l1.04,3.538l0.876,0.046l1.761,-4.188l-0.769,-0.041l-1.396,3.437l-1.044,-3.565Z" style="fill:#004153;fill-rule:nonzero;"/><path d="M183.731,103.836c-1.227,-0.064 -2.169,0.801 -2.238,2.113c-0.069,1.331 0.782,2.272 2.049,2.338c0.63,0.033 1.231,-0.089 1.787,-0.555l-0.364,-0.524c-0.381,0.296 -0.845,0.465 -1.344,0.439c-0.733,-0.038 -1.325,-0.506 -1.382,-1.398l3.356,0.176c0.009,-0.08 0.023,-0.178 0.028,-0.273c0.06,-1.308 -0.728,-2.255 -1.892,-2.316Zm-0.048,0.651c0.692,0.036 1.157,0.547 1.207,1.307l-2.611,-0.137c0.15,-0.722 0.649,-1.21 1.404,-1.17Z" style="fill:#004153;fill-rule:nonzero;"/><path d="M188.943,104.109c-0.508,-0.026 -0.965,0.184 -1.283,0.586l0.029,-0.561l-0.723,-0.038l-0.223,4.269l0.732,0.038l0.124,-2.377c0.041,-0.787 0.526,-1.262 1.177,-1.227c0.243,0.012 0.528,0.086 0.724,0.204l0.218,-0.713c-0.224,-0.111 -0.469,-0.164 -0.775,-0.181Z" style="fill:#004153;fill-rule:nonzero;"/><path d="M194.898,104.512l-0.809,-0.043l-1.598,2.548l-1.4,-2.705l-0.822,-0.043l1.77,3.459l-1.721,2.649l0.814,0.043l3.766,-5.908Z" style="fill:#004153;fill-rule:nonzero;"/><path d="M176.388,355.463c0.572,0.439 1.28,0.756 2.229,0.806c1.326,0.069 2.439,-0.553 2.503,-1.766c0.056,-1.074 -0.745,-1.598 -1.777,-1.779l-0.58,-0.102c-0.974,-0.173 -1.485,-0.479 -1.454,-1.063c0.037,-0.71 0.794,-1.054 1.734,-1.005c0.8,0.042 1.596,0.404 2.012,0.804l0.464,-0.606c-0.58,-0.539 -1.543,-0.901 -2.437,-0.947c-1.362,-0.072 -2.533,0.524 -2.599,1.778c-0.058,1.11 0.831,1.589 1.89,1.776l0.549,0.096c0.938,0.166 1.403,0.484 1.374,1.054c-0.036,0.679 -0.714,1.058 -1.635,1.01c-0.728,-0.038 -1.341,-0.305 -1.835,-0.678l-0.438,0.622Z" style="fill:#004153;fill-rule:nonzero;"/><path d="M173.056,353.949c1.295,0.068 2.306,-0.838 2.372,-2.106c0.067,-1.267 -0.844,-2.274 -2.139,-2.342c-1.294,-0.068 -2.31,0.838 -2.376,2.106c-0.067,1.267 0.849,2.274 2.143,2.342Zm0.036,-0.691c-0.854,-0.045 -1.472,-0.717 -1.425,-1.612c0.047,-0.894 0.732,-1.503 1.586,-1.458c0.859,0.045 1.472,0.722 1.425,1.616c-0.046,0.894 -0.727,1.499 -1.586,1.454Z" style="fill:#004153;fill-rule:nonzero;"/><path d="M166.833,353.533l1.64,0.086l-0.038,0.728c-0.029,0.553 -0.271,0.865 -0.779,0.838c-0.314,-0.016 -0.627,-0.145 -0.845,-0.292l-0.297,0.602c0.295,0.2 0.67,0.355 1.156,0.38c1.006,0.053 1.454,-0.595 1.501,-1.489l0.038,-0.728l0.949,0.049l0.035,-0.669l-0.949,-0.049l0.189,-3.6l-0.736,-0.039l-0.189,3.6l-1.64,-0.086l-0.035,0.669Z" style="fill:#004153;fill-rule:nonzero;"/><path d="M162.963,353.33l1.794,0.094l-0.071,1.339l0.737,0.039l0.07,-1.339l0.912,0.048l0.035,-0.669l-0.912,-0.048l0.11,-2.095c0.057,-1.087 -0.469,-1.624 -1.395,-1.672c-0.525,-0.028 -0.962,0.134 -1.302,0.355l0.317,0.571c0.251,-0.154 0.572,-0.259 0.887,-0.242c0.462,0.024 0.789,0.32 0.756,0.963l-0.109,2.081l-1.793,-0.094l-0.036,0.669Z" style="fill:#004153;fill-rule:nonzero;"/><path d="M158.33,353.087l0.831,0.044l1.401,-3.427l1.026,3.554l0.787,0.041l-1.314,-4.349l-0.862,-0.045l-1.4,3.409l-1.041,-3.537l-0.876,-0.046l-1.761,4.188l0.769,0.041l1.397,-3.437l1.043,3.564Z" style="fill:#004153;fill-rule:nonzero;"/><path d="M150.107,352.656l0.736,0.039l0.03,-0.575c0.316,0.422 0.801,0.709 1.471,0.744c1.2,0.063 2.183,-0.823 2.251,-2.112c0.068,-1.29 -0.818,-2.274 -2.018,-2.336c-0.67,-0.036 -1.182,0.199 -1.54,0.581l0.03,-0.571l-0.737,-0.038l-0.223,4.268Zm2.188,-0.488c-0.863,-0.045 -1.431,-0.738 -1.385,-1.61c0.046,-0.876 0.683,-1.505 1.546,-1.46c0.876,0.046 1.434,0.765 1.389,1.614c-0.045,0.85 -0.66,1.503 -1.55,1.456Z" style="fill:#004153;fill-rule:nonzero;"/><path d="M146.574,352.561c0.508,0.027 0.965,-0.183 1.284,-0.585l-0.03,0.561l0.723,0.038l0.224,-4.269l-0.732,-0.038l-0.125,2.377c-0.041,0.787 -0.525,1.261 -1.177,1.227c-0.243,-0.012 -0.527,-0.086 -0.724,-0.204l-0.217,0.713c0.224,0.111 0.469,0.164 0.774,0.18Z" style="fill:#004153;fill-rule:nonzero;"/><path d="M143.163,352.383c1.227,0.064 2.169,-0.801 2.238,-2.113c0.069,-1.331 -0.782,-2.272 -2.05,-2.338c-0.629,-0.033 -1.23,0.089 -1.786,0.555l0.364,0.524c0.381,-0.296 0.845,-0.465 1.344,-0.439c0.732,0.038 1.325,0.506 1.382,1.398l-3.357,-0.176c-0.008,0.08 -0.023,0.178 -0.027,0.273c-0.06,1.308 0.728,2.255 1.892,2.316Zm0.048,-0.651c-0.692,-0.036 -1.157,-0.547 -1.207,-1.307l2.611,0.137c-0.15,0.722 -0.649,1.21 -1.404,1.17Z" style="fill:#004153;fill-rule:nonzero;"/><path d="M135.281,351.97c0.674,0.035 1.187,-0.199 1.54,-0.582l-0.145,2.773l0.732,0.038l0.339,-6.471l-0.732,-0.038l-0.03,0.571c-0.311,-0.418 -0.797,-0.704 -1.471,-0.74c-1.196,-0.062 -2.183,0.823 -2.251,2.113c-0.067,1.29 0.822,2.273 2.018,2.336Zm0.122,-0.687c-0.872,-0.046 -1.43,-0.76 -1.385,-1.61c0.044,-0.849 0.66,-1.507 1.545,-1.46c0.863,0.045 1.431,0.737 1.385,1.614c-0.046,0.872 -0.682,1.501 -1.545,1.456Z" style="fill:#004153;fill-rule:nonzero;"/><path d="M129.943,351.69c0.507,0.026 0.965,-0.184 1.283,-0.586l-0.029,0.561l0.723,0.038l0.223,-4.268l-0.732,-0.039l-0.124,2.377c-0.042,0.787 -0.526,1.262 -1.178,1.228c-0.242,-0.013 -0.527,-0.087 -0.723,-0.205l-0.218,0.714c0.224,0.11 0.469,0.164 0.775,0.18Z" style="fill:#004153;fill-rule:nonzero;"/><path d="M126.531,351.511c1.228,0.064 2.169,-0.801 2.238,-2.113c0.07,-1.33 -0.782,-2.271 -2.049,-2.338c-0.63,-0.033 -1.231,0.089 -1.787,0.555l0.365,0.524c0.38,-0.296 0.844,-0.465 1.343,-0.439c0.733,0.038 1.326,0.507 1.383,1.398l-3.357,-0.176c-0.009,0.081 -0.023,0.179 -0.028,0.273c-0.06,1.308 0.728,2.255 1.892,2.316Zm0.048,-0.65c-0.692,-0.037 -1.157,-0.548 -1.207,-1.308l2.612,0.137c-0.151,0.723 -0.65,1.21 -1.405,1.171Z" style="fill:#004153;fill-rule:nonzero;"/><path d="M119.867,351.072l0.832,0.043l1.4,-3.427l1.026,3.554l0.787,0.042l-1.313,-4.349l-0.863,-0.046l-1.4,3.41l-1.04,-3.538l-0.877,-0.046l-1.76,4.189l0.768,0.04l1.397,-3.437l1.043,3.565Z" style="fill:#004153;fill-rule:nonzero;"/><path d="M113.895,350.849c1.227,0.064 2.168,-0.801 2.237,-2.113c0.07,-1.331 -0.781,-2.271 -2.049,-2.338c-0.629,-0.033 -1.231,0.089 -1.786,0.555l0.364,0.524c0.38,-0.296 0.844,-0.465 1.343,-0.439c0.733,0.038 1.326,0.507 1.383,1.398l-3.357,-0.176c-0.009,0.08 -0.023,0.179 -0.028,0.273c-0.059,1.308 0.729,2.255 1.893,2.316Zm0.047,-0.651c-0.692,-0.036 -1.156,-0.547 -1.207,-1.307l2.612,0.137c-0.151,0.722 -0.649,1.21 -1.405,1.17Z" style="fill:#004153;fill-rule:nonzero;"/><path d="M108.682,350.576c0.508,0.026 0.965,-0.184 1.284,-0.586l-0.03,0.561l0.723,0.038l0.224,-4.268l-0.732,-0.039l-0.125,2.377c-0.041,0.787 -0.525,1.262 -1.177,1.227c-0.243,-0.012 -0.527,-0.086 -0.724,-0.204l-0.217,0.713c0.224,0.111 0.469,0.165 0.774,0.181Z" style="fill:#004153;fill-rule:nonzero;"/><path d="M102.728,350.173l0.809,0.043l1.598,-2.548l1.399,2.705l0.823,0.043l-1.77,-3.459l1.72,-2.649l-0.813,-0.043l-3.766,5.908Z" style="fill:#004153;fill-rule:nonzero;"/><path d="M276.847,199.645c0.44,-0.572 0.756,-1.281 0.806,-2.229c0.069,-1.326 -0.552,-2.439 -1.766,-2.503c-1.074,-0.056 -1.598,0.745 -1.778,1.776l-0.103,0.581c-0.173,0.973 -0.479,1.485 -1.063,1.454c-0.71,-0.037 -1.053,-0.794 -1.004,-1.734c0.042,-0.8 0.403,-1.596 0.804,-2.012l-0.607,-0.464c-0.539,0.579 -0.9,1.543 -0.947,2.437c-0.072,1.362 0.525,2.533 1.778,2.598c1.11,0.059 1.59,-0.83 1.776,-1.889l0.096,-0.549c0.167,-0.938 0.484,-1.404 1.055,-1.374c0.678,0.036 1.057,0.714 1.009,1.635c-0.038,0.728 -0.305,1.341 -0.677,1.835l0.621,0.438Z" style="fill:#004153;fill-rule:nonzero;"/><path d="M275.334,202.977c0.067,-1.295 -0.839,-2.306 -2.106,-2.372c-1.268,-0.067 -2.275,0.844 -2.343,2.139c-0.068,1.294 0.838,2.31 2.106,2.376c1.267,0.067 2.275,-0.849 2.343,-2.143Zm-0.692,-0.036c-0.045,0.854 -0.717,1.472 -1.611,1.425c-0.895,-0.047 -1.504,-0.732 -1.459,-1.586c0.045,-0.859 0.722,-1.472 1.616,-1.425c0.895,0.046 1.499,0.727 1.454,1.586Z" style="fill:#004153;fill-rule:nonzero;"/><path d="M274.917,209.2l0.086,-1.64l0.729,0.038c0.552,0.029 0.864,0.271 0.838,0.779c-0.017,0.314 -0.146,0.627 -0.292,0.845l0.601,0.297c0.2,-0.296 0.355,-0.67 0.38,-1.156c0.053,-1.006 -0.594,-1.454 -1.489,-1.501l-0.728,-0.038l0.05,-0.949l-0.669,-0.035l-0.05,0.949l-3.6,-0.189l-0.038,0.736l3.599,0.189l-0.086,1.64l0.669,0.035Z" style="fill:#004153;fill-rule:nonzero;"/><path d="M274.715,213.069l0.093,-1.793l1.34,0.071l0.038,-0.737l-1.339,-0.07l0.048,-0.912l-0.669,-0.035l-0.048,0.912l-2.094,-0.11c-1.088,-0.057 -1.624,0.469 -1.673,1.394c-0.027,0.526 0.134,0.963 0.355,1.303l0.571,-0.317c-0.154,-0.251 -0.259,-0.572 -0.242,-0.887c0.024,-0.462 0.321,-0.789 0.963,-0.756l2.081,0.109l-0.093,1.793l0.669,0.035Z" style="fill:#004153;fill-rule:nonzero;"/><path d="M274.472,217.703l0.043,-0.832l-3.427,-1.4l3.554,-1.026l0.042,-0.787l-4.349,1.314l-0.046,0.862l3.41,1.4l-3.538,1.041l-0.045,0.876l4.188,1.76l0.04,-0.768l-3.437,-1.397l3.565,-1.043Z" style="fill:#004153;fill-rule:nonzero;"/><path d="M274.041,225.926l0.038,-0.736l-0.575,-0.03c0.422,-0.316 0.709,-0.801 0.744,-1.471c0.063,-1.2 -0.822,-2.183 -2.112,-2.251c-1.29,-0.068 -2.273,0.818 -2.336,2.018c-0.035,0.669 0.199,1.182 0.581,1.54l-0.57,-0.03l-0.039,0.737l4.269,0.223Zm-0.489,-2.188c-0.045,0.863 -0.737,1.431 -1.609,1.385c-0.877,-0.046 -1.506,-0.683 -1.461,-1.546c0.046,-0.876 0.765,-1.434 1.614,-1.389c0.85,0.044 1.503,0.66 1.456,1.55Z" style="fill:#004153;fill-rule:nonzero;"/><path d="M273.946,229.459c0.026,-0.508 -0.184,-0.965 -0.586,-1.284l0.561,0.03l0.038,-0.723l-4.268,-0.224l-0.039,0.732l2.377,0.125c0.787,0.041 1.262,0.525 1.228,1.177c-0.013,0.243 -0.087,0.527 -0.205,0.724l0.714,0.217c0.11,-0.224 0.164,-0.469 0.18,-0.774Z" style="fill:#004153;fill-rule:nonzero;"/><path d="M273.767,232.87c0.064,-1.227 -0.801,-2.169 -2.113,-2.238c-1.33,-0.069 -2.271,0.782 -2.338,2.05c-0.033,0.629 0.089,1.23 0.555,1.786l0.524,-0.364c-0.296,-0.381 -0.465,-0.845 -0.439,-1.344c0.038,-0.732 0.507,-1.325 1.398,-1.382l-0.176,3.357c0.08,0.008 0.179,0.022 0.273,0.027c1.308,0.06 2.255,-0.728 2.316,-1.892Zm-0.65,-0.048c-0.037,0.692 -0.548,1.157 -1.308,1.207l0.137,-2.611c0.722,0.15 1.21,0.649 1.171,1.404Z" style="fill:#004153;fill-rule:nonzero;"/><path d="M273.354,240.752c0.035,-0.674 -0.199,-1.187 -0.581,-1.54l2.772,0.145l0.038,-0.732l-6.47,-0.339l-0.039,0.732l0.571,0.03c-0.418,0.311 -0.704,0.797 -0.739,1.471c-0.063,1.195 0.822,2.183 2.112,2.251c1.29,0.067 2.273,-0.822 2.336,-2.018Zm-0.687,-0.122c-0.046,0.872 -0.76,1.43 -1.61,1.385c-0.849,-0.044 -1.506,-0.66 -1.46,-1.546c0.045,-0.863 0.738,-1.43 1.614,-1.384c0.872,0.045 1.501,0.682 1.456,1.545Z" style="fill:#004153;fill-rule:nonzero;"/><path d="M273.074,246.09c0.027,-0.507 -0.183,-0.965 -0.586,-1.283l0.562,0.029l0.038,-0.723l-4.269,-0.223l-0.038,0.732l2.377,0.124c0.786,0.041 1.261,0.526 1.227,1.178c-0.013,0.242 -0.086,0.527 -0.205,0.723l0.714,0.218c0.111,-0.224 0.164,-0.469 0.18,-0.775Z" style="fill:#004153;fill-rule:nonzero;"/><path d="M272.895,249.501c0.065,-1.227 -0.8,-2.168 -2.113,-2.237c-1.33,-0.07 -2.271,0.782 -2.337,2.049c-0.033,0.63 0.088,1.231 0.554,1.787l0.524,-0.365c-0.295,-0.38 -0.465,-0.844 -0.439,-1.343c0.039,-0.733 0.507,-1.326 1.398,-1.383l-0.176,3.357c0.081,0.009 0.179,0.023 0.273,0.028c1.309,0.06 2.255,-0.728 2.316,-1.893Zm-0.65,-0.047c-0.036,0.692 -0.548,1.157 -1.308,1.207l0.137,-2.612c0.723,0.151 1.211,0.65 1.171,1.405Z" style="fill:#004153;fill-rule:nonzero;"/><path d="M272.456,256.166l0.044,-0.832l-3.428,-1.401l3.555,-1.025l0.041,-0.787l-4.349,1.313l-0.045,0.863l3.409,1.4l-3.537,1.04l-0.046,0.877l4.188,1.76l0.04,-0.768l-3.437,-1.397l3.565,-1.043Z" style="fill:#004153;fill-rule:nonzero;"/><path d="M272.233,262.138c0.064,-1.227 -0.801,-2.169 -2.113,-2.237c-1.33,-0.07 -2.271,0.781 -2.338,2.049c-0.033,0.629 0.089,1.231 0.555,1.786l0.524,-0.364c-0.296,-0.38 -0.465,-0.845 -0.439,-1.343c0.038,-0.733 0.507,-1.326 1.398,-1.383l-0.176,3.357c0.081,0.009 0.179,0.023 0.273,0.028c1.308,0.059 2.255,-0.729 2.316,-1.893Zm-0.65,-0.048c-0.037,0.693 -0.548,1.157 -1.308,1.207l0.137,-2.611c0.723,0.151 1.21,0.649 1.171,1.404Z" style="fill:#004153;fill-rule:nonzero;"/><path d="M271.96,267.351c0.027,-0.508 -0.184,-0.965 -0.586,-1.284l0.561,0.03l0.038,-0.723l-4.268,-0.224l-0.039,0.732l2.377,0.125c0.787,0.041 1.262,0.525 1.228,1.177c-0.013,0.243 -0.086,0.527 -0.205,0.724l0.714,0.217c0.111,-0.224 0.164,-0.469 0.18,-0.774Z" style="fill:#004153;fill-rule:nonzero;"/><path d="M271.558,273.305l0.042,-0.809l-2.548,-1.598l2.705,-1.399l0.043,-0.823l-3.458,1.77l-2.65,-1.72l-0.042,0.813l5.908,3.766Z" style="fill:#004153;fill-rule:nonzero;"/><path d="M20.791,254.805c-0.44,0.572 -0.756,1.281 -0.806,2.229c-0.069,1.326 0.552,2.439 1.766,2.503c1.074,0.056 1.598,-0.745 1.778,-1.776l0.103,-0.581c0.172,-0.973 0.479,-1.485 1.063,-1.454c0.71,0.037 1.053,0.794 1.004,1.734c-0.042,0.8 -0.404,1.596 -0.804,2.012l0.607,0.464c0.539,-0.579 0.9,-1.543 0.947,-2.437c0.071,-1.362 -0.525,-2.533 -1.779,-2.598c-1.11,-0.059 -1.589,0.83 -1.775,1.889l-0.096,0.549c-0.167,0.938 -0.484,1.404 -1.055,1.374c-0.678,-0.036 -1.058,-0.714 -1.009,-1.635c0.038,-0.728 0.304,-1.341 0.677,-1.835l-0.621,-0.438Z" style="fill:#004153;fill-rule:nonzero;"/><path d="M22.304,251.473c-0.068,1.295 0.839,2.306 2.106,2.372c1.268,0.067 2.275,-0.844 2.343,-2.139c0.067,-1.294 -0.839,-2.31 -2.106,-2.376c-1.268,-0.067 -2.275,0.849 -2.343,2.143Zm0.692,0.036c0.044,-0.854 0.717,-1.472 1.611,-1.425c0.895,0.047 1.503,0.732 1.459,1.586c-0.045,0.859 -0.722,1.472 -1.617,1.425c-0.894,-0.046 -1.498,-0.727 -1.453,-1.586Z" style="fill:#004153;fill-rule:nonzero;"/><path d="M22.72,245.25l-0.085,1.64l-0.729,-0.038c-0.553,-0.029 -0.865,-0.271 -0.838,-0.779c0.017,-0.314 0.146,-0.627 0.292,-0.845l-0.601,-0.297c-0.2,0.296 -0.355,0.67 -0.381,1.156c-0.052,1.006 0.595,1.454 1.49,1.501l0.728,0.038l-0.05,0.949l0.669,0.035l0.05,-0.949l3.6,0.189l0.038,-0.736l-3.599,-0.189l0.086,-1.64l-0.67,-0.035Z" style="fill:#004153;fill-rule:nonzero;"/><path d="M22.923,241.381l-0.094,1.793l-1.339,-0.071l-0.038,0.737l1.339,0.07l-0.048,0.912l0.669,0.035l0.048,-0.912l2.094,0.11c1.088,0.057 1.624,-0.469 1.673,-1.394c0.027,-0.526 -0.135,-0.963 -0.355,-1.303l-0.571,0.317c0.154,0.251 0.258,0.572 0.242,0.887c-0.024,0.462 -0.321,0.789 -0.964,0.756l-2.081,-0.109l0.094,-1.793l-0.669,-0.035Z" style="fill:#004153;fill-rule:nonzero;"/><path d="M23.166,236.747l-0.043,0.831l3.427,1.401l-3.555,1.026l-0.041,0.787l4.349,-1.314l0.045,-0.862l-3.409,-1.4l3.537,-1.041l0.046,-0.876l-4.188,-1.76l-0.04,0.768l3.437,1.397l-3.565,1.043Z" style="fill:#004153;fill-rule:nonzero;"/><path d="M23.597,228.524l-0.039,0.736l0.576,0.03c-0.423,0.316 -0.709,0.801 -0.744,1.471c-0.063,1.2 0.822,2.183 2.112,2.251c1.29,0.068 2.273,-0.818 2.336,-2.018c0.035,-0.669 -0.199,-1.182 -0.581,-1.54l0.57,0.03l0.039,-0.737l-4.269,-0.223Zm0.489,2.188c0.045,-0.863 0.737,-1.431 1.609,-1.385c0.877,0.046 1.506,0.683 1.461,1.546c-0.046,0.876 -0.765,1.434 -1.615,1.389c-0.849,-0.044 -1.502,-0.66 -1.455,-1.55Z" style="fill:#004153;fill-rule:nonzero;"/><path d="M23.692,224.991c-0.027,0.508 0.184,0.965 0.586,1.284l-0.562,-0.03l-0.037,0.723l4.268,0.224l0.039,-0.732l-2.377,-0.125c-0.787,-0.041 -1.262,-0.525 -1.228,-1.177c0.013,-0.243 0.086,-0.527 0.205,-0.724l-0.714,-0.217c-0.111,0.224 -0.164,0.469 -0.18,0.774Z" style="fill:#004153;fill-rule:nonzero;"/><path d="M23.871,221.58c-0.064,1.227 0.8,2.169 2.113,2.238c1.33,0.069 2.271,-0.782 2.338,-2.05c0.033,-0.629 -0.089,-1.23 -0.555,-1.786l-0.524,0.364c0.295,0.381 0.465,0.845 0.439,1.344c-0.039,0.732 -0.507,1.325 -1.398,1.382l0.176,-3.357c-0.081,-0.008 -0.179,-0.022 -0.273,-0.027c-1.309,-0.06 -2.255,0.728 -2.316,1.892Zm0.65,0.048c0.036,-0.692 0.548,-1.157 1.308,-1.207l-0.137,2.611c-0.723,-0.15 -1.21,-0.649 -1.171,-1.404Z" style="fill:#004153;fill-rule:nonzero;"/><path d="M24.284,213.698c-0.035,0.674 0.199,1.187 0.581,1.54l-2.772,-0.145l-0.038,0.732l6.47,0.339l0.038,-0.732l-0.57,-0.03c0.417,-0.311 0.704,-0.797 0.739,-1.471c0.063,-1.195 -0.822,-2.183 -2.112,-2.251c-1.29,-0.067 -2.273,0.822 -2.336,2.018Zm0.687,0.122c0.046,-0.872 0.76,-1.43 1.609,-1.385c0.85,0.044 1.507,0.66 1.461,1.546c-0.045,0.863 -0.738,1.43 -1.614,1.384c-0.872,-0.045 -1.501,-0.682 -1.456,-1.545Z" style="fill:#004153;fill-rule:nonzero;"/><path d="M24.564,208.36c-0.027,0.507 0.183,0.965 0.585,1.283l-0.561,-0.029l-0.038,0.723l4.269,0.223l0.038,-0.732l-2.377,-0.124c-0.787,-0.041 -1.261,-0.526 -1.227,-1.178c0.013,-0.242 0.086,-0.527 0.205,-0.723l-0.714,-0.218c-0.111,0.224 -0.164,0.469 -0.18,0.775Z" style="fill:#004153;fill-rule:nonzero;"/><path d="M24.742,204.949c-0.064,1.227 0.801,2.168 2.113,2.237c1.331,0.07 2.272,-0.782 2.338,-2.049c0.033,-0.63 -0.088,-1.231 -0.555,-1.787l-0.524,0.365c0.296,0.38 0.466,0.844 0.439,1.343c-0.038,0.733 -0.506,1.326 -1.397,1.383l0.176,-3.357c-0.081,-0.009 -0.179,-0.023 -0.274,-0.028c-1.308,-0.06 -2.255,0.728 -2.316,1.893Zm0.651,0.047c0.036,-0.692 0.547,-1.157 1.307,-1.207l-0.137,2.612c-0.722,-0.151 -1.21,-0.65 -1.17,-1.405Z" style="fill:#004153;fill-rule:nonzero;"/><path d="M25.182,198.284l-0.044,0.832l3.428,1.401l-3.555,1.025l-0.041,0.787l4.349,-1.313l0.045,-0.863l-3.409,-1.4l3.537,-1.04l0.046,-0.877l-4.188,-1.76l-0.04,0.768l3.436,1.397l-3.564,1.043Z" style="fill:#004153;fill-rule:nonzero;"/><path d="M25.405,192.312c-0.065,1.227 0.8,2.168 2.113,2.237c1.33,0.07 2.271,-0.781 2.337,-2.049c0.033,-0.629 -0.088,-1.231 -0.554,-1.786l-0.524,0.364c0.295,0.38 0.465,0.845 0.439,1.343c-0.039,0.733 -0.507,1.326 -1.398,1.383l0.176,-3.357c-0.081,-0.009 -0.179,-0.023 -0.273,-0.028c-1.309,-0.059 -2.255,0.729 -2.316,1.893Zm0.65,0.047c0.036,-0.692 0.548,-1.156 1.308,-1.207l-0.137,2.612c-0.723,-0.151 -1.211,-0.649 -1.171,-1.405Z" style="fill:#004153;fill-rule:nonzero;"/><path d="M25.678,187.099c-0.027,0.508 0.183,0.965 0.586,1.284l-0.562,-0.03l-0.038,0.723l4.269,0.224l0.038,-0.732l-2.377,-0.125c-0.786,-0.041 -1.261,-0.525 -1.227,-1.177c0.013,-0.243 0.086,-0.527 0.205,-0.724l-0.714,-0.217c-0.111,0.224 -0.164,0.469 -0.18,0.774Z" style="fill:#004153;fill-rule:nonzero;"/><path d="M26.08,181.145l-0.042,0.809l2.547,1.598l-2.704,1.399l-0.043,0.823l3.458,-1.77l2.649,1.72l0.043,-0.813l-5.908,-3.766Z" style="fill:#004153;fill-rule:nonzero;"/></g><g transform="matrix(1,0,0,1,126.378,45.1181)"><g transform="matrix(16,0,0,16,-106.535,-13.7561)"><path d="M0.474,-0.7l-0.2,0l-0.268,0.7l0.174,-0l0.053,-0.147l0.278,-0l0.053,0.147l0.179,-0l-0.269,-0.7Zm-0.102,0.166l0.085,0.236l-0.17,0l0.085,-0.236Z" style="fill:#fff;fill-rule:nonzero;"/></g><g transform="matrix(16,0,0,16,-94.5594,-13.7561)"><path d="M0.339,-0.504c-0.06,0 -0.106,0.023 -0.134,0.07l-0,-0.056l-0.15,-0l0,0.49l0.156,-0l0,-0.265c0,-0.061 0.034,-0.089 0.09,-0.089c0.028,0 0.057,0.006 0.078,0.013l0.015,-0.155c-0.012,-0.004 -0.032,-0.008 -0.055,-0.008Z" style="fill:#fff;fill-rule:nonzero;"/></g><g transform="matrix(16,0,0,16,-88.1994,-13.7561)"><path d="M0.293,-0.504c-0.156,0 -0.264,0.108 -0.264,0.259c0,0.15 0.108,0.258 0.264,0.258c0.091,-0 0.163,-0.04 0.21,-0.106l-0.122,-0.087c-0.024,0.031 -0.055,0.047 -0.092,0.047c-0.055,0 -0.1,-0.041 -0.1,-0.112c-0,-0.071 0.046,-0.113 0.101,-0.113c0.038,-0 0.066,0.015 0.09,0.047l0.123,-0.086c-0.047,-0.066 -0.119,-0.107 -0.21,-0.107Z" style="fill:#fff;fill-rule:nonzero;"/></g><g transform="matrix(16,0,0,16,-79.8954,-13.7561)"><path d="M0.211,-0.72l-0.156,-0l0,0.72l0.156,-0l0,-0.264c0,-0.064 0.036,-0.093 0.08,-0.093c0.049,-0 0.078,0.032 0.078,0.09l-0,0.267l0.156,-0l-0,-0.322c-0,-0.113 -0.076,-0.182 -0.174,-0.182c-0.061,0 -0.109,0.021 -0.14,0.065l0,-0.281Z" style="fill:#fff;fill-rule:nonzero;"/></g><g transform="matrix(16,0,0,16,-70.6714,-13.7561)"><path d="M0.211,-0.49l-0.156,-0l0,0.49l0.156,-0l0,-0.49Zm-0.078,-0.245c-0.053,-0 -0.094,0.041 -0.094,0.094c0,0.052 0.041,0.093 0.094,0.093c0.052,-0 0.093,-0.041 0.093,-0.093c-0,-0.053 -0.041,-0.094 -0.093,-0.094Z" style="fill:#fff;fill-rule:nonzero;"/></g><g transform="matrix(16,0,0,16,-66.4154,-13.7561)"><path d="M0.432,-0.49l-0.168,-0l0,-0.143l-0.156,-0l0,0.143l-0.091,-0l-0,0.138l0.091,-0l0,0.164c0,0.123 0.06,0.201 0.191,0.201c0.079,-0 0.128,-0.023 0.174,-0.055l-0.054,-0.121c-0.025,0.014 -0.056,0.03 -0.085,0.03c-0.04,0 -0.07,-0.019 -0.07,-0.075l0,-0.144l0.168,-0l-0,-0.138Z" style="fill:#fff;fill-rule:nonzero;"/></g><g transform="matrix(16,0,0,16,-58.9434,-13.7561)"><path d="M0.281,-0.504c-0.15,0 -0.252,0.107 -0.252,0.261c0,0.154 0.104,0.256 0.259,0.256c0.09,-0 0.164,-0.03 0.215,-0.08l-0.1,-0.095c-0.031,0.029 -0.071,0.044 -0.107,0.044c-0.055,-0 -0.093,-0.025 -0.106,-0.079l0.333,-0c0.002,-0.011 0.003,-0.033 0.003,-0.049c-0.001,-0.153 -0.1,-0.258 -0.245,-0.258Zm0,0.133c0.046,-0 0.076,0.026 0.089,0.075l-0.179,0c0.012,-0.049 0.041,-0.075 0.09,-0.075Z" style="fill:#fff;fill-rule:nonzero;"/></g><g transform="matrix(16,0,0,16,-50.0634,-13.7561)"><path d="M0.293,-0.504c-0.156,0 -0.264,0.108 -0.264,0.259c0,0.15 0.108,0.258 0.264,0.258c0.091,-0 0.163,-0.04 0.21,-0.106l-0.122,-0.087c-0.024,0.031 -0.055,0.047 -0.092,0.047c-0.055,0 -0.1,-0.041 -0.1,-0.112c-0,-0.071 0.046,-0.113 0.101,-0.113c0.038,-0 0.066,0.015 0.09,0.047l0.123,-0.086c-0.047,-0.066 -0.119,-0.107 -0.21,-0.107Z" style="fill:#fff;fill-rule:nonzero;"/></g><g transform="matrix(16,0,0,16,-41.6794,-13.7561)"><path d="M0.432,-0.49l-0.168,-0l0,-0.143l-0.156,-0l0,0.143l-0.091,-0l-0,0.138l0.091,-0l0,0.164c0,0.123 0.06,0.201 0.191,0.201c0.079,-0 0.128,-0.023 0.174,-0.055l-0.054,-0.121c-0.025,0.014 -0.056,0.03 -0.085,0.03c-0.04,0 -0.07,-0.019 -0.07,-0.075l0,-0.144l0.168,-0l-0,-0.138Z" style="fill:#fff;fill-rule:nonzero;"/></g><g transform="matrix(16,0,0,16,-34.1514,-13.7561)"><path d="M0.525,-0.49l-0.156,-0l0,0.266c0,0.063 -0.034,0.091 -0.081,0.091c-0.047,0 -0.08,-0.028 -0.08,-0.091l-0,-0.266l-0.156,-0l-0,0.28c-0,0.153 0.105,0.223 0.236,0.223c0.131,-0 0.237,-0.07 0.237,-0.223l-0,-0.28Z" style="fill:#fff;fill-rule:nonzero;"/></g><g transform="matrix(16,0,0,16,-24.9274,-13.7561)"><path d="M0.339,-0.504c-0.06,0 -0.106,0.023 -0.134,0.07l-0,-0.056l-0.15,-0l0,0.49l0.156,-0l0,-0.265c0,-0.061 0.034,-0.089 0.09,-0.089c0.028,0 0.057,0.006 0.078,0.013l0.015,-0.155c-0.012,-0.004 -0.032,-0.008 -0.055,-0.008Z" style="fill:#fff;fill-rule:nonzero;"/></g><g transform="matrix(16,0,0,16,-18.5674,-13.7561)"><path d="M0.281,-0.504c-0.15,0 -0.252,0.107 -0.252,0.261c0,0.154 0.104,0.256 0.259,0.256c0.09,-0 0.164,-0.03 0.215,-0.08l-0.1,-0.095c-0.031,0.029 -0.071,0.044 -0.107,0.044c-0.055,-0 -0.093,-0.025 -0.106,-0.079l0.333,-0c0.002,-0.011 0.003,-0.033 0.003,-0.049c-0.001,-0.153 -0.1,-0.258 -0.245,-0.258Zm0,0.133c0.046,-0 0.076,0.026 0.089,0.075l-0.179,0c0.012,-0.049 0.041,-0.075 0.09,-0.075Z" style="fill:#fff;fill-rule:nonzero;"/></g><g transform="matrix(16,0,0,16,-6.09543,-13.7561)"><path d="M0.295,-0.504c-0.153,0 -0.266,0.11 -0.266,0.259c0,0.148 0.113,0.258 0.266,0.258c0.154,-0 0.266,-0.11 0.266,-0.258c0,-0.149 -0.112,-0.259 -0.266,-0.259Zm-0,0.146c0.062,-0 0.107,0.046 0.107,0.113c-0,0.066 -0.045,0.112 -0.107,0.112c-0.061,0 -0.106,-0.046 -0.106,-0.112c-0,-0.067 0.045,-0.113 0.106,-0.113Z" style="fill:#fff;fill-rule:nonzero;"/></g><g transform="matrix(16,0,0,16,3.35257,-13.7561)"><path d="M0.351,-0.504c-0.066,0 -0.115,0.024 -0.146,0.075l-0,-0.061l-0.15,-0l0,0.49l0.156,-0l0,-0.264c0,-0.064 0.036,-0.093 0.08,-0.093c0.049,-0 0.078,0.032 0.078,0.09l-0,0.267l0.156,-0l-0,-0.322c-0,-0.113 -0.076,-0.182 -0.174,-0.182Z" style="fill:#fff;fill-rule:nonzero;"/></g><g transform="matrix(16,0,0,16,16.1686,-13.7561)"><path d="M0.549,-0.49l-0.151,-0l0,0.053c-0.029,-0.039 -0.074,-0.067 -0.141,-0.067c-0.131,0 -0.228,0.114 -0.228,0.258c0,0.145 0.097,0.259 0.228,0.259c0.067,-0 0.112,-0.028 0.141,-0.066l0,0.053l0.151,-0l0,-0.49Zm-0.254,0.132c0.061,-0 0.105,0.047 0.105,0.113c-0,0.065 -0.044,0.112 -0.105,0.112c-0.063,0 -0.105,-0.048 -0.105,-0.112c-0,-0.065 0.042,-0.113 0.105,-0.113Z" style="fill:#fff;fill-rule:nonzero;"/></g><g transform="matrix(16,0,0,16,29.4246,-13.7561)"><path d="M0.347,-0.504c-0.064,0 -0.107,0.025 -0.136,0.061l-0,-0.277l-0.156,0l0,0.72l0.151,-0l-0,-0.053c0.029,0.039 0.074,0.066 0.141,0.066c0.131,-0 0.228,-0.114 0.228,-0.259c-0,-0.144 -0.097,-0.258 -0.228,-0.258Zm-0.038,0.146c0.063,-0 0.105,0.048 0.105,0.113c0,0.064 -0.042,0.112 -0.105,0.112c-0.062,0 -0.105,-0.047 -0.105,-0.112c0,-0.066 0.043,-0.113 0.105,-0.113Z" style="fill:#fff;fill-rule:nonzero;"/></g><g transform="matrix(16,0,0,16,39.0886,-13.7561)"><path d="M0.281,-0.504c-0.15,0 -0.252,0.107 -0.252,0.261c0,0.154 0.104,0.256 0.259,0.256c0.09,-0 0.164,-0.03 0.215,-0.08l-0.1,-0.095c-0.031,0.029 -0.071,0.044 -0.107,0.044c-0.055,-0 -0.093,-0.025 -0.106,-0.079l0.333,-0c0.002,-0.011 0.003,-0.033 0.003,-0.049c-0.001,-0.153 -0.1,-0.258 -0.245,-0.258Zm0,0.133c0.046,-0 0.076,0.026 0.089,0.075l-0.179,0c0.012,-0.049 0.041,-0.075 0.09,-0.075Z" style="fill:#fff;fill-rule:nonzero;"/></g><g transform="matrix(16,0,0,16,47.9686,-13.7561)"><path d="M0.281,-0.504c-0.15,0 -0.252,0.107 -0.252,0.261c0,0.154 0.104,0.256 0.259,0.256c0.09,-0 0.164,-0.03 0.215,-0.08l-0.1,-0.095c-0.031,0.029 -0.071,0.044 -0.107,0.044c-0.055,-0 -0.093,-0.025 -0.106,-0.079l0.333,-0c0.002,-0.011 0.003,-0.033 0.003,-0.049c-0.001,-0.153 -0.1,-0.258 -0.245,-0.258Zm0,0.133c0.046,-0 0.076,0.026 0.089,0.075l-0.179,0c0.012,-0.049 0.041,-0.075 0.09,-0.075Z" style="fill:#fff;fill-rule:nonzero;"/></g><g transform="matrix(16,0,0,16,56.8486,-13.7561)"><path d="M0.339,-0.504c-0.06,0 -0.106,0.023 -0.134,0.07l-0,-0.056l-0.15,-0l0,0.49l0.156,-0l0,-0.265c0,-0.061 0.034,-0.089 0.09,-0.089c0.028,0 0.057,0.006 0.078,0.013l0.015,-0.155c-0.012,-0.004 -0.032,-0.008 -0.055,-0.008Z" style="fill:#fff;fill-rule:nonzero;"/></g><g transform="matrix(16,0,0,16,66.9606,-13.7561)"><path d="M0.293,-0.504c-0.156,0 -0.264,0.108 -0.264,0.259c0,0.15 0.108,0.258 0.264,0.258c0.091,-0 0.163,-0.04 0.21,-0.106l-0.122,-0.087c-0.024,0.031 -0.055,0.047 -0.092,0.047c-0.055,0 -0.1,-0.041 -0.1,-0.112c-0,-0.071 0.046,-0.113 0.101,-0.113c0.038,-0 0.066,0.015 0.09,0.047l0.123,-0.086c-0.047,-0.066 -0.119,-0.107 -0.21,-0.107Z" style="fill:#fff;fill-rule:nonzero;"/></g><g transform="matrix(16,0,0,16,75.1046,-13.7561)"><path d="M0.295,-0.504c-0.153,0 -0.266,0.11 -0.266,0.259c0,0.148 0.113,0.258 0.266,0.258c0.154,-0 0.266,-0.11 0.266,-0.258c0,-0.149 -0.112,-0.259 -0.266,-0.259Zm-0,0.146c0.062,-0 0.107,0.046 0.107,0.113c-0,0.066 -0.045,0.112 -0.107,0.112c-0.061,0 -0.106,-0.046 -0.106,-0.112c-0,-0.067 0.045,-0.113 0.106,-0.113Z" style="fill:#fff;fill-rule:nonzero;"/></g><g transform="matrix(16,0,0,16,84.5526,-13.7561)"><path d="M0.549,-0.49l-0.151,-0l0,0.053c-0.029,-0.039 -0.074,-0.067 -0.141,-0.067c-0.131,0 -0.228,0.114 -0.228,0.258c0,0.145 0.097,0.259 0.228,0.259c0.067,-0 0.112,-0.028 0.141,-0.066l0,0.053l0.151,-0l0,-0.49Zm-0.254,0.132c0.061,-0 0.105,0.047 0.105,0.113c-0,0.065 -0.044,0.112 -0.105,0.112c-0.063,0 -0.105,-0.048 -0.105,-0.112c-0,-0.065 0.042,-0.113 0.105,-0.113Z" style="fill:#fff;fill-rule:nonzero;"/></g><g transform="matrix(16,0,0,16,94.2166,-13.7561)"><path d="M0.467,-0.461c-0.08,-0.031 -0.131,-0.042 -0.211,-0.042c-0.133,-0 -0.211,0.059 -0.211,0.163c-0,0.088 0.055,0.138 0.172,0.155l0.029,0.004c0.056,0.009 0.078,0.016 0.078,0.035c-0,0.021 -0.02,0.032 -0.069,0.032c-0.068,0 -0.124,-0.017 -0.173,-0.046l-0.054,0.121c0.056,0.036 0.142,0.051 0.226,0.051c0.143,0 0.227,-0.064 0.227,-0.171c-0,-0.083 -0.056,-0.134 -0.16,-0.15l-0.036,-0.005c-0.049,-0.008 -0.08,-0.013 -0.08,-0.034c0,-0.018 0.016,-0.03 0.057,-0.03c0.051,0.001 0.114,0.018 0.162,0.038l0.043,-0.121Z" style="fill:#fff;fill-rule:nonzero;"/></g><g transform="matrix(16,0,0,16,102.241,-13.7561)"><path d="M0.432,-0.49l-0.168,-0l0,-0.143l-0.156,-0l0,0.143l-0.091,-0l-0,0.138l0.091,-0l0,0.164c0,0.123 0.06,0.201 0.191,0.201c0.079,-0 0.128,-0.023 0.174,-0.055l-0.054,-0.121c-0.025,0.014 -0.056,0.03 -0.085,0.03c-0.04,0 -0.07,-0.019 -0.07,-0.075l0,-0.144l0.168,-0l-0,-0.138Z" style="fill:#fff;fill-rule:nonzero;"/></g><g transform="matrix(16,0,0,16,109.713,-13.7561)"><path d="M0.281,-0.504c-0.15,0 -0.252,0.107 -0.252,0.261c0,0.154 0.104,0.256 0.259,0.256c0.09,-0 0.164,-0.03 0.215,-0.08l-0.1,-0.095c-0.031,0.029 -0.071,0.044 -0.107,0.044c-0.055,-0 -0.093,-0.025 -0.106,-0.079l0.333,-0c0.002,-0.011 0.003,-0.033 0.003,-0.049c-0.001,-0.153 -0.1,-0.258 -0.245,-0.258Zm0,0.133c0.046,-0 0.076,0.026 0.089,0.075l-0.179,0c0.012,-0.049 0.041,-0.075 0.09,-0.075Z" style="fill:#fff;fill-rule:nonzero;"/></g><g transform="matrix(16,0,0,16,118.593,-13.7561)"><path d="M0.339,-0.504c-0.06,0 -0.106,0.023 -0.134,0.07l-0,-0.056l-0.15,-0l0,0.49l0.156,-0l0,-0.265c0,-0.061 0.034,-0.089 0.09,-0.089c0.028,0 0.057,0.006 0.078,0.013l0.015,-0.155c-0.012,-0.004 -0.032,-0.008 -0.055,-0.008Z" style="fill:#fff;fill-rule:nonzero;"/></g><g transform="matrix(12,0,0,12,-106.535,9.14785)"><path d="M0.601,-0.634c-0.065,-0.045 -0.146,-0.076 -0.251,-0.076c-0.148,0 -0.268,0.075 -0.268,0.21c0,0.12 0.092,0.174 0.207,0.188l0.066,0.008c0.109,0.013 0.167,0.044 0.167,0.109c0,0.079 -0.082,0.122 -0.187,0.122c-0.089,-0 -0.179,-0.036 -0.227,-0.078l-0.048,0.07c0.067,0.056 0.176,0.091 0.275,0.091c0.152,-0 0.278,-0.073 0.278,-0.212c0,-0.124 -0.101,-0.172 -0.219,-0.187l-0.062,-0.007c-0.105,-0.013 -0.159,-0.046 -0.159,-0.109c0,-0.076 0.073,-0.122 0.176,-0.122c0.081,0 0.151,0.026 0.208,0.065l0.044,-0.072Z" style="fill:#fff;fill-rule:nonzero;"/></g><g transform="matrix(12,0,0,12,-98.4534,9.14785)"><path d="M0.168,-0.72l-0.081,0l-0,0.72l0.081,-0l-0,-0.211l0.064,-0l0.18,0.211l0.103,-0l-0.215,-0.251l0.212,-0.224l-0.103,0l-0.176,0.19l-0.065,0l-0,-0.435Z" style="fill:#fff;fill-rule:nonzero;"/></g><g transform="matrix(12,0,0,12,-92.3094,9.14785)"><path d="M0.287,-0.485c-0.137,0 -0.236,0.101 -0.236,0.247c-0,0.149 0.099,0.248 0.241,0.248c0.07,-0 0.136,-0.017 0.194,-0.072l-0.043,-0.056c-0.04,0.035 -0.091,0.057 -0.146,0.057c-0.082,-0 -0.151,-0.049 -0.162,-0.148l0.373,0c0.001,-0.009 0.002,-0.02 0.002,-0.03c-0.001,-0.146 -0.094,-0.246 -0.223,-0.246Zm-0.002,0.072c0.077,0 0.132,0.054 0.142,0.139l-0.291,-0c0.012,-0.082 0.065,-0.139 0.149,-0.139Z" style="fill:#fff;fill-rule:nonzero;"/></g><g transform="matrix(12,0,0,12,-85.6434,9.14785)"><path d="M0.409,-0.475l-0.2,0l0,-0.149l-0.081,0l-0,0.149l-0.102,0l0,0.074l0.102,0l-0,0.234c-0,0.121 0.061,0.177 0.164,0.177c0.058,-0 0.106,-0.021 0.142,-0.047l-0.038,-0.061c-0.027,0.018 -0.062,0.032 -0.097,0.032c-0.052,-0 -0.09,-0.031 -0.09,-0.103l0,-0.232l0.2,0l-0,-0.074Z" style="fill:#fff;fill-rule:nonzero;"/></g><g transform="matrix(12,0,0,12,-80.2134,9.14785)"><path d="M0.297,-0.485c-0.147,0 -0.246,0.106 -0.246,0.247c-0,0.142 0.099,0.248 0.246,0.248c0.07,-0 0.133,-0.026 0.176,-0.074l-0.05,-0.057c-0.033,0.032 -0.078,0.055 -0.128,0.055c-0.092,-0 -0.161,-0.072 -0.161,-0.172c-0,-0.099 0.069,-0.17 0.161,-0.17c0.05,-0 0.091,0.019 0.126,0.053l0.052,-0.055c-0.042,-0.049 -0.106,-0.075 -0.176,-0.075Z" style="fill:#fff;fill-rule:nonzero;"/></g><g transform="matrix(12,0,0,12,-74.0634,9.14785)"><path d="M0.168,-0.72l-0.081,0l-0,0.72l0.081,-0l-0,-0.267c-0,-0.088 0.064,-0.141 0.141,-0.141c0.082,0 0.13,0.052 0.13,0.139l0,0.269l0.082,-0l-0,-0.295c-0,-0.114 -0.081,-0.19 -0.198,-0.19c-0.055,0 -0.116,0.018 -0.155,0.071l-0,-0.306Z" style="fill:#fff;fill-rule:nonzero;"/></g><g transform="matrix(12,0,0,12,-63.8454,9.14785)"><path d="M0.525,-0.475l-0.09,0l-0.163,0.292l-0.171,-0.292l-0.091,0l0.217,0.373l-0.176,0.304l0.09,0l0.384,-0.677Z" style="fill:#fff;fill-rule:nonzero;"/></g><g transform="matrix(12,0,0,12,-57.5634,9.14785)"><path d="M0.301,-0.485c-0.144,0 -0.25,0.106 -0.25,0.247c-0,0.142 0.106,0.248 0.25,0.248c0.145,-0 0.252,-0.106 0.252,-0.248c-0,-0.141 -0.107,-0.247 -0.252,-0.247Zm0,0.077c0.096,-0 0.168,0.071 0.168,0.17c0,0.1 -0.072,0.172 -0.168,0.172c-0.095,-0 -0.167,-0.072 -0.167,-0.172c-0,-0.099 0.072,-0.17 0.167,-0.17Z" style="fill:#fff;fill-rule:nonzero;"/></g><g transform="matrix(12,0,0,12,-50.3214,9.14785)"><path d="M0.515,-0.475l-0.082,0l0,0.269c0,0.097 -0.057,0.14 -0.135,0.14c-0.077,-0 -0.135,-0.043 -0.135,-0.14l0,-0.269l-0.081,0l-0,0.276c-0,0.144 0.102,0.209 0.216,0.209c0.114,-0 0.217,-0.065 0.217,-0.209l-0,-0.276Z" style="fill:#fff;fill-rule:nonzero;"/></g><g transform="matrix(12,0,0,12,-43.1634,9.14785)"><path d="M0.306,-0.485c-0.057,0 -0.106,0.026 -0.139,0.072l-0,-0.062l-0.08,0l-0,0.475l0.081,-0l-0,-0.264c-0,-0.088 0.051,-0.144 0.123,-0.144c0.027,0 0.059,0.007 0.082,0.019l0.02,-0.08c-0.026,-0.011 -0.053,-0.016 -0.087,-0.016Z" style="fill:#fff;fill-rule:nonzero;"/></g><g transform="matrix(12,0,0,12,-35.0574,9.14785)"><path d="M0.537,-0.475l-0.081,0l-0,0.064c-0.038,-0.045 -0.093,-0.074 -0.168,-0.074c-0.134,0 -0.237,0.104 -0.237,0.247c-0,0.144 0.103,0.248 0.237,0.248c0.075,-0 0.13,-0.029 0.168,-0.073l-0,0.063l0.081,-0l0,-0.475Zm-0.239,0.067c0.096,-0 0.163,0.073 0.163,0.17c-0,0.098 -0.067,0.172 -0.163,0.172c-0.098,-0 -0.164,-0.077 -0.164,-0.172c-0,-0.094 0.064,-0.17 0.164,-0.17Z" style="fill:#fff;fill-rule:nonzero;"/></g><g transform="matrix(12,0,0,12,-27.5694,9.14785)"><path d="M0.306,-0.485c-0.057,0 -0.106,0.026 -0.139,0.072l-0,-0.062l-0.08,0l-0,0.475l0.081,-0l-0,-0.264c-0,-0.088 0.051,-0.144 0.123,-0.144c0.027,0 0.059,0.007 0.082,0.019l0.02,-0.08c-0.026,-0.011 -0.053,-0.016 -0.087,-0.016Z" style="fill:#fff;fill-rule:nonzero;"/></g><g transform="matrix(12,0,0,12,-22.7814,9.14785)"><path d="M0.297,-0.485c-0.147,0 -0.246,0.106 -0.246,0.247c-0,0.142 0.099,0.248 0.246,0.248c0.07,-0 0.133,-0.026 0.176,-0.074l-0.05,-0.057c-0.033,0.032 -0.078,0.055 -0.128,0.055c-0.092,-0 -0.161,-0.072 -0.161,-0.172c-0,-0.099 0.069,-0.17 0.161,-0.17c0.05,-0 0.091,0.019 0.126,0.053l0.052,-0.055c-0.042,-0.049 -0.106,-0.075 -0.176,-0.075Z" style="fill:#fff;fill-rule:nonzero;"/></g><g transform="matrix(12,0,0,12,-16.6314,9.14785)"><path d="M0.168,-0.72l-0.081,0l-0,0.72l0.081,-0l-0,-0.267c-0,-0.088 0.064,-0.141 0.141,-0.141c0.082,0 0.13,0.052 0.13,0.139l0,0.269l0.082,-0l-0,-0.295c-0,-0.114 -0.081,-0.19 -0.198,-0.19c-0.055,0 -0.116,0.018 -0.155,0.071l-0,-0.306Z" style="fill:#fff;fill-rule:nonzero;"/></g><g transform="matrix(12,0,0,12,-9.40143,9.14785)"><path d="M0.168,-0.475l-0.081,0l-0,0.475l0.081,-0l-0,-0.475Zm-0.041,-0.225c-0.033,-0 -0.058,0.025 -0.058,0.058c0,0.033 0.025,0.057 0.058,0.057c0.032,0 0.058,-0.024 0.058,-0.057c-0,-0.033 -0.026,-0.058 -0.058,-0.058Z" style="fill:#fff;fill-rule:nonzero;"/></g><g transform="matrix(12,0,0,12,-6.34743,9.14785)"><path d="M0.409,-0.475l-0.2,0l0,-0.149l-0.081,0l-0,0.149l-0.102,0l0,0.074l0.102,0l-0,0.234c-0,0.121 0.061,0.177 0.164,0.177c0.058,-0 0.106,-0.021 0.142,-0.047l-0.038,-0.061c-0.027,0.018 -0.062,0.032 -0.097,0.032c-0.052,-0 -0.09,-0.031 -0.09,-0.103l0,-0.232l0.2,0l-0,-0.074Z" style="fill:#fff;fill-rule:nonzero;"/></g><g transform="matrix(12,0,0,12,-0.917433,9.14785)"><path d="M0.287,-0.485c-0.137,0 -0.236,0.101 -0.236,0.247c-0,0.149 0.099,0.248 0.241,0.248c0.07,-0 0.136,-0.017 0.194,-0.072l-0.043,-0.056c-0.04,0.035 -0.091,0.057 -0.146,0.057c-0.082,-0 -0.151,-0.049 -0.162,-0.148l0.373,0c0.001,-0.009 0.002,-0.02 0.002,-0.03c-0.001,-0.146 -0.094,-0.246 -0.223,-0.246Zm-0.002,0.072c0.077,0 0.132,0.054 0.142,0.139l-0.291,-0c0.012,-0.082 0.065,-0.139 0.149,-0.139Z" style="fill:#fff;fill-rule:nonzero;"/></g><g transform="matrix(12,0,0,12,5.80857,9.14785)"><path d="M0.297,-0.485c-0.147,0 -0.246,0.106 -0.246,0.247c-0,0.142 0.099,0.248 0.246,0.248c0.07,-0 0.133,-0.026 0.176,-0.074l-0.05,-0.057c-0.033,0.032 -0.078,0.055 -0.128,0.055c-0.092,-0 -0.161,-0.072 -0.161,-0.172c-0,-0.099 0.069,-0.17 0.161,-0.17c0.05,-0 0.091,0.019 0.126,0.053l0.052,-0.055c-0.042,-0.049 -0.106,-0.075 -0.176,-0.075Z" style="fill:#fff;fill-rule:nonzero;"/></g><g transform="matrix(12,0,0,12,12.0366,9.14785)"><path d="M0.409,-0.475l-0.2,0l0,-0.149l-0.081,0l-0,0.149l-0.102,0l0,0.074l0.102,0l-0,0.234c-0,0.121 0.061,0.177 0.164,0.177c0.058,-0 0.106,-0.021 0.142,-0.047l-0.038,-0.061c-0.027,0.018 -0.062,0.032 -0.097,0.032c-0.052,-0 -0.09,-0.031 -0.09,-0.103l0,-0.232l0.2,0l-0,-0.074Z" style="fill:#fff;fill-rule:nonzero;"/></g><g transform="matrix(12,0,0,12,17.4786,9.14785)"><path d="M0.515,-0.475l-0.082,0l0,0.269c0,0.097 -0.057,0.14 -0.135,0.14c-0.077,-0 -0.135,-0.043 -0.135,-0.14l0,-0.269l-0.081,0l-0,0.276c-0,0.144 0.102,0.209 0.216,0.209c0.114,-0 0.217,-0.065 0.217,-0.209l-0,-0.276Z" style="fill:#fff;fill-rule:nonzero;"/></g><g transform="matrix(12,0,0,12,24.6366,9.14785)"><path d="M0.306,-0.485c-0.057,0 -0.106,0.026 -0.139,0.072l-0,-0.062l-0.08,0l-0,0.475l0.081,-0l-0,-0.264c-0,-0.088 0.051,-0.144 0.123,-0.144c0.027,0 0.059,0.007 0.082,0.019l0.02,-0.08c-0.026,-0.011 -0.053,-0.016 -0.087,-0.016Z" style="fill:#fff;fill-rule:nonzero;"/></g><g transform="matrix(12,0,0,12,29.4246,9.14785)"><path d="M0.287,-0.485c-0.137,0 -0.236,0.101 -0.236,0.247c-0,0.149 0.099,0.248 0.241,0.248c0.07,-0 0.136,-0.017 0.194,-0.072l-0.043,-0.056c-0.04,0.035 -0.091,0.057 -0.146,0.057c-0.082,-0 -0.151,-0.049 -0.162,-0.148l0.373,0c0.001,-0.009 0.002,-0.02 0.002,-0.03c-0.001,-0.146 -0.094,-0.246 -0.223,-0.246Zm-0.002,0.072c0.077,0 0.132,0.054 0.142,0.139l-0.291,-0c0.012,-0.082 0.065,-0.139 0.149,-0.139Z" style="fill:#fff;fill-rule:nonzero;"/></g><g transform="matrix(12,0,0,12,39.3606,9.14785)"><path d="M0.168,-0.475l-0.081,0l-0,0.475l0.081,-0l-0,-0.475Zm-0.041,-0.225c-0.033,-0 -0.058,0.025 -0.058,0.058c0,0.033 0.025,0.057 0.058,0.057c0.032,0 0.058,-0.024 0.058,-0.057c-0,-0.033 -0.026,-0.058 -0.058,-0.058Z" style="fill:#fff;fill-rule:nonzero;"/></g><g transform="matrix(12,0,0,12,42.4146,9.14785)"><path d="M0.323,-0.485c-0.055,0 -0.117,0.019 -0.156,0.072l0,-0.062l-0.08,0l-0,0.475l0.081,-0l-0,-0.266c-0,-0.089 0.064,-0.142 0.141,-0.142c0.082,0 0.13,0.052 0.13,0.139l0,0.269l0.082,-0l-0,-0.295c-0,-0.114 -0.081,-0.19 -0.198,-0.19Z" style="fill:#fff;fill-rule:nonzero;"/></g><g transform="matrix(12,0,0,12,52.7646,9.14785)"><path d="M0.409,-0.475l-0.2,0l0,-0.149l-0.081,0l-0,0.149l-0.102,0l0,0.074l0.102,0l-0,0.234c-0,0.121 0.061,0.177 0.164,0.177c0.058,-0 0.106,-0.021 0.142,-0.047l-0.038,-0.061c-0.027,0.018 -0.062,0.032 -0.097,0.032c-0.052,-0 -0.09,-0.031 -0.09,-0.103l0,-0.232l0.2,0l-0,-0.074Z" style="fill:#fff;fill-rule:nonzero;"/></g><g transform="matrix(12,0,0,12,58.2066,9.14785)"><path d="M0.168,-0.72l-0.081,0l-0,0.72l0.081,-0l-0,-0.267c-0,-0.088 0.064,-0.141 0.141,-0.141c0.082,0 0.13,0.052 0.13,0.139l0,0.269l0.082,-0l-0,-0.295c-0,-0.114 -0.081,-0.19 -0.198,-0.19c-0.055,0 -0.116,0.018 -0.155,0.071l-0,-0.306Z" style="fill:#fff;fill-rule:nonzero;"/></g><g transform="matrix(12,0,0,12,65.4366,9.14785)"><path d="M0.287,-0.485c-0.137,0 -0.236,0.101 -0.236,0.247c-0,0.149 0.099,0.248 0.241,0.248c0.07,-0 0.136,-0.017 0.194,-0.072l-0.043,-0.056c-0.04,0.035 -0.091,0.057 -0.146,0.057c-0.082,-0 -0.151,-0.049 -0.162,-0.148l0.373,0c0.001,-0.009 0.002,-0.02 0.002,-0.03c-0.001,-0.146 -0.094,-0.246 -0.223,-0.246Zm-0.002,0.072c0.077,0 0.132,0.054 0.142,0.139l-0.291,-0c0.012,-0.082 0.065,-0.139 0.149,-0.139Z" style="fill:#fff;fill-rule:nonzero;"/></g><g transform="matrix(12,0,0,12,75.3726,9.14785)"><path d="M0.442,-0.433c-0.046,-0.031 -0.114,-0.051 -0.19,-0.051c-0.115,-0 -0.19,0.054 -0.19,0.145c-0,0.072 0.051,0.121 0.157,0.134l0.056,0.006c0.064,0.008 0.095,0.03 0.095,0.065c0,0.047 -0.048,0.073 -0.126,0.073c-0.08,-0 -0.127,-0.023 -0.162,-0.051l-0.038,0.061c0.062,0.047 0.141,0.061 0.199,0.061c0.13,-0 0.211,-0.058 0.211,-0.149c-0,-0.078 -0.059,-0.121 -0.16,-0.135l-0.056,-0.007c-0.057,-0.007 -0.092,-0.024 -0.092,-0.062c0,-0.043 0.042,-0.071 0.107,-0.071c0.063,0 0.124,0.024 0.154,0.044l0.035,-0.063Z" style="fill:#fff;fill-rule:nonzero;"/></g><g transform="matrix(12,0,0,12,81.3366,9.14785)"><path d="M0.676,-0.485c-0.065,0 -0.139,0.024 -0.178,0.095c-0.031,-0.059 -0.094,-0.095 -0.175,-0.095c-0.055,0 -0.117,0.019 -0.156,0.072l0,-0.062l-0.08,0l-0,0.475l0.081,-0l-0,-0.266c-0,-0.089 0.064,-0.142 0.141,-0.142c0.082,0 0.13,0.052 0.13,0.139l0,0.269l0.082,-0l-0,-0.267c-0,-0.086 0.061,-0.141 0.14,-0.141c0.083,0 0.131,0.052 0.131,0.139l-0,0.269l0.081,-0l0,-0.295c0,-0.114 -0.08,-0.19 -0.197,-0.19Z" style="fill:#fff;fill-rule:nonzero;"/></g><g transform="matrix(12,0,0,12,92.7966,9.14785)"><path d="M0.537,-0.475l-0.081,0l-0,0.064c-0.038,-0.045 -0.093,-0.074 -0.168,-0.074c-0.134,0 -0.237,0.104 -0.237,0.247c-0,0.144 0.103,0.248 0.237,0.248c0.075,-0 0.13,-0.029 0.168,-0.073l-0,0.063l0.081,-0l0,-0.475Zm-0.239,0.067c0.096,-0 0.163,0.073 0.163,0.17c-0,0.098 -0.067,0.172 -0.163,0.172c-0.098,-0 -0.164,-0.077 -0.164,-0.172c-0,-0.094 0.064,-0.17 0.164,-0.17Z" style="fill:#fff;fill-rule:nonzero;"/></g><g transform="matrix(12,0,0,12,100.285,9.14785)"><rect x="0.087" y="-0.72" width="0.081" height="0.72" style="fill:#fff;fill-rule:nonzero;"/></g><g transform="matrix(12,0,0,12,103.339,9.14785)"><rect x="0.087" y="-0.72" width="0.081" height="0.72" style="fill:#fff;fill-rule:nonzero;"/></g><g transform="matrix(12,0,0,12,109.603,9.14785)"><path d="M0.537,-0.475l-0.081,0l-0,0.064c-0.038,-0.045 -0.093,-0.074 -0.168,-0.074c-0.134,0 -0.237,0.104 -0.237,0.247c-0,0.144 0.103,0.248 0.237,0.248c0.075,-0 0.13,-0.029 0.168,-0.073l-0,0.063l0.081,-0l0,-0.475Zm-0.239,0.067c0.096,-0 0.163,0.073 0.163,0.17c-0,0.098 -0.067,0.172 -0.163,0.172c-0.098,-0 -0.164,-0.077 -0.164,-0.172c-0,-0.094 0.064,-0.17 0.164,-0.17Z" style="fill:#fff;fill-rule:nonzero;"/></g><g transform="matrix(12,0,0,12,117.091,9.14785)"><path d="M0.306,-0.485c-0.057,0 -0.106,0.026 -0.139,0.072l-0,-0.062l-0.08,0l-0,0.475l0.081,-0l-0,-0.264c-0,-0.088 0.051,-0.144 0.123,-0.144c0.027,0 0.059,0.007 0.082,0.019l0.02,-0.08c-0.026,-0.011 -0.053,-0.016 -0.087,-0.016Z" style="fill:#fff;fill-rule:nonzero;"/></g><g transform="matrix(12,0,0,12,121.879,9.14785)"><path d="M0.287,-0.485c-0.137,0 -0.236,0.101 -0.236,0.247c-0,0.149 0.099,0.248 0.241,0.248c0.07,-0 0.136,-0.017 0.194,-0.072l-0.043,-0.056c-0.04,0.035 -0.091,0.057 -0.146,0.057c-0.082,-0 -0.151,-0.049 -0.162,-0.148l0.373,0c0.001,-0.009 0.002,-0.02 0.002,-0.03c-0.001,-0.146 -0.094,-0.246 -0.223,-0.246Zm-0.002,0.072c0.077,0 0.132,0.054 0.142,0.139l-0.291,-0c0.012,-0.082 0.065,-0.139 0.149,-0.139Z" style="fill:#fff;fill-rule:nonzero;"/></g><g transform="matrix(12,0,0,12,128.605,9.14785)"><path d="M0.537,-0.475l-0.081,0l-0,0.064c-0.038,-0.045 -0.093,-0.074 -0.168,-0.074c-0.134,0 -0.237,0.104 -0.237,0.247c-0,0.144 0.103,0.248 0.237,0.248c0.075,-0 0.13,-0.029 0.168,-0.073l-0,0.063l0.081,-0l0,-0.475Zm-0.239,0.067c0.096,-0 0.163,0.073 0.163,0.17c-0,0.098 -0.067,0.172 -0.163,0.172c-0.098,-0 -0.164,-0.077 -0.164,-0.172c-0,-0.094 0.064,-0.17 0.164,-0.17Z" style="fill:#fff;fill-rule:nonzero;"/></g><g transform="matrix(12,0,0,12,-106.535,23.5478)"><path d="M0.301,-0.485c-0.144,0 -0.25,0.106 -0.25,0.247c-0,0.142 0.106,0.248 0.25,0.248c0.145,-0 0.252,-0.106 0.252,-0.248c-0,-0.141 -0.107,-0.247 -0.252,-0.247Zm0,0.077c0.096,-0 0.168,0.071 0.168,0.17c0,0.1 -0.072,0.172 -0.168,0.172c-0.095,-0 -0.167,-0.072 -0.167,-0.172c-0,-0.099 0.072,-0.17 0.167,-0.17Z" style="fill:#fff;fill-rule:nonzero;"/></g><g transform="matrix(12,0,0,12,-99.3534,23.5478)"><path d="M0.396,-0.475l-0.183,0l0,-0.081c0,-0.062 0.025,-0.098 0.082,-0.098c0.035,0 0.07,0.013 0.095,0.028l0.03,-0.068c-0.034,-0.021 -0.077,-0.036 -0.131,-0.036c-0.112,0 -0.157,0.074 -0.157,0.174l-0,0.081l-0.106,0l0,0.074l0.106,0l-0,0.401l0.081,-0l0,-0.401l0.183,0l-0,-0.074Z" style="fill:#fff;fill-rule:nonzero;"/></g><g transform="matrix(12,0,0,12,-91.1454,23.5478)"><path d="M0.409,-0.475l-0.2,0l0,-0.149l-0.081,0l-0,0.149l-0.102,0l0,0.074l0.102,0l-0,0.234c-0,0.121 0.061,0.177 0.164,0.177c0.058,-0 0.106,-0.021 0.142,-0.047l-0.038,-0.061c-0.027,0.018 -0.062,0.032 -0.097,0.032c-0.052,-0 -0.09,-0.031 -0.09,-0.103l0,-0.232l0.2,0l-0,-0.074Z" style="fill:#fff;fill-rule:nonzero;"/></g><g transform="matrix(12,0,0,12,-85.7034,23.5478)"><path d="M0.168,-0.72l-0.081,0l-0,0.72l0.081,-0l-0,-0.267c-0,-0.088 0.064,-0.141 0.141,-0.141c0.082,0 0.13,0.052 0.13,0.139l0,0.269l0.082,-0l-0,-0.295c-0,-0.114 -0.081,-0.19 -0.198,-0.19c-0.055,0 -0.116,0.018 -0.155,0.071l-0,-0.306Z" style="fill:#fff;fill-rule:nonzero;"/></g><g transform="matrix(12,0,0,12,-78.4734,23.5478)"><path d="M0.287,-0.485c-0.137,0 -0.236,0.101 -0.236,0.247c-0,0.149 0.099,0.248 0.241,0.248c0.07,-0 0.136,-0.017 0.194,-0.072l-0.043,-0.056c-0.04,0.035 -0.091,0.057 -0.146,0.057c-0.082,-0 -0.151,-0.049 -0.162,-0.148l0.373,0c0.001,-0.009 0.002,-0.02 0.002,-0.03c-0.001,-0.146 -0.094,-0.246 -0.223,-0.246Zm-0.002,0.072c0.077,0 0.132,0.054 0.142,0.139l-0.291,-0c0.012,-0.082 0.065,-0.139 0.149,-0.139Z" style="fill:#fff;fill-rule:nonzero;"/></g><g transform="matrix(12,0,0,12,-68.5374,23.5478)"><path d="M0.297,-0.485c-0.147,0 -0.246,0.106 -0.246,0.247c-0,0.142 0.099,0.248 0.246,0.248c0.07,-0 0.133,-0.026 0.176,-0.074l-0.05,-0.057c-0.033,0.032 -0.078,0.055 -0.128,0.055c-0.092,-0 -0.161,-0.072 -0.161,-0.172c-0,-0.099 0.069,-0.17 0.161,-0.17c0.05,-0 0.091,0.019 0.126,0.053l0.052,-0.055c-0.042,-0.049 -0.106,-0.075 -0.176,-0.075Z" style="fill:#fff;fill-rule:nonzero;"/></g><g transform="matrix(12,0,0,12,-62.4894,23.5478)"><path d="M0.301,-0.485c-0.144,0 -0.25,0.106 -0.25,0.247c-0,0.142 0.106,0.248 0.25,0.248c0.145,-0 0.252,-0.106 0.252,-0.248c-0,-0.141 -0.107,-0.247 -0.252,-0.247Zm0,0.077c0.096,-0 0.168,0.071 0.168,0.17c0,0.1 -0.072,0.172 -0.168,0.172c-0.095,-0 -0.167,-0.072 -0.167,-0.172c-0,-0.099 0.072,-0.17 0.167,-0.17Z" style="fill:#fff;fill-rule:nonzero;"/></g><g transform="matrix(12,0,0,12,-55.2474,23.5478)"><path d="M0.537,-0.475l-0.081,0l-0,0.064c-0.038,-0.045 -0.093,-0.074 -0.168,-0.074c-0.134,0 -0.237,0.104 -0.237,0.247c-0,0.144 0.103,0.248 0.237,0.248c0.075,-0 0.13,-0.029 0.168,-0.073l-0,0.063l0.081,-0l0,-0.475Zm-0.239,0.067c0.096,-0 0.163,0.073 0.163,0.17c-0,0.098 -0.067,0.172 -0.163,0.172c-0.098,-0 -0.164,-0.077 -0.164,-0.172c-0,-0.094 0.064,-0.17 0.164,-0.17Z" style="fill:#fff;fill-rule:nonzero;"/></g><g transform="matrix(12,0,0,12,-47.7594,23.5478)"><path d="M0.442,-0.433c-0.046,-0.031 -0.114,-0.051 -0.19,-0.051c-0.115,-0 -0.19,0.054 -0.19,0.145c-0,0.072 0.051,0.121 0.157,0.134l0.056,0.006c0.064,0.008 0.095,0.03 0.095,0.065c0,0.047 -0.048,0.073 -0.126,0.073c-0.08,-0 -0.127,-0.023 -0.162,-0.051l-0.038,0.061c0.062,0.047 0.141,0.061 0.199,0.061c0.13,-0 0.211,-0.058 0.211,-0.149c-0,-0.078 -0.059,-0.121 -0.16,-0.135l-0.056,-0.007c-0.057,-0.007 -0.092,-0.024 -0.092,-0.062c0,-0.043 0.042,-0.071 0.107,-0.071c0.063,0 0.124,0.024 0.154,0.044l0.035,-0.063Z" style="fill:#fff;fill-rule:nonzero;"/></g><g transform="matrix(12,0,0,12,-41.7954,23.5478)"><path d="M0.409,-0.475l-0.2,0l0,-0.149l-0.081,0l-0,0.149l-0.102,0l0,0.074l0.102,0l-0,0.234c-0,0.121 0.061,0.177 0.164,0.177c0.058,-0 0.106,-0.021 0.142,-0.047l-0.038,-0.061c-0.027,0.018 -0.062,0.032 -0.097,0.032c-0.052,-0 -0.09,-0.031 -0.09,-0.103l0,-0.232l0.2,0l-0,-0.074Z" style="fill:#fff;fill-rule:nonzero;"/></g><g transform="matrix(12,0,0,12,-36.3654,23.5478)"><path d="M0.287,-0.485c-0.137,0 -0.236,0.101 -0.236,0.247c-0,0.149 0.099,0.248 0.241,0.248c0.07,-0 0.136,-0.017 0.194,-0.072l-0.043,-0.056c-0.04,0.035 -0.091,0.057 -0.146,0.057c-0.082,-0 -0.151,-0.049 -0.162,-0.148l0.373,0c0.001,-0.009 0.002,-0.02 0.002,-0.03c-0.001,-0.146 -0.094,-0.246 -0.223,-0.246Zm-0.002,0.072c0.077,0 0.132,0.054 0.142,0.139l-0.291,-0c0.012,-0.082 0.065,-0.139 0.149,-0.139Z" style="fill:#fff;fill-rule:nonzero;"/></g><g transform="matrix(12,0,0,12,-29.6394,23.5478)"><path d="M0.306,-0.485c-0.057,0 -0.106,0.026 -0.139,0.072l-0,-0.062l-0.08,0l-0,0.475l0.081,-0l-0,-0.264c-0,-0.088 0.051,-0.144 0.123,-0.144c0.027,0 0.059,0.007 0.082,0.019l0.02,-0.08c-0.026,-0.011 -0.053,-0.016 -0.087,-0.016Z" style="fill:#fff;fill-rule:nonzero;"/></g><g transform="matrix(12,0,0,12,-24.6114,23.5478)"><path d="M0.181,-0.7l-0.1,0l0.013,0.475l0.074,0l0.013,-0.475Zm-0.05,0.573c-0.036,-0 -0.068,0.031 -0.068,0.068c0,0.036 0.032,0.069 0.068,0.069c0.037,-0 0.068,-0.033 0.068,-0.069c0,-0.037 -0.031,-0.068 -0.068,-0.068Z" style="fill:#fff;fill-rule:nonzero;"/></g><g transform="matrix(12,0,0,12,-18.2514,23.5478)"><path d="M0.187,-0.7l-0.087,0l-0,0.7l0.087,-0l0,-0.311l0.414,-0l-0,0.311l0.087,-0l0,-0.7l-0.087,0l-0,0.306l-0.414,0l0,-0.306Z" style="fill:#fff;fill-rule:nonzero;"/></g><g transform="matrix(12,0,0,12,-8.78943,23.5478)"><path d="M0.301,-0.485c-0.144,0 -0.25,0.106 -0.25,0.247c-0,0.142 0.106,0.248 0.25,0.248c0.145,-0 0.252,-0.106 0.252,-0.248c-0,-0.141 -0.107,-0.247 -0.252,-0.247Zm0,0.077c0.096,-0 0.168,0.071 0.168,0.17c0,0.1 -0.072,0.172 -0.168,0.172c-0.095,-0 -0.167,-0.072 -0.167,-0.172c-0,-0.099 0.072,-0.17 0.167,-0.17Z" style="fill:#fff;fill-rule:nonzero;"/></g><g transform="matrix(12,0,0,12,-1.58343,23.5478)"><path d="M0.471,-0.475l-0.093,0l-0.135,0.388l-0.135,-0.388l-0.087,0l0.171,0.475l0.096,-0l0.135,-0.386l0.136,0.386l0.098,-0l0.171,-0.475l-0.086,0l-0.135,0.389l-0.136,-0.389Z" style="fill:#fff;fill-rule:nonzero;"/></g><g transform="matrix(12,0,0,12,11.6406,23.5478)"><path d="M0.471,-0.475l-0.093,0l-0.135,0.388l-0.135,-0.388l-0.087,0l0.171,0.475l0.096,-0l0.135,-0.386l0.136,0.386l0.098,-0l0.171,-0.475l-0.086,0l-0.135,0.389l-0.136,-0.389Z" style="fill:#fff;fill-rule:nonzero;"/></g><g transform="matrix(12,0,0,12,21.8226,23.5478)"><path d="M0.287,-0.485c-0.137,0 -0.236,0.101 -0.236,0.247c-0,0.149 0.099,0.248 0.241,0.248c0.07,-0 0.136,-0.017 0.194,-0.072l-0.043,-0.056c-0.04,0.035 -0.091,0.057 -0.146,0.057c-0.082,-0 -0.151,-0.049 -0.162,-0.148l0.373,0c0.001,-0.009 0.002,-0.02 0.002,-0.03c-0.001,-0.146 -0.094,-0.246 -0.223,-0.246Zm-0.002,0.072c0.077,0 0.132,0.054 0.142,0.139l-0.291,-0c0.012,-0.082 0.065,-0.139 0.149,-0.139Z" style="fill:#fff;fill-rule:nonzero;"/></g><g transform="matrix(12,0,0,12,28.5486,23.5478)"><rect x="0.087" y="-0.72" width="0.081" height="0.72" style="fill:#fff;fill-rule:nonzero;"/></g><g transform="matrix(12,0,0,12,31.6026,23.5478)"><rect x="0.087" y="-0.72" width="0.081" height="0.72" style="fill:#fff;fill-rule:nonzero;"/></g><g transform="matrix(12,0,0,12,37.8666,23.5478)"><path d="M0.288,-0.485c-0.134,0 -0.237,0.104 -0.237,0.247c-0,0.144 0.103,0.248 0.237,0.248c0.075,-0 0.13,-0.029 0.168,-0.073l-0,0.063l0.081,-0l0,-0.72l-0.081,0l-0,0.309c-0.038,-0.045 -0.093,-0.074 -0.168,-0.074Zm0.01,0.077c0.096,-0 0.163,0.073 0.163,0.17c-0,0.098 -0.067,0.172 -0.163,0.172c-0.098,-0 -0.164,-0.077 -0.164,-0.172c-0,-0.094 0.064,-0.17 0.164,-0.17Z" style="fill:#fff;fill-rule:nonzero;"/></g><g transform="matrix(12,0,0,12,45.3546,23.5478)"><path d="M0.301,-0.485c-0.144,0 -0.25,0.106 -0.25,0.247c-0,0.142 0.106,0.248 0.25,0.248c0.145,-0 0.252,-0.106 0.252,-0.248c-0,-0.141 -0.107,-0.247 -0.252,-0.247Zm0,0.077c0.096,-0 0.168,0.071 0.168,0.17c0,0.1 -0.072,0.172 -0.168,0.172c-0.095,-0 -0.167,-0.072 -0.167,-0.172c-0,-0.099 0.072,-0.17 0.167,-0.17Z" style="fill:#fff;fill-rule:nonzero;"/></g><g transform="matrix(12,0,0,12,52.5966,23.5478)"><path d="M0.287,-0.485c-0.137,0 -0.236,0.101 -0.236,0.247c-0,0.149 0.099,0.248 0.241,0.248c0.07,-0 0.136,-0.017 0.194,-0.072l-0.043,-0.056c-0.04,0.035 -0.091,0.057 -0.146,0.057c-0.082,-0 -0.151,-0.049 -0.162,-0.148l0.373,0c0.001,-0.009 0.002,-0.02 0.002,-0.03c-0.001,-0.146 -0.094,-0.246 -0.223,-0.246Zm-0.002,0.072c0.077,0 0.132,0.054 0.142,0.139l-0.291,-0c0.012,-0.082 0.065,-0.139 0.149,-0.139Z" style="fill:#fff;fill-rule:nonzero;"/></g><g transform="matrix(12,0,0,12,59.3226,23.5478)"><path d="M0.442,-0.433c-0.046,-0.031 -0.114,-0.051 -0.19,-0.051c-0.115,-0 -0.19,0.054 -0.19,0.145c-0,0.072 0.051,0.121 0.157,0.134l0.056,0.006c0.064,0.008 0.095,0.03 0.095,0.065c0,0.047 -0.048,0.073 -0.126,0.073c-0.08,-0 -0.127,-0.023 -0.162,-0.051l-0.038,0.061c0.062,0.047 0.141,0.061 0.199,0.061c0.13,-0 0.211,-0.058 0.211,-0.149c-0,-0.078 -0.059,-0.121 -0.16,-0.135l-0.056,-0.007c-0.057,-0.007 -0.092,-0.024 -0.092,-0.062c0,-0.043 0.042,-0.071 0.107,-0.071c0.063,0 0.124,0.024 0.154,0.044l0.035,-0.063Z" style="fill:#fff;fill-rule:nonzero;"/></g><g transform="matrix(12,0,0,12,68.4066,23.5478)"><path d="M0.409,-0.475l-0.2,0l0,-0.149l-0.081,0l-0,0.149l-0.102,0l0,0.074l0.102,0l-0,0.234c-0,0.121 0.061,0.177 0.164,0.177c0.058,-0 0.106,-0.021 0.142,-0.047l-0.038,-0.061c-0.027,0.018 -0.062,0.032 -0.097,0.032c-0.052,-0 -0.09,-0.031 -0.09,-0.103l0,-0.232l0.2,0l-0,-0.074Z" style="fill:#fff;fill-rule:nonzero;"/></g><g transform="matrix(12,0,0,12,73.8486,23.5478)"><path d="M0.168,-0.72l-0.081,0l-0,0.72l0.081,-0l-0,-0.267c-0,-0.088 0.064,-0.141 0.141,-0.141c0.082,0 0.13,0.052 0.13,0.139l0,0.269l0.082,-0l-0,-0.295c-0,-0.114 -0.081,-0.19 -0.198,-0.19c-0.055,0 -0.116,0.018 -0.155,0.071l-0,-0.306Z" style="fill:#fff;fill-rule:nonzero;"/></g><g transform="matrix(12,0,0,12,81.0786,23.5478)"><path d="M0.537,-0.475l-0.081,0l-0,0.064c-0.038,-0.045 -0.093,-0.074 -0.168,-0.074c-0.134,0 -0.237,0.104 -0.237,0.247c-0,0.144 0.103,0.248 0.237,0.248c0.075,-0 0.13,-0.029 0.168,-0.073l-0,0.063l0.081,-0l0,-0.475Zm-0.239,0.067c0.096,-0 0.163,0.073 0.163,0.17c-0,0.098 -0.067,0.172 -0.163,0.172c-0.098,-0 -0.164,-0.077 -0.164,-0.172c-0,-0.094 0.064,-0.17 0.164,-0.17Z" style="fill:#fff;fill-rule:nonzero;"/></g><g transform="matrix(12,0,0,12,88.5666,23.5478)"><path d="M0.409,-0.475l-0.2,0l0,-0.149l-0.081,0l-0,0.149l-0.102,0l0,0.074l0.102,0l-0,0.234c-0,0.121 0.061,0.177 0.164,0.177c0.058,-0 0.106,-0.021 0.142,-0.047l-0.038,-0.061c-0.027,0.018 -0.062,0.032 -0.097,0.032c-0.052,-0 -0.09,-0.031 -0.09,-0.103l0,-0.232l0.2,0l-0,-0.074Z" style="fill:#fff;fill-rule:nonzero;"/></g><g transform="matrix(12,0,0,12,97.1286,23.5478)"><path d="M0.471,-0.475l-0.093,0l-0.135,0.388l-0.135,-0.388l-0.087,0l0.171,0.475l0.096,-0l0.135,-0.386l0.136,0.386l0.098,-0l0.171,-0.475l-0.086,0l-0.135,0.389l-0.136,-0.389Z" style="fill:#fff;fill-rule:nonzero;"/></g><g transform="matrix(12,0,0,12,107.311,23.5478)"><path d="M0.301,-0.485c-0.144,0 -0.25,0.106 -0.25,0.247c-0,0.142 0.106,0.248 0.25,0.248c0.145,-0 0.252,-0.106 0.252,-0.248c-0,-0.141 -0.107,-0.247 -0.252,-0.247Zm0,0.077c0.096,-0 0.168,0.071 0.168,0.17c0,0.1 -0.072,0.172 -0.168,0.172c-0.095,-0 -0.167,-0.072 -0.167,-0.172c-0,-0.099 0.072,-0.17 0.167,-0.17Z" style="fill:#fff;fill-rule:nonzero;"/></g><g transform="matrix(12,0,0,12,114.553,23.5478)"><path d="M0.306,-0.485c-0.057,0 -0.106,0.026 -0.139,0.072l-0,-0.062l-0.08,0l-0,0.475l0.081,-0l-0,-0.264c-0,-0.088 0.051,-0.144 0.123,-0.144c0.027,0 0.059,0.007 0.082,0.019l0.02,-0.08c-0.026,-0.011 -0.053,-0.016 -0.087,-0.016Z" style="fill:#fff;fill-rule:nonzero;"/></g><g transform="matrix(12,0,0,12,119.581,23.5478)"><path d="M0.168,-0.72l-0.081,0l-0,0.72l0.081,-0l-0,-0.211l0.064,-0l0.18,0.211l0.103,-0l-0.215,-0.251l0.212,-0.224l-0.103,0l-0.176,0.19l-0.065,0l-0,-0.435Z" style="fill:#fff;fill-rule:nonzero;"/></g><g transform="matrix(12,0,0,12,125.965,23.5478)"><path d="M0.177,-0.225l0.004,-0.082c0.145,-0.016 0.226,-0.088 0.226,-0.205c0,-0.122 -0.099,-0.201 -0.262,-0.201c-0.026,0 -0.06,0.003 -0.082,0.006l0.007,0.084c0.019,-0.002 0.045,-0.004 0.071,-0.004c0.109,-0 0.175,0.044 0.175,0.118c0,0.08 -0.065,0.127 -0.178,0.127l-0.035,-0l0,0.157l0.074,0Zm-0.037,0.098c-0.036,0 -0.068,0.032 -0.068,0.068c-0,0.037 0.032,0.069 0.068,0.069c0.036,-0 0.068,-0.032 0.068,-0.069c-0,-0.036 -0.032,-0.068 -0.068,-0.068Z" style="fill:#fff;fill-rule:nonzero;"/></g></g><path d="M22.515,394.69c-1.323,0 -2.218,0.958 -2.218,2.227c0,1.27 0.895,2.228 2.218,2.228c0.635,-0 1.202,-0.234 1.589,-0.67l-0.455,-0.509c-0.297,0.288 -0.697,0.491 -1.152,0.491c-0.823,-0 -1.449,-0.644 -1.449,-1.54c0,-0.895 0.626,-1.534 1.449,-1.534c0.455,-0 0.819,0.175 1.134,0.481l0.473,-0.499c-0.383,-0.441 -0.954,-0.675 -1.589,-0.675Z" style="fill:#fff;fill-rule:nonzero;"/><path d="M29.216,394.78l-0.738,0l0,0.576c-0.337,-0.405 -0.837,-0.666 -1.507,-0.666c-1.202,0 -2.138,0.936 -2.138,2.227c0,1.292 0.936,2.228 2.138,2.228c0.67,-0 1.17,-0.261 1.507,-0.661l0,0.571l0.738,-0l-0,-4.275Zm-2.16,0.603c0.864,-0 1.467,0.661 1.467,1.534c0,0.878 -0.603,1.54 -1.467,1.54c-0.878,-0 -1.472,-0.689 -1.472,-1.54c0,-0.85 0.581,-1.534 1.472,-1.534Z" style="fill:#fff;fill-rule:nonzero;"/><path d="M32.748,394.69c-0.508,0 -0.954,0.234 -1.251,0.652l0,-0.562l-0.724,0l0,4.275l0.733,-0l0,-2.381c0,-0.787 0.459,-1.287 1.112,-1.287c0.243,0 0.531,0.059 0.733,0.167l0.18,-0.725c-0.229,-0.098 -0.477,-0.139 -0.783,-0.139Z" style="fill:#fff;fill-rule:nonzero;"/><path d="M36.178,394.69c-1.202,0 -2.138,0.936 -2.138,2.227c0,1.292 0.936,2.228 2.138,2.228c0.67,-0 1.17,-0.261 1.507,-0.661l0,0.571l0.738,-0l-0,-6.48l-0.738,0l0,2.781c-0.337,-0.405 -0.837,-0.666 -1.507,-0.666Zm0.085,0.693c0.864,-0 1.467,0.661 1.467,1.534c0,0.878 -0.603,1.54 -1.467,1.54c-0.878,-0 -1.472,-0.689 -1.472,-1.54c0,-0.85 0.581,-1.534 1.472,-1.534Z" style="fill:#fff;fill-rule:nonzero;"/><path d="M43.179,395.158c-0.413,-0.284 -1.03,-0.463 -1.705,-0.463c-1.04,-0 -1.719,0.494 -1.719,1.313c0,0.648 0.463,1.08 1.422,1.197l0.495,0.059c0.581,0.072 0.86,0.27 0.86,0.585c-0,0.423 -0.432,0.653 -1.135,0.653c-0.715,-0 -1.143,-0.207 -1.462,-0.455l-0.342,0.549c0.563,0.423 1.273,0.549 1.8,0.549c1.166,-0 1.894,-0.527 1.894,-1.341c0,-0.707 -0.535,-1.089 -1.444,-1.211l-0.495,-0.063c-0.518,-0.063 -0.828,-0.22 -0.828,-0.562c-0,-0.387 0.378,-0.635 0.963,-0.635c0.563,0 1.107,0.212 1.377,0.396l0.319,-0.571Z" style="fill:#fff;fill-rule:nonzero;"/><path d="M47.58,395.293l-0.76,0l0,1.742l-1.998,-0l2.304,-4.271l-0.864,0l-2.353,4.405l-0,0.585l2.911,0l0,1.301l0.76,-0l0,-1.301l1.049,0l-0,-0.719l-1.049,-0l0,-1.742Z" style="fill:#fff;fill-rule:nonzero;"/><path d="M49.79,394.159c0.302,-0.405 0.675,-0.765 1.377,-0.765c0.797,-0 1.256,0.535 1.256,1.237c-0,0.518 -0.252,0.941 -0.63,1.337l-2.358,2.489l-0,0.598l3.982,-0l-0,-0.724l-2.853,-0l1.809,-1.922c0.405,-0.428 0.846,-0.99 0.846,-1.773c-0,-1.13 -0.747,-1.971 -2.034,-1.971c-1.089,0 -1.647,0.612 -1.944,1.048l0.549,0.446Z" style="fill:#fff;fill-rule:nonzero;"/><path d="M55.141,397.912c-0.329,0 -0.617,0.283 -0.617,0.612c0,0.333 0.288,0.621 0.617,0.621c0.328,-0 0.611,-0.288 0.611,-0.621c0,-0.329 -0.283,-0.612 -0.611,-0.612Z" style="fill:#fff;fill-rule:nonzero;"/><path d="M58.966,394.69c-1.297,0 -2.259,0.958 -2.259,2.227c-0,1.27 0.962,2.228 2.259,2.228c1.296,-0 2.263,-0.958 2.263,-2.228c-0,-1.269 -0.967,-2.227 -2.263,-2.227Zm-0,0.693c0.855,-0 1.507,0.639 1.507,1.534c0,0.896 -0.652,1.54 -1.507,1.54c-0.86,-0 -1.508,-0.644 -1.508,-1.54c-0,-0.895 0.648,-1.534 1.508,-1.534Z" style="fill:#fff;fill-rule:nonzero;"/><path d="M64.437,394.69c-0.508,0 -0.954,0.234 -1.251,0.652l0,-0.562l-0.724,0l0,4.275l0.733,-0l0,-2.381c0,-0.787 0.459,-1.287 1.112,-1.287c0.243,0 0.531,0.059 0.733,0.167l0.18,-0.725c-0.229,-0.098 -0.477,-0.139 -0.783,-0.139Z" style="fill:#fff;fill-rule:nonzero;"/><path d="M67.844,394.69c-1.202,0 -2.115,0.891 -2.115,2.191c0,1.306 0.913,2.196 2.115,2.196c0.662,0 1.148,-0.256 1.472,-0.665l-0,0.377c-0,0.95 -0.617,1.468 -1.535,1.468c-0.554,-0 -1.062,-0.185 -1.472,-0.478l-0.319,0.595c0.436,0.35 1.125,0.553 1.791,0.553c1.35,-0 2.272,-0.787 2.272,-2.169l0,-3.978l-0.737,0l-0,0.581c-0.324,-0.41 -0.81,-0.671 -1.472,-0.671Zm0.086,0.693c0.85,-0 1.449,0.648 1.449,1.498c-0,0.855 -0.599,1.504 -1.449,1.504c-0.878,-0 -1.45,-0.671 -1.45,-1.504c0,-0.823 0.572,-1.498 1.45,-1.498Z" style="fill:#fff;fill-rule:nonzero;"/><path d="M75.4,392.125l-0.81,0l-3.821,7.83l0.81,-0l3.821,-7.83Z" style="fill:#fff;fill-rule:nonzero;"/><path d="M77.132,394.69c-1.323,0 -2.218,0.958 -2.218,2.227c-0,1.27 0.895,2.228 2.218,2.228c0.634,-0 1.201,-0.234 1.588,-0.67l-0.454,-0.509c-0.297,0.288 -0.698,0.491 -1.152,0.491c-0.824,-0 -1.449,-0.644 -1.449,-1.54c-0,-0.895 0.625,-1.534 1.449,-1.534c0.454,-0 0.819,0.175 1.134,0.481l0.472,-0.499c-0.382,-0.441 -0.954,-0.675 -1.588,-0.675Z" style="fill:#fff;fill-rule:nonzero;"/><path d="M81.709,394.69c-1.297,0 -2.259,0.958 -2.259,2.227c-0,1.27 0.962,2.228 2.259,2.228c1.296,-0 2.263,-0.958 2.263,-2.228c-0,-1.269 -0.967,-2.227 -2.263,-2.227Zm-0,0.693c0.855,-0 1.507,0.639 1.507,1.534c0,0.896 -0.652,1.54 -1.507,1.54c-0.86,-0 -1.508,-0.644 -1.508,-1.54c-0,-0.895 0.648,-1.534 1.508,-1.534Z" style="fill:#fff;fill-rule:nonzero;"/><path d="M89.264,394.78l-0.738,0l0,0.576c-0.337,-0.405 -0.837,-0.666 -1.507,-0.666c-1.202,0 -2.138,0.936 -2.138,2.227c0,1.292 0.936,2.228 2.138,2.228c0.67,-0 1.17,-0.261 1.507,-0.661l0,0.571l0.738,-0l-0,-4.275Zm-2.16,0.603c0.864,-0 1.467,0.661 1.467,1.534c0,0.878 -0.603,1.54 -1.467,1.54c-0.878,-0 -1.472,-0.689 -1.472,-1.54c0,-0.85 0.581,-1.534 1.472,-1.534Z" style="fill:#fff;fill-rule:nonzero;"/><path d="M94.02,395.158c-0.413,-0.284 -1.03,-0.463 -1.705,-0.463c-1.04,-0 -1.719,0.494 -1.719,1.313c0,0.648 0.463,1.08 1.422,1.197l0.495,0.059c0.581,0.072 0.86,0.27 0.86,0.585c-0,0.423 -0.432,0.653 -1.135,0.653c-0.715,-0 -1.143,-0.207 -1.462,-0.455l-0.342,0.549c0.563,0.423 1.273,0.549 1.8,0.549c1.166,-0 1.894,-0.527 1.894,-1.341c0,-0.707 -0.535,-1.089 -1.444,-1.211l-0.495,-0.063c-0.518,-0.063 -0.828,-0.22 -0.828,-0.562c-0,-0.387 0.378,-0.635 0.963,-0.635c0.563,0 1.107,0.212 1.377,0.396l0.319,-0.571Z" style="fill:#fff;fill-rule:nonzero;"/><path d="M98.196,394.78l-1.795,0l-0,-1.341l-0.738,0l0,1.341l-0.913,0l-0,0.67l0.913,0l0,2.097c0,1.089 0.553,1.598 1.48,1.598c0.527,-0 0.954,-0.185 1.283,-0.423l-0.347,-0.553c-0.243,0.166 -0.558,0.288 -0.873,0.288c-0.463,-0 -0.805,-0.279 -0.805,-0.923l-0,-2.084l1.795,0l0,-0.67Z" style="fill:#fff;fill-rule:nonzero;"/><path d="M101.167,394.69c-1.229,0 -2.124,0.913 -2.124,2.227c-0,1.332 0.899,2.228 2.169,2.228c0.63,-0 1.224,-0.153 1.754,-0.648l-0.391,-0.504c-0.364,0.315 -0.819,0.509 -1.318,0.509c-0.734,-0 -1.351,-0.437 -1.454,-1.324l3.361,0c0.005,-0.081 0.014,-0.18 0.014,-0.274c-0.009,-1.31 -0.846,-2.214 -2.011,-2.214Zm-0.014,0.652c0.693,0 1.184,0.486 1.274,1.243l-2.615,-0c0.112,-0.73 0.585,-1.243 1.341,-1.243Z" style="fill:#fff;fill-rule:nonzero;"/><path d="M106.386,394.69c-0.508,0 -0.954,0.234 -1.251,0.652l0,-0.562l-0.724,0l0,4.275l0.733,-0l0,-2.381c0,-0.787 0.459,-1.287 1.112,-1.287c0.243,0 0.531,0.059 0.733,0.167l0.18,-0.725c-0.229,-0.098 -0.477,-0.139 -0.783,-0.139Z" style="fill:#fff;fill-rule:nonzero;"/></g></svg>