<?xml version="1.0" encoding="UTF-8" standalone="no"?><!DOCTYPE svg PUBLIC "-//W3C//DTD SVG 1.1//EN" "http://www.w3.org/Graphics/SVG/1.1/DTD/svg11.dtd"><svg width="100%" height="100%" viewBox="0 0 298 420" version="1.1" xmlns="http://www.w3.org/2000/svg" xmlns:xlink="http://www.w3.org/1999/xlink" xml:space="preserve" xmlns:serif="http://www.serif.com/" style="fill-rule:evenodd;clip-rule:evenodd;stroke-linecap:round;stroke-linejoin:round;"><g id="Ebene-1" serif:id="Ebene 1"><rect x="-9.978" y="-15.969" width="324.567" height="445.984" style="fill:#f39260;"/><g><rect x="218.758" y="385.673" width="3.28" height="13.775" style="fill:#fff;"/><path d="M245.758,399.449l-0,-13.776l-3.28,0l-0,8.423l-6.298,-8.423l-3.148,0l-0,8.423l-6.271,-8.423l-3.149,0l-0,13.776l3.28,-0l-0,-8.397l6.271,8.397l3.175,-0l-0,-8.397l6.271,8.397l3.149,-0Z" style="fill:#fff;fill-rule:nonzero;"/><path d="M254.154,388.56c2.23,-0 3.831,1.627 3.831,3.988c-0,2.362 -1.601,3.988 -3.831,3.988c-2.257,0 -3.831,-1.626 -3.831,-3.988c0,-2.361 1.601,-3.988 3.831,-3.988m0,-3.149c-4.251,0 -7.268,3.044 -7.268,7.137c-0,4.093 3.017,7.137 7.268,7.137c4.251,0 7.268,-3.044 7.268,-7.137c0,-4.093 -3.017,-7.137 -7.268,-7.137" style="fill:#fff;fill-rule:nonzero;"/><path d="M269.609,388.56c2.23,-0 3.831,1.627 3.831,3.988c-0,0.446 -0.053,0.866 -0.158,1.26l-0.446,-0.604l-3.568,0l2.177,2.913c-0.524,0.262 -1.154,0.419 -1.81,0.419c-2.23,0 -3.831,-1.626 -3.831,-3.988c-0.026,-2.335 1.574,-3.988 3.805,-3.988m-0,-3.149c-4.251,0 -7.268,3.044 -7.268,7.137c-0,4.093 3.017,7.137 7.268,7.137c1.443,0 2.676,-0.394 3.726,-1.076l0.603,0.814l3.857,-0l-2.178,-2.939c0.761,-1.102 1.207,-2.388 1.207,-3.936c0.053,-4.093 -2.965,-7.137 -7.215,-7.137" style="fill:#004153;fill-rule:nonzero;"/></g></g><g id="Ebene-11" serif:id="Ebene 1"><path d="M20.859,20.163l0,11.199l2.671,-0l0,-4.192l0.392,-0l2.953,4.192l3.183,-0l-3.215,-4.272c2.007,-0.32 3.127,-1.568 3.127,-3.344c0,-2.208 -1.471,-3.583 -4.239,-3.583l-4.872,-0Zm4.84,2.423c0.944,-0 1.552,0.368 1.552,1.16c0,0.8 -0.592,1.177 -1.552,1.177l-2.169,-0l0,-2.337l2.169,-0Z" style="fill:#fff;fill-rule:nonzero;"/><path d="M34.002,23.515l-2.503,-0l0,7.847l2.503,-0l0,-7.847Zm-1.263,-3.92c-0.848,-0 -1.496,0.656 -1.496,1.504c0,0.84 0.648,1.488 1.496,1.488c0.839,-0 1.495,-0.648 1.495,-1.488c0,-0.848 -0.656,-1.504 -1.495,-1.504Z" style="fill:#fff;fill-rule:nonzero;"/><path d="M42.354,23.978c-1.287,-0.496 -2.103,-0.671 -3.376,-0.671c-2.135,-0 -3.391,0.951 -3.391,2.623c0,1.408 0.88,2.192 2.767,2.472l0.456,0.064c0.889,0.136 1.241,0.256 1.241,0.56c0,0.336 -0.32,0.513 -1.097,0.513c-1.088,-0 -1.984,-0.273 -2.767,-0.737l-0.872,1.936c0.896,0.584 2.279,0.824 3.623,0.824c2.289,-0 3.632,-1.032 3.632,-2.752c0,-1.32 -0.888,-2.128 -2.567,-2.384l-0.576,-0.088c-0.769,-0.12 -1.265,-0.2 -1.265,-0.536c0,-0.288 0.256,-0.48 0.913,-0.48c0.8,0.007 1.808,0.28 2.583,0.608l0.696,-1.952Z" style="fill:#fff;fill-rule:nonzero;"/><path d="M46.394,19.843l-2.503,-0l0,11.519l2.503,-0l0,-3.032l0.536,-0l1.936,3.032l3.024,-0l-2.912,-4.144l2.904,-3.703l-3.032,-0l-1.856,2.6l-0.6,-0l0,-6.272Z" style="fill:#fff;fill-rule:nonzero;"/><path d="M65.835,23.299c-1.081,-0 -1.961,0.407 -2.489,1.311c-0.48,-0.84 -1.359,-1.311 -2.391,-1.311c-1.049,-0 -1.841,0.375 -2.337,1.199l0,-0.983l-2.399,-0l0,7.847l2.503,-0l0,-4.224c0,-1.016 0.576,-1.488 1.273,-1.488c0.776,-0 1.24,0.52 1.24,1.448l0,4.264l2.503,-0l0,-4.224c0,-1.016 0.584,-1.488 1.273,-1.488c0.784,-0 1.248,0.52 1.248,1.448l0,4.264l2.503,-0l0,-5.152c0,-1.808 -1.136,-2.911 -2.927,-2.911Z" style="fill:#fff;fill-rule:nonzero;"/><path d="M72.97,23.515l-2.503,-0l0,7.847l2.503,-0l0,-7.847Zm-1.263,-3.92c-0.848,-0 -1.496,0.656 -1.496,1.504c0,0.84 0.648,1.488 1.496,1.488c0.839,-0 1.495,-0.648 1.495,-1.488c0,-0.848 -0.656,-1.504 -1.495,-1.504Z" style="fill:#fff;fill-rule:nonzero;"/><path d="M79.459,23.299c-1.049,-0 -1.841,0.375 -2.337,1.199l0,-0.983l-2.399,-0l0,7.847l2.503,-0l0,-4.224c0,-1.016 0.576,-1.488 1.273,-1.488c0.776,-0 1.24,0.52 1.24,1.448l0,4.264l2.503,-0l0,-5.152c0,-1.816 -1.215,-2.911 -2.783,-2.911Z" style="fill:#fff;fill-rule:nonzero;"/><path d="M86.45,23.515l-2.503,-0l0,7.847l2.503,-0l0,-7.847Zm-1.263,-3.92c-0.848,-0 -1.496,0.656 -1.496,1.504c0,0.84 0.648,1.488 1.496,1.488c0.839,-0 1.495,-0.648 1.495,-1.488c0,-0.848 -0.656,-1.504 -1.495,-1.504Z" style="fill:#fff;fill-rule:nonzero;"/><path d="M97.819,23.299c-1.081,-0 -1.961,0.407 -2.489,1.311c-0.48,-0.84 -1.359,-1.311 -2.391,-1.311c-1.049,-0 -1.841,0.375 -2.337,1.199l0,-0.983l-2.399,-0l0,7.847l2.503,-0l0,-4.224c0,-1.016 0.576,-1.488 1.273,-1.488c0.776,-0 1.24,0.52 1.24,1.448l0,4.264l2.503,-0l0,-4.224c0,-1.016 0.584,-1.488 1.273,-1.488c0.784,-0 1.248,0.52 1.248,1.448l0,4.264l2.503,-0l0,-5.152c0,-1.808 -1.136,-2.911 -2.927,-2.911Z" style="fill:#fff;fill-rule:nonzero;"/><path d="M104.954,23.515l-2.503,-0l0,7.847l2.503,-0l0,-7.847Zm-1.263,-3.92c-0.848,-0 -1.496,0.656 -1.496,1.504c0,0.84 0.648,1.488 1.496,1.488c0.839,-0 1.495,-0.648 1.495,-1.488c0,-0.848 -0.656,-1.504 -1.495,-1.504Z" style="fill:#fff;fill-rule:nonzero;"/><path d="M113.443,23.515l-6.864,-0l-0,2.215l3.408,-0l-3.544,3.84l-0,1.792l7.08,-0l-0,-2.215l-3.544,-0l3.464,-3.785l-0,-1.847Z" style="fill:#fff;fill-rule:nonzero;"/><path d="M122.77,23.515l-2.423,-0l0,0.848c-0.472,-0.617 -1.192,-1.064 -2.249,-1.064c-2.104,-0 -3.655,1.823 -3.655,4.127c0,2.32 1.551,4.144 3.647,4.144c1.065,-0 1.785,-0.44 2.257,-1.056l0,0.848l2.423,-0l0,-7.847Zm-4.079,2.119c0.984,-0 1.68,0.76 1.68,1.8c0,1.04 -0.696,1.801 -1.68,1.801c-1.001,-0 -1.673,-0.777 -1.673,-1.801c0,-1.024 0.672,-1.8 1.673,-1.8Z" style="fill:#fff;fill-rule:nonzero;"/><path d="M130.554,23.515l-2.68,-0l0,-2.288l-2.503,-0l0,2.288l-1.464,-0l0,2.215l1.464,-0l0,2.616c0,1.968 0.952,3.224 3.055,3.224c1.264,-0 2.048,-0.36 2.784,-0.872l-0.864,-1.952c-0.392,0.232 -0.896,0.489 -1.36,0.489c-0.632,-0 -1.112,-0.305 -1.112,-1.209l0,-2.296l2.68,-0l0,-2.215Z" style="fill:#fff;fill-rule:nonzero;"/><path d="M134.698,23.515l-2.503,-0l0,7.847l2.503,-0l0,-7.847Zm-1.263,-3.92c-0.848,-0 -1.496,0.656 -1.496,1.504c0,0.84 0.648,1.488 1.496,1.488c0.839,-0 1.495,-0.648 1.495,-1.488c0,-0.848 -0.656,-1.504 -1.495,-1.504Z" style="fill:#fff;fill-rule:nonzero;"/><path d="M140.291,23.299c-2.449,-0 -4.256,1.759 -4.256,4.135c0,2.376 1.807,4.136 4.256,4.136c2.456,-0 4.263,-1.76 4.263,-4.136c0,-2.376 -1.807,-4.135 -4.263,-4.135Zm-0,2.335c0.984,-0 1.704,0.744 1.704,1.8c0,1.056 -0.72,1.801 -1.704,1.801c-0.977,-0 -1.697,-0.745 -1.697,-1.801c0,-1.056 0.72,-1.8 1.697,-1.8Z" style="fill:#fff;fill-rule:nonzero;"/><path d="M150.635,23.299c-1.049,-0 -1.841,0.375 -2.337,1.199l0,-0.983l-2.399,-0l0,7.847l2.503,-0l0,-4.224c0,-1.016 0.576,-1.488 1.273,-1.488c0.776,-0 1.24,0.52 1.24,1.448l0,4.264l2.503,-0l0,-5.152c0,-1.816 -1.215,-2.911 -2.783,-2.911Z" style="fill:#fff;fill-rule:nonzero;"/><path d="M22.515,394.4c-1.323,0 -2.218,0.958 -2.218,2.228c0,1.269 0.895,2.227 2.218,2.227c0.635,-0 1.202,-0.234 1.589,-0.67l-0.455,-0.509c-0.297,0.288 -0.697,0.491 -1.152,0.491c-0.823,-0 -1.449,-0.644 -1.449,-1.539c0,-0.896 0.626,-1.535 1.449,-1.535c0.455,-0 0.819,0.175 1.134,0.481l0.473,-0.499c-0.383,-0.441 -0.954,-0.675 -1.589,-0.675Z" style="fill:#fff;fill-rule:nonzero;"/><path d="M29.216,394.49l-0.738,0l0,0.576c-0.337,-0.405 -0.837,-0.666 -1.507,-0.666c-1.202,0 -2.138,0.936 -2.138,2.228c0,1.291 0.936,2.227 2.138,2.227c0.67,-0 1.17,-0.261 1.507,-0.661l0,0.571l0.738,-0l-0,-4.275Zm-2.16,0.603c0.864,-0 1.467,0.661 1.467,1.535c0,0.877 -0.603,1.539 -1.467,1.539c-0.878,-0 -1.472,-0.689 -1.472,-1.539c0,-0.851 0.581,-1.535 1.472,-1.535Z" style="fill:#fff;fill-rule:nonzero;"/><path d="M32.748,394.4c-0.508,0 -0.954,0.234 -1.251,0.652l0,-0.562l-0.724,0l0,4.275l0.733,-0l0,-2.38c0,-0.788 0.459,-1.288 1.112,-1.288c0.243,0 0.531,0.059 0.733,0.167l0.18,-0.724c-0.229,-0.099 -0.477,-0.14 -0.783,-0.14Z" style="fill:#fff;fill-rule:nonzero;"/><path d="M36.178,394.4c-1.202,0 -2.138,0.936 -2.138,2.228c0,1.291 0.936,2.227 2.138,2.227c0.67,-0 1.17,-0.261 1.507,-0.661l0,0.571l0.738,-0l-0,-6.48l-0.738,0l0,2.781c-0.337,-0.405 -0.837,-0.666 -1.507,-0.666Zm0.085,0.693c0.864,-0 1.467,0.661 1.467,1.534c0,0.878 -0.603,1.54 -1.467,1.54c-0.878,-0 -1.472,-0.689 -1.472,-1.539c0,-0.851 0.581,-1.535 1.472,-1.535Z" style="fill:#fff;fill-rule:nonzero;"/><path d="M43.179,394.868c-0.413,-0.283 -1.03,-0.463 -1.705,-0.463c-1.04,-0 -1.719,0.494 -1.719,1.313c0,0.648 0.463,1.081 1.422,1.198l0.495,0.058c0.581,0.072 0.86,0.27 0.86,0.585c-0,0.423 -0.432,0.653 -1.135,0.653c-0.715,-0 -1.143,-0.207 -1.462,-0.455l-0.342,0.549c0.563,0.423 1.273,0.549 1.8,0.549c1.166,-0 1.894,-0.526 1.894,-1.341c0,-0.706 -0.535,-1.089 -1.444,-1.211l-0.495,-0.063c-0.518,-0.063 -0.828,-0.22 -0.828,-0.562c-0,-0.387 0.378,-0.635 0.963,-0.635c0.563,0 1.107,0.212 1.377,0.396l0.319,-0.571Z" style="fill:#fff;fill-rule:nonzero;"/><path d="M47.58,395.003l-0.76,0l0,1.742l-1.998,-0l2.304,-4.271l-0.864,0l-2.353,4.406l-0,0.584l2.911,0l0,1.301l0.76,-0l0,-1.301l1.049,0l-0,-0.719l-1.049,-0l0,-1.742Z" style="fill:#fff;fill-rule:nonzero;"/><path d="M49.79,393.869c0.302,-0.405 0.675,-0.765 1.377,-0.765c0.797,-0 1.256,0.535 1.256,1.237c-0,0.518 -0.252,0.941 -0.63,1.337l-2.358,2.489l-0,0.598l3.982,-0l-0,-0.724l-2.853,-0l1.809,-1.922c0.405,-0.427 0.846,-0.99 0.846,-1.773c-0,-1.13 -0.747,-1.971 -2.034,-1.971c-1.089,0 -1.647,0.612 -1.944,1.048l0.549,0.446Z" style="fill:#fff;fill-rule:nonzero;"/><path d="M55.141,397.622c-0.329,0 -0.617,0.284 -0.617,0.612c0,0.333 0.288,0.621 0.617,0.621c0.328,-0 0.611,-0.288 0.611,-0.621c0,-0.328 -0.283,-0.612 -0.611,-0.612Z" style="fill:#fff;fill-rule:nonzero;"/><path d="M58.966,394.4c-1.297,0 -2.259,0.958 -2.259,2.228c-0,1.269 0.962,2.227 2.259,2.227c1.296,-0 2.263,-0.958 2.263,-2.227c-0,-1.27 -0.967,-2.228 -2.263,-2.228Zm-0,0.693c0.855,-0 1.507,0.639 1.507,1.535c0,0.895 -0.652,1.539 -1.507,1.539c-0.86,-0 -1.508,-0.644 -1.508,-1.539c-0,-0.896 0.648,-1.535 1.508,-1.535Z" style="fill:#fff;fill-rule:nonzero;"/><path d="M64.437,394.4c-0.508,0 -0.954,0.234 -1.251,0.652l0,-0.562l-0.724,0l0,4.275l0.733,-0l0,-2.38c0,-0.788 0.459,-1.288 1.112,-1.288c0.243,0 0.531,0.059 0.733,0.167l0.18,-0.724c-0.229,-0.099 -0.477,-0.14 -0.783,-0.14Z" style="fill:#fff;fill-rule:nonzero;"/><path d="M67.844,394.4c-1.202,0 -2.115,0.891 -2.115,2.192c0,1.305 0.913,2.195 2.115,2.195c0.662,0 1.148,-0.256 1.472,-0.665l-0,0.378c-0,0.949 -0.617,1.467 -1.535,1.467c-0.554,-0 -1.062,-0.185 -1.472,-0.477l-0.319,0.594c0.436,0.35 1.125,0.553 1.791,0.553c1.35,-0 2.272,-0.787 2.272,-2.169l0,-3.978l-0.737,0l-0,0.581c-0.324,-0.41 -0.81,-0.671 -1.472,-0.671Zm0.086,0.693c0.85,-0 1.449,0.648 1.449,1.499c-0,0.855 -0.599,1.503 -1.449,1.503c-0.878,-0 -1.45,-0.671 -1.45,-1.503c0,-0.824 0.572,-1.499 1.45,-1.499Z" style="fill:#fff;fill-rule:nonzero;"/><path d="M75.4,391.835l-0.81,0l-3.821,7.83l0.81,-0l3.821,-7.83Z" style="fill:#fff;fill-rule:nonzero;"/><path d="M80.854,394.4c-0.581,0 -1.243,0.212 -1.594,0.859c-0.283,-0.535 -0.854,-0.859 -1.579,-0.859c-0.495,0 -1.049,0.167 -1.4,0.648l0,-0.558l-0.728,0l-0,4.275l0.733,-0l-0,-2.398c-0,-0.797 0.576,-1.27 1.265,-1.27c0.742,0 1.174,0.464 1.174,1.251l0,2.417l0.738,-0l-0,-2.399c-0,-0.778 0.553,-1.269 1.26,-1.269c0.743,0 1.175,0.464 1.175,1.251l-0,2.417l0.737,-0l0,-2.655c0,-1.026 -0.724,-1.71 -1.781,-1.71Z" style="fill:#fff;fill-rule:nonzero;"/><path d="M84.881,394.49l-0.733,0l-0,4.275l0.733,-0l-0,-4.275Zm-0.373,-2.029c-0.293,-0 -0.518,0.229 -0.518,0.526c0,0.293 0.225,0.513 0.518,0.513c0.292,0 0.526,-0.22 0.526,-0.513c-0,-0.297 -0.234,-0.526 -0.526,-0.526Z" style="fill:#fff;fill-rule:nonzero;"/><path d="M88.567,394.4c-0.496,0 -1.049,0.167 -1.4,0.648l-0,-0.558l-0.729,0l0,4.275l0.733,-0l0,-2.398c0,-0.797 0.576,-1.27 1.265,-1.27c0.743,0 1.175,0.464 1.175,1.251l-0,2.417l0.737,-0l0,-2.655c0,-1.026 -0.728,-1.71 -1.781,-1.71Z" style="fill:#fff;fill-rule:nonzero;"/><path d="M92.594,394.49l-0.733,0l-0,4.275l0.733,-0l-0,-4.275Zm-0.373,-2.029c-0.293,-0 -0.518,0.229 -0.518,0.526c0,0.293 0.225,0.513 0.518,0.513c0.292,0 0.526,-0.22 0.526,-0.513c-0,-0.297 -0.234,-0.526 -0.526,-0.526Z" style="fill:#fff;fill-rule:nonzero;"/><path d="M96.126,394.4c-0.508,0 -0.954,0.234 -1.251,0.652l0,-0.562l-0.724,0l0,4.275l0.733,-0l0,-2.38c0,-0.788 0.459,-1.288 1.112,-1.288c0.243,0 0.531,0.059 0.733,0.167l0.18,-0.724c-0.229,-0.099 -0.477,-0.14 -0.783,-0.14Z" style="fill:#fff;fill-rule:nonzero;"/><path d="M98.655,394.49l-0.733,0l0,4.275l0.733,-0l0,-4.275Zm-0.373,-2.029c-0.292,-0 -0.517,0.229 -0.517,0.526c-0,0.293 0.225,0.513 0.517,0.513c0.292,0 0.526,-0.22 0.526,-0.513c0,-0.297 -0.234,-0.526 -0.526,-0.526Z" style="fill:#fff;fill-rule:nonzero;"/><path d="M103.412,394.868c-0.414,-0.283 -1.03,-0.463 -1.705,-0.463c-1.04,-0 -1.719,0.494 -1.719,1.313c-0,0.648 0.463,1.081 1.421,1.198l0.496,0.058c0.58,0.072 0.859,0.27 0.859,0.585c0,0.423 -0.432,0.653 -1.134,0.653c-0.716,-0 -1.143,-0.207 -1.462,-0.455l-0.342,0.549c0.562,0.423 1.273,0.549 1.799,0.549c1.166,-0 1.895,-0.526 1.895,-1.341c-0,-0.706 -0.535,-1.089 -1.444,-1.211l-0.496,-0.063c-0.517,-0.063 -0.828,-0.22 -0.828,-0.562c0,-0.387 0.378,-0.635 0.964,-0.635c0.562,0 1.107,0.212 1.377,0.396l0.319,-0.571Z" style="fill:#fff;fill-rule:nonzero;"/><path d="M105.419,392.285l-0.733,0l-0,6.48l0.733,-0l-0,-1.899l0.58,-0l1.616,1.899l0.931,-0l-1.935,-2.259l1.908,-2.016l-0.927,0l-1.588,1.71l-0.585,0l-0,-3.915Z" style="fill:#fff;fill-rule:nonzero;"/><rect x="19.843" y="75.873" width="257.953" height="73.701" style="fill:#fff;"/><rect x="19.843" y="179.662" width="258.198" height="90.557" style="fill:#fff;"/><rect x="19.843" y="300.134" width="257.953" height="53.858" style="fill:#fff;"/><path d="M26.848,81.768c-0.508,-0 -0.954,0.233 -1.251,0.652l0,-0.562l-0.724,-0l0,4.274l0.733,0l0,-2.38c0,-0.788 0.459,-1.287 1.112,-1.287c0.243,-0 0.531,0.058 0.733,0.166l0.18,-0.724c-0.229,-0.099 -0.477,-0.139 -0.783,-0.139Z" style="fill:#989799;fill-rule:nonzero;"/><path d="M29.377,81.858l-0.733,-0l0,4.274l0.733,0l0,-4.274Zm-0.373,-2.03c-0.292,0 -0.517,0.23 -0.517,0.527c-0,0.292 0.225,0.513 0.517,0.513c0.292,-0 0.526,-0.221 0.526,-0.513c0,-0.297 -0.234,-0.527 -0.526,-0.527Z" style="fill:#989799;fill-rule:nonzero;"/><path d="M34.134,82.235c-0.414,-0.283 -1.03,-0.463 -1.705,-0.463c-1.04,0 -1.719,0.495 -1.719,1.314c-0,0.648 0.463,1.08 1.422,1.197l0.495,0.058c0.58,0.072 0.859,0.27 0.859,0.585c0,0.424 -0.432,0.653 -1.134,0.653c-0.716,0 -1.143,-0.207 -1.462,-0.454l-0.342,0.549c0.562,0.422 1.273,0.548 1.8,0.548c1.165,0 1.894,-0.526 1.894,-1.341c-0,-0.706 -0.535,-1.089 -1.444,-1.21l-0.495,-0.063c-0.518,-0.063 -0.829,-0.221 -0.829,-0.563c0,-0.387 0.378,-0.634 0.964,-0.634c0.562,-0 1.107,0.211 1.377,0.396l0.319,-0.572Z" style="fill:#989799;fill-rule:nonzero;"/><path d="M36.141,79.653l-0.733,-0l-0,6.479l0.733,0l-0,-1.899l0.58,0l1.616,1.899l0.931,0l-1.935,-2.259l1.908,-2.015l-0.927,-0l-1.588,1.71l-0.585,-0l-0,-3.915Z" style="fill:#989799;fill-rule:nonzero;"/><path d="M30.174,185.761c-0.58,0 -1.242,0.212 -1.593,0.859c-0.283,-0.535 -0.855,-0.859 -1.579,-0.859c-0.495,0 -1.049,0.167 -1.4,0.648l-0,-0.558l-0.729,0l0,4.275l0.733,-0l0,-2.399c0,-0.796 0.576,-1.269 1.265,-1.269c0.743,0 1.175,0.464 1.175,1.251l-0,2.417l0.737,-0l0,-2.399c0,-0.778 0.554,-1.269 1.261,-1.269c0.742,0 1.174,0.464 1.174,1.251l0,2.417l0.738,-0l-0,-2.655c-0,-1.026 -0.724,-1.71 -1.782,-1.71Z" style="fill:#989799;fill-rule:nonzero;"/><path d="M35.268,185.761c-1.229,0 -2.124,0.913 -2.124,2.227c0,1.333 0.9,2.228 2.169,2.228c0.63,-0 1.224,-0.153 1.755,-0.648l-0.391,-0.504c-0.365,0.315 -0.819,0.509 -1.319,0.509c-0.734,-0 -1.35,-0.437 -1.454,-1.324l3.362,0c0.004,-0.081 0.013,-0.18 0.013,-0.274c-0.009,-1.31 -0.845,-2.214 -2.011,-2.214Zm-0.013,0.652c0.693,0 1.183,0.486 1.273,1.243l-2.615,-0c0.113,-0.73 0.585,-1.243 1.342,-1.243Z" style="fill:#989799;fill-rule:nonzero;"/><path d="M42.571,185.851l-0.737,0l-0,0.576c-0.338,-0.405 -0.837,-0.666 -1.508,-0.666c-1.202,0 -2.137,0.936 -2.137,2.227c-0,1.292 0.935,2.228 2.137,2.228c0.671,-0 1.17,-0.261 1.508,-0.661l-0,0.571l0.737,-0l0,-4.275Zm-2.159,0.603c0.864,-0 1.467,0.661 1.467,1.534c-0,0.878 -0.603,1.54 -1.467,1.54c-0.878,-0 -1.472,-0.689 -1.472,-1.54c-0,-0.85 0.58,-1.534 1.472,-1.534Z" style="fill:#989799;fill-rule:nonzero;"/><path d="M47.328,186.229c-0.414,-0.283 -1.03,-0.463 -1.705,-0.463c-1.04,-0 -1.719,0.494 -1.719,1.313c-0,0.648 0.463,1.08 1.422,1.197l0.495,0.059c0.58,0.072 0.859,0.27 0.859,0.585c0,0.423 -0.432,0.653 -1.134,0.653c-0.716,-0 -1.143,-0.207 -1.462,-0.455l-0.342,0.549c0.562,0.423 1.273,0.549 1.8,0.549c1.165,-0 1.894,-0.526 1.894,-1.341c-0,-0.707 -0.535,-1.089 -1.444,-1.211l-0.495,-0.063c-0.518,-0.063 -0.829,-0.22 -0.829,-0.562c0,-0.387 0.378,-0.635 0.964,-0.635c0.562,0 1.107,0.212 1.377,0.396l0.319,-0.571Z" style="fill:#989799;fill-rule:nonzero;"/><path d="M52.458,185.851l-0.738,0l0,2.417c0,0.873 -0.517,1.26 -1.21,1.26c-0.698,-0 -1.216,-0.387 -1.216,-1.26l0,-2.417l-0.737,0l-0,2.484c-0,1.292 0.922,1.881 1.953,1.881c1.021,-0 1.948,-0.589 1.948,-1.881l-0,-2.484Z" style="fill:#989799;fill-rule:nonzero;"/><path d="M55.945,185.761c-0.508,0 -0.954,0.234 -1.251,0.652l0,-0.562l-0.724,0l0,4.275l0.733,-0l0,-2.381c0,-0.787 0.459,-1.287 1.112,-1.287c0.243,0 0.531,0.059 0.733,0.167l0.18,-0.724c-0.229,-0.099 -0.477,-0.14 -0.783,-0.14Z" style="fill:#989799;fill-rule:nonzero;"/><path d="M59.361,185.761c-1.229,0 -2.124,0.913 -2.124,2.227c0,1.333 0.9,2.228 2.169,2.228c0.63,-0 1.224,-0.153 1.755,-0.648l-0.391,-0.504c-0.365,0.315 -0.819,0.509 -1.319,0.509c-0.734,-0 -1.35,-0.437 -1.454,-1.324l3.362,0c0.004,-0.081 0.013,-0.18 0.013,-0.274c-0.009,-1.31 -0.845,-2.214 -2.011,-2.214Zm-0.013,0.652c0.693,0 1.183,0.486 1.273,1.243l-2.615,-0c0.113,-0.73 0.585,-1.243 1.342,-1.243Z" style="fill:#989799;fill-rule:nonzero;"/><path d="M65.805,186.229c-0.414,-0.283 -1.03,-0.463 -1.705,-0.463c-1.04,-0 -1.719,0.494 -1.719,1.313c-0,0.648 0.463,1.08 1.422,1.197l0.495,0.059c0.58,0.072 0.859,0.27 0.859,0.585c0,0.423 -0.432,0.653 -1.134,0.653c-0.716,-0 -1.143,-0.207 -1.462,-0.455l-0.342,0.549c0.562,0.423 1.273,0.549 1.8,0.549c1.165,-0 1.894,-0.526 1.894,-1.341c-0,-0.707 -0.535,-1.089 -1.444,-1.211l-0.495,-0.063c-0.518,-0.063 -0.829,-0.22 -0.829,-0.562c0,-0.387 0.378,-0.635 0.964,-0.635c0.562,0 1.107,0.212 1.377,0.396l0.319,-0.571Z" style="fill:#989799;fill-rule:nonzero;"/><path d="M26.919,306.283c-1.229,0 -2.124,0.913 -2.124,2.227c0,1.332 0.9,2.227 2.169,2.227c0.63,0 1.224,-0.152 1.755,-0.647l-0.391,-0.504c-0.365,0.315 -0.819,0.509 -1.319,0.509c-0.734,-0 -1.35,-0.437 -1.454,-1.324l3.362,-0c0.004,-0.081 0.013,-0.18 0.013,-0.274c-0.009,-1.31 -0.845,-2.214 -2.011,-2.214Zm-0.014,0.652c0.694,-0 1.184,0.486 1.274,1.243l-2.615,-0c0.113,-0.73 0.585,-1.243 1.341,-1.243Z" style="fill:#989799;fill-rule:nonzero;"/><path d="M32.949,306.373l-1.643,0l0,-0.729c0,-0.554 0.225,-0.878 0.734,-0.878c0.315,-0 0.634,0.112 0.859,0.248l0.266,-0.617c-0.306,-0.184 -0.689,-0.319 -1.175,-0.319c-1.008,0 -1.421,0.67 -1.421,1.566l-0,0.729l-0.95,0l0,0.67l0.95,-0l-0,3.604l0.737,0l0,-3.604l1.643,-0l-0,-0.67Zm3.757,0l-1.642,0l-0,-0.729c-0,-0.554 0.225,-0.878 0.733,-0.878c0.315,-0 0.635,0.112 0.86,0.248l0.265,-0.617c-0.306,-0.184 -0.688,-0.319 -1.174,-0.319c-1.008,0 -1.422,0.67 -1.422,1.566l0,0.729l-0.949,0l-0,0.67l0.949,-0l0,3.604l0.738,0l-0,-3.604l1.642,-0l0,-0.67Z" style="fill:#989799;fill-rule:nonzero;"/><path d="M39.586,306.283c-1.228,0 -2.123,0.913 -2.123,2.227c-0,1.332 0.899,2.227 2.168,2.227c0.631,0 1.225,-0.152 1.755,-0.647l-0.391,-0.504c-0.364,0.315 -0.819,0.509 -1.318,0.509c-0.734,-0 -1.351,-0.437 -1.454,-1.324l3.361,-0c0.005,-0.081 0.014,-0.18 0.014,-0.274c-0.009,-1.31 -0.846,-2.214 -2.012,-2.214Zm-0.013,0.652c0.693,-0 1.184,0.486 1.274,1.243l-2.615,-0c0.112,-0.73 0.585,-1.243 1.341,-1.243Z" style="fill:#989799;fill-rule:nonzero;"/><path d="M44.725,306.283c-1.323,0 -2.218,0.958 -2.218,2.227c0,1.269 0.895,2.227 2.218,2.227c0.635,0 1.202,-0.233 1.589,-0.67l-0.455,-0.508c-0.297,0.288 -0.697,0.491 -1.152,0.491c-0.823,-0 -1.449,-0.644 -1.449,-1.54c0,-0.895 0.626,-1.535 1.449,-1.535c0.455,0 0.819,0.176 1.134,0.482l0.473,-0.5c-0.383,-0.44 -0.954,-0.674 -1.589,-0.674Z" style="fill:#989799;fill-rule:nonzero;"/><path d="M50.404,306.373l-1.795,0l-0,-1.341l-0.738,0l0,1.341l-0.913,0l-0,0.67l0.913,-0l0,2.097c0,1.089 0.553,1.597 1.48,1.597c0.527,0 0.954,-0.184 1.283,-0.422l-0.347,-0.554c-0.243,0.167 -0.558,0.289 -0.873,0.289c-0.463,-0 -0.805,-0.28 -0.805,-0.923l-0,-2.084l1.795,-0l0,-0.67Z" style="fill:#989799;fill-rule:nonzero;"/><path d="M26.868,56.822l-6.785,0l0,1.002l2.868,-0l0,7.398l1.055,-0l0,-7.398l2.862,-0l0,-1.002Z" style="fill:#fff;fill-rule:nonzero;"/><path d="M29.761,59.402c-1.729,0 -3.012,1.278 -3.012,2.97c0,1.692 1.283,2.97 3.012,2.97c1.728,-0 3.017,-1.278 3.017,-2.97c0,-1.692 -1.289,-2.97 -3.017,-2.97Zm-0,0.924c1.14,-0 2.01,0.852 2.01,2.046c0,1.194 -0.87,2.052 -2.01,2.052c-1.147,0 -2.011,-0.858 -2.011,-2.052c0,-1.194 0.864,-2.046 2.011,-2.046Z" style="fill:#fff;fill-rule:nonzero;"/><path d="M43.044,59.522l-0.983,0l0,0.768c-0.45,-0.54 -1.116,-0.888 -2.01,-0.888c-1.603,0 -2.85,1.248 -2.85,2.97c0,1.722 1.247,2.97 2.85,2.97c0.894,-0 1.56,-0.348 2.01,-0.882l0,0.762l0.983,-0l0,-5.7Zm-2.879,0.804c1.152,-0 1.956,0.882 1.956,2.046c-0,1.17 -0.804,2.052 -1.956,2.052c-1.171,0 -1.963,-0.918 -1.963,-2.052c0,-1.134 0.774,-2.046 1.963,-2.046Z" style="fill:#fff;fill-rule:nonzero;"/><path d="M50.191,59.522l-1.038,0l-1.92,4.71l-1.914,-4.71l-1.068,0l2.4,5.706l1.152,-0l2.388,-5.706Z" style="fill:#fff;fill-rule:nonzero;"/><path d="M53.905,59.402c-1.729,0 -3.012,1.278 -3.012,2.97c0,1.692 1.283,2.97 3.012,2.97c1.728,-0 3.017,-1.278 3.017,-2.97c0,-1.692 -1.289,-2.97 -3.017,-2.97Zm-0,0.924c1.14,-0 2.01,0.852 2.01,2.046c0,1.194 -0.87,2.052 -2.01,2.052c-1.147,0 -2.011,-0.858 -2.011,-2.052c0,-1.194 0.864,-2.046 2.011,-2.046Z" style="fill:#fff;fill-rule:nonzero;"/><path d="M59.544,59.522l-0.977,0l0,5.7l0.977,-0l0,-5.7Zm-0.497,-2.706c-0.39,0 -0.69,0.306 -0.69,0.702c0,0.39 0.3,0.684 0.69,0.684c0.389,0 0.701,-0.294 0.701,-0.684c0,-0.396 -0.312,-0.702 -0.701,-0.702Z" style="fill:#fff;fill-rule:nonzero;"/><path d="M64.039,59.402c-1.603,0 -2.85,1.248 -2.85,2.97c0,1.722 1.247,2.97 2.85,2.97c0.894,-0 1.56,-0.348 2.01,-0.882l0,0.762l0.983,-0l0,-8.64l-0.983,0l0,3.708c-0.45,-0.54 -1.116,-0.888 -2.01,-0.888Zm0.114,0.924c1.152,-0 1.956,0.882 1.956,2.046c-0,1.17 -0.804,2.052 -1.956,2.052c-1.171,0 -1.963,-0.918 -1.963,-2.052c0,-1.134 0.774,-2.046 1.963,-2.046Z" style="fill:#fff;fill-rule:nonzero;"/><path d="M25.495,163.238l-1.11,-0l-1.626,4.661l-1.614,-4.661l-1.05,-0l2.052,5.699l1.152,0l1.626,-4.637l1.632,4.637l1.17,0l2.052,-5.699l-1.026,-0l-1.62,4.673l-1.638,-4.673Z" style="fill:#fff;fill-rule:nonzero;"/><path d="M33.463,163.118c-1.639,-0 -2.832,1.217 -2.832,2.969c0,1.777 1.199,2.97 2.892,2.97c0.84,0 1.632,-0.204 2.339,-0.863l-0.521,-0.672c-0.486,0.42 -1.092,0.678 -1.758,0.678c-0.979,-0 -1.801,-0.582 -1.939,-1.765l4.482,0c0.006,-0.108 0.018,-0.24 0.018,-0.365c-0.012,-1.747 -1.127,-2.952 -2.681,-2.952Zm-0.018,0.869c0.924,0 1.578,0.648 1.698,1.657l-3.487,-0c0.15,-0.973 0.78,-1.657 1.789,-1.657Z" style="fill:#fff;fill-rule:nonzero;"/><path d="M44.778,163.238l-2.394,-0l0,-1.788l-0.983,-0l0,1.788l-1.218,-0l0,0.893l1.218,0l0,2.797c0,1.452 0.737,2.129 1.973,2.129c0.702,0 1.272,-0.246 1.71,-0.563l-0.462,-0.738c-0.324,0.222 -0.744,0.384 -1.164,0.384c-0.618,-0 -1.074,-0.372 -1.074,-1.23l0,-2.779l2.394,0l0,-0.893Z" style="fill:#fff;fill-rule:nonzero;"/><path d="M51.75,163.238l-0.983,-0l0,0.768c-0.45,-0.54 -1.116,-0.888 -2.01,-0.888c-1.603,-0 -2.85,1.247 -2.85,2.97c0,1.722 1.247,2.969 2.85,2.969c0.894,0 1.56,-0.348 2.01,-0.881l0,0.761l0.983,0l0,-5.699Zm-2.879,0.803c1.152,0 1.956,0.882 1.956,2.047c-0,1.17 -0.804,2.052 -1.956,2.052c-1.171,-0 -1.963,-0.918 -1.963,-2.052c0,-1.135 0.774,-2.047 1.963,-2.047Z" style="fill:#fff;fill-rule:nonzero;"/><path d="M54.804,160.298l-0.977,-0l0,8.639l0.977,0l0,-2.532l0.774,0l2.154,2.532l1.242,0l-2.58,-3.011l2.544,-2.688l-1.236,-0l-2.118,2.28l-0.78,-0l0,-5.22Z" style="fill:#fff;fill-rule:nonzero;"/><path d="M62.371,163.118c-1.639,-0 -2.832,1.217 -2.832,2.969c0,1.777 1.199,2.97 2.892,2.97c0.84,0 1.632,-0.204 2.339,-0.863l-0.521,-0.672c-0.486,0.42 -1.092,0.678 -1.758,0.678c-0.979,-0 -1.801,-0.582 -1.939,-1.765l4.482,0c0.006,-0.108 0.018,-0.24 0.018,-0.365c-0.012,-1.747 -1.127,-2.952 -2.681,-2.952Zm-0.018,0.869c0.924,0 1.578,0.648 1.698,1.657l-3.487,-0c0.15,-0.973 0.78,-1.657 1.789,-1.657Z" style="fill:#fff;fill-rule:nonzero;"/><path d="M47.364,109.478c-0.009,6.014 -4.914,10.882 -10.957,10.874c-5.803,-0.008 -10.59,-4.524 -10.91,-10.29c-0.01,-0.194 -0.01,-0.389 -0.01,-0.584c-0.006,-2.808 1.085,-5.509 3.043,-7.532c0.289,-0.299 0.766,-0.308 1.067,-0.021c0.075,0.072 0.135,0.159 0.175,0.256c0.438,1.058 1.044,2.04 1.795,2.908c0.924,-1.633 1.408,-3.477 1.405,-5.351c0.002,-1.443 -0.283,-2.873 -0.841,-4.205c-0.16,-0.382 0.022,-0.822 0.406,-0.982c0.158,-0.066 0.335,-0.076 0.5,-0.028c2.839,0.792 5.357,2.452 7.198,4.745c2.011,2.487 3.104,5.585 3.097,8.777c0.003,0.101 -0.001,0.201 -0.012,0.301c0.958,-0.307 1.866,-0.749 2.697,-1.313c0.344,-0.233 0.813,-0.144 1.048,0.198c0.059,0.086 0.099,0.184 0.118,0.286c0.12,0.647 0.181,1.303 0.181,1.961Zm-10.495,-1.586c0.19,-0.085 0.413,-0.001 0.499,0.188c0.053,0.117 0.043,0.253 -0.028,0.36c-0.938,1.466 -1.01,3.32 -0.19,4.853c0.483,-0.34 0.861,-0.808 1.09,-1.351c0.069,-0.197 0.284,-0.301 0.482,-0.234c0.016,0.006 0.032,0.013 0.048,0.021c1.493,0.787 2.38,2.376 2.263,4.054c0.048,2.482 -1.935,4.533 -4.429,4.581c-0.06,0.001 -0.119,0.001 -0.179,-0c-2.555,-0.011 -4.618,-2.082 -4.607,-4.625c-0,-0.029 0,-0.059 0.001,-0.088c0.043,-3.338 2.007,-6.355 5.05,-7.759Z" style="fill:none;fill-rule:nonzero;stroke:#f4f4f4;stroke-width:2px;"/><path d="M24.348,283.796l-2.19,0l0,-0.972c0,-0.738 0.3,-1.17 0.978,-1.17c0.42,-0 0.846,0.15 1.146,0.33l0.354,-0.822c-0.408,-0.246 -0.918,-0.426 -1.566,-0.426c-1.343,0 -1.895,0.894 -1.895,2.088l0,0.972l-1.266,0l0,0.894l1.266,-0l0,4.806l0.983,-0l0,-4.806l2.19,-0l0,-0.894Z" style="fill:#fff;fill-rule:nonzero;"/><path d="M28.278,283.676c-0.678,0 -1.272,0.312 -1.668,0.87l0,-0.75l-0.965,0l0,5.7l0.977,-0l0,-3.174c0,-1.05 0.612,-1.716 1.482,-1.716c0.324,-0 0.708,0.078 0.978,0.222l0.24,-0.966c-0.306,-0.132 -0.636,-0.186 -1.044,-0.186Z" style="fill:#fff;fill-rule:nonzero;"/><path d="M33.013,283.676c-1.729,0 -3.012,1.278 -3.012,2.97c0,1.692 1.283,2.97 3.012,2.97c1.728,-0 3.017,-1.278 3.017,-2.97c0,-1.692 -1.289,-2.97 -3.017,-2.97Zm-0,0.924c1.14,-0 2.01,0.852 2.01,2.046c0,1.194 -0.87,2.052 -2.01,2.052c-1.146,0 -2.011,-0.858 -2.011,-2.052c0,-1.194 0.865,-2.046 2.011,-2.046Z" style="fill:#fff;fill-rule:nonzero;"/><path d="M44.743,283.676c-0.774,0 -1.657,0.282 -2.124,1.146c-0.378,-0.714 -1.14,-1.146 -2.106,-1.146c-0.66,0 -1.398,0.222 -1.867,0.864l0,-0.744l-0.971,0l0,5.7l0.977,-0l0,-3.198c0,-1.062 0.769,-1.692 1.687,-1.692c0.99,-0 1.566,0.618 1.566,1.668l0,3.222l0.983,-0l0,-3.198c0,-1.038 0.739,-1.692 1.681,-1.692c0.99,-0 1.566,0.618 1.566,1.668l0,3.222l0.983,-0l0,-3.54c0,-1.368 -0.965,-2.28 -2.375,-2.28Z" style="fill:#fff;fill-rule:nonzero;"/><path d="M56.869,283.796l-1.11,0l-1.626,4.662l-1.614,-4.662l-1.05,0l2.052,5.7l1.152,-0l1.626,-4.638l1.632,4.638l1.17,-0l2.052,-5.7l-1.026,0l-1.62,4.674l-1.638,-4.674Z" style="fill:#fff;fill-rule:nonzero;"/><path d="M63.426,280.856l-0.977,0l0,8.64l0.977,-0l0,-3.198c0,-1.062 0.769,-1.692 1.687,-1.692c0.99,-0 1.566,0.618 1.566,1.668l0,3.222l0.983,-0l0,-3.54c0,-1.368 -0.971,-2.28 -2.375,-2.28c-0.66,0 -1.392,0.216 -1.861,0.858l0,-3.678Z" style="fill:#fff;fill-rule:nonzero;"/><path d="M70.656,283.796l-0.977,0l0,5.7l0.977,-0l0,-5.7Zm-0.497,-2.706c-0.39,0 -0.69,0.306 -0.69,0.702c0,0.39 0.3,0.684 0.69,0.684c0.389,0 0.701,-0.294 0.701,-0.684c0,-0.396 -0.312,-0.702 -0.701,-0.702Z" style="fill:#fff;fill-rule:nonzero;"/><path d="M75.258,283.676c-1.764,0 -2.957,1.278 -2.957,2.97c0,1.692 1.193,2.97 2.957,2.97c0.846,-0 1.602,-0.312 2.118,-0.894l-0.606,-0.678c-0.396,0.384 -0.93,0.654 -1.536,0.654c-1.098,0 -1.932,-0.858 -1.932,-2.052c0,-1.194 0.834,-2.046 1.932,-2.046c0.606,-0 1.092,0.234 1.512,0.642l0.63,-0.666c-0.51,-0.588 -1.272,-0.9 -2.118,-0.9Z" style="fill:#fff;fill-rule:nonzero;"/><path d="M79.86,280.856l-0.977,0l0,8.64l0.977,-0l0,-3.198c0,-1.062 0.769,-1.692 1.687,-1.692c0.99,-0 1.566,0.618 1.566,1.668l0,3.222l0.983,-0l0,-3.54c0,-1.368 -0.971,-2.28 -2.375,-2.28c-0.66,0 -1.392,0.216 -1.861,0.858l0,-3.678Z" style="fill:#fff;fill-rule:nonzero;"/><path d="M93.847,283.796l-1.11,0l-1.626,4.662l-1.614,-4.662l-1.05,0l2.052,5.7l1.152,-0l1.626,-4.638l1.632,4.638l1.17,-0l2.052,-5.7l-1.026,0l-1.62,4.674l-1.638,-4.674Z" style="fill:#fff;fill-rule:nonzero;"/><path d="M101.815,283.676c-1.639,0 -2.832,1.218 -2.832,2.97c0,1.776 1.199,2.97 2.892,2.97c0.84,-0 1.632,-0.204 2.34,-0.864l-0.522,-0.672c-0.486,0.42 -1.092,0.678 -1.758,0.678c-0.978,0 -1.801,-0.582 -1.939,-1.764l4.482,-0c0.006,-0.108 0.018,-0.24 0.018,-0.366c-0.012,-1.746 -1.127,-2.952 -2.681,-2.952Zm-0.018,0.87c0.924,-0 1.578,0.648 1.698,1.656l-3.487,0c0.15,-0.972 0.781,-1.656 1.789,-1.656Z" style="fill:#fff;fill-rule:nonzero;"/><path d="M110.328,280.856l-0.977,0l0,8.64l0.977,-0l0,-3.198c0,-1.062 0.769,-1.692 1.687,-1.692c0.99,-0 1.566,0.618 1.566,1.668l0,3.222l0.983,-0l0,-3.54c0,-1.368 -0.971,-2.28 -2.375,-2.28c-0.66,0 -1.392,0.216 -1.861,0.858l0,-3.678Z" style="fill:#fff;fill-rule:nonzero;"/><path d="M119.161,283.676c-1.729,0 -3.012,1.278 -3.012,2.97c0,1.692 1.283,2.97 3.012,2.97c1.728,-0 3.017,-1.278 3.017,-2.97c0,-1.692 -1.289,-2.97 -3.017,-2.97Zm-0,0.924c1.14,-0 2.01,0.852 2.01,2.046c0,1.194 -0.87,2.052 -2.01,2.052c-1.146,0 -2.011,-0.858 -2.011,-2.052c0,-1.194 0.865,-2.046 2.011,-2.046Z" style="fill:#fff;fill-rule:nonzero;"/><path d="M126.811,283.676c-0.9,0 -1.567,0.348 -2.011,0.882l0,-0.762l-0.977,0l0,8.1l0.977,-0l0,-3.162c0.444,0.534 1.111,0.882 2.011,0.882c1.596,-0 2.849,-1.248 2.849,-2.97c0,-1.722 -1.253,-2.97 -2.849,-2.97Zm-0.114,0.924c1.164,-0 1.956,0.912 1.956,2.046c0,1.134 -0.774,2.052 -1.956,2.052c-1.152,0 -1.957,-0.882 -1.957,-2.052c0,-1.164 0.805,-2.046 1.957,-2.046Z" style="fill:#fff;fill-rule:nonzero;"/><path d="M133.705,283.676c-1.639,0 -2.832,1.218 -2.832,2.97c0,1.776 1.199,2.97 2.892,2.97c0.84,-0 1.632,-0.204 2.34,-0.864l-0.522,-0.672c-0.486,0.42 -1.092,0.678 -1.758,0.678c-0.978,0 -1.801,-0.582 -1.939,-1.764l4.482,-0c0.006,-0.108 0.018,-0.24 0.018,-0.366c-0.012,-1.746 -1.127,-2.952 -2.681,-2.952Zm-0.018,0.87c0.924,-0 1.578,0.648 1.698,1.656l-3.487,0c0.15,-0.972 0.781,-1.656 1.789,-1.656Z" style="fill:#fff;fill-rule:nonzero;"/><path d="M145.02,283.796l-2.394,0l0,-1.788l-0.983,0l0,1.788l-1.218,0l0,0.894l1.218,-0l0,2.796c0,1.452 0.738,2.13 1.973,2.13c0.702,-0 1.272,-0.246 1.71,-0.564l-0.462,-0.738c-0.324,0.222 -0.744,0.384 -1.164,0.384c-0.618,0 -1.074,-0.372 -1.074,-1.23l0,-2.778l2.394,-0l0,-0.894Z" style="fill:#fff;fill-rule:nonzero;"/><path d="M149.161,283.676c-1.729,0 -3.012,1.278 -3.012,2.97c0,1.692 1.283,2.97 3.012,2.97c1.728,-0 3.017,-1.278 3.017,-2.97c0,-1.692 -1.289,-2.97 -3.017,-2.97Zm-0,0.924c1.14,-0 2.01,0.852 2.01,2.046c0,1.194 -0.87,2.052 -2.01,2.052c-1.146,0 -2.011,-0.858 -2.011,-2.052c0,-1.194 0.865,-2.046 2.011,-2.046Z" style="fill:#fff;fill-rule:nonzero;"/><path d="M159.421,283.676c-1.603,0 -2.82,1.188 -2.82,2.922c0,1.74 1.217,2.928 2.82,2.928c0.882,-0 1.53,-0.342 1.962,-0.888l0,0.504c0,1.266 -0.822,1.956 -2.046,1.956c-0.738,0 -1.417,-0.246 -1.962,-0.636l-0.426,0.792c0.581,0.468 1.5,0.738 2.388,0.738c1.8,-0 3.029,-1.05 3.029,-2.892l0,-5.304l-0.983,0l0,0.774c-0.432,-0.546 -1.08,-0.894 -1.962,-0.894Zm0.114,0.924c1.134,-0 1.932,0.864 1.932,1.998c0,1.14 -0.798,2.004 -1.932,2.004c-1.17,0 -1.933,-0.894 -1.933,-2.004c0,-1.098 0.763,-1.998 1.933,-1.998Z" style="fill:#fff;fill-rule:nonzero;"/><path d="M169.854,283.796l-0.983,0l0,0.768c-0.45,-0.54 -1.116,-0.888 -2.01,-0.888c-1.603,0 -2.85,1.248 -2.85,2.97c0,1.722 1.247,2.97 2.85,2.97c0.894,-0 1.56,-0.348 2.01,-0.882l0,0.762l0.983,-0l0,-5.7Zm-2.879,0.804c1.152,-0 1.956,0.882 1.956,2.046c0,1.17 -0.804,2.052 -1.956,2.052c-1.17,0 -1.963,-0.918 -1.963,-2.052c0,-1.134 0.775,-2.046 1.963,-2.046Z" style="fill:#fff;fill-rule:nonzero;"/><path d="M172.908,283.796l-0.977,0l0,5.7l0.977,-0l0,-5.7Zm-0.497,-2.706c-0.39,0 -0.69,0.306 -0.69,0.702c0,0.39 0.3,0.684 0.69,0.684c0.389,0 0.701,-0.294 0.701,-0.684c0,-0.396 -0.312,-0.702 -0.701,-0.702Z" style="fill:#fff;fill-rule:nonzero;"/><path d="M177.823,283.676c-0.66,0 -1.398,0.222 -1.867,0.864l0,-0.744l-0.971,0l0,5.7l0.977,-0l0,-3.198c0,-1.062 0.769,-1.692 1.687,-1.692c0.99,-0 1.566,0.618 1.566,1.668l0,3.222l0.983,-0l0,-3.54c0,-1.368 -0.971,-2.28 -2.375,-2.28Z" style="fill:#fff;fill-rule:nonzero;"/><path d="M44.904,219.256c-0.036,-0.256 0.14,-0.491 0.392,-0.527l3.194,-0.449l-0.455,-3.238c-0.036,-0.255 0.139,-0.491 0.391,-0.526l2.738,-0.385c0.252,-0.035 0.486,0.143 0.521,0.398l0.456,3.238l3.194,-0.449c0.252,-0.035 0.485,0.143 0.521,0.399l0.39,2.775c0.036,0.255 -0.139,0.491 -0.391,0.527l-3.194,0.448l0.455,3.238c0.035,0.256 -0.14,0.491 -0.392,0.527l-2.738,0.385c-0.252,0.035 -0.485,-0.143 -0.521,-0.399l-0.455,-3.238l-3.194,0.449c-0.252,0.036 -0.486,-0.143 -0.522,-0.398l-0.39,-2.775Zm-13.882,-6.068l16.428,-2.308c8.064,-1.134 15.533,4.574 16.682,12.749c0.287,2.043 -1.114,3.93 -3.13,4.213l-12.777,1.796c-8.214,1.154 -2.672,-10.588 -12.852,-10.458m6.331,17.034c0.143,1.022 1.077,1.735 2.085,1.594l20.078,-2.822c1.008,-0.142 1.709,-1.085 1.565,-2.107m-22.673,-28.887l12.777,-1.796m-25.515,3.586l12.738,-1.79m1.04,7.401l-1.56,-11.101m-16.562,14.591l-0.391,-2.775m1.553,11.043l-0.382,-2.718m-3.165,-2.385l-2.738,0.385m10.912,-1.534l-2.698,0.38m32.361,18.092l-4.006,-6.984m-10.596,9.036l1.926,-7.818" style="fill:none;fill-rule:nonzero;stroke:#f4f4f4;stroke-width:1.85px;"/><path d="M52.945,331.129c0.479,0.523 0.479,1.325 0,1.847l-1.205,1.278c-0.504,0.599 -0.715,1.39 -0.578,2.16l0.405,1.71c0.154,0.692 -0.249,1.388 -0.926,1.598l-1.686,0.508c-0.736,0.265 -1.315,0.844 -1.58,1.579l-0.498,1.677c-0.212,0.677 -0.908,1.078 -1.6,0.924l-1.708,-0.405c-0.77,-0.138 -1.562,0.074 -2.16,0.578l-1.278,1.205c-0.523,0.479 -1.325,0.479 -1.847,0l-1.278,-1.207c-0.599,-0.503 -1.39,-0.715 -2.16,-0.578l-1.71,0.407c-0.692,0.154 -1.387,-0.247 -1.598,-0.924l-0.508,-1.686c-0.266,-0.735 -0.844,-1.314 -1.579,-1.58l-1.677,-0.498c-0.677,-0.213 -1.078,-0.907 -0.924,-1.599l0.405,-1.709c0.137,-0.77 -0.074,-1.561 -0.578,-2.16l-1.205,-1.278c-0.479,-0.522 -0.479,-1.324 -0,-1.847l1.205,-1.278c0.504,-0.599 0.715,-1.39 0.578,-2.16l-0.407,-1.71c-0.155,-0.692 0.248,-1.387 0.926,-1.598l1.685,-0.508c0.734,-0.264 1.312,-0.841 1.578,-1.574l0.501,-1.682c0.212,-0.677 0.907,-1.078 1.599,-0.924l1.709,0.406c0.77,0.137 1.561,-0.075 2.16,-0.578l1.278,-1.206c0.522,-0.479 1.324,-0.479 1.847,0l1.278,1.207c0.598,0.503 1.39,0.715 2.16,0.578l1.709,-0.407c0.692,-0.154 1.387,0.247 1.599,0.924l0.508,1.686c0.265,0.735 0.844,1.314 1.579,1.58l1.677,0.498c0.676,0.213 1.077,0.908 0.923,1.6l-0.402,1.708c-0.137,0.77 0.074,1.561 0.578,2.16l1.205,1.278Zm-17.018,5.03c4.159,2.112 3.957,1.701 7.52,1.701c1.491,-0 2.243,-0.972 2.681,-2.398l0,-0.008l1.144,-3.558l-0,-0.006c0.182,-0.599 -0.155,-1.232 -0.754,-1.414c-0.107,-0.033 -0.219,-0.05 -0.331,-0.049l-2.775,-0c-0.626,-0.001 -1.134,-0.509 -1.133,-1.136c-0,-0.097 0.012,-0.193 0.037,-0.287l0.437,-1.959c0.137,-0.519 -0.172,-1.05 -0.691,-1.186c-0.393,-0.104 -0.808,0.048 -1.042,0.38l-2.772,3.557c-0.212,0.301 -0.558,0.481 -0.926,0.481l-1.397,-0m-3.174,-1.273l1.906,-0c0.701,-0 1.27,0.568 1.27,1.27l0,6.352c0,0.702 -0.569,1.27 -1.27,1.27l-1.906,0" style="fill:none;fill-rule:nonzero;stroke:#f4f4f4;stroke-width:2px;"/></g></svg>