<?xml version="1.0" encoding="UTF-8" standalone="no"?><!DOCTYPE svg PUBLIC "-//W3C//DTD SVG 1.1//EN" "http://www.w3.org/Graphics/SVG/1.1/DTD/svg11.dtd"><svg width="100%" height="100%" viewBox="0 0 298 420" version="1.1" xmlns="http://www.w3.org/2000/svg" xmlns:xlink="http://www.w3.org/1999/xlink" xml:space="preserve" xmlns:serif="http://www.serif.com/" style="fill-rule:evenodd;clip-rule:evenodd;"><g id="Ebene-1" serif:id="Ebene 1"><rect x="218.758" y="385.673" width="3.28" height="13.775" style="fill:#004153;"/><path d="M245.758,399.449l-0,-13.776l-3.28,0l-0,8.423l-6.298,-8.423l-3.148,0l-0,8.423l-6.271,-8.423l-3.149,0l-0,13.776l3.28,-0l-0,-8.397l6.271,8.397l3.175,-0l-0,-8.397l6.271,8.397l3.149,-0Z" style="fill:#004153;fill-rule:nonzero;"/><path d="M254.154,388.56c2.23,-0 3.831,1.627 3.831,3.988c-0,2.362 -1.601,3.988 -3.831,3.988c-2.257,0 -3.831,-1.626 -3.831,-3.988c0,-2.361 1.601,-3.988 3.831,-3.988m0,-3.149c-4.251,0 -7.268,3.044 -7.268,7.137c-0,4.093 3.017,7.137 7.268,7.137c4.251,0 7.268,-3.044 7.268,-7.137c0,-4.093 -3.017,-7.137 -7.268,-7.137" style="fill:#004153;fill-rule:nonzero;"/><path d="M269.609,388.56c2.23,-0 3.831,1.627 3.831,3.988c-0,0.446 -0.053,0.866 -0.158,1.26l-0.446,-0.604l-3.568,0l2.177,2.913c-0.524,0.262 -1.154,0.419 -1.81,0.419c-2.23,0 -3.831,-1.626 -3.831,-3.988c-0.026,-2.335 1.574,-3.988 3.805,-3.988m-0,-3.149c-4.251,0 -7.268,3.044 -7.268,7.137c-0,4.093 3.017,7.137 7.268,7.137c1.443,0 2.676,-0.394 3.726,-1.076l0.603,0.814l3.857,-0l-2.178,-2.939c0.761,-1.102 1.207,-2.388 1.207,-3.936c0.053,-4.093 -2.965,-7.137 -7.215,-7.137" style="fill:#f39260;fill-rule:nonzero;"/></g><g id="Ebene-11" serif:id="Ebene 1"><g transform="matrix(1,0,0,1,148.819,65.9055)"><g transform="matrix(16,0,0,16,-128.976,-34.5435)"><path d="M0.855,-0.7l-0.237,0l-0.158,0.444l-0.16,-0.444l-0.236,0l-0,0.7l0.166,-0l0,-0.477l0.14,0.411l0.178,-0l0.14,-0.413l0,0.479l0.167,-0l-0,-0.7Z" style="fill:#004153;fill-rule:nonzero;"/></g><g transform="matrix(16,0,0,16,-114.28,-34.5435)"><path d="M0.211,-0.49l-0.156,-0l0,0.49l0.156,-0l0,-0.49Zm-0.078,-0.245c-0.053,-0 -0.094,0.041 -0.094,0.094c0,0.052 0.041,0.093 0.094,0.093c0.052,-0 0.093,-0.041 0.093,-0.093c-0,-0.053 -0.041,-0.094 -0.093,-0.094Z" style="fill:#004153;fill-rule:nonzero;"/></g><g transform="matrix(16,0,0,16,-110.024,-34.5435)"><path d="M0.351,-0.504c-0.066,0 -0.115,0.024 -0.146,0.075l-0,-0.061l-0.15,-0l0,0.49l0.156,-0l0,-0.264c0,-0.064 0.036,-0.093 0.08,-0.093c0.049,-0 0.078,0.032 0.078,0.09l-0,0.267l0.156,-0l-0,-0.322c-0,-0.113 -0.076,-0.182 -0.174,-0.182Z" style="fill:#004153;fill-rule:nonzero;"/></g><g transform="matrix(16,0,0,16,-100.8,-34.5435)"><path d="M0.211,-0.49l-0.156,-0l0,0.49l0.156,-0l0,-0.49Zm-0.078,-0.245c-0.053,-0 -0.094,0.041 -0.094,0.094c0,0.052 0.041,0.093 0.094,0.093c0.052,-0 0.093,-0.041 0.093,-0.093c-0,-0.053 -0.041,-0.094 -0.093,-0.094Z" style="fill:#004153;fill-rule:nonzero;"/></g><g transform="matrix(16,0,0,16,-92.9524,-34.5435)"><path d="M0.549,-0.49l-0.151,-0l0,0.053c-0.029,-0.039 -0.074,-0.067 -0.141,-0.067c-0.131,0 -0.228,0.114 -0.228,0.258c0,0.145 0.097,0.259 0.228,0.259c0.067,-0 0.112,-0.028 0.141,-0.066l0,0.053l0.151,-0l0,-0.49Zm-0.254,0.132c0.061,-0 0.105,0.047 0.105,0.113c-0,0.065 -0.044,0.112 -0.105,0.112c-0.063,0 -0.105,-0.048 -0.105,-0.112c-0,-0.065 0.042,-0.113 0.105,-0.113Z" style="fill:#004153;fill-rule:nonzero;"/></g><g transform="matrix(16,0,0,16,-83.2884,-34.5435)"><path d="M0.339,-0.504c-0.06,0 -0.106,0.023 -0.134,0.07l-0,-0.056l-0.15,-0l0,0.49l0.156,-0l0,-0.265c0,-0.061 0.034,-0.089 0.09,-0.089c0.028,0 0.057,0.006 0.078,0.013l0.015,-0.155c-0.012,-0.004 -0.032,-0.008 -0.055,-0.008Z" style="fill:#004153;fill-rule:nonzero;"/></g><g transform="matrix(16,0,0,16,-76.9284,-34.5435)"><path d="M0.293,-0.504c-0.156,0 -0.264,0.108 -0.264,0.259c0,0.15 0.108,0.258 0.264,0.258c0.091,-0 0.163,-0.04 0.21,-0.106l-0.122,-0.087c-0.024,0.031 -0.055,0.047 -0.092,0.047c-0.055,0 -0.1,-0.041 -0.1,-0.112c-0,-0.071 0.046,-0.113 0.101,-0.113c0.038,-0 0.066,0.015 0.09,0.047l0.123,-0.086c-0.047,-0.066 -0.119,-0.107 -0.21,-0.107Z" style="fill:#004153;fill-rule:nonzero;"/></g><g transform="matrix(16,0,0,16,-68.6244,-34.5435)"><path d="M0.211,-0.72l-0.156,-0l0,0.72l0.156,-0l0,-0.264c0,-0.064 0.036,-0.093 0.08,-0.093c0.049,-0 0.078,0.032 0.078,0.09l-0,0.267l0.156,-0l-0,-0.322c-0,-0.113 -0.076,-0.182 -0.174,-0.182c-0.061,0 -0.109,0.021 -0.14,0.065l0,-0.281Z" style="fill:#004153;fill-rule:nonzero;"/></g><g transform="matrix(16,0,0,16,-59.4004,-34.5435)"><path d="M0.211,-0.49l-0.156,-0l0,0.49l0.156,-0l0,-0.49Zm-0.078,-0.245c-0.053,-0 -0.094,0.041 -0.094,0.094c0,0.052 0.041,0.093 0.094,0.093c0.052,-0 0.093,-0.041 0.093,-0.093c-0,-0.053 -0.041,-0.094 -0.093,-0.094Z" style="fill:#004153;fill-rule:nonzero;"/></g><g transform="matrix(16,0,0,16,-55.1444,-34.5435)"><path d="M0.432,-0.49l-0.168,-0l0,-0.143l-0.156,-0l0,0.143l-0.091,-0l-0,0.138l0.091,-0l0,0.164c0,0.123 0.06,0.201 0.191,0.201c0.079,-0 0.128,-0.023 0.174,-0.055l-0.054,-0.121c-0.025,0.014 -0.056,0.03 -0.085,0.03c-0.04,0 -0.07,-0.019 -0.07,-0.075l0,-0.144l0.168,-0l-0,-0.138Z" style="fill:#004153;fill-rule:nonzero;"/></g><g transform="matrix(16,0,0,16,-47.6724,-34.5435)"><path d="M0.281,-0.504c-0.15,0 -0.252,0.107 -0.252,0.261c0,0.154 0.104,0.256 0.259,0.256c0.09,-0 0.164,-0.03 0.215,-0.08l-0.1,-0.095c-0.031,0.029 -0.071,0.044 -0.107,0.044c-0.055,-0 -0.093,-0.025 -0.106,-0.079l0.333,-0c0.002,-0.011 0.003,-0.033 0.003,-0.049c-0.001,-0.153 -0.1,-0.258 -0.245,-0.258Zm0,0.133c0.046,-0 0.076,0.026 0.089,0.075l-0.179,0c0.012,-0.049 0.041,-0.075 0.09,-0.075Z" style="fill:#004153;fill-rule:nonzero;"/></g><g transform="matrix(16,0,0,16,-38.7924,-34.5435)"><path d="M0.293,-0.504c-0.156,0 -0.264,0.108 -0.264,0.259c0,0.15 0.108,0.258 0.264,0.258c0.091,-0 0.163,-0.04 0.21,-0.106l-0.122,-0.087c-0.024,0.031 -0.055,0.047 -0.092,0.047c-0.055,0 -0.1,-0.041 -0.1,-0.112c-0,-0.071 0.046,-0.113 0.101,-0.113c0.038,-0 0.066,0.015 0.09,0.047l0.123,-0.086c-0.047,-0.066 -0.119,-0.107 -0.21,-0.107Z" style="fill:#004153;fill-rule:nonzero;"/></g><g transform="matrix(16,0,0,16,-30.4084,-34.5435)"><path d="M0.432,-0.49l-0.168,-0l0,-0.143l-0.156,-0l0,0.143l-0.091,-0l-0,0.138l0.091,-0l0,0.164c0,0.123 0.06,0.201 0.191,0.201c0.079,-0 0.128,-0.023 0.174,-0.055l-0.054,-0.121c-0.025,0.014 -0.056,0.03 -0.085,0.03c-0.04,0 -0.07,-0.019 -0.07,-0.075l0,-0.144l0.168,-0l-0,-0.138Z" style="fill:#004153;fill-rule:nonzero;"/></g><g transform="matrix(16,0,0,16,-22.8804,-34.5435)"><path d="M0.525,-0.49l-0.156,-0l0,0.266c0,0.063 -0.034,0.091 -0.081,0.091c-0.047,0 -0.08,-0.028 -0.08,-0.091l-0,-0.266l-0.156,-0l-0,0.28c-0,0.153 0.105,0.223 0.236,0.223c0.131,-0 0.237,-0.07 0.237,-0.223l-0,-0.28Z" style="fill:#004153;fill-rule:nonzero;"/></g><g transform="matrix(16,0,0,16,-13.6564,-34.5435)"><path d="M0.339,-0.504c-0.06,0 -0.106,0.023 -0.134,0.07l-0,-0.056l-0.15,-0l0,0.49l0.156,-0l0,-0.265c0,-0.061 0.034,-0.089 0.09,-0.089c0.028,0 0.057,0.006 0.078,0.013l0.015,-0.155c-0.012,-0.004 -0.032,-0.008 -0.055,-0.008Z" style="fill:#004153;fill-rule:nonzero;"/></g><g transform="matrix(16,0,0,16,-7.29638,-34.5435)"><path d="M0.281,-0.504c-0.15,0 -0.252,0.107 -0.252,0.261c0,0.154 0.104,0.256 0.259,0.256c0.09,-0 0.164,-0.03 0.215,-0.08l-0.1,-0.095c-0.031,0.029 -0.071,0.044 -0.107,0.044c-0.055,-0 -0.093,-0.025 -0.106,-0.079l0.333,-0c0.002,-0.011 0.003,-0.033 0.003,-0.049c-0.001,-0.153 -0.1,-0.258 -0.245,-0.258Zm0,0.133c0.046,-0 0.076,0.026 0.089,0.075l-0.179,0c0.012,-0.049 0.041,-0.075 0.09,-0.075Z" style="fill:#004153;fill-rule:nonzero;"/></g><g transform="matrix(16,0,0,16,5.17562,-34.5435)"><path d="M0.257,-0.504c-0.131,0 -0.228,0.114 -0.228,0.258c0,0.145 0.097,0.259 0.228,0.259c0.067,-0 0.112,-0.028 0.141,-0.066l0,0.053l0.151,-0l-0,-0.72l-0.156,0l0,0.277c-0.029,-0.036 -0.073,-0.061 -0.136,-0.061Zm0.038,0.146c0.061,-0 0.105,0.047 0.105,0.112c-0,0.066 -0.044,0.113 -0.105,0.113c-0.063,0 -0.105,-0.048 -0.105,-0.112c-0,-0.065 0.042,-0.113 0.105,-0.113Z" style="fill:#004153;fill-rule:nonzero;"/></g><g transform="matrix(16,0,0,16,14.8316,-34.5435)"><path d="M0.295,-0.504c-0.153,0 -0.266,0.11 -0.266,0.259c0,0.148 0.113,0.258 0.266,0.258c0.154,-0 0.266,-0.11 0.266,-0.258c0,-0.149 -0.112,-0.259 -0.266,-0.259Zm-0,0.146c0.062,-0 0.107,0.046 0.107,0.113c-0,0.066 -0.045,0.112 -0.107,0.112c-0.061,0 -0.106,-0.046 -0.106,-0.112c-0,-0.067 0.045,-0.113 0.106,-0.113Z" style="fill:#004153;fill-rule:nonzero;"/></g><g transform="matrix(16,0,0,16,24.2796,-34.5435)"><path d="M0.293,-0.504c-0.156,0 -0.264,0.108 -0.264,0.259c0,0.15 0.108,0.258 0.264,0.258c0.091,-0 0.163,-0.04 0.21,-0.106l-0.122,-0.087c-0.024,0.031 -0.055,0.047 -0.092,0.047c-0.055,0 -0.1,-0.041 -0.1,-0.112c-0,-0.071 0.046,-0.113 0.101,-0.113c0.038,-0 0.066,0.015 0.09,0.047l0.123,-0.086c-0.047,-0.066 -0.119,-0.107 -0.21,-0.107Z" style="fill:#004153;fill-rule:nonzero;"/></g><g transform="matrix(16,0,0,16,32.5836,-34.5435)"><path d="M0.525,-0.49l-0.156,-0l0,0.266c0,0.063 -0.034,0.091 -0.081,0.091c-0.047,0 -0.08,-0.028 -0.08,-0.091l-0,-0.266l-0.156,-0l-0,0.28c-0,0.153 0.105,0.223 0.236,0.223c0.131,-0 0.237,-0.07 0.237,-0.223l-0,-0.28Z" style="fill:#004153;fill-rule:nonzero;"/></g><g transform="matrix(16,0,0,16,41.8076,-34.5435)"><path d="M0.656,-0.504c-0.068,0 -0.123,0.026 -0.156,0.082c-0.03,-0.052 -0.084,-0.082 -0.149,-0.082c-0.066,0 -0.115,0.024 -0.146,0.075l-0,-0.061l-0.15,-0l0,0.49l0.156,-0l0,-0.264c0,-0.064 0.036,-0.093 0.08,-0.093c0.049,-0 0.078,0.032 0.078,0.09l-0,0.267l0.156,-0l-0,-0.264c-0,-0.064 0.036,-0.093 0.08,-0.093c0.049,-0 0.078,0.032 0.078,0.09l-0,0.267l0.156,-0l-0,-0.322c-0,-0.113 -0.071,-0.182 -0.183,-0.182Z" style="fill:#004153;fill-rule:nonzero;"/></g><g transform="matrix(16,0,0,16,56.0556,-34.5435)"><path d="M0.281,-0.504c-0.15,0 -0.252,0.107 -0.252,0.261c0,0.154 0.104,0.256 0.259,0.256c0.09,-0 0.164,-0.03 0.215,-0.08l-0.1,-0.095c-0.031,0.029 -0.071,0.044 -0.107,0.044c-0.055,-0 -0.093,-0.025 -0.106,-0.079l0.333,-0c0.002,-0.011 0.003,-0.033 0.003,-0.049c-0.001,-0.153 -0.1,-0.258 -0.245,-0.258Zm0,0.133c0.046,-0 0.076,0.026 0.089,0.075l-0.179,0c0.012,-0.049 0.041,-0.075 0.09,-0.075Z" style="fill:#004153;fill-rule:nonzero;"/></g><g transform="matrix(16,0,0,16,64.9356,-34.5435)"><path d="M0.351,-0.504c-0.066,0 -0.115,0.024 -0.146,0.075l-0,-0.061l-0.15,-0l0,0.49l0.156,-0l0,-0.264c0,-0.064 0.036,-0.093 0.08,-0.093c0.049,-0 0.078,0.032 0.078,0.09l-0,0.267l0.156,-0l-0,-0.322c-0,-0.113 -0.076,-0.182 -0.174,-0.182Z" style="fill:#004153;fill-rule:nonzero;"/></g><g transform="matrix(16,0,0,16,74.0796,-34.5435)"><path d="M0.432,-0.49l-0.168,-0l0,-0.143l-0.156,-0l0,0.143l-0.091,-0l-0,0.138l0.091,-0l0,0.164c0,0.123 0.06,0.201 0.191,0.201c0.079,-0 0.128,-0.023 0.174,-0.055l-0.054,-0.121c-0.025,0.014 -0.056,0.03 -0.085,0.03c-0.04,0 -0.07,-0.019 -0.07,-0.075l0,-0.144l0.168,-0l-0,-0.138Z" style="fill:#004153;fill-rule:nonzero;"/></g><g transform="matrix(16,0,0,16,81.5516,-34.5435)"><path d="M0.549,-0.49l-0.151,-0l0,0.053c-0.029,-0.039 -0.074,-0.067 -0.141,-0.067c-0.131,0 -0.228,0.114 -0.228,0.258c0,0.145 0.097,0.259 0.228,0.259c0.067,-0 0.112,-0.028 0.141,-0.066l0,0.053l0.151,-0l0,-0.49Zm-0.254,0.132c0.061,-0 0.105,0.047 0.105,0.113c-0,0.065 -0.044,0.112 -0.105,0.112c-0.063,0 -0.105,-0.048 -0.105,-0.112c-0,-0.065 0.042,-0.113 0.105,-0.113Z" style="fill:#004153;fill-rule:nonzero;"/></g><g transform="matrix(16,0,0,16,91.2156,-34.5435)"><path d="M0.432,-0.49l-0.168,-0l0,-0.143l-0.156,-0l0,0.143l-0.091,-0l-0,0.138l0.091,-0l0,0.164c0,0.123 0.06,0.201 0.191,0.201c0.079,-0 0.128,-0.023 0.174,-0.055l-0.054,-0.121c-0.025,0.014 -0.056,0.03 -0.085,0.03c-0.04,0 -0.07,-0.019 -0.07,-0.075l0,-0.144l0.168,-0l-0,-0.138Z" style="fill:#004153;fill-rule:nonzero;"/></g><g transform="matrix(16,0,0,16,98.8876,-34.5435)"><path d="M0.211,-0.49l-0.156,-0l0,0.49l0.156,-0l0,-0.49Zm-0.078,-0.245c-0.053,-0 -0.094,0.041 -0.094,0.094c0,0.052 0.041,0.093 0.094,0.093c0.052,-0 0.093,-0.041 0.093,-0.093c-0,-0.053 -0.041,-0.094 -0.093,-0.094Z" style="fill:#004153;fill-rule:nonzero;"/></g><g transform="matrix(16,0,0,16,103.144,-34.5435)"><path d="M0.295,-0.504c-0.153,0 -0.266,0.11 -0.266,0.259c0,0.148 0.113,0.258 0.266,0.258c0.154,-0 0.266,-0.11 0.266,-0.258c0,-0.149 -0.112,-0.259 -0.266,-0.259Zm-0,0.146c0.062,-0 0.107,0.046 0.107,0.113c-0,0.066 -0.045,0.112 -0.107,0.112c-0.061,0 -0.106,-0.046 -0.106,-0.112c-0,-0.067 0.045,-0.113 0.106,-0.113Z" style="fill:#004153;fill-rule:nonzero;"/></g><g transform="matrix(16,0,0,16,112.592,-34.5435)"><path d="M0.351,-0.504c-0.066,0 -0.115,0.024 -0.146,0.075l-0,-0.061l-0.15,-0l0,0.49l0.156,-0l0,-0.264c0,-0.064 0.036,-0.093 0.08,-0.093c0.049,-0 0.078,0.032 0.078,0.09l-0,0.267l0.156,-0l-0,-0.322c-0,-0.113 -0.076,-0.182 -0.174,-0.182Z" style="fill:#004153;fill-rule:nonzero;"/></g><g transform="matrix(12,0,0,12,-128.976,-11.6396)"><path d="M1.069,-0.7l-0.09,0l-0.188,0.601l-0.191,-0.601l-0.1,-0l-0.192,0.601l-0.187,-0.601l-0.093,0l0.225,0.7l0.108,0l0.188,-0.584l0.187,0.584l0.109,0l0.224,-0.7Z" style="fill:#004153;fill-rule:nonzero;"/></g><g transform="matrix(12,0,0,12,-116.172,-11.6396)"><path d="M0.306,-0.485c-0.057,0 -0.106,0.026 -0.139,0.072l-0,-0.062l-0.08,0l-0,0.475l0.081,-0l-0,-0.264c-0,-0.088 0.051,-0.144 0.123,-0.144c0.027,0 0.059,0.007 0.082,0.019l0.02,-0.08c-0.026,-0.011 -0.053,-0.016 -0.087,-0.016Z" style="fill:#004153;fill-rule:nonzero;"/></g><g transform="matrix(12,0,0,12,-111.144,-11.6396)"><path d="M0.168,-0.475l-0.081,0l-0,0.475l0.081,-0l-0,-0.475Zm-0.041,-0.225c-0.033,-0 -0.058,0.025 -0.058,0.058c0,0.033 0.025,0.057 0.058,0.057c0.032,0 0.058,-0.024 0.058,-0.057c-0,-0.033 -0.026,-0.058 -0.058,-0.058Z" style="fill:#004153;fill-rule:nonzero;"/></g><g transform="matrix(12,0,0,12,-108.09,-11.6396)"><path d="M0.409,-0.475l-0.2,0l0,-0.149l-0.081,0l-0,0.149l-0.102,0l0,0.074l0.102,0l-0,0.234c-0,0.121 0.061,0.177 0.164,0.177c0.058,-0 0.106,-0.021 0.142,-0.047l-0.038,-0.061c-0.027,0.018 -0.062,0.032 -0.097,0.032c-0.052,-0 -0.09,-0.031 -0.09,-0.103l0,-0.232l0.2,0l-0,-0.074Z" style="fill:#004153;fill-rule:nonzero;"/></g><g transform="matrix(12,0,0,12,-102.66,-11.6396)"><path d="M0.287,-0.485c-0.137,0 -0.236,0.101 -0.236,0.247c-0,0.149 0.099,0.248 0.241,0.248c0.07,-0 0.136,-0.017 0.194,-0.072l-0.043,-0.056c-0.04,0.035 -0.091,0.057 -0.146,0.057c-0.082,-0 -0.151,-0.049 -0.162,-0.148l0.373,0c0.001,-0.009 0.002,-0.02 0.002,-0.03c-0.001,-0.146 -0.094,-0.246 -0.223,-0.246Zm-0.002,0.072c0.077,0 0.132,0.054 0.142,0.139l-0.291,-0c0.012,-0.082 0.065,-0.139 0.149,-0.139Z" style="fill:#004153;fill-rule:nonzero;"/></g><g transform="matrix(12,0,0,12,-92.7244,-11.6396)"><path d="M0.288,-0.485c-0.134,0 -0.237,0.104 -0.237,0.247c-0,0.144 0.103,0.248 0.237,0.248c0.075,-0 0.13,-0.029 0.168,-0.073l-0,0.063l0.081,-0l0,-0.72l-0.081,0l-0,0.309c-0.038,-0.045 -0.093,-0.074 -0.168,-0.074Zm0.01,0.077c0.096,-0 0.163,0.073 0.163,0.17c-0,0.098 -0.067,0.172 -0.163,0.172c-0.098,-0 -0.164,-0.077 -0.164,-0.172c-0,-0.094 0.064,-0.17 0.164,-0.17Z" style="fill:#004153;fill-rule:nonzero;"/></g><g transform="matrix(12,0,0,12,-85.2364,-11.6396)"><path d="M0.301,-0.485c-0.144,0 -0.25,0.106 -0.25,0.247c-0,0.142 0.106,0.248 0.25,0.248c0.145,-0 0.252,-0.106 0.252,-0.248c-0,-0.141 -0.107,-0.247 -0.252,-0.247Zm0,0.077c0.096,-0 0.168,0.071 0.168,0.17c0,0.1 -0.072,0.172 -0.168,0.172c-0.095,-0 -0.167,-0.072 -0.167,-0.172c-0,-0.099 0.072,-0.17 0.167,-0.17Z" style="fill:#004153;fill-rule:nonzero;"/></g><g transform="matrix(12,0,0,12,-78.0304,-11.6396)"><path d="M0.471,-0.475l-0.093,0l-0.135,0.388l-0.135,-0.388l-0.087,0l0.171,0.475l0.096,-0l0.135,-0.386l0.136,0.386l0.098,-0l0.171,-0.475l-0.086,0l-0.135,0.389l-0.136,-0.389Z" style="fill:#004153;fill-rule:nonzero;"/></g><g transform="matrix(12,0,0,12,-67.8364,-11.6396)"><path d="M0.323,-0.485c-0.055,0 -0.117,0.019 -0.156,0.072l0,-0.062l-0.08,0l-0,0.475l0.081,-0l-0,-0.266c-0,-0.089 0.064,-0.142 0.141,-0.142c0.082,0 0.13,0.052 0.13,0.139l0,0.269l0.082,-0l-0,-0.295c-0,-0.114 -0.081,-0.19 -0.198,-0.19Z" style="fill:#004153;fill-rule:nonzero;"/></g><g transform="matrix(12,0,0,12,-57.4864,-11.6396)"><path d="M0.409,-0.475l-0.2,0l0,-0.149l-0.081,0l-0,0.149l-0.102,0l0,0.074l0.102,0l-0,0.234c-0,0.121 0.061,0.177 0.164,0.177c0.058,-0 0.106,-0.021 0.142,-0.047l-0.038,-0.061c-0.027,0.018 -0.062,0.032 -0.097,0.032c-0.052,-0 -0.09,-0.031 -0.09,-0.103l0,-0.232l0.2,0l-0,-0.074Z" style="fill:#004153;fill-rule:nonzero;"/></g><g transform="matrix(12,0,0,12,-52.0444,-11.6396)"><path d="M0.168,-0.72l-0.081,0l-0,0.72l0.081,-0l-0,-0.267c-0,-0.088 0.064,-0.141 0.141,-0.141c0.082,0 0.13,0.052 0.13,0.139l0,0.269l0.082,-0l-0,-0.295c-0,-0.114 -0.081,-0.19 -0.198,-0.19c-0.055,0 -0.116,0.018 -0.155,0.071l-0,-0.306Z" style="fill:#004153;fill-rule:nonzero;"/></g><g transform="matrix(12,0,0,12,-44.8144,-11.6396)"><path d="M0.287,-0.485c-0.137,0 -0.236,0.101 -0.236,0.247c-0,0.149 0.099,0.248 0.241,0.248c0.07,-0 0.136,-0.017 0.194,-0.072l-0.043,-0.056c-0.04,0.035 -0.091,0.057 -0.146,0.057c-0.082,-0 -0.151,-0.049 -0.162,-0.148l0.373,0c0.001,-0.009 0.002,-0.02 0.002,-0.03c-0.001,-0.146 -0.094,-0.246 -0.223,-0.246Zm-0.002,0.072c0.077,0 0.132,0.054 0.142,0.139l-0.291,-0c0.012,-0.082 0.065,-0.139 0.149,-0.139Z" style="fill:#004153;fill-rule:nonzero;"/></g><g transform="matrix(12,0,0,12,-34.8784,-11.6396)"><path d="M0.676,-0.485c-0.065,0 -0.139,0.024 -0.178,0.095c-0.031,-0.059 -0.094,-0.095 -0.175,-0.095c-0.055,0 -0.117,0.019 -0.156,0.072l0,-0.062l-0.08,0l-0,0.475l0.081,-0l-0,-0.266c-0,-0.089 0.064,-0.142 0.141,-0.142c0.082,0 0.13,0.052 0.13,0.139l0,0.269l0.082,-0l-0,-0.267c-0,-0.086 0.061,-0.141 0.14,-0.141c0.083,0 0.131,0.052 0.131,0.139l-0,0.269l0.081,-0l0,-0.295c0,-0.114 -0.08,-0.19 -0.197,-0.19Z" style="fill:#004153;fill-rule:nonzero;"/></g><g transform="matrix(12,0,0,12,-23.4184,-11.6396)"><path d="M0.301,-0.485c-0.144,0 -0.25,0.106 -0.25,0.247c-0,0.142 0.106,0.248 0.25,0.248c0.145,-0 0.252,-0.106 0.252,-0.248c-0,-0.141 -0.107,-0.247 -0.252,-0.247Zm0,0.077c0.096,-0 0.168,0.071 0.168,0.17c0,0.1 -0.072,0.172 -0.168,0.172c-0.095,-0 -0.167,-0.072 -0.167,-0.172c-0,-0.099 0.072,-0.17 0.167,-0.17Z" style="fill:#004153;fill-rule:nonzero;"/></g><g transform="matrix(12,0,0,12,-16.1764,-11.6396)"><path d="M0.442,-0.433c-0.046,-0.031 -0.114,-0.051 -0.19,-0.051c-0.115,-0 -0.19,0.054 -0.19,0.145c-0,0.072 0.051,0.121 0.157,0.134l0.056,0.006c0.064,0.008 0.095,0.03 0.095,0.065c0,0.047 -0.048,0.073 -0.126,0.073c-0.08,-0 -0.127,-0.023 -0.162,-0.051l-0.038,0.061c0.062,0.047 0.141,0.061 0.199,0.061c0.13,-0 0.211,-0.058 0.211,-0.149c-0,-0.078 -0.059,-0.121 -0.16,-0.135l-0.056,-0.007c-0.057,-0.007 -0.092,-0.024 -0.092,-0.062c0,-0.043 0.042,-0.071 0.107,-0.071c0.063,0 0.124,0.024 0.154,0.044l0.035,-0.063Z" style="fill:#004153;fill-rule:nonzero;"/></g><g transform="matrix(12,0,0,12,-10.2124,-11.6396)"><path d="M0.409,-0.475l-0.2,0l0,-0.149l-0.081,0l-0,0.149l-0.102,0l0,0.074l0.102,0l-0,0.234c-0,0.121 0.061,0.177 0.164,0.177c0.058,-0 0.106,-0.021 0.142,-0.047l-0.038,-0.061c-0.027,0.018 -0.062,0.032 -0.097,0.032c-0.052,-0 -0.09,-0.031 -0.09,-0.103l0,-0.232l0.2,0l-0,-0.074Z" style="fill:#004153;fill-rule:nonzero;"/></g><g transform="matrix(12,0,0,12,-1.56038,-11.6396)"><path d="M0.168,-0.475l-0.081,0l-0,0.475l0.081,-0l-0,-0.475Zm-0.041,-0.225c-0.033,-0 -0.058,0.025 -0.058,0.058c0,0.033 0.025,0.057 0.058,0.057c0.032,0 0.058,-0.024 0.058,-0.057c-0,-0.033 -0.026,-0.058 -0.058,-0.058Z" style="fill:#004153;fill-rule:nonzero;"/></g><g transform="matrix(12,0,0,12,1.49362,-11.6396)"><path d="M0.676,-0.485c-0.065,0 -0.139,0.024 -0.178,0.095c-0.031,-0.059 -0.094,-0.095 -0.175,-0.095c-0.055,0 -0.117,0.019 -0.156,0.072l0,-0.062l-0.08,0l-0,0.475l0.081,-0l-0,-0.266c-0,-0.089 0.064,-0.142 0.141,-0.142c0.082,0 0.13,0.052 0.13,0.139l0,0.269l0.082,-0l-0,-0.267c-0,-0.086 0.061,-0.141 0.14,-0.141c0.083,0 0.131,0.052 0.131,0.139l-0,0.269l0.081,-0l0,-0.295c0,-0.114 -0.08,-0.19 -0.197,-0.19Z" style="fill:#004153;fill-rule:nonzero;"/></g><g transform="matrix(12,0,0,12,12.9536,-11.6396)"><path d="M0.336,-0.485c-0.076,0 -0.131,0.029 -0.168,0.073l-0,-0.063l-0.081,0l-0,0.675l0.081,-0l-0,-0.263c0.037,0.044 0.092,0.073 0.168,0.073c0.133,-0 0.237,-0.104 0.237,-0.247c-0,-0.144 -0.104,-0.248 -0.237,-0.248Zm-0.01,0.077c0.097,-0 0.163,0.076 0.163,0.17c0,0.095 -0.064,0.172 -0.163,0.172c-0.096,-0 -0.163,-0.074 -0.163,-0.172c-0,-0.097 0.067,-0.17 0.163,-0.17Z" style="fill:#004153;fill-rule:nonzero;"/></g><g transform="matrix(12,0,0,12,20.4356,-11.6396)"><path d="M0.301,-0.485c-0.144,0 -0.25,0.106 -0.25,0.247c-0,0.142 0.106,0.248 0.25,0.248c0.145,-0 0.252,-0.106 0.252,-0.248c-0,-0.141 -0.107,-0.247 -0.252,-0.247Zm0,0.077c0.096,-0 0.168,0.071 0.168,0.17c0,0.1 -0.072,0.172 -0.168,0.172c-0.095,-0 -0.167,-0.072 -0.167,-0.172c-0,-0.099 0.072,-0.17 0.167,-0.17Z" style="fill:#004153;fill-rule:nonzero;"/></g><g transform="matrix(12,0,0,12,27.6776,-11.6396)"><path d="M0.306,-0.485c-0.057,0 -0.106,0.026 -0.139,0.072l-0,-0.062l-0.08,0l-0,0.475l0.081,-0l-0,-0.264c-0,-0.088 0.051,-0.144 0.123,-0.144c0.027,0 0.059,0.007 0.082,0.019l0.02,-0.08c-0.026,-0.011 -0.053,-0.016 -0.087,-0.016Z" style="fill:#004153;fill-rule:nonzero;"/></g><g transform="matrix(12,0,0,12,32.8256,-11.6396)"><path d="M0.409,-0.475l-0.2,0l0,-0.149l-0.081,0l-0,0.149l-0.102,0l0,0.074l0.102,0l-0,0.234c-0,0.121 0.061,0.177 0.164,0.177c0.058,-0 0.106,-0.021 0.142,-0.047l-0.038,-0.061c-0.027,0.018 -0.062,0.032 -0.097,0.032c-0.052,-0 -0.09,-0.031 -0.09,-0.103l0,-0.232l0.2,0l-0,-0.074Z" style="fill:#004153;fill-rule:nonzero;"/></g><g transform="matrix(12,0,0,12,38.2556,-11.6396)"><path d="M0.537,-0.475l-0.081,0l-0,0.064c-0.038,-0.045 -0.093,-0.074 -0.168,-0.074c-0.134,0 -0.237,0.104 -0.237,0.247c-0,0.144 0.103,0.248 0.237,0.248c0.075,-0 0.13,-0.029 0.168,-0.073l-0,0.063l0.081,-0l0,-0.475Zm-0.239,0.067c0.096,-0 0.163,0.073 0.163,0.17c-0,0.098 -0.067,0.172 -0.163,0.172c-0.098,-0 -0.164,-0.077 -0.164,-0.172c-0,-0.094 0.064,-0.17 0.164,-0.17Z" style="fill:#004153;fill-rule:nonzero;"/></g><g transform="matrix(12,0,0,12,45.7436,-11.6396)"><path d="M0.323,-0.485c-0.055,0 -0.117,0.019 -0.156,0.072l0,-0.062l-0.08,0l-0,0.475l0.081,-0l-0,-0.266c-0,-0.089 0.064,-0.142 0.141,-0.142c0.082,0 0.13,0.052 0.13,0.139l0,0.269l0.082,-0l-0,-0.295c-0,-0.114 -0.081,-0.19 -0.198,-0.19Z" style="fill:#004153;fill-rule:nonzero;"/></g><g transform="matrix(12,0,0,12,52.8956,-11.6396)"><path d="M0.409,-0.475l-0.2,0l0,-0.149l-0.081,0l-0,0.149l-0.102,0l0,0.074l0.102,0l-0,0.234c-0,0.121 0.061,0.177 0.164,0.177c0.058,-0 0.106,-0.021 0.142,-0.047l-0.038,-0.061c-0.027,0.018 -0.062,0.032 -0.097,0.032c-0.052,-0 -0.09,-0.031 -0.09,-0.103l0,-0.232l0.2,0l-0,-0.074Z" style="fill:#004153;fill-rule:nonzero;"/></g><g transform="matrix(12,0,0,12,61.5476,-11.6396)"><path d="M0.537,-0.475l-0.081,0l-0,0.064c-0.038,-0.045 -0.093,-0.074 -0.168,-0.074c-0.134,0 -0.237,0.104 -0.237,0.247c-0,0.144 0.103,0.248 0.237,0.248c0.075,-0 0.13,-0.029 0.168,-0.073l-0,0.063l0.081,-0l0,-0.475Zm-0.239,0.067c0.096,-0 0.163,0.073 0.163,0.17c-0,0.098 -0.067,0.172 -0.163,0.172c-0.098,-0 -0.164,-0.077 -0.164,-0.172c-0,-0.094 0.064,-0.17 0.164,-0.17Z" style="fill:#004153;fill-rule:nonzero;"/></g><g transform="matrix(12,0,0,12,69.0356,-11.6396)"><path d="M0.442,-0.433c-0.046,-0.031 -0.114,-0.051 -0.19,-0.051c-0.115,-0 -0.19,0.054 -0.19,0.145c-0,0.072 0.051,0.121 0.157,0.134l0.056,0.006c0.064,0.008 0.095,0.03 0.095,0.065c0,0.047 -0.048,0.073 -0.126,0.073c-0.08,-0 -0.127,-0.023 -0.162,-0.051l-0.038,0.061c0.062,0.047 0.141,0.061 0.199,0.061c0.13,-0 0.211,-0.058 0.211,-0.149c-0,-0.078 -0.059,-0.121 -0.16,-0.135l-0.056,-0.007c-0.057,-0.007 -0.092,-0.024 -0.092,-0.062c0,-0.043 0.042,-0.071 0.107,-0.071c0.063,0 0.124,0.024 0.154,0.044l0.035,-0.063Z" style="fill:#004153;fill-rule:nonzero;"/></g><g transform="matrix(12,0,0,12,74.9996,-11.6396)"><path d="M0.336,-0.485c-0.076,0 -0.131,0.029 -0.168,0.073l-0,-0.063l-0.081,0l-0,0.675l0.081,-0l-0,-0.263c0.037,0.044 0.092,0.073 0.168,0.073c0.133,-0 0.237,-0.104 0.237,-0.247c-0,-0.144 -0.104,-0.248 -0.237,-0.248Zm-0.01,0.077c0.097,-0 0.163,0.076 0.163,0.17c0,0.095 -0.064,0.172 -0.163,0.172c-0.096,-0 -0.163,-0.074 -0.163,-0.172c-0,-0.097 0.067,-0.17 0.163,-0.17Z" style="fill:#004153;fill-rule:nonzero;"/></g><g transform="matrix(12,0,0,12,82.4816,-11.6396)"><path d="M0.287,-0.485c-0.137,0 -0.236,0.101 -0.236,0.247c-0,0.149 0.099,0.248 0.241,0.248c0.07,-0 0.136,-0.017 0.194,-0.072l-0.043,-0.056c-0.04,0.035 -0.091,0.057 -0.146,0.057c-0.082,-0 -0.151,-0.049 -0.162,-0.148l0.373,0c0.001,-0.009 0.002,-0.02 0.002,-0.03c-0.001,-0.146 -0.094,-0.246 -0.223,-0.246Zm-0.002,0.072c0.077,0 0.132,0.054 0.142,0.139l-0.291,-0c0.012,-0.082 0.065,-0.139 0.149,-0.139Z" style="fill:#004153;fill-rule:nonzero;"/></g><g transform="matrix(12,0,0,12,89.2076,-11.6396)"><path d="M0.297,-0.485c-0.147,0 -0.246,0.106 -0.246,0.247c-0,0.142 0.099,0.248 0.246,0.248c0.07,-0 0.133,-0.026 0.176,-0.074l-0.05,-0.057c-0.033,0.032 -0.078,0.055 -0.128,0.055c-0.092,-0 -0.161,-0.072 -0.161,-0.172c-0,-0.099 0.069,-0.17 0.161,-0.17c0.05,-0 0.091,0.019 0.126,0.053l0.052,-0.055c-0.042,-0.049 -0.106,-0.075 -0.176,-0.075Z" style="fill:#004153;fill-rule:nonzero;"/></g><g transform="matrix(12,0,0,12,95.4356,-11.6396)"><path d="M0.409,-0.475l-0.2,0l0,-0.149l-0.081,0l-0,0.149l-0.102,0l0,0.074l0.102,0l-0,0.234c-0,0.121 0.061,0.177 0.164,0.177c0.058,-0 0.106,-0.021 0.142,-0.047l-0.038,-0.061c-0.027,0.018 -0.062,0.032 -0.097,0.032c-0.052,-0 -0.09,-0.031 -0.09,-0.103l0,-0.232l0.2,0l-0,-0.074Z" style="fill:#004153;fill-rule:nonzero;"/></g><g transform="matrix(12,0,0,12,100.878,-11.6396)"><path d="M0.442,-0.433c-0.046,-0.031 -0.114,-0.051 -0.19,-0.051c-0.115,-0 -0.19,0.054 -0.19,0.145c-0,0.072 0.051,0.121 0.157,0.134l0.056,0.006c0.064,0.008 0.095,0.03 0.095,0.065c0,0.047 -0.048,0.073 -0.126,0.073c-0.08,-0 -0.127,-0.023 -0.162,-0.051l-0.038,0.061c0.062,0.047 0.141,0.061 0.199,0.061c0.13,-0 0.211,-0.058 0.211,-0.149c-0,-0.078 -0.059,-0.121 -0.16,-0.135l-0.056,-0.007c-0.057,-0.007 -0.092,-0.024 -0.092,-0.062c0,-0.043 0.042,-0.071 0.107,-0.071c0.063,0 0.124,0.024 0.154,0.044l0.035,-0.063Z" style="fill:#004153;fill-rule:nonzero;"/></g><g transform="matrix(12,0,0,12,110.052,-11.6396)"><path d="M0.301,-0.485c-0.144,0 -0.25,0.106 -0.25,0.247c-0,0.142 0.106,0.248 0.25,0.248c0.145,-0 0.252,-0.106 0.252,-0.248c-0,-0.141 -0.107,-0.247 -0.252,-0.247Zm0,0.077c0.096,-0 0.168,0.071 0.168,0.17c0,0.1 -0.072,0.172 -0.168,0.172c-0.095,-0 -0.167,-0.072 -0.167,-0.172c-0,-0.099 0.072,-0.17 0.167,-0.17Z" style="fill:#004153;fill-rule:nonzero;"/></g><g transform="matrix(12,0,0,12,117.234,-11.6396)"><path d="M0.396,-0.475l-0.183,0l0,-0.081c0,-0.062 0.025,-0.098 0.082,-0.098c0.035,0 0.07,0.013 0.095,0.028l0.03,-0.068c-0.034,-0.021 -0.077,-0.036 -0.131,-0.036c-0.112,0 -0.157,0.074 -0.157,0.174l-0,0.081l-0.106,0l0,0.074l0.106,0l-0,0.401l0.081,-0l0,-0.401l0.183,0l-0,-0.074Z" style="fill:#004153;fill-rule:nonzero;"/></g><g transform="matrix(12,0,0,12,-128.976,2.76045)"><path d="M0.525,-0.475l-0.09,0l-0.163,0.292l-0.171,-0.292l-0.091,0l0.217,0.373l-0.176,0.304l0.09,0l0.384,-0.677Z" style="fill:#004153;fill-rule:nonzero;"/></g><g transform="matrix(12,0,0,12,-122.694,2.76045)"><path d="M0.301,-0.485c-0.144,0 -0.25,0.106 -0.25,0.247c-0,0.142 0.106,0.248 0.25,0.248c0.145,-0 0.252,-0.106 0.252,-0.248c-0,-0.141 -0.107,-0.247 -0.252,-0.247Zm0,0.077c0.096,-0 0.168,0.071 0.168,0.17c0,0.1 -0.072,0.172 -0.168,0.172c-0.095,-0 -0.167,-0.072 -0.167,-0.172c-0,-0.099 0.072,-0.17 0.167,-0.17Z" style="fill:#004153;fill-rule:nonzero;"/></g><g transform="matrix(12,0,0,12,-115.452,2.76045)"><path d="M0.515,-0.475l-0.082,0l0,0.269c0,0.097 -0.057,0.14 -0.135,0.14c-0.077,-0 -0.135,-0.043 -0.135,-0.14l0,-0.269l-0.081,0l-0,0.276c-0,0.144 0.102,0.209 0.216,0.209c0.114,-0 0.217,-0.065 0.217,-0.209l-0,-0.276Z" style="fill:#004153;fill-rule:nonzero;"/></g><g transform="matrix(12,0,0,12,-108.294,2.76045)"><path d="M0.306,-0.485c-0.057,0 -0.106,0.026 -0.139,0.072l-0,-0.062l-0.08,0l-0,0.475l0.081,-0l-0,-0.264c-0,-0.088 0.051,-0.144 0.123,-0.144c0.027,0 0.059,0.007 0.082,0.019l0.02,-0.08c-0.026,-0.011 -0.053,-0.016 -0.087,-0.016Z" style="fill:#004153;fill-rule:nonzero;"/></g><g transform="matrix(12,0,0,12,-100.188,2.76045)"><path d="M0.442,-0.433c-0.046,-0.031 -0.114,-0.051 -0.19,-0.051c-0.115,-0 -0.19,0.054 -0.19,0.145c-0,0.072 0.051,0.121 0.157,0.134l0.056,0.006c0.064,0.008 0.095,0.03 0.095,0.065c0,0.047 -0.048,0.073 -0.126,0.073c-0.08,-0 -0.127,-0.023 -0.162,-0.051l-0.038,0.061c0.062,0.047 0.141,0.061 0.199,0.061c0.13,-0 0.211,-0.058 0.211,-0.149c-0,-0.078 -0.059,-0.121 -0.16,-0.135l-0.056,-0.007c-0.057,-0.007 -0.092,-0.024 -0.092,-0.062c0,-0.043 0.042,-0.071 0.107,-0.071c0.063,0 0.124,0.024 0.154,0.044l0.035,-0.063Z" style="fill:#004153;fill-rule:nonzero;"/></g><g transform="matrix(12,0,0,12,-94.2244,2.76045)"><path d="M0.301,-0.485c-0.144,0 -0.25,0.106 -0.25,0.247c-0,0.142 0.106,0.248 0.25,0.248c0.145,-0 0.252,-0.106 0.252,-0.248c-0,-0.141 -0.107,-0.247 -0.252,-0.247Zm0,0.077c0.096,-0 0.168,0.071 0.168,0.17c0,0.1 -0.072,0.172 -0.168,0.172c-0.095,-0 -0.167,-0.072 -0.167,-0.172c-0,-0.099 0.072,-0.17 0.167,-0.17Z" style="fill:#004153;fill-rule:nonzero;"/></g><g transform="matrix(12,0,0,12,-87.0424,2.76045)"><path d="M0.396,-0.475l-0.183,0l0,-0.081c0,-0.062 0.025,-0.098 0.082,-0.098c0.035,0 0.07,0.013 0.095,0.028l0.03,-0.068c-0.034,-0.021 -0.077,-0.036 -0.131,-0.036c-0.112,0 -0.157,0.074 -0.157,0.174l-0,0.081l-0.106,0l0,0.074l0.106,0l-0,0.401l0.081,-0l0,-0.401l0.183,0l-0,-0.074Z" style="fill:#004153;fill-rule:nonzero;"/></g><g transform="matrix(12,0,0,12,-82.0324,2.76045)"><path d="M0.409,-0.475l-0.2,0l0,-0.149l-0.081,0l-0,0.149l-0.102,0l0,0.074l0.102,0l-0,0.234c-0,0.121 0.061,0.177 0.164,0.177c0.058,-0 0.106,-0.021 0.142,-0.047l-0.038,-0.061c-0.027,0.018 -0.062,0.032 -0.097,0.032c-0.052,-0 -0.09,-0.031 -0.09,-0.103l0,-0.232l0.2,0l-0,-0.074Z" style="fill:#004153;fill-rule:nonzero;"/></g><g transform="matrix(12,0,0,12,-76.5904,2.76045)"><path d="M0.471,-0.475l-0.093,0l-0.135,0.388l-0.135,-0.388l-0.087,0l0.171,0.475l0.096,-0l0.135,-0.386l0.136,0.386l0.098,-0l0.171,-0.475l-0.086,0l-0.135,0.389l-0.136,-0.389Z" style="fill:#004153;fill-rule:nonzero;"/></g><g transform="matrix(12,0,0,12,-66.4084,2.76045)"><path d="M0.537,-0.475l-0.081,0l-0,0.064c-0.038,-0.045 -0.093,-0.074 -0.168,-0.074c-0.134,0 -0.237,0.104 -0.237,0.247c-0,0.144 0.103,0.248 0.237,0.248c0.075,-0 0.13,-0.029 0.168,-0.073l-0,0.063l0.081,-0l0,-0.475Zm-0.239,0.067c0.096,-0 0.163,0.073 0.163,0.17c-0,0.098 -0.067,0.172 -0.163,0.172c-0.098,-0 -0.164,-0.077 -0.164,-0.172c-0,-0.094 0.064,-0.17 0.164,-0.17Z" style="fill:#004153;fill-rule:nonzero;"/></g><g transform="matrix(12,0,0,12,-58.9204,2.76045)"><path d="M0.306,-0.485c-0.057,0 -0.106,0.026 -0.139,0.072l-0,-0.062l-0.08,0l-0,0.475l0.081,-0l-0,-0.264c-0,-0.088 0.051,-0.144 0.123,-0.144c0.027,0 0.059,0.007 0.082,0.019l0.02,-0.08c-0.026,-0.011 -0.053,-0.016 -0.087,-0.016Z" style="fill:#004153;fill-rule:nonzero;"/></g><g transform="matrix(12,0,0,12,-54.1324,2.76045)"><path d="M0.287,-0.485c-0.137,0 -0.236,0.101 -0.236,0.247c-0,0.149 0.099,0.248 0.241,0.248c0.07,-0 0.136,-0.017 0.194,-0.072l-0.043,-0.056c-0.04,0.035 -0.091,0.057 -0.146,0.057c-0.082,-0 -0.151,-0.049 -0.162,-0.148l0.373,0c0.001,-0.009 0.002,-0.02 0.002,-0.03c-0.001,-0.146 -0.094,-0.246 -0.223,-0.246Zm-0.002,0.072c0.077,0 0.132,0.054 0.142,0.139l-0.291,-0c0.012,-0.082 0.065,-0.139 0.149,-0.139Z" style="fill:#004153;fill-rule:nonzero;"/></g><g transform="matrix(12,0,0,12,-44.1964,2.76045)"><path d="M0.537,-0.475l-0.081,0l-0,0.064c-0.038,-0.045 -0.093,-0.074 -0.168,-0.074c-0.134,0 -0.237,0.104 -0.237,0.247c-0,0.144 0.103,0.248 0.237,0.248c0.075,-0 0.13,-0.029 0.168,-0.073l-0,0.063l0.081,-0l0,-0.475Zm-0.239,0.067c0.096,-0 0.163,0.073 0.163,0.17c-0,0.098 -0.067,0.172 -0.163,0.172c-0.098,-0 -0.164,-0.077 -0.164,-0.172c-0,-0.094 0.064,-0.17 0.164,-0.17Z" style="fill:#004153;fill-rule:nonzero;"/></g><g transform="matrix(12,0,0,12,-36.7084,2.76045)"><path d="M0.306,-0.485c-0.057,0 -0.106,0.026 -0.139,0.072l-0,-0.062l-0.08,0l-0,0.475l0.081,-0l-0,-0.264c-0,-0.088 0.051,-0.144 0.123,-0.144c0.027,0 0.059,0.007 0.082,0.019l0.02,-0.08c-0.026,-0.011 -0.053,-0.016 -0.087,-0.016Z" style="fill:#004153;fill-rule:nonzero;"/></g><g transform="matrix(12,0,0,12,-31.9204,2.76045)"><path d="M0.297,-0.485c-0.147,0 -0.246,0.106 -0.246,0.247c-0,0.142 0.099,0.248 0.246,0.248c0.07,-0 0.133,-0.026 0.176,-0.074l-0.05,-0.057c-0.033,0.032 -0.078,0.055 -0.128,0.055c-0.092,-0 -0.161,-0.072 -0.161,-0.172c-0,-0.099 0.069,-0.17 0.161,-0.17c0.05,-0 0.091,0.019 0.126,0.053l0.052,-0.055c-0.042,-0.049 -0.106,-0.075 -0.176,-0.075Z" style="fill:#004153;fill-rule:nonzero;"/></g><g transform="matrix(12,0,0,12,-25.7704,2.76045)"><path d="M0.168,-0.72l-0.081,0l-0,0.72l0.081,-0l-0,-0.267c-0,-0.088 0.064,-0.141 0.141,-0.141c0.082,0 0.13,0.052 0.13,0.139l0,0.269l0.082,-0l-0,-0.295c-0,-0.114 -0.081,-0.19 -0.198,-0.19c-0.055,0 -0.116,0.018 -0.155,0.071l-0,-0.306Z" style="fill:#004153;fill-rule:nonzero;"/></g><g transform="matrix(12,0,0,12,-18.5404,2.76045)"><path d="M0.168,-0.475l-0.081,0l-0,0.475l0.081,-0l-0,-0.475Zm-0.041,-0.225c-0.033,-0 -0.058,0.025 -0.058,0.058c0,0.033 0.025,0.057 0.058,0.057c0.032,0 0.058,-0.024 0.058,-0.057c-0,-0.033 -0.026,-0.058 -0.058,-0.058Z" style="fill:#004153;fill-rule:nonzero;"/></g><g transform="matrix(12,0,0,12,-15.4864,2.76045)"><path d="M0.409,-0.475l-0.2,0l0,-0.149l-0.081,0l-0,0.149l-0.102,0l0,0.074l0.102,0l-0,0.234c-0,0.121 0.061,0.177 0.164,0.177c0.058,-0 0.106,-0.021 0.142,-0.047l-0.038,-0.061c-0.027,0.018 -0.062,0.032 -0.097,0.032c-0.052,-0 -0.09,-0.031 -0.09,-0.103l0,-0.232l0.2,0l-0,-0.074Z" style="fill:#004153;fill-rule:nonzero;"/></g><g transform="matrix(12,0,0,12,-10.0564,2.76045)"><path d="M0.287,-0.485c-0.137,0 -0.236,0.101 -0.236,0.247c-0,0.149 0.099,0.248 0.241,0.248c0.07,-0 0.136,-0.017 0.194,-0.072l-0.043,-0.056c-0.04,0.035 -0.091,0.057 -0.146,0.057c-0.082,-0 -0.151,-0.049 -0.162,-0.148l0.373,0c0.001,-0.009 0.002,-0.02 0.002,-0.03c-0.001,-0.146 -0.094,-0.246 -0.223,-0.246Zm-0.002,0.072c0.077,0 0.132,0.054 0.142,0.139l-0.291,-0c0.012,-0.082 0.065,-0.139 0.149,-0.139Z" style="fill:#004153;fill-rule:nonzero;"/></g><g transform="matrix(12,0,0,12,-3.33038,2.76045)"><path d="M0.297,-0.485c-0.147,0 -0.246,0.106 -0.246,0.247c-0,0.142 0.099,0.248 0.246,0.248c0.07,-0 0.133,-0.026 0.176,-0.074l-0.05,-0.057c-0.033,0.032 -0.078,0.055 -0.128,0.055c-0.092,-0 -0.161,-0.072 -0.161,-0.172c-0,-0.099 0.069,-0.17 0.161,-0.17c0.05,-0 0.091,0.019 0.126,0.053l0.052,-0.055c-0.042,-0.049 -0.106,-0.075 -0.176,-0.075Z" style="fill:#004153;fill-rule:nonzero;"/></g><g transform="matrix(12,0,0,12,2.89762,2.76045)"><path d="M0.409,-0.475l-0.2,0l0,-0.149l-0.081,0l-0,0.149l-0.102,0l0,0.074l0.102,0l-0,0.234c-0,0.121 0.061,0.177 0.164,0.177c0.058,-0 0.106,-0.021 0.142,-0.047l-0.038,-0.061c-0.027,0.018 -0.062,0.032 -0.097,0.032c-0.052,-0 -0.09,-0.031 -0.09,-0.103l0,-0.232l0.2,0l-0,-0.074Z" style="fill:#004153;fill-rule:nonzero;"/></g><g transform="matrix(12,0,0,12,8.33962,2.76045)"><path d="M0.515,-0.475l-0.082,0l0,0.269c0,0.097 -0.057,0.14 -0.135,0.14c-0.077,-0 -0.135,-0.043 -0.135,-0.14l0,-0.269l-0.081,0l-0,0.276c-0,0.144 0.102,0.209 0.216,0.209c0.114,-0 0.217,-0.065 0.217,-0.209l-0,-0.276Z" style="fill:#004153;fill-rule:nonzero;"/></g><g transform="matrix(12,0,0,12,15.4976,2.76045)"><path d="M0.306,-0.485c-0.057,0 -0.106,0.026 -0.139,0.072l-0,-0.062l-0.08,0l-0,0.475l0.081,-0l-0,-0.264c-0,-0.088 0.051,-0.144 0.123,-0.144c0.027,0 0.059,0.007 0.082,0.019l0.02,-0.08c-0.026,-0.011 -0.053,-0.016 -0.087,-0.016Z" style="fill:#004153;fill-rule:nonzero;"/></g><g transform="matrix(12,0,0,12,20.2856,2.76045)"><path d="M0.287,-0.485c-0.137,0 -0.236,0.101 -0.236,0.247c-0,0.149 0.099,0.248 0.241,0.248c0.07,-0 0.136,-0.017 0.194,-0.072l-0.043,-0.056c-0.04,0.035 -0.091,0.057 -0.146,0.057c-0.082,-0 -0.151,-0.049 -0.162,-0.148l0.373,0c0.001,-0.009 0.002,-0.02 0.002,-0.03c-0.001,-0.146 -0.094,-0.246 -0.223,-0.246Zm-0.002,0.072c0.077,0 0.132,0.054 0.142,0.139l-0.291,-0c0.012,-0.082 0.065,-0.139 0.149,-0.139Z" style="fill:#004153;fill-rule:nonzero;"/></g><g transform="matrix(12,0,0,12,27.0116,2.76045)"><path d="M0.181,-0.7l-0.1,0l0.013,0.475l0.074,0l0.013,-0.475Zm-0.05,0.573c-0.036,-0 -0.068,0.031 -0.068,0.068c0,0.036 0.032,0.069 0.068,0.069c0.037,-0 0.068,-0.033 0.068,-0.069c0,-0.037 -0.031,-0.068 -0.068,-0.068Z" style="fill:#004153;fill-rule:nonzero;"/></g></g><path d="M22.515,394.69c-1.323,0 -2.218,0.958 -2.218,2.227c0,1.27 0.895,2.228 2.218,2.228c0.635,-0 1.202,-0.234 1.589,-0.67l-0.455,-0.509c-0.297,0.288 -0.697,0.491 -1.152,0.491c-0.823,-0 -1.449,-0.644 -1.449,-1.54c0,-0.895 0.626,-1.534 1.449,-1.534c0.455,-0 0.819,0.175 1.134,0.481l0.473,-0.499c-0.383,-0.441 -0.954,-0.675 -1.589,-0.675Z" style="fill:#004153;fill-rule:nonzero;"/><path d="M29.216,394.78l-0.738,0l0,0.576c-0.337,-0.405 -0.837,-0.666 -1.507,-0.666c-1.202,0 -2.138,0.936 -2.138,2.227c0,1.292 0.936,2.228 2.138,2.228c0.67,-0 1.17,-0.261 1.507,-0.661l0,0.571l0.738,-0l-0,-4.275Zm-2.16,0.603c0.864,-0 1.467,0.661 1.467,1.534c0,0.878 -0.603,1.54 -1.467,1.54c-0.878,-0 -1.472,-0.689 -1.472,-1.54c0,-0.85 0.581,-1.534 1.472,-1.534Z" style="fill:#004153;fill-rule:nonzero;"/><path d="M32.748,394.69c-0.508,0 -0.954,0.234 -1.251,0.652l0,-0.562l-0.724,0l0,4.275l0.733,-0l0,-2.381c0,-0.787 0.459,-1.287 1.112,-1.287c0.243,0 0.531,0.059 0.733,0.167l0.18,-0.725c-0.229,-0.098 -0.477,-0.139 -0.783,-0.139Z" style="fill:#004153;fill-rule:nonzero;"/><path d="M36.178,394.69c-1.202,0 -2.138,0.936 -2.138,2.227c0,1.292 0.936,2.228 2.138,2.228c0.67,-0 1.17,-0.261 1.507,-0.661l0,0.571l0.738,-0l-0,-6.48l-0.738,0l0,2.781c-0.337,-0.405 -0.837,-0.666 -1.507,-0.666Zm0.085,0.693c0.864,-0 1.467,0.661 1.467,1.534c0,0.878 -0.603,1.54 -1.467,1.54c-0.878,-0 -1.472,-0.689 -1.472,-1.54c0,-0.85 0.581,-1.534 1.472,-1.534Z" style="fill:#004153;fill-rule:nonzero;"/><path d="M43.179,395.158c-0.413,-0.284 -1.03,-0.463 -1.705,-0.463c-1.04,-0 -1.719,0.494 -1.719,1.313c0,0.648 0.463,1.08 1.422,1.197l0.495,0.059c0.581,0.072 0.86,0.27 0.86,0.585c-0,0.423 -0.432,0.653 -1.135,0.653c-0.715,-0 -1.143,-0.207 -1.462,-0.455l-0.342,0.549c0.563,0.423 1.273,0.549 1.8,0.549c1.166,-0 1.894,-0.527 1.894,-1.341c0,-0.707 -0.535,-1.089 -1.444,-1.211l-0.495,-0.063c-0.518,-0.063 -0.828,-0.22 -0.828,-0.562c-0,-0.387 0.378,-0.635 0.963,-0.635c0.563,0 1.107,0.212 1.377,0.396l0.319,-0.571Z" style="fill:#004153;fill-rule:nonzero;"/><path d="M47.58,395.293l-0.76,0l0,1.742l-1.998,-0l2.304,-4.271l-0.864,0l-2.353,4.405l-0,0.585l2.911,0l0,1.301l0.76,-0l0,-1.301l1.049,0l-0,-0.719l-1.049,-0l0,-1.742Z" style="fill:#004153;fill-rule:nonzero;"/><path d="M49.79,394.159c0.302,-0.405 0.675,-0.765 1.377,-0.765c0.797,-0 1.256,0.535 1.256,1.237c-0,0.518 -0.252,0.941 -0.63,1.337l-2.358,2.489l-0,0.598l3.982,-0l-0,-0.724l-2.853,-0l1.809,-1.922c0.405,-0.428 0.846,-0.99 0.846,-1.773c-0,-1.13 -0.747,-1.971 -2.034,-1.971c-1.089,0 -1.647,0.612 -1.944,1.048l0.549,0.446Z" style="fill:#004153;fill-rule:nonzero;"/><path d="M55.141,397.912c-0.329,0 -0.617,0.283 -0.617,0.612c0,0.333 0.288,0.621 0.617,0.621c0.328,-0 0.611,-0.288 0.611,-0.621c0,-0.329 -0.283,-0.612 -0.611,-0.612Z" style="fill:#004153;fill-rule:nonzero;"/><path d="M58.966,394.69c-1.297,0 -2.259,0.958 -2.259,2.227c-0,1.27 0.962,2.228 2.259,2.228c1.296,-0 2.263,-0.958 2.263,-2.228c-0,-1.269 -0.967,-2.227 -2.263,-2.227Zm-0,0.693c0.855,-0 1.507,0.639 1.507,1.534c0,0.896 -0.652,1.54 -1.507,1.54c-0.86,-0 -1.508,-0.644 -1.508,-1.54c-0,-0.895 0.648,-1.534 1.508,-1.534Z" style="fill:#004153;fill-rule:nonzero;"/><path d="M64.437,394.69c-0.508,0 -0.954,0.234 -1.251,0.652l0,-0.562l-0.724,0l0,4.275l0.733,-0l0,-2.381c0,-0.787 0.459,-1.287 1.112,-1.287c0.243,0 0.531,0.059 0.733,0.167l0.18,-0.725c-0.229,-0.098 -0.477,-0.139 -0.783,-0.139Z" style="fill:#004153;fill-rule:nonzero;"/><path d="M67.844,394.69c-1.202,0 -2.115,0.891 -2.115,2.191c0,1.306 0.913,2.196 2.115,2.196c0.662,0 1.148,-0.256 1.472,-0.665l-0,0.377c-0,0.95 -0.617,1.468 -1.535,1.468c-0.554,-0 -1.062,-0.185 -1.472,-0.478l-0.319,0.595c0.436,0.35 1.125,0.553 1.791,0.553c1.35,-0 2.272,-0.787 2.272,-2.169l0,-3.978l-0.737,0l-0,0.581c-0.324,-0.41 -0.81,-0.671 -1.472,-0.671Zm0.086,0.693c0.85,-0 1.449,0.648 1.449,1.498c-0,0.855 -0.599,1.504 -1.449,1.504c-0.878,-0 -1.45,-0.671 -1.45,-1.504c0,-0.823 0.572,-1.498 1.45,-1.498Z" style="fill:#004153;fill-rule:nonzero;"/><path d="M75.4,392.125l-0.81,0l-3.821,7.83l0.81,-0l3.821,-7.83Z" style="fill:#004153;fill-rule:nonzero;"/><path d="M80.854,394.69c-0.581,0 -1.243,0.211 -1.594,0.859c-0.283,-0.535 -0.854,-0.859 -1.579,-0.859c-0.495,0 -1.049,0.166 -1.4,0.648l0,-0.558l-0.728,0l-0,4.275l0.733,-0l-0,-2.399c-0,-0.796 0.576,-1.269 1.265,-1.269c0.742,0 1.174,0.464 1.174,1.251l0,2.417l0.738,-0l-0,-2.399c-0,-0.778 0.553,-1.269 1.26,-1.269c0.743,0 1.175,0.464 1.175,1.251l-0,2.417l0.737,-0l0,-2.655c0,-1.026 -0.724,-1.71 -1.781,-1.71Z" style="fill:#004153;fill-rule:nonzero;"/><path d="M84.881,394.78l-0.733,0l-0,4.275l0.733,-0l-0,-4.275Zm-0.373,-2.029c-0.293,-0 -0.518,0.229 -0.518,0.526c0,0.293 0.225,0.513 0.518,0.513c0.292,0 0.526,-0.22 0.526,-0.513c-0,-0.297 -0.234,-0.526 -0.526,-0.526Z" style="fill:#004153;fill-rule:nonzero;"/><path d="M88.567,394.69c-0.496,0 -1.049,0.166 -1.4,0.648l-0,-0.558l-0.729,0l0,4.275l0.733,-0l0,-2.399c0,-0.796 0.576,-1.269 1.265,-1.269c0.743,0 1.175,0.464 1.175,1.251l-0,2.417l0.737,-0l0,-2.655c0,-1.026 -0.728,-1.71 -1.781,-1.71Z" style="fill:#004153;fill-rule:nonzero;"/><path d="M92.594,394.78l-0.733,0l-0,4.275l0.733,-0l-0,-4.275Zm-0.373,-2.029c-0.293,-0 -0.518,0.229 -0.518,0.526c0,0.293 0.225,0.513 0.518,0.513c0.292,0 0.526,-0.22 0.526,-0.513c-0,-0.297 -0.234,-0.526 -0.526,-0.526Z" style="fill:#004153;fill-rule:nonzero;"/><path d="M95.965,394.69c-1.202,0 -2.138,0.936 -2.138,2.227c0,1.292 0.936,2.228 2.138,2.228c0.67,-0 1.17,-0.261 1.507,-0.661l0,0.571l0.738,-0l-0,-6.48l-0.738,0l0,2.781c-0.337,-0.405 -0.837,-0.666 -1.507,-0.666Zm0.085,0.693c0.864,-0 1.467,0.661 1.467,1.534c0,0.878 -0.603,1.54 -1.467,1.54c-0.878,-0 -1.472,-0.689 -1.472,-1.54c0,-0.85 0.581,-1.534 1.472,-1.534Z" style="fill:#004153;fill-rule:nonzero;"/><path d="M101.702,394.69c-1.296,0 -2.259,0.958 -2.259,2.227c0,1.27 0.963,2.228 2.259,2.228c1.296,-0 2.263,-0.958 2.263,-2.228c0,-1.269 -0.967,-2.227 -2.263,-2.227Zm0,0.693c0.855,-0 1.508,0.639 1.508,1.534c-0,0.896 -0.653,1.54 -1.508,1.54c-0.86,-0 -1.508,-0.644 -1.508,-1.54c0,-0.895 0.648,-1.534 1.508,-1.534Z" style="fill:#004153;fill-rule:nonzero;"/><path d="M107.093,394.69c-1.323,0 -2.218,0.958 -2.218,2.227c-0,1.27 0.895,2.228 2.218,2.228c0.634,-0 1.201,-0.234 1.588,-0.67l-0.454,-0.509c-0.297,0.288 -0.698,0.491 -1.152,0.491c-0.824,-0 -1.449,-0.644 -1.449,-1.54c-0,-0.895 0.625,-1.534 1.449,-1.534c0.454,-0 0.819,0.175 1.134,0.481l0.472,-0.499c-0.382,-0.441 -0.954,-0.675 -1.588,-0.675Z" style="fill:#004153;fill-rule:nonzero;"/><path d="M20.797,90.949l-0,8.399l3.636,-0c2.016,-0 3.161,-0.792 3.161,-2.406c0,-0.906 -0.63,-1.626 -1.397,-1.884c0.701,-0.258 1.217,-0.935 1.217,-1.782c0,-1.602 -1.229,-2.327 -3.185,-2.327l-3.432,-0Zm3.552,4.907c0.924,-0 1.506,0.216 1.506,1.002c-0,0.805 -0.582,1.021 -1.506,1.021l-1.879,-0.006l0,-2.017l1.879,-0Zm-0.168,-3.432c0.828,-0 1.488,0.18 1.488,0.972c-0,0.817 -0.648,0.991 -1.482,0.991l-1.717,-0l0,-1.963l1.711,-0Z" style="fill:#004153;fill-rule:nonzero;"/><path d="M34.422,93.535l-1.559,-0l-0,3.198c-0,0.93 -0.516,1.308 -1.188,1.308c-0.679,-0 -1.189,-0.378 -1.189,-1.308l0,-3.198l-1.565,-0l-0,3.336c-0,1.835 1.295,2.627 2.754,2.627c1.452,-0 2.747,-0.792 2.747,-2.627l0,-3.336Z" style="fill:#004153;fill-rule:nonzero;"/><path d="M40.698,93.936c-0.773,-0.377 -1.499,-0.551 -2.43,-0.551c-1.53,-0 -2.453,0.707 -2.453,1.901c-0,0.99 0.666,1.578 2.009,1.764l0.475,0.066c0.672,0.096 0.966,0.252 0.966,0.535c-0,0.342 -0.348,0.546 -1.075,0.546c-0.876,-0 -1.482,-0.24 -1.979,-0.57l-0.618,1.187c0.756,0.534 1.793,0.684 2.585,0.684c1.687,-0 2.67,-0.774 2.67,-1.973c0,-0.985 -0.702,-1.549 -1.961,-1.741l-0.516,-0.078c-0.529,-0.078 -0.949,-0.162 -0.949,-0.498c0,-0.318 0.3,-0.528 0.895,-0.528c0.654,0.006 1.392,0.246 1.853,0.474l0.528,-1.218Z" style="fill:#004153;fill-rule:nonzero;"/><path d="M43.65,93.535l-1.565,-0l-0,5.813l1.565,-0l0,-5.813Zm-0.791,-2.91c-0.564,-0 -0.996,0.444 -0.996,1.008c-0,0.564 0.432,0.996 0.996,0.996c0.563,-0 1.001,-0.432 1.001,-0.996c0,-0.564 -0.438,-1.008 -1.001,-1.008Z" style="fill:#004153;fill-rule:nonzero;"/><path d="M48.529,93.379c-0.661,-0 -1.297,0.222 -1.711,0.839l0,-0.683l-1.523,-0l-0,5.813l1.565,-0l0,-3.186c0,-0.876 0.558,-1.314 1.231,-1.314c0.714,-0 1.134,0.462 1.134,1.302l-0,3.198l1.565,-0l0,-3.702c0,-1.35 -0.941,-2.267 -2.261,-2.267Z" style="fill:#004153;fill-rule:nonzero;"/><path d="M54.967,93.379c-1.741,-0 -2.94,1.247 -2.94,3.077c-0,1.831 1.235,3.042 3.018,3.042c0.978,-0 1.818,-0.276 2.477,-0.882l-0.917,-1.008c-0.42,0.355 -0.966,0.559 -1.47,0.559c-0.739,-0 -1.327,-0.367 -1.495,-1.207l4.122,-0c0.018,-0.132 0.03,-0.348 0.03,-0.528c-0.006,-1.812 -1.151,-3.053 -2.825,-3.053Zm-0.012,1.349c0.672,-0 1.122,0.42 1.266,1.165l-2.575,-0c0.138,-0.721 0.57,-1.165 1.309,-1.165Z" style="fill:#004153;fill-rule:nonzero;"/><path d="M63.726,93.936c-0.773,-0.377 -1.499,-0.551 -2.43,-0.551c-1.53,-0 -2.453,0.707 -2.453,1.901c-0,0.99 0.666,1.578 2.009,1.764l0.475,0.066c0.672,0.096 0.966,0.252 0.966,0.535c-0,0.342 -0.348,0.546 -1.075,0.546c-0.876,-0 -1.482,-0.24 -1.979,-0.57l-0.618,1.187c0.756,0.534 1.793,0.684 2.585,0.684c1.687,-0 2.67,-0.774 2.67,-1.973c0,-0.985 -0.702,-1.549 -1.961,-1.741l-0.516,-0.078c-0.529,-0.078 -0.949,-0.162 -0.949,-0.498c0,-0.318 0.3,-0.528 0.895,-0.528c0.654,0.006 1.392,0.246 1.853,0.474l0.528,-1.218Z" style="fill:#004153;fill-rule:nonzero;"/><path d="M69.768,93.936c-0.773,-0.377 -1.499,-0.551 -2.43,-0.551c-1.53,-0 -2.453,0.707 -2.453,1.901c-0,0.99 0.666,1.578 2.009,1.764l0.475,0.066c0.672,0.096 0.966,0.252 0.966,0.535c-0,0.342 -0.348,0.546 -1.075,0.546c-0.876,-0 -1.482,-0.24 -1.979,-0.57l-0.618,1.187c0.756,0.534 1.793,0.684 2.585,0.684c1.687,-0 2.67,-0.774 2.67,-1.973c0,-0.985 -0.702,-1.549 -1.961,-1.741l-0.516,-0.078c-0.529,-0.078 -0.949,-0.162 -0.949,-0.498c0,-0.318 0.3,-0.528 0.895,-0.528c0.654,0.006 1.392,0.246 1.853,0.474l0.528,-1.218Z" style="fill:#004153;fill-rule:nonzero;"/><path d="M76.44,93.379c-1.416,-0 -2.675,1.181 -2.675,2.969c-0,1.783 1.259,2.964 2.675,2.964c0.805,-0 1.393,-0.3 1.789,-0.786l-0,0.408c-0,1.002 -0.684,1.543 -1.657,1.543c-0.696,-0 -1.338,-0.21 -1.92,-0.595l-0.557,1.278c0.653,0.462 1.625,0.702 2.543,0.702c1.921,-0 3.138,-1.127 3.138,-2.994l0,-5.333l-1.535,-0l-0,0.648c-0.396,-0.493 -0.99,-0.804 -1.801,-0.804Zm0.397,1.439c0.87,-0 1.458,0.66 1.458,1.53c-0,0.865 -0.588,1.525 -1.458,1.525c-0.895,-0 -1.465,-0.685 -1.465,-1.525c0,-0.846 0.57,-1.53 1.465,-1.53Z" style="fill:#004153;fill-rule:nonzero;"/><path d="M84.199,93.379c-1.807,-0 -3.138,1.307 -3.138,3.059c-0,1.753 1.331,3.06 3.138,3.06c1.812,-0 3.149,-1.307 3.149,-3.06c0,-1.752 -1.337,-3.059 -3.149,-3.059Zm-0,1.457c0.882,-0 1.548,0.66 1.548,1.602c-0,0.943 -0.666,1.603 -1.548,1.603c-0.883,-0 -1.543,-0.66 -1.543,-1.603c0,-0.942 0.66,-1.602 1.543,-1.602Z" style="fill:#004153;fill-rule:nonzero;"/><path d="M94.35,93.535l-1.529,-0l-0,0.642c-0.384,-0.475 -0.942,-0.798 -1.741,-0.798c-1.602,-0 -2.813,1.313 -2.813,3.059c-0,1.747 1.211,3.06 2.813,3.06c0.799,-0 1.363,-0.324 1.741,-0.792l-0,0.642l1.529,-0l0,-5.813Zm-2.981,1.301c0.894,-0 1.5,0.684 1.5,1.602c-0,0.919 -0.606,1.603 -1.5,1.603c-0.919,-0 -1.501,-0.715 -1.501,-1.603c0,-0.888 0.582,-1.602 1.501,-1.602Z" style="fill:#004153;fill-rule:nonzero;"/><rect x="95.995" y="90.709" width="1.565" height="8.639" style="fill:#004153;fill-rule:nonzero;"/><path d="M103.902,93.936c-0.773,-0.377 -1.499,-0.551 -2.43,-0.551c-1.53,-0 -2.453,0.707 -2.453,1.901c-0,0.99 0.666,1.578 2.009,1.764l0.475,0.066c0.672,0.096 0.966,0.252 0.966,0.535c-0,0.342 -0.348,0.546 -1.075,0.546c-0.876,-0 -1.482,-0.24 -1.979,-0.57l-0.618,1.187c0.756,0.534 1.793,0.684 2.585,0.684c1.687,-0 2.67,-0.774 2.67,-1.973c0,-0.985 -0.702,-1.549 -1.961,-1.741l-0.516,-0.078c-0.529,-0.078 -0.949,-0.162 -0.949,-0.498c0,-0.318 0.3,-0.528 0.895,-0.528c0.654,0.006 1.392,0.246 1.853,0.474l0.528,-1.218Z" style="fill:#004153;fill-rule:nonzero;"/><path d="M112.434,93.535l-2.106,-0l0,-1.728l-1.565,-0l-0,1.728l-1.122,-0l-0,1.391l1.122,-0l-0,2.25c-0,1.506 0.738,2.322 2.177,2.322c0.828,-0 1.416,-0.264 1.926,-0.612l-0.576,-1.223c-0.318,0.192 -0.72,0.378 -1.092,0.378c-0.486,-0 -0.87,-0.264 -0.87,-0.991l0,-2.124l2.106,-0l0,-1.391Z" style="fill:#004153;fill-rule:nonzero;"/><path d="M116.521,93.379c-1.807,-0 -3.138,1.307 -3.138,3.059c-0,1.753 1.331,3.06 3.138,3.06c1.812,-0 3.149,-1.307 3.149,-3.06c0,-1.752 -1.337,-3.059 -3.149,-3.059Zm-0,1.457c0.882,-0 1.548,0.66 1.548,1.602c-0,0.943 -0.666,1.603 -1.548,1.603c-0.883,-0 -1.543,-0.66 -1.543,-1.603c0,-0.942 0.66,-1.602 1.543,-1.602Z" style="fill:#004153;fill-rule:nonzero;"/><path d="M127.183,93.379c-0.781,-0 -1.327,0.306 -1.705,0.761l0,-3.431l-1.559,-0l-0,8.639l1.529,-0l0,-0.642c0.378,0.468 0.936,0.792 1.741,0.792c1.602,-0 2.813,-1.313 2.813,-3.06c0,-1.746 -1.211,-3.059 -2.819,-3.059Zm-0.288,1.457c0.924,-0 1.5,0.714 1.5,1.602c-0,0.888 -0.576,1.603 -1.5,1.603c-0.889,-0 -1.495,-0.684 -1.495,-1.603c0,-0.918 0.606,-1.602 1.495,-1.602Z" style="fill:#004153;fill-rule:nonzero;"/><path d="M133.861,93.379c-1.741,-0 -2.94,1.247 -2.94,3.077c-0,1.831 1.235,3.042 3.018,3.042c0.978,-0 1.818,-0.276 2.477,-0.882l-0.917,-1.008c-0.42,0.355 -0.966,0.559 -1.47,0.559c-0.739,-0 -1.327,-0.367 -1.495,-1.207l4.122,-0c0.018,-0.132 0.03,-0.348 0.03,-0.528c-0.006,-1.812 -1.151,-3.053 -2.825,-3.053Zm-0.012,1.349c0.672,-0 1.122,0.42 1.266,1.165l-2.575,-0c0.138,-0.721 0.57,-1.165 1.309,-1.165Z" style="fill:#004153;fill-rule:nonzero;"/><path d="M146.658,93.535l-1.529,-0l-0,0.642c-0.384,-0.475 -0.942,-0.798 -1.741,-0.798c-1.602,-0 -2.813,1.313 -2.813,3.059c-0,1.747 1.211,3.06 2.813,3.06c0.799,-0 1.363,-0.324 1.741,-0.792l-0,0.642l1.529,-0l0,-5.813Zm-2.981,1.301c0.894,-0 1.5,0.684 1.5,1.602c-0,0.919 -0.606,1.603 -1.5,1.603c-0.919,-0 -1.501,-0.715 -1.501,-1.603c0,-0.888 0.582,-1.602 1.501,-1.602Z" style="fill:#004153;fill-rule:nonzero;"/><path d="M151.038,93.379c-1.854,-0 -3.095,1.301 -3.095,3.059c-0,1.765 1.241,3.06 3.095,3.06c0.972,-0 1.788,-0.39 2.334,-1.092l-1.116,-0.953c-0.33,0.36 -0.762,0.588 -1.266,0.588c-0.81,-0 -1.452,-0.63 -1.452,-1.603c0,-0.966 0.648,-1.602 1.458,-1.602c0.51,-0 0.888,0.204 1.242,0.582l1.128,-0.942c-0.534,-0.702 -1.356,-1.097 -2.328,-1.097Z" style="fill:#004153;fill-rule:nonzero;"/><path d="M156.066,90.703l-1.565,-0l-0,8.645l1.565,-0l0,-3.186c0,-0.876 0.558,-1.314 1.231,-1.314c0.714,-0 1.134,0.462 1.134,1.302l-0,3.198l1.565,-0l0,-3.702c0,-1.35 -0.941,-2.267 -2.261,-2.267c-0.637,-0 -1.255,0.204 -1.669,0.779l0,-3.455Z" style="fill:#004153;fill-rule:nonzero;"/><path d="M163.158,93.535l-1.565,-0l-0,5.813l1.565,-0l0,-5.813Zm-0.791,-2.91c-0.564,-0 -0.996,0.444 -0.996,1.008c-0,0.564 0.432,0.996 0.996,0.996c0.563,-0 1.001,-0.432 1.001,-0.996c0,-0.564 -0.438,-1.008 -1.001,-1.008Z" style="fill:#004153;fill-rule:nonzero;"/><path d="M167.383,93.379c-1.741,-0 -2.94,1.247 -2.94,3.077c-0,1.831 1.235,3.042 3.018,3.042c0.978,-0 1.818,-0.276 2.477,-0.882l-0.917,-1.008c-0.42,0.355 -0.966,0.559 -1.47,0.559c-0.739,-0 -1.327,-0.367 -1.495,-1.207l4.122,-0c0.018,-0.132 0.03,-0.348 0.03,-0.528c-0.006,-1.812 -1.151,-3.053 -2.825,-3.053Zm-0.012,1.349c0.672,-0 1.122,0.42 1.266,1.165l-2.575,-0c0.138,-0.721 0.57,-1.165 1.309,-1.165Z" style="fill:#004153;fill-rule:nonzero;"/><path d="M176.983,93.535l-1.65,-0l-1.518,4.163l-1.506,-4.163l-1.704,-0l2.298,5.813l1.806,-0l2.274,-5.813Z" style="fill:#004153;fill-rule:nonzero;"/><path d="M180.325,93.379c-1.741,-0 -2.94,1.247 -2.94,3.077c-0,1.831 1.235,3.042 3.018,3.042c0.978,-0 1.818,-0.276 2.477,-0.882l-0.917,-1.008c-0.42,0.355 -0.966,0.559 -1.47,0.559c-0.739,-0 -1.327,-0.367 -1.495,-1.207l4.122,-0c0.018,-0.132 0.03,-0.348 0.03,-0.528c-0.006,-1.812 -1.151,-3.053 -2.825,-3.053Zm-0.012,1.349c0.672,-0 1.122,0.42 1.266,1.165l-2.575,-0c0.138,-0.721 0.57,-1.165 1.309,-1.165Z" style="fill:#004153;fill-rule:nonzero;"/><path d="M186.882,93.379c-1.602,-0 -2.813,1.313 -2.813,3.059c-0,1.747 1.211,3.06 2.813,3.06c0.799,-0 1.363,-0.324 1.741,-0.792l-0,0.642l1.529,-0l0,-8.639l-1.559,-0l-0,3.431c-0.378,-0.455 -0.93,-0.761 -1.711,-0.761Zm0.289,1.457c0.894,-0 1.5,0.684 1.5,1.602c-0,0.919 -0.606,1.603 -1.5,1.603c-0.919,-0 -1.501,-0.715 -1.501,-1.603c0,-0.888 0.582,-1.602 1.501,-1.602Z" style="fill:#004153;fill-rule:nonzero;"/><path d="M19.843,123.435l257.952,0" style="fill:none;fill-rule:nonzero;stroke:#d8d8d8;stroke-width:1px;stroke-dasharray:3.03,2.03;stroke-dashoffset:1.51;"/><path d="M19.843,152.426l257.952,0" style="fill:none;fill-rule:nonzero;stroke:#d8d8d8;stroke-width:1px;stroke-dasharray:3.03,2.03;stroke-dashoffset:1.51;"/><path d="M19.843,181.417l257.952,0" style="fill:none;fill-rule:nonzero;stroke:#d8d8d8;stroke-width:1px;stroke-dasharray:3.03,2.03;stroke-dashoffset:1.51;"/><path d="M27.288,266.029c-1.055,-0.63 -2.033,-0.894 -3.209,-0.894c-1.789,0 -3.348,0.912 -3.348,2.664c-0,1.518 1.079,2.172 2.561,2.406l0.534,0.084c1.171,0.186 1.783,0.402 1.783,0.984c-0,0.648 -0.72,1.014 -1.651,1.014c-1.08,0 -2.07,-0.42 -2.675,-0.906l-0.87,1.35c0.9,0.726 2.267,1.098 3.539,1.098c1.807,-0 3.438,-0.882 3.438,-2.736c0,-1.464 -1.175,-2.106 -2.675,-2.352l-0.474,-0.078c-1.009,-0.168 -1.735,-0.354 -1.735,-0.972c0,-0.636 0.666,-1.008 1.609,-1.008c0.918,-0 1.722,0.306 2.382,0.714l0.791,-1.368Z" style="fill:#004153;fill-rule:nonzero;"/><path d="M30.348,267.865l-1.565,0l-0,5.814l1.565,-0l0,-5.814Zm-0.791,-2.91c-0.564,0 -0.996,0.444 -0.996,1.008c-0,0.564 0.432,0.996 0.996,0.996c0.563,0 1.001,-0.432 1.001,-0.996c0,-0.564 -0.438,-1.008 -1.001,-1.008Z" style="fill:#004153;fill-rule:nonzero;"/><path d="M34.308,267.709c-1.416,0 -2.675,1.182 -2.675,2.97c-0,1.782 1.259,2.964 2.675,2.964c0.805,-0 1.393,-0.3 1.789,-0.786l-0,0.408c-0,1.002 -0.684,1.542 -1.657,1.542c-0.696,0 -1.338,-0.21 -1.92,-0.594l-0.557,1.278c0.653,0.462 1.625,0.702 2.543,0.702c1.921,-0 3.138,-1.128 3.138,-2.994l0,-5.334l-1.535,0l-0,0.648c-0.396,-0.492 -0.99,-0.804 -1.801,-0.804Zm0.397,1.44c0.87,-0 1.458,0.66 1.458,1.53c-0,0.864 -0.588,1.524 -1.458,1.524c-0.895,0 -1.465,-0.684 -1.465,-1.524c0,-0.846 0.57,-1.53 1.465,-1.53Z" style="fill:#004153;fill-rule:nonzero;"/><path d="M42.523,267.709c-0.661,0 -1.297,0.222 -1.711,0.84l0,-0.684l-1.523,0l-0,5.814l1.565,-0l0,-3.186c0,-0.876 0.558,-1.314 1.231,-1.314c0.714,-0 1.134,0.462 1.134,1.302l-0,3.198l1.565,-0l0,-3.702c0,-1.35 -0.941,-2.268 -2.261,-2.268Z" style="fill:#004153;fill-rule:nonzero;"/><path d="M47.946,267.865l-1.565,0l-0,5.814l1.565,-0l0,-5.814Zm-0.791,-2.91c-0.564,0 -0.996,0.444 -0.996,1.008c-0,0.564 0.432,0.996 0.996,0.996c0.563,0 1.001,-0.432 1.001,-0.996c0,-0.564 -0.438,-1.008 -1.001,-1.008Z" style="fill:#004153;fill-rule:nonzero;"/><path d="M53.838,265.327c-0.42,-0.252 -0.942,-0.438 -1.656,-0.438c-1.355,0 -2.081,0.894 -2.081,2.256l-0,0.72l-1.086,0l-0,1.392l1.086,-0l-0,4.422l1.565,-0l0,-4.422l1.806,-0l0,-1.392l-1.806,0l0,-0.702c0,-0.54 0.234,-0.816 0.684,-0.816c0.354,-0 0.678,0.114 0.96,0.264l0.528,-1.284Z" style="fill:#004153;fill-rule:nonzero;"/><path d="M56.25,267.865l-1.565,0l-0,5.814l1.565,-0l0,-5.814Zm-0.791,-2.91c-0.564,0 -0.996,0.444 -0.996,1.008c-0,0.564 0.432,0.996 0.996,0.996c0.563,0 1.001,-0.432 1.001,-0.996c0,-0.564 -0.438,-1.008 -1.001,-1.008Z" style="fill:#004153;fill-rule:nonzero;"/><path d="M60.63,267.709c-1.854,0 -3.095,1.302 -3.095,3.06c-0,1.764 1.241,3.06 3.095,3.06c0.972,-0 1.788,-0.39 2.334,-1.092l-1.116,-0.954c-0.33,0.36 -0.762,0.588 -1.266,0.588c-0.81,0 -1.452,-0.63 -1.452,-1.602c0,-0.966 0.648,-1.602 1.458,-1.602c0.51,-0 0.888,0.204 1.242,0.582l1.128,-0.942c-0.534,-0.702 -1.356,-1.098 -2.328,-1.098Z" style="fill:#004153;fill-rule:nonzero;"/><path d="M69.696,267.865l-1.529,0l-0,0.642c-0.384,-0.474 -0.942,-0.798 -1.741,-0.798c-1.602,0 -2.813,1.314 -2.813,3.06c-0,1.746 1.211,3.06 2.813,3.06c0.799,-0 1.363,-0.324 1.741,-0.792l-0,0.642l1.529,-0l0,-5.814Zm-2.981,1.302c0.894,-0 1.5,0.684 1.5,1.602c-0,0.918 -0.606,1.602 -1.5,1.602c-0.919,0 -1.501,-0.714 -1.501,-1.602c0,-0.888 0.582,-1.602 1.501,-1.602Z" style="fill:#004153;fill-rule:nonzero;"/><path d="M74.575,267.709c-0.661,0 -1.297,0.222 -1.711,0.84l0,-0.684l-1.523,0l-0,5.814l1.565,-0l0,-3.186c0,-0.876 0.558,-1.314 1.231,-1.314c0.714,-0 1.134,0.462 1.134,1.302l-0,3.198l1.565,-0l0,-3.702c0,-1.35 -0.941,-2.268 -2.261,-2.268Z" style="fill:#004153;fill-rule:nonzero;"/><path d="M82.59,267.865l-2.106,0l0,-1.728l-1.565,0l-0,1.728l-1.122,0l-0,1.392l1.122,-0l-0,2.25c-0,1.506 0.738,2.322 2.177,2.322c0.828,-0 1.416,-0.264 1.926,-0.612l-0.576,-1.224c-0.318,0.192 -0.72,0.378 -1.092,0.378c-0.486,0 -0.87,-0.264 -0.87,-0.99l0,-2.124l2.106,-0l0,-1.392Z" style="fill:#004153;fill-rule:nonzero;"/><path d="M92.664,267.865l-1.529,0l-0,0.642c-0.384,-0.474 -0.942,-0.798 -1.741,-0.798c-1.602,0 -2.813,1.314 -2.813,3.06c-0,1.746 1.211,3.06 2.813,3.06c0.799,-0 1.363,-0.324 1.741,-0.792l-0,0.642l1.529,-0l0,-5.814Zm-2.981,1.302c0.894,-0 1.5,0.684 1.5,1.602c-0,0.918 -0.606,1.602 -1.5,1.602c-0.919,0 -1.501,-0.714 -1.501,-1.602c0,-0.888 0.582,-1.602 1.501,-1.602Z" style="fill:#004153;fill-rule:nonzero;"/><path d="M97.464,267.709c-0.714,0 -1.272,0.246 -1.638,0.792l0,-0.636l-1.517,0l-0,5.814l1.565,-0l0,-3.168c0,-0.864 0.498,-1.308 1.224,-1.308c0.318,-0 0.69,0.072 0.948,0.186l0.234,-1.554c-0.216,-0.078 -0.48,-0.126 -0.816,-0.126Z" style="fill:#004153;fill-rule:nonzero;"/><path d="M101.886,267.709c-1.854,0 -3.095,1.302 -3.095,3.06c-0,1.764 1.241,3.06 3.095,3.06c0.972,-0 1.788,-0.39 2.334,-1.092l-1.116,-0.954c-0.33,0.36 -0.762,0.588 -1.266,0.588c-0.81,0 -1.452,-0.63 -1.452,-1.602c0,-0.966 0.648,-1.602 1.458,-1.602c0.51,-0 0.888,0.204 1.242,0.582l1.128,-0.942c-0.534,-0.702 -1.356,-1.098 -2.328,-1.098Z" style="fill:#004153;fill-rule:nonzero;"/><path d="M106.914,265.033l-1.565,0l-0,8.646l1.565,-0l0,-3.186c0,-0.876 0.558,-1.314 1.231,-1.314c0.714,-0 1.134,0.462 1.134,1.302l-0,3.198l1.565,-0l0,-3.702c0,-1.35 -0.941,-2.268 -2.261,-2.268c-0.637,0 -1.255,0.204 -1.669,0.78l0,-3.456Z" style="fill:#004153;fill-rule:nonzero;"/><path d="M114.006,267.865l-1.565,0l-0,5.814l1.565,-0l0,-5.814Zm-0.791,-2.91c-0.564,0 -0.996,0.444 -0.996,1.008c-0,0.564 0.432,0.996 0.996,0.996c0.563,0 1.001,-0.432 1.001,-0.996c0,-0.564 -0.438,-1.008 -1.001,-1.008Z" style="fill:#004153;fill-rule:nonzero;"/><path d="M119.868,267.865l-2.106,0l0,-1.728l-1.565,0l-0,1.728l-1.122,0l-0,1.392l1.122,-0l-0,2.25c-0,1.506 0.738,2.322 2.177,2.322c0.828,-0 1.416,-0.264 1.926,-0.612l-0.576,-1.224c-0.318,0.192 -0.72,0.378 -1.092,0.378c-0.486,0 -0.87,-0.264 -0.87,-0.99l0,-2.124l2.106,-0l0,-1.392Z" style="fill:#004153;fill-rule:nonzero;"/><path d="M123.757,267.709c-1.741,0 -2.94,1.248 -2.94,3.078c-0,1.83 1.235,3.042 3.018,3.042c0.978,-0 1.818,-0.276 2.477,-0.882l-0.917,-1.008c-0.42,0.354 -0.966,0.558 -1.47,0.558c-0.739,0 -1.327,-0.366 -1.495,-1.206l4.122,-0c0.018,-0.132 0.03,-0.348 0.03,-0.528c-0.006,-1.812 -1.151,-3.054 -2.825,-3.054Zm-0.012,1.35c0.672,-0 1.122,0.42 1.266,1.164l-2.575,0c0.138,-0.72 0.57,-1.164 1.309,-1.164Z" style="fill:#004153;fill-rule:nonzero;"/><path d="M130.596,267.709c-1.854,0 -3.095,1.302 -3.095,3.06c-0,1.764 1.241,3.06 3.095,3.06c0.972,-0 1.788,-0.39 2.334,-1.092l-1.116,-0.954c-0.33,0.36 -0.762,0.588 -1.266,0.588c-0.81,0 -1.452,-0.63 -1.452,-1.602c0,-0.966 0.648,-1.602 1.458,-1.602c0.51,-0 0.888,0.204 1.242,0.582l1.128,-0.942c-0.534,-0.702 -1.356,-1.098 -2.328,-1.098Z" style="fill:#004153;fill-rule:nonzero;"/><path d="M138.336,267.865l-2.106,0l0,-1.728l-1.565,0l-0,1.728l-1.122,0l-0,1.392l1.122,-0l-0,2.25c-0,1.506 0.738,2.322 2.177,2.322c0.828,-0 1.416,-0.264 1.926,-0.612l-0.576,-1.224c-0.318,0.192 -0.72,0.378 -1.092,0.378c-0.486,0 -0.87,-0.264 -0.87,-0.99l0,-2.124l2.106,-0l0,-1.392Z" style="fill:#004153;fill-rule:nonzero;"/><path d="M145.116,267.865l-1.559,0l-0,3.198c-0,0.93 -0.516,1.308 -1.188,1.308c-0.679,0 -1.189,-0.378 -1.189,-1.308l0,-3.198l-1.565,0l-0,3.336c-0,1.836 1.295,2.628 2.754,2.628c1.452,-0 2.747,-0.792 2.747,-2.628l0,-3.336Z" style="fill:#004153;fill-rule:nonzero;"/><path d="M149.868,267.709c-0.714,0 -1.272,0.246 -1.638,0.792l0,-0.636l-1.517,0l-0,5.814l1.565,-0l0,-3.168c0,-0.864 0.498,-1.308 1.224,-1.308c0.318,-0 0.69,0.072 0.948,0.186l0.234,-1.554c-0.216,-0.078 -0.48,-0.126 -0.816,-0.126Z" style="fill:#004153;fill-rule:nonzero;"/><path d="M157.278,267.865l-1.529,0l-0,0.642c-0.384,-0.474 -0.942,-0.798 -1.741,-0.798c-1.602,0 -2.813,1.314 -2.813,3.06c-0,1.746 1.211,3.06 2.813,3.06c0.799,-0 1.363,-0.324 1.741,-0.792l-0,0.642l1.529,-0l0,-5.814Zm-2.981,1.302c0.894,-0 1.5,0.684 1.5,1.602c-0,0.918 -0.606,1.602 -1.5,1.602c-0.919,0 -1.501,-0.714 -1.501,-1.602c0,-0.888 0.582,-1.602 1.501,-1.602Z" style="fill:#004153;fill-rule:nonzero;"/><rect x="158.923" y="265.039" width="1.565" height="8.639" style="fill:#004153;fill-rule:nonzero;"/><path d="M167.556,267.709c-1.602,0 -2.813,1.314 -2.813,3.06c-0,1.746 1.211,3.06 2.813,3.06c0.799,-0 1.363,-0.324 1.741,-0.792l-0,0.642l1.529,-0l0,-8.64l-1.559,0l-0,3.432c-0.378,-0.456 -0.93,-0.762 -1.711,-0.762Zm0.289,1.458c0.894,-0 1.5,0.684 1.5,1.602c-0,0.918 -0.606,1.602 -1.5,1.602c-0.919,0 -1.501,-0.714 -1.501,-1.602c0,-0.888 0.582,-1.602 1.501,-1.602Z" style="fill:#004153;fill-rule:nonzero;"/><path d="M175.051,267.709c-1.741,0 -2.94,1.248 -2.94,3.078c-0,1.83 1.235,3.042 3.018,3.042c0.978,-0 1.818,-0.276 2.477,-0.882l-0.917,-1.008c-0.42,0.354 -0.966,0.558 -1.47,0.558c-0.739,0 -1.327,-0.366 -1.495,-1.206l4.122,-0c0.018,-0.132 0.03,-0.348 0.03,-0.528c-0.006,-1.812 -1.151,-3.054 -2.825,-3.054Zm-0.012,1.35c0.672,-0 1.122,0.42 1.266,1.164l-2.575,0c0.138,-0.72 0.57,-1.164 1.309,-1.164Z" style="fill:#004153;fill-rule:nonzero;"/><path d="M181.89,267.709c-1.854,0 -3.095,1.302 -3.095,3.06c-0,1.764 1.241,3.06 3.095,3.06c0.972,-0 1.788,-0.39 2.334,-1.092l-1.116,-0.954c-0.33,0.36 -0.762,0.588 -1.266,0.588c-0.81,0 -1.452,-0.63 -1.452,-1.602c0,-0.966 0.648,-1.602 1.458,-1.602c0.51,-0 0.888,0.204 1.242,0.582l1.128,-0.942c-0.534,-0.702 -1.356,-1.098 -2.328,-1.098Z" style="fill:#004153;fill-rule:nonzero;"/><path d="M186.918,267.865l-1.565,0l-0,5.814l1.565,-0l0,-5.814Zm-0.791,-2.91c-0.564,0 -0.996,0.444 -0.996,1.008c-0,0.564 0.432,0.996 0.996,0.996c0.563,0 1.001,-0.432 1.001,-0.996c0,-0.564 -0.438,-1.008 -1.001,-1.008Z" style="fill:#004153;fill-rule:nonzero;"/><path d="M193.26,268.267c-0.773,-0.378 -1.499,-0.552 -2.43,-0.552c-1.53,0 -2.453,0.708 -2.453,1.902c-0,0.99 0.666,1.578 2.009,1.764l0.475,0.066c0.672,0.096 0.966,0.252 0.966,0.534c-0,0.342 -0.348,0.546 -1.075,0.546c-0.876,0 -1.482,-0.24 -1.979,-0.57l-0.618,1.188c0.756,0.534 1.793,0.684 2.585,0.684c1.687,-0 2.67,-0.774 2.67,-1.974c0,-0.984 -0.702,-1.548 -1.961,-1.74l-0.516,-0.078c-0.529,-0.078 -0.949,-0.162 -0.949,-0.498c0,-0.318 0.3,-0.528 0.895,-0.528c0.654,0.006 1.392,0.246 1.853,0.474l0.528,-1.218Z" style="fill:#004153;fill-rule:nonzero;"/><path d="M196.212,267.865l-1.565,0l-0,5.814l1.565,-0l0,-5.814Zm-0.791,-2.91c-0.564,0 -0.996,0.444 -0.996,1.008c-0,0.564 0.432,0.996 0.996,0.996c0.563,0 1.001,-0.432 1.001,-0.996c0,-0.564 -0.438,-1.008 -1.001,-1.008Z" style="fill:#004153;fill-rule:nonzero;"/><path d="M200.635,267.709c-1.807,0 -3.138,1.308 -3.138,3.06c-0,1.752 1.331,3.06 3.138,3.06c1.812,-0 3.149,-1.308 3.149,-3.06c0,-1.752 -1.337,-3.06 -3.149,-3.06Zm-0,1.458c0.882,-0 1.548,0.66 1.548,1.602c-0,0.942 -0.666,1.602 -1.548,1.602c-0.883,0 -1.543,-0.66 -1.543,-1.602c0,-0.942 0.66,-1.602 1.543,-1.602Z" style="fill:#004153;fill-rule:nonzero;"/><path d="M208.297,267.709c-0.661,0 -1.297,0.222 -1.711,0.84l0,-0.684l-1.523,0l-0,5.814l1.565,-0l0,-3.186c0,-0.876 0.558,-1.314 1.231,-1.314c0.714,-0 1.134,0.462 1.134,1.302l-0,3.198l1.565,-0l0,-3.702c0,-1.35 -0.941,-2.268 -2.261,-2.268Z" style="fill:#004153;fill-rule:nonzero;"/><path d="M216.852,268.267c-0.773,-0.378 -1.499,-0.552 -2.43,-0.552c-1.53,0 -2.453,0.708 -2.453,1.902c-0,0.99 0.666,1.578 2.009,1.764l0.475,0.066c0.672,0.096 0.966,0.252 0.966,0.534c-0,0.342 -0.348,0.546 -1.075,0.546c-0.876,0 -1.482,-0.24 -1.979,-0.57l-0.618,1.188c0.756,0.534 1.793,0.684 2.585,0.684c1.687,-0 2.67,-0.774 2.67,-1.974c0,-0.984 -0.702,-1.548 -1.961,-1.74l-0.516,-0.078c-0.529,-0.078 -0.949,-0.162 -0.949,-0.498c0,-0.318 0.3,-0.528 0.895,-0.528c0.654,0.006 1.392,0.246 1.853,0.474l0.528,-1.218Z" style="fill:#004153;fill-rule:nonzero;"/><path d="M219.085,267.709c-0.624,0 -1.17,0.534 -1.17,1.158c-0,0.63 0.546,1.17 1.17,1.17c0.617,-0 1.157,-0.54 1.157,-1.17c0,-0.624 -0.54,-1.158 -1.157,-1.158Zm-0,3.792c-0.624,0 -1.17,0.534 -1.17,1.158c-0,0.63 0.546,1.17 1.17,1.17c0.617,-0 1.157,-0.54 1.157,-1.17c0,-0.624 -0.54,-1.158 -1.157,-1.158Z" style="fill:#004153;fill-rule:nonzero;"/><path d="M19.843,303.634l257.952,-0" style="fill:none;fill-rule:nonzero;stroke:#d8d8d8;stroke-width:1px;stroke-dasharray:3.03,2.03;stroke-dashoffset:1.51;"/><path d="M19.843,333.589l257.952,-0" style="fill:none;fill-rule:nonzero;stroke:#d8d8d8;stroke-width:1px;stroke-dasharray:3.03,2.03;stroke-dashoffset:1.51;"/><path d="M19.843,363.543l257.952,0" style="fill:none;fill-rule:nonzero;stroke:#d8d8d8;stroke-width:1px;stroke-dasharray:3.03,2.03;stroke-dashoffset:1.51;"/><g transform="matrix(1,0,0,1,148.819,245.906)"><g transform="matrix(12,0,0,12,-128.976,-37.4234)"><path d="M0.589,-0.7l-0.573,0l0,0.13l0.217,0l0,0.57l0.139,-0l0,-0.57l0.217,0l0,-0.13Z" style="fill:#004153;fill-rule:nonzero;"/></g><g transform="matrix(12,0,0,12,-122.694,-37.4234)"><path d="M0.3,-0.497c-0.151,-0 -0.261,0.108 -0.261,0.255c-0,0.146 0.11,0.254 0.261,0.254c0.151,0 0.262,-0.108 0.262,-0.254c0,-0.147 -0.111,-0.255 -0.262,-0.255Zm0,0.121c0.074,-0 0.129,0.055 0.129,0.134c0,0.078 -0.055,0.133 -0.129,0.133c-0.074,0 -0.129,-0.055 -0.129,-0.133c0,-0.079 0.055,-0.134 0.129,-0.134Z" style="fill:#004153;fill-rule:nonzero;"/></g><g transform="matrix(12,0,0,12,-115.488,-37.4234)"><path d="M0.341,-0.497c-0.067,-0 -0.114,0.027 -0.145,0.066l-0,-0.053l-0.127,-0l-0,0.684l0.129,-0l0,-0.25c0.032,0.037 0.078,0.062 0.143,0.062c0.134,0 0.234,-0.109 0.234,-0.254c0,-0.146 -0.1,-0.255 -0.234,-0.255Zm-0.025,0.121c0.078,-0 0.126,0.059 0.126,0.134c-0,0.074 -0.048,0.133 -0.126,0.133c-0.074,0 -0.124,-0.057 -0.124,-0.133c-0,-0.077 0.05,-0.134 0.124,-0.134Z" style="fill:#004153;fill-rule:nonzero;"/></g><g transform="matrix(12,0,0,12,-105.156,-37.4234)"><path d="M0.265,-0.712c-0.111,-0 -0.187,0.046 -0.233,0.108l0.085,0.085c0.028,-0.037 0.076,-0.071 0.141,-0.071c0.065,0 0.116,0.031 0.116,0.088c0,0.059 -0.054,0.089 -0.122,0.089l-0.082,0l-0,0.12l0.081,-0c0.076,-0 0.137,0.031 0.137,0.092c0,0.061 -0.054,0.091 -0.122,0.091c-0.06,-0 -0.119,-0.025 -0.159,-0.067l-0.081,0.088c0.053,0.064 0.14,0.101 0.245,0.101c0.132,0 0.257,-0.066 0.257,-0.204c0,-0.076 -0.046,-0.132 -0.119,-0.161c0.064,-0.03 0.104,-0.084 0.104,-0.159c-0,-0.121 -0.1,-0.2 -0.248,-0.2Z" style="fill:#004153;fill-rule:nonzero;"/></g><g transform="matrix(12,0,0,12,-95.3224,-37.4234)"><path d="M0.273,-0.497c-0.134,-0 -0.234,0.109 -0.234,0.255c-0,0.145 0.1,0.254 0.234,0.254c0.065,0 0.111,-0.025 0.143,-0.062l-0,0.25l0.129,-0l0,-0.684l-0.127,-0l0,0.053c-0.032,-0.039 -0.078,-0.066 -0.145,-0.066Zm0.024,0.121c0.075,-0 0.125,0.057 0.125,0.134c0,0.076 -0.05,0.133 -0.125,0.133c-0.077,0 -0.125,-0.059 -0.125,-0.133c-0,-0.075 0.048,-0.134 0.125,-0.134Z" style="fill:#004153;fill-rule:nonzero;"/></g><g transform="matrix(12,0,0,12,-87.9544,-37.4234)"><path d="M0.523,-0.484l-0.13,-0l0,0.266c0,0.078 -0.043,0.109 -0.099,0.109c-0.057,0 -0.099,-0.031 -0.099,-0.109l-0,-0.266l-0.13,-0l-0,0.278c-0,0.153 0.107,0.218 0.229,0.218c0.121,0 0.229,-0.065 0.229,-0.218l-0,-0.278Z" style="fill:#004153;fill-rule:nonzero;"/></g><g transform="matrix(12,0,0,12,-80.9044,-37.4234)"><path d="M0.545,-0.484l-0.127,-0l0,0.053c-0.032,-0.039 -0.078,-0.066 -0.145,-0.066c-0.134,-0 -0.234,0.109 -0.234,0.255c-0,0.145 0.1,0.254 0.234,0.254c0.067,0 0.114,-0.027 0.145,-0.065l0,0.053l0.127,-0l0,-0.484Zm-0.248,0.108c0.075,-0 0.125,0.057 0.125,0.134c0,0.076 -0.05,0.133 -0.125,0.133c-0.077,0 -0.125,-0.059 -0.125,-0.133c-0,-0.075 0.048,-0.134 0.125,-0.134Z" style="fill:#004153;fill-rule:nonzero;"/></g><g transform="matrix(12,0,0,12,-73.5364,-37.4234)"><rect x="0.069" y="-0.72" width="0.13" height="0.72" style="fill:#004153;fill-rule:nonzero;"/></g><g transform="matrix(12,0,0,12,-70.3264,-37.4234)"><path d="M0.199,-0.484l-0.13,-0l-0,0.484l0.13,-0l-0,-0.484Zm-0.066,-0.243c-0.047,0 -0.083,0.037 -0.083,0.084c0,0.047 0.036,0.083 0.083,0.083c0.047,0 0.083,-0.036 0.083,-0.083c0,-0.047 -0.036,-0.084 -0.083,-0.084Z" style="fill:#004153;fill-rule:nonzero;"/></g><g transform="matrix(12,0,0,12,-67.1164,-37.4234)"><path d="M0.42,-0.484l-0.176,-0l0,-0.144l-0.13,-0l0,0.144l-0.093,-0l-0,0.115l0.093,0l0,0.188c0,0.126 0.062,0.193 0.181,0.193c0.069,0 0.118,-0.022 0.161,-0.051l-0.048,-0.101c-0.027,0.016 -0.06,0.031 -0.091,0.031c-0.041,0 -0.073,-0.022 -0.073,-0.082l0,-0.178l0.176,0l-0,-0.115Z" style="fill:#004153;fill-rule:nonzero;"/></g><g transform="matrix(12,0,0,12,-61.5004,-37.4234)"><path d="M0.56,-0.484l-0.144,-0l-0.129,0.249l-0.133,-0.249l-0.148,-0l0.209,0.381l-0.169,0.305l0.143,-0l0.37,-0.686Z" style="fill:#004153;fill-rule:nonzero;"/></g><g transform="matrix(12,0,0,12,-51.9784,-37.4234)"><path d="M0.261,-0.497c-0.118,-0 -0.222,0.098 -0.222,0.247c-0,0.149 0.104,0.247 0.222,0.247c0.068,-0 0.117,-0.025 0.15,-0.065l-0,0.033c-0,0.084 -0.057,0.129 -0.139,0.129c-0.058,0 -0.111,-0.017 -0.16,-0.05l-0.046,0.107c0.054,0.038 0.135,0.058 0.212,0.058c0.16,0 0.261,-0.093 0.261,-0.249l0,-0.444l-0.127,-0l-0,0.054c-0.033,-0.041 -0.083,-0.067 -0.151,-0.067Zm0.034,0.119c0.072,0 0.121,0.055 0.121,0.128c0,0.072 -0.049,0.127 -0.121,0.127c-0.075,0 -0.123,-0.057 -0.123,-0.127c0,-0.071 0.048,-0.128 0.123,-0.128Z" style="fill:#004153;fill-rule:nonzero;"/></g><g transform="matrix(12,0,0,12,-44.6824,-37.4234)"><path d="M0.3,-0.497c-0.151,-0 -0.261,0.108 -0.261,0.255c-0,0.146 0.11,0.254 0.261,0.254c0.151,0 0.262,-0.108 0.262,-0.254c0,-0.147 -0.111,-0.255 -0.262,-0.255Zm0,0.121c0.074,-0 0.129,0.055 0.129,0.134c0,0.078 -0.055,0.133 -0.129,0.133c-0.074,0 -0.129,-0.055 -0.129,-0.133c0,-0.079 0.055,-0.134 0.129,-0.134Z" style="fill:#004153;fill-rule:nonzero;"/></g><g transform="matrix(12,0,0,12,-37.4764,-37.4234)"><path d="M0.545,-0.484l-0.127,-0l0,0.053c-0.032,-0.039 -0.078,-0.066 -0.145,-0.066c-0.134,-0 -0.234,0.109 -0.234,0.255c-0,0.145 0.1,0.254 0.234,0.254c0.067,0 0.114,-0.027 0.145,-0.065l0,0.053l0.127,-0l0,-0.484Zm-0.248,0.108c0.075,-0 0.125,0.057 0.125,0.134c0,0.076 -0.05,0.133 -0.125,0.133c-0.077,0 -0.125,-0.059 -0.125,-0.133c-0,-0.075 0.048,-0.134 0.125,-0.134Z" style="fill:#004153;fill-rule:nonzero;"/></g><g transform="matrix(12,0,0,12,-30.1084,-37.4234)"><rect x="0.069" y="-0.72" width="0.13" height="0.72" style="fill:#004153;fill-rule:nonzero;"/></g><g transform="matrix(12,0,0,12,-26.8984,-37.4234)"><path d="M0.46,-0.451c-0.064,-0.031 -0.125,-0.046 -0.203,-0.046c-0.127,0 -0.204,0.059 -0.204,0.158c0,0.083 0.056,0.132 0.167,0.148l0.04,0.005c0.056,0.008 0.081,0.021 0.081,0.045c-0,0.028 -0.029,0.045 -0.09,0.045c-0.073,0 -0.124,-0.02 -0.165,-0.047l-0.051,0.099c0.063,0.044 0.149,0.056 0.215,0.056c0.141,0 0.222,-0.064 0.222,-0.164c0,-0.082 -0.058,-0.129 -0.163,-0.145l-0.043,-0.007c-0.044,-0.006 -0.079,-0.013 -0.079,-0.041c-0,-0.027 0.025,-0.044 0.074,-0.044c0.055,0 0.117,0.02 0.155,0.039l0.044,-0.101Z" style="fill:#004153;fill-rule:nonzero;"/></g><g transform="matrix(12,0,0,12,-17.8444,-37.4234)"><path d="M0.348,-0.724c-0.174,0.068 -0.293,0.234 -0.293,0.44c0,0.206 0.119,0.372 0.293,0.44l0.042,-0.116c-0.13,-0.061 -0.198,-0.184 -0.198,-0.324c0,-0.14 0.068,-0.263 0.198,-0.324l-0.042,-0.116Z" style="fill:#004153;fill-rule:nonzero;"/></g><g transform="matrix(12,0,0,12,-13.2604,-37.4234)"><path d="M0.3,-0.497c-0.151,-0 -0.261,0.108 -0.261,0.255c-0,0.146 0.11,0.254 0.261,0.254c0.151,0 0.262,-0.108 0.262,-0.254c0,-0.147 -0.111,-0.255 -0.262,-0.255Zm0,0.121c0.074,-0 0.129,0.055 0.129,0.134c0,0.078 -0.055,0.133 -0.129,0.133c-0.074,0 -0.129,-0.055 -0.129,-0.133c0,-0.079 0.055,-0.134 0.129,-0.134Z" style="fill:#004153;fill-rule:nonzero;"/></g><g transform="matrix(12,0,0,12,-6.05438,-37.4234)"><path d="M0.331,-0.497c-0.059,-0 -0.106,0.02 -0.136,0.065l-0,-0.052l-0.126,-0l-0,0.484l0.13,-0l-0,-0.264c-0,-0.072 0.041,-0.109 0.102,-0.109c0.026,-0 0.057,0.006 0.079,0.015l0.019,-0.129c-0.018,-0.006 -0.04,-0.01 -0.068,-0.01Z" style="fill:#004153;fill-rule:nonzero;"/></g><g transform="matrix(12,0,0,12,-1.21238,-37.4234)"><path d="M0.273,-0.497c-0.134,-0 -0.234,0.109 -0.234,0.255c-0,0.145 0.1,0.254 0.234,0.254c0.067,0 0.114,-0.027 0.145,-0.065l0,0.053l0.127,-0l0,-0.72l-0.129,0l-0,0.286c-0.032,-0.038 -0.078,-0.063 -0.143,-0.063Zm0.024,0.121c0.075,-0 0.125,0.057 0.125,0.133c0,0.077 -0.05,0.134 -0.125,0.134c-0.077,0 -0.125,-0.059 -0.125,-0.133c-0,-0.075 0.048,-0.134 0.125,-0.134Z" style="fill:#004153;fill-rule:nonzero;"/></g><g transform="matrix(12,0,0,12,6.15562,-37.4234)"><path d="M0.284,-0.497c-0.146,-0 -0.245,0.103 -0.245,0.256c-0,0.153 0.102,0.253 0.251,0.253c0.082,0 0.152,-0.023 0.206,-0.073l-0.076,-0.084c-0.035,0.03 -0.08,0.047 -0.122,0.047c-0.062,-0 -0.111,-0.031 -0.125,-0.101l0.343,-0c0.002,-0.011 0.003,-0.029 0.003,-0.044c-0.001,-0.151 -0.096,-0.254 -0.235,-0.254Zm-0.001,0.112c0.056,-0 0.093,0.035 0.105,0.097l-0.215,0c0.012,-0.06 0.048,-0.097 0.11,-0.097Z" style="fill:#004153;fill-rule:nonzero;"/></g><g transform="matrix(12,0,0,12,12.8396,-37.4234)"><path d="M0.331,-0.497c-0.059,-0 -0.106,0.02 -0.136,0.065l-0,-0.052l-0.126,-0l-0,0.484l0.13,-0l-0,-0.264c-0,-0.072 0.041,-0.109 0.102,-0.109c0.026,-0 0.057,0.006 0.079,0.015l0.019,-0.129c-0.018,-0.006 -0.04,-0.01 -0.068,-0.01Z" style="fill:#004153;fill-rule:nonzero;"/></g><g transform="matrix(12,0,0,12,17.6816,-37.4234)"><path d="M0.284,-0.497c-0.146,-0 -0.245,0.103 -0.245,0.256c-0,0.153 0.102,0.253 0.251,0.253c0.082,0 0.152,-0.023 0.206,-0.073l-0.076,-0.084c-0.035,0.03 -0.08,0.047 -0.122,0.047c-0.062,-0 -0.111,-0.031 -0.125,-0.101l0.343,-0c0.002,-0.011 0.003,-0.029 0.003,-0.044c-0.001,-0.151 -0.096,-0.254 -0.235,-0.254Zm-0.001,0.112c0.056,-0 0.093,0.035 0.105,0.097l-0.215,0c0.012,-0.06 0.048,-0.097 0.11,-0.097Z" style="fill:#004153;fill-rule:nonzero;"/></g><g transform="matrix(12,0,0,12,24.3656,-37.4234)"><path d="M0.273,-0.497c-0.134,-0 -0.234,0.109 -0.234,0.255c-0,0.145 0.1,0.254 0.234,0.254c0.067,0 0.114,-0.027 0.145,-0.065l0,0.053l0.127,-0l0,-0.72l-0.129,0l-0,0.286c-0.032,-0.038 -0.078,-0.063 -0.143,-0.063Zm0.024,0.121c0.075,-0 0.125,0.057 0.125,0.133c0,0.077 -0.05,0.134 -0.125,0.134c-0.077,0 -0.125,-0.059 -0.125,-0.133c-0,-0.075 0.048,-0.134 0.125,-0.134Z" style="fill:#004153;fill-rule:nonzero;"/></g><g transform="matrix(12,0,0,12,34.7036,-37.4234)"><path d="M0.341,-0.497c-0.066,-0 -0.111,0.025 -0.143,0.063l0,-0.286l-0.129,0l-0,0.72l0.127,-0l-0,-0.054c0.031,0.039 0.078,0.066 0.145,0.066c0.134,0 0.234,-0.109 0.234,-0.254c0,-0.146 -0.1,-0.255 -0.234,-0.255Zm-0.025,0.121c0.078,-0 0.126,0.059 0.126,0.134c-0,0.074 -0.048,0.133 -0.126,0.133c-0.074,0 -0.124,-0.057 -0.124,-0.133c-0,-0.077 0.05,-0.134 0.124,-0.134Z" style="fill:#004153;fill-rule:nonzero;"/></g><g transform="matrix(12,0,0,12,41.7596,-37.4234)"><path d="M0.56,-0.484l-0.144,-0l-0.129,0.249l-0.133,-0.249l-0.148,-0l0.209,0.381l-0.169,0.305l0.143,-0l0.37,-0.686Z" style="fill:#004153;fill-rule:nonzero;"/></g><g transform="matrix(12,0,0,12,51.2816,-37.4234)"><path d="M0.199,-0.484l-0.13,-0l-0,0.484l0.13,-0l-0,-0.484Zm-0.066,-0.243c-0.047,0 -0.083,0.037 -0.083,0.084c0,0.047 0.036,0.083 0.083,0.083c0.047,0 0.083,-0.036 0.083,-0.083c0,-0.047 -0.036,-0.084 -0.083,-0.084Z" style="fill:#004153;fill-rule:nonzero;"/></g><g transform="matrix(12,0,0,12,54.4916,-37.4234)"><path d="M0.663,-0.497c-0.064,-0 -0.128,0.021 -0.165,0.082c-0.033,-0.051 -0.09,-0.082 -0.16,-0.082c-0.055,-0 -0.108,0.018 -0.143,0.069l0,-0.056l-0.126,-0l-0,0.484l0.13,-0l-0,-0.265c-0,-0.074 0.046,-0.11 0.103,-0.11c0.059,-0 0.094,0.038 0.094,0.108l0,0.267l0.13,-0l0,-0.266c0,-0.073 0.047,-0.109 0.103,-0.109c0.059,-0 0.095,0.038 0.095,0.108l-0,0.267l0.129,-0l0,-0.309c0,-0.112 -0.076,-0.188 -0.19,-0.188Z" style="fill:#004153;fill-rule:nonzero;"/></g><g transform="matrix(12,0,0,12,65.5076,-37.4234)"><path d="M0.341,-0.497c-0.067,-0 -0.114,0.027 -0.145,0.066l-0,-0.053l-0.127,-0l-0,0.684l0.129,-0l0,-0.25c0.032,0.037 0.078,0.062 0.143,0.062c0.134,0 0.234,-0.109 0.234,-0.254c0,-0.146 -0.1,-0.255 -0.234,-0.255Zm-0.025,0.121c0.078,-0 0.126,0.059 0.126,0.134c-0,0.074 -0.048,0.133 -0.126,0.133c-0.074,0 -0.124,-0.057 -0.124,-0.133c-0,-0.077 0.05,-0.134 0.124,-0.134Z" style="fill:#004153;fill-rule:nonzero;"/></g><g transform="matrix(12,0,0,12,72.8696,-37.4234)"><path d="M0.3,-0.497c-0.151,-0 -0.261,0.108 -0.261,0.255c-0,0.146 0.11,0.254 0.261,0.254c0.151,0 0.262,-0.108 0.262,-0.254c0,-0.147 -0.111,-0.255 -0.262,-0.255Zm0,0.121c0.074,-0 0.129,0.055 0.129,0.134c0,0.078 -0.055,0.133 -0.129,0.133c-0.074,0 -0.129,-0.055 -0.129,-0.133c0,-0.079 0.055,-0.134 0.129,-0.134Z" style="fill:#004153;fill-rule:nonzero;"/></g><g transform="matrix(12,0,0,12,80.0756,-37.4234)"><path d="M0.331,-0.497c-0.059,-0 -0.106,0.02 -0.136,0.065l-0,-0.052l-0.126,-0l-0,0.484l0.13,-0l-0,-0.264c-0,-0.072 0.041,-0.109 0.102,-0.109c0.026,-0 0.057,0.006 0.079,0.015l0.019,-0.129c-0.018,-0.006 -0.04,-0.01 -0.068,-0.01Z" style="fill:#004153;fill-rule:nonzero;"/></g><g transform="matrix(12,0,0,12,85.2356,-37.4234)"><path d="M0.42,-0.484l-0.176,-0l0,-0.144l-0.13,-0l0,0.144l-0.093,-0l-0,0.115l0.093,0l0,0.188c0,0.126 0.062,0.193 0.181,0.193c0.069,0 0.118,-0.022 0.161,-0.051l-0.048,-0.101c-0.027,0.016 -0.06,0.031 -0.091,0.031c-0.041,0 -0.073,-0.022 -0.073,-0.082l0,-0.178l0.176,0l-0,-0.115Z" style="fill:#004153;fill-rule:nonzero;"/></g><g transform="matrix(12,0,0,12,90.7616,-37.4234)"><path d="M0.545,-0.484l-0.127,-0l0,0.053c-0.032,-0.039 -0.078,-0.066 -0.145,-0.066c-0.134,-0 -0.234,0.109 -0.234,0.255c-0,0.145 0.1,0.254 0.234,0.254c0.067,0 0.114,-0.027 0.145,-0.065l0,0.053l0.127,-0l0,-0.484Zm-0.248,0.108c0.075,-0 0.125,0.057 0.125,0.134c0,0.076 -0.05,0.133 -0.125,0.133c-0.077,0 -0.125,-0.059 -0.125,-0.133c-0,-0.075 0.048,-0.134 0.125,-0.134Z" style="fill:#004153;fill-rule:nonzero;"/></g><g transform="matrix(12,0,0,12,98.1296,-37.4234)"><path d="M0.338,-0.497c-0.055,-0 -0.108,0.018 -0.143,0.069l0,-0.056l-0.126,-0l-0,0.484l0.13,-0l-0,-0.265c-0,-0.074 0.046,-0.11 0.103,-0.11c0.059,-0 0.094,0.038 0.094,0.108l0,0.267l0.13,-0l0,-0.309c0,-0.112 -0.078,-0.188 -0.188,-0.188Z" style="fill:#004153;fill-rule:nonzero;"/></g><g transform="matrix(12,0,0,12,105.222,-37.4234)"><path d="M0.296,-0.497c-0.154,-0 -0.257,0.108 -0.257,0.255c-0,0.147 0.103,0.254 0.257,0.254c0.081,0 0.149,-0.032 0.195,-0.09l-0.093,-0.08c-0.028,0.03 -0.064,0.049 -0.106,0.049c-0.067,0 -0.121,-0.052 -0.121,-0.133c0,-0.081 0.054,-0.134 0.122,-0.134c0.042,-0 0.074,0.017 0.103,0.048l0.094,-0.078c-0.044,-0.058 -0.113,-0.091 -0.194,-0.091Z" style="fill:#004153;fill-rule:nonzero;"/></g><g transform="matrix(12,0,0,12,111.3,-37.4234)"><path d="M0.284,-0.497c-0.146,-0 -0.245,0.103 -0.245,0.256c-0,0.153 0.102,0.253 0.251,0.253c0.082,0 0.152,-0.023 0.206,-0.073l-0.076,-0.084c-0.035,0.03 -0.08,0.047 -0.122,0.047c-0.062,-0 -0.111,-0.031 -0.125,-0.101l0.343,-0c0.002,-0.011 0.003,-0.029 0.003,-0.044c-0.001,-0.151 -0.096,-0.254 -0.235,-0.254Zm-0.001,0.112c0.056,-0 0.093,0.035 0.105,0.097l-0.215,0c0.012,-0.06 0.048,-0.097 0.11,-0.097Z" style="fill:#004153;fill-rule:nonzero;"/></g><g transform="matrix(12,0,0,12,117.504,-37.4234)"><path d="M0.074,0.156c0.174,-0.068 0.293,-0.235 0.293,-0.44c-0,-0.206 -0.119,-0.373 -0.293,-0.441l-0.042,0.117c0.13,0.061 0.198,0.184 0.198,0.324c-0,0.139 -0.068,0.262 -0.198,0.323l0.042,0.117Z" style="fill:#004153;fill-rule:nonzero;"/></g><g transform="matrix(12,0,0,12,122.568,-37.4234)"><path d="M0.139,-0.497c-0.052,-0 -0.097,0.044 -0.097,0.096c-0,0.052 0.045,0.097 0.097,0.097c0.051,0 0.096,-0.045 0.096,-0.097c0,-0.052 -0.045,-0.096 -0.096,-0.096Zm0,0.316c-0.052,-0 -0.097,0.044 -0.097,0.096c-0,0.052 0.045,0.097 0.097,0.097c0.051,0 0.096,-0.045 0.096,-0.097c0,-0.052 -0.045,-0.096 -0.096,-0.096Z" style="fill:#004153;fill-rule:nonzero;"/></g><g transform="matrix(12,0,0,12,-48.5383,-6.37795)"><path d="M0.102,-0.405l0.313,0.14l-0.313,0.139l-0,0.088l0.396,-0.187l0,-0.08l-0.396,-0.187l-0,0.087Z" style="fill:#004153;fill-rule:nonzero;"/></g><g transform="matrix(12,0,0,12,40.1678,-6.37795)"><path d="M0.102,-0.405l0.313,0.14l-0.313,0.139l-0,0.088l0.396,-0.187l0,-0.08l-0.396,-0.187l-0,0.087Z" style="fill:#004153;fill-rule:nonzero;"/></g></g><path d="M19.843,239.528l79.37,-0" style="fill:none;fill-rule:nonzero;stroke:#d8d8d8;stroke-width:1px;stroke-dasharray:3.15,2.15;stroke-dashoffset:1.57;"/><path d="M108.549,239.528l79.37,-0" style="fill:none;fill-rule:nonzero;stroke:#d8d8d8;stroke-width:1px;stroke-dasharray:3.15,2.15;stroke-dashoffset:1.57;"/><path d="M197.255,239.528l79.37,-0" style="fill:none;fill-rule:nonzero;stroke:#d8d8d8;stroke-width:1px;stroke-dasharray:3.15,2.15;stroke-dashoffset:1.57;"/></g></svg>