<?xml version="1.0" encoding="UTF-8" standalone="no"?><!DOCTYPE svg PUBLIC "-//W3C//DTD SVG 1.1//EN" "http://www.w3.org/Graphics/SVG/1.1/DTD/svg11.dtd"><svg width="100%" height="100%" viewBox="0 0 298 420" version="1.1" xmlns="http://www.w3.org/2000/svg" xmlns:xlink="http://www.w3.org/1999/xlink" xml:space="preserve" xmlns:serif="http://www.serif.com/" style="fill-rule:evenodd;clip-rule:evenodd;stroke-linecap:round;stroke-linejoin:round;"><clipPath id="_clip1"><rect x="-13.701" y="-14.173" width="345.827" height="460.63"/></clipPath><g clip-path="url(#_clip1)"><g id="Ebene-1" serif:id="Ebene 1"><rect x="-13.701" y="-14.173" width="345.827" height="460.63" style="fill:#004153;"/><g><rect x="218.758" y="385.673" width="3.28" height="13.775" style="fill:#fff;"/><path d="M245.758,399.449l-0,-13.776l-3.28,0l-0,8.423l-6.298,-8.423l-3.148,0l-0,8.423l-6.271,-8.423l-3.149,0l-0,13.776l3.28,-0l-0,-8.397l6.271,8.397l3.175,-0l-0,-8.397l6.271,8.397l3.149,-0Z" style="fill:#fff;fill-rule:nonzero;"/><path d="M254.154,388.56c2.23,-0 3.831,1.627 3.831,3.988c-0,2.362 -1.601,3.988 -3.831,3.988c-2.257,0 -3.831,-1.626 -3.831,-3.988c0,-2.361 1.601,-3.988 3.831,-3.988m0,-3.149c-4.251,0 -7.268,3.044 -7.268,7.137c-0,4.093 3.017,7.137 7.268,7.137c4.251,0 7.268,-3.044 7.268,-7.137c0,-4.093 -3.017,-7.137 -7.268,-7.137" style="fill:#fff;fill-rule:nonzero;"/><path d="M269.609,388.56c2.23,-0 3.831,1.627 3.831,3.988c-0,0.446 -0.053,0.866 -0.158,1.26l-0.446,-0.604l-3.568,0l2.177,2.913c-0.524,0.262 -1.154,0.419 -1.81,0.419c-2.23,0 -3.831,-1.626 -3.831,-3.988c-0.026,-2.335 1.574,-3.988 3.805,-3.988m-0,-3.149c-4.251,0 -7.268,3.044 -7.268,7.137c-0,4.093 3.017,7.137 7.268,7.137c1.443,0 2.676,-0.394 3.726,-1.076l0.603,0.814l3.857,-0l-2.178,-2.939c0.761,-1.102 1.207,-2.388 1.207,-3.936c0.053,-4.093 -2.965,-7.137 -7.215,-7.137" style="fill:#f39260;fill-rule:nonzero;"/></g></g></g><g id="Ebene-11" serif:id="Ebene 1"><path d="M148.761,102.239l-0,30.992" style="fill:none;fill-rule:nonzero;stroke:#fff;stroke-width:3px;"/><path d="M20.804,254.196l33.202,0" style="fill:none;fill-rule:nonzero;stroke:#fff;stroke-width:3px;"/><path d="M273.717,254.196l-33.202,0" style="fill:none;fill-rule:nonzero;stroke:#fff;stroke-width:3px;"/><path d="M46.952,140.958l28.202,28.181" style="fill:none;fill-rule:nonzero;stroke:#fff;stroke-width:3px;"/><path d="M251.569,143.958l-28.202,28.181" style="fill:none;fill-rule:nonzero;stroke:#fff;stroke-width:3px;"/><path d="M231.283,230.44c0.042,-41.728 -30.716,-77.086 -72.047,-82.821c-41.334,-5.736 -80.558,19.913 -91.875,60.077c-11.32,40.164 8.74,82.52 46.984,99.21l0,40.472l66.822,-0l-0,-40.472c30.426,-13.253 50.105,-43.278 50.116,-76.466Z" style="fill:#fff;fill-rule:nonzero;stroke:#fff;stroke-width:3px;"/><path d="M113.882,358.522c9.417,-0 17.051,-7.634 17.051,-17.051c0,-9.417 -7.634,-17.052 -17.051,-17.052c-9.417,0 -17.051,7.635 -17.051,17.052c-0,9.417 7.634,17.051 17.051,17.051Z" style="fill:#004153;fill-rule:nonzero;stroke:#fff;stroke-width:2.53px;"/><path d="M141.333,379.742c-4.071,-11.672 -15.08,-19.492 -27.441,-19.492c-12.362,-0 -23.371,7.82 -27.441,19.492" style="fill:#004153;fill-rule:nonzero;stroke:#fff;stroke-width:2.53px;"/><g transform="matrix(1,0,0,1,190.63,64.7717)"><g transform="matrix(16,0,0,16,-170.787,-33.5514)"><path d="M0.064,-0.7l-0,0.7l0.166,-0l0,-0.262l0.025,-0l0.185,0.262l0.198,-0l-0.2,-0.267c0.125,-0.02 0.195,-0.098 0.195,-0.209c-0,-0.138 -0.092,-0.224 -0.265,-0.224l-0.304,0Zm0.302,0.151c0.059,0 0.097,0.023 0.097,0.073c0,0.05 -0.037,0.074 -0.097,0.074l-0.136,-0l0,-0.147l0.136,0Z" style="fill:#fff;fill-rule:nonzero;"/></g><g transform="matrix(16,0,0,16,-160.403,-33.5514)"><path d="M0.281,-0.504c-0.15,0 -0.252,0.107 -0.252,0.261c0,0.154 0.104,0.256 0.259,0.256c0.09,-0 0.164,-0.03 0.215,-0.08l-0.1,-0.095c-0.031,0.029 -0.071,0.044 -0.107,0.044c-0.055,-0 -0.093,-0.025 -0.106,-0.079l0.333,-0c0.002,-0.011 0.003,-0.033 0.003,-0.049c-0.001,-0.153 -0.1,-0.258 -0.245,-0.258Zm0,0.133c0.046,-0 0.076,0.026 0.089,0.075l-0.179,0c0.012,-0.049 0.041,-0.075 0.09,-0.075Z" style="fill:#fff;fill-rule:nonzero;"/></g><g transform="matrix(16,0,0,16,-151.635,-33.5514)"><path d="M0.467,-0.461c-0.08,-0.031 -0.131,-0.042 -0.211,-0.042c-0.133,-0 -0.211,0.059 -0.211,0.163c-0,0.088 0.055,0.138 0.172,0.155l0.029,0.004c0.056,0.009 0.078,0.016 0.078,0.035c-0,0.021 -0.02,0.032 -0.069,0.032c-0.068,0 -0.124,-0.017 -0.173,-0.046l-0.054,0.121c0.056,0.036 0.142,0.051 0.226,0.051c0.143,0 0.227,-0.064 0.227,-0.171c-0,-0.083 -0.056,-0.134 -0.16,-0.15l-0.036,-0.005c-0.049,-0.008 -0.08,-0.013 -0.08,-0.034c0,-0.018 0.016,-0.03 0.057,-0.03c0.051,0.001 0.114,0.018 0.162,0.038l0.043,-0.121Z" style="fill:#fff;fill-rule:nonzero;"/></g><g transform="matrix(16,0,0,16,-143.555,-33.5514)"><path d="M0.295,-0.504c-0.153,0 -0.266,0.11 -0.266,0.259c0,0.148 0.113,0.258 0.266,0.258c0.154,-0 0.266,-0.11 0.266,-0.258c0,-0.149 -0.112,-0.259 -0.266,-0.259Zm-0,0.146c0.062,-0 0.107,0.046 0.107,0.113c-0,0.066 -0.045,0.112 -0.107,0.112c-0.061,0 -0.106,-0.046 -0.106,-0.112c-0,-0.067 0.045,-0.113 0.106,-0.113Z" style="fill:#fff;fill-rule:nonzero;"/></g><g transform="matrix(16,0,0,16,-134.107,-33.5514)"><path d="M0.525,-0.49l-0.156,-0l0,0.266c0,0.063 -0.034,0.091 -0.081,0.091c-0.047,0 -0.08,-0.028 -0.08,-0.091l-0,-0.266l-0.156,-0l-0,0.28c-0,0.153 0.105,0.223 0.236,0.223c0.131,-0 0.237,-0.07 0.237,-0.223l-0,-0.28Z" style="fill:#fff;fill-rule:nonzero;"/></g><g transform="matrix(16,0,0,16,-124.883,-33.5514)"><path d="M0.339,-0.504c-0.06,0 -0.106,0.023 -0.134,0.07l-0,-0.056l-0.15,-0l0,0.49l0.156,-0l0,-0.265c0,-0.061 0.034,-0.089 0.09,-0.089c0.028,0 0.057,0.006 0.078,0.013l0.015,-0.155c-0.012,-0.004 -0.032,-0.008 -0.055,-0.008Z" style="fill:#fff;fill-rule:nonzero;"/></g><g transform="matrix(16,0,0,16,-118.523,-33.5514)"><path d="M0.293,-0.504c-0.156,0 -0.264,0.108 -0.264,0.259c0,0.15 0.108,0.258 0.264,0.258c0.091,-0 0.163,-0.04 0.21,-0.106l-0.122,-0.087c-0.024,0.031 -0.055,0.047 -0.092,0.047c-0.055,0 -0.1,-0.041 -0.1,-0.112c-0,-0.071 0.046,-0.113 0.101,-0.113c0.038,-0 0.066,0.015 0.09,0.047l0.123,-0.086c-0.047,-0.066 -0.119,-0.107 -0.21,-0.107Z" style="fill:#fff;fill-rule:nonzero;"/></g><g transform="matrix(16,0,0,16,-110.379,-33.5514)"><path d="M0.281,-0.504c-0.15,0 -0.252,0.107 -0.252,0.261c0,0.154 0.104,0.256 0.259,0.256c0.09,-0 0.164,-0.03 0.215,-0.08l-0.1,-0.095c-0.031,0.029 -0.071,0.044 -0.107,0.044c-0.055,-0 -0.093,-0.025 -0.106,-0.079l0.333,-0c0.002,-0.011 0.003,-0.033 0.003,-0.049c-0.001,-0.153 -0.1,-0.258 -0.245,-0.258Zm0,0.133c0.046,-0 0.076,0.026 0.089,0.075l-0.179,0c0.012,-0.049 0.041,-0.075 0.09,-0.075Z" style="fill:#fff;fill-rule:nonzero;"/></g><g transform="matrix(16,0,0,16,-101.499,-33.5514)"><path d="M0.474,-0.7l-0.2,0l-0.268,0.7l0.174,-0l0.053,-0.147l0.278,-0l0.053,0.147l0.179,-0l-0.269,-0.7Zm-0.102,0.166l0.085,0.236l-0.17,0l0.085,-0.236Z" style="fill:#fff;fill-rule:nonzero;"/></g><g transform="matrix(16,0,0,16,-89.5234,-33.5514)"><rect x="0.055" y="-0.72" width="0.156" height="0.72" style="fill:#fff;fill-rule:nonzero;"/></g><g transform="matrix(16,0,0,16,-85.2674,-33.5514)"><rect x="0.055" y="-0.72" width="0.156" height="0.72" style="fill:#fff;fill-rule:nonzero;"/></g><g transform="matrix(16,0,0,16,-81.0114,-33.5514)"><path d="M0.295,-0.504c-0.153,0 -0.266,0.11 -0.266,0.259c0,0.148 0.113,0.258 0.266,0.258c0.154,-0 0.266,-0.11 0.266,-0.258c0,-0.149 -0.112,-0.259 -0.266,-0.259Zm-0,0.146c0.062,-0 0.107,0.046 0.107,0.113c-0,0.066 -0.045,0.112 -0.107,0.112c-0.061,0 -0.106,-0.046 -0.106,-0.112c-0,-0.067 0.045,-0.113 0.106,-0.113Z" style="fill:#fff;fill-rule:nonzero;"/></g><g transform="matrix(16,0,0,16,-71.5634,-33.5514)"><path d="M0.293,-0.504c-0.156,0 -0.264,0.108 -0.264,0.259c0,0.15 0.108,0.258 0.264,0.258c0.091,-0 0.163,-0.04 0.21,-0.106l-0.122,-0.087c-0.024,0.031 -0.055,0.047 -0.092,0.047c-0.055,0 -0.1,-0.041 -0.1,-0.112c-0,-0.071 0.046,-0.113 0.101,-0.113c0.038,-0 0.066,0.015 0.09,0.047l0.123,-0.086c-0.047,-0.066 -0.119,-0.107 -0.21,-0.107Z" style="fill:#fff;fill-rule:nonzero;"/></g><g transform="matrix(16,0,0,16,-63.4194,-33.5514)"><path d="M0.549,-0.49l-0.151,-0l0,0.053c-0.029,-0.039 -0.074,-0.067 -0.141,-0.067c-0.131,0 -0.228,0.114 -0.228,0.258c0,0.145 0.097,0.259 0.228,0.259c0.067,-0 0.112,-0.028 0.141,-0.066l0,0.053l0.151,-0l0,-0.49Zm-0.254,0.132c0.061,-0 0.105,0.047 0.105,0.113c-0,0.065 -0.044,0.112 -0.105,0.112c-0.063,0 -0.105,-0.048 -0.105,-0.112c-0,-0.065 0.042,-0.113 0.105,-0.113Z" style="fill:#fff;fill-rule:nonzero;"/></g><g transform="matrix(16,0,0,16,-53.7554,-33.5514)"><path d="M0.432,-0.49l-0.168,-0l0,-0.143l-0.156,-0l0,0.143l-0.091,-0l-0,0.138l0.091,-0l0,0.164c0,0.123 0.06,0.201 0.191,0.201c0.079,-0 0.128,-0.023 0.174,-0.055l-0.054,-0.121c-0.025,0.014 -0.056,0.03 -0.085,0.03c-0.04,0 -0.07,-0.019 -0.07,-0.075l0,-0.144l0.168,-0l-0,-0.138Z" style="fill:#fff;fill-rule:nonzero;"/></g><g transform="matrix(16,0,0,16,-46.0834,-33.5514)"><path d="M0.211,-0.49l-0.156,-0l0,0.49l0.156,-0l0,-0.49Zm-0.078,-0.245c-0.053,-0 -0.094,0.041 -0.094,0.094c0,0.052 0.041,0.093 0.094,0.093c0.052,-0 0.093,-0.041 0.093,-0.093c-0,-0.053 -0.041,-0.094 -0.093,-0.094Z" style="fill:#fff;fill-rule:nonzero;"/></g><g transform="matrix(16,0,0,16,-41.8274,-33.5514)"><path d="M0.295,-0.504c-0.153,0 -0.266,0.11 -0.266,0.259c0,0.148 0.113,0.258 0.266,0.258c0.154,-0 0.266,-0.11 0.266,-0.258c0,-0.149 -0.112,-0.259 -0.266,-0.259Zm-0,0.146c0.062,-0 0.107,0.046 0.107,0.113c-0,0.066 -0.045,0.112 -0.107,0.112c-0.061,0 -0.106,-0.046 -0.106,-0.112c-0,-0.067 0.045,-0.113 0.106,-0.113Z" style="fill:#fff;fill-rule:nonzero;"/></g><g transform="matrix(16,0,0,16,-32.3794,-33.5514)"><path d="M0.351,-0.504c-0.066,0 -0.115,0.024 -0.146,0.075l-0,-0.061l-0.15,-0l0,0.49l0.156,-0l0,-0.264c0,-0.064 0.036,-0.093 0.08,-0.093c0.049,-0 0.078,0.032 0.078,0.09l-0,0.267l0.156,-0l-0,-0.322c-0,-0.113 -0.076,-0.182 -0.174,-0.182Z" style="fill:#fff;fill-rule:nonzero;"/></g><g transform="matrix(16,0,0,16,-23.1554,-33.5514)"><path d="M0.599,-0.15l-0.369,-0l0,-0.129l0.346,0l-0,-0.149l-0.346,-0l0,-0.122l0.367,0l0,-0.15l-0.533,0l-0,0.7l0.535,-0l0,-0.15Z" style="fill:#fff;fill-rule:nonzero;"/></g><g transform="matrix(16,0,0,16,-12.7554,-33.5514)"><path d="M0.561,-0.49l-0.181,-0l-0.09,0.139l-0.091,-0.139l-0.183,-0l0.169,0.242l-0.174,0.248l0.18,-0l0.093,-0.141l0.097,0.141l0.182,-0l-0.173,-0.248l0.171,-0.242Z" style="fill:#fff;fill-rule:nonzero;"/></g><g transform="matrix(16,0,0,16,-3.5714,-33.5514)"><path d="M0.347,-0.504c-0.067,0 -0.112,0.028 -0.141,0.067l-0,-0.053l-0.151,-0l0,0.69l0.156,-0l-0,-0.247c0.029,0.035 0.072,0.06 0.136,0.06c0.131,-0 0.228,-0.114 0.228,-0.259c-0,-0.144 -0.097,-0.258 -0.228,-0.258Zm-0.038,0.146c0.063,-0 0.105,0.048 0.105,0.113c0,0.064 -0.042,0.112 -0.105,0.112c-0.062,0 -0.105,-0.047 -0.105,-0.112c0,-0.066 0.043,-0.113 0.105,-0.113Z" style="fill:#fff;fill-rule:nonzero;"/></g><g transform="matrix(16,0,0,16,6.0926,-33.5514)"><path d="M0.281,-0.504c-0.15,0 -0.252,0.107 -0.252,0.261c0,0.154 0.104,0.256 0.259,0.256c0.09,-0 0.164,-0.03 0.215,-0.08l-0.1,-0.095c-0.031,0.029 -0.071,0.044 -0.107,0.044c-0.055,-0 -0.093,-0.025 -0.106,-0.079l0.333,-0c0.002,-0.011 0.003,-0.033 0.003,-0.049c-0.001,-0.153 -0.1,-0.258 -0.245,-0.258Zm0,0.133c0.046,-0 0.076,0.026 0.089,0.075l-0.179,0c0.012,-0.049 0.041,-0.075 0.09,-0.075Z" style="fill:#fff;fill-rule:nonzero;"/></g><g transform="matrix(16,0,0,16,14.9726,-33.5514)"><path d="M0.293,-0.504c-0.156,0 -0.264,0.108 -0.264,0.259c0,0.15 0.108,0.258 0.264,0.258c0.091,-0 0.163,-0.04 0.21,-0.106l-0.122,-0.087c-0.024,0.031 -0.055,0.047 -0.092,0.047c-0.055,0 -0.1,-0.041 -0.1,-0.112c-0,-0.071 0.046,-0.113 0.101,-0.113c0.038,-0 0.066,0.015 0.09,0.047l0.123,-0.086c-0.047,-0.066 -0.119,-0.107 -0.21,-0.107Z" style="fill:#fff;fill-rule:nonzero;"/></g><g transform="matrix(16,0,0,16,23.3566,-33.5514)"><path d="M0.432,-0.49l-0.168,-0l0,-0.143l-0.156,-0l0,0.143l-0.091,-0l-0,0.138l0.091,-0l0,0.164c0,0.123 0.06,0.201 0.191,0.201c0.079,-0 0.128,-0.023 0.174,-0.055l-0.054,-0.121c-0.025,0.014 -0.056,0.03 -0.085,0.03c-0.04,0 -0.07,-0.019 -0.07,-0.075l0,-0.144l0.168,-0l-0,-0.138Z" style="fill:#fff;fill-rule:nonzero;"/></g><g transform="matrix(16,0,0,16,30.8286,-33.5514)"><path d="M0.549,-0.49l-0.151,-0l0,0.053c-0.029,-0.039 -0.074,-0.067 -0.141,-0.067c-0.131,0 -0.228,0.114 -0.228,0.258c0,0.145 0.097,0.259 0.228,0.259c0.067,-0 0.112,-0.028 0.141,-0.066l0,0.053l0.151,-0l0,-0.49Zm-0.254,0.132c0.061,-0 0.105,0.047 0.105,0.113c-0,0.065 -0.044,0.112 -0.105,0.112c-0.063,0 -0.105,-0.048 -0.105,-0.112c-0,-0.065 0.042,-0.113 0.105,-0.113Z" style="fill:#fff;fill-rule:nonzero;"/></g><g transform="matrix(16,0,0,16,40.4926,-33.5514)"><path d="M0.432,-0.49l-0.168,-0l0,-0.143l-0.156,-0l0,0.143l-0.091,-0l-0,0.138l0.091,-0l0,0.164c0,0.123 0.06,0.201 0.191,0.201c0.079,-0 0.128,-0.023 0.174,-0.055l-0.054,-0.121c-0.025,0.014 -0.056,0.03 -0.085,0.03c-0.04,0 -0.07,-0.019 -0.07,-0.075l0,-0.144l0.168,-0l-0,-0.138Z" style="fill:#fff;fill-rule:nonzero;"/></g><g transform="matrix(16,0,0,16,48.1646,-33.5514)"><path d="M0.211,-0.49l-0.156,-0l0,0.49l0.156,-0l0,-0.49Zm-0.078,-0.245c-0.053,-0 -0.094,0.041 -0.094,0.094c0,0.052 0.041,0.093 0.094,0.093c0.052,-0 0.093,-0.041 0.093,-0.093c-0,-0.053 -0.041,-0.094 -0.093,-0.094Z" style="fill:#fff;fill-rule:nonzero;"/></g><g transform="matrix(16,0,0,16,52.4206,-33.5514)"><path d="M0.295,-0.504c-0.153,0 -0.266,0.11 -0.266,0.259c0,0.148 0.113,0.258 0.266,0.258c0.154,-0 0.266,-0.11 0.266,-0.258c0,-0.149 -0.112,-0.259 -0.266,-0.259Zm-0,0.146c0.062,-0 0.107,0.046 0.107,0.113c-0,0.066 -0.045,0.112 -0.107,0.112c-0.061,0 -0.106,-0.046 -0.106,-0.112c-0,-0.067 0.045,-0.113 0.106,-0.113Z" style="fill:#fff;fill-rule:nonzero;"/></g><g transform="matrix(16,0,0,16,61.8686,-33.5514)"><path d="M0.351,-0.504c-0.066,0 -0.115,0.024 -0.146,0.075l-0,-0.061l-0.15,-0l0,0.49l0.156,-0l0,-0.264c0,-0.064 0.036,-0.093 0.08,-0.093c0.049,-0 0.078,0.032 0.078,0.09l-0,0.267l0.156,-0l-0,-0.322c-0,-0.113 -0.076,-0.182 -0.174,-0.182Z" style="fill:#fff;fill-rule:nonzero;"/></g><g transform="matrix(12,0,0,12,-170.787,-10.6474)"><path d="M0.601,-0.634c-0.065,-0.045 -0.146,-0.076 -0.251,-0.076c-0.148,0 -0.268,0.075 -0.268,0.21c0,0.12 0.092,0.174 0.207,0.188l0.066,0.008c0.109,0.013 0.167,0.044 0.167,0.109c0,0.079 -0.082,0.122 -0.187,0.122c-0.089,-0 -0.179,-0.036 -0.227,-0.078l-0.048,0.07c0.067,0.056 0.176,0.091 0.275,0.091c0.152,-0 0.278,-0.073 0.278,-0.212c0,-0.124 -0.101,-0.172 -0.219,-0.187l-0.062,-0.007c-0.105,-0.013 -0.159,-0.046 -0.159,-0.109c0,-0.076 0.073,-0.122 0.176,-0.122c0.081,0 0.151,0.026 0.208,0.065l0.044,-0.072Z" style="fill:#fff;fill-rule:nonzero;"/></g><g transform="matrix(12,0,0,12,-162.705,-10.6474)"><path d="M0.515,-0.475l-0.082,0l0,0.269c0,0.097 -0.057,0.14 -0.135,0.14c-0.077,-0 -0.135,-0.043 -0.135,-0.14l0,-0.269l-0.081,0l-0,0.276c-0,0.144 0.102,0.209 0.216,0.209c0.114,-0 0.217,-0.065 0.217,-0.209l-0,-0.276Z" style="fill:#fff;fill-rule:nonzero;"/></g><g transform="matrix(12,0,0,12,-155.547,-10.6474)"><path d="M0.336,-0.485c-0.076,0 -0.131,0.029 -0.168,0.073l-0,-0.063l-0.081,0l-0,0.675l0.081,-0l-0,-0.263c0.037,0.044 0.092,0.073 0.168,0.073c0.133,-0 0.237,-0.104 0.237,-0.247c-0,-0.144 -0.104,-0.248 -0.237,-0.248Zm-0.01,0.077c0.097,-0 0.163,0.076 0.163,0.17c0,0.095 -0.064,0.172 -0.163,0.172c-0.096,-0 -0.163,-0.074 -0.163,-0.172c-0,-0.097 0.067,-0.17 0.163,-0.17Z" style="fill:#fff;fill-rule:nonzero;"/></g><g transform="matrix(12,0,0,12,-148.065,-10.6474)"><path d="M0.336,-0.485c-0.076,0 -0.131,0.029 -0.168,0.073l-0,-0.063l-0.081,0l-0,0.675l0.081,-0l-0,-0.263c0.037,0.044 0.092,0.073 0.168,0.073c0.133,-0 0.237,-0.104 0.237,-0.247c-0,-0.144 -0.104,-0.248 -0.237,-0.248Zm-0.01,0.077c0.097,-0 0.163,0.076 0.163,0.17c0,0.095 -0.064,0.172 -0.163,0.172c-0.096,-0 -0.163,-0.074 -0.163,-0.172c-0,-0.097 0.067,-0.17 0.163,-0.17Z" style="fill:#fff;fill-rule:nonzero;"/></g><g transform="matrix(12,0,0,12,-140.583,-10.6474)"><path d="M0.301,-0.485c-0.144,0 -0.25,0.106 -0.25,0.247c-0,0.142 0.106,0.248 0.25,0.248c0.145,-0 0.252,-0.106 0.252,-0.248c-0,-0.141 -0.107,-0.247 -0.252,-0.247Zm0,0.077c0.096,-0 0.168,0.071 0.168,0.17c0,0.1 -0.072,0.172 -0.168,0.172c-0.095,-0 -0.167,-0.072 -0.167,-0.172c-0,-0.099 0.072,-0.17 0.167,-0.17Z" style="fill:#fff;fill-rule:nonzero;"/></g><g transform="matrix(12,0,0,12,-133.341,-10.6474)"><path d="M0.442,-0.433c-0.046,-0.031 -0.114,-0.051 -0.19,-0.051c-0.115,-0 -0.19,0.054 -0.19,0.145c-0,0.072 0.051,0.121 0.157,0.134l0.056,0.006c0.064,0.008 0.095,0.03 0.095,0.065c0,0.047 -0.048,0.073 -0.126,0.073c-0.08,-0 -0.127,-0.023 -0.162,-0.051l-0.038,0.061c0.062,0.047 0.141,0.061 0.199,0.061c0.13,-0 0.211,-0.058 0.211,-0.149c-0,-0.078 -0.059,-0.121 -0.16,-0.135l-0.056,-0.007c-0.057,-0.007 -0.092,-0.024 -0.092,-0.062c0,-0.043 0.042,-0.071 0.107,-0.071c0.063,0 0.124,0.024 0.154,0.044l0.035,-0.063Z" style="fill:#fff;fill-rule:nonzero;"/></g><g transform="matrix(12,0,0,12,-127.377,-10.6474)"><path d="M0.287,-0.485c-0.137,0 -0.236,0.101 -0.236,0.247c-0,0.149 0.099,0.248 0.241,0.248c0.07,-0 0.136,-0.017 0.194,-0.072l-0.043,-0.056c-0.04,0.035 -0.091,0.057 -0.146,0.057c-0.082,-0 -0.151,-0.049 -0.162,-0.148l0.373,0c0.001,-0.009 0.002,-0.02 0.002,-0.03c-0.001,-0.146 -0.094,-0.246 -0.223,-0.246Zm-0.002,0.072c0.077,0 0.132,0.054 0.142,0.139l-0.291,-0c0.012,-0.082 0.065,-0.139 0.149,-0.139Z" style="fill:#fff;fill-rule:nonzero;"/></g><g transform="matrix(12,0,0,12,-117.663,-10.6474)"><path d="M0.525,-0.475l-0.09,0l-0.163,0.292l-0.171,-0.292l-0.091,0l0.217,0.373l-0.176,0.304l0.09,0l0.384,-0.677Z" style="fill:#fff;fill-rule:nonzero;"/></g><g transform="matrix(12,0,0,12,-111.381,-10.6474)"><path d="M0.301,-0.485c-0.144,0 -0.25,0.106 -0.25,0.247c-0,0.142 0.106,0.248 0.25,0.248c0.145,-0 0.252,-0.106 0.252,-0.248c-0,-0.141 -0.107,-0.247 -0.252,-0.247Zm0,0.077c0.096,-0 0.168,0.071 0.168,0.17c0,0.1 -0.072,0.172 -0.168,0.172c-0.095,-0 -0.167,-0.072 -0.167,-0.172c-0,-0.099 0.072,-0.17 0.167,-0.17Z" style="fill:#fff;fill-rule:nonzero;"/></g><g transform="matrix(12,0,0,12,-104.139,-10.6474)"><path d="M0.515,-0.475l-0.082,0l0,0.269c0,0.097 -0.057,0.14 -0.135,0.14c-0.077,-0 -0.135,-0.043 -0.135,-0.14l0,-0.269l-0.081,0l-0,0.276c-0,0.144 0.102,0.209 0.216,0.209c0.114,-0 0.217,-0.065 0.217,-0.209l-0,-0.276Z" style="fill:#fff;fill-rule:nonzero;"/></g><g transform="matrix(12,0,0,12,-93.7714,-10.6474)"><path d="M0.537,-0.475l-0.081,0l-0,0.064c-0.038,-0.045 -0.093,-0.074 -0.168,-0.074c-0.134,0 -0.237,0.104 -0.237,0.247c-0,0.144 0.103,0.248 0.237,0.248c0.075,-0 0.13,-0.029 0.168,-0.073l-0,0.063l0.081,-0l0,-0.475Zm-0.239,0.067c0.096,-0 0.163,0.073 0.163,0.17c-0,0.098 -0.067,0.172 -0.163,0.172c-0.098,-0 -0.164,-0.077 -0.164,-0.172c-0,-0.094 0.064,-0.17 0.164,-0.17Z" style="fill:#fff;fill-rule:nonzero;"/></g><g transform="matrix(12,0,0,12,-86.2834,-10.6474)"><path d="M0.306,-0.485c-0.057,0 -0.106,0.026 -0.139,0.072l-0,-0.062l-0.08,0l-0,0.475l0.081,-0l-0,-0.264c-0,-0.088 0.051,-0.144 0.123,-0.144c0.027,0 0.059,0.007 0.082,0.019l0.02,-0.08c-0.026,-0.011 -0.053,-0.016 -0.087,-0.016Z" style="fill:#fff;fill-rule:nonzero;"/></g><g transform="matrix(12,0,0,12,-81.4954,-10.6474)"><path d="M0.287,-0.485c-0.137,0 -0.236,0.101 -0.236,0.247c-0,0.149 0.099,0.248 0.241,0.248c0.07,-0 0.136,-0.017 0.194,-0.072l-0.043,-0.056c-0.04,0.035 -0.091,0.057 -0.146,0.057c-0.082,-0 -0.151,-0.049 -0.162,-0.148l0.373,0c0.001,-0.009 0.002,-0.02 0.002,-0.03c-0.001,-0.146 -0.094,-0.246 -0.223,-0.246Zm-0.002,0.072c0.077,0 0.132,0.054 0.142,0.139l-0.291,-0c0.012,-0.082 0.065,-0.139 0.149,-0.139Z" style="fill:#fff;fill-rule:nonzero;"/></g><g transform="matrix(12,0,0,12,-71.5594,-10.6474)"><path d="M0.537,-0.475l-0.081,0l-0,0.064c-0.038,-0.045 -0.093,-0.074 -0.168,-0.074c-0.134,0 -0.237,0.104 -0.237,0.247c-0,0.144 0.103,0.248 0.237,0.248c0.075,-0 0.13,-0.029 0.168,-0.073l-0,0.063l0.081,-0l0,-0.475Zm-0.239,0.067c0.096,-0 0.163,0.073 0.163,0.17c-0,0.098 -0.067,0.172 -0.163,0.172c-0.098,-0 -0.164,-0.077 -0.164,-0.172c-0,-0.094 0.064,-0.17 0.164,-0.17Z" style="fill:#fff;fill-rule:nonzero;"/></g><g transform="matrix(12,0,0,12,-64.0714,-10.6474)"><rect x="0.087" y="-0.72" width="0.081" height="0.72" style="fill:#fff;fill-rule:nonzero;"/></g><g transform="matrix(12,0,0,12,-61.0174,-10.6474)"><rect x="0.087" y="-0.72" width="0.081" height="0.72" style="fill:#fff;fill-rule:nonzero;"/></g><g transform="matrix(12,0,0,12,-57.9634,-10.6474)"><path d="M0.301,-0.485c-0.144,0 -0.25,0.106 -0.25,0.247c-0,0.142 0.106,0.248 0.25,0.248c0.145,-0 0.252,-0.106 0.252,-0.248c-0,-0.141 -0.107,-0.247 -0.252,-0.247Zm0,0.077c0.096,-0 0.168,0.071 0.168,0.17c0,0.1 -0.072,0.172 -0.168,0.172c-0.095,-0 -0.167,-0.072 -0.167,-0.172c-0,-0.099 0.072,-0.17 0.167,-0.17Z" style="fill:#fff;fill-rule:nonzero;"/></g><g transform="matrix(12,0,0,12,-50.7574,-10.6474)"><path d="M0.471,-0.475l-0.093,0l-0.135,0.388l-0.135,-0.388l-0.087,0l0.171,0.475l0.096,-0l0.135,-0.386l0.136,0.386l0.098,-0l0.171,-0.475l-0.086,0l-0.135,0.389l-0.136,-0.389Z" style="fill:#fff;fill-rule:nonzero;"/></g><g transform="matrix(12,0,0,12,-40.5754,-10.6474)"><path d="M0.287,-0.485c-0.137,0 -0.236,0.101 -0.236,0.247c-0,0.149 0.099,0.248 0.241,0.248c0.07,-0 0.136,-0.017 0.194,-0.072l-0.043,-0.056c-0.04,0.035 -0.091,0.057 -0.146,0.057c-0.082,-0 -0.151,-0.049 -0.162,-0.148l0.373,0c0.001,-0.009 0.002,-0.02 0.002,-0.03c-0.001,-0.146 -0.094,-0.246 -0.223,-0.246Zm-0.002,0.072c0.077,0 0.132,0.054 0.142,0.139l-0.291,-0c0.012,-0.082 0.065,-0.139 0.149,-0.139Z" style="fill:#fff;fill-rule:nonzero;"/></g><g transform="matrix(12,0,0,12,-33.8494,-10.6474)"><path d="M0.288,-0.485c-0.134,0 -0.237,0.104 -0.237,0.247c-0,0.144 0.103,0.248 0.237,0.248c0.075,-0 0.13,-0.029 0.168,-0.073l-0,0.063l0.081,-0l0,-0.72l-0.081,0l-0,0.309c-0.038,-0.045 -0.093,-0.074 -0.168,-0.074Zm0.01,0.077c0.096,-0 0.163,0.073 0.163,0.17c-0,0.098 -0.067,0.172 -0.163,0.172c-0.098,-0 -0.164,-0.077 -0.164,-0.172c-0,-0.094 0.064,-0.17 0.164,-0.17Z" style="fill:#fff;fill-rule:nonzero;"/></g><g transform="matrix(12,0,0,12,-23.2414,-10.6474)"><path d="M0.409,-0.475l-0.2,0l0,-0.149l-0.081,0l-0,0.149l-0.102,0l0,0.074l0.102,0l-0,0.234c-0,0.121 0.061,0.177 0.164,0.177c0.058,-0 0.106,-0.021 0.142,-0.047l-0.038,-0.061c-0.027,0.018 -0.062,0.032 -0.097,0.032c-0.052,-0 -0.09,-0.031 -0.09,-0.103l0,-0.232l0.2,0l-0,-0.074Z" style="fill:#fff;fill-rule:nonzero;"/></g><g transform="matrix(12,0,0,12,-17.8114,-10.6474)"><path d="M0.301,-0.485c-0.144,0 -0.25,0.106 -0.25,0.247c-0,0.142 0.106,0.248 0.25,0.248c0.145,-0 0.252,-0.106 0.252,-0.248c-0,-0.141 -0.107,-0.247 -0.252,-0.247Zm0,0.077c0.096,-0 0.168,0.071 0.168,0.17c0,0.1 -0.072,0.172 -0.168,0.172c-0.095,-0 -0.167,-0.072 -0.167,-0.172c-0,-0.099 0.072,-0.17 0.167,-0.17Z" style="fill:#fff;fill-rule:nonzero;"/></g><g transform="matrix(12,0,0,12,-7.3594,-10.6474)"><path d="M0.537,-0.475l-0.081,0l-0,0.064c-0.038,-0.045 -0.093,-0.074 -0.168,-0.074c-0.134,0 -0.237,0.104 -0.237,0.247c-0,0.144 0.103,0.248 0.237,0.248c0.075,-0 0.13,-0.029 0.168,-0.073l-0,0.063l0.081,-0l0,-0.475Zm-0.239,0.067c0.096,-0 0.163,0.073 0.163,0.17c-0,0.098 -0.067,0.172 -0.163,0.172c-0.098,-0 -0.164,-0.077 -0.164,-0.172c-0,-0.094 0.064,-0.17 0.164,-0.17Z" style="fill:#fff;fill-rule:nonzero;"/></g><g transform="matrix(12,0,0,12,0.128598,-10.6474)"><rect x="0.087" y="-0.72" width="0.081" height="0.72" style="fill:#fff;fill-rule:nonzero;"/></g><g transform="matrix(12,0,0,12,3.1826,-10.6474)"><rect x="0.087" y="-0.72" width="0.081" height="0.72" style="fill:#fff;fill-rule:nonzero;"/></g><g transform="matrix(12,0,0,12,6.2366,-10.6474)"><path d="M0.301,-0.485c-0.144,0 -0.25,0.106 -0.25,0.247c-0,0.142 0.106,0.248 0.25,0.248c0.145,-0 0.252,-0.106 0.252,-0.248c-0,-0.141 -0.107,-0.247 -0.252,-0.247Zm0,0.077c0.096,-0 0.168,0.071 0.168,0.17c0,0.1 -0.072,0.172 -0.168,0.172c-0.095,-0 -0.167,-0.072 -0.167,-0.172c-0,-0.099 0.072,-0.17 0.167,-0.17Z" style="fill:#fff;fill-rule:nonzero;"/></g><g transform="matrix(12,0,0,12,13.4786,-10.6474)"><path d="M0.297,-0.485c-0.147,0 -0.246,0.106 -0.246,0.247c-0,0.142 0.099,0.248 0.246,0.248c0.07,-0 0.133,-0.026 0.176,-0.074l-0.05,-0.057c-0.033,0.032 -0.078,0.055 -0.128,0.055c-0.092,-0 -0.161,-0.072 -0.161,-0.172c-0,-0.099 0.069,-0.17 0.161,-0.17c0.05,-0 0.091,0.019 0.126,0.053l0.052,-0.055c-0.042,-0.049 -0.106,-0.075 -0.176,-0.075Z" style="fill:#fff;fill-rule:nonzero;"/></g><g transform="matrix(12,0,0,12,19.5266,-10.6474)"><path d="M0.537,-0.475l-0.081,0l-0,0.064c-0.038,-0.045 -0.093,-0.074 -0.168,-0.074c-0.134,0 -0.237,0.104 -0.237,0.247c-0,0.144 0.103,0.248 0.237,0.248c0.075,-0 0.13,-0.029 0.168,-0.073l-0,0.063l0.081,-0l0,-0.475Zm-0.239,0.067c0.096,-0 0.163,0.073 0.163,0.17c-0,0.098 -0.067,0.172 -0.163,0.172c-0.098,-0 -0.164,-0.077 -0.164,-0.172c-0,-0.094 0.064,-0.17 0.164,-0.17Z" style="fill:#fff;fill-rule:nonzero;"/></g><g transform="matrix(12,0,0,12,27.0146,-10.6474)"><path d="M0.409,-0.475l-0.2,0l0,-0.149l-0.081,0l-0,0.149l-0.102,0l0,0.074l0.102,0l-0,0.234c-0,0.121 0.061,0.177 0.164,0.177c0.058,-0 0.106,-0.021 0.142,-0.047l-0.038,-0.061c-0.027,0.018 -0.062,0.032 -0.097,0.032c-0.052,-0 -0.09,-0.031 -0.09,-0.103l0,-0.232l0.2,0l-0,-0.074Z" style="fill:#fff;fill-rule:nonzero;"/></g><g transform="matrix(12,0,0,12,32.4446,-10.6474)"><path d="M0.287,-0.485c-0.137,0 -0.236,0.101 -0.236,0.247c-0,0.149 0.099,0.248 0.241,0.248c0.07,-0 0.136,-0.017 0.194,-0.072l-0.043,-0.056c-0.04,0.035 -0.091,0.057 -0.146,0.057c-0.082,-0 -0.151,-0.049 -0.162,-0.148l0.373,0c0.001,-0.009 0.002,-0.02 0.002,-0.03c-0.001,-0.146 -0.094,-0.246 -0.223,-0.246Zm-0.002,0.072c0.077,0 0.132,0.054 0.142,0.139l-0.291,-0c0.012,-0.082 0.065,-0.139 0.149,-0.139Z" style="fill:#fff;fill-rule:nonzero;"/></g><g transform="matrix(12,0,0,12,42.3806,-10.6474)"><path d="M0.168,-0.475l-0.081,0l-0,0.475l0.081,-0l-0,-0.475Zm-0.041,-0.225c-0.033,-0 -0.058,0.025 -0.058,0.058c0,0.033 0.025,0.057 0.058,0.057c0.032,0 0.058,-0.024 0.058,-0.057c-0,-0.033 -0.026,-0.058 -0.058,-0.058Z" style="fill:#fff;fill-rule:nonzero;"/></g><g transform="matrix(12,0,0,12,45.4346,-10.6474)"><path d="M0.323,-0.485c-0.055,0 -0.117,0.019 -0.156,0.072l0,-0.062l-0.08,0l-0,0.475l0.081,-0l-0,-0.266c-0,-0.089 0.064,-0.142 0.141,-0.142c0.082,0 0.13,0.052 0.13,0.139l0,0.269l0.082,-0l-0,-0.295c-0,-0.114 -0.081,-0.19 -0.198,-0.19Z" style="fill:#fff;fill-rule:nonzero;"/></g><g transform="matrix(12,0,0,12,52.6646,-10.6474)"><path d="M0.396,-0.475l-0.183,0l0,-0.081c0,-0.062 0.025,-0.098 0.082,-0.098c0.035,0 0.07,0.013 0.095,0.028l0.03,-0.068c-0.034,-0.021 -0.077,-0.036 -0.131,-0.036c-0.112,0 -0.157,0.074 -0.157,0.174l-0,0.081l-0.106,0l0,0.074l0.106,0l-0,0.401l0.081,-0l0,-0.401l0.183,0l-0,-0.074Z" style="fill:#fff;fill-rule:nonzero;"/></g><g transform="matrix(12,0,0,12,57.8186,-10.6474)"><path d="M0.168,-0.475l-0.081,0l-0,0.475l0.081,-0l-0,-0.475Zm-0.041,-0.225c-0.033,-0 -0.058,0.025 -0.058,0.058c0,0.033 0.025,0.057 0.058,0.057c0.032,0 0.058,-0.024 0.058,-0.057c-0,-0.033 -0.026,-0.058 -0.058,-0.058Z" style="fill:#fff;fill-rule:nonzero;"/></g><g transform="matrix(12,0,0,12,60.8726,-10.6474)"><path d="M0.323,-0.485c-0.055,0 -0.117,0.019 -0.156,0.072l0,-0.062l-0.08,0l-0,0.475l0.081,-0l-0,-0.266c-0,-0.089 0.064,-0.142 0.141,-0.142c0.082,0 0.13,0.052 0.13,0.139l0,0.269l0.082,-0l-0,-0.295c-0,-0.114 -0.081,-0.19 -0.198,-0.19Z" style="fill:#fff;fill-rule:nonzero;"/></g><g transform="matrix(12,0,0,12,68.1026,-10.6474)"><path d="M0.168,-0.475l-0.081,0l-0,0.475l0.081,-0l-0,-0.475Zm-0.041,-0.225c-0.033,-0 -0.058,0.025 -0.058,0.058c0,0.033 0.025,0.057 0.058,0.057c0.032,0 0.058,-0.024 0.058,-0.057c-0,-0.033 -0.026,-0.058 -0.058,-0.058Z" style="fill:#fff;fill-rule:nonzero;"/></g><g transform="matrix(12,0,0,12,71.1566,-10.6474)"><path d="M0.409,-0.475l-0.2,0l0,-0.149l-0.081,0l-0,0.149l-0.102,0l0,0.074l0.102,0l-0,0.234c-0,0.121 0.061,0.177 0.164,0.177c0.058,-0 0.106,-0.021 0.142,-0.047l-0.038,-0.061c-0.027,0.018 -0.062,0.032 -0.097,0.032c-0.052,-0 -0.09,-0.031 -0.09,-0.103l0,-0.232l0.2,0l-0,-0.074Z" style="fill:#fff;fill-rule:nonzero;"/></g><g transform="matrix(12,0,0,12,76.5866,-10.6474)"><path d="M0.287,-0.485c-0.137,0 -0.236,0.101 -0.236,0.247c-0,0.149 0.099,0.248 0.241,0.248c0.07,-0 0.136,-0.017 0.194,-0.072l-0.043,-0.056c-0.04,0.035 -0.091,0.057 -0.146,0.057c-0.082,-0 -0.151,-0.049 -0.162,-0.148l0.373,0c0.001,-0.009 0.002,-0.02 0.002,-0.03c-0.001,-0.146 -0.094,-0.246 -0.223,-0.246Zm-0.002,0.072c0.077,0 0.132,0.054 0.142,0.139l-0.291,-0c0.012,-0.082 0.065,-0.139 0.149,-0.139Z" style="fill:#fff;fill-rule:nonzero;"/></g><g transform="matrix(12,0,0,12,-170.787,3.75257)"><path d="M0.306,-0.485c-0.057,0 -0.106,0.026 -0.139,0.072l-0,-0.062l-0.08,0l-0,0.475l0.081,-0l-0,-0.264c-0,-0.088 0.051,-0.144 0.123,-0.144c0.027,0 0.059,0.007 0.082,0.019l0.02,-0.08c-0.026,-0.011 -0.053,-0.016 -0.087,-0.016Z" style="fill:#fff;fill-rule:nonzero;"/></g><g transform="matrix(12,0,0,12,-165.999,3.75257)"><path d="M0.287,-0.485c-0.137,0 -0.236,0.101 -0.236,0.247c-0,0.149 0.099,0.248 0.241,0.248c0.07,-0 0.136,-0.017 0.194,-0.072l-0.043,-0.056c-0.04,0.035 -0.091,0.057 -0.146,0.057c-0.082,-0 -0.151,-0.049 -0.162,-0.148l0.373,0c0.001,-0.009 0.002,-0.02 0.002,-0.03c-0.001,-0.146 -0.094,-0.246 -0.223,-0.246Zm-0.002,0.072c0.077,0 0.132,0.054 0.142,0.139l-0.291,-0c0.012,-0.082 0.065,-0.139 0.149,-0.139Z" style="fill:#fff;fill-rule:nonzero;"/></g><g transform="matrix(12,0,0,12,-159.273,3.75257)"><path d="M0.442,-0.433c-0.046,-0.031 -0.114,-0.051 -0.19,-0.051c-0.115,-0 -0.19,0.054 -0.19,0.145c-0,0.072 0.051,0.121 0.157,0.134l0.056,0.006c0.064,0.008 0.095,0.03 0.095,0.065c0,0.047 -0.048,0.073 -0.126,0.073c-0.08,-0 -0.127,-0.023 -0.162,-0.051l-0.038,0.061c0.062,0.047 0.141,0.061 0.199,0.061c0.13,-0 0.211,-0.058 0.211,-0.149c-0,-0.078 -0.059,-0.121 -0.16,-0.135l-0.056,-0.007c-0.057,-0.007 -0.092,-0.024 -0.092,-0.062c0,-0.043 0.042,-0.071 0.107,-0.071c0.063,0 0.124,0.024 0.154,0.044l0.035,-0.063Z" style="fill:#fff;fill-rule:nonzero;"/></g><g transform="matrix(12,0,0,12,-153.309,3.75257)"><path d="M0.301,-0.485c-0.144,0 -0.25,0.106 -0.25,0.247c-0,0.142 0.106,0.248 0.25,0.248c0.145,-0 0.252,-0.106 0.252,-0.248c-0,-0.141 -0.107,-0.247 -0.252,-0.247Zm0,0.077c0.096,-0 0.168,0.071 0.168,0.17c0,0.1 -0.072,0.172 -0.168,0.172c-0.095,-0 -0.167,-0.072 -0.167,-0.172c-0,-0.099 0.072,-0.17 0.167,-0.17Z" style="fill:#fff;fill-rule:nonzero;"/></g><g transform="matrix(12,0,0,12,-146.067,3.75257)"><path d="M0.515,-0.475l-0.082,0l0,0.269c0,0.097 -0.057,0.14 -0.135,0.14c-0.077,-0 -0.135,-0.043 -0.135,-0.14l0,-0.269l-0.081,0l-0,0.276c-0,0.144 0.102,0.209 0.216,0.209c0.114,-0 0.217,-0.065 0.217,-0.209l-0,-0.276Z" style="fill:#fff;fill-rule:nonzero;"/></g><g transform="matrix(12,0,0,12,-138.909,3.75257)"><path d="M0.306,-0.485c-0.057,0 -0.106,0.026 -0.139,0.072l-0,-0.062l-0.08,0l-0,0.475l0.081,-0l-0,-0.264c-0,-0.088 0.051,-0.144 0.123,-0.144c0.027,0 0.059,0.007 0.082,0.019l0.02,-0.08c-0.026,-0.011 -0.053,-0.016 -0.087,-0.016Z" style="fill:#fff;fill-rule:nonzero;"/></g><g transform="matrix(12,0,0,12,-134.121,3.75257)"><path d="M0.297,-0.485c-0.147,0 -0.246,0.106 -0.246,0.247c-0,0.142 0.099,0.248 0.246,0.248c0.07,-0 0.133,-0.026 0.176,-0.074l-0.05,-0.057c-0.033,0.032 -0.078,0.055 -0.128,0.055c-0.092,-0 -0.161,-0.072 -0.161,-0.172c-0,-0.099 0.069,-0.17 0.161,-0.17c0.05,-0 0.091,0.019 0.126,0.053l0.052,-0.055c-0.042,-0.049 -0.106,-0.075 -0.176,-0.075Z" style="fill:#fff;fill-rule:nonzero;"/></g><g transform="matrix(12,0,0,12,-128.073,3.75257)"><path d="M0.287,-0.485c-0.137,0 -0.236,0.101 -0.236,0.247c-0,0.149 0.099,0.248 0.241,0.248c0.07,-0 0.136,-0.017 0.194,-0.072l-0.043,-0.056c-0.04,0.035 -0.091,0.057 -0.146,0.057c-0.082,-0 -0.151,-0.049 -0.162,-0.148l0.373,0c0.001,-0.009 0.002,-0.02 0.002,-0.03c-0.001,-0.146 -0.094,-0.246 -0.223,-0.246Zm-0.002,0.072c0.077,0 0.132,0.054 0.142,0.139l-0.291,-0c0.012,-0.082 0.065,-0.139 0.149,-0.139Z" style="fill:#fff;fill-rule:nonzero;"/></g><g transform="matrix(12,0,0,12,-121.347,3.75257)"><path d="M0.442,-0.433c-0.046,-0.031 -0.114,-0.051 -0.19,-0.051c-0.115,-0 -0.19,0.054 -0.19,0.145c-0,0.072 0.051,0.121 0.157,0.134l0.056,0.006c0.064,0.008 0.095,0.03 0.095,0.065c0,0.047 -0.048,0.073 -0.126,0.073c-0.08,-0 -0.127,-0.023 -0.162,-0.051l-0.038,0.061c0.062,0.047 0.141,0.061 0.199,0.061c0.13,-0 0.211,-0.058 0.211,-0.149c-0,-0.078 -0.059,-0.121 -0.16,-0.135l-0.056,-0.007c-0.057,-0.007 -0.092,-0.024 -0.092,-0.062c0,-0.043 0.042,-0.071 0.107,-0.071c0.063,0 0.124,0.024 0.154,0.044l0.035,-0.063Z" style="fill:#fff;fill-rule:nonzero;"/></g><g transform="matrix(12,0,0,12,-112.173,3.75257)"><path d="M0.344,-0.716c-0.163,0.064 -0.272,0.232 -0.272,0.432c0,0.2 0.109,0.368 0.272,0.432l0.029,-0.075c-0.132,-0.056 -0.214,-0.198 -0.214,-0.357c0,-0.159 0.082,-0.301 0.214,-0.357l-0.029,-0.075Z" style="fill:#fff;fill-rule:nonzero;"/></g><g transform="matrix(12,0,0,12,-107.217,3.75257)"><path d="M0.409,-0.475l-0.2,0l0,-0.149l-0.081,0l-0,0.149l-0.102,0l0,0.074l0.102,0l-0,0.234c-0,0.121 0.061,0.177 0.164,0.177c0.058,-0 0.106,-0.021 0.142,-0.047l-0.038,-0.061c-0.027,0.018 -0.062,0.032 -0.097,0.032c-0.052,-0 -0.09,-0.031 -0.09,-0.103l0,-0.232l0.2,0l-0,-0.074Z" style="fill:#fff;fill-rule:nonzero;"/></g><g transform="matrix(12,0,0,12,-101.775,3.75257)"><path d="M0.168,-0.475l-0.081,0l-0,0.475l0.081,-0l-0,-0.475Zm-0.041,-0.225c-0.033,-0 -0.058,0.025 -0.058,0.058c0,0.033 0.025,0.057 0.058,0.057c0.032,0 0.058,-0.024 0.058,-0.057c-0,-0.033 -0.026,-0.058 -0.058,-0.058Z" style="fill:#fff;fill-rule:nonzero;"/></g><g transform="matrix(12,0,0,12,-98.7214,3.75257)"><path d="M0.676,-0.485c-0.065,0 -0.139,0.024 -0.178,0.095c-0.031,-0.059 -0.094,-0.095 -0.175,-0.095c-0.055,0 -0.117,0.019 -0.156,0.072l0,-0.062l-0.08,0l-0,0.475l0.081,-0l-0,-0.266c-0,-0.089 0.064,-0.142 0.141,-0.142c0.082,0 0.13,0.052 0.13,0.139l0,0.269l0.082,-0l-0,-0.267c-0,-0.086 0.061,-0.141 0.14,-0.141c0.083,0 0.131,0.052 0.131,0.139l-0,0.269l0.081,-0l0,-0.295c0,-0.114 -0.08,-0.19 -0.197,-0.19Z" style="fill:#fff;fill-rule:nonzero;"/></g><g transform="matrix(12,0,0,12,-87.2614,3.75257)"><path d="M0.287,-0.485c-0.137,0 -0.236,0.101 -0.236,0.247c-0,0.149 0.099,0.248 0.241,0.248c0.07,-0 0.136,-0.017 0.194,-0.072l-0.043,-0.056c-0.04,0.035 -0.091,0.057 -0.146,0.057c-0.082,-0 -0.151,-0.049 -0.162,-0.148l0.373,0c0.001,-0.009 0.002,-0.02 0.002,-0.03c-0.001,-0.146 -0.094,-0.246 -0.223,-0.246Zm-0.002,0.072c0.077,0 0.132,0.054 0.142,0.139l-0.291,-0c0.012,-0.082 0.065,-0.139 0.149,-0.139Z" style="fill:#fff;fill-rule:nonzero;"/></g><g transform="matrix(12,0,0,12,-80.6254,3.75257)"><path d="M0.09,-0.126l-0.029,0.257l0.07,-0l0.054,-0.257l-0.096,-0Z" style="fill:#fff;fill-rule:nonzero;"/></g><g transform="matrix(12,0,0,12,-74.4334,3.75257)"><path d="M0.676,-0.485c-0.065,0 -0.139,0.024 -0.178,0.095c-0.031,-0.059 -0.094,-0.095 -0.175,-0.095c-0.055,0 -0.117,0.019 -0.156,0.072l0,-0.062l-0.08,0l-0,0.475l0.081,-0l-0,-0.266c-0,-0.089 0.064,-0.142 0.141,-0.142c0.082,0 0.13,0.052 0.13,0.139l0,0.269l0.082,-0l-0,-0.267c-0,-0.086 0.061,-0.141 0.14,-0.141c0.083,0 0.131,0.052 0.131,0.139l-0,0.269l0.081,-0l0,-0.295c0,-0.114 -0.08,-0.19 -0.197,-0.19Z" style="fill:#fff;fill-rule:nonzero;"/></g><g transform="matrix(12,0,0,12,-62.9734,3.75257)"><path d="M0.301,-0.485c-0.144,0 -0.25,0.106 -0.25,0.247c-0,0.142 0.106,0.248 0.25,0.248c0.145,-0 0.252,-0.106 0.252,-0.248c-0,-0.141 -0.107,-0.247 -0.252,-0.247Zm0,0.077c0.096,-0 0.168,0.071 0.168,0.17c0,0.1 -0.072,0.172 -0.168,0.172c-0.095,-0 -0.167,-0.072 -0.167,-0.172c-0,-0.099 0.072,-0.17 0.167,-0.17Z" style="fill:#fff;fill-rule:nonzero;"/></g><g transform="matrix(12,0,0,12,-55.7314,3.75257)"><path d="M0.323,-0.485c-0.055,0 -0.117,0.019 -0.156,0.072l0,-0.062l-0.08,0l-0,0.475l0.081,-0l-0,-0.266c-0,-0.089 0.064,-0.142 0.141,-0.142c0.082,0 0.13,0.052 0.13,0.139l0,0.269l0.082,-0l-0,-0.295c-0,-0.114 -0.081,-0.19 -0.198,-0.19Z" style="fill:#fff;fill-rule:nonzero;"/></g><g transform="matrix(12,0,0,12,-48.5014,3.75257)"><path d="M0.287,-0.485c-0.137,0 -0.236,0.101 -0.236,0.247c-0,0.149 0.099,0.248 0.241,0.248c0.07,-0 0.136,-0.017 0.194,-0.072l-0.043,-0.056c-0.04,0.035 -0.091,0.057 -0.146,0.057c-0.082,-0 -0.151,-0.049 -0.162,-0.148l0.373,0c0.001,-0.009 0.002,-0.02 0.002,-0.03c-0.001,-0.146 -0.094,-0.246 -0.223,-0.246Zm-0.002,0.072c0.077,0 0.132,0.054 0.142,0.139l-0.291,-0c0.012,-0.082 0.065,-0.139 0.149,-0.139Z" style="fill:#fff;fill-rule:nonzero;"/></g><g transform="matrix(12,0,0,12,-41.9554,3.75257)"><path d="M0.525,-0.475l-0.09,0l-0.163,0.292l-0.171,-0.292l-0.091,0l0.217,0.373l-0.176,0.304l0.09,0l0.384,-0.677Z" style="fill:#fff;fill-rule:nonzero;"/></g><g transform="matrix(12,0,0,12,-36.4114,3.75257)"><path d="M0.09,-0.126l-0.029,0.257l0.07,-0l0.054,-0.257l-0.096,-0Z" style="fill:#fff;fill-rule:nonzero;"/></g><g transform="matrix(12,0,0,12,-30.2194,3.75257)"><path d="M0.336,-0.485c-0.076,0 -0.131,0.029 -0.168,0.073l-0,-0.063l-0.081,0l-0,0.675l0.081,-0l-0,-0.263c0.037,0.044 0.092,0.073 0.168,0.073c0.133,-0 0.237,-0.104 0.237,-0.247c-0,-0.144 -0.104,-0.248 -0.237,-0.248Zm-0.01,0.077c0.097,-0 0.163,0.076 0.163,0.17c0,0.095 -0.064,0.172 -0.163,0.172c-0.096,-0 -0.163,-0.074 -0.163,-0.172c-0,-0.097 0.067,-0.17 0.163,-0.17Z" style="fill:#fff;fill-rule:nonzero;"/></g><g transform="matrix(12,0,0,12,-22.7374,3.75257)"><path d="M0.287,-0.485c-0.137,0 -0.236,0.101 -0.236,0.247c-0,0.149 0.099,0.248 0.241,0.248c0.07,-0 0.136,-0.017 0.194,-0.072l-0.043,-0.056c-0.04,0.035 -0.091,0.057 -0.146,0.057c-0.082,-0 -0.151,-0.049 -0.162,-0.148l0.373,0c0.001,-0.009 0.002,-0.02 0.002,-0.03c-0.001,-0.146 -0.094,-0.246 -0.223,-0.246Zm-0.002,0.072c0.077,0 0.132,0.054 0.142,0.139l-0.291,-0c0.012,-0.082 0.065,-0.139 0.149,-0.139Z" style="fill:#fff;fill-rule:nonzero;"/></g><g transform="matrix(12,0,0,12,-16.0114,3.75257)"><path d="M0.301,-0.485c-0.144,0 -0.25,0.106 -0.25,0.247c-0,0.142 0.106,0.248 0.25,0.248c0.145,-0 0.252,-0.106 0.252,-0.248c-0,-0.141 -0.107,-0.247 -0.252,-0.247Zm0,0.077c0.096,-0 0.168,0.071 0.168,0.17c0,0.1 -0.072,0.172 -0.168,0.172c-0.095,-0 -0.167,-0.072 -0.167,-0.172c-0,-0.099 0.072,-0.17 0.167,-0.17Z" style="fill:#fff;fill-rule:nonzero;"/></g><g transform="matrix(12,0,0,12,-8.7694,3.75257)"><path d="M0.336,-0.485c-0.076,0 -0.131,0.029 -0.168,0.073l-0,-0.063l-0.081,0l-0,0.675l0.081,-0l-0,-0.263c0.037,0.044 0.092,0.073 0.168,0.073c0.133,-0 0.237,-0.104 0.237,-0.247c-0,-0.144 -0.104,-0.248 -0.237,-0.248Zm-0.01,0.077c0.097,-0 0.163,0.076 0.163,0.17c0,0.095 -0.064,0.172 -0.163,0.172c-0.096,-0 -0.163,-0.074 -0.163,-0.172c-0,-0.097 0.067,-0.17 0.163,-0.17Z" style="fill:#fff;fill-rule:nonzero;"/></g><g transform="matrix(12,0,0,12,-1.2874,3.75257)"><rect x="0.087" y="-0.72" width="0.081" height="0.72" style="fill:#fff;fill-rule:nonzero;"/></g><g transform="matrix(12,0,0,12,1.7666,3.75257)"><path d="M0.287,-0.485c-0.137,0 -0.236,0.101 -0.236,0.247c-0,0.149 0.099,0.248 0.241,0.248c0.07,-0 0.136,-0.017 0.194,-0.072l-0.043,-0.056c-0.04,0.035 -0.091,0.057 -0.146,0.057c-0.082,-0 -0.151,-0.049 -0.162,-0.148l0.373,0c0.001,-0.009 0.002,-0.02 0.002,-0.03c-0.001,-0.146 -0.094,-0.246 -0.223,-0.246Zm-0.002,0.072c0.077,0 0.132,0.054 0.142,0.139l-0.291,-0c0.012,-0.082 0.065,-0.139 0.149,-0.139Z" style="fill:#fff;fill-rule:nonzero;"/></g><g transform="matrix(12,0,0,12,8.4026,3.75257)"><path d="M0.09,-0.126l-0.029,0.257l0.07,-0l0.054,-0.257l-0.096,-0Z" style="fill:#fff;fill-rule:nonzero;"/></g><g transform="matrix(12,0,0,12,14.5946,3.75257)"><path d="M0.287,-0.485c-0.137,0 -0.236,0.101 -0.236,0.247c-0,0.149 0.099,0.248 0.241,0.248c0.07,-0 0.136,-0.017 0.194,-0.072l-0.043,-0.056c-0.04,0.035 -0.091,0.057 -0.146,0.057c-0.082,-0 -0.151,-0.049 -0.162,-0.148l0.373,0c0.001,-0.009 0.002,-0.02 0.002,-0.03c-0.001,-0.146 -0.094,-0.246 -0.223,-0.246Zm-0.002,0.072c0.077,0 0.132,0.054 0.142,0.139l-0.291,-0c0.012,-0.082 0.065,-0.139 0.149,-0.139Z" style="fill:#fff;fill-rule:nonzero;"/></g><g transform="matrix(12,0,0,12,21.2606,3.75257)"><path d="M0.409,-0.475l-0.2,0l0,-0.149l-0.081,0l-0,0.149l-0.102,0l0,0.074l0.102,0l-0,0.234c-0,0.121 0.061,0.177 0.164,0.177c0.058,-0 0.106,-0.021 0.142,-0.047l-0.038,-0.061c-0.027,0.018 -0.062,0.032 -0.097,0.032c-0.052,-0 -0.09,-0.031 -0.09,-0.103l0,-0.232l0.2,0l-0,-0.074Z" style="fill:#fff;fill-rule:nonzero;"/></g><g transform="matrix(12,0,0,12,26.6906,3.75257)"><path d="M0.297,-0.485c-0.147,0 -0.246,0.106 -0.246,0.247c-0,0.142 0.099,0.248 0.246,0.248c0.07,-0 0.133,-0.026 0.176,-0.074l-0.05,-0.057c-0.033,0.032 -0.078,0.055 -0.128,0.055c-0.092,-0 -0.161,-0.072 -0.161,-0.172c-0,-0.099 0.069,-0.17 0.161,-0.17c0.05,-0 0.091,0.019 0.126,0.053l0.052,-0.055c-0.042,-0.049 -0.106,-0.075 -0.176,-0.075Z" style="fill:#fff;fill-rule:nonzero;"/></g><g transform="matrix(12,0,0,12,32.8406,3.75257)"><path d="M0.131,-0.127c-0.036,0 -0.068,0.032 -0.068,0.068c0,0.037 0.032,0.069 0.068,0.069c0.037,-0 0.068,-0.032 0.068,-0.069c0,-0.036 -0.031,-0.068 -0.068,-0.068Z" style="fill:#fff;fill-rule:nonzero;"/></g><g transform="matrix(12,0,0,12,35.9906,3.75257)"><path d="M0.069,0.147c0.163,-0.064 0.272,-0.232 0.272,-0.432c-0,-0.2 -0.109,-0.368 -0.272,-0.432l-0.029,0.075c0.132,0.056 0.214,0.198 0.214,0.357c-0,0.159 -0.082,0.301 -0.214,0.357l0.029,0.075Z" style="fill:#fff;fill-rule:nonzero;"/></g><g transform="matrix(12,0,0,12,44.0666,3.75257)"><path d="M0.409,-0.475l-0.2,0l0,-0.149l-0.081,0l-0,0.149l-0.102,0l0,0.074l0.102,0l-0,0.234c-0,0.121 0.061,0.177 0.164,0.177c0.058,-0 0.106,-0.021 0.142,-0.047l-0.038,-0.061c-0.027,0.018 -0.062,0.032 -0.097,0.032c-0.052,-0 -0.09,-0.031 -0.09,-0.103l0,-0.232l0.2,0l-0,-0.074Z" style="fill:#fff;fill-rule:nonzero;"/></g><g transform="matrix(12,0,0,12,49.4966,3.75257)"><path d="M0.301,-0.485c-0.144,0 -0.25,0.106 -0.25,0.247c-0,0.142 0.106,0.248 0.25,0.248c0.145,-0 0.252,-0.106 0.252,-0.248c-0,-0.141 -0.107,-0.247 -0.252,-0.247Zm0,0.077c0.096,-0 0.168,0.071 0.168,0.17c0,0.1 -0.072,0.172 -0.168,0.172c-0.095,-0 -0.167,-0.072 -0.167,-0.172c-0,-0.099 0.072,-0.17 0.167,-0.17Z" style="fill:#fff;fill-rule:nonzero;"/></g><g transform="matrix(12,0,0,12,59.7266,3.75257)"><path d="M0.525,-0.475l-0.09,0l-0.163,0.292l-0.171,-0.292l-0.091,0l0.217,0.373l-0.176,0.304l0.09,0l0.384,-0.677Z" style="fill:#fff;fill-rule:nonzero;"/></g><g transform="matrix(12,0,0,12,66.0086,3.75257)"><path d="M0.301,-0.485c-0.144,0 -0.25,0.106 -0.25,0.247c-0,0.142 0.106,0.248 0.25,0.248c0.145,-0 0.252,-0.106 0.252,-0.248c-0,-0.141 -0.107,-0.247 -0.252,-0.247Zm0,0.077c0.096,-0 0.168,0.071 0.168,0.17c0,0.1 -0.072,0.172 -0.168,0.172c-0.095,-0 -0.167,-0.072 -0.167,-0.172c-0,-0.099 0.072,-0.17 0.167,-0.17Z" style="fill:#fff;fill-rule:nonzero;"/></g><g transform="matrix(12,0,0,12,73.2506,3.75257)"><path d="M0.515,-0.475l-0.082,0l0,0.269c0,0.097 -0.057,0.14 -0.135,0.14c-0.077,-0 -0.135,-0.043 -0.135,-0.14l0,-0.269l-0.081,0l-0,0.276c-0,0.144 0.102,0.209 0.216,0.209c0.114,-0 0.217,-0.065 0.217,-0.209l-0,-0.276Z" style="fill:#fff;fill-rule:nonzero;"/></g><g transform="matrix(12,0,0,12,80.4086,3.75257)"><path d="M0.306,-0.485c-0.057,0 -0.106,0.026 -0.139,0.072l-0,-0.062l-0.08,0l-0,0.475l0.081,-0l-0,-0.264c-0,-0.088 0.051,-0.144 0.123,-0.144c0.027,0 0.059,0.007 0.082,0.019l0.02,-0.08c-0.026,-0.011 -0.053,-0.016 -0.087,-0.016Z" style="fill:#fff;fill-rule:nonzero;"/></g><g transform="matrix(12,0,0,12,-170.787,18.1526)"><path d="M0.442,-0.433c-0.046,-0.031 -0.114,-0.051 -0.19,-0.051c-0.115,-0 -0.19,0.054 -0.19,0.145c-0,0.072 0.051,0.121 0.157,0.134l0.056,0.006c0.064,0.008 0.095,0.03 0.095,0.065c0,0.047 -0.048,0.073 -0.126,0.073c-0.08,-0 -0.127,-0.023 -0.162,-0.051l-0.038,0.061c0.062,0.047 0.141,0.061 0.199,0.061c0.13,-0 0.211,-0.058 0.211,-0.149c-0,-0.078 -0.059,-0.121 -0.16,-0.135l-0.056,-0.007c-0.057,-0.007 -0.092,-0.024 -0.092,-0.062c0,-0.043 0.042,-0.071 0.107,-0.071c0.063,0 0.124,0.024 0.154,0.044l0.035,-0.063Z" style="fill:#fff;fill-rule:nonzero;"/></g><g transform="matrix(12,0,0,12,-164.823,18.1526)"><path d="M0.301,-0.485c-0.144,0 -0.25,0.106 -0.25,0.247c-0,0.142 0.106,0.248 0.25,0.248c0.145,-0 0.252,-0.106 0.252,-0.248c-0,-0.141 -0.107,-0.247 -0.252,-0.247Zm0,0.077c0.096,-0 0.168,0.071 0.168,0.17c0,0.1 -0.072,0.172 -0.168,0.172c-0.095,-0 -0.167,-0.072 -0.167,-0.172c-0,-0.099 0.072,-0.17 0.167,-0.17Z" style="fill:#fff;fill-rule:nonzero;"/></g><g transform="matrix(12,0,0,12,-157.641,18.1526)"><path d="M0.396,-0.475l-0.183,0l0,-0.081c0,-0.062 0.025,-0.098 0.082,-0.098c0.035,0 0.07,0.013 0.095,0.028l0.03,-0.068c-0.034,-0.021 -0.077,-0.036 -0.131,-0.036c-0.112,0 -0.157,0.074 -0.157,0.174l-0,0.081l-0.106,0l0,0.074l0.106,0l-0,0.401l0.081,-0l0,-0.401l0.183,0l-0,-0.074Z" style="fill:#fff;fill-rule:nonzero;"/></g><g transform="matrix(12,0,0,12,-152.631,18.1526)"><path d="M0.409,-0.475l-0.2,0l0,-0.149l-0.081,0l-0,0.149l-0.102,0l0,0.074l0.102,0l-0,0.234c-0,0.121 0.061,0.177 0.164,0.177c0.058,-0 0.106,-0.021 0.142,-0.047l-0.038,-0.061c-0.027,0.018 -0.062,0.032 -0.097,0.032c-0.052,-0 -0.09,-0.031 -0.09,-0.103l0,-0.232l0.2,0l-0,-0.074Z" style="fill:#fff;fill-rule:nonzero;"/></g><g transform="matrix(12,0,0,12,-147.189,18.1526)"><path d="M0.471,-0.475l-0.093,0l-0.135,0.388l-0.135,-0.388l-0.087,0l0.171,0.475l0.096,-0l0.135,-0.386l0.136,0.386l0.098,-0l0.171,-0.475l-0.086,0l-0.135,0.389l-0.136,-0.389Z" style="fill:#fff;fill-rule:nonzero;"/></g><g transform="matrix(12,0,0,12,-137.007,18.1526)"><path d="M0.537,-0.475l-0.081,0l-0,0.064c-0.038,-0.045 -0.093,-0.074 -0.168,-0.074c-0.134,0 -0.237,0.104 -0.237,0.247c-0,0.144 0.103,0.248 0.237,0.248c0.075,-0 0.13,-0.029 0.168,-0.073l-0,0.063l0.081,-0l0,-0.475Zm-0.239,0.067c0.096,-0 0.163,0.073 0.163,0.17c-0,0.098 -0.067,0.172 -0.163,0.172c-0.098,-0 -0.164,-0.077 -0.164,-0.172c-0,-0.094 0.064,-0.17 0.164,-0.17Z" style="fill:#fff;fill-rule:nonzero;"/></g><g transform="matrix(12,0,0,12,-129.519,18.1526)"><path d="M0.306,-0.485c-0.057,0 -0.106,0.026 -0.139,0.072l-0,-0.062l-0.08,0l-0,0.475l0.081,-0l-0,-0.264c-0,-0.088 0.051,-0.144 0.123,-0.144c0.027,0 0.059,0.007 0.082,0.019l0.02,-0.08c-0.026,-0.011 -0.053,-0.016 -0.087,-0.016Z" style="fill:#fff;fill-rule:nonzero;"/></g><g transform="matrix(12,0,0,12,-124.731,18.1526)"><path d="M0.287,-0.485c-0.137,0 -0.236,0.101 -0.236,0.247c-0,0.149 0.099,0.248 0.241,0.248c0.07,-0 0.136,-0.017 0.194,-0.072l-0.043,-0.056c-0.04,0.035 -0.091,0.057 -0.146,0.057c-0.082,-0 -0.151,-0.049 -0.162,-0.148l0.373,0c0.001,-0.009 0.002,-0.02 0.002,-0.03c-0.001,-0.146 -0.094,-0.246 -0.223,-0.246Zm-0.002,0.072c0.077,0 0.132,0.054 0.142,0.139l-0.291,-0c0.012,-0.082 0.065,-0.139 0.149,-0.139Z" style="fill:#fff;fill-rule:nonzero;"/></g><g transform="matrix(12,0,0,12,-114.795,18.1526)"><path d="M0.336,-0.485c-0.076,0 -0.131,0.029 -0.168,0.073l-0,-0.063l-0.081,0l-0,0.675l0.081,-0l-0,-0.263c0.037,0.044 0.092,0.073 0.168,0.073c0.133,-0 0.237,-0.104 0.237,-0.247c-0,-0.144 -0.104,-0.248 -0.237,-0.248Zm-0.01,0.077c0.097,-0 0.163,0.076 0.163,0.17c0,0.095 -0.064,0.172 -0.163,0.172c-0.096,-0 -0.163,-0.074 -0.163,-0.172c-0,-0.097 0.067,-0.17 0.163,-0.17Z" style="fill:#fff;fill-rule:nonzero;"/></g><g transform="matrix(12,0,0,12,-107.313,18.1526)"><path d="M0.306,-0.485c-0.057,0 -0.106,0.026 -0.139,0.072l-0,-0.062l-0.08,0l-0,0.475l0.081,-0l-0,-0.264c-0,-0.088 0.051,-0.144 0.123,-0.144c0.027,0 0.059,0.007 0.082,0.019l0.02,-0.08c-0.026,-0.011 -0.053,-0.016 -0.087,-0.016Z" style="fill:#fff;fill-rule:nonzero;"/></g><g transform="matrix(12,0,0,12,-102.525,18.1526)"><path d="M0.301,-0.485c-0.144,0 -0.25,0.106 -0.25,0.247c-0,0.142 0.106,0.248 0.25,0.248c0.145,-0 0.252,-0.106 0.252,-0.248c-0,-0.141 -0.107,-0.247 -0.252,-0.247Zm0,0.077c0.096,-0 0.168,0.071 0.168,0.17c0,0.1 -0.072,0.172 -0.168,0.172c-0.095,-0 -0.167,-0.072 -0.167,-0.172c-0,-0.099 0.072,-0.17 0.167,-0.17Z" style="fill:#fff;fill-rule:nonzero;"/></g><g transform="matrix(12,0,0,12,-95.2834,18.1526)"><path d="M0.17,-0.475l-0.081,0l-0,0.545c-0,0.043 -0.02,0.061 -0.049,0.061c-0.015,0 -0.03,-0.004 -0.042,-0.009l-0.02,0.07c0.018,0.009 0.045,0.016 0.069,0.016c0.075,-0 0.123,-0.047 0.123,-0.134l0,-0.549Zm-0.041,-0.225c-0.033,-0 -0.058,0.025 -0.058,0.058c0,0.033 0.025,0.057 0.058,0.057c0.032,0 0.058,-0.024 0.058,-0.057c-0,-0.033 -0.026,-0.058 -0.058,-0.058Z" style="fill:#fff;fill-rule:nonzero;"/></g><g transform="matrix(12,0,0,12,-92.1994,18.1526)"><path d="M0.287,-0.485c-0.137,0 -0.236,0.101 -0.236,0.247c-0,0.149 0.099,0.248 0.241,0.248c0.07,-0 0.136,-0.017 0.194,-0.072l-0.043,-0.056c-0.04,0.035 -0.091,0.057 -0.146,0.057c-0.082,-0 -0.151,-0.049 -0.162,-0.148l0.373,0c0.001,-0.009 0.002,-0.02 0.002,-0.03c-0.001,-0.146 -0.094,-0.246 -0.223,-0.246Zm-0.002,0.072c0.077,0 0.132,0.054 0.142,0.139l-0.291,-0c0.012,-0.082 0.065,-0.139 0.149,-0.139Z" style="fill:#fff;fill-rule:nonzero;"/></g><g transform="matrix(12,0,0,12,-85.4734,18.1526)"><path d="M0.297,-0.485c-0.147,0 -0.246,0.106 -0.246,0.247c-0,0.142 0.099,0.248 0.246,0.248c0.07,-0 0.133,-0.026 0.176,-0.074l-0.05,-0.057c-0.033,0.032 -0.078,0.055 -0.128,0.055c-0.092,-0 -0.161,-0.072 -0.161,-0.172c-0,-0.099 0.069,-0.17 0.161,-0.17c0.05,-0 0.091,0.019 0.126,0.053l0.052,-0.055c-0.042,-0.049 -0.106,-0.075 -0.176,-0.075Z" style="fill:#fff;fill-rule:nonzero;"/></g><g transform="matrix(12,0,0,12,-79.2454,18.1526)"><path d="M0.409,-0.475l-0.2,0l0,-0.149l-0.081,0l-0,0.149l-0.102,0l0,0.074l0.102,0l-0,0.234c-0,0.121 0.061,0.177 0.164,0.177c0.058,-0 0.106,-0.021 0.142,-0.047l-0.038,-0.061c-0.027,0.018 -0.062,0.032 -0.097,0.032c-0.052,-0 -0.09,-0.031 -0.09,-0.103l0,-0.232l0.2,0l-0,-0.074Z" style="fill:#fff;fill-rule:nonzero;"/></g><g transform="matrix(12,0,0,12,-73.5334,18.1526)"><path d="M0.131,-0.127c-0.036,0 -0.068,0.032 -0.068,0.068c0,0.037 0.032,0.069 0.068,0.069c0.037,-0 0.068,-0.032 0.068,-0.069c0,-0.036 -0.031,-0.068 -0.068,-0.068Z" style="fill:#fff;fill-rule:nonzero;"/></g><g transform="matrix(12,0,0,12,-67.1734,18.1526)"><path d="M1.073,-0.7l-0.142,0l-0.151,0.537l-0.156,-0.537l-0.155,0l-0.156,0.537l-0.151,-0.537l-0.145,0l0.209,0.7l0.169,-0l0.15,-0.5l0.15,0.5l0.169,-0l0.209,-0.7Z" style="fill:#f39260;fill-rule:nonzero;"/></g><g transform="matrix(12,0,0,12,-54.0934,18.1526)"><path d="M0.199,-0.72l-0.13,-0l-0,0.72l0.13,-0l-0,-0.266c-0,-0.073 0.046,-0.109 0.103,-0.109c0.059,-0 0.094,0.038 0.094,0.108l0,0.267l0.13,-0l0,-0.309c0,-0.112 -0.078,-0.188 -0.188,-0.188c-0.053,-0 -0.105,0.017 -0.139,0.064l-0,-0.287Z" style="fill:#f39260;fill-rule:nonzero;"/></g><g transform="matrix(12,0,0,12,-47.0014,18.1526)"><path d="M0.545,-0.484l-0.127,-0l0,0.053c-0.032,-0.039 -0.078,-0.066 -0.145,-0.066c-0.134,-0 -0.234,0.109 -0.234,0.255c-0,0.145 0.1,0.254 0.234,0.254c0.067,0 0.114,-0.027 0.145,-0.065l0,0.053l0.127,-0l0,-0.484Zm-0.248,0.108c0.075,-0 0.125,0.057 0.125,0.134c0,0.076 -0.05,0.133 -0.125,0.133c-0.077,0 -0.125,-0.059 -0.125,-0.133c-0,-0.075 0.048,-0.134 0.125,-0.134Z" style="fill:#f39260;fill-rule:nonzero;"/></g><g transform="matrix(12,0,0,12,-39.6334,18.1526)"><path d="M0.42,-0.484l-0.176,-0l0,-0.144l-0.13,-0l0,0.144l-0.093,-0l-0,0.115l0.093,0l0,0.188c0,0.126 0.062,0.193 0.181,0.193c0.069,0 0.118,-0.022 0.161,-0.051l-0.048,-0.101c-0.027,0.016 -0.06,0.031 -0.091,0.031c-0.041,0 -0.073,-0.022 -0.073,-0.082l0,-0.178l0.176,0l-0,-0.115Z" style="fill:#f39260;fill-rule:nonzero;"/></g><g transform="matrix(12,0,0,12,-31.1254,18.1526)"><path d="M0.502,-0.484l-0.138,-0l-0.108,0.338l-0.104,-0.338l-0.138,-0l0.164,0.484l0.148,-0l0.106,-0.327l0.108,0.327l0.149,-0l0.164,-0.484l-0.137,-0l-0.104,0.339l-0.11,-0.339Z" style="fill:#f39260;fill-rule:nonzero;"/></g><g transform="matrix(12,0,0,12,-20.8594,18.1526)"><path d="M0.3,-0.497c-0.151,-0 -0.261,0.108 -0.261,0.255c-0,0.146 0.11,0.254 0.261,0.254c0.151,0 0.262,-0.108 0.262,-0.254c0,-0.147 -0.111,-0.255 -0.262,-0.255Zm0,0.121c0.074,-0 0.129,0.055 0.129,0.134c0,0.078 -0.055,0.133 -0.129,0.133c-0.074,0 -0.129,-0.055 -0.129,-0.133c0,-0.079 0.055,-0.134 0.129,-0.134Z" style="fill:#f39260;fill-rule:nonzero;"/></g><g transform="matrix(12,0,0,12,-13.6534,18.1526)"><path d="M0.523,-0.484l-0.13,-0l0,0.266c0,0.078 -0.043,0.109 -0.099,0.109c-0.057,0 -0.099,-0.031 -0.099,-0.109l-0,-0.266l-0.13,-0l-0,0.278c-0,0.153 0.107,0.218 0.229,0.218c0.121,0 0.229,-0.065 0.229,-0.218l-0,-0.278Z" style="fill:#f39260;fill-rule:nonzero;"/></g><g transform="matrix(12,0,0,12,-6.6034,18.1526)"><rect x="0.069" y="-0.72" width="0.13" height="0.72" style="fill:#f39260;fill-rule:nonzero;"/></g><g transform="matrix(12,0,0,12,-3.3934,18.1526)"><path d="M0.273,-0.497c-0.134,-0 -0.234,0.109 -0.234,0.255c-0,0.145 0.1,0.254 0.234,0.254c0.067,0 0.114,-0.027 0.145,-0.065l0,0.053l0.127,-0l0,-0.72l-0.129,0l-0,0.286c-0.032,-0.038 -0.078,-0.063 -0.143,-0.063Zm0.024,0.121c0.075,-0 0.125,0.057 0.125,0.133c0,0.077 -0.05,0.134 -0.125,0.134c-0.077,0 -0.125,-0.059 -0.125,-0.133c-0,-0.075 0.048,-0.134 0.125,-0.134Z" style="fill:#f39260;fill-rule:nonzero;"/></g><g transform="matrix(12,0,0,12,6.7406,18.1526)"><path d="M0.56,-0.484l-0.144,-0l-0.129,0.249l-0.133,-0.249l-0.148,-0l0.209,0.381l-0.169,0.305l0.143,-0l0.37,-0.686Z" style="fill:#f39260;fill-rule:nonzero;"/></g><g transform="matrix(12,0,0,12,13.2626,18.1526)"><path d="M0.3,-0.497c-0.151,-0 -0.261,0.108 -0.261,0.255c-0,0.146 0.11,0.254 0.261,0.254c0.151,0 0.262,-0.108 0.262,-0.254c0,-0.147 -0.111,-0.255 -0.262,-0.255Zm0,0.121c0.074,-0 0.129,0.055 0.129,0.134c0,0.078 -0.055,0.133 -0.129,0.133c-0.074,0 -0.129,-0.055 -0.129,-0.133c0,-0.079 0.055,-0.134 0.129,-0.134Z" style="fill:#f39260;fill-rule:nonzero;"/></g><g transform="matrix(12,0,0,12,20.4686,18.1526)"><path d="M0.523,-0.484l-0.13,-0l0,0.266c0,0.078 -0.043,0.109 -0.099,0.109c-0.057,0 -0.099,-0.031 -0.099,-0.109l-0,-0.266l-0.13,-0l-0,0.278c-0,0.153 0.107,0.218 0.229,0.218c0.121,0 0.229,-0.065 0.229,-0.218l-0,-0.278Z" style="fill:#f39260;fill-rule:nonzero;"/></g><g transform="matrix(12,0,0,12,30.4886,18.1526)"><path d="M0.273,-0.497c-0.134,-0 -0.234,0.109 -0.234,0.255c-0,0.145 0.1,0.254 0.234,0.254c0.067,0 0.114,-0.027 0.145,-0.065l0,0.053l0.127,-0l0,-0.72l-0.129,0l-0,0.286c-0.032,-0.038 -0.078,-0.063 -0.143,-0.063Zm0.024,0.121c0.075,-0 0.125,0.057 0.125,0.133c0,0.077 -0.05,0.134 -0.125,0.134c-0.077,0 -0.125,-0.059 -0.125,-0.133c-0,-0.075 0.048,-0.134 0.125,-0.134Z" style="fill:#f39260;fill-rule:nonzero;"/></g><g transform="matrix(12,0,0,12,37.8566,18.1526)"><path d="M0.3,-0.497c-0.151,-0 -0.261,0.108 -0.261,0.255c-0,0.146 0.11,0.254 0.261,0.254c0.151,0 0.262,-0.108 0.262,-0.254c0,-0.147 -0.111,-0.255 -0.262,-0.255Zm0,0.121c0.074,-0 0.129,0.055 0.129,0.134c0,0.078 -0.055,0.133 -0.129,0.133c-0.074,0 -0.129,-0.055 -0.129,-0.133c0,-0.079 0.055,-0.134 0.129,-0.134Z" style="fill:#f39260;fill-rule:nonzero;"/></g><g transform="matrix(12,0,0,12,45.0626,18.1526)"><path d="M0.206,-0.239l0.004,-0.058c0.14,-0.022 0.216,-0.095 0.216,-0.211c0,-0.127 -0.1,-0.207 -0.275,-0.207c-0.034,0 -0.073,0.003 -0.101,0.007l0.01,0.131c0.021,-0.002 0.049,-0.004 0.076,-0.004c0.095,-0 0.147,0.029 0.147,0.083c-0,0.059 -0.053,0.089 -0.149,0.089l-0.048,0l0,0.17l0.12,-0Zm-0.059,0.061c-0.051,0 -0.096,0.044 -0.096,0.095c0,0.051 0.045,0.095 0.096,0.095c0.05,0 0.094,-0.044 0.094,-0.096c-0,-0.05 -0.044,-0.094 -0.094,-0.094Z" style="fill:#f39260;fill-rule:nonzero;"/></g></g><path d="M22.515,394.69c-1.323,0 -2.218,0.958 -2.218,2.227c0,1.27 0.895,2.228 2.218,2.228c0.635,-0 1.202,-0.234 1.589,-0.67l-0.455,-0.509c-0.297,0.288 -0.697,0.491 -1.152,0.491c-0.823,-0 -1.449,-0.644 -1.449,-1.54c0,-0.895 0.626,-1.534 1.449,-1.534c0.455,-0 0.819,0.175 1.134,0.481l0.473,-0.499c-0.383,-0.441 -0.954,-0.675 -1.589,-0.675Z" style="fill:#fff;fill-rule:nonzero;"/><path d="M29.216,394.78l-0.738,0l0,0.576c-0.337,-0.405 -0.837,-0.666 -1.507,-0.666c-1.202,0 -2.138,0.936 -2.138,2.227c0,1.292 0.936,2.228 2.138,2.228c0.67,-0 1.17,-0.261 1.507,-0.661l0,0.571l0.738,-0l-0,-4.275Zm-2.16,0.603c0.864,-0 1.467,0.661 1.467,1.534c0,0.878 -0.603,1.54 -1.467,1.54c-0.878,-0 -1.472,-0.689 -1.472,-1.54c0,-0.85 0.581,-1.534 1.472,-1.534Z" style="fill:#fff;fill-rule:nonzero;"/><path d="M32.748,394.69c-0.508,0 -0.954,0.234 -1.251,0.652l0,-0.562l-0.724,0l0,4.275l0.733,-0l0,-2.381c0,-0.787 0.459,-1.287 1.112,-1.287c0.243,0 0.531,0.059 0.733,0.167l0.18,-0.725c-0.229,-0.098 -0.477,-0.139 -0.783,-0.139Z" style="fill:#fff;fill-rule:nonzero;"/><path d="M36.178,394.69c-1.202,0 -2.138,0.936 -2.138,2.227c0,1.292 0.936,2.228 2.138,2.228c0.67,-0 1.17,-0.261 1.507,-0.661l0,0.571l0.738,-0l-0,-6.48l-0.738,0l0,2.781c-0.337,-0.405 -0.837,-0.666 -1.507,-0.666Zm0.085,0.693c0.864,-0 1.467,0.661 1.467,1.534c0,0.878 -0.603,1.54 -1.467,1.54c-0.878,-0 -1.472,-0.689 -1.472,-1.54c0,-0.85 0.581,-1.534 1.472,-1.534Z" style="fill:#fff;fill-rule:nonzero;"/><path d="M43.179,395.158c-0.413,-0.284 -1.03,-0.463 -1.705,-0.463c-1.04,-0 -1.719,0.494 -1.719,1.313c0,0.648 0.463,1.08 1.422,1.197l0.495,0.059c0.581,0.072 0.86,0.27 0.86,0.585c-0,0.423 -0.432,0.653 -1.135,0.653c-0.715,-0 -1.143,-0.207 -1.462,-0.455l-0.342,0.549c0.563,0.423 1.273,0.549 1.8,0.549c1.166,-0 1.894,-0.527 1.894,-1.341c0,-0.707 -0.535,-1.089 -1.444,-1.211l-0.495,-0.063c-0.518,-0.063 -0.828,-0.22 -0.828,-0.562c-0,-0.387 0.378,-0.635 0.963,-0.635c0.563,0 1.107,0.212 1.377,0.396l0.319,-0.571Z" style="fill:#fff;fill-rule:nonzero;"/><path d="M47.58,395.293l-0.76,0l0,1.742l-1.998,-0l2.304,-4.271l-0.864,0l-2.353,4.405l-0,0.585l2.911,0l0,1.301l0.76,-0l0,-1.301l1.049,0l-0,-0.719l-1.049,-0l0,-1.742Z" style="fill:#fff;fill-rule:nonzero;"/><path d="M49.79,394.159c0.302,-0.405 0.675,-0.765 1.377,-0.765c0.797,-0 1.256,0.535 1.256,1.237c-0,0.518 -0.252,0.941 -0.63,1.337l-2.358,2.489l-0,0.598l3.982,-0l-0,-0.724l-2.853,-0l1.809,-1.922c0.405,-0.428 0.846,-0.99 0.846,-1.773c-0,-1.13 -0.747,-1.971 -2.034,-1.971c-1.089,0 -1.647,0.612 -1.944,1.048l0.549,0.446Z" style="fill:#fff;fill-rule:nonzero;"/><path d="M55.141,397.912c-0.329,0 -0.617,0.283 -0.617,0.612c0,0.333 0.288,0.621 0.617,0.621c0.328,-0 0.611,-0.288 0.611,-0.621c0,-0.329 -0.283,-0.612 -0.611,-0.612Z" style="fill:#fff;fill-rule:nonzero;"/><path d="M58.966,394.69c-1.297,0 -2.259,0.958 -2.259,2.227c-0,1.27 0.962,2.228 2.259,2.228c1.296,-0 2.263,-0.958 2.263,-2.228c-0,-1.269 -0.967,-2.227 -2.263,-2.227Zm-0,0.693c0.855,-0 1.507,0.639 1.507,1.534c0,0.896 -0.652,1.54 -1.507,1.54c-0.86,-0 -1.508,-0.644 -1.508,-1.54c-0,-0.895 0.648,-1.534 1.508,-1.534Z" style="fill:#fff;fill-rule:nonzero;"/><path d="M64.437,394.69c-0.508,0 -0.954,0.234 -1.251,0.652l0,-0.562l-0.724,0l0,4.275l0.733,-0l0,-2.381c0,-0.787 0.459,-1.287 1.112,-1.287c0.243,0 0.531,0.059 0.733,0.167l0.18,-0.725c-0.229,-0.098 -0.477,-0.139 -0.783,-0.139Z" style="fill:#fff;fill-rule:nonzero;"/><path d="M67.844,394.69c-1.202,0 -2.115,0.891 -2.115,2.191c0,1.306 0.913,2.196 2.115,2.196c0.662,0 1.148,-0.256 1.472,-0.665l-0,0.377c-0,0.95 -0.617,1.468 -1.535,1.468c-0.554,-0 -1.062,-0.185 -1.472,-0.478l-0.319,0.595c0.436,0.35 1.125,0.553 1.791,0.553c1.35,-0 2.272,-0.787 2.272,-2.169l0,-3.978l-0.737,0l-0,0.581c-0.324,-0.41 -0.81,-0.671 -1.472,-0.671Zm0.086,0.693c0.85,-0 1.449,0.648 1.449,1.498c-0,0.855 -0.599,1.504 -1.449,1.504c-0.878,-0 -1.45,-0.671 -1.45,-1.504c0,-0.823 0.572,-1.498 1.45,-1.498Z" style="fill:#fff;fill-rule:nonzero;"/><path d="M75.4,392.125l-0.81,0l-3.821,7.83l0.81,-0l3.821,-7.83Z" style="fill:#fff;fill-rule:nonzero;"/><path d="M77.038,394.69c-1.229,0 -2.124,0.913 -2.124,2.227c-0,1.332 0.899,2.228 2.169,2.228c0.63,-0 1.224,-0.153 1.754,-0.648l-0.391,-0.504c-0.364,0.315 -0.819,0.509 -1.318,0.509c-0.734,-0 -1.351,-0.437 -1.454,-1.324l3.361,0c0.005,-0.081 0.014,-0.18 0.014,-0.274c-0.009,-1.31 -0.846,-2.214 -2.011,-2.214Zm-0.014,0.652c0.693,0 1.184,0.486 1.274,1.243l-2.615,-0c0.112,-0.73 0.585,-1.243 1.341,-1.243Z" style="fill:#fff;fill-rule:nonzero;"/><path d="M83.765,394.78l-0.868,0l-1.238,1.579l-1.228,-1.579l-0.9,0l1.647,2.092l-1.688,2.183l0.86,-0l1.269,-1.643l1.287,1.643l0.904,-0l-1.692,-2.192l1.647,-2.083Z" style="fill:#fff;fill-rule:nonzero;"/><path d="M86.987,394.69c-0.675,0 -1.175,0.261 -1.508,0.661l0,-0.571l-0.733,0l0,6.075l0.733,-0l0,-2.371c0.333,0.4 0.833,0.661 1.508,0.661c1.197,-0 2.137,-0.936 2.137,-2.227c0,-1.292 -0.94,-2.228 -2.137,-2.228Zm-0.085,0.693c0.873,-0 1.467,0.684 1.467,1.534c-0,0.851 -0.581,1.54 -1.467,1.54c-0.865,-0 -1.468,-0.662 -1.468,-1.54c0,-0.873 0.603,-1.534 1.468,-1.534Z" style="fill:#fff;fill-rule:nonzero;"/><path d="M92.158,394.69c-1.229,0 -2.124,0.913 -2.124,2.227c-0,1.332 0.899,2.228 2.169,2.228c0.63,-0 1.224,-0.153 1.754,-0.648l-0.391,-0.504c-0.364,0.315 -0.819,0.509 -1.318,0.509c-0.734,-0 -1.351,-0.437 -1.454,-1.324l3.361,0c0.005,-0.081 0.014,-0.18 0.014,-0.274c-0.009,-1.31 -0.846,-2.214 -2.011,-2.214Zm-0.014,0.652c0.693,0 1.184,0.486 1.274,1.243l-2.615,-0c0.112,-0.73 0.585,-1.243 1.341,-1.243Z" style="fill:#fff;fill-rule:nonzero;"/><path d="M97.296,394.69c-1.323,0 -2.218,0.958 -2.218,2.227c0,1.27 0.895,2.228 2.218,2.228c0.635,-0 1.202,-0.234 1.589,-0.67l-0.455,-0.509c-0.297,0.288 -0.697,0.491 -1.152,0.491c-0.823,-0 -1.449,-0.644 -1.449,-1.54c0,-0.895 0.626,-1.534 1.449,-1.534c0.455,-0 0.819,0.175 1.134,0.481l0.473,-0.499c-0.383,-0.441 -0.954,-0.675 -1.589,-0.675Z" style="fill:#fff;fill-rule:nonzero;"/><path d="M102.975,394.78l-1.795,0l-0,-1.341l-0.738,0l0,1.341l-0.913,0l-0,0.67l0.913,0l0,2.097c0,1.089 0.553,1.598 1.48,1.598c0.527,-0 0.954,-0.185 1.283,-0.423l-0.347,-0.553c-0.243,0.166 -0.558,0.288 -0.873,0.288c-0.463,-0 -0.805,-0.279 -0.805,-0.923l-0,-2.084l1.795,0l0,-0.67Z" style="fill:#fff;fill-rule:nonzero;"/><path d="M108.204,394.78l-0.737,0l-0,0.576c-0.338,-0.405 -0.837,-0.666 -1.508,-0.666c-1.202,0 -2.137,0.936 -2.137,2.227c-0,1.292 0.935,2.228 2.137,2.228c0.671,-0 1.17,-0.261 1.508,-0.661l-0,0.571l0.737,-0l0,-4.275Zm-2.159,0.603c0.864,-0 1.467,0.661 1.467,1.534c-0,0.878 -0.603,1.54 -1.467,1.54c-0.878,-0 -1.472,-0.689 -1.472,-1.54c-0,-0.85 0.58,-1.534 1.472,-1.534Z" style="fill:#fff;fill-rule:nonzero;"/><path d="M112.664,394.78l-1.796,0l0,-1.341l-0.737,0l-0,1.341l-0.914,0l0,0.67l0.914,0l-0,2.097c-0,1.089 0.553,1.598 1.48,1.598c0.526,-0 0.954,-0.185 1.282,-0.423l-0.346,-0.553c-0.243,0.166 -0.558,0.288 -0.873,0.288c-0.464,-0 -0.806,-0.279 -0.806,-0.923l0,-2.084l1.796,0l-0,-0.67Z" style="fill:#fff;fill-rule:nonzero;"/><path d="M114.576,394.78l-0.733,0l0,4.275l0.733,-0l0,-4.275Zm-0.373,-2.029c-0.292,-0 -0.517,0.229 -0.517,0.526c-0,0.293 0.225,0.513 0.517,0.513c0.292,0 0.526,-0.22 0.526,-0.513c0,-0.297 -0.234,-0.526 -0.526,-0.526Z" style="fill:#fff;fill-rule:nonzero;"/><path d="M118.069,394.69c-1.297,0 -2.259,0.958 -2.259,2.227c-0,1.27 0.962,2.228 2.259,2.228c1.296,-0 2.263,-0.958 2.263,-2.228c-0,-1.269 -0.967,-2.227 -2.263,-2.227Zm-0,0.693c0.855,-0 1.507,0.639 1.507,1.534c0,0.896 -0.652,1.54 -1.507,1.54c-0.86,-0 -1.508,-0.644 -1.508,-1.54c-0,-0.895 0.648,-1.534 1.508,-1.534Z" style="fill:#fff;fill-rule:nonzero;"/><path d="M123.694,394.69c-0.496,0 -1.049,0.166 -1.4,0.648l-0,-0.558l-0.729,0l0,4.275l0.733,-0l0,-2.399c0,-0.796 0.576,-1.269 1.265,-1.269c0.743,0 1.175,0.464 1.175,1.251l-0,2.417l0.737,-0l0,-2.655c0,-1.026 -0.728,-1.71 -1.781,-1.71Z" style="fill:#fff;fill-rule:nonzero;"/><rect x="23.528" y="32.031" width="3.969" height="13.331" style="fill:none;"/></g></svg>