<?xml version="1.0" encoding="UTF-8" standalone="no"?><!DOCTYPE svg PUBLIC "-//W3C//DTD SVG 1.1//EN" "http://www.w3.org/Graphics/SVG/1.1/DTD/svg11.dtd"><svg width="100%" height="100%" viewBox="0 0 298 420" version="1.1" xmlns="http://www.w3.org/2000/svg" xmlns:xlink="http://www.w3.org/1999/xlink" xml:space="preserve" xmlns:serif="http://www.serif.com/" style="fill-rule:evenodd;clip-rule:evenodd;stroke-linejoin:round;stroke-miterlimit:2;"><clipPath id="_clip1"><rect x="-13.701" y="-14.173" width="345.827" height="460.63"/></clipPath><g clip-path="url(#_clip1)"><g id="Ebene-1" serif:id="Ebene 1"><rect x="-13.701" y="-14.173" width="345.827" height="460.63" style="fill:#004153;"/><g><rect x="218.758" y="385.673" width="3.28" height="13.775" style="fill:#fff;"/><path d="M245.758,399.449l-0,-13.776l-3.28,0l-0,8.423l-6.298,-8.423l-3.148,0l-0,8.423l-6.271,-8.423l-3.149,0l-0,13.776l3.28,-0l-0,-8.397l6.271,8.397l3.175,-0l-0,-8.397l6.271,8.397l3.149,-0Z" style="fill:#fff;fill-rule:nonzero;"/><path d="M254.154,388.56c2.23,-0 3.831,1.627 3.831,3.988c-0,2.362 -1.601,3.988 -3.831,3.988c-2.257,0 -3.831,-1.626 -3.831,-3.988c0,-2.361 1.601,-3.988 3.831,-3.988m0,-3.149c-4.251,0 -7.268,3.044 -7.268,7.137c-0,4.093 3.017,7.137 7.268,7.137c4.251,0 7.268,-3.044 7.268,-7.137c0,-4.093 -3.017,-7.137 -7.268,-7.137" style="fill:#fff;fill-rule:nonzero;"/><path d="M269.609,388.56c2.23,-0 3.831,1.627 3.831,3.988c-0,0.446 -0.053,0.866 -0.158,1.26l-0.446,-0.604l-3.568,0l2.177,2.913c-0.524,0.262 -1.154,0.419 -1.81,0.419c-2.23,0 -3.831,-1.626 -3.831,-3.988c-0.026,-2.335 1.574,-3.988 3.805,-3.988m-0,-3.149c-4.251,0 -7.268,3.044 -7.268,7.137c-0,4.093 3.017,7.137 7.268,7.137c1.443,0 2.676,-0.394 3.726,-1.076l0.603,0.814l3.857,-0l-2.178,-2.939c0.761,-1.102 1.207,-2.388 1.207,-3.936c0.053,-4.093 -2.965,-7.137 -7.215,-7.137" style="fill:#f39260;fill-rule:nonzero;"/></g></g></g><g id="Ebene-11" serif:id="Ebene 1"><path d="M22.515,394.69c-1.323,0 -2.218,0.958 -2.218,2.227c0,1.27 0.895,2.228 2.218,2.228c0.635,-0 1.202,-0.234 1.589,-0.67l-0.455,-0.509c-0.297,0.288 -0.697,0.491 -1.152,0.491c-0.823,-0 -1.449,-0.644 -1.449,-1.54c0,-0.895 0.626,-1.534 1.449,-1.534c0.455,-0 0.819,0.175 1.134,0.481l0.473,-0.499c-0.383,-0.441 -0.954,-0.675 -1.589,-0.675Z" style="fill:#fff;fill-rule:nonzero;"/><path d="M29.216,394.78l-0.738,0l0,0.576c-0.337,-0.405 -0.837,-0.666 -1.507,-0.666c-1.202,0 -2.138,0.936 -2.138,2.227c0,1.292 0.936,2.228 2.138,2.228c0.67,-0 1.17,-0.261 1.507,-0.661l0,0.571l0.738,-0l-0,-4.275Zm-2.16,0.603c0.864,-0 1.467,0.661 1.467,1.534c0,0.878 -0.603,1.54 -1.467,1.54c-0.878,-0 -1.472,-0.689 -1.472,-1.54c0,-0.85 0.581,-1.534 1.472,-1.534Z" style="fill:#fff;fill-rule:nonzero;"/><path d="M32.748,394.69c-0.508,0 -0.954,0.234 -1.251,0.652l0,-0.562l-0.724,0l0,4.275l0.733,-0l0,-2.381c0,-0.787 0.459,-1.287 1.112,-1.287c0.243,0 0.531,0.059 0.733,0.167l0.18,-0.725c-0.229,-0.098 -0.477,-0.139 -0.783,-0.139Z" style="fill:#fff;fill-rule:nonzero;"/><path d="M36.178,394.69c-1.202,0 -2.138,0.936 -2.138,2.227c0,1.292 0.936,2.228 2.138,2.228c0.67,-0 1.17,-0.261 1.507,-0.661l0,0.571l0.738,-0l-0,-6.48l-0.738,0l0,2.781c-0.337,-0.405 -0.837,-0.666 -1.507,-0.666Zm0.085,0.693c0.864,-0 1.467,0.661 1.467,1.534c0,0.878 -0.603,1.54 -1.467,1.54c-0.878,-0 -1.472,-0.689 -1.472,-1.54c0,-0.85 0.581,-1.534 1.472,-1.534Z" style="fill:#fff;fill-rule:nonzero;"/><path d="M43.179,395.158c-0.413,-0.284 -1.03,-0.463 -1.705,-0.463c-1.04,-0 -1.719,0.494 -1.719,1.313c0,0.648 0.463,1.08 1.422,1.197l0.495,0.059c0.581,0.072 0.86,0.27 0.86,0.585c-0,0.423 -0.432,0.653 -1.135,0.653c-0.715,-0 -1.143,-0.207 -1.462,-0.455l-0.342,0.549c0.563,0.423 1.273,0.549 1.8,0.549c1.166,-0 1.894,-0.527 1.894,-1.341c0,-0.707 -0.535,-1.089 -1.444,-1.211l-0.495,-0.063c-0.518,-0.063 -0.828,-0.22 -0.828,-0.562c-0,-0.387 0.378,-0.635 0.963,-0.635c0.563,0 1.107,0.212 1.377,0.396l0.319,-0.571Z" style="fill:#fff;fill-rule:nonzero;"/><path d="M47.58,395.293l-0.76,0l0,1.742l-1.998,-0l2.304,-4.271l-0.864,0l-2.353,4.405l-0,0.585l2.911,0l0,1.301l0.76,-0l0,-1.301l1.049,0l-0,-0.719l-1.049,-0l0,-1.742Z" style="fill:#fff;fill-rule:nonzero;"/><path d="M49.79,394.159c0.302,-0.405 0.675,-0.765 1.377,-0.765c0.797,-0 1.256,0.535 1.256,1.237c-0,0.518 -0.252,0.941 -0.63,1.337l-2.358,2.489l-0,0.598l3.982,-0l-0,-0.724l-2.853,-0l1.809,-1.922c0.405,-0.428 0.846,-0.99 0.846,-1.773c-0,-1.13 -0.747,-1.971 -2.034,-1.971c-1.089,0 -1.647,0.612 -1.944,1.048l0.549,0.446Z" style="fill:#fff;fill-rule:nonzero;"/><path d="M55.141,397.912c-0.329,0 -0.617,0.283 -0.617,0.612c0,0.333 0.288,0.621 0.617,0.621c0.328,-0 0.611,-0.288 0.611,-0.621c0,-0.329 -0.283,-0.612 -0.611,-0.612Z" style="fill:#fff;fill-rule:nonzero;"/><path d="M58.966,394.69c-1.297,0 -2.259,0.958 -2.259,2.227c-0,1.27 0.962,2.228 2.259,2.228c1.296,-0 2.263,-0.958 2.263,-2.228c-0,-1.269 -0.967,-2.227 -2.263,-2.227Zm-0,0.693c0.855,-0 1.507,0.639 1.507,1.534c0,0.896 -0.652,1.54 -1.507,1.54c-0.86,-0 -1.508,-0.644 -1.508,-1.54c-0,-0.895 0.648,-1.534 1.508,-1.534Z" style="fill:#fff;fill-rule:nonzero;"/><path d="M64.437,394.69c-0.508,0 -0.954,0.234 -1.251,0.652l0,-0.562l-0.724,0l0,4.275l0.733,-0l0,-2.381c0,-0.787 0.459,-1.287 1.112,-1.287c0.243,0 0.531,0.059 0.733,0.167l0.18,-0.725c-0.229,-0.098 -0.477,-0.139 -0.783,-0.139Z" style="fill:#fff;fill-rule:nonzero;"/><path d="M67.844,394.69c-1.202,0 -2.115,0.891 -2.115,2.191c0,1.306 0.913,2.196 2.115,2.196c0.662,0 1.148,-0.256 1.472,-0.665l-0,0.377c-0,0.95 -0.617,1.468 -1.535,1.468c-0.554,-0 -1.062,-0.185 -1.472,-0.478l-0.319,0.595c0.436,0.35 1.125,0.553 1.791,0.553c1.35,-0 2.272,-0.787 2.272,-2.169l0,-3.978l-0.737,0l-0,0.581c-0.324,-0.41 -0.81,-0.671 -1.472,-0.671Zm0.086,0.693c0.85,-0 1.449,0.648 1.449,1.498c-0,0.855 -0.599,1.504 -1.449,1.504c-0.878,-0 -1.45,-0.671 -1.45,-1.504c0,-0.823 0.572,-1.498 1.45,-1.498Z" style="fill:#fff;fill-rule:nonzero;"/><path d="M75.4,392.125l-0.81,0l-3.821,7.83l0.81,-0l3.821,-7.83Z" style="fill:#fff;fill-rule:nonzero;"/><path d="M79.296,394.78l-0.737,0l-0,0.576c-0.338,-0.405 -0.837,-0.666 -1.508,-0.666c-1.202,0 -2.137,0.936 -2.137,2.227c-0,1.292 0.935,2.228 2.137,2.228c0.671,-0 1.17,-0.261 1.508,-0.661l-0,0.571l0.737,-0l0,-4.275Zm-2.159,0.603c0.864,-0 1.467,0.661 1.467,1.534c-0,0.878 -0.603,1.54 -1.467,1.54c-0.878,-0 -1.472,-0.689 -1.472,-1.54c-0,-0.85 0.58,-1.534 1.472,-1.534Z" style="fill:#fff;fill-rule:nonzero;"/><path d="M82.667,394.69c-1.202,0 -2.137,0.936 -2.137,2.227c-0,1.292 0.935,2.228 2.137,2.228c0.671,-0 1.17,-0.261 1.508,-0.661l-0,0.571l0.737,-0l0,-6.48l-0.737,0l-0,2.781c-0.338,-0.405 -0.837,-0.666 -1.508,-0.666Zm0.086,0.693c0.864,-0 1.467,0.661 1.467,1.534c-0,0.878 -0.603,1.54 -1.467,1.54c-0.878,-0 -1.472,-0.689 -1.472,-1.54c-0,-0.85 0.58,-1.534 1.472,-1.534Z" style="fill:#fff;fill-rule:nonzero;"/><path d="M88.445,394.69c-0.509,0 -0.954,0.234 -1.251,0.652l-0,-0.562l-0.724,0l-0,4.275l0.733,-0l-0,-2.381c-0,-0.787 0.459,-1.287 1.111,-1.287c0.243,0 0.531,0.059 0.734,0.167l0.18,-0.725c-0.23,-0.098 -0.477,-0.139 -0.783,-0.139Z" style="fill:#fff;fill-rule:nonzero;"/></g><path d="M27.427,20.021l-3.192,-0l-4.296,11.199l2.792,-0l0.848,-2.352l4.448,-0l0.848,2.352l2.848,-0l-4.296,-11.199Zm-1.624,2.656l1.36,3.776l-2.72,-0l1.36,-3.776Z" style="fill:#fff;fill-rule:nonzero;"/><path d="M37.242,23.157c-0.96,-0 -1.688,0.36 -2.144,1.119l0,-0.903l-2.399,-0l0,7.847l2.503,-0l0,-4.24c0,-0.976 0.544,-1.416 1.432,-1.416c0.448,-0 0.92,0.096 1.256,0.208l0.232,-2.495c-0.192,-0.056 -0.512,-0.12 -0.88,-0.12Z" style="fill:#fff;fill-rule:nonzero;"/><path d="M42.874,23.157c-2.504,-0 -4.231,1.735 -4.231,4.135c0,2.401 1.727,4.136 4.231,4.136c1.456,-0 2.608,-0.64 3.36,-1.703l-1.952,-1.392c-0.392,0.496 -0.888,0.76 -1.48,0.76c-0.872,-0 -1.6,-0.664 -1.6,-1.801c0,-1.128 0.744,-1.8 1.616,-1.8c0.608,-0 1.056,0.248 1.448,0.752l1.96,-1.368c-0.752,-1.071 -1.896,-1.719 -3.352,-1.719Z" style="fill:#fff;fill-rule:nonzero;"/><path d="M49.866,19.693l-2.503,-0l0,11.527l2.503,-0l0,-4.224c0,-1.016 0.576,-1.488 1.273,-1.488c0.776,-0 1.24,0.52 1.24,1.448l0,4.264l2.503,-0l0,-5.152c0,-1.816 -1.215,-2.911 -2.783,-2.911c-0.976,-0 -1.737,0.328 -2.233,1.039l0,-4.503Z" style="fill:#fff;fill-rule:nonzero;"/><path d="M59.09,23.373l-2.503,-0l0,7.847l2.503,-0l0,-7.847Zm-1.263,-3.92c-0.848,-0 -1.496,0.656 -1.496,1.504c0,0.84 0.648,1.488 1.496,1.488c0.839,-0 1.495,-0.648 1.495,-1.488c0,-0.848 -0.656,-1.504 -1.495,-1.504Z" style="fill:#fff;fill-rule:nonzero;"/><path d="M66.874,23.373l-2.68,-0l0,-2.288l-2.503,-0l0,2.288l-1.464,-0l0,2.215l1.464,-0l0,2.617c0,1.967 0.952,3.223 3.055,3.223c1.264,-0 2.048,-0.36 2.784,-0.872l-0.864,-1.951c-0.392,0.232 -0.896,0.488 -1.36,0.488c-0.632,-0 -1.112,-0.304 -1.112,-1.209l0,-2.296l2.68,-0l0,-2.215Z" style="fill:#fff;fill-rule:nonzero;"/><path d="M71.923,23.157c-2.385,-0 -4.024,1.711 -4.024,4.183c0,2.449 1.671,4.088 4.136,4.088c1.448,-0 2.639,-0.472 3.455,-1.288l-1.615,-1.504c-0.496,0.449 -1.128,0.689 -1.712,0.689c-0.865,-0 -1.473,-0.401 -1.681,-1.257l5.32,-0c0.032,-0.168 0.048,-0.52 0.048,-0.776c-0.008,-2.456 -1.599,-4.135 -3.927,-4.135Zm0.008,2.127c0.728,-0 1.216,0.416 1.416,1.201l-2.857,-0c0.192,-0.777 0.664,-1.201 1.441,-1.201Z" style="fill:#fff;fill-rule:nonzero;"/><path d="M81.01,23.157c-2.504,-0 -4.231,1.735 -4.231,4.135c0,2.401 1.727,4.136 4.231,4.136c1.456,-0 2.608,-0.64 3.36,-1.703l-1.952,-1.392c-0.392,0.496 -0.888,0.76 -1.48,0.76c-0.872,-0 -1.6,-0.664 -1.6,-1.801c0,-1.128 0.744,-1.8 1.616,-1.8c0.608,-0 1.056,0.248 1.448,0.752l1.96,-1.368c-0.752,-1.071 -1.896,-1.719 -3.352,-1.719Z" style="fill:#fff;fill-rule:nonzero;"/><path d="M91.61,23.373l-2.68,-0l0,-2.288l-2.503,-0l0,2.288l-1.464,-0l0,2.215l1.464,-0l0,2.617c0,1.967 0.952,3.223 3.055,3.223c1.264,-0 2.048,-0.36 2.784,-0.872l-0.864,-1.951c-0.392,0.232 -0.896,0.488 -1.36,0.488c-0.632,-0 -1.112,-0.304 -1.112,-1.209l0,-2.296l2.68,-0l0,-2.215Z" style="fill:#fff;fill-rule:nonzero;"/><path d="M100.626,23.373l-2.495,-0l0,4.264c0,1 -0.544,1.456 -1.288,1.456c-0.753,-0 -1.289,-0.456 -1.289,-1.456l0,-4.264l-2.503,-0l0,4.48c0,2.463 1.695,3.575 3.792,3.575c2.088,-0 3.783,-1.112 3.783,-3.567l0,-4.488Z" style="fill:#fff;fill-rule:nonzero;"/><path d="M106.874,23.157c-0.96,-0 -1.688,0.36 -2.144,1.119l0,-0.903l-2.399,-0l0,7.847l2.503,-0l0,-4.24c0,-0.976 0.544,-1.416 1.432,-1.416c0.448,-0 0.92,0.096 1.256,0.208l0.232,-2.495c-0.192,-0.056 -0.512,-0.12 -0.88,-0.12Z" style="fill:#fff;fill-rule:nonzero;"/><path d="M112.299,23.157c-2.385,-0 -4.024,1.711 -4.024,4.183c0,2.449 1.671,4.088 4.136,4.088c1.448,-0 2.639,-0.472 3.455,-1.288l-1.615,-1.504c-0.496,0.449 -1.128,0.689 -1.712,0.689c-0.865,-0 -1.473,-0.401 -1.681,-1.257l5.32,-0c0.032,-0.168 0.048,-0.52 0.048,-0.776c-0.008,-2.456 -1.599,-4.135 -3.927,-4.135Zm0.008,2.127c0.728,-0 1.216,0.416 1.416,1.201l-2.857,-0c0.192,-0.777 0.664,-1.201 1.441,-1.201Z" style="fill:#fff;fill-rule:nonzero;"/><path d="M121.299,20.021l0,11.199l4.791,-0c3.505,-0 5.816,-2.223 5.816,-5.6c0,-3.376 -2.311,-5.599 -5.816,-5.599l-4.791,-0Zm4.735,2.471c2.081,-0 3.081,1.296 3.081,3.128c0,1.809 -1,3.129 -3.081,3.129l-2.064,-0l0,-6.257l2.064,-0Z" style="fill:#fff;fill-rule:nonzero;"/><path d="M137.003,23.157c-2.385,-0 -4.024,1.711 -4.024,4.183c0,2.449 1.671,4.088 4.136,4.088c1.448,-0 2.639,-0.472 3.455,-1.288l-1.615,-1.504c-0.496,0.449 -1.128,0.689 -1.712,0.689c-0.865,-0 -1.473,-0.401 -1.681,-1.257l5.32,-0c0.032,-0.168 0.048,-0.52 0.048,-0.776c-0.008,-2.456 -1.599,-4.135 -3.927,-4.135Zm0.008,2.127c0.728,-0 1.216,0.416 1.416,1.201l-2.857,-0c0.192,-0.777 0.664,-1.201 1.441,-1.201Z" style="fill:#fff;fill-rule:nonzero;"/><path d="M146.09,23.157c-2.504,-0 -4.231,1.735 -4.231,4.135c0,2.401 1.727,4.136 4.231,4.136c1.456,-0 2.608,-0.64 3.36,-1.703l-1.952,-1.392c-0.392,0.496 -0.888,0.76 -1.48,0.76c-0.872,-0 -1.6,-0.664 -1.6,-1.801c0,-1.128 0.744,-1.8 1.616,-1.8c0.608,-0 1.056,0.248 1.448,0.752l1.96,-1.368c-0.752,-1.071 -1.896,-1.719 -3.352,-1.719Z" style="fill:#fff;fill-rule:nonzero;"/><path d="M153.082,23.373l-2.503,-0l0,7.847l2.503,-0l0,-7.847Zm-1.263,-3.92c-0.848,-0 -1.496,0.656 -1.496,1.504c0,0.84 0.648,1.488 1.496,1.488c0.839,-0 1.495,-0.648 1.495,-1.488c0,-0.848 -0.656,-1.504 -1.495,-1.504Z" style="fill:#fff;fill-rule:nonzero;"/><path d="M161.434,23.836c-1.287,-0.495 -2.103,-0.671 -3.376,-0.671c-2.135,-0 -3.391,0.951 -3.391,2.623c0,1.408 0.88,2.192 2.767,2.473l0.456,0.064c0.889,0.136 1.241,0.256 1.241,0.56c0,0.336 -0.32,0.512 -1.097,0.512c-1.088,-0 -1.984,-0.272 -2.767,-0.736l-0.872,1.935c0.896,0.584 2.279,0.824 3.623,0.824c2.289,-0 3.632,-1.032 3.632,-2.751c0,-1.321 -0.888,-2.129 -2.567,-2.385l-0.576,-0.088c-0.769,-0.12 -1.265,-0.2 -1.265,-0.536c0,-0.288 0.256,-0.48 0.913,-0.48c0.8,0.008 1.808,0.28 2.583,0.608l0.696,-1.952Z" style="fill:#fff;fill-rule:nonzero;"/><path d="M165.474,23.373l-2.503,-0l0,7.847l2.503,-0l0,-7.847Zm-1.263,-3.92c-0.848,-0 -1.496,0.656 -1.496,1.504c0,0.84 0.648,1.488 1.496,1.488c0.839,-0 1.495,-0.648 1.495,-1.488c0,-0.848 -0.656,-1.504 -1.495,-1.504Z" style="fill:#fff;fill-rule:nonzero;"/><path d="M171.067,23.157c-2.449,-0 -4.256,1.759 -4.256,4.135c0,2.377 1.807,4.136 4.256,4.136c2.456,-0 4.263,-1.759 4.263,-4.136c0,-2.376 -1.807,-4.135 -4.263,-4.135Zm-0,2.335c0.984,-0 1.704,0.744 1.704,1.8c0,1.057 -0.72,1.801 -1.704,1.801c-0.977,-0 -1.697,-0.744 -1.697,-1.801c0,-1.056 0.72,-1.8 1.697,-1.8Z" style="fill:#fff;fill-rule:nonzero;"/><path d="M181.411,23.157c-1.049,-0 -1.841,0.376 -2.337,1.199l0,-0.983l-2.399,-0l0,7.847l2.503,-0l0,-4.224c0,-1.016 0.576,-1.488 1.273,-1.488c0.776,-0 1.24,0.52 1.24,1.448l0,4.264l2.503,-0l0,-5.152c0,-1.816 -1.215,-2.911 -2.783,-2.911Z" style="fill:#fff;fill-rule:nonzero;"/><path d="M189.627,20.021l0,11.199l2.671,-0l0,-4.192l0.392,-0l2.953,4.192l3.183,-0l-3.215,-4.272c2.007,-0.32 3.127,-1.567 3.127,-3.344c0,-2.208 -1.471,-3.583 -4.239,-3.583l-4.872,-0Zm4.84,2.423c0.944,-0 1.552,0.368 1.552,1.16c0,0.801 -0.592,1.177 -1.552,1.177l-2.169,-0l0,-2.337l2.169,-0Z" style="fill:#fff;fill-rule:nonzero;"/><path d="M203.483,23.157c-2.385,-0 -4.024,1.711 -4.024,4.183c0,2.449 1.671,4.088 4.136,4.088c1.448,-0 2.639,-0.472 3.455,-1.288l-1.615,-1.504c-0.496,0.449 -1.128,0.689 -1.712,0.689c-0.865,-0 -1.473,-0.401 -1.681,-1.257l5.32,-0c0.032,-0.168 0.048,-0.52 0.048,-0.776c-0.008,-2.456 -1.599,-4.135 -3.927,-4.135Zm0.008,2.127c0.728,-0 1.216,0.416 1.416,1.201l-2.857,-0c0.192,-0.777 0.664,-1.201 1.441,-1.201Z" style="fill:#fff;fill-rule:nonzero;"/><path d="M212.57,23.157c-2.504,-0 -4.231,1.735 -4.231,4.135c0,2.401 1.727,4.136 4.231,4.136c1.456,-0 2.608,-0.64 3.36,-1.703l-1.952,-1.392c-0.392,0.496 -0.888,0.76 -1.48,0.76c-0.872,-0 -1.6,-0.664 -1.6,-1.801c0,-1.128 0.744,-1.8 1.616,-1.8c0.608,-0 1.056,0.248 1.448,0.752l1.96,-1.368c-0.752,-1.071 -1.896,-1.719 -3.352,-1.719Z" style="fill:#fff;fill-rule:nonzero;"/><path d="M220.739,23.157c-2.449,-0 -4.256,1.759 -4.256,4.135c0,2.377 1.807,4.136 4.256,4.136c2.456,-0 4.263,-1.759 4.263,-4.136c0,-2.376 -1.807,-4.135 -4.263,-4.135Zm-0,2.335c0.984,-0 1.704,0.744 1.704,1.8c0,1.057 -0.72,1.801 -1.704,1.801c-0.977,-0 -1.697,-0.744 -1.697,-1.801c0,-1.056 0.72,-1.8 1.697,-1.8Z" style="fill:#fff;fill-rule:nonzero;"/><path d="M230.89,23.157c-0.96,-0 -1.688,0.36 -2.144,1.119l0,-0.903l-2.399,-0l0,7.847l2.503,-0l0,-4.24c0,-0.976 0.544,-1.416 1.432,-1.416c0.448,-0 0.92,0.096 1.256,0.208l0.232,-2.495c-0.192,-0.056 -0.512,-0.12 -0.88,-0.12Z" style="fill:#fff;fill-rule:nonzero;"/><path d="M235.946,23.157c-2.104,-0 -3.655,1.823 -3.655,4.127c0,2.321 1.551,4.144 3.647,4.144c1.065,-0 1.785,-0.44 2.257,-1.056l-0,0.848l2.415,-0l0,-11.519l-2.495,-0l0,4.423c-0.472,-0.567 -1.168,-0.967 -2.169,-0.967Zm0.593,2.335c0.984,-0 1.68,0.76 1.68,1.8c-0,1.041 -0.696,1.801 -1.68,1.801c-1.001,-0 -1.673,-0.776 -1.673,-1.801c0,-1.024 0.672,-1.8 1.673,-1.8Z" style="fill:#fff;fill-rule:nonzero;"/><path d="M26.868,54.112l-6.785,-0l-0,1.001l2.868,-0l-0,7.398l1.055,-0l0,-7.398l2.862,-0l0,-1.001Z" style="fill:#fff;fill-rule:nonzero;"/><path d="M29.112,56.812l-0.977,-0l-0,5.699l0.977,-0l0,-5.699Zm-0.497,-2.706c-0.39,-0 -0.69,0.306 -0.69,0.702c-0,0.39 0.3,0.684 0.69,0.684c0.389,-0 0.701,-0.294 0.701,-0.684c0,-0.396 -0.312,-0.702 -0.701,-0.702Z" style="fill:#fff;fill-rule:nonzero;"/><path d="M35.058,56.812l-2.394,-0l0,-1.788l-0.983,-0l-0,1.788l-1.218,-0l-0,0.893l1.218,-0l-0,2.797c-0,1.452 0.737,2.129 1.973,2.129c0.702,-0 1.272,-0.246 1.71,-0.564l-0.462,-0.737c-0.324,0.222 -0.744,0.384 -1.164,0.384c-0.618,-0 -1.074,-0.372 -1.074,-1.23l0,-2.779l2.394,-0l0,-0.893Z" style="fill:#fff;fill-rule:nonzero;"/><rect x="36.631" y="53.872" width="0.977" height="8.639" style="fill:#fff;fill-rule:nonzero;"/><path d="M42.085,56.692c-1.639,-0 -2.832,1.217 -2.832,2.969c-0,1.777 1.199,2.97 2.892,2.97c0.84,-0 1.632,-0.204 2.339,-0.863l-0.521,-0.673c-0.486,0.421 -1.092,0.679 -1.758,0.679c-0.979,-0 -1.801,-0.583 -1.939,-1.765l4.482,-0c0.006,-0.108 0.018,-0.24 0.018,-0.366c-0.012,-1.746 -1.127,-2.951 -2.681,-2.951Zm-0.018,0.869c0.924,-0 1.578,0.648 1.698,1.657l-3.487,-0c0.15,-0.973 0.78,-1.657 1.789,-1.657Z" style="fill:#fff;fill-rule:nonzero;"/><path d="M27.06,97.562c-0.791,-0.546 -1.757,-0.918 -3.023,-0.918c-1.771,0 -3.21,0.906 -3.21,2.526c-0,1.434 1.103,2.076 2.489,2.244l0.781,0.096c1.308,0.162 2.01,0.534 2.01,1.314c-0,0.948 -0.984,1.458 -2.238,1.458c-1.069,0 -2.155,-0.426 -2.736,-0.93l-0.576,0.84c0.81,0.678 2.117,1.092 3.312,1.092c1.818,-0 3.335,-0.876 3.335,-2.55c0,-1.482 -1.217,-2.058 -2.639,-2.232l-0.739,-0.09c-1.26,-0.156 -1.902,-0.546 -1.902,-1.308c0,-0.906 0.876,-1.458 2.107,-1.458c0.972,-0 1.806,0.312 2.49,0.774l0.539,-0.858Z" style="fill:#fff;fill-rule:nonzero;"/><path d="M32.742,99.464l-2.394,0l0,-1.788l-0.983,0l-0,1.788l-1.218,0l-0,0.894l1.218,-0l-0,2.796c-0,1.452 0.737,2.13 1.973,2.13c0.702,-0 1.272,-0.246 1.71,-0.564l-0.462,-0.738c-0.324,0.222 -0.744,0.384 -1.164,0.384c-0.618,0 -1.074,-0.372 -1.074,-1.23l0,-2.778l2.394,-0l0,-0.894Z" style="fill:#fff;fill-rule:nonzero;"/><path d="M39.714,99.464l-0.983,0l-0,0.768c-0.45,-0.54 -1.116,-0.888 -2.01,-0.888c-1.603,0 -2.85,1.248 -2.85,2.97c-0,1.722 1.247,2.97 2.85,2.97c0.894,-0 1.56,-0.348 2.01,-0.882l-0,0.762l0.983,-0l0,-5.7Zm-2.879,0.804c1.152,-0 1.956,0.882 1.956,2.046c-0,1.17 -0.804,2.052 -1.956,2.052c-1.171,0 -1.963,-0.918 -1.963,-2.052c0,-1.134 0.774,-2.046 1.963,-2.046Z" style="fill:#fff;fill-rule:nonzero;"/><path d="M45.66,99.464l-2.394,0l0,-1.788l-0.983,0l-0,1.788l-1.218,0l-0,0.894l1.218,-0l-0,2.796c-0,1.452 0.737,2.13 1.973,2.13c0.702,-0 1.272,-0.246 1.71,-0.564l-0.462,-0.738c-0.324,0.222 -0.744,0.384 -1.164,0.384c-0.618,0 -1.074,-0.372 -1.074,-1.23l0,-2.778l2.394,-0l0,-0.894Z" style="fill:#fff;fill-rule:nonzero;"/><path d="M52.374,99.464l-0.983,0l-0,3.222c-0,1.164 -0.69,1.68 -1.614,1.68c-0.931,0 -1.621,-0.516 -1.621,-1.68l0,-3.222l-0.983,0l-0,3.312c-0,1.722 1.229,2.508 2.604,2.508c1.362,-0 2.597,-0.786 2.597,-2.508l0,-3.312Z" style="fill:#fff;fill-rule:nonzero;"/><path d="M58.656,99.968c-0.551,-0.378 -1.373,-0.618 -2.274,-0.618c-1.386,0 -2.291,0.66 -2.291,1.752c-0,0.864 0.617,1.44 1.895,1.596l0.661,0.078c0.774,0.096 1.146,0.36 1.146,0.78c-0,0.564 -0.576,0.87 -1.513,0.87c-0.954,0 -1.524,-0.276 -1.949,-0.606l-0.456,0.732c0.75,0.564 1.697,0.732 2.399,0.732c1.555,-0 2.526,-0.702 2.526,-1.788c0,-0.942 -0.713,-1.452 -1.925,-1.614l-0.661,-0.084c-0.69,-0.084 -1.104,-0.294 -1.104,-0.75c0,-0.516 0.504,-0.846 1.284,-0.846c0.751,-0 1.477,0.282 1.837,0.528l0.425,-0.762Z" style="fill:#fff;fill-rule:nonzero;"/><path d="M21.037,198.669l-0,8.399l3.203,0c2.713,0 4.452,-1.643 4.452,-4.199c0,-2.556 -1.739,-4.2 -4.452,-4.2l-3.203,0Zm3.203,1.001c2.203,0 3.343,1.285 3.343,3.199c-0,1.902 -1.14,3.198 -3.343,3.198l-2.148,0l0,-6.397l2.148,0Z" style="fill:#fff;fill-rule:nonzero;"/><path d="M32.863,201.249c-1.639,0 -2.832,1.218 -2.832,2.97c-0,1.776 1.199,2.969 2.892,2.969c0.84,0 1.632,-0.203 2.339,-0.863l-0.521,-0.672c-0.486,0.42 -1.092,0.678 -1.758,0.678c-0.979,0 -1.801,-0.582 -1.939,-1.765l4.482,0c0.006,-0.107 0.018,-0.239 0.018,-0.365c-0.012,-1.746 -1.127,-2.952 -2.681,-2.952Zm-0.018,0.869c0.924,0 1.578,0.649 1.698,1.657l-3.487,0c0.15,-0.972 0.78,-1.657 1.789,-1.657Z" style="fill:#fff;fill-rule:nonzero;"/><path d="M39.714,201.249c-1.764,0 -2.957,1.278 -2.957,2.97c-0,1.692 1.193,2.969 2.957,2.969c0.846,0 1.602,-0.311 2.118,-0.893l-0.606,-0.678c-0.396,0.384 -0.93,0.654 -1.536,0.654c-1.098,0 -1.932,-0.858 -1.932,-2.052c0,-1.194 0.834,-2.047 1.932,-2.047c0.606,0 1.092,0.234 1.512,0.643l0.63,-0.667c-0.51,-0.587 -1.272,-0.899 -2.118,-0.899Z" style="fill:#fff;fill-rule:nonzero;"/><path d="M44.316,201.369l-0.977,0l-0,5.699l0.977,0l0,-5.699Zm-0.497,-2.706c-0.39,0 -0.69,0.306 -0.69,0.702c-0,0.39 0.3,0.684 0.69,0.684c0.389,0 0.701,-0.294 0.701,-0.684c0,-0.396 -0.312,-0.702 -0.701,-0.702Z" style="fill:#fff;fill-rule:nonzero;"/><path d="M50.658,201.873c-0.551,-0.378 -1.373,-0.618 -2.274,-0.618c-1.386,0 -2.291,0.66 -2.291,1.752c-0,0.864 0.617,1.44 1.895,1.596l0.661,0.078c0.774,0.096 1.146,0.36 1.146,0.78c-0,0.564 -0.576,0.87 -1.513,0.87c-0.954,0 -1.524,-0.276 -1.949,-0.606l-0.456,0.732c0.75,0.564 1.697,0.731 2.399,0.731c1.555,0 2.526,-0.701 2.526,-1.787c0,-0.942 -0.713,-1.452 -1.925,-1.614l-0.661,-0.084c-0.69,-0.084 -1.104,-0.294 -1.104,-0.75c0,-0.517 0.504,-0.847 1.284,-0.847c0.751,0 1.477,0.282 1.837,0.529l0.425,-0.762Z" style="fill:#fff;fill-rule:nonzero;"/><path d="M53.334,201.369l-0.977,0l-0,5.699l0.977,0l0,-5.699Zm-0.497,-2.706c-0.39,0 -0.69,0.306 -0.69,0.702c-0,0.39 0.3,0.684 0.69,0.684c0.389,0 0.701,-0.294 0.701,-0.684c0,-0.396 -0.312,-0.702 -0.701,-0.702Z" style="fill:#fff;fill-rule:nonzero;"/><path d="M57.991,201.249c-1.729,0 -3.012,1.278 -3.012,2.97c-0,1.692 1.283,2.969 3.012,2.969c1.728,0 3.017,-1.277 3.017,-2.969c0,-1.692 -1.289,-2.97 -3.017,-2.97Zm-0,0.923c1.14,0 2.01,0.853 2.01,2.047c-0,1.194 -0.87,2.052 -2.01,2.052c-1.147,0 -2.011,-0.858 -2.011,-2.052c0,-1.194 0.864,-2.047 2.011,-2.047Z" style="fill:#fff;fill-rule:nonzero;"/><path d="M65.491,201.249c-0.661,0 -1.399,0.222 -1.867,0.864l0,-0.744l-0.971,0l-0,5.699l0.977,0l0,-3.197c0,-1.063 0.768,-1.693 1.687,-1.693c0.99,0 1.566,0.618 1.566,1.668l-0,3.222l0.983,0l0,-3.54c0,-1.368 -0.971,-2.279 -2.375,-2.279Z" style="fill:#fff;fill-rule:nonzero;"/><path d="M24.912,283.278c-2.52,-0 -4.349,1.811 -4.349,4.325c-0,2.514 1.829,4.326 4.349,4.326c1.452,-0 2.706,-0.648 3.414,-1.698l-0.864,-0.63c-0.552,0.822 -1.47,1.315 -2.55,1.315c-1.848,-0 -3.246,-1.339 -3.246,-3.313c0,-1.974 1.398,-3.312 3.246,-3.312c1.086,-0 2.01,0.51 2.556,1.32l0.882,-0.594c-0.66,-1.08 -1.968,-1.739 -3.438,-1.739Z" style="fill:#fff;fill-rule:nonzero;"/><path d="M32.539,285.984c-1.729,-0 -3.012,1.277 -3.012,2.969c-0,1.692 1.283,2.97 3.012,2.97c1.728,-0 3.017,-1.278 3.017,-2.97c0,-1.692 -1.289,-2.969 -3.017,-2.969Zm-0,0.923c1.14,-0 2.01,0.852 2.01,2.046c-0,1.194 -0.87,2.053 -2.01,2.053c-1.147,-0 -2.011,-0.859 -2.011,-2.053c0,-1.194 0.864,-2.046 2.011,-2.046Z" style="fill:#fff;fill-rule:nonzero;"/><path d="M40.039,285.984c-0.661,-0 -1.399,0.221 -1.867,0.863l0,-0.743l-0.971,-0l-0,5.699l0.977,-0l0,-3.198c0,-1.062 0.768,-1.692 1.687,-1.692c0.99,-0 1.566,0.618 1.566,1.668l-0,3.222l0.983,-0l0,-3.54c0,-1.368 -0.971,-2.279 -2.375,-2.279Z" style="fill:#fff;fill-rule:nonzero;"/><path d="M48.696,286.607c-0.551,-0.378 -1.373,-0.617 -2.274,-0.617c-1.386,-0 -2.291,0.659 -2.291,1.751c-0,0.864 0.617,1.44 1.895,1.596l0.661,0.078c0.774,0.096 1.146,0.36 1.146,0.78c-0,0.564 -0.576,0.871 -1.513,0.871c-0.954,-0 -1.524,-0.277 -1.949,-0.607l-0.456,0.732c0.75,0.564 1.697,0.732 2.399,0.732c1.555,-0 2.526,-0.702 2.526,-1.788c0,-0.942 -0.713,-1.452 -1.925,-1.614l-0.661,-0.084c-0.69,-0.084 -1.104,-0.294 -1.104,-0.75c0,-0.516 0.504,-0.846 1.284,-0.846c0.751,-0 1.477,0.282 1.837,0.528l0.425,-0.762Z" style="fill:#fff;fill-rule:nonzero;"/><path d="M52.795,285.984c-1.639,-0 -2.832,1.217 -2.832,2.969c-0,1.776 1.199,2.97 2.892,2.97c0.84,-0 1.632,-0.204 2.339,-0.863l-0.521,-0.673c-0.486,0.42 -1.092,0.679 -1.758,0.679c-0.979,-0 -1.801,-0.583 -1.939,-1.765l4.482,-0c0.006,-0.108 0.018,-0.24 0.018,-0.366c-0.012,-1.746 -1.127,-2.951 -2.681,-2.951Zm-0.018,0.869c0.924,-0 1.578,0.648 1.698,1.657l-3.487,-0c0.15,-0.973 0.78,-1.657 1.789,-1.657Z" style="fill:#fff;fill-rule:nonzero;"/><path d="M59.539,285.984c-1.603,-0 -2.85,1.247 -2.85,2.969c-0,1.722 1.247,2.97 2.85,2.97c0.894,-0 1.56,-0.348 2.01,-0.881l-0,3.161l0.983,-0l0,-8.099l-0.983,-0l-0,0.768c-0.45,-0.541 -1.116,-0.888 -2.01,-0.888Zm0.114,0.923c1.152,-0 1.956,0.882 1.956,2.046c-0,1.17 -0.804,2.053 -1.956,2.053c-1.171,-0 -1.963,-0.919 -1.963,-2.053c0,-1.134 0.774,-2.046 1.963,-2.046Z" style="fill:#fff;fill-rule:nonzero;"/><path d="M69.75,286.104l-0.983,-0l-0,3.222c-0,1.164 -0.69,1.68 -1.614,1.68c-0.931,-0 -1.621,-0.516 -1.621,-1.68l0,-3.222l-0.983,-0l-0,3.312c-0,1.721 1.229,2.507 2.604,2.507c1.362,-0 2.597,-0.786 2.597,-2.507l0,-3.312Z" style="fill:#fff;fill-rule:nonzero;"/><path d="M74.167,285.984c-1.639,-0 -2.832,1.217 -2.832,2.969c-0,1.776 1.199,2.97 2.892,2.97c0.84,-0 1.632,-0.204 2.339,-0.863l-0.521,-0.673c-0.486,0.42 -1.092,0.679 -1.758,0.679c-0.979,-0 -1.801,-0.583 -1.939,-1.765l4.482,-0c0.006,-0.108 0.018,-0.24 0.018,-0.366c-0.012,-1.746 -1.127,-2.951 -2.681,-2.951Zm-0.018,0.869c0.924,-0 1.578,0.648 1.698,1.657l-3.487,-0c0.15,-0.973 0.78,-1.657 1.789,-1.657Z" style="fill:#fff;fill-rule:nonzero;"/><path d="M81.331,285.984c-0.661,-0 -1.399,0.221 -1.867,0.863l0,-0.743l-0.971,-0l-0,5.699l0.977,-0l0,-3.198c0,-1.062 0.768,-1.692 1.687,-1.692c0.99,-0 1.566,0.618 1.566,1.668l-0,3.222l0.983,-0l0,-3.54c0,-1.368 -0.971,-2.279 -2.375,-2.279Z" style="fill:#fff;fill-rule:nonzero;"/><path d="M88.248,285.984c-1.764,-0 -2.957,1.277 -2.957,2.969c-0,1.692 1.193,2.97 2.957,2.97c0.846,-0 1.602,-0.312 2.118,-0.893l-0.606,-0.679c-0.396,0.384 -0.93,0.655 -1.536,0.655c-1.098,-0 -1.932,-0.859 -1.932,-2.053c0,-1.194 0.834,-2.046 1.932,-2.046c0.606,-0 1.092,0.234 1.512,0.642l0.63,-0.666c-0.51,-0.588 -1.272,-0.899 -2.118,-0.899Z" style="fill:#fff;fill-rule:nonzero;"/><path d="M94.171,285.984c-1.639,-0 -2.832,1.217 -2.832,2.969c-0,1.776 1.199,2.97 2.892,2.97c0.84,-0 1.632,-0.204 2.339,-0.863l-0.521,-0.673c-0.486,0.42 -1.092,0.679 -1.758,0.679c-0.979,-0 -1.801,-0.583 -1.939,-1.765l4.482,-0c0.006,-0.108 0.018,-0.24 0.018,-0.366c-0.012,-1.746 -1.127,-2.951 -2.681,-2.951Zm-0.018,0.869c0.924,-0 1.578,0.648 1.698,1.657l-3.487,-0c0.15,-0.973 0.78,-1.657 1.789,-1.657Z" style="fill:#fff;fill-rule:nonzero;"/><path d="M102.762,286.607c-0.551,-0.378 -1.373,-0.617 -2.274,-0.617c-1.386,-0 -2.291,0.659 -2.291,1.751c-0,0.864 0.617,1.44 1.895,1.596l0.661,0.078c0.774,0.096 1.146,0.36 1.146,0.78c-0,0.564 -0.576,0.871 -1.513,0.871c-0.954,-0 -1.524,-0.277 -1.949,-0.607l-0.456,0.732c0.75,0.564 1.697,0.732 2.399,0.732c1.555,-0 2.526,-0.702 2.526,-1.788c0,-0.942 -0.713,-1.452 -1.925,-1.614l-0.661,-0.084c-0.69,-0.084 -1.104,-0.294 -1.104,-0.75c0,-0.516 0.504,-0.846 1.284,-0.846c0.751,-0 1.477,0.282 1.837,0.528l0.425,-0.762Z" style="fill:#fff;fill-rule:nonzero;"/><rect x="20.088" y="68.337" width="257.953" height="22.677" style="fill:#fff;"/><rect x="19.843" y="209.764" width="258.199" height="68.031" style="fill:#fff;"/><rect x="19.843" y="294.803" width="258.088" height="68.031" style="fill:#fff;"/><rect x="23.528" y="32.031" width="3.969" height="13.331" style="fill:none;"/><path d="M51.811,116.938c-0.675,-0 -1.175,0.261 -1.508,0.661l-0,-0.571l-0.733,-0l-0,6.074l0.733,0l-0,-2.371c0.333,0.4 0.833,0.661 1.508,0.661c1.197,0 2.137,-0.935 2.137,-2.227c-0,-1.292 -0.94,-2.227 -2.137,-2.227Zm-0.086,0.692c0.873,0 1.467,0.684 1.467,1.535c0,0.851 -0.58,1.539 -1.467,1.539c-0.864,0 -1.467,-0.661 -1.467,-1.539c-0,-0.873 0.603,-1.535 1.467,-1.535Z" style="fill:#fff;fill-rule:nonzero;"/><path d="M57.156,116.938c-0.508,-0 -0.954,0.234 -1.251,0.652l0,-0.562l-0.724,-0l0,4.274l0.733,0l0,-2.38c0,-0.788 0.459,-1.287 1.112,-1.287c0.243,-0 0.531,0.058 0.733,0.166l0.18,-0.724c-0.229,-0.099 -0.477,-0.139 -0.783,-0.139Z" style="fill:#fff;fill-rule:nonzero;"/><path d="M60.707,116.938c-1.296,-0 -2.259,0.958 -2.259,2.227c0,1.269 0.963,2.227 2.259,2.227c1.296,0 2.263,-0.958 2.263,-2.227c0,-1.269 -0.967,-2.227 -2.263,-2.227Zm0,0.692c0.855,0 1.508,0.639 1.508,1.535c-0,0.896 -0.653,1.539 -1.508,1.539c-0.859,0 -1.508,-0.643 -1.508,-1.539c0,-0.896 0.649,-1.535 1.508,-1.535Z" style="fill:#fff;fill-rule:nonzero;"/><path d="M66.445,116.938c-0.675,-0 -1.175,0.261 -1.508,0.661l-0,-0.571l-0.733,-0l-0,6.074l0.733,0l-0,-2.371c0.333,0.4 0.833,0.661 1.508,0.661c1.197,0 2.137,-0.935 2.137,-2.227c-0,-1.292 -0.94,-2.227 -2.137,-2.227Zm-0.086,0.692c0.873,0 1.467,0.684 1.467,1.535c0,0.851 -0.58,1.539 -1.467,1.539c-0.864,0 -1.467,-0.661 -1.467,-1.539c-0,-0.873 0.603,-1.535 1.467,-1.535Z" style="fill:#fff;fill-rule:nonzero;"/><path d="M71.75,116.938c-1.296,-0 -2.259,0.958 -2.259,2.227c0,1.269 0.963,2.227 2.259,2.227c1.296,0 2.263,-0.958 2.263,-2.227c0,-1.269 -0.967,-2.227 -2.263,-2.227Zm0,0.692c0.855,0 1.508,0.639 1.508,1.535c-0,0.896 -0.653,1.539 -1.508,1.539c-0.859,0 -1.508,-0.643 -1.508,-1.539c0,-0.896 0.649,-1.535 1.508,-1.535Z" style="fill:#fff;fill-rule:nonzero;"/><path d="M78.446,117.405c-0.414,-0.283 -1.03,-0.463 -1.705,-0.463c-1.04,0 -1.719,0.495 -1.719,1.314c-0,0.648 0.463,1.08 1.422,1.197l0.495,0.059c0.58,0.072 0.859,0.27 0.859,0.585c0,0.423 -0.432,0.652 -1.134,0.652c-0.716,0 -1.143,-0.207 -1.462,-0.454l-0.342,0.549c0.562,0.422 1.273,0.548 1.8,0.548c1.165,0 1.894,-0.526 1.894,-1.34c-0,-0.707 -0.535,-1.089 -1.444,-1.211l-0.495,-0.063c-0.518,-0.063 -0.829,-0.221 -0.829,-0.563c0,-0.387 0.378,-0.634 0.964,-0.634c0.562,-0 1.107,0.211 1.377,0.396l0.319,-0.572Z" style="fill:#fff;fill-rule:nonzero;"/><path d="M81.52,116.938c-1.229,-0 -2.124,0.913 -2.124,2.227c-0,1.332 0.899,2.227 2.169,2.227c0.63,0 1.224,-0.153 1.755,-0.647l-0.392,-0.504c-0.364,0.315 -0.819,0.508 -1.318,0.508c-0.734,0 -1.351,-0.436 -1.454,-1.323l3.361,-0c0.005,-0.081 0.014,-0.18 0.014,-0.274c-0.009,-1.31 -0.846,-2.214 -2.011,-2.214Zm-0.014,0.652c0.693,-0 1.184,0.486 1.274,1.242l-2.615,0c0.112,-0.729 0.585,-1.242 1.341,-1.242Z" style="fill:#fff;fill-rule:nonzero;"/><path d="M86.578,116.938c-1.202,-0 -2.138,0.935 -2.138,2.227c0,1.292 0.936,2.227 2.138,2.227c0.67,0 1.17,-0.261 1.507,-0.661l0,0.571l0.738,0l-0,-6.479l-0.738,-0l0,2.78c-0.337,-0.404 -0.837,-0.665 -1.507,-0.665Zm0.085,0.692c0.864,0 1.467,0.662 1.467,1.535c0,0.878 -0.603,1.539 -1.467,1.539c-0.877,0 -1.472,-0.688 -1.472,-1.539c0,-0.851 0.581,-1.535 1.472,-1.535Z" style="fill:#fff;fill-rule:nonzero;"/><circle cx="43.155" cy="119.623" r="2.835" style="fill:#ebebeb;"/><path d="M118.201,117.028l-0.737,-0l-0,0.576c-0.338,-0.405 -0.837,-0.666 -1.508,-0.666c-1.202,-0 -2.137,0.935 -2.137,2.227c-0,1.292 0.935,2.227 2.137,2.227c0.671,0 1.17,-0.261 1.508,-0.661l-0,0.571l0.737,0l0,-4.274Zm-2.159,0.602c0.864,0 1.467,0.662 1.467,1.535c-0,0.878 -0.603,1.539 -1.467,1.539c-0.878,0 -1.472,-0.688 -1.472,-1.539c-0,-0.851 0.581,-1.535 1.472,-1.535Z" style="fill:#fff;fill-rule:nonzero;"/><path d="M121.653,116.938c-1.323,-0 -2.218,0.958 -2.218,2.227c-0,1.269 0.895,2.227 2.218,2.227c0.634,0 1.201,-0.234 1.588,-0.67l-0.454,-0.508c-0.297,0.288 -0.698,0.49 -1.152,0.49c-0.824,0 -1.449,-0.643 -1.449,-1.539c-0,-0.896 0.625,-1.535 1.449,-1.535c0.454,0 0.819,0.176 1.134,0.482l0.472,-0.5c-0.382,-0.44 -0.954,-0.674 -1.588,-0.674Z" style="fill:#fff;fill-rule:nonzero;"/><path d="M126.189,116.938c-1.323,-0 -2.218,0.958 -2.218,2.227c-0,1.269 0.895,2.227 2.218,2.227c0.634,0 1.201,-0.234 1.588,-0.67l-0.454,-0.508c-0.297,0.288 -0.698,0.49 -1.152,0.49c-0.824,0 -1.449,-0.643 -1.449,-1.539c-0,-0.896 0.625,-1.535 1.449,-1.535c0.454,0 0.819,0.176 1.134,0.482l0.472,-0.5c-0.382,-0.44 -0.954,-0.674 -1.588,-0.674Z" style="fill:#fff;fill-rule:nonzero;"/><path d="M130.631,116.938c-1.229,-0 -2.124,0.913 -2.124,2.227c-0,1.332 0.899,2.227 2.169,2.227c0.63,0 1.224,-0.153 1.755,-0.647l-0.392,-0.504c-0.364,0.315 -0.819,0.508 -1.318,0.508c-0.734,0 -1.351,-0.436 -1.454,-1.323l3.361,-0c0.005,-0.081 0.014,-0.18 0.014,-0.274c-0.009,-1.31 -0.846,-2.214 -2.011,-2.214Zm-0.014,0.652c0.693,-0 1.184,0.486 1.274,1.242l-2.615,0c0.112,-0.729 0.585,-1.242 1.341,-1.242Z" style="fill:#fff;fill-rule:nonzero;"/><path d="M136.116,116.938c-0.675,-0 -1.175,0.261 -1.508,0.661l0,-0.571l-0.733,-0l0,6.074l0.733,0l0,-2.371c0.333,0.4 0.833,0.661 1.508,0.661c1.197,0 2.137,-0.935 2.137,-2.227c0,-1.292 -0.94,-2.227 -2.137,-2.227Zm-0.085,0.692c0.873,0 1.467,0.684 1.467,1.535c-0,0.851 -0.581,1.539 -1.467,1.539c-0.864,0 -1.468,-0.661 -1.468,-1.539c0,-0.873 0.604,-1.535 1.468,-1.535Z" style="fill:#fff;fill-rule:nonzero;"/><path d="M142.344,117.028l-1.796,-0l0,-1.341l-0.737,-0l-0,1.341l-0.914,-0l0,0.67l0.914,-0l-0,2.097c-0,1.089 0.553,1.597 1.48,1.597c0.526,0 0.954,-0.184 1.282,-0.422l-0.346,-0.554c-0.243,0.167 -0.558,0.288 -0.873,0.288c-0.464,0 -0.806,-0.279 -0.806,-0.922l0,-2.084l1.796,-0l-0,-0.67Z" style="fill:#fff;fill-rule:nonzero;"/><path d="M145.314,116.938c-1.229,-0 -2.124,0.913 -2.124,2.227c0,1.332 0.9,2.227 2.169,2.227c0.63,0 1.224,-0.153 1.755,-0.647l-0.391,-0.504c-0.365,0.315 -0.819,0.508 -1.319,0.508c-0.733,0 -1.35,-0.436 -1.454,-1.323l3.362,-0c0.004,-0.081 0.013,-0.18 0.013,-0.274c-0.009,-1.31 -0.845,-2.214 -2.011,-2.214Zm-0.013,0.652c0.693,-0 1.183,0.486 1.273,1.242l-2.615,0c0.113,-0.729 0.586,-1.242 1.342,-1.242Z" style="fill:#fff;fill-rule:nonzero;"/><path d="M150.372,116.938c-1.202,-0 -2.137,0.935 -2.137,2.227c-0,1.292 0.935,2.227 2.137,2.227c0.671,0 1.17,-0.261 1.508,-0.661l-0,0.571l0.737,0l0,-6.479l-0.737,-0l-0,2.78c-0.338,-0.404 -0.837,-0.665 -1.508,-0.665Zm0.086,0.692c0.864,0 1.467,0.662 1.467,1.535c-0,0.878 -0.603,1.539 -1.467,1.539c-0.878,0 -1.472,-0.688 -1.472,-1.539c-0,-0.851 0.581,-1.535 1.472,-1.535Z" style="fill:#fff;fill-rule:nonzero;"/><path d="M180.529,118.498c-1.202,-0 -2.137,0.935 -2.137,2.227c0,1.292 0.935,2.227 2.137,2.227c0.671,0 1.17,-0.261 1.508,-0.661l0,0.571l0.737,0l0,-6.479l-0.737,-0l0,2.78c-0.338,-0.404 -0.837,-0.665 -1.508,-0.665Zm0.086,0.692c0.864,0 1.467,0.662 1.467,1.535c-0,0.878 -0.603,1.539 -1.467,1.539c-0.878,0 -1.472,-0.688 -1.472,-1.539c-0,-0.851 0.581,-1.535 1.472,-1.535Z" style="fill:#fff;fill-rule:nonzero;"/><path d="M186.132,118.498c-1.229,-0 -2.124,0.913 -2.124,2.227c0,1.332 0.899,2.227 2.169,2.227c0.63,0 1.224,-0.153 1.755,-0.647l-0.392,-0.504c-0.364,0.315 -0.819,0.508 -1.318,0.508c-0.734,0 -1.351,-0.436 -1.454,-1.323l3.361,-0c0.005,-0.081 0.014,-0.18 0.014,-0.274c-0.009,-1.31 -0.846,-2.214 -2.011,-2.214Zm-0.014,0.652c0.693,-0 1.184,0.486 1.274,1.242l-2.615,0c0.112,-0.729 0.585,-1.242 1.341,-1.242Z" style="fill:#fff;fill-rule:nonzero;"/><path d="M191.617,118.498c-0.675,-0 -1.174,0.261 -1.508,0.661l0,-0.571l-0.732,-0l-0,6.074l0.732,0l0,-2.371c0.334,0.4 0.833,0.661 1.508,0.661c1.197,0 2.137,-0.935 2.137,-2.227c0,-1.292 -0.94,-2.227 -2.137,-2.227Zm-0.085,0.692c0.873,0 1.467,0.684 1.467,1.535c0,0.851 -0.581,1.539 -1.467,1.539c-0.864,0 -1.468,-0.661 -1.468,-1.539c0,-0.873 0.604,-1.535 1.468,-1.535Z" style="fill:#fff;fill-rule:nonzero;"/><path d="M196.963,118.498c-0.509,-0 -0.954,0.234 -1.251,0.652l-0,-0.562l-0.724,-0l0,4.274l0.733,0l-0,-2.38c-0,-0.788 0.459,-1.287 1.111,-1.287c0.243,-0 0.531,0.058 0.734,0.166l0.18,-0.724c-0.23,-0.099 -0.477,-0.139 -0.783,-0.139Z" style="fill:#fff;fill-rule:nonzero;"/><path d="M200.379,118.498c-1.229,-0 -2.124,0.913 -2.124,2.227c0,1.332 0.899,2.227 2.169,2.227c0.63,0 1.224,-0.153 1.755,-0.647l-0.392,-0.504c-0.364,0.315 -0.819,0.508 -1.318,0.508c-0.734,0 -1.351,-0.436 -1.454,-1.323l3.361,-0c0.005,-0.081 0.014,-0.18 0.014,-0.274c-0.009,-1.31 -0.846,-2.214 -2.011,-2.214Zm-0.014,0.652c0.693,-0 1.184,0.486 1.274,1.242l-2.615,0c0.112,-0.729 0.585,-1.242 1.341,-1.242Z" style="fill:#fff;fill-rule:nonzero;"/><path d="M205.517,118.498c-1.323,-0 -2.217,0.958 -2.217,2.227c-0,1.269 0.894,2.227 2.217,2.227c0.635,0 1.202,-0.234 1.589,-0.67l-0.455,-0.508c-0.297,0.288 -0.697,0.49 -1.152,0.49c-0.823,0 -1.449,-0.643 -1.449,-1.539c0,-0.896 0.626,-1.535 1.449,-1.535c0.455,0 0.819,0.176 1.134,0.482l0.473,-0.5c-0.383,-0.44 -0.954,-0.674 -1.589,-0.674Z" style="fill:#fff;fill-rule:nonzero;"/><path d="M212.218,118.588l-0.737,-0l-0,0.576c-0.338,-0.405 -0.838,-0.666 -1.508,-0.666c-1.202,-0 -2.137,0.935 -2.137,2.227c-0,1.292 0.935,2.227 2.137,2.227c0.67,0 1.17,-0.261 1.508,-0.661l-0,0.571l0.737,0l-0,-4.274Zm-2.16,0.602c0.864,0 1.467,0.662 1.467,1.535c0,0.878 -0.603,1.539 -1.467,1.539c-0.877,0 -1.472,-0.688 -1.472,-1.539c0,-0.851 0.581,-1.535 1.472,-1.535Z" style="fill:#fff;fill-rule:nonzero;"/><path d="M216.677,118.588l-1.795,-0l-0,-1.341l-0.737,-0l-0,1.341l-0.914,-0l0,0.67l0.914,-0l-0,2.097c-0,1.089 0.553,1.597 1.479,1.597c0.527,0 0.954,-0.184 1.283,-0.422l-0.347,-0.554c-0.243,0.167 -0.558,0.288 -0.873,0.288c-0.463,0 -0.805,-0.279 -0.805,-0.922l-0,-2.084l1.795,-0l0,-0.67Z" style="fill:#fff;fill-rule:nonzero;"/><path d="M219.648,118.498c-1.229,-0 -2.124,0.913 -2.124,2.227c0,1.332 0.899,2.227 2.169,2.227c0.63,0 1.224,-0.153 1.755,-0.647l-0.392,-0.504c-0.364,0.315 -0.819,0.508 -1.318,0.508c-0.734,0 -1.351,-0.436 -1.454,-1.323l3.361,-0c0.005,-0.081 0.014,-0.18 0.014,-0.274c-0.009,-1.31 -0.846,-2.214 -2.011,-2.214Zm-0.014,0.652c0.693,-0 1.184,0.486 1.274,1.242l-2.615,0c0.112,-0.729 0.585,-1.242 1.341,-1.242Z" style="fill:#fff;fill-rule:nonzero;"/><path d="M224.706,118.498c-1.202,-0 -2.137,0.935 -2.137,2.227c-0,1.292 0.935,2.227 2.137,2.227c0.67,0 1.17,-0.261 1.508,-0.661l-0,0.571l0.737,0l-0,-6.479l-0.737,-0l-0,2.78c-0.338,-0.404 -0.838,-0.665 -1.508,-0.665Zm0.085,0.692c0.864,0 1.467,0.662 1.467,1.535c0,0.878 -0.603,1.539 -1.467,1.539c-0.877,0 -1.472,-0.688 -1.472,-1.539c0,-0.851 0.581,-1.535 1.472,-1.535Z" style="fill:#fff;fill-rule:nonzero;"/><circle cx="107.728" cy="119.623" r="2.835" style="fill:#ebebeb;"/><circle cx="172.302" cy="119.623" r="2.835" style="fill:#ebebeb;"/><path d="M24.912,136.181c-2.52,0 -4.349,1.811 -4.349,4.326c-0,2.514 1.829,4.325 4.349,4.325c1.452,0 2.706,-0.647 3.414,-1.697l-0.864,-0.63c-0.552,0.822 -1.47,1.314 -2.55,1.314c-1.848,0 -3.246,-1.338 -3.246,-3.312c0,-1.975 1.398,-3.313 3.246,-3.313c1.086,0 2.01,0.51 2.556,1.32l0.882,-0.594c-0.66,-1.079 -1.968,-1.739 -3.438,-1.739Z" style="fill:#fff;fill-rule:nonzero;"/><path d="M32.539,138.887c-1.729,0 -3.012,1.277 -3.012,2.97c-0,1.692 1.283,2.969 3.012,2.969c1.728,0 3.017,-1.277 3.017,-2.969c0,-1.693 -1.289,-2.97 -3.017,-2.97Zm-0,0.923c1.14,0 2.01,0.852 2.01,2.047c-0,1.194 -0.87,2.052 -2.01,2.052c-1.147,0 -2.011,-0.858 -2.011,-2.052c0,-1.195 0.864,-2.047 2.011,-2.047Z" style="fill:#fff;fill-rule:nonzero;"/><path d="M40.039,138.887c-0.661,0 -1.399,0.222 -1.867,0.863l0,-0.743l-0.971,0l-0,5.699l0.977,0l0,-3.197c0,-1.063 0.768,-1.693 1.687,-1.693c0.99,0 1.566,0.618 1.566,1.668l-0,3.222l0.983,0l0,-3.54c0,-1.368 -0.971,-2.279 -2.375,-2.279Z" style="fill:#fff;fill-rule:nonzero;"/><path d="M48.222,139.007l-2.394,0l0,-1.788l-0.983,0l-0,1.788l-1.218,0l-0,0.893l1.218,0l-0,2.797c-0,1.452 0.737,2.129 1.973,2.129c0.702,0 1.272,-0.246 1.71,-0.563l-0.462,-0.738c-0.324,0.222 -0.744,0.384 -1.164,0.384c-0.618,0 -1.074,-0.372 -1.074,-1.23l0,-2.779l2.394,0l0,-0.893Z" style="fill:#fff;fill-rule:nonzero;"/><path d="M52.183,138.887c-1.639,0 -2.832,1.217 -2.832,2.97c-0,1.776 1.199,2.969 2.892,2.969c0.84,0 1.632,-0.204 2.339,-0.863l-0.521,-0.672c-0.486,0.42 -1.092,0.678 -1.758,0.678c-0.979,0 -1.801,-0.582 -1.939,-1.765l4.482,0c0.006,-0.108 0.018,-0.24 0.018,-0.365c-0.012,-1.747 -1.127,-2.952 -2.681,-2.952Zm-0.018,0.869c0.924,0 1.578,0.649 1.698,1.657l-3.487,0c0.15,-0.972 0.78,-1.657 1.789,-1.657Z" style="fill:#fff;fill-rule:nonzero;"/><path d="M61.153,139.007l-1.158,0l-1.65,2.106l-1.638,-2.106l-1.2,0l2.196,2.79l-2.25,2.909l1.146,0l1.692,-2.189l1.716,2.189l1.206,0l-2.256,-2.921l2.196,-2.778Z" style="fill:#fff;fill-rule:nonzero;"/><path d="M66.33,139.007l-2.394,0l0,-1.788l-0.983,0l-0,1.788l-1.218,0l-0,0.893l1.218,0l-0,2.797c-0,1.452 0.737,2.129 1.973,2.129c0.702,0 1.272,-0.246 1.71,-0.563l-0.462,-0.738c-0.324,0.222 -0.744,0.384 -1.164,0.384c-0.618,0 -1.074,-0.372 -1.074,-1.23l0,-2.779l2.394,0l0,-0.893Z" style="fill:#fff;fill-rule:nonzero;"/><rect x="19.843" y="147.707" width="257.379" height="45.354" style="fill:#fff;"/></svg>