<?xml version="1.0" encoding="UTF-8" standalone="no"?><!DOCTYPE svg PUBLIC "-//W3C//DTD SVG 1.1//EN" "http://www.w3.org/Graphics/SVG/1.1/DTD/svg11.dtd"><svg width="100%" height="100%" viewBox="0 0 298 420" version="1.1" xmlns="http://www.w3.org/2000/svg" xmlns:xlink="http://www.w3.org/1999/xlink" xml:space="preserve" xmlns:serif="http://www.serif.com/" style="fill-rule:evenodd;clip-rule:evenodd;"><clipPath id="_clip1"><rect x="-13.701" y="-14.173" width="345.827" height="460.63"/></clipPath><g clip-path="url(#_clip1)"><g id="Ebene-1" serif:id="Ebene 1"><rect x="-13.701" y="-14.173" width="345.827" height="460.63" style="fill:#004153;"/><g><rect x="218.758" y="385.673" width="3.28" height="13.775" style="fill:#fff;"/><path d="M245.758,399.449l-0,-13.776l-3.28,0l-0,8.423l-6.298,-8.423l-3.148,0l-0,8.423l-6.271,-8.423l-3.149,0l-0,13.776l3.28,-0l-0,-8.397l6.271,8.397l3.175,-0l-0,-8.397l6.271,8.397l3.149,-0Z" style="fill:#fff;fill-rule:nonzero;"/><path d="M254.154,388.56c2.23,-0 3.831,1.627 3.831,3.988c-0,2.362 -1.601,3.988 -3.831,3.988c-2.257,0 -3.831,-1.626 -3.831,-3.988c0,-2.361 1.601,-3.988 3.831,-3.988m0,-3.149c-4.251,0 -7.268,3.044 -7.268,7.137c-0,4.093 3.017,7.137 7.268,7.137c4.251,0 7.268,-3.044 7.268,-7.137c0,-4.093 -3.017,-7.137 -7.268,-7.137" style="fill:#fff;fill-rule:nonzero;"/><path d="M269.609,388.56c2.23,-0 3.831,1.627 3.831,3.988c-0,0.446 -0.053,0.866 -0.158,1.26l-0.446,-0.604l-3.568,0l2.177,2.913c-0.524,0.262 -1.154,0.419 -1.81,0.419c-2.23,0 -3.831,-1.626 -3.831,-3.988c-0.026,-2.335 1.574,-3.988 3.805,-3.988m-0,-3.149c-4.251,0 -7.268,3.044 -7.268,7.137c-0,4.093 3.017,7.137 7.268,7.137c1.443,0 2.676,-0.394 3.726,-1.076l0.603,0.814l3.857,-0l-2.178,-2.939c0.761,-1.102 1.207,-2.388 1.207,-3.936c0.053,-4.093 -2.965,-7.137 -7.215,-7.137" style="fill:#f39260;fill-rule:nonzero;"/></g></g></g><g id="Ebene-11" serif:id="Ebene 1"><g transform="matrix(1,0,0,1,126.378,45.1181)"><g transform="matrix(16,0,0,16,-106.535,-13.7561)"><rect x="0.064" y="-0.7" width="0.167" height="0.7" style="fill:#fff;fill-rule:nonzero;"/></g><g transform="matrix(16,0,0,16,-101.831,-13.7561)"><path d="M0.351,-0.504c-0.066,0 -0.115,0.024 -0.146,0.075l-0,-0.061l-0.15,-0l0,0.49l0.156,-0l0,-0.264c0,-0.064 0.036,-0.093 0.08,-0.093c0.049,-0 0.078,0.032 0.078,0.09l-0,0.267l0.156,-0l-0,-0.322c-0,-0.113 -0.076,-0.182 -0.174,-0.182Z" style="fill:#fff;fill-rule:nonzero;"/></g><g transform="matrix(16,0,0,16,-92.8554,-13.7561)"><path d="M0.563,-0.49l-0.166,-0l-0.111,0.319l-0.109,-0.319l-0.171,-0l0.19,0.49l0.179,-0l0.188,-0.49Z" style="fill:#fff;fill-rule:nonzero;"/></g><g transform="matrix(16,0,0,16,-84.1114,-13.7561)"><path d="M0.281,-0.504c-0.15,0 -0.252,0.107 -0.252,0.261c0,0.154 0.104,0.256 0.259,0.256c0.09,-0 0.164,-0.03 0.215,-0.08l-0.1,-0.095c-0.031,0.029 -0.071,0.044 -0.107,0.044c-0.055,-0 -0.093,-0.025 -0.106,-0.079l0.333,-0c0.002,-0.011 0.003,-0.033 0.003,-0.049c-0.001,-0.153 -0.1,-0.258 -0.245,-0.258Zm0,0.133c0.046,-0 0.076,0.026 0.089,0.075l-0.179,0c0.012,-0.049 0.041,-0.075 0.09,-0.075Z" style="fill:#fff;fill-rule:nonzero;"/></g><g transform="matrix(16,0,0,16,-75.3434,-13.7561)"><path d="M0.467,-0.461c-0.08,-0.031 -0.131,-0.042 -0.211,-0.042c-0.133,-0 -0.211,0.059 -0.211,0.163c-0,0.088 0.055,0.138 0.172,0.155l0.029,0.004c0.056,0.009 0.078,0.016 0.078,0.035c-0,0.021 -0.02,0.032 -0.069,0.032c-0.068,0 -0.124,-0.017 -0.173,-0.046l-0.054,0.121c0.056,0.036 0.142,0.051 0.226,0.051c0.143,0 0.227,-0.064 0.227,-0.171c-0,-0.083 -0.056,-0.134 -0.16,-0.15l-0.036,-0.005c-0.049,-0.008 -0.08,-0.013 -0.08,-0.034c0,-0.018 0.016,-0.03 0.057,-0.03c0.051,0.001 0.114,0.018 0.162,0.038l0.043,-0.121Z" style="fill:#fff;fill-rule:nonzero;"/></g><g transform="matrix(16,0,0,16,-67.3194,-13.7561)"><path d="M0.432,-0.49l-0.168,-0l0,-0.143l-0.156,-0l0,0.143l-0.091,-0l-0,0.138l0.091,-0l0,0.164c0,0.123 0.06,0.201 0.191,0.201c0.079,-0 0.128,-0.023 0.174,-0.055l-0.054,-0.121c-0.025,0.014 -0.056,0.03 -0.085,0.03c-0.04,0 -0.07,-0.019 -0.07,-0.075l0,-0.144l0.168,-0l-0,-0.138Z" style="fill:#fff;fill-rule:nonzero;"/></g><g transform="matrix(16,0,0,16,-59.6474,-13.7561)"><path d="M0.656,-0.504c-0.068,0 -0.123,0.026 -0.156,0.082c-0.03,-0.052 -0.084,-0.082 -0.149,-0.082c-0.066,0 -0.115,0.024 -0.146,0.075l-0,-0.061l-0.15,-0l0,0.49l0.156,-0l0,-0.264c0,-0.064 0.036,-0.093 0.08,-0.093c0.049,-0 0.078,0.032 0.078,0.09l-0,0.267l0.156,-0l-0,-0.264c-0,-0.064 0.036,-0.093 0.08,-0.093c0.049,-0 0.078,0.032 0.078,0.09l-0,0.267l0.156,-0l-0,-0.322c-0,-0.113 -0.071,-0.182 -0.183,-0.182Z" style="fill:#fff;fill-rule:nonzero;"/></g><g transform="matrix(16,0,0,16,-45.3994,-13.7561)"><path d="M0.281,-0.504c-0.15,0 -0.252,0.107 -0.252,0.261c0,0.154 0.104,0.256 0.259,0.256c0.09,-0 0.164,-0.03 0.215,-0.08l-0.1,-0.095c-0.031,0.029 -0.071,0.044 -0.107,0.044c-0.055,-0 -0.093,-0.025 -0.106,-0.079l0.333,-0c0.002,-0.011 0.003,-0.033 0.003,-0.049c-0.001,-0.153 -0.1,-0.258 -0.245,-0.258Zm0,0.133c0.046,-0 0.076,0.026 0.089,0.075l-0.179,0c0.012,-0.049 0.041,-0.075 0.09,-0.075Z" style="fill:#fff;fill-rule:nonzero;"/></g><g transform="matrix(16,0,0,16,-36.5194,-13.7561)"><path d="M0.351,-0.504c-0.066,0 -0.115,0.024 -0.146,0.075l-0,-0.061l-0.15,-0l0,0.49l0.156,-0l0,-0.264c0,-0.064 0.036,-0.093 0.08,-0.093c0.049,-0 0.078,0.032 0.078,0.09l-0,0.267l0.156,-0l-0,-0.322c-0,-0.113 -0.076,-0.182 -0.174,-0.182Z" style="fill:#fff;fill-rule:nonzero;"/></g><g transform="matrix(16,0,0,16,-27.3754,-13.7561)"><path d="M0.432,-0.49l-0.168,-0l0,-0.143l-0.156,-0l0,0.143l-0.091,-0l-0,0.138l0.091,-0l0,0.164c0,0.123 0.06,0.201 0.191,0.201c0.079,-0 0.128,-0.023 0.174,-0.055l-0.054,-0.121c-0.025,0.014 -0.056,0.03 -0.085,0.03c-0.04,0 -0.07,-0.019 -0.07,-0.075l0,-0.144l0.168,-0l-0,-0.138Z" style="fill:#fff;fill-rule:nonzero;"/></g><g transform="matrix(16,0,0,16,-16.1114,-13.7561)"><path d="M0.467,-0.461c-0.08,-0.031 -0.131,-0.042 -0.211,-0.042c-0.133,-0 -0.211,0.059 -0.211,0.163c-0,0.088 0.055,0.138 0.172,0.155l0.029,0.004c0.056,0.009 0.078,0.016 0.078,0.035c-0,0.021 -0.02,0.032 -0.069,0.032c-0.068,0 -0.124,-0.017 -0.173,-0.046l-0.054,0.121c0.056,0.036 0.142,0.051 0.226,0.051c0.143,0 0.227,-0.064 0.227,-0.171c-0,-0.083 -0.056,-0.134 -0.16,-0.15l-0.036,-0.005c-0.049,-0.008 -0.08,-0.013 -0.08,-0.034c0,-0.018 0.016,-0.03 0.057,-0.03c0.051,0.001 0.114,0.018 0.162,0.038l0.043,-0.121Z" style="fill:#fff;fill-rule:nonzero;"/></g><g transform="matrix(16,0,0,16,-8.03143,-13.7561)"><path d="M0.549,-0.49l-0.151,-0l0,0.053c-0.029,-0.039 -0.074,-0.067 -0.141,-0.067c-0.131,0 -0.228,0.114 -0.228,0.258c0,0.145 0.097,0.259 0.228,0.259c0.067,-0 0.112,-0.028 0.141,-0.066l0,0.053l0.151,-0l0,-0.49Zm-0.254,0.132c0.061,-0 0.105,0.047 0.105,0.113c-0,0.065 -0.044,0.112 -0.105,0.112c-0.063,0 -0.105,-0.048 -0.105,-0.112c-0,-0.065 0.042,-0.113 0.105,-0.113Z" style="fill:#fff;fill-rule:nonzero;"/></g><g transform="matrix(16,0,0,16,1.63257,-13.7561)"><path d="M0.351,-0.504c-0.066,0 -0.115,0.024 -0.146,0.075l-0,-0.061l-0.15,-0l0,0.49l0.156,-0l0,-0.264c0,-0.064 0.036,-0.093 0.08,-0.093c0.049,-0 0.078,0.032 0.078,0.09l-0,0.267l0.156,-0l-0,-0.322c-0,-0.113 -0.076,-0.182 -0.174,-0.182Z" style="fill:#fff;fill-rule:nonzero;"/></g><g transform="matrix(16,0,0,16,10.8566,-13.7561)"><path d="M0.211,-0.49l-0.156,-0l0,0.49l0.156,-0l0,-0.49Zm-0.078,-0.245c-0.053,-0 -0.094,0.041 -0.094,0.094c0,0.052 0.041,0.093 0.094,0.093c0.052,-0 0.093,-0.041 0.093,-0.093c-0,-0.053 -0.041,-0.094 -0.093,-0.094Z" style="fill:#fff;fill-rule:nonzero;"/></g><g transform="matrix(16,0,0,16,15.1126,-13.7561)"><path d="M0.432,-0.49l-0.168,-0l0,-0.143l-0.156,-0l0,0.143l-0.091,-0l-0,0.138l0.091,-0l0,0.164c0,0.123 0.06,0.201 0.191,0.201c0.079,-0 0.128,-0.023 0.174,-0.055l-0.054,-0.121c-0.025,0.014 -0.056,0.03 -0.085,0.03c-0.04,0 -0.07,-0.019 -0.07,-0.075l0,-0.144l0.168,-0l-0,-0.138Z" style="fill:#fff;fill-rule:nonzero;"/></g><g transform="matrix(16,0,0,16,22.6646,-13.7561)"><path d="M0.576,-0.49l-0.171,-0l-0.11,0.22l-0.111,-0.22l-0.18,-0l0.207,0.382l-0.168,0.309l0.171,-0l0.362,-0.691Z" style="fill:#fff;fill-rule:nonzero;"/></g><g transform="matrix(16,0,0,16,35.2646,-13.7561)"><path d="M0.293,-0.504c-0.156,0 -0.264,0.108 -0.264,0.259c0,0.15 0.108,0.258 0.264,0.258c0.091,-0 0.163,-0.04 0.21,-0.106l-0.122,-0.087c-0.024,0.031 -0.055,0.047 -0.092,0.047c-0.055,0 -0.1,-0.041 -0.1,-0.112c-0,-0.071 0.046,-0.113 0.101,-0.113c0.038,-0 0.066,0.015 0.09,0.047l0.123,-0.086c-0.047,-0.066 -0.119,-0.107 -0.21,-0.107Z" style="fill:#fff;fill-rule:nonzero;"/></g><g transform="matrix(16,0,0,16,43.5686,-13.7561)"><path d="M0.211,-0.72l-0.156,-0l0,0.72l0.156,-0l0,-0.264c0,-0.064 0.036,-0.093 0.08,-0.093c0.049,-0 0.078,0.032 0.078,0.09l-0,0.267l0.156,-0l-0,-0.322c-0,-0.113 -0.076,-0.182 -0.174,-0.182c-0.061,0 -0.109,0.021 -0.14,0.065l0,-0.281Z" style="fill:#fff;fill-rule:nonzero;"/></g><g transform="matrix(16,0,0,16,52.7926,-13.7561)"><path d="M0.281,-0.504c-0.15,0 -0.252,0.107 -0.252,0.261c0,0.154 0.104,0.256 0.259,0.256c0.09,-0 0.164,-0.03 0.215,-0.08l-0.1,-0.095c-0.031,0.029 -0.071,0.044 -0.107,0.044c-0.055,-0 -0.093,-0.025 -0.106,-0.079l0.333,-0c0.002,-0.011 0.003,-0.033 0.003,-0.049c-0.001,-0.153 -0.1,-0.258 -0.245,-0.258Zm0,0.133c0.046,-0 0.076,0.026 0.089,0.075l-0.179,0c0.012,-0.049 0.041,-0.075 0.09,-0.075Z" style="fill:#fff;fill-rule:nonzero;"/></g><g transform="matrix(16,0,0,16,61.6726,-13.7561)"><path d="M0.293,-0.504c-0.156,0 -0.264,0.108 -0.264,0.259c0,0.15 0.108,0.258 0.264,0.258c0.091,-0 0.163,-0.04 0.21,-0.106l-0.122,-0.087c-0.024,0.031 -0.055,0.047 -0.092,0.047c-0.055,0 -0.1,-0.041 -0.1,-0.112c-0,-0.071 0.046,-0.113 0.101,-0.113c0.038,-0 0.066,0.015 0.09,0.047l0.123,-0.086c-0.047,-0.066 -0.119,-0.107 -0.21,-0.107Z" style="fill:#fff;fill-rule:nonzero;"/></g><g transform="matrix(16,0,0,16,69.9766,-13.7561)"><path d="M0.211,-0.72l-0.156,0l0,0.72l0.156,-0l0,-0.19l0.034,0l0.121,0.19l0.189,-0l-0.182,-0.259l0.181,-0.231l-0.189,-0l-0.116,0.162l-0.038,0l0,-0.392Z" style="fill:#fff;fill-rule:nonzero;"/></g><g transform="matrix(16,0,0,16,78.3526,-13.7561)"><path d="M0.281,-0.504c-0.15,0 -0.252,0.107 -0.252,0.261c0,0.154 0.104,0.256 0.259,0.256c0.09,-0 0.164,-0.03 0.215,-0.08l-0.1,-0.095c-0.031,0.029 -0.071,0.044 -0.107,0.044c-0.055,-0 -0.093,-0.025 -0.106,-0.079l0.333,-0c0.002,-0.011 0.003,-0.033 0.003,-0.049c-0.001,-0.153 -0.1,-0.258 -0.245,-0.258Zm0,0.133c0.046,-0 0.076,0.026 0.089,0.075l-0.179,0c0.012,-0.049 0.041,-0.075 0.09,-0.075Z" style="fill:#fff;fill-rule:nonzero;"/></g><g transform="matrix(16,0,0,16,87.2326,-13.7561)"><path d="M0.339,-0.504c-0.06,0 -0.106,0.023 -0.134,0.07l-0,-0.056l-0.15,-0l0,0.49l0.156,-0l0,-0.265c0,-0.061 0.034,-0.089 0.09,-0.089c0.028,0 0.057,0.006 0.078,0.013l0.015,-0.155c-0.012,-0.004 -0.032,-0.008 -0.055,-0.008Z" style="fill:#fff;fill-rule:nonzero;"/></g><g transform="matrix(12,0,0,12,-106.535,9.14785)"><path d="M0.187,-0.7l-0.087,0l-0,0.7l0.087,-0l0,-0.311l0.414,-0l-0,0.311l0.087,-0l0,-0.7l-0.087,0l-0,0.306l-0.414,0l0,-0.306Z" style="fill:#fff;fill-rule:nonzero;"/></g><g transform="matrix(12,0,0,12,-97.1934,9.14785)"><path d="M0.301,-0.485c-0.144,0 -0.25,0.106 -0.25,0.247c-0,0.142 0.106,0.248 0.25,0.248c0.145,-0 0.252,-0.106 0.252,-0.248c-0,-0.141 -0.107,-0.247 -0.252,-0.247Zm0,0.077c0.096,-0 0.168,0.071 0.168,0.17c0,0.1 -0.072,0.172 -0.168,0.172c-0.095,-0 -0.167,-0.072 -0.167,-0.172c-0,-0.099 0.072,-0.17 0.167,-0.17Z" style="fill:#fff;fill-rule:nonzero;"/></g><g transform="matrix(12,0,0,12,-90.1074,9.14785)"><path d="M0.471,-0.475l-0.093,0l-0.135,0.388l-0.135,-0.388l-0.087,0l0.171,0.475l0.096,-0l0.135,-0.386l0.136,0.386l0.098,-0l0.171,-0.475l-0.086,0l-0.135,0.389l-0.136,-0.389Z" style="fill:#fff;fill-rule:nonzero;"/></g><g transform="matrix(12,0,0,12,-77.0334,9.14785)"><path d="M0.336,-0.485c-0.076,0 -0.131,0.029 -0.168,0.073l-0,-0.308l-0.081,0l-0,0.72l0.081,-0l-0,-0.064c0.037,0.045 0.092,0.074 0.168,0.074c0.133,-0 0.237,-0.104 0.237,-0.248c-0,-0.143 -0.104,-0.247 -0.237,-0.247Zm-0.01,0.077c0.097,-0 0.163,0.076 0.163,0.17c0,0.095 -0.064,0.172 -0.163,0.172c-0.096,-0 -0.163,-0.074 -0.163,-0.172c-0,-0.097 0.067,-0.17 0.163,-0.17Z" style="fill:#fff;fill-rule:nonzero;"/></g><g transform="matrix(12,0,0,12,-69.6714,9.14785)"><path d="M0.537,-0.475l-0.081,0l-0,0.064c-0.038,-0.045 -0.093,-0.074 -0.168,-0.074c-0.134,0 -0.237,0.104 -0.237,0.247c-0,0.144 0.103,0.248 0.237,0.248c0.075,-0 0.13,-0.029 0.168,-0.073l-0,0.063l0.081,-0l0,-0.475Zm-0.239,0.067c0.096,-0 0.163,0.073 0.163,0.17c-0,0.098 -0.067,0.172 -0.163,0.172c-0.098,-0 -0.164,-0.077 -0.164,-0.172c-0,-0.094 0.064,-0.17 0.164,-0.17Z" style="fill:#fff;fill-rule:nonzero;"/></g><g transform="matrix(12,0,0,12,-62.3034,9.14785)"><rect x="0.087" y="-0.72" width="0.081" height="0.72" style="fill:#fff;fill-rule:nonzero;"/></g><g transform="matrix(12,0,0,12,-59.3694,9.14785)"><path d="M0.537,-0.475l-0.081,0l-0,0.064c-0.038,-0.045 -0.093,-0.074 -0.168,-0.074c-0.134,0 -0.237,0.104 -0.237,0.247c-0,0.144 0.103,0.248 0.237,0.248c0.075,-0 0.13,-0.029 0.168,-0.073l-0,0.063l0.081,-0l0,-0.475Zm-0.239,0.067c0.096,-0 0.163,0.073 0.163,0.17c-0,0.098 -0.067,0.172 -0.163,0.172c-0.098,-0 -0.164,-0.077 -0.164,-0.172c-0,-0.094 0.064,-0.17 0.164,-0.17Z" style="fill:#fff;fill-rule:nonzero;"/></g><g transform="matrix(12,0,0,12,-52.0014,9.14785)"><path d="M0.323,-0.485c-0.055,0 -0.117,0.019 -0.156,0.072l0,-0.062l-0.08,0l-0,0.475l0.081,-0l-0,-0.266c-0,-0.089 0.064,-0.142 0.141,-0.142c0.082,0 0.13,0.052 0.13,0.139l0,0.269l0.082,-0l-0,-0.295c-0,-0.114 -0.081,-0.19 -0.198,-0.19Z" style="fill:#fff;fill-rule:nonzero;"/></g><g transform="matrix(12,0,0,12,-44.8914,9.14785)"><path d="M0.297,-0.485c-0.147,0 -0.246,0.106 -0.246,0.247c-0,0.142 0.099,0.248 0.246,0.248c0.07,-0 0.133,-0.026 0.176,-0.074l-0.05,-0.057c-0.033,0.032 -0.078,0.055 -0.128,0.055c-0.092,-0 -0.161,-0.072 -0.161,-0.172c-0,-0.099 0.069,-0.17 0.161,-0.17c0.05,-0 0.091,0.019 0.126,0.053l0.052,-0.055c-0.042,-0.049 -0.106,-0.075 -0.176,-0.075Z" style="fill:#fff;fill-rule:nonzero;"/></g><g transform="matrix(12,0,0,12,-38.9634,9.14785)"><path d="M0.287,-0.485c-0.137,0 -0.236,0.101 -0.236,0.247c-0,0.149 0.099,0.248 0.241,0.248c0.07,-0 0.136,-0.017 0.194,-0.072l-0.043,-0.056c-0.04,0.035 -0.091,0.057 -0.146,0.057c-0.082,-0 -0.151,-0.049 -0.162,-0.148l0.373,0c0.001,-0.009 0.002,-0.02 0.002,-0.03c-0.001,-0.146 -0.094,-0.246 -0.223,-0.246Zm-0.002,0.072c0.077,0 0.132,0.054 0.142,0.139l-0.291,-0c0.012,-0.082 0.065,-0.139 0.149,-0.139Z" style="fill:#fff;fill-rule:nonzero;"/></g><g transform="matrix(12,0,0,12,-32.3574,9.14785)"><path d="M0.288,-0.485c-0.134,0 -0.237,0.104 -0.237,0.247c-0,0.144 0.103,0.248 0.237,0.248c0.075,-0 0.13,-0.029 0.168,-0.073l-0,0.063l0.081,-0l0,-0.72l-0.081,0l-0,0.309c-0.038,-0.045 -0.093,-0.074 -0.168,-0.074Zm0.01,0.077c0.096,-0 0.163,0.073 0.163,0.17c-0,0.098 -0.067,0.172 -0.163,0.172c-0.098,-0 -0.164,-0.077 -0.164,-0.172c-0,-0.094 0.064,-0.17 0.164,-0.17Z" style="fill:#fff;fill-rule:nonzero;"/></g><g transform="matrix(12,0,0,12,-21.8994,9.14785)"><path d="M0.537,-0.475l-0.081,0l-0,0.064c-0.038,-0.045 -0.093,-0.074 -0.168,-0.074c-0.134,0 -0.237,0.104 -0.237,0.247c-0,0.144 0.103,0.248 0.237,0.248c0.075,-0 0.13,-0.029 0.168,-0.073l-0,0.063l0.081,-0l0,-0.475Zm-0.239,0.067c0.096,-0 0.163,0.073 0.163,0.17c-0,0.098 -0.067,0.172 -0.163,0.172c-0.098,-0 -0.164,-0.077 -0.164,-0.172c-0,-0.094 0.064,-0.17 0.164,-0.17Z" style="fill:#fff;fill-rule:nonzero;"/></g><g transform="matrix(12,0,0,12,-14.5314,9.14785)"><path d="M0.306,-0.485c-0.057,0 -0.106,0.026 -0.139,0.072l-0,-0.062l-0.08,0l-0,0.475l0.081,-0l-0,-0.264c-0,-0.088 0.051,-0.144 0.123,-0.144c0.027,0 0.059,0.007 0.082,0.019l0.02,-0.08c-0.026,-0.011 -0.053,-0.016 -0.087,-0.016Z" style="fill:#fff;fill-rule:nonzero;"/></g><g transform="matrix(12,0,0,12,-9.86343,9.14785)"><path d="M0.287,-0.485c-0.137,0 -0.236,0.101 -0.236,0.247c-0,0.149 0.099,0.248 0.241,0.248c0.07,-0 0.136,-0.017 0.194,-0.072l-0.043,-0.056c-0.04,0.035 -0.091,0.057 -0.146,0.057c-0.082,-0 -0.151,-0.049 -0.162,-0.148l0.373,0c0.001,-0.009 0.002,-0.02 0.002,-0.03c-0.001,-0.146 -0.094,-0.246 -0.223,-0.246Zm-0.002,0.072c0.077,0 0.132,0.054 0.142,0.139l-0.291,-0c0.012,-0.082 0.065,-0.139 0.149,-0.139Z" style="fill:#fff;fill-rule:nonzero;"/></g><g transform="matrix(12,0,0,12,-0.257433,9.14785)"><path d="M0.409,-0.475l-0.2,0l0,-0.149l-0.081,0l-0,0.149l-0.102,0l0,0.074l0.102,0l-0,0.234c-0,0.121 0.061,0.177 0.164,0.177c0.058,-0 0.106,-0.021 0.142,-0.047l-0.038,-0.061c-0.027,0.018 -0.062,0.032 -0.097,0.032c-0.052,-0 -0.09,-0.031 -0.09,-0.103l0,-0.232l0.2,0l-0,-0.074Z" style="fill:#fff;fill-rule:nonzero;"/></g><g transform="matrix(12,0,0,12,5.06457,9.14785)"><path d="M0.168,-0.72l-0.081,0l-0,0.72l0.081,-0l-0,-0.267c-0,-0.088 0.064,-0.141 0.141,-0.141c0.082,0 0.13,0.052 0.13,0.139l0,0.269l0.082,-0l-0,-0.295c-0,-0.114 -0.081,-0.19 -0.198,-0.19c-0.055,0 -0.116,0.018 -0.155,0.071l-0,-0.306Z" style="fill:#fff;fill-rule:nonzero;"/></g><g transform="matrix(12,0,0,12,12.1746,9.14785)"><path d="M0.287,-0.485c-0.137,0 -0.236,0.101 -0.236,0.247c-0,0.149 0.099,0.248 0.241,0.248c0.07,-0 0.136,-0.017 0.194,-0.072l-0.043,-0.056c-0.04,0.035 -0.091,0.057 -0.146,0.057c-0.082,-0 -0.151,-0.049 -0.162,-0.148l0.373,0c0.001,-0.009 0.002,-0.02 0.002,-0.03c-0.001,-0.146 -0.094,-0.246 -0.223,-0.246Zm-0.002,0.072c0.077,0 0.132,0.054 0.142,0.139l-0.291,-0c0.012,-0.082 0.065,-0.139 0.149,-0.139Z" style="fill:#fff;fill-rule:nonzero;"/></g><g transform="matrix(12,0,0,12,21.8706,9.14785)"><path d="M0.168,-0.475l-0.081,0l-0,0.475l0.081,-0l-0,-0.475Zm-0.041,-0.225c-0.033,-0 -0.058,0.025 -0.058,0.058c0,0.033 0.025,0.057 0.058,0.057c0.032,0 0.058,-0.024 0.058,-0.057c-0,-0.033 -0.026,-0.058 -0.058,-0.058Z" style="fill:#fff;fill-rule:nonzero;"/></g><g transform="matrix(12,0,0,12,24.8046,9.14785)"><path d="M0.323,-0.485c-0.055,0 -0.117,0.019 -0.156,0.072l0,-0.062l-0.08,0l-0,0.475l0.081,-0l-0,-0.266c-0,-0.089 0.064,-0.142 0.141,-0.142c0.082,0 0.13,0.052 0.13,0.139l0,0.269l0.082,-0l-0,-0.295c-0,-0.114 -0.081,-0.19 -0.198,-0.19Z" style="fill:#fff;fill-rule:nonzero;"/></g><g transform="matrix(12,0,0,12,31.7946,9.14785)"><path d="M0.509,-0.475l-0.087,0l-0.159,0.392l-0.16,-0.392l-0.089,0l0.2,0.475l0.096,0l0.199,-0.475Z" style="fill:#fff;fill-rule:nonzero;"/></g><g transform="matrix(12,0,0,12,37.8786,9.14785)"><path d="M0.287,-0.485c-0.137,0 -0.236,0.101 -0.236,0.247c-0,0.149 0.099,0.248 0.241,0.248c0.07,-0 0.136,-0.017 0.194,-0.072l-0.043,-0.056c-0.04,0.035 -0.091,0.057 -0.146,0.057c-0.082,-0 -0.151,-0.049 -0.162,-0.148l0.373,0c0.001,-0.009 0.002,-0.02 0.002,-0.03c-0.001,-0.146 -0.094,-0.246 -0.223,-0.246Zm-0.002,0.072c0.077,0 0.132,0.054 0.142,0.139l-0.291,-0c0.012,-0.082 0.065,-0.139 0.149,-0.139Z" style="fill:#fff;fill-rule:nonzero;"/></g><g transform="matrix(12,0,0,12,44.4846,9.14785)"><path d="M0.442,-0.433c-0.046,-0.031 -0.114,-0.051 -0.19,-0.051c-0.115,-0 -0.19,0.054 -0.19,0.145c-0,0.072 0.051,0.121 0.157,0.134l0.056,0.006c0.064,0.008 0.095,0.03 0.095,0.065c0,0.047 -0.048,0.073 -0.126,0.073c-0.08,-0 -0.127,-0.023 -0.162,-0.051l-0.038,0.061c0.062,0.047 0.141,0.061 0.199,0.061c0.13,-0 0.211,-0.058 0.211,-0.149c-0,-0.078 -0.059,-0.121 -0.16,-0.135l-0.056,-0.007c-0.057,-0.007 -0.092,-0.024 -0.092,-0.062c0,-0.043 0.042,-0.071 0.107,-0.071c0.063,0 0.124,0.024 0.154,0.044l0.035,-0.063Z" style="fill:#fff;fill-rule:nonzero;"/></g><g transform="matrix(12,0,0,12,50.3286,9.14785)"><path d="M0.409,-0.475l-0.2,0l0,-0.149l-0.081,0l-0,0.149l-0.102,0l0,0.074l0.102,0l-0,0.234c-0,0.121 0.061,0.177 0.164,0.177c0.058,-0 0.106,-0.021 0.142,-0.047l-0.038,-0.061c-0.027,0.018 -0.062,0.032 -0.097,0.032c-0.052,-0 -0.09,-0.031 -0.09,-0.103l0,-0.232l0.2,0l-0,-0.074Z" style="fill:#fff;fill-rule:nonzero;"/></g><g transform="matrix(12,0,0,12,55.6506,9.14785)"><path d="M0.676,-0.485c-0.065,0 -0.139,0.024 -0.178,0.095c-0.031,-0.059 -0.094,-0.095 -0.175,-0.095c-0.055,0 -0.117,0.019 -0.156,0.072l0,-0.062l-0.08,0l-0,0.475l0.081,-0l-0,-0.266c-0,-0.089 0.064,-0.142 0.141,-0.142c0.082,0 0.13,0.052 0.13,0.139l0,0.269l0.082,-0l-0,-0.267c-0,-0.086 0.061,-0.141 0.14,-0.141c0.083,0 0.131,0.052 0.131,0.139l-0,0.269l0.081,-0l0,-0.295c0,-0.114 -0.08,-0.19 -0.197,-0.19Z" style="fill:#fff;fill-rule:nonzero;"/></g><g transform="matrix(12,0,0,12,66.9906,9.14785)"><path d="M0.287,-0.485c-0.137,0 -0.236,0.101 -0.236,0.247c-0,0.149 0.099,0.248 0.241,0.248c0.07,-0 0.136,-0.017 0.194,-0.072l-0.043,-0.056c-0.04,0.035 -0.091,0.057 -0.146,0.057c-0.082,-0 -0.151,-0.049 -0.162,-0.148l0.373,0c0.001,-0.009 0.002,-0.02 0.002,-0.03c-0.001,-0.146 -0.094,-0.246 -0.223,-0.246Zm-0.002,0.072c0.077,0 0.132,0.054 0.142,0.139l-0.291,-0c0.012,-0.082 0.065,-0.139 0.149,-0.139Z" style="fill:#fff;fill-rule:nonzero;"/></g><g transform="matrix(12,0,0,12,73.5966,9.14785)"><path d="M0.323,-0.485c-0.055,0 -0.117,0.019 -0.156,0.072l0,-0.062l-0.08,0l-0,0.475l0.081,-0l-0,-0.266c-0,-0.089 0.064,-0.142 0.141,-0.142c0.082,0 0.13,0.052 0.13,0.139l0,0.269l0.082,-0l-0,-0.295c-0,-0.114 -0.081,-0.19 -0.198,-0.19Z" style="fill:#fff;fill-rule:nonzero;"/></g><g transform="matrix(12,0,0,12,80.6286,9.14785)"><path d="M0.409,-0.475l-0.2,0l0,-0.149l-0.081,0l-0,0.149l-0.102,0l0,0.074l0.102,0l-0,0.234c-0,0.121 0.061,0.177 0.164,0.177c0.058,-0 0.106,-0.021 0.142,-0.047l-0.038,-0.061c-0.027,0.018 -0.062,0.032 -0.097,0.032c-0.052,-0 -0.09,-0.031 -0.09,-0.103l0,-0.232l0.2,0l-0,-0.074Z" style="fill:#fff;fill-rule:nonzero;"/></g><g transform="matrix(12,0,0,12,85.9506,9.14785)"><path d="M0.442,-0.433c-0.046,-0.031 -0.114,-0.051 -0.19,-0.051c-0.115,-0 -0.19,0.054 -0.19,0.145c-0,0.072 0.051,0.121 0.157,0.134l0.056,0.006c0.064,0.008 0.095,0.03 0.095,0.065c0,0.047 -0.048,0.073 -0.126,0.073c-0.08,-0 -0.127,-0.023 -0.162,-0.051l-0.038,0.061c0.062,0.047 0.141,0.061 0.199,0.061c0.13,-0 0.211,-0.058 0.211,-0.149c-0,-0.078 -0.059,-0.121 -0.16,-0.135l-0.056,-0.007c-0.057,-0.007 -0.092,-0.024 -0.092,-0.062c0,-0.043 0.042,-0.071 0.107,-0.071c0.063,0 0.124,0.024 0.154,0.044l0.035,-0.063Z" style="fill:#fff;fill-rule:nonzero;"/></g><g transform="matrix(12,0,0,12,94.8846,9.14785)"><path d="M0.168,-0.475l-0.081,0l-0,0.475l0.081,-0l-0,-0.475Zm-0.041,-0.225c-0.033,-0 -0.058,0.025 -0.058,0.058c0,0.033 0.025,0.057 0.058,0.057c0.032,0 0.058,-0.024 0.058,-0.057c-0,-0.033 -0.026,-0.058 -0.058,-0.058Z" style="fill:#fff;fill-rule:nonzero;"/></g><g transform="matrix(12,0,0,12,97.8186,9.14785)"><path d="M0.323,-0.485c-0.055,0 -0.117,0.019 -0.156,0.072l0,-0.062l-0.08,0l-0,0.475l0.081,-0l-0,-0.266c-0,-0.089 0.064,-0.142 0.141,-0.142c0.082,0 0.13,0.052 0.13,0.139l0,0.269l0.082,-0l-0,-0.295c-0,-0.114 -0.081,-0.19 -0.198,-0.19Z" style="fill:#fff;fill-rule:nonzero;"/></g><g transform="matrix(12,0,0,12,107.797,9.14785)"><path d="M0.525,-0.475l-0.09,0l-0.163,0.292l-0.171,-0.292l-0.091,0l0.217,0.373l-0.176,0.304l0.09,0l0.384,-0.677Z" style="fill:#fff;fill-rule:nonzero;"/></g><g transform="matrix(12,0,0,12,113.959,9.14785)"><path d="M0.301,-0.485c-0.144,0 -0.25,0.106 -0.25,0.247c-0,0.142 0.106,0.248 0.25,0.248c0.145,-0 0.252,-0.106 0.252,-0.248c-0,-0.141 -0.107,-0.247 -0.252,-0.247Zm0,0.077c0.096,-0 0.168,0.071 0.168,0.17c0,0.1 -0.072,0.172 -0.168,0.172c-0.095,-0 -0.167,-0.072 -0.167,-0.172c-0,-0.099 0.072,-0.17 0.167,-0.17Z" style="fill:#fff;fill-rule:nonzero;"/></g><g transform="matrix(12,0,0,12,121.081,9.14785)"><path d="M0.515,-0.475l-0.082,0l0,0.269c0,0.097 -0.057,0.14 -0.135,0.14c-0.077,-0 -0.135,-0.043 -0.135,-0.14l0,-0.269l-0.081,0l-0,0.276c-0,0.144 0.102,0.209 0.216,0.209c0.114,-0 0.217,-0.065 0.217,-0.209l-0,-0.276Z" style="fill:#fff;fill-rule:nonzero;"/></g><g transform="matrix(12,0,0,12,128.119,9.14785)"><path d="M0.306,-0.485c-0.057,0 -0.106,0.026 -0.139,0.072l-0,-0.062l-0.08,0l-0,0.475l0.081,-0l-0,-0.264c-0,-0.088 0.051,-0.144 0.123,-0.144c0.027,0 0.059,0.007 0.082,0.019l0.02,-0.08c-0.026,-0.011 -0.053,-0.016 -0.087,-0.016Z" style="fill:#fff;fill-rule:nonzero;"/></g><g transform="matrix(12,0,0,12,-106.535,23.5478)"><path d="M0.442,-0.433c-0.046,-0.031 -0.114,-0.051 -0.19,-0.051c-0.115,-0 -0.19,0.054 -0.19,0.145c-0,0.072 0.051,0.121 0.157,0.134l0.056,0.006c0.064,0.008 0.095,0.03 0.095,0.065c0,0.047 -0.048,0.073 -0.126,0.073c-0.08,-0 -0.127,-0.023 -0.162,-0.051l-0.038,0.061c0.062,0.047 0.141,0.061 0.199,0.061c0.13,-0 0.211,-0.058 0.211,-0.149c-0,-0.078 -0.059,-0.121 -0.16,-0.135l-0.056,-0.007c-0.057,-0.007 -0.092,-0.024 -0.092,-0.062c0,-0.043 0.042,-0.071 0.107,-0.071c0.063,0 0.124,0.024 0.154,0.044l0.035,-0.063Z" style="fill:#fff;fill-rule:nonzero;"/></g><g transform="matrix(12,0,0,12,-100.691,23.5478)"><path d="M0.301,-0.485c-0.144,0 -0.25,0.106 -0.25,0.247c-0,0.142 0.106,0.248 0.25,0.248c0.145,-0 0.252,-0.106 0.252,-0.248c-0,-0.141 -0.107,-0.247 -0.252,-0.247Zm0,0.077c0.096,-0 0.168,0.071 0.168,0.17c0,0.1 -0.072,0.172 -0.168,0.172c-0.095,-0 -0.167,-0.072 -0.167,-0.172c-0,-0.099 0.072,-0.17 0.167,-0.17Z" style="fill:#fff;fill-rule:nonzero;"/></g><g transform="matrix(12,0,0,12,-93.6294,23.5478)"><path d="M0.396,-0.475l-0.183,0l0,-0.081c0,-0.062 0.025,-0.098 0.082,-0.098c0.035,0 0.07,0.013 0.095,0.028l0.03,-0.068c-0.034,-0.021 -0.077,-0.036 -0.131,-0.036c-0.112,0 -0.157,0.074 -0.157,0.174l-0,0.081l-0.106,0l0,0.074l0.106,0l-0,0.401l0.081,-0l0,-0.401l0.183,0l-0,-0.074Z" style="fill:#fff;fill-rule:nonzero;"/></g><g transform="matrix(12,0,0,12,-88.7394,23.5478)"><path d="M0.409,-0.475l-0.2,0l0,-0.149l-0.081,0l-0,0.149l-0.102,0l0,0.074l0.102,0l-0,0.234c-0,0.121 0.061,0.177 0.164,0.177c0.058,-0 0.106,-0.021 0.142,-0.047l-0.038,-0.061c-0.027,0.018 -0.062,0.032 -0.097,0.032c-0.052,-0 -0.09,-0.031 -0.09,-0.103l0,-0.232l0.2,0l-0,-0.074Z" style="fill:#fff;fill-rule:nonzero;"/></g><g transform="matrix(12,0,0,12,-83.4174,23.5478)"><path d="M0.471,-0.475l-0.093,0l-0.135,0.388l-0.135,-0.388l-0.087,0l0.171,0.475l0.096,-0l0.135,-0.386l0.136,0.386l0.098,-0l0.171,-0.475l-0.086,0l-0.135,0.389l-0.136,-0.389Z" style="fill:#fff;fill-rule:nonzero;"/></g><g transform="matrix(12,0,0,12,-73.3554,23.5478)"><path d="M0.537,-0.475l-0.081,0l-0,0.064c-0.038,-0.045 -0.093,-0.074 -0.168,-0.074c-0.134,0 -0.237,0.104 -0.237,0.247c-0,0.144 0.103,0.248 0.237,0.248c0.075,-0 0.13,-0.029 0.168,-0.073l-0,0.063l0.081,-0l0,-0.475Zm-0.239,0.067c0.096,-0 0.163,0.073 0.163,0.17c-0,0.098 -0.067,0.172 -0.163,0.172c-0.098,-0 -0.164,-0.077 -0.164,-0.172c-0,-0.094 0.064,-0.17 0.164,-0.17Z" style="fill:#fff;fill-rule:nonzero;"/></g><g transform="matrix(12,0,0,12,-65.9874,23.5478)"><path d="M0.306,-0.485c-0.057,0 -0.106,0.026 -0.139,0.072l-0,-0.062l-0.08,0l-0,0.475l0.081,-0l-0,-0.264c-0,-0.088 0.051,-0.144 0.123,-0.144c0.027,0 0.059,0.007 0.082,0.019l0.02,-0.08c-0.026,-0.011 -0.053,-0.016 -0.087,-0.016Z" style="fill:#fff;fill-rule:nonzero;"/></g><g transform="matrix(12,0,0,12,-61.3194,23.5478)"><path d="M0.287,-0.485c-0.137,0 -0.236,0.101 -0.236,0.247c-0,0.149 0.099,0.248 0.241,0.248c0.07,-0 0.136,-0.017 0.194,-0.072l-0.043,-0.056c-0.04,0.035 -0.091,0.057 -0.146,0.057c-0.082,-0 -0.151,-0.049 -0.162,-0.148l0.373,0c0.001,-0.009 0.002,-0.02 0.002,-0.03c-0.001,-0.146 -0.094,-0.246 -0.223,-0.246Zm-0.002,0.072c0.077,0 0.132,0.054 0.142,0.139l-0.291,-0c0.012,-0.082 0.065,-0.139 0.149,-0.139Z" style="fill:#fff;fill-rule:nonzero;"/></g><g transform="matrix(12,0,0,12,-51.6234,23.5478)"><path d="M0.442,-0.433c-0.046,-0.031 -0.114,-0.051 -0.19,-0.051c-0.115,-0 -0.19,0.054 -0.19,0.145c-0,0.072 0.051,0.121 0.157,0.134l0.056,0.006c0.064,0.008 0.095,0.03 0.095,0.065c0,0.047 -0.048,0.073 -0.126,0.073c-0.08,-0 -0.127,-0.023 -0.162,-0.051l-0.038,0.061c0.062,0.047 0.141,0.061 0.199,0.061c0.13,-0 0.211,-0.058 0.211,-0.149c-0,-0.078 -0.059,-0.121 -0.16,-0.135l-0.056,-0.007c-0.057,-0.007 -0.092,-0.024 -0.092,-0.062c0,-0.043 0.042,-0.071 0.107,-0.071c0.063,0 0.124,0.024 0.154,0.044l0.035,-0.063Z" style="fill:#fff;fill-rule:nonzero;"/></g><g transform="matrix(12,0,0,12,-45.7794,23.5478)"><path d="M0.525,-0.475l-0.09,0l-0.163,0.292l-0.171,-0.292l-0.091,0l0.217,0.373l-0.176,0.304l0.09,0l0.384,-0.677Z" style="fill:#fff;fill-rule:nonzero;"/></g><g transform="matrix(12,0,0,12,-39.5634,23.5478)"><path d="M0.442,-0.433c-0.046,-0.031 -0.114,-0.051 -0.19,-0.051c-0.115,-0 -0.19,0.054 -0.19,0.145c-0,0.072 0.051,0.121 0.157,0.134l0.056,0.006c0.064,0.008 0.095,0.03 0.095,0.065c0,0.047 -0.048,0.073 -0.126,0.073c-0.08,-0 -0.127,-0.023 -0.162,-0.051l-0.038,0.061c0.062,0.047 0.141,0.061 0.199,0.061c0.13,-0 0.211,-0.058 0.211,-0.149c-0,-0.078 -0.059,-0.121 -0.16,-0.135l-0.056,-0.007c-0.057,-0.007 -0.092,-0.024 -0.092,-0.062c0,-0.043 0.042,-0.071 0.107,-0.071c0.063,0 0.124,0.024 0.154,0.044l0.035,-0.063Z" style="fill:#fff;fill-rule:nonzero;"/></g><g transform="matrix(12,0,0,12,-33.7194,23.5478)"><path d="M0.409,-0.475l-0.2,0l0,-0.149l-0.081,0l-0,0.149l-0.102,0l0,0.074l0.102,0l-0,0.234c-0,0.121 0.061,0.177 0.164,0.177c0.058,-0 0.106,-0.021 0.142,-0.047l-0.038,-0.061c-0.027,0.018 -0.062,0.032 -0.097,0.032c-0.052,-0 -0.09,-0.031 -0.09,-0.103l0,-0.232l0.2,0l-0,-0.074Z" style="fill:#fff;fill-rule:nonzero;"/></g><g transform="matrix(12,0,0,12,-28.4094,23.5478)"><path d="M0.287,-0.485c-0.137,0 -0.236,0.101 -0.236,0.247c-0,0.149 0.099,0.248 0.241,0.248c0.07,-0 0.136,-0.017 0.194,-0.072l-0.043,-0.056c-0.04,0.035 -0.091,0.057 -0.146,0.057c-0.082,-0 -0.151,-0.049 -0.162,-0.148l0.373,0c0.001,-0.009 0.002,-0.02 0.002,-0.03c-0.001,-0.146 -0.094,-0.246 -0.223,-0.246Zm-0.002,0.072c0.077,0 0.132,0.054 0.142,0.139l-0.291,-0c0.012,-0.082 0.065,-0.139 0.149,-0.139Z" style="fill:#fff;fill-rule:nonzero;"/></g><g transform="matrix(12,0,0,12,-21.8034,23.5478)"><path d="M0.676,-0.485c-0.065,0 -0.139,0.024 -0.178,0.095c-0.031,-0.059 -0.094,-0.095 -0.175,-0.095c-0.055,0 -0.117,0.019 -0.156,0.072l0,-0.062l-0.08,0l-0,0.475l0.081,-0l-0,-0.266c-0,-0.089 0.064,-0.142 0.141,-0.142c0.082,0 0.13,0.052 0.13,0.139l0,0.269l0.082,-0l-0,-0.267c-0,-0.086 0.061,-0.141 0.14,-0.141c0.083,0 0.131,0.052 0.131,0.139l-0,0.269l0.081,-0l0,-0.295c0,-0.114 -0.08,-0.19 -0.197,-0.19Z" style="fill:#fff;fill-rule:nonzero;"/></g><g transform="matrix(12,0,0,12,-10.4634,23.5478)"><path d="M0.177,-0.225l0.004,-0.082c0.145,-0.016 0.226,-0.088 0.226,-0.205c0,-0.122 -0.099,-0.201 -0.262,-0.201c-0.026,0 -0.06,0.003 -0.082,0.006l0.007,0.084c0.019,-0.002 0.045,-0.004 0.071,-0.004c0.109,-0 0.175,0.044 0.175,0.118c0,0.08 -0.065,0.127 -0.178,0.127l-0.035,-0l0,0.157l0.074,0Zm-0.037,0.098c-0.036,0 -0.068,0.032 -0.068,0.068c-0,0.037 0.032,0.069 0.068,0.069c0.036,-0 0.068,-0.032 0.068,-0.069c-0,-0.036 -0.032,-0.068 -0.068,-0.068Z" style="fill:#fff;fill-rule:nonzero;"/></g><g transform="matrix(12,0,0,12,-2.03343,23.5478)"><rect x="0.1" y="-0.7" width="0.088" height="0.7" style="fill:#fff;fill-rule:nonzero;"/></g><g transform="matrix(12,0,0,12,1.41657,23.5478)"><path d="M0.442,-0.433c-0.046,-0.031 -0.114,-0.051 -0.19,-0.051c-0.115,-0 -0.19,0.054 -0.19,0.145c-0,0.072 0.051,0.121 0.157,0.134l0.056,0.006c0.064,0.008 0.095,0.03 0.095,0.065c0,0.047 -0.048,0.073 -0.126,0.073c-0.08,-0 -0.127,-0.023 -0.162,-0.051l-0.038,0.061c0.062,0.047 0.141,0.061 0.199,0.061c0.13,-0 0.211,-0.058 0.211,-0.149c-0,-0.078 -0.059,-0.121 -0.16,-0.135l-0.056,-0.007c-0.057,-0.007 -0.092,-0.024 -0.092,-0.062c0,-0.043 0.042,-0.071 0.107,-0.071c0.063,0 0.124,0.024 0.154,0.044l0.035,-0.063Z" style="fill:#fff;fill-rule:nonzero;"/></g><g transform="matrix(12,0,0,12,10.5006,23.5478)"><path d="M0.409,-0.475l-0.2,0l0,-0.149l-0.081,0l-0,0.149l-0.102,0l0,0.074l0.102,0l-0,0.234c-0,0.121 0.061,0.177 0.164,0.177c0.058,-0 0.106,-0.021 0.142,-0.047l-0.038,-0.061c-0.027,0.018 -0.062,0.032 -0.097,0.032c-0.052,-0 -0.09,-0.031 -0.09,-0.103l0,-0.232l0.2,0l-0,-0.074Z" style="fill:#fff;fill-rule:nonzero;"/></g><g transform="matrix(12,0,0,12,15.9426,23.5478)"><path d="M0.168,-0.72l-0.081,0l-0,0.72l0.081,-0l-0,-0.267c-0,-0.088 0.064,-0.141 0.141,-0.141c0.082,0 0.13,0.052 0.13,0.139l0,0.269l0.082,-0l-0,-0.295c-0,-0.114 -0.081,-0.19 -0.198,-0.19c-0.055,0 -0.116,0.018 -0.155,0.071l-0,-0.306Z" style="fill:#fff;fill-rule:nonzero;"/></g><g transform="matrix(12,0,0,12,23.1726,23.5478)"><path d="M0.168,-0.475l-0.081,0l-0,0.475l0.081,-0l-0,-0.475Zm-0.041,-0.225c-0.033,-0 -0.058,0.025 -0.058,0.058c0,0.033 0.025,0.057 0.058,0.057c0.032,0 0.058,-0.024 0.058,-0.057c-0,-0.033 -0.026,-0.058 -0.058,-0.058Z" style="fill:#fff;fill-rule:nonzero;"/></g><g transform="matrix(12,0,0,12,26.2266,23.5478)"><path d="M0.442,-0.433c-0.046,-0.031 -0.114,-0.051 -0.19,-0.051c-0.115,-0 -0.19,0.054 -0.19,0.145c-0,0.072 0.051,0.121 0.157,0.134l0.056,0.006c0.064,0.008 0.095,0.03 0.095,0.065c0,0.047 -0.048,0.073 -0.126,0.073c-0.08,-0 -0.127,-0.023 -0.162,-0.051l-0.038,0.061c0.062,0.047 0.141,0.061 0.199,0.061c0.13,-0 0.211,-0.058 0.211,-0.149c-0,-0.078 -0.059,-0.121 -0.16,-0.135l-0.056,-0.007c-0.057,-0.007 -0.092,-0.024 -0.092,-0.062c0,-0.043 0.042,-0.071 0.107,-0.071c0.063,0 0.124,0.024 0.154,0.044l0.035,-0.063Z" style="fill:#fff;fill-rule:nonzero;"/></g><g transform="matrix(12,0,0,12,35.4006,23.5478)"><path d="M0.306,-0.485c-0.057,0 -0.106,0.026 -0.139,0.072l-0,-0.062l-0.08,0l-0,0.475l0.081,-0l-0,-0.264c-0,-0.088 0.051,-0.144 0.123,-0.144c0.027,0 0.059,0.007 0.082,0.019l0.02,-0.08c-0.026,-0.011 -0.053,-0.016 -0.087,-0.016Z" style="fill:#fff;fill-rule:nonzero;"/></g><g transform="matrix(12,0,0,12,40.1886,23.5478)"><path d="M0.287,-0.485c-0.137,0 -0.236,0.101 -0.236,0.247c-0,0.149 0.099,0.248 0.241,0.248c0.07,-0 0.136,-0.017 0.194,-0.072l-0.043,-0.056c-0.04,0.035 -0.091,0.057 -0.146,0.057c-0.082,-0 -0.151,-0.049 -0.162,-0.148l0.373,0c0.001,-0.009 0.002,-0.02 0.002,-0.03c-0.001,-0.146 -0.094,-0.246 -0.223,-0.246Zm-0.002,0.072c0.077,0 0.132,0.054 0.142,0.139l-0.291,-0c0.012,-0.082 0.065,-0.139 0.149,-0.139Z" style="fill:#fff;fill-rule:nonzero;"/></g><g transform="matrix(12,0,0,12,46.9146,23.5478)"><path d="M0.537,-0.475l-0.081,0l-0,0.064c-0.038,-0.045 -0.093,-0.074 -0.168,-0.074c-0.134,0 -0.237,0.104 -0.237,0.247c-0,0.144 0.103,0.248 0.237,0.248c0.075,-0 0.13,-0.029 0.168,-0.073l-0,0.063l0.081,-0l0,-0.475Zm-0.239,0.067c0.096,-0 0.163,0.073 0.163,0.17c-0,0.098 -0.067,0.172 -0.163,0.172c-0.098,-0 -0.164,-0.077 -0.164,-0.172c-0,-0.094 0.064,-0.17 0.164,-0.17Z" style="fill:#fff;fill-rule:nonzero;"/></g><g transform="matrix(12,0,0,12,54.4026,23.5478)"><path d="M0.442,-0.433c-0.046,-0.031 -0.114,-0.051 -0.19,-0.051c-0.115,-0 -0.19,0.054 -0.19,0.145c-0,0.072 0.051,0.121 0.157,0.134l0.056,0.006c0.064,0.008 0.095,0.03 0.095,0.065c0,0.047 -0.048,0.073 -0.126,0.073c-0.08,-0 -0.127,-0.023 -0.162,-0.051l-0.038,0.061c0.062,0.047 0.141,0.061 0.199,0.061c0.13,-0 0.211,-0.058 0.211,-0.149c-0,-0.078 -0.059,-0.121 -0.16,-0.135l-0.056,-0.007c-0.057,-0.007 -0.092,-0.024 -0.092,-0.062c0,-0.043 0.042,-0.071 0.107,-0.071c0.063,0 0.124,0.024 0.154,0.044l0.035,-0.063Z" style="fill:#fff;fill-rule:nonzero;"/></g><g transform="matrix(12,0,0,12,60.3666,23.5478)"><path d="M0.301,-0.485c-0.144,0 -0.25,0.106 -0.25,0.247c-0,0.142 0.106,0.248 0.25,0.248c0.145,-0 0.252,-0.106 0.252,-0.248c-0,-0.141 -0.107,-0.247 -0.252,-0.247Zm0,0.077c0.096,-0 0.168,0.071 0.168,0.17c0,0.1 -0.072,0.172 -0.168,0.172c-0.095,-0 -0.167,-0.072 -0.167,-0.172c-0,-0.099 0.072,-0.17 0.167,-0.17Z" style="fill:#fff;fill-rule:nonzero;"/></g><g transform="matrix(12,0,0,12,67.6086,23.5478)"><path d="M0.323,-0.485c-0.055,0 -0.117,0.019 -0.156,0.072l0,-0.062l-0.08,0l-0,0.475l0.081,-0l-0,-0.266c-0,-0.089 0.064,-0.142 0.141,-0.142c0.082,0 0.13,0.052 0.13,0.139l0,0.269l0.082,-0l-0,-0.295c-0,-0.114 -0.081,-0.19 -0.198,-0.19Z" style="fill:#fff;fill-rule:nonzero;"/></g><g transform="matrix(12,0,0,12,74.8386,23.5478)"><path d="M0.537,-0.475l-0.081,0l-0,0.064c-0.038,-0.045 -0.093,-0.074 -0.168,-0.074c-0.134,0 -0.237,0.104 -0.237,0.247c-0,0.144 0.103,0.248 0.237,0.248c0.075,-0 0.13,-0.029 0.168,-0.073l-0,0.063l0.081,-0l0,-0.475Zm-0.239,0.067c0.096,-0 0.163,0.073 0.163,0.17c-0,0.098 -0.067,0.172 -0.163,0.172c-0.098,-0 -0.164,-0.077 -0.164,-0.172c-0,-0.094 0.064,-0.17 0.164,-0.17Z" style="fill:#fff;fill-rule:nonzero;"/></g><g transform="matrix(12,0,0,12,82.3266,23.5478)"><path d="M0.336,-0.485c-0.076,0 -0.131,0.029 -0.168,0.073l-0,-0.308l-0.081,0l-0,0.72l0.081,-0l-0,-0.064c0.037,0.045 0.092,0.074 0.168,0.074c0.133,-0 0.237,-0.104 0.237,-0.248c-0,-0.143 -0.104,-0.247 -0.237,-0.247Zm-0.01,0.077c0.097,-0 0.163,0.076 0.163,0.17c0,0.095 -0.064,0.172 -0.163,0.172c-0.096,-0 -0.163,-0.074 -0.163,-0.172c-0,-0.097 0.067,-0.17 0.163,-0.17Z" style="fill:#fff;fill-rule:nonzero;"/></g><g transform="matrix(12,0,0,12,89.8086,23.5478)"><rect x="0.087" y="-0.72" width="0.081" height="0.72" style="fill:#fff;fill-rule:nonzero;"/></g><g transform="matrix(12,0,0,12,92.8626,23.5478)"><path d="M0.287,-0.485c-0.137,0 -0.236,0.101 -0.236,0.247c-0,0.149 0.099,0.248 0.241,0.248c0.07,-0 0.136,-0.017 0.194,-0.072l-0.043,-0.056c-0.04,0.035 -0.091,0.057 -0.146,0.057c-0.082,-0 -0.151,-0.049 -0.162,-0.148l0.373,0c0.001,-0.009 0.002,-0.02 0.002,-0.03c-0.001,-0.146 -0.094,-0.246 -0.223,-0.246Zm-0.002,0.072c0.077,0 0.132,0.054 0.142,0.139l-0.291,-0c0.012,-0.082 0.065,-0.139 0.149,-0.139Z" style="fill:#fff;fill-rule:nonzero;"/></g><g transform="matrix(12,0,0,12,99.5886,23.5478)"><path d="M0.177,-0.225l0.004,-0.082c0.145,-0.016 0.226,-0.088 0.226,-0.205c0,-0.122 -0.099,-0.201 -0.262,-0.201c-0.026,0 -0.06,0.003 -0.082,0.006l0.007,0.084c0.019,-0.002 0.045,-0.004 0.071,-0.004c0.109,-0 0.175,0.044 0.175,0.118c0,0.08 -0.065,0.127 -0.178,0.127l-0.035,-0l0,0.157l0.074,0Zm-0.037,0.098c-0.036,0 -0.068,0.032 -0.068,0.068c-0,0.037 0.032,0.069 0.068,0.069c0.036,-0 0.068,-0.032 0.068,-0.069c-0,-0.036 -0.032,-0.068 -0.068,-0.068Z" style="fill:#fff;fill-rule:nonzero;"/></g></g><path d="M22.515,394.4c-1.323,0 -2.218,0.958 -2.218,2.228c0,1.269 0.895,2.227 2.218,2.227c0.635,-0 1.202,-0.234 1.589,-0.67l-0.455,-0.509c-0.297,0.288 -0.697,0.491 -1.152,0.491c-0.823,-0 -1.449,-0.644 -1.449,-1.539c0,-0.896 0.626,-1.535 1.449,-1.535c0.455,-0 0.819,0.175 1.134,0.481l0.473,-0.499c-0.383,-0.441 -0.954,-0.675 -1.589,-0.675Z" style="fill:#fff;fill-rule:nonzero;"/><path d="M29.216,394.49l-0.738,0l0,0.576c-0.337,-0.405 -0.837,-0.666 -1.507,-0.666c-1.202,0 -2.138,0.936 -2.138,2.228c0,1.291 0.936,2.227 2.138,2.227c0.67,-0 1.17,-0.261 1.507,-0.661l0,0.571l0.738,-0l-0,-4.275Zm-2.16,0.603c0.864,-0 1.467,0.661 1.467,1.535c0,0.877 -0.603,1.539 -1.467,1.539c-0.878,-0 -1.472,-0.689 -1.472,-1.539c0,-0.851 0.581,-1.535 1.472,-1.535Z" style="fill:#fff;fill-rule:nonzero;"/><path d="M32.748,394.4c-0.508,0 -0.954,0.234 -1.251,0.652l0,-0.562l-0.724,0l0,4.275l0.733,-0l0,-2.38c0,-0.788 0.459,-1.288 1.112,-1.288c0.243,0 0.531,0.059 0.733,0.167l0.18,-0.724c-0.229,-0.099 -0.477,-0.14 -0.783,-0.14Z" style="fill:#fff;fill-rule:nonzero;"/><path d="M36.178,394.4c-1.202,0 -2.138,0.936 -2.138,2.228c0,1.291 0.936,2.227 2.138,2.227c0.67,-0 1.17,-0.261 1.507,-0.661l0,0.571l0.738,-0l-0,-6.48l-0.738,0l0,2.781c-0.337,-0.405 -0.837,-0.666 -1.507,-0.666Zm0.085,0.693c0.864,-0 1.467,0.661 1.467,1.534c0,0.878 -0.603,1.54 -1.467,1.54c-0.878,-0 -1.472,-0.689 -1.472,-1.539c0,-0.851 0.581,-1.535 1.472,-1.535Z" style="fill:#fff;fill-rule:nonzero;"/><path d="M43.179,394.868c-0.413,-0.283 -1.03,-0.463 -1.705,-0.463c-1.04,-0 -1.719,0.494 -1.719,1.313c0,0.648 0.463,1.081 1.422,1.198l0.495,0.058c0.581,0.072 0.86,0.27 0.86,0.585c-0,0.423 -0.432,0.653 -1.135,0.653c-0.715,-0 -1.143,-0.207 -1.462,-0.455l-0.342,0.549c0.563,0.423 1.273,0.549 1.8,0.549c1.166,-0 1.894,-0.526 1.894,-1.341c0,-0.706 -0.535,-1.089 -1.444,-1.211l-0.495,-0.063c-0.518,-0.063 -0.828,-0.22 -0.828,-0.562c-0,-0.387 0.378,-0.635 0.963,-0.635c0.563,0 1.107,0.212 1.377,0.396l0.319,-0.571Z" style="fill:#fff;fill-rule:nonzero;"/><path d="M47.58,395.003l-0.76,0l0,1.742l-1.998,-0l2.304,-4.271l-0.864,0l-2.353,4.406l-0,0.584l2.911,0l0,1.301l0.76,-0l0,-1.301l1.049,0l-0,-0.719l-1.049,-0l0,-1.742Z" style="fill:#fff;fill-rule:nonzero;"/><path d="M49.79,393.869c0.302,-0.405 0.675,-0.765 1.377,-0.765c0.797,-0 1.256,0.535 1.256,1.237c-0,0.518 -0.252,0.941 -0.63,1.337l-2.358,2.489l-0,0.598l3.982,-0l-0,-0.724l-2.853,-0l1.809,-1.922c0.405,-0.427 0.846,-0.99 0.846,-1.773c-0,-1.13 -0.747,-1.971 -2.034,-1.971c-1.089,0 -1.647,0.612 -1.944,1.048l0.549,0.446Z" style="fill:#fff;fill-rule:nonzero;"/><path d="M55.141,397.622c-0.329,0 -0.617,0.284 -0.617,0.612c0,0.333 0.288,0.621 0.617,0.621c0.328,-0 0.611,-0.288 0.611,-0.621c0,-0.328 -0.283,-0.612 -0.611,-0.612Z" style="fill:#fff;fill-rule:nonzero;"/><path d="M58.966,394.4c-1.297,0 -2.259,0.958 -2.259,2.228c-0,1.269 0.962,2.227 2.259,2.227c1.296,-0 2.263,-0.958 2.263,-2.227c-0,-1.27 -0.967,-2.228 -2.263,-2.228Zm-0,0.693c0.855,-0 1.507,0.639 1.507,1.535c0,0.895 -0.652,1.539 -1.507,1.539c-0.86,-0 -1.508,-0.644 -1.508,-1.539c-0,-0.896 0.648,-1.535 1.508,-1.535Z" style="fill:#fff;fill-rule:nonzero;"/><path d="M64.437,394.4c-0.508,0 -0.954,0.234 -1.251,0.652l0,-0.562l-0.724,0l0,4.275l0.733,-0l0,-2.38c0,-0.788 0.459,-1.288 1.112,-1.288c0.243,0 0.531,0.059 0.733,0.167l0.18,-0.724c-0.229,-0.099 -0.477,-0.14 -0.783,-0.14Z" style="fill:#fff;fill-rule:nonzero;"/><path d="M67.844,394.4c-1.202,0 -2.115,0.891 -2.115,2.192c0,1.305 0.913,2.195 2.115,2.195c0.662,0 1.148,-0.256 1.472,-0.665l-0,0.378c-0,0.949 -0.617,1.467 -1.535,1.467c-0.554,-0 -1.062,-0.185 -1.472,-0.477l-0.319,0.594c0.436,0.35 1.125,0.553 1.791,0.553c1.35,-0 2.272,-0.787 2.272,-2.169l0,-3.978l-0.737,0l-0,0.581c-0.324,-0.41 -0.81,-0.671 -1.472,-0.671Zm0.086,0.693c0.85,-0 1.449,0.648 1.449,1.499c-0,0.855 -0.599,1.503 -1.449,1.503c-0.878,-0 -1.45,-0.671 -1.45,-1.503c0,-0.824 0.572,-1.499 1.45,-1.499Z" style="fill:#fff;fill-rule:nonzero;"/><path d="M75.4,391.835l-0.81,0l-3.821,7.83l0.81,-0l3.821,-7.83Z" style="fill:#fff;fill-rule:nonzero;"/><path d="M76.826,394.49l-0.733,0l-0,4.275l0.733,-0l-0,-4.275Zm-0.373,-2.029c-0.293,-0 -0.518,0.229 -0.518,0.526c0,0.293 0.225,0.513 0.518,0.513c0.292,0 0.526,-0.22 0.526,-0.513c-0,-0.297 -0.234,-0.526 -0.526,-0.526Z" style="fill:#fff;fill-rule:nonzero;"/><path d="M80.512,394.4c-0.496,0 -1.049,0.167 -1.4,0.648l-0,-0.558l-0.729,0l0,4.275l0.733,-0l0,-2.398c0,-0.797 0.576,-1.27 1.265,-1.27c0.743,0 1.175,0.464 1.175,1.251l-0,2.417l0.737,-0l0,-2.655c0,-1.026 -0.728,-1.71 -1.781,-1.71Z" style="fill:#fff;fill-rule:nonzero;"/><path d="M87.518,394.49l-0.778,0l-1.44,3.532l-1.436,-3.532l-0.801,0l1.8,4.279l0.864,0l1.791,-4.279Z" style="fill:#fff;fill-rule:nonzero;"/><path d="M90.169,394.4c-1.229,0 -2.124,0.913 -2.124,2.228c-0,1.332 0.899,2.227 2.169,2.227c0.63,-0 1.224,-0.153 1.754,-0.648l-0.391,-0.504c-0.364,0.315 -0.819,0.509 -1.318,0.509c-0.734,-0 -1.351,-0.437 -1.454,-1.324l3.361,0c0.005,-0.081 0.014,-0.18 0.014,-0.274c-0.009,-1.31 -0.846,-2.214 -2.011,-2.214Zm-0.014,0.652c0.693,0 1.184,0.486 1.274,1.243l-2.615,-0c0.112,-0.729 0.585,-1.243 1.341,-1.243Z" style="fill:#fff;fill-rule:nonzero;"/><path d="M96.612,394.868c-0.413,-0.283 -1.03,-0.463 -1.705,-0.463c-1.04,-0 -1.719,0.494 -1.719,1.313c0,0.648 0.463,1.081 1.422,1.198l0.495,0.058c0.581,0.072 0.86,0.27 0.86,0.585c-0,0.423 -0.432,0.653 -1.135,0.653c-0.715,-0 -1.143,-0.207 -1.462,-0.455l-0.342,0.549c0.563,0.423 1.273,0.549 1.8,0.549c1.166,-0 1.894,-0.526 1.894,-1.341c0,-0.706 -0.535,-1.089 -1.444,-1.211l-0.495,-0.063c-0.518,-0.063 -0.828,-0.22 -0.828,-0.562c-0,-0.387 0.378,-0.635 0.963,-0.635c0.563,0 1.107,0.212 1.377,0.396l0.319,-0.571Z" style="fill:#fff;fill-rule:nonzero;"/><path d="M100.788,394.49l-1.795,0l-0,-1.341l-0.738,0l0,1.341l-0.913,0l-0,0.67l0.913,0l0,2.098c0,1.089 0.553,1.597 1.48,1.597c0.527,-0 0.954,-0.185 1.283,-0.423l-0.347,-0.553c-0.243,0.166 -0.558,0.288 -0.873,0.288c-0.463,-0 -0.805,-0.279 -0.805,-0.923l-0,-2.084l1.795,0l0,-0.67Z" style="fill:#fff;fill-rule:nonzero;"/><path d="M107.269,394.4c-0.581,0 -1.243,0.212 -1.594,0.859c-0.283,-0.535 -0.854,-0.859 -1.579,-0.859c-0.495,0 -1.049,0.167 -1.4,0.648l0,-0.558l-0.728,0l-0,4.275l0.733,-0l-0,-2.398c-0,-0.797 0.576,-1.27 1.265,-1.27c0.742,0 1.174,0.464 1.174,1.251l0,2.417l0.738,-0l-0,-2.399c-0,-0.778 0.553,-1.269 1.26,-1.269c0.743,0 1.175,0.464 1.175,1.251l-0,2.417l0.737,-0l0,-2.655c0,-1.026 -0.724,-1.71 -1.781,-1.71Z" style="fill:#fff;fill-rule:nonzero;"/><path d="M112.363,394.4c-1.229,0 -2.124,0.913 -2.124,2.228c-0,1.332 0.899,2.227 2.169,2.227c0.63,-0 1.224,-0.153 1.754,-0.648l-0.391,-0.504c-0.364,0.315 -0.819,0.509 -1.318,0.509c-0.734,-0 -1.351,-0.437 -1.454,-1.324l3.361,0c0.005,-0.081 0.014,-0.18 0.014,-0.274c-0.009,-1.31 -0.846,-2.214 -2.011,-2.214Zm-0.014,0.652c0.693,0 1.184,0.486 1.274,1.243l-2.615,-0c0.112,-0.729 0.585,-1.243 1.341,-1.243Z" style="fill:#fff;fill-rule:nonzero;"/><path d="M117.736,394.4c-0.496,0 -1.049,0.167 -1.4,0.648l-0,-0.558l-0.729,0l0,4.275l0.733,-0l0,-2.398c0,-0.797 0.576,-1.27 1.265,-1.27c0.743,0 1.175,0.464 1.175,1.251l-0,2.417l0.737,-0l0,-2.655c0,-1.026 -0.728,-1.71 -1.781,-1.71Z" style="fill:#fff;fill-rule:nonzero;"/><path d="M123.873,394.49l-1.795,0l-0,-1.341l-0.738,0l0,1.341l-0.913,0l-0,0.67l0.913,0l0,2.098c0,1.089 0.553,1.597 1.48,1.597c0.527,-0 0.954,-0.185 1.283,-0.423l-0.347,-0.553c-0.243,0.166 -0.558,0.288 -0.873,0.288c-0.463,-0 -0.805,-0.279 -0.805,-0.923l-0,-2.084l1.795,0l0,-0.67Z" style="fill:#fff;fill-rule:nonzero;"/><path d="M149.143,116.22l-0,226.772" style="fill:none;fill-rule:nonzero;stroke:#d8d8d8;stroke-width:1px;"/><path d="M37.174,229.606l223.937,0" style="fill:none;fill-rule:nonzero;stroke:#d8d8d8;stroke-width:1px;"/><rect x="40.09" y="188.504" width="74.932" height="23.386" style="fill:#fff;"/><rect x="40.09" y="305.433" width="74.932" height="23.386" style="fill:#fff;"/><rect x="162.283" y="305.433" width="74.932" height="23.386" style="fill:#fff;"/><rect x="162.283" y="188.504" width="74.932" height="23.386" style="fill:#fff;"/><path d="M124.099,199.304c-1.8,-0 -3.143,1.319 -3.143,3.087c-0,1.777 1.343,3.088 3.143,3.088c1.808,-0 3.152,-1.311 3.152,-3.088c-0,-1.768 -1.344,-3.087 -3.152,-3.087Zm0,1.871c0.68,-0 1.169,0.52 1.169,1.216c-0,0.697 -0.489,1.225 -1.169,1.225c-0.672,-0 -1.16,-0.528 -1.16,-1.225c-0,-0.696 0.488,-1.216 1.16,-1.216Zm9.48,-1.663l-2.432,-0l-7.968,11.199l2.44,-0l7.96,-11.199Zm-0.864,5.232c-1.8,-0 -3.143,1.343 -3.143,3.087c-0,1.777 1.343,3.088 3.143,3.088c1.808,-0 3.152,-1.311 3.152,-3.088c-0,-1.776 -1.344,-3.087 -3.152,-3.087Zm0,1.863c0.68,-0 1.169,0.52 1.169,1.224c-0,0.697 -0.489,1.217 -1.169,1.217c-0.672,-0 -1.168,-0.52 -1.168,-1.217c-0,-0.696 0.496,-1.224 1.168,-1.224Z" style="fill:#fff;fill-rule:nonzero;"/><path d="M246.813,199.304c-1.8,-0 -3.144,1.319 -3.144,3.087c0,1.777 1.344,3.088 3.144,3.088c1.808,-0 3.151,-1.311 3.151,-3.088c0,-1.768 -1.343,-3.087 -3.151,-3.087Zm-0,1.871c0.68,-0 1.168,0.52 1.168,1.216c0,0.697 -0.488,1.225 -1.168,1.225c-0.672,-0 -1.161,-0.528 -1.161,-1.225c0,-0.696 0.489,-1.216 1.161,-1.216Zm9.48,-1.663l-2.432,-0l-7.968,11.199l2.44,-0l7.96,-11.199Zm-0.864,5.232c-1.8,-0 -3.144,1.343 -3.144,3.087c0,1.777 1.344,3.088 3.144,3.088c1.808,-0 3.151,-1.311 3.151,-3.088c0,-1.776 -1.343,-3.087 -3.151,-3.087Zm-0,1.863c0.68,-0 1.168,0.52 1.168,1.224c0,0.697 -0.488,1.217 -1.168,1.217c-0.672,-0 -1.169,-0.52 -1.169,-1.217c0,-0.696 0.497,-1.224 1.169,-1.224Z" style="fill:#fff;fill-rule:nonzero;"/><path d="M246.813,316.291c-1.8,0 -3.144,1.319 -3.144,3.088c0,1.776 1.344,3.087 3.144,3.087c1.808,0 3.151,-1.311 3.151,-3.087c0,-1.769 -1.343,-3.088 -3.151,-3.088Zm-0,1.871c0.68,0 1.168,0.52 1.168,1.217c0,0.696 -0.488,1.224 -1.168,1.224c-0.672,0 -1.161,-0.528 -1.161,-1.224c0,-0.697 0.489,-1.217 1.161,-1.217Zm9.48,-1.663l-2.432,0l-7.968,11.199l2.44,0l7.96,-11.199Zm-0.864,5.232c-1.8,0 -3.144,1.343 -3.144,3.087c0,1.777 1.344,3.088 3.144,3.088c1.808,0 3.151,-1.311 3.151,-3.087c0,-1.777 -1.343,-3.088 -3.151,-3.088Zm-0,1.863c0.68,0 1.168,0.52 1.168,1.225c0,0.696 -0.488,1.216 -1.168,1.216c-0.672,0 -1.169,-0.52 -1.169,-1.216c0,-0.697 0.497,-1.225 1.169,-1.225Z" style="fill:#fff;fill-rule:nonzero;"/><path d="M124.099,316.291c-1.8,0 -3.143,1.319 -3.143,3.088c-0,1.776 1.343,3.087 3.143,3.087c1.808,0 3.152,-1.311 3.152,-3.087c-0,-1.769 -1.344,-3.088 -3.152,-3.088Zm0,1.871c0.68,0 1.169,0.52 1.169,1.217c-0,0.696 -0.489,1.224 -1.169,1.224c-0.672,0 -1.16,-0.528 -1.16,-1.224c-0,-0.697 0.488,-1.217 1.16,-1.217Zm9.48,-1.663l-2.432,0l-7.968,11.199l2.44,0l7.96,-11.199Zm-0.864,5.232c-1.8,0 -3.143,1.343 -3.143,3.087c-0,1.777 1.343,3.088 3.143,3.088c1.808,0 3.152,-1.311 3.152,-3.087c-0,-1.777 -1.344,-3.088 -3.152,-3.088Zm0,1.863c0.68,0 1.169,0.52 1.169,1.225c-0,0.696 -0.489,1.216 -1.169,1.216c-0.672,0 -1.168,-0.52 -1.168,-1.216c-0,-0.697 0.496,-1.225 1.168,-1.225Z" style="fill:#fff;fill-rule:nonzero;"/><g transform="matrix(1,0,0,1,80.058,172.069)"><g transform="matrix(12,0,0,12,-39.9685,-10.3525)"><path d="M0.601,-0.634c-0.065,-0.045 -0.146,-0.076 -0.251,-0.076c-0.148,0 -0.268,0.075 -0.268,0.21c0,0.12 0.092,0.174 0.207,0.188l0.066,0.008c0.109,0.013 0.167,0.044 0.167,0.109c0,0.079 -0.082,0.122 -0.187,0.122c-0.089,-0 -0.179,-0.036 -0.227,-0.078l-0.048,0.07c0.067,0.056 0.176,0.091 0.275,0.091c0.152,-0 0.278,-0.073 0.278,-0.212c0,-0.124 -0.101,-0.172 -0.219,-0.187l-0.062,-0.007c-0.105,-0.013 -0.159,-0.046 -0.159,-0.109c0,-0.076 0.073,-0.122 0.176,-0.122c0.081,0 0.151,0.026 0.208,0.065l0.044,-0.072Z" style="fill:#fff;fill-rule:nonzero;"/></g><g transform="matrix(12,0,0,12,-31.8865,-10.3525)"><path d="M0.515,-0.475l-0.082,0l0,0.269c0,0.097 -0.057,0.14 -0.135,0.14c-0.077,-0 -0.135,-0.043 -0.135,-0.14l0,-0.269l-0.081,0l-0,0.276c-0,0.144 0.102,0.209 0.216,0.209c0.114,-0 0.217,-0.065 0.217,-0.209l-0,-0.276Z" style="fill:#fff;fill-rule:nonzero;"/></g><g transform="matrix(12,0,0,12,-24.7285,-10.3525)"><path d="M0.336,-0.485c-0.076,0 -0.131,0.029 -0.168,0.073l-0,-0.063l-0.081,0l-0,0.675l0.081,-0l-0,-0.263c0.037,0.044 0.092,0.073 0.168,0.073c0.133,-0 0.237,-0.104 0.237,-0.247c-0,-0.144 -0.104,-0.248 -0.237,-0.248Zm-0.01,0.077c0.097,-0 0.163,0.076 0.163,0.17c0,0.095 -0.064,0.172 -0.163,0.172c-0.096,-0 -0.163,-0.074 -0.163,-0.172c-0,-0.097 0.067,-0.17 0.163,-0.17Z" style="fill:#fff;fill-rule:nonzero;"/></g><g transform="matrix(12,0,0,12,-17.2465,-10.3525)"><path d="M0.336,-0.485c-0.076,0 -0.131,0.029 -0.168,0.073l-0,-0.063l-0.081,0l-0,0.675l0.081,-0l-0,-0.263c0.037,0.044 0.092,0.073 0.168,0.073c0.133,-0 0.237,-0.104 0.237,-0.247c-0,-0.144 -0.104,-0.248 -0.237,-0.248Zm-0.01,0.077c0.097,-0 0.163,0.076 0.163,0.17c0,0.095 -0.064,0.172 -0.163,0.172c-0.096,-0 -0.163,-0.074 -0.163,-0.172c-0,-0.097 0.067,-0.17 0.163,-0.17Z" style="fill:#fff;fill-rule:nonzero;"/></g><g transform="matrix(12,0,0,12,-9.7645,-10.3525)"><path d="M0.301,-0.485c-0.144,0 -0.25,0.106 -0.25,0.247c-0,0.142 0.106,0.248 0.25,0.248c0.145,-0 0.252,-0.106 0.252,-0.248c-0,-0.141 -0.107,-0.247 -0.252,-0.247Zm0,0.077c0.096,-0 0.168,0.071 0.168,0.17c0,0.1 -0.072,0.172 -0.168,0.172c-0.095,-0 -0.167,-0.072 -0.167,-0.172c-0,-0.099 0.072,-0.17 0.167,-0.17Z" style="fill:#fff;fill-rule:nonzero;"/></g><g transform="matrix(12,0,0,12,-2.5225,-10.3525)"><path d="M0.306,-0.485c-0.057,0 -0.106,0.026 -0.139,0.072l-0,-0.062l-0.08,0l-0,0.475l0.081,-0l-0,-0.264c-0,-0.088 0.051,-0.144 0.123,-0.144c0.027,0 0.059,0.007 0.082,0.019l0.02,-0.08c-0.026,-0.011 -0.053,-0.016 -0.087,-0.016Z" style="fill:#fff;fill-rule:nonzero;"/></g><g transform="matrix(12,0,0,12,2.6255,-10.3525)"><path d="M0.409,-0.475l-0.2,0l0,-0.149l-0.081,0l-0,0.149l-0.102,0l0,0.074l0.102,0l-0,0.234c-0,0.121 0.061,0.177 0.164,0.177c0.058,-0 0.106,-0.021 0.142,-0.047l-0.038,-0.061c-0.027,0.018 -0.062,0.032 -0.097,0.032c-0.052,-0 -0.09,-0.031 -0.09,-0.103l0,-0.232l0.2,0l-0,-0.074Z" style="fill:#fff;fill-rule:nonzero;"/></g><g transform="matrix(12,0,0,12,11.2775,-10.3525)"><path d="M0.507,-0.77l-0.09,0l-0.424,0.87l0.09,-0l0.424,-0.87Z" style="fill:#fff;fill-rule:nonzero;"/></g><g transform="matrix(12,0,0,12,-39.9685,4.0475)"><path d="M0.336,-0.485c-0.076,0 -0.131,0.029 -0.168,0.073l-0,-0.308l-0.081,0l-0,0.72l0.081,-0l-0,-0.064c0.037,0.045 0.092,0.074 0.168,0.074c0.133,-0 0.237,-0.104 0.237,-0.248c-0,-0.143 -0.104,-0.247 -0.237,-0.247Zm-0.01,0.077c0.097,-0 0.163,0.076 0.163,0.17c0,0.095 -0.064,0.172 -0.163,0.172c-0.096,-0 -0.163,-0.074 -0.163,-0.172c-0,-0.097 0.067,-0.17 0.163,-0.17Z" style="fill:#fff;fill-rule:nonzero;"/></g><g transform="matrix(12,0,0,12,-32.4865,4.0475)"><path d="M0.515,-0.475l-0.082,0l0,0.269c0,0.097 -0.057,0.14 -0.135,0.14c-0.077,-0 -0.135,-0.043 -0.135,-0.14l0,-0.269l-0.081,0l-0,0.276c-0,0.144 0.102,0.209 0.216,0.209c0.114,-0 0.217,-0.065 0.217,-0.209l-0,-0.276Z" style="fill:#fff;fill-rule:nonzero;"/></g><g transform="matrix(12,0,0,12,-25.3285,4.0475)"><path d="M0.285,-0.485c-0.133,0 -0.234,0.099 -0.234,0.244c-0,0.145 0.101,0.243 0.234,0.243c0.074,0 0.128,-0.028 0.164,-0.073l0,0.041c0,0.106 -0.068,0.164 -0.171,0.164c-0.061,-0 -0.118,-0.021 -0.163,-0.053l-0.035,0.066c0.048,0.038 0.124,0.061 0.198,0.061c0.151,-0 0.253,-0.087 0.253,-0.241l-0,-0.442l-0.082,0l0,0.065c-0.036,-0.046 -0.09,-0.075 -0.164,-0.075Zm0.01,0.077c0.095,-0 0.161,0.072 0.161,0.167c0,0.095 -0.066,0.167 -0.161,0.167c-0.098,-0 -0.161,-0.075 -0.161,-0.167c-0,-0.092 0.063,-0.167 0.161,-0.167Z" style="fill:#fff;fill-rule:nonzero;"/></g><g transform="matrix(12,0,0,12,-17.9185,4.0475)"><path d="M0.396,-0.475l-0.183,0l0,-0.081c0,-0.062 0.025,-0.098 0.082,-0.098c0.035,0 0.07,0.013 0.095,0.028l0.03,-0.068c-0.034,-0.021 -0.077,-0.036 -0.131,-0.036c-0.112,0 -0.157,0.074 -0.157,0.174l-0,0.081l-0.106,0l0,0.074l0.106,0l-0,0.401l0.081,-0l0,-0.401l0.183,0l-0,-0.074Z" style="fill:#fff;fill-rule:nonzero;"/></g><g transform="matrix(12,0,0,12,-12.7645,4.0475)"><path d="M0.168,-0.475l-0.081,0l-0,0.475l0.081,-0l-0,-0.475Zm-0.041,-0.225c-0.033,-0 -0.058,0.025 -0.058,0.058c0,0.033 0.025,0.057 0.058,0.057c0.032,0 0.058,-0.024 0.058,-0.057c-0,-0.033 -0.026,-0.058 -0.058,-0.058Z" style="fill:#fff;fill-rule:nonzero;"/></g><g transform="matrix(12,0,0,12,-9.7105,4.0475)"><path d="M0.493,-0.475l-0.097,0l-0.138,0.176l-0.136,-0.176l-0.1,0l0.183,0.233l-0.188,0.242l0.096,-0l0.141,-0.183l0.143,0.183l0.1,-0l-0.188,-0.243l0.184,-0.232Z" style="fill:#fff;fill-rule:nonzero;"/></g><g transform="matrix(12,0,0,12,-3.5305,4.0475)"><path d="M0.168,-0.475l-0.081,0l-0,0.475l0.081,-0l-0,-0.475Zm-0.041,-0.225c-0.033,-0 -0.058,0.025 -0.058,0.058c0,0.033 0.025,0.057 0.058,0.057c0.032,0 0.058,-0.024 0.058,-0.057c-0,-0.033 -0.026,-0.058 -0.058,-0.058Z" style="fill:#fff;fill-rule:nonzero;"/></g><g transform="matrix(12,0,0,12,-0.476504,4.0475)"><path d="M0.323,-0.485c-0.055,0 -0.117,0.019 -0.156,0.072l0,-0.062l-0.08,0l-0,0.475l0.081,-0l-0,-0.266c-0,-0.089 0.064,-0.142 0.141,-0.142c0.082,0 0.13,0.052 0.13,0.139l0,0.269l0.082,-0l-0,-0.295c-0,-0.114 -0.081,-0.19 -0.198,-0.19Z" style="fill:#fff;fill-rule:nonzero;"/></g><g transform="matrix(12,0,0,12,6.7535,4.0475)"><path d="M0.285,-0.485c-0.133,0 -0.234,0.099 -0.234,0.244c-0,0.145 0.101,0.243 0.234,0.243c0.074,0 0.128,-0.028 0.164,-0.073l0,0.041c0,0.106 -0.068,0.164 -0.171,0.164c-0.061,-0 -0.118,-0.021 -0.163,-0.053l-0.035,0.066c0.048,0.038 0.124,0.061 0.198,0.061c0.151,-0 0.253,-0.087 0.253,-0.241l-0,-0.442l-0.082,0l0,0.065c-0.036,-0.046 -0.09,-0.075 -0.164,-0.075Zm0.01,0.077c0.095,-0 0.161,0.072 0.161,0.167c0,0.095 -0.066,0.167 -0.161,0.167c-0.098,-0 -0.161,-0.075 -0.161,-0.167c-0,-0.092 0.063,-0.167 0.161,-0.167Z" style="fill:#fff;fill-rule:nonzero;"/></g></g><g transform="matrix(1,0,0,1,202.252,172.069)"><g transform="matrix(12,0,0,12,-39.9685,-10.3525)"><path d="M0.69,-0.7l-0.087,0l-0,0.549l-0.424,-0.549l-0.079,-0l-0,0.7l0.087,-0l0.001,-0.549l0.423,0.549l0.079,0l0,-0.7Z" style="fill:#fff;fill-rule:nonzero;"/></g><g transform="matrix(12,0,0,12,-30.4825,-10.3525)"><path d="M0.287,-0.485c-0.137,0 -0.236,0.101 -0.236,0.247c-0,0.149 0.099,0.248 0.241,0.248c0.07,-0 0.136,-0.017 0.194,-0.072l-0.043,-0.056c-0.04,0.035 -0.091,0.057 -0.146,0.057c-0.082,-0 -0.151,-0.049 -0.162,-0.148l0.373,0c0.001,-0.009 0.002,-0.02 0.002,-0.03c-0.001,-0.146 -0.094,-0.246 -0.223,-0.246Zm-0.002,0.072c0.077,0 0.132,0.054 0.142,0.139l-0.291,-0c0.012,-0.082 0.065,-0.139 0.149,-0.139Z" style="fill:#fff;fill-rule:nonzero;"/></g><g transform="matrix(12,0,0,12,-23.7925,-10.3525)"><path d="M0.471,-0.475l-0.093,0l-0.135,0.388l-0.135,-0.388l-0.087,0l0.171,0.475l0.096,-0l0.135,-0.386l0.136,0.386l0.098,-0l0.171,-0.475l-0.086,0l-0.135,0.389l-0.136,-0.389Z" style="fill:#fff;fill-rule:nonzero;"/></g><g transform="matrix(12,0,0,12,-39.9685,4.0475)"><path d="M0.396,-0.475l-0.183,0l0,-0.081c0,-0.062 0.025,-0.098 0.082,-0.098c0.035,0 0.07,0.013 0.095,0.028l0.03,-0.068c-0.034,-0.021 -0.077,-0.036 -0.131,-0.036c-0.112,0 -0.157,0.074 -0.157,0.174l-0,0.081l-0.106,0l0,0.074l0.106,0l-0,0.401l0.081,-0l0,-0.401l0.183,0l-0,-0.074Z" style="fill:#fff;fill-rule:nonzero;"/></g><g transform="matrix(12,0,0,12,-35.0425,4.0475)"><path d="M0.287,-0.485c-0.137,0 -0.236,0.101 -0.236,0.247c-0,0.149 0.099,0.248 0.241,0.248c0.07,-0 0.136,-0.017 0.194,-0.072l-0.043,-0.056c-0.04,0.035 -0.091,0.057 -0.146,0.057c-0.082,-0 -0.151,-0.049 -0.162,-0.148l0.373,0c0.001,-0.009 0.002,-0.02 0.002,-0.03c-0.001,-0.146 -0.094,-0.246 -0.223,-0.246Zm-0.002,0.072c0.077,0 0.132,0.054 0.142,0.139l-0.291,-0c0.012,-0.082 0.065,-0.139 0.149,-0.139Z" style="fill:#fff;fill-rule:nonzero;"/></g><g transform="matrix(12,0,0,12,-28.3165,4.0475)"><path d="M0.537,-0.475l-0.081,0l-0,0.064c-0.038,-0.045 -0.093,-0.074 -0.168,-0.074c-0.134,0 -0.237,0.104 -0.237,0.247c-0,0.144 0.103,0.248 0.237,0.248c0.075,-0 0.13,-0.029 0.168,-0.073l-0,0.063l0.081,-0l0,-0.475Zm-0.239,0.067c0.096,-0 0.163,0.073 0.163,0.17c-0,0.098 -0.067,0.172 -0.163,0.172c-0.098,-0 -0.164,-0.077 -0.164,-0.172c-0,-0.094 0.064,-0.17 0.164,-0.17Z" style="fill:#fff;fill-rule:nonzero;"/></g><g transform="matrix(12,0,0,12,-20.8285,4.0475)"><path d="M0.409,-0.475l-0.2,0l0,-0.149l-0.081,0l-0,0.149l-0.102,0l0,0.074l0.102,0l-0,0.234c-0,0.121 0.061,0.177 0.164,0.177c0.058,-0 0.106,-0.021 0.142,-0.047l-0.038,-0.061c-0.027,0.018 -0.062,0.032 -0.097,0.032c-0.052,-0 -0.09,-0.031 -0.09,-0.103l0,-0.232l0.2,0l-0,-0.074Z" style="fill:#fff;fill-rule:nonzero;"/></g><g transform="matrix(12,0,0,12,-15.3865,4.0475)"><path d="M0.515,-0.475l-0.082,0l0,0.269c0,0.097 -0.057,0.14 -0.135,0.14c-0.077,-0 -0.135,-0.043 -0.135,-0.14l0,-0.269l-0.081,0l-0,0.276c-0,0.144 0.102,0.209 0.216,0.209c0.114,-0 0.217,-0.065 0.217,-0.209l-0,-0.276Z" style="fill:#fff;fill-rule:nonzero;"/></g><g transform="matrix(12,0,0,12,-8.2285,4.0475)"><path d="M0.306,-0.485c-0.057,0 -0.106,0.026 -0.139,0.072l-0,-0.062l-0.08,0l-0,0.475l0.081,-0l-0,-0.264c-0,-0.088 0.051,-0.144 0.123,-0.144c0.027,0 0.059,0.007 0.082,0.019l0.02,-0.08c-0.026,-0.011 -0.053,-0.016 -0.087,-0.016Z" style="fill:#fff;fill-rule:nonzero;"/></g><g transform="matrix(12,0,0,12,-3.4405,4.0475)"><path d="M0.287,-0.485c-0.137,0 -0.236,0.101 -0.236,0.247c-0,0.149 0.099,0.248 0.241,0.248c0.07,-0 0.136,-0.017 0.194,-0.072l-0.043,-0.056c-0.04,0.035 -0.091,0.057 -0.146,0.057c-0.082,-0 -0.151,-0.049 -0.162,-0.148l0.373,0c0.001,-0.009 0.002,-0.02 0.002,-0.03c-0.001,-0.146 -0.094,-0.246 -0.223,-0.246Zm-0.002,0.072c0.077,0 0.132,0.054 0.142,0.139l-0.291,-0c0.012,-0.082 0.065,-0.139 0.149,-0.139Z" style="fill:#fff;fill-rule:nonzero;"/></g><g transform="matrix(12,0,0,12,3.2855,4.0475)"><path d="M0.442,-0.433c-0.046,-0.031 -0.114,-0.051 -0.19,-0.051c-0.115,-0 -0.19,0.054 -0.19,0.145c-0,0.072 0.051,0.121 0.157,0.134l0.056,0.006c0.064,0.008 0.095,0.03 0.095,0.065c0,0.047 -0.048,0.073 -0.126,0.073c-0.08,-0 -0.127,-0.023 -0.162,-0.051l-0.038,0.061c0.062,0.047 0.141,0.061 0.199,0.061c0.13,-0 0.211,-0.058 0.211,-0.149c-0,-0.078 -0.059,-0.121 -0.16,-0.135l-0.056,-0.007c-0.057,-0.007 -0.092,-0.024 -0.092,-0.062c0,-0.043 0.042,-0.071 0.107,-0.071c0.063,0 0.124,0.024 0.154,0.044l0.035,-0.063Z" style="fill:#fff;fill-rule:nonzero;"/></g></g><g transform="matrix(1,0,0,1,80.058,291.333)"><g transform="matrix(12,0,0,12,-39.9685,-10.3525)"><path d="M0.585,-0.7l-0.565,0l0,0.083l0.239,0l0,0.617l0.088,-0l-0,-0.617l0.238,0l0,-0.083Z" style="fill:#fff;fill-rule:nonzero;"/></g><g transform="matrix(12,0,0,12,-33.6685,-10.3525)"><path d="M0.287,-0.485c-0.137,0 -0.236,0.101 -0.236,0.247c-0,0.149 0.099,0.248 0.241,0.248c0.07,-0 0.136,-0.017 0.194,-0.072l-0.043,-0.056c-0.04,0.035 -0.091,0.057 -0.146,0.057c-0.082,-0 -0.151,-0.049 -0.162,-0.148l0.373,0c0.001,-0.009 0.002,-0.02 0.002,-0.03c-0.001,-0.146 -0.094,-0.246 -0.223,-0.246Zm-0.002,0.072c0.077,0 0.132,0.054 0.142,0.139l-0.291,-0c0.012,-0.082 0.065,-0.139 0.149,-0.139Z" style="fill:#fff;fill-rule:nonzero;"/></g><g transform="matrix(12,0,0,12,-26.9425,-10.3525)"><path d="M0.297,-0.485c-0.147,0 -0.246,0.106 -0.246,0.247c-0,0.142 0.099,0.248 0.246,0.248c0.07,-0 0.133,-0.026 0.176,-0.074l-0.05,-0.057c-0.033,0.032 -0.078,0.055 -0.128,0.055c-0.092,-0 -0.161,-0.072 -0.161,-0.172c-0,-0.099 0.069,-0.17 0.161,-0.17c0.05,-0 0.091,0.019 0.126,0.053l0.052,-0.055c-0.042,-0.049 -0.106,-0.075 -0.176,-0.075Z" style="fill:#fff;fill-rule:nonzero;"/></g><g transform="matrix(12,0,0,12,-20.7925,-10.3525)"><path d="M0.168,-0.72l-0.081,0l-0,0.72l0.081,-0l-0,-0.267c-0,-0.088 0.064,-0.141 0.141,-0.141c0.082,0 0.13,0.052 0.13,0.139l0,0.269l0.082,-0l-0,-0.295c-0,-0.114 -0.081,-0.19 -0.198,-0.19c-0.055,0 -0.116,0.018 -0.155,0.071l-0,-0.306Z" style="fill:#fff;fill-rule:nonzero;"/></g><g transform="matrix(12,0,0,12,-13.5625,-10.3525)"><path d="M0.323,-0.485c-0.055,0 -0.117,0.019 -0.156,0.072l0,-0.062l-0.08,0l-0,0.475l0.081,-0l-0,-0.266c-0,-0.089 0.064,-0.142 0.141,-0.142c0.082,0 0.13,0.052 0.13,0.139l0,0.269l0.082,-0l-0,-0.295c-0,-0.114 -0.081,-0.19 -0.198,-0.19Z" style="fill:#fff;fill-rule:nonzero;"/></g><g transform="matrix(12,0,0,12,-6.3325,-10.3525)"><path d="M0.168,-0.475l-0.081,0l-0,0.475l0.081,-0l-0,-0.475Zm-0.041,-0.225c-0.033,-0 -0.058,0.025 -0.058,0.058c0,0.033 0.025,0.057 0.058,0.057c0.032,0 0.058,-0.024 0.058,-0.057c-0,-0.033 -0.026,-0.058 -0.058,-0.058Z" style="fill:#fff;fill-rule:nonzero;"/></g><g transform="matrix(12,0,0,12,-3.2785,-10.3525)"><path d="M0.297,-0.485c-0.147,0 -0.246,0.106 -0.246,0.247c-0,0.142 0.099,0.248 0.246,0.248c0.07,-0 0.133,-0.026 0.176,-0.074l-0.05,-0.057c-0.033,0.032 -0.078,0.055 -0.128,0.055c-0.092,-0 -0.161,-0.072 -0.161,-0.172c-0,-0.099 0.069,-0.17 0.161,-0.17c0.05,-0 0.091,0.019 0.126,0.053l0.052,-0.055c-0.042,-0.049 -0.106,-0.075 -0.176,-0.075Z" style="fill:#fff;fill-rule:nonzero;"/></g><g transform="matrix(12,0,0,12,2.7695,-10.3525)"><path d="M0.537,-0.475l-0.081,0l-0,0.064c-0.038,-0.045 -0.093,-0.074 -0.168,-0.074c-0.134,0 -0.237,0.104 -0.237,0.247c-0,0.144 0.103,0.248 0.237,0.248c0.075,-0 0.13,-0.029 0.168,-0.073l-0,0.063l0.081,-0l0,-0.475Zm-0.239,0.067c0.096,-0 0.163,0.073 0.163,0.17c-0,0.098 -0.067,0.172 -0.163,0.172c-0.098,-0 -0.164,-0.077 -0.164,-0.172c-0,-0.094 0.064,-0.17 0.164,-0.17Z" style="fill:#fff;fill-rule:nonzero;"/></g><g transform="matrix(12,0,0,12,10.2575,-10.3525)"><rect x="0.087" y="-0.72" width="0.081" height="0.72" style="fill:#fff;fill-rule:nonzero;"/></g><g transform="matrix(12,0,0,12,-39.9685,4.0475)"><path d="M0.168,-0.475l-0.081,0l-0,0.475l0.081,-0l-0,-0.475Zm-0.041,-0.225c-0.033,-0 -0.058,0.025 -0.058,0.058c0,0.033 0.025,0.057 0.058,0.057c0.032,0 0.058,-0.024 0.058,-0.057c-0,-0.033 -0.026,-0.058 -0.058,-0.058Z" style="fill:#fff;fill-rule:nonzero;"/></g><g transform="matrix(12,0,0,12,-36.9145,4.0475)"><path d="M0.676,-0.485c-0.065,0 -0.139,0.024 -0.178,0.095c-0.031,-0.059 -0.094,-0.095 -0.175,-0.095c-0.055,0 -0.117,0.019 -0.156,0.072l0,-0.062l-0.08,0l-0,0.475l0.081,-0l-0,-0.266c-0,-0.089 0.064,-0.142 0.141,-0.142c0.082,0 0.13,0.052 0.13,0.139l0,0.269l0.082,-0l-0,-0.267c-0,-0.086 0.061,-0.141 0.14,-0.141c0.083,0 0.131,0.052 0.131,0.139l-0,0.269l0.081,-0l0,-0.295c0,-0.114 -0.08,-0.19 -0.197,-0.19Z" style="fill:#fff;fill-rule:nonzero;"/></g><g transform="matrix(12,0,0,12,-25.4545,4.0475)"><path d="M0.336,-0.485c-0.076,0 -0.131,0.029 -0.168,0.073l-0,-0.063l-0.081,0l-0,0.675l0.081,-0l-0,-0.263c0.037,0.044 0.092,0.073 0.168,0.073c0.133,-0 0.237,-0.104 0.237,-0.247c-0,-0.144 -0.104,-0.248 -0.237,-0.248Zm-0.01,0.077c0.097,-0 0.163,0.076 0.163,0.17c0,0.095 -0.064,0.172 -0.163,0.172c-0.096,-0 -0.163,-0.074 -0.163,-0.172c-0,-0.097 0.067,-0.17 0.163,-0.17Z" style="fill:#fff;fill-rule:nonzero;"/></g><g transform="matrix(12,0,0,12,-17.9725,4.0475)"><path d="M0.306,-0.485c-0.057,0 -0.106,0.026 -0.139,0.072l-0,-0.062l-0.08,0l-0,0.475l0.081,-0l-0,-0.264c-0,-0.088 0.051,-0.144 0.123,-0.144c0.027,0 0.059,0.007 0.082,0.019l0.02,-0.08c-0.026,-0.011 -0.053,-0.016 -0.087,-0.016Z" style="fill:#fff;fill-rule:nonzero;"/></g><g transform="matrix(12,0,0,12,-13.1845,4.0475)"><path d="M0.301,-0.485c-0.144,0 -0.25,0.106 -0.25,0.247c-0,0.142 0.106,0.248 0.25,0.248c0.145,-0 0.252,-0.106 0.252,-0.248c-0,-0.141 -0.107,-0.247 -0.252,-0.247Zm0,0.077c0.096,-0 0.168,0.071 0.168,0.17c0,0.1 -0.072,0.172 -0.168,0.172c-0.095,-0 -0.167,-0.072 -0.167,-0.172c-0,-0.099 0.072,-0.17 0.167,-0.17Z" style="fill:#fff;fill-rule:nonzero;"/></g><g transform="matrix(12,0,0,12,-6.0205,4.0475)"><path d="M0.509,-0.475l-0.087,0l-0.159,0.392l-0.16,-0.392l-0.089,0l0.2,0.475l0.096,0l0.199,-0.475Z" style="fill:#fff;fill-rule:nonzero;"/></g><g transform="matrix(12,0,0,12,0.183496,4.0475)"><path d="M0.287,-0.485c-0.137,0 -0.236,0.101 -0.236,0.247c-0,0.149 0.099,0.248 0.241,0.248c0.07,-0 0.136,-0.017 0.194,-0.072l-0.043,-0.056c-0.04,0.035 -0.091,0.057 -0.146,0.057c-0.082,-0 -0.151,-0.049 -0.162,-0.148l0.373,0c0.001,-0.009 0.002,-0.02 0.002,-0.03c-0.001,-0.146 -0.094,-0.246 -0.223,-0.246Zm-0.002,0.072c0.077,0 0.132,0.054 0.142,0.139l-0.291,-0c0.012,-0.082 0.065,-0.139 0.149,-0.139Z" style="fill:#fff;fill-rule:nonzero;"/></g><g transform="matrix(12,0,0,12,6.9095,4.0475)"><path d="M0.676,-0.485c-0.065,0 -0.139,0.024 -0.178,0.095c-0.031,-0.059 -0.094,-0.095 -0.175,-0.095c-0.055,0 -0.117,0.019 -0.156,0.072l0,-0.062l-0.08,0l-0,0.475l0.081,-0l-0,-0.266c-0,-0.089 0.064,-0.142 0.141,-0.142c0.082,0 0.13,0.052 0.13,0.139l0,0.269l0.082,-0l-0,-0.267c-0,-0.086 0.061,-0.141 0.14,-0.141c0.083,0 0.131,0.052 0.131,0.139l-0,0.269l0.081,-0l0,-0.295c0,-0.114 -0.08,-0.19 -0.197,-0.19Z" style="fill:#fff;fill-rule:nonzero;"/></g><g transform="matrix(12,0,0,12,18.3695,4.0475)"><path d="M0.287,-0.485c-0.137,0 -0.236,0.101 -0.236,0.247c-0,0.149 0.099,0.248 0.241,0.248c0.07,-0 0.136,-0.017 0.194,-0.072l-0.043,-0.056c-0.04,0.035 -0.091,0.057 -0.146,0.057c-0.082,-0 -0.151,-0.049 -0.162,-0.148l0.373,0c0.001,-0.009 0.002,-0.02 0.002,-0.03c-0.001,-0.146 -0.094,-0.246 -0.223,-0.246Zm-0.002,0.072c0.077,0 0.132,0.054 0.142,0.139l-0.291,-0c0.012,-0.082 0.065,-0.139 0.149,-0.139Z" style="fill:#fff;fill-rule:nonzero;"/></g><g transform="matrix(12,0,0,12,25.0955,4.0475)"><path d="M0.323,-0.485c-0.055,0 -0.117,0.019 -0.156,0.072l0,-0.062l-0.08,0l-0,0.475l0.081,-0l-0,-0.266c-0,-0.089 0.064,-0.142 0.141,-0.142c0.082,0 0.13,0.052 0.13,0.139l0,0.269l0.082,-0l-0,-0.295c-0,-0.114 -0.081,-0.19 -0.198,-0.19Z" style="fill:#fff;fill-rule:nonzero;"/></g><g transform="matrix(12,0,0,12,32.2475,4.0475)"><path d="M0.409,-0.475l-0.2,0l0,-0.149l-0.081,0l-0,0.149l-0.102,0l0,0.074l0.102,0l-0,0.234c-0,0.121 0.061,0.177 0.164,0.177c0.058,-0 0.106,-0.021 0.142,-0.047l-0.038,-0.061c-0.027,0.018 -0.062,0.032 -0.097,0.032c-0.052,-0 -0.09,-0.031 -0.09,-0.103l0,-0.232l0.2,0l-0,-0.074Z" style="fill:#fff;fill-rule:nonzero;"/></g><g transform="matrix(12,0,0,12,37.6895,4.0475)"><path d="M0.442,-0.433c-0.046,-0.031 -0.114,-0.051 -0.19,-0.051c-0.115,-0 -0.19,0.054 -0.19,0.145c-0,0.072 0.051,0.121 0.157,0.134l0.056,0.006c0.064,0.008 0.095,0.03 0.095,0.065c0,0.047 -0.048,0.073 -0.126,0.073c-0.08,-0 -0.127,-0.023 -0.162,-0.051l-0.038,0.061c0.062,0.047 0.141,0.061 0.199,0.061c0.13,-0 0.211,-0.058 0.211,-0.149c-0,-0.078 -0.059,-0.121 -0.16,-0.135l-0.056,-0.007c-0.057,-0.007 -0.092,-0.024 -0.092,-0.062c0,-0.043 0.042,-0.071 0.107,-0.071c0.063,0 0.124,0.024 0.154,0.044l0.035,-0.063Z" style="fill:#fff;fill-rule:nonzero;"/></g></g><g transform="matrix(1,0,0,1,202.252,291.333)"><g transform="matrix(12,0,0,12,-39.9685,-10.3525)"><path d="M0.411,-0.7l-0.109,0l-0.285,0.7l0.092,-0l0.076,-0.191l0.34,-0l0.077,0.191l0.095,-0l-0.285,-0.7Zm-0.056,0.087l0.136,0.339l-0.273,-0l0.137,-0.339Z" style="fill:#fff;fill-rule:nonzero;"/></g><g transform="matrix(12,0,0,12,-31.4005,-10.3525)"><path d="M0.306,-0.485c-0.057,0 -0.106,0.026 -0.139,0.072l-0,-0.062l-0.08,0l-0,0.475l0.081,-0l-0,-0.264c-0,-0.088 0.051,-0.144 0.123,-0.144c0.027,0 0.059,0.007 0.082,0.019l0.02,-0.08c-0.026,-0.011 -0.053,-0.016 -0.087,-0.016Z" style="fill:#fff;fill-rule:nonzero;"/></g><g transform="matrix(12,0,0,12,-26.6125,-10.3525)"><path d="M0.297,-0.485c-0.147,0 -0.246,0.106 -0.246,0.247c-0,0.142 0.099,0.248 0.246,0.248c0.07,-0 0.133,-0.026 0.176,-0.074l-0.05,-0.057c-0.033,0.032 -0.078,0.055 -0.128,0.055c-0.092,-0 -0.161,-0.072 -0.161,-0.172c-0,-0.099 0.069,-0.17 0.161,-0.17c0.05,-0 0.091,0.019 0.126,0.053l0.052,-0.055c-0.042,-0.049 -0.106,-0.075 -0.176,-0.075Z" style="fill:#fff;fill-rule:nonzero;"/></g><g transform="matrix(12,0,0,12,-20.4625,-10.3525)"><path d="M0.168,-0.72l-0.081,0l-0,0.72l0.081,-0l-0,-0.267c-0,-0.088 0.064,-0.141 0.141,-0.141c0.082,0 0.13,0.052 0.13,0.139l0,0.269l0.082,-0l-0,-0.295c-0,-0.114 -0.081,-0.19 -0.198,-0.19c-0.055,0 -0.116,0.018 -0.155,0.071l-0,-0.306Z" style="fill:#fff;fill-rule:nonzero;"/></g><g transform="matrix(12,0,0,12,-13.2325,-10.3525)"><path d="M0.168,-0.475l-0.081,0l-0,0.475l0.081,-0l-0,-0.475Zm-0.041,-0.225c-0.033,-0 -0.058,0.025 -0.058,0.058c0,0.033 0.025,0.057 0.058,0.057c0.032,0 0.058,-0.024 0.058,-0.057c-0,-0.033 -0.026,-0.058 -0.058,-0.058Z" style="fill:#fff;fill-rule:nonzero;"/></g><g transform="matrix(12,0,0,12,-10.1785,-10.3525)"><path d="M0.409,-0.475l-0.2,0l0,-0.149l-0.081,0l-0,0.149l-0.102,0l0,0.074l0.102,0l-0,0.234c-0,0.121 0.061,0.177 0.164,0.177c0.058,-0 0.106,-0.021 0.142,-0.047l-0.038,-0.061c-0.027,0.018 -0.062,0.032 -0.097,0.032c-0.052,-0 -0.09,-0.031 -0.09,-0.103l0,-0.232l0.2,0l-0,-0.074Z" style="fill:#fff;fill-rule:nonzero;"/></g><g transform="matrix(12,0,0,12,-4.7485,-10.3525)"><path d="M0.287,-0.485c-0.137,0 -0.236,0.101 -0.236,0.247c-0,0.149 0.099,0.248 0.241,0.248c0.07,-0 0.136,-0.017 0.194,-0.072l-0.043,-0.056c-0.04,0.035 -0.091,0.057 -0.146,0.057c-0.082,-0 -0.151,-0.049 -0.162,-0.148l0.373,0c0.001,-0.009 0.002,-0.02 0.002,-0.03c-0.001,-0.146 -0.094,-0.246 -0.223,-0.246Zm-0.002,0.072c0.077,0 0.132,0.054 0.142,0.139l-0.291,-0c0.012,-0.082 0.065,-0.139 0.149,-0.139Z" style="fill:#fff;fill-rule:nonzero;"/></g><g transform="matrix(12,0,0,12,1.9775,-10.3525)"><path d="M0.297,-0.485c-0.147,0 -0.246,0.106 -0.246,0.247c-0,0.142 0.099,0.248 0.246,0.248c0.07,-0 0.133,-0.026 0.176,-0.074l-0.05,-0.057c-0.033,0.032 -0.078,0.055 -0.128,0.055c-0.092,-0 -0.161,-0.072 -0.161,-0.172c-0,-0.099 0.069,-0.17 0.161,-0.17c0.05,-0 0.091,0.019 0.126,0.053l0.052,-0.055c-0.042,-0.049 -0.106,-0.075 -0.176,-0.075Z" style="fill:#fff;fill-rule:nonzero;"/></g><g transform="matrix(12,0,0,12,8.2055,-10.3525)"><path d="M0.409,-0.475l-0.2,0l0,-0.149l-0.081,0l-0,0.149l-0.102,0l0,0.074l0.102,0l-0,0.234c-0,0.121 0.061,0.177 0.164,0.177c0.058,-0 0.106,-0.021 0.142,-0.047l-0.038,-0.061c-0.027,0.018 -0.062,0.032 -0.097,0.032c-0.052,-0 -0.09,-0.031 -0.09,-0.103l0,-0.232l0.2,0l-0,-0.074Z" style="fill:#fff;fill-rule:nonzero;"/></g><g transform="matrix(12,0,0,12,13.6475,-10.3525)"><path d="M0.515,-0.475l-0.082,0l0,0.269c0,0.097 -0.057,0.14 -0.135,0.14c-0.077,-0 -0.135,-0.043 -0.135,-0.14l0,-0.269l-0.081,0l-0,0.276c-0,0.144 0.102,0.209 0.216,0.209c0.114,-0 0.217,-0.065 0.217,-0.209l-0,-0.276Z" style="fill:#fff;fill-rule:nonzero;"/></g><g transform="matrix(12,0,0,12,20.8055,-10.3525)"><path d="M0.306,-0.485c-0.057,0 -0.106,0.026 -0.139,0.072l-0,-0.062l-0.08,0l-0,0.475l0.081,-0l-0,-0.264c-0,-0.088 0.051,-0.144 0.123,-0.144c0.027,0 0.059,0.007 0.082,0.019l0.02,-0.08c-0.026,-0.011 -0.053,-0.016 -0.087,-0.016Z" style="fill:#fff;fill-rule:nonzero;"/></g><g transform="matrix(12,0,0,12,25.5935,-10.3525)"><path d="M0.537,-0.475l-0.081,0l-0,0.064c-0.038,-0.045 -0.093,-0.074 -0.168,-0.074c-0.134,0 -0.237,0.104 -0.237,0.247c-0,0.144 0.103,0.248 0.237,0.248c0.075,-0 0.13,-0.029 0.168,-0.073l-0,0.063l0.081,-0l0,-0.475Zm-0.239,0.067c0.096,-0 0.163,0.073 0.163,0.17c-0,0.098 -0.067,0.172 -0.163,0.172c-0.098,-0 -0.164,-0.077 -0.164,-0.172c-0,-0.094 0.064,-0.17 0.164,-0.17Z" style="fill:#fff;fill-rule:nonzero;"/></g><g transform="matrix(12,0,0,12,33.0815,-10.3525)"><rect x="0.087" y="-0.72" width="0.081" height="0.72" style="fill:#fff;fill-rule:nonzero;"/></g><g transform="matrix(12,0,0,12,-39.9685,4.0475)"><path d="M0.471,-0.475l-0.093,0l-0.135,0.388l-0.135,-0.388l-0.087,0l0.171,0.475l0.096,-0l0.135,-0.386l0.136,0.386l0.098,-0l0.171,-0.475l-0.086,0l-0.135,0.389l-0.136,-0.389Z" style="fill:#fff;fill-rule:nonzero;"/></g><g transform="matrix(12,0,0,12,-29.7865,4.0475)"><path d="M0.301,-0.485c-0.144,0 -0.25,0.106 -0.25,0.247c-0,0.142 0.106,0.248 0.25,0.248c0.145,-0 0.252,-0.106 0.252,-0.248c-0,-0.141 -0.107,-0.247 -0.252,-0.247Zm0,0.077c0.096,-0 0.168,0.071 0.168,0.17c0,0.1 -0.072,0.172 -0.168,0.172c-0.095,-0 -0.167,-0.072 -0.167,-0.172c-0,-0.099 0.072,-0.17 0.167,-0.17Z" style="fill:#fff;fill-rule:nonzero;"/></g><g transform="matrix(12,0,0,12,-22.5445,4.0475)"><path d="M0.306,-0.485c-0.057,0 -0.106,0.026 -0.139,0.072l-0,-0.062l-0.08,0l-0,0.475l0.081,-0l-0,-0.264c-0,-0.088 0.051,-0.144 0.123,-0.144c0.027,0 0.059,0.007 0.082,0.019l0.02,-0.08c-0.026,-0.011 -0.053,-0.016 -0.087,-0.016Z" style="fill:#fff;fill-rule:nonzero;"/></g><g transform="matrix(12,0,0,12,-17.5165,4.0475)"><path d="M0.168,-0.72l-0.081,0l-0,0.72l0.081,-0l-0,-0.211l0.064,-0l0.18,0.211l0.103,-0l-0.215,-0.251l0.212,-0.224l-0.103,0l-0.176,0.19l-0.065,0l-0,-0.435Z" style="fill:#fff;fill-rule:nonzero;"/></g></g><path d="M123.633,100.303l0,8.399l3.822,0c2.13,0 3.191,-0.863 3.191,-2.405c0,-0.859 -0.587,-1.578 -1.331,-1.842c0.672,-0.3 1.157,-0.948 1.157,-1.776c0,-1.542 -1.103,-2.376 -3.227,-2.376l-3.612,-0Zm3.72,5.015c0.774,0 1.224,0.234 1.224,0.847c0,0.63 -0.45,0.858 -1.224,0.858l-1.717,-0l0,-1.705l1.717,0Zm-0.156,-3.33c0.72,0 1.188,0.21 1.188,0.823c0,0.624 -0.468,0.834 -1.188,0.834l-1.561,-0l0,-1.657l1.561,0Z" style="fill:#f39260;fill-rule:nonzero;"/><path d="M137.36,102.817l-1.871,-0l0,3.198c0,0.75 -0.408,1.092 -0.966,1.092c-0.564,-0 -0.967,-0.342 -0.967,-1.092l0,-3.198l-1.877,-0l0,3.36c0,1.848 1.272,2.681 2.844,2.681c1.566,0 2.837,-0.833 2.837,-2.675l0,-3.366Z" style="fill:#f39260;fill-rule:nonzero;"/><path d="M143.546,103.165c-0.965,-0.372 -1.577,-0.504 -2.531,-0.504c-1.602,-0 -2.544,0.714 -2.544,1.967c0,1.057 0.66,1.645 2.075,1.855l0.343,0.048c0.666,0.102 0.93,0.192 0.93,0.42c0,0.252 -0.24,0.384 -0.822,0.384c-0.816,-0 -1.488,-0.204 -2.076,-0.552l-0.654,1.452c0.672,0.437 1.71,0.617 2.718,0.617c1.716,0 2.723,-0.773 2.723,-2.063c0,-0.99 -0.665,-1.597 -1.925,-1.789l-0.432,-0.066c-0.576,-0.09 -0.949,-0.15 -0.949,-0.402c0,-0.216 0.193,-0.36 0.685,-0.36c0.6,0.006 1.356,0.21 1.938,0.456l0.521,-1.463Z" style="fill:#f39260;fill-rule:nonzero;"/><path d="M146.576,102.817l-1.877,-0l0,5.885l1.877,0l0,-5.885Zm-0.947,-2.94c-0.636,-0 -1.122,0.492 -1.122,1.128c0,0.63 0.486,1.116 1.122,1.116c0.63,-0 1.121,-0.486 1.121,-1.116c0,-0.636 -0.491,-1.128 -1.121,-1.128Z" style="fill:#f39260;fill-rule:nonzero;"/><path d="M151.443,102.655c-0.786,-0 -1.38,0.282 -1.753,0.9l0,-0.738l-1.799,-0l0,5.885l1.877,0l0,-3.167c0,-0.763 0.433,-1.117 0.955,-1.117c0.582,0 0.93,0.39 0.93,1.086l0,3.198l1.877,0l0,-3.864c0,-1.361 -0.911,-2.183 -2.087,-2.183Z" style="fill:#f39260;fill-rule:nonzero;"/><path d="M157.515,102.655c-1.788,-0 -3.018,1.283 -3.018,3.138c0,1.836 1.254,3.065 3.102,3.065c1.086,0 1.98,-0.354 2.592,-0.965l-1.212,-1.128c-0.372,0.336 -0.846,0.516 -1.284,0.516c-0.648,-0 -1.105,-0.3 -1.261,-0.943l3.99,0c0.024,-0.126 0.036,-0.39 0.036,-0.581c-0.006,-1.843 -1.199,-3.102 -2.945,-3.102Zm0.006,1.595c0.546,0 0.912,0.312 1.062,0.901l-2.143,-0c0.144,-0.582 0.499,-0.901 1.081,-0.901Z" style="fill:#f39260;fill-rule:nonzero;"/><path d="M166.334,103.165c-0.965,-0.372 -1.577,-0.504 -2.531,-0.504c-1.602,-0 -2.544,0.714 -2.544,1.967c0,1.057 0.66,1.645 2.075,1.855l0.343,0.048c0.666,0.102 0.93,0.192 0.93,0.42c0,0.252 -0.24,0.384 -0.822,0.384c-0.816,-0 -1.488,-0.204 -2.076,-0.552l-0.654,1.452c0.672,0.437 1.71,0.617 2.718,0.617c1.716,0 2.723,-0.773 2.723,-2.063c0,-0.99 -0.665,-1.597 -1.925,-1.789l-0.432,-0.066c-0.576,-0.09 -0.949,-0.15 -0.949,-0.402c0,-0.216 0.193,-0.36 0.685,-0.36c0.6,0.006 1.356,0.21 1.938,0.456l0.521,-1.463Z" style="fill:#f39260;fill-rule:nonzero;"/><path d="M172.352,103.165c-0.965,-0.372 -1.577,-0.504 -2.531,-0.504c-1.602,-0 -2.544,0.714 -2.544,1.967c0,1.057 0.66,1.645 2.075,1.855l0.343,0.048c0.666,0.102 0.93,0.192 0.93,0.42c0,0.252 -0.24,0.384 -0.822,0.384c-0.816,-0 -1.488,-0.204 -2.076,-0.552l-0.654,1.452c0.672,0.437 1.71,0.617 2.718,0.617c1.716,0 2.723,-0.773 2.723,-2.063c0,-0.99 -0.665,-1.597 -1.925,-1.789l-0.432,-0.066c-0.576,-0.09 -0.949,-0.15 -0.949,-0.402c0,-0.216 0.193,-0.36 0.685,-0.36c0.6,0.006 1.356,0.21 1.938,0.456l0.521,-1.463Z" style="fill:#f39260;fill-rule:nonzero;"/><path d="M123.724,349.91l-6.978,-0l0,1.859l2.49,-0l0,6.54l2.004,-0l-0,-6.54l2.484,-0l-0,-1.859Z" style="fill:#f39260;fill-rule:nonzero;"/><path d="M126.172,352.262c-1.788,-0 -3.018,1.283 -3.018,3.137c0,1.837 1.254,3.066 3.102,3.066c1.086,-0 1.98,-0.354 2.592,-0.966l-1.212,-1.128c-0.372,0.337 -0.846,0.517 -1.284,0.517c-0.648,-0 -1.104,-0.301 -1.26,-0.943l3.99,-0c0.024,-0.126 0.036,-0.39 0.036,-0.582c-0.006,-1.842 -1.2,-3.101 -2.946,-3.101Zm0.006,1.595c0.546,-0 0.912,0.312 1.062,0.901l-2.142,-0c0.144,-0.583 0.498,-0.901 1.08,-0.901Z" style="fill:#f39260;fill-rule:nonzero;"/><path d="M132.988,352.262c-1.878,-0 -3.174,1.301 -3.174,3.101c0,1.8 1.296,3.102 3.174,3.102c1.092,-0 1.956,-0.48 2.52,-1.278l-1.464,-1.043c-0.294,0.372 -0.666,0.57 -1.11,0.57c-0.654,-0 -1.2,-0.498 -1.2,-1.351c-0,-0.846 0.558,-1.35 1.212,-1.35c0.456,-0 0.792,0.186 1.086,0.564l1.47,-1.026c-0.564,-0.804 -1.422,-1.289 -2.514,-1.289Z" style="fill:#f39260;fill-rule:nonzero;"/><path d="M138.232,349.664l-1.878,-0l0,8.645l1.878,-0l-0,-3.168c-0,-0.762 0.432,-1.116 0.954,-1.116c0.582,-0 0.93,0.39 0.93,1.086l0,3.198l1.878,-0l-0,-3.864c-0,-1.362 -0.912,-2.183 -2.088,-2.183c-0.732,-0 -1.302,0.246 -1.674,0.779l-0,-3.377Z" style="fill:#f39260;fill-rule:nonzero;"/><path d="M146.824,352.262c-0.786,-0 -1.38,0.282 -1.752,0.899l-0,-0.737l-1.8,-0l0,5.885l1.878,-0l-0,-3.168c-0,-0.762 0.432,-1.116 0.954,-1.116c0.582,-0 0.93,0.39 0.93,1.086l0,3.198l1.878,-0l-0,-3.864c-0,-1.362 -0.912,-2.183 -2.088,-2.183Z" style="fill:#f39260;fill-rule:nonzero;"/><path d="M153.07,352.262c-1.836,-0 -3.192,1.319 -3.192,3.101c0,1.783 1.356,3.102 3.192,3.102c1.842,-0 3.198,-1.319 3.198,-3.102c-0,-1.782 -1.356,-3.101 -3.198,-3.101Zm-0,1.751c0.738,-0 1.278,0.558 1.278,1.35c0,0.793 -0.54,1.351 -1.278,1.351c-0.732,-0 -1.272,-0.558 -1.272,-1.351c-0,-0.792 0.54,-1.35 1.272,-1.35Z" style="fill:#f39260;fill-rule:nonzero;"/><rect x="157.276" y="349.67" width="1.877" height="8.639" style="fill:#f39260;fill-rule:nonzero;"/><path d="M163.348,352.262c-1.836,-0 -3.192,1.319 -3.192,3.101c0,1.783 1.356,3.102 3.192,3.102c1.842,-0 3.198,-1.319 3.198,-3.102c-0,-1.782 -1.356,-3.101 -3.198,-3.101Zm-0,1.751c0.738,-0 1.278,0.558 1.278,1.35c0,0.793 -0.54,1.351 -1.278,1.351c-0.732,-0 -1.272,-0.558 -1.272,-1.351c-0,-0.792 0.54,-1.35 1.272,-1.35Z" style="fill:#f39260;fill-rule:nonzero;"/><path d="M169.972,352.262c-1.578,-0 -2.73,1.307 -2.73,2.975c0,1.669 1.152,2.97 2.73,2.97c0.756,-0 1.272,-0.3 1.62,-0.744l0,0.366c0,0.936 -0.72,1.357 -1.482,1.357c-0.696,-0 -1.314,-0.192 -1.89,-0.601l-0.666,1.494c0.702,0.498 1.704,0.75 2.688,0.75c1.926,-0 3.192,-1.152 3.192,-3.084l-0,-5.321l-1.818,-0l0,0.612c-0.348,-0.456 -0.87,-0.774 -1.644,-0.774Zm0.444,1.715c0.708,-0 1.2,0.534 1.2,1.26c0,0.727 -0.492,1.261 -1.2,1.261c-0.732,-0 -1.236,-0.546 -1.236,-1.261c-0,-0.72 0.504,-1.26 1.236,-1.26Z" style="fill:#f39260;fill-rule:nonzero;"/><path d="M181,352.424l-2.052,-0l-1.314,2.645l-1.338,-2.645l-2.154,-0l2.478,4.589l-2.016,3.708l2.052,-0l4.344,-8.297Z" style="fill:#f39260;fill-rule:nonzero;"/><path d="M25.254,238.854c0,-2.058 -1.103,-3.156 -2.76,-3.156c-1.686,-0 -2.801,1.098 -2.801,3.174l-0,3.599l8.399,0l0,-2.003l-2.838,-0l0,-1.614Zm-3.744,0.048c0,-0.721 0.342,-1.165 0.984,-1.165c0.637,0 0.973,0.444 0.973,1.165l-0,1.566l-1.957,-0l0,-1.566Z" style="fill:#f39260;fill-rule:nonzero;"/><path d="M22.207,228.96l-0,1.817l0.636,0c-0.462,0.354 -0.798,0.894 -0.798,1.687c-0,1.578 1.367,2.741 3.095,2.741c1.741,0 3.108,-1.163 3.108,-2.735c0,-0.799 -0.33,-1.339 -0.792,-1.693l0.636,0l0,-1.817l-5.885,-0Zm1.589,3.06c0,-0.739 0.57,-1.261 1.35,-1.261c0.781,0 1.351,0.522 1.351,1.261c-0,0.75 -0.582,1.254 -1.351,1.254c-0.768,-0 -1.35,-0.504 -1.35,-1.254Z" style="fill:#f39260;fill-rule:nonzero;"/><path d="M22.555,222.696c-0.372,0.966 -0.504,1.577 -0.504,2.532c-0,1.602 0.714,2.543 1.967,2.543c1.056,0 1.645,-0.66 1.855,-2.075l0.048,-0.342c0.102,-0.667 0.192,-0.931 0.42,-0.931c0.252,0 0.384,0.24 0.384,0.823c-0,0.816 -0.204,1.488 -0.552,2.075l1.451,0.654c0.438,-0.672 0.618,-1.709 0.618,-2.717c0,-1.716 -0.774,-2.724 -2.063,-2.724c-0.991,-0 -1.597,0.666 -1.789,1.925l-0.066,0.432c-0.09,0.577 -0.15,0.949 -0.402,0.949c-0.216,-0 -0.36,-0.192 -0.36,-0.684c0.006,-0.601 0.21,-1.357 0.456,-1.938l-1.463,-0.522Z" style="fill:#f39260;fill-rule:nonzero;"/><path d="M22.207,217.104l-0,2.01l-1.716,-0l-0,1.877l1.716,0l-0,1.098l1.661,0l0,-1.098l1.963,0c1.476,0 2.417,-0.714 2.417,-2.291c0,-0.948 -0.27,-1.536 -0.654,-2.088l-1.463,0.648c0.174,0.294 0.366,0.672 0.366,1.02c-0,0.474 -0.228,0.834 -0.906,0.834l-1.723,-0l0,-2.01l-1.661,-0Z" style="fill:#f39260;fill-rule:nonzero;"/><path d="M275.423,216.549l-0,-4.056l1.572,0l0,4.344l1.806,0l-0,-6.347l-8.4,0l0,2.003l3.21,0l0,4.056l1.812,0Z" style="fill:#f39260;fill-rule:nonzero;"/><path d="M276.287,223.431l-0,-1.871l-3.198,0c-0.75,0 -1.092,-0.408 -1.092,-0.966c-0,-0.565 0.342,-0.967 1.092,-0.967l3.198,0l-0,-1.877l-3.36,0c-1.848,0 -2.682,1.271 -2.682,2.844c0,1.566 0.834,2.837 2.676,2.837l3.366,0Z" style="fill:#f39260;fill-rule:nonzero;"/><path d="M276.287,229.233l-0,-2.01l1.716,0l-0,-1.877l-1.716,0l-0,-1.098l-1.662,0l0,1.098l-1.962,0c-1.476,0 -2.418,0.714 -2.418,2.291c0,0.948 0.27,1.536 0.654,2.088l1.464,-0.648c-0.174,-0.294 -0.366,-0.672 -0.366,-1.02c-0,-0.474 0.228,-0.834 0.906,-0.834l1.722,0l0,2.01l1.662,0Z" style="fill:#f39260;fill-rule:nonzero;"/><path d="M276.287,235.995l-0,-1.871l-3.198,0c-0.75,0 -1.092,-0.408 -1.092,-0.966c-0,-0.565 0.342,-0.967 1.092,-0.967l3.198,0l-0,-1.877l-3.36,0c-1.848,0 -2.682,1.271 -2.682,2.844c0,1.566 0.834,2.837 2.676,2.837l3.366,0Z" style="fill:#f39260;fill-rule:nonzero;"/><path d="M276.449,240.681c-0,-0.72 -0.27,-1.266 -0.84,-1.608l0.678,0l-0,-1.799l-5.886,0l0,1.877l3.18,0c0.732,0 1.062,0.408 1.062,1.074c0,0.336 -0.072,0.69 -0.156,0.942l1.872,0.174c0.042,-0.144 0.09,-0.384 0.09,-0.66Z" style="fill:#f39260;fill-rule:nonzero;"/><path d="M276.449,244.75c-0,-1.788 -1.284,-3.018 -3.138,-3.018c-1.836,0 -3.066,1.254 -3.066,3.102c0,1.086 0.354,1.98 0.966,2.591l1.128,-1.211c-0.336,-0.372 -0.516,-0.846 -0.516,-1.284c-0,-0.649 0.3,-1.105 0.942,-1.261l0,3.99c0.126,0.024 0.39,0.036 0.582,0.036c1.842,-0.006 3.102,-1.199 3.102,-2.945Zm-1.596,0.006c0,0.546 -0.312,0.912 -0.9,1.062l-0,-2.143c0.582,0.144 0.9,0.498 0.9,1.081Z" style="fill:#f39260;fill-rule:nonzero;"/></g></svg>