<?xml version="1.0" encoding="UTF-8" standalone="no"?><!DOCTYPE svg PUBLIC "-//W3C//DTD SVG 1.1//EN" "http://www.w3.org/Graphics/SVG/1.1/DTD/svg11.dtd"><svg width="100%" height="100%" viewBox="0 0 298 420" version="1.1" xmlns="http://www.w3.org/2000/svg" xmlns:xlink="http://www.w3.org/1999/xlink" xml:space="preserve" xmlns:serif="http://www.serif.com/" style="fill-rule:evenodd;clip-rule:evenodd;stroke-linecap:round;"><clipPath id="_clip1"><rect x="-13.701" y="-14.173" width="345.827" height="460.63"/></clipPath><g clip-path="url(#_clip1)"><g id="Ebene-1" serif:id="Ebene 1"><rect x="-13.701" y="-14.173" width="345.827" height="460.63" style="fill:#004153;"/><g><rect x="218.758" y="385.673" width="3.28" height="13.775" style="fill:#fff;"/><path d="M245.758,399.449l-0,-13.776l-3.28,0l-0,8.423l-6.298,-8.423l-3.148,0l-0,8.423l-6.271,-8.423l-3.149,0l-0,13.776l3.28,-0l-0,-8.397l6.271,8.397l3.175,-0l-0,-8.397l6.271,8.397l3.149,-0Z" style="fill:#fff;fill-rule:nonzero;"/><path d="M254.154,388.56c2.23,-0 3.831,1.627 3.831,3.988c-0,2.362 -1.601,3.988 -3.831,3.988c-2.257,0 -3.831,-1.626 -3.831,-3.988c0,-2.361 1.601,-3.988 3.831,-3.988m0,-3.149c-4.251,0 -7.268,3.044 -7.268,7.137c-0,4.093 3.017,7.137 7.268,7.137c4.251,0 7.268,-3.044 7.268,-7.137c0,-4.093 -3.017,-7.137 -7.268,-7.137" style="fill:#fff;fill-rule:nonzero;"/><path d="M269.609,388.56c2.23,-0 3.831,1.627 3.831,3.988c-0,0.446 -0.053,0.866 -0.158,1.26l-0.446,-0.604l-3.568,0l2.177,2.913c-0.524,0.262 -1.154,0.419 -1.81,0.419c-2.23,0 -3.831,-1.626 -3.831,-3.988c-0.026,-2.335 1.574,-3.988 3.805,-3.988m-0,-3.149c-4.251,0 -7.268,3.044 -7.268,7.137c-0,4.093 3.017,7.137 7.268,7.137c1.443,0 2.676,-0.394 3.726,-1.076l0.603,0.814l3.857,-0l-2.178,-2.939c0.761,-1.102 1.207,-2.388 1.207,-3.936c0.053,-4.093 -2.965,-7.137 -7.215,-7.137" style="fill:#f39260;fill-rule:nonzero;"/></g></g></g><g id="Ebene-11" serif:id="Ebene 1"><g transform="matrix(1,0,0,1,126.378,45.1181)"><g transform="matrix(16,0,0,16,-106.535,-13.7561)"><path d="M1.079,-0.7l-0.169,0l-0.134,0.502l-0.14,-0.502l-0.18,0l-0.14,0.501l-0.134,-0.501l-0.172,0l0.204,0.7l0.199,-0l0.132,-0.451l0.132,0.451l0.199,-0l0.204,-0.7Z" style="fill:#fff;fill-rule:nonzero;"/></g><g transform="matrix(16,0,0,16,-89.1114,-13.7561)"><path d="M0.211,-0.72l-0.156,-0l0,0.72l0.156,-0l0,-0.264c0,-0.064 0.036,-0.093 0.08,-0.093c0.049,-0 0.078,0.032 0.078,0.09l-0,0.267l0.156,-0l-0,-0.322c-0,-0.113 -0.076,-0.182 -0.174,-0.182c-0.061,0 -0.109,0.021 -0.14,0.065l0,-0.281Z" style="fill:#fff;fill-rule:nonzero;"/></g><g transform="matrix(16,0,0,16,-79.8874,-13.7561)"><path d="M0.549,-0.49l-0.151,-0l0,0.053c-0.029,-0.039 -0.074,-0.067 -0.141,-0.067c-0.131,0 -0.228,0.114 -0.228,0.258c0,0.145 0.097,0.259 0.228,0.259c0.067,-0 0.112,-0.028 0.141,-0.066l0,0.053l0.151,-0l0,-0.49Zm-0.254,0.132c0.061,-0 0.105,0.047 0.105,0.113c-0,0.065 -0.044,0.112 -0.105,0.112c-0.063,0 -0.105,-0.048 -0.105,-0.112c-0,-0.065 0.042,-0.113 0.105,-0.113Z" style="fill:#fff;fill-rule:nonzero;"/></g><g transform="matrix(16,0,0,16,-70.2234,-13.7561)"><path d="M0.432,-0.49l-0.168,-0l0,-0.143l-0.156,-0l0,0.143l-0.091,-0l-0,0.138l0.091,-0l0,0.164c0,0.123 0.06,0.201 0.191,0.201c0.079,-0 0.128,-0.023 0.174,-0.055l-0.054,-0.121c-0.025,0.014 -0.056,0.03 -0.085,0.03c-0.04,0 -0.07,-0.019 -0.07,-0.075l0,-0.144l0.168,-0l-0,-0.138Z" style="fill:#fff;fill-rule:nonzero;"/></g><g transform="matrix(16,0,0,16,-59.0394,-13.7561)"><path d="M0.527,-0.49l-0.157,-0l-0.099,0.311l-0.095,-0.311l-0.166,-0l0.169,0.49l0.174,-0l0.094,-0.293l0.096,0.293l0.174,-0l0.169,-0.49l-0.164,-0l-0.096,0.312l-0.1,-0.312Z" style="fill:#fff;fill-rule:nonzero;"/></g><g transform="matrix(16,0,0,16,-45.0314,-13.7561)"><path d="M0.295,-0.504c-0.153,0 -0.266,0.11 -0.266,0.259c0,0.148 0.113,0.258 0.266,0.258c0.154,-0 0.266,-0.11 0.266,-0.258c0,-0.149 -0.112,-0.259 -0.266,-0.259Zm-0,0.146c0.062,-0 0.107,0.046 0.107,0.113c-0,0.066 -0.045,0.112 -0.107,0.112c-0.061,0 -0.106,-0.046 -0.106,-0.112c-0,-0.067 0.045,-0.113 0.106,-0.113Z" style="fill:#fff;fill-rule:nonzero;"/></g><g transform="matrix(16,0,0,16,-35.5834,-13.7561)"><path d="M0.525,-0.49l-0.156,-0l0,0.266c0,0.063 -0.034,0.091 -0.081,0.091c-0.047,0 -0.08,-0.028 -0.08,-0.091l-0,-0.266l-0.156,-0l-0,0.28c-0,0.153 0.105,0.223 0.236,0.223c0.131,-0 0.237,-0.07 0.237,-0.223l-0,-0.28Z" style="fill:#fff;fill-rule:nonzero;"/></g><g transform="matrix(16,0,0,16,-26.3594,-13.7561)"><rect x="0.055" y="-0.72" width="0.156" height="0.72" style="fill:#fff;fill-rule:nonzero;"/></g><g transform="matrix(16,0,0,16,-22.1034,-13.7561)"><path d="M0.257,-0.504c-0.131,0 -0.228,0.114 -0.228,0.258c0,0.145 0.097,0.259 0.228,0.259c0.067,-0 0.112,-0.028 0.141,-0.066l0,0.053l0.151,-0l-0,-0.72l-0.156,0l0,0.277c-0.029,-0.036 -0.073,-0.061 -0.136,-0.061Zm0.038,0.146c0.061,-0 0.105,0.047 0.105,0.112c-0,0.066 -0.044,0.113 -0.105,0.113c-0.063,0 -0.105,-0.048 -0.105,-0.112c-0,-0.065 0.042,-0.113 0.105,-0.113Z" style="fill:#fff;fill-rule:nonzero;"/></g><g transform="matrix(16,0,0,16,73.0437,-13.7561)"><path d="M0.257,-0.504c-0.131,0 -0.228,0.114 -0.228,0.258c0,0.145 0.097,0.259 0.228,0.259c0.067,-0 0.112,-0.028 0.141,-0.066l0,0.053l0.151,-0l-0,-0.72l-0.156,0l0,0.277c-0.029,-0.036 -0.073,-0.061 -0.136,-0.061Zm0.038,0.146c0.061,-0 0.105,0.047 0.105,0.112c-0,0.066 -0.044,0.113 -0.105,0.113c-0.063,0 -0.105,-0.048 -0.105,-0.112c-0,-0.065 0.042,-0.113 0.105,-0.113Z" style="fill:#fff;fill-rule:nonzero;"/></g><g transform="matrix(16,0,0,16,82.6997,-13.7561)"><path d="M0.295,-0.504c-0.153,0 -0.266,0.11 -0.266,0.259c0,0.148 0.113,0.258 0.266,0.258c0.154,-0 0.266,-0.11 0.266,-0.258c0,-0.149 -0.112,-0.259 -0.266,-0.259Zm-0,0.146c0.062,-0 0.107,0.046 0.107,0.113c-0,0.066 -0.045,0.112 -0.107,0.112c-0.061,0 -0.106,-0.046 -0.106,-0.112c-0,-0.067 0.045,-0.113 0.106,-0.113Z" style="fill:#fff;fill-rule:nonzero;"/></g><g transform="matrix(16,0,0,16,92.1477,-13.7561)"><path d="M0.222,-0.247l0.004,-0.052c0.13,-0.025 0.203,-0.098 0.203,-0.209c-0,-0.126 -0.101,-0.206 -0.275,-0.206c-0.039,0 -0.077,0.003 -0.107,0.007l0.009,0.155c0.02,-0.002 0.047,-0.004 0.072,-0.004c0.085,0.001 0.129,0.022 0.129,0.064c-0,0.044 -0.044,0.066 -0.13,0.066l-0.051,0l0,0.179l0.146,-0Zm-0.073,0.053c-0.055,0 -0.103,0.048 -0.103,0.103c-0,0.056 0.048,0.104 0.103,0.104c0.055,-0 0.103,-0.049 0.103,-0.104c-0,-0.055 -0.048,-0.103 -0.103,-0.103Z" style="fill:#fff;fill-rule:nonzero;"/></g><g transform="matrix(12,0,0,12,-106.535,9.14785)"><path d="M0.411,-0.7l-0.109,0l-0.285,0.7l0.092,-0l0.076,-0.191l0.34,-0l0.077,0.191l0.095,-0l-0.285,-0.7Zm-0.056,0.087l0.136,0.339l-0.273,-0l0.137,-0.339Z" style="fill:#fff;fill-rule:nonzero;"/></g><g transform="matrix(12,0,0,12,-97.8474,9.14785)"><path d="M0.306,-0.485c-0.057,0 -0.106,0.026 -0.139,0.072l-0,-0.062l-0.08,0l-0,0.475l0.081,-0l-0,-0.264c-0,-0.088 0.051,-0.144 0.123,-0.144c0.027,0 0.059,0.007 0.082,0.019l0.02,-0.08c-0.026,-0.011 -0.053,-0.016 -0.087,-0.016Z" style="fill:#fff;fill-rule:nonzero;"/></g><g transform="matrix(12,0,0,12,-92.9394,9.14785)"><path d="M0.287,-0.485c-0.137,0 -0.236,0.101 -0.236,0.247c-0,0.149 0.099,0.248 0.241,0.248c0.07,-0 0.136,-0.017 0.194,-0.072l-0.043,-0.056c-0.04,0.035 -0.091,0.057 -0.146,0.057c-0.082,-0 -0.151,-0.049 -0.162,-0.148l0.373,0c0.001,-0.009 0.002,-0.02 0.002,-0.03c-0.001,-0.146 -0.094,-0.246 -0.223,-0.246Zm-0.002,0.072c0.077,0 0.132,0.054 0.142,0.139l-0.291,-0c0.012,-0.082 0.065,-0.139 0.149,-0.139Z" style="fill:#fff;fill-rule:nonzero;"/></g><g transform="matrix(12,0,0,12,-82.9854,9.14785)"><path d="M0.525,-0.475l-0.09,0l-0.163,0.292l-0.171,-0.292l-0.091,0l0.217,0.373l-0.176,0.304l0.09,0l0.384,-0.677Z" style="fill:#fff;fill-rule:nonzero;"/></g><g transform="matrix(12,0,0,12,-76.5834,9.14785)"><path d="M0.301,-0.485c-0.144,0 -0.25,0.106 -0.25,0.247c-0,0.142 0.106,0.248 0.25,0.248c0.145,-0 0.252,-0.106 0.252,-0.248c-0,-0.141 -0.107,-0.247 -0.252,-0.247Zm0,0.077c0.096,-0 0.168,0.071 0.168,0.17c0,0.1 -0.072,0.172 -0.168,0.172c-0.095,-0 -0.167,-0.072 -0.167,-0.172c-0,-0.099 0.072,-0.17 0.167,-0.17Z" style="fill:#fff;fill-rule:nonzero;"/></g><g transform="matrix(12,0,0,12,-69.2214,9.14785)"><path d="M0.515,-0.475l-0.082,0l0,0.269c0,0.097 -0.057,0.14 -0.135,0.14c-0.077,-0 -0.135,-0.043 -0.135,-0.14l0,-0.269l-0.081,0l-0,0.276c-0,0.144 0.102,0.209 0.216,0.209c0.114,-0 0.217,-0.065 0.217,-0.209l-0,-0.276Z" style="fill:#fff;fill-rule:nonzero;"/></g><g transform="matrix(12,0,0,12,-58.6134,9.14785)"><path d="M0.442,-0.433c-0.046,-0.031 -0.114,-0.051 -0.19,-0.051c-0.115,-0 -0.19,0.054 -0.19,0.145c-0,0.072 0.051,0.121 0.157,0.134l0.056,0.006c0.064,0.008 0.095,0.03 0.095,0.065c0,0.047 -0.048,0.073 -0.126,0.073c-0.08,-0 -0.127,-0.023 -0.162,-0.051l-0.038,0.061c0.062,0.047 0.141,0.061 0.199,0.061c0.13,-0 0.211,-0.058 0.211,-0.149c-0,-0.078 -0.059,-0.121 -0.16,-0.135l-0.056,-0.007c-0.057,-0.007 -0.092,-0.024 -0.092,-0.062c0,-0.043 0.042,-0.071 0.107,-0.071c0.063,0 0.124,0.024 0.154,0.044l0.035,-0.063Z" style="fill:#fff;fill-rule:nonzero;"/></g><g transform="matrix(12,0,0,12,-52.5294,9.14785)"><path d="M0.409,-0.475l-0.2,0l0,-0.149l-0.081,0l-0,0.149l-0.102,0l0,0.074l0.102,0l-0,0.234c-0,0.121 0.061,0.177 0.164,0.177c0.058,-0 0.106,-0.021 0.142,-0.047l-0.038,-0.061c-0.027,0.018 -0.062,0.032 -0.097,0.032c-0.052,-0 -0.09,-0.031 -0.09,-0.103l0,-0.232l0.2,0l-0,-0.074Z" style="fill:#fff;fill-rule:nonzero;"/></g><g transform="matrix(12,0,0,12,-46.9674,9.14785)"><path d="M0.515,-0.475l-0.082,0l0,0.269c0,0.097 -0.057,0.14 -0.135,0.14c-0.077,-0 -0.135,-0.043 -0.135,-0.14l0,-0.269l-0.081,0l-0,0.276c-0,0.144 0.102,0.209 0.216,0.209c0.114,-0 0.217,-0.065 0.217,-0.209l-0,-0.276Z" style="fill:#fff;fill-rule:nonzero;"/></g><g transform="matrix(12,0,0,12,-39.6894,9.14785)"><path d="M0.297,-0.485c-0.147,0 -0.246,0.106 -0.246,0.247c-0,0.142 0.099,0.248 0.246,0.248c0.07,-0 0.133,-0.026 0.176,-0.074l-0.05,-0.057c-0.033,0.032 -0.078,0.055 -0.128,0.055c-0.092,-0 -0.161,-0.072 -0.161,-0.172c-0,-0.099 0.069,-0.17 0.161,-0.17c0.05,-0 0.091,0.019 0.126,0.053l0.052,-0.055c-0.042,-0.049 -0.106,-0.075 -0.176,-0.075Z" style="fill:#fff;fill-rule:nonzero;"/></g><g transform="matrix(12,0,0,12,-33.4194,9.14785)"><path d="M0.168,-0.72l-0.081,0l-0,0.72l0.081,-0l-0,-0.211l0.064,-0l0.18,0.211l0.103,-0l-0.215,-0.251l0.212,-0.224l-0.103,0l-0.176,0.19l-0.065,0l-0,-0.435Z" style="fill:#fff;fill-rule:nonzero;"/></g><g transform="matrix(12,0,0,12,-23.6754,9.14785)"><path d="M0.301,-0.485c-0.144,0 -0.25,0.106 -0.25,0.247c-0,0.142 0.106,0.248 0.25,0.248c0.145,-0 0.252,-0.106 0.252,-0.248c-0,-0.141 -0.107,-0.247 -0.252,-0.247Zm0,0.077c0.096,-0 0.168,0.071 0.168,0.17c0,0.1 -0.072,0.172 -0.168,0.172c-0.095,-0 -0.167,-0.072 -0.167,-0.172c-0,-0.099 0.072,-0.17 0.167,-0.17Z" style="fill:#fff;fill-rule:nonzero;"/></g><g transform="matrix(12,0,0,12,-16.3134,9.14785)"><path d="M0.323,-0.485c-0.055,0 -0.117,0.019 -0.156,0.072l0,-0.062l-0.08,0l-0,0.475l0.081,-0l-0,-0.266c-0,-0.089 0.064,-0.142 0.141,-0.142c0.082,0 0.13,0.052 0.13,0.139l0,0.269l0.082,-0l-0,-0.295c-0,-0.114 -0.081,-0.19 -0.198,-0.19Z" style="fill:#fff;fill-rule:nonzero;"/></g><g transform="matrix(12,0,0,12,-5.63343,9.14785)"><path d="M0.537,-0.475l-0.081,0l-0,0.064c-0.038,-0.045 -0.093,-0.074 -0.168,-0.074c-0.134,0 -0.237,0.104 -0.237,0.247c-0,0.144 0.103,0.248 0.237,0.248c0.075,-0 0.13,-0.029 0.168,-0.073l-0,0.063l0.081,-0l0,-0.475Zm-0.239,0.067c0.096,-0 0.163,0.073 0.163,0.17c-0,0.098 -0.067,0.172 -0.163,0.172c-0.098,-0 -0.164,-0.077 -0.164,-0.172c-0,-0.094 0.064,-0.17 0.164,-0.17Z" style="fill:#fff;fill-rule:nonzero;"/></g><g transform="matrix(12,0,0,12,5.30457,9.14785)"><path d="M0.336,-0.485c-0.076,0 -0.131,0.029 -0.168,0.073l-0,-0.063l-0.081,0l-0,0.675l0.081,-0l-0,-0.263c0.037,0.044 0.092,0.073 0.168,0.073c0.133,-0 0.237,-0.104 0.237,-0.247c-0,-0.144 -0.104,-0.248 -0.237,-0.248Zm-0.01,0.077c0.097,-0 0.163,0.076 0.163,0.17c0,0.095 -0.064,0.172 -0.163,0.172c-0.096,-0 -0.163,-0.074 -0.163,-0.172c-0,-0.097 0.067,-0.17 0.163,-0.17Z" style="fill:#fff;fill-rule:nonzero;"/></g><g transform="matrix(12,0,0,12,12.9066,9.14785)"><path d="M0.306,-0.485c-0.057,0 -0.106,0.026 -0.139,0.072l-0,-0.062l-0.08,0l-0,0.475l0.081,-0l-0,-0.264c-0,-0.088 0.051,-0.144 0.123,-0.144c0.027,0 0.059,0.007 0.082,0.019l0.02,-0.08c-0.026,-0.011 -0.053,-0.016 -0.087,-0.016Z" style="fill:#fff;fill-rule:nonzero;"/></g><g transform="matrix(12,0,0,12,17.8146,9.14785)"><path d="M0.301,-0.485c-0.144,0 -0.25,0.106 -0.25,0.247c-0,0.142 0.106,0.248 0.25,0.248c0.145,-0 0.252,-0.106 0.252,-0.248c-0,-0.141 -0.107,-0.247 -0.252,-0.247Zm0,0.077c0.096,-0 0.168,0.071 0.168,0.17c0,0.1 -0.072,0.172 -0.168,0.172c-0.095,-0 -0.167,-0.072 -0.167,-0.172c-0,-0.099 0.072,-0.17 0.167,-0.17Z" style="fill:#fff;fill-rule:nonzero;"/></g><g transform="matrix(12,0,0,12,25.1766,9.14785)"><path d="M0.336,-0.485c-0.076,0 -0.131,0.029 -0.168,0.073l-0,-0.308l-0.081,0l-0,0.72l0.081,-0l-0,-0.064c0.037,0.045 0.092,0.074 0.168,0.074c0.133,-0 0.237,-0.104 0.237,-0.248c-0,-0.143 -0.104,-0.247 -0.237,-0.247Zm-0.01,0.077c0.097,-0 0.163,0.076 0.163,0.17c0,0.095 -0.064,0.172 -0.163,0.172c-0.096,-0 -0.163,-0.074 -0.163,-0.172c-0,-0.097 0.067,-0.17 0.163,-0.17Z" style="fill:#fff;fill-rule:nonzero;"/></g><g transform="matrix(12,0,0,12,32.7786,9.14785)"><rect x="0.087" y="-0.72" width="0.081" height="0.72" style="fill:#fff;fill-rule:nonzero;"/></g><g transform="matrix(12,0,0,12,35.9526,9.14785)"><path d="M0.287,-0.485c-0.137,0 -0.236,0.101 -0.236,0.247c-0,0.149 0.099,0.248 0.241,0.248c0.07,-0 0.136,-0.017 0.194,-0.072l-0.043,-0.056c-0.04,0.035 -0.091,0.057 -0.146,0.057c-0.082,-0 -0.151,-0.049 -0.162,-0.148l0.373,0c0.001,-0.009 0.002,-0.02 0.002,-0.03c-0.001,-0.146 -0.094,-0.246 -0.223,-0.246Zm-0.002,0.072c0.077,0 0.132,0.054 0.142,0.139l-0.291,-0c0.012,-0.082 0.065,-0.139 0.149,-0.139Z" style="fill:#fff;fill-rule:nonzero;"/></g><g transform="matrix(12,0,0,12,42.7986,9.14785)"><path d="M0.676,-0.485c-0.065,0 -0.139,0.024 -0.178,0.095c-0.031,-0.059 -0.094,-0.095 -0.175,-0.095c-0.055,0 -0.117,0.019 -0.156,0.072l0,-0.062l-0.08,0l-0,0.475l0.081,-0l-0,-0.266c-0,-0.089 0.064,-0.142 0.141,-0.142c0.082,0 0.13,0.052 0.13,0.139l0,0.269l0.082,-0l-0,-0.267c-0,-0.086 0.061,-0.141 0.14,-0.141c0.083,0 0.131,0.052 0.131,0.139l-0,0.269l0.081,-0l0,-0.295c0,-0.114 -0.08,-0.19 -0.197,-0.19Z" style="fill:#fff;fill-rule:nonzero;"/></g><g transform="matrix(12,0,0,12,54.3786,9.14785)"><path d="M0.177,-0.225l0.004,-0.082c0.145,-0.016 0.226,-0.088 0.226,-0.205c0,-0.122 -0.099,-0.201 -0.262,-0.201c-0.026,0 -0.06,0.003 -0.082,0.006l0.007,0.084c0.019,-0.002 0.045,-0.004 0.071,-0.004c0.109,-0 0.175,0.044 0.175,0.118c0,0.08 -0.065,0.127 -0.178,0.127l-0.035,-0l0,0.157l0.074,0Zm-0.037,0.098c-0.036,0 -0.068,0.032 -0.068,0.068c-0,0.037 0.032,0.069 0.068,0.069c0.036,-0 0.068,-0.032 0.068,-0.069c-0,-0.036 -0.032,-0.068 -0.068,-0.068Z" style="fill:#fff;fill-rule:nonzero;"/></g><g transform="matrix(12,0,0,12,62.9166,9.14785)"><path d="M1.069,-0.7l-0.09,0l-0.188,0.601l-0.191,-0.601l-0.1,-0l-0.192,0.601l-0.187,-0.601l-0.093,0l0.225,0.7l0.108,0l0.188,-0.584l0.187,0.584l0.109,0l0.224,-0.7Z" style="fill:#fff;fill-rule:nonzero;"/></g><g transform="matrix(12,0,0,12,76.2006,9.14785)"><path d="M0.168,-0.72l-0.081,0l-0,0.72l0.081,-0l-0,-0.267c-0,-0.088 0.064,-0.141 0.141,-0.141c0.082,0 0.13,0.052 0.13,0.139l0,0.269l0.082,-0l-0,-0.295c-0,-0.114 -0.081,-0.19 -0.198,-0.19c-0.055,0 -0.116,0.018 -0.155,0.071l-0,-0.306Z" style="fill:#fff;fill-rule:nonzero;"/></g><g transform="matrix(12,0,0,12,83.5506,9.14785)"><path d="M0.537,-0.475l-0.081,0l-0,0.064c-0.038,-0.045 -0.093,-0.074 -0.168,-0.074c-0.134,0 -0.237,0.104 -0.237,0.247c-0,0.144 0.103,0.248 0.237,0.248c0.075,-0 0.13,-0.029 0.168,-0.073l-0,0.063l0.081,-0l0,-0.475Zm-0.239,0.067c0.096,-0 0.163,0.073 0.163,0.17c-0,0.098 -0.067,0.172 -0.163,0.172c-0.098,-0 -0.164,-0.077 -0.164,-0.172c-0,-0.094 0.064,-0.17 0.164,-0.17Z" style="fill:#fff;fill-rule:nonzero;"/></g><g transform="matrix(12,0,0,12,91.1586,9.14785)"><path d="M0.409,-0.475l-0.2,0l0,-0.149l-0.081,0l-0,0.149l-0.102,0l0,0.074l0.102,0l-0,0.234c-0,0.121 0.061,0.177 0.164,0.177c0.058,-0 0.106,-0.021 0.142,-0.047l-0.038,-0.061c-0.027,0.018 -0.062,0.032 -0.097,0.032c-0.052,-0 -0.09,-0.031 -0.09,-0.103l0,-0.232l0.2,0l-0,-0.074Z" style="fill:#fff;fill-rule:nonzero;"/></g><g transform="matrix(12,0,0,12,99.9606,9.14785)"><path d="M0.471,-0.475l-0.093,0l-0.135,0.388l-0.135,-0.388l-0.087,0l0.171,0.475l0.096,-0l0.135,-0.386l0.136,0.386l0.098,-0l0.171,-0.475l-0.086,0l-0.135,0.389l-0.136,-0.389Z" style="fill:#fff;fill-rule:nonzero;"/></g><g transform="matrix(12,0,0,12,110.263,9.14785)"><path d="M0.301,-0.485c-0.144,0 -0.25,0.106 -0.25,0.247c-0,0.142 0.106,0.248 0.25,0.248c0.145,-0 0.252,-0.106 0.252,-0.248c-0,-0.141 -0.107,-0.247 -0.252,-0.247Zm0,0.077c0.096,-0 0.168,0.071 0.168,0.17c0,0.1 -0.072,0.172 -0.168,0.172c-0.095,-0 -0.167,-0.072 -0.167,-0.172c-0,-0.099 0.072,-0.17 0.167,-0.17Z" style="fill:#fff;fill-rule:nonzero;"/></g><g transform="matrix(12,0,0,12,117.625,9.14785)"><path d="M0.515,-0.475l-0.082,0l0,0.269c0,0.097 -0.057,0.14 -0.135,0.14c-0.077,-0 -0.135,-0.043 -0.135,-0.14l0,-0.269l-0.081,0l-0,0.276c-0,0.144 0.102,0.209 0.216,0.209c0.114,-0 0.217,-0.065 0.217,-0.209l-0,-0.276Z" style="fill:#fff;fill-rule:nonzero;"/></g><g transform="matrix(12,0,0,12,124.903,9.14785)"><rect x="0.087" y="-0.72" width="0.081" height="0.72" style="fill:#fff;fill-rule:nonzero;"/></g><g transform="matrix(12,0,0,12,128.077,9.14785)"><path d="M0.288,-0.485c-0.134,0 -0.237,0.104 -0.237,0.247c-0,0.144 0.103,0.248 0.237,0.248c0.075,-0 0.13,-0.029 0.168,-0.073l-0,0.063l0.081,-0l0,-0.72l-0.081,0l-0,0.309c-0.038,-0.045 -0.093,-0.074 -0.168,-0.074Zm0.01,0.077c0.096,-0 0.163,0.073 0.163,0.17c-0,0.098 -0.067,0.172 -0.163,0.172c-0.098,-0 -0.164,-0.077 -0.164,-0.172c-0,-0.094 0.064,-0.17 0.164,-0.17Z" style="fill:#fff;fill-rule:nonzero;"/></g><g transform="matrix(12,0,0,12,-106.535,23.5478)"><path d="M0.301,-0.485c-0.144,0 -0.25,0.106 -0.25,0.247c-0,0.142 0.106,0.248 0.25,0.248c0.145,-0 0.252,-0.106 0.252,-0.248c-0,-0.141 -0.107,-0.247 -0.252,-0.247Zm0,0.077c0.096,-0 0.168,0.071 0.168,0.17c0,0.1 -0.072,0.172 -0.168,0.172c-0.095,-0 -0.167,-0.072 -0.167,-0.172c-0,-0.099 0.072,-0.17 0.167,-0.17Z" style="fill:#fff;fill-rule:nonzero;"/></g><g transform="matrix(12,0,0,12,-99.1734,23.5478)"><path d="M0.323,-0.485c-0.055,0 -0.117,0.019 -0.156,0.072l0,-0.062l-0.08,0l-0,0.475l0.081,-0l-0,-0.266c-0,-0.089 0.064,-0.142 0.141,-0.142c0.082,0 0.13,0.052 0.13,0.139l0,0.269l0.082,-0l-0,-0.295c-0,-0.114 -0.081,-0.19 -0.198,-0.19Z" style="fill:#fff;fill-rule:nonzero;"/></g><g transform="matrix(12,0,0,12,-91.8234,23.5478)"><path d="M0.287,-0.485c-0.137,0 -0.236,0.101 -0.236,0.247c-0,0.149 0.099,0.248 0.241,0.248c0.07,-0 0.136,-0.017 0.194,-0.072l-0.043,-0.056c-0.04,0.035 -0.091,0.057 -0.146,0.057c-0.082,-0 -0.151,-0.049 -0.162,-0.148l0.373,0c0.001,-0.009 0.002,-0.02 0.002,-0.03c-0.001,-0.146 -0.094,-0.246 -0.223,-0.246Zm-0.002,0.072c0.077,0 0.132,0.054 0.142,0.139l-0.291,-0c0.012,-0.082 0.065,-0.139 0.149,-0.139Z" style="fill:#fff;fill-rule:nonzero;"/></g><g transform="matrix(12,0,0,12,-81.6474,23.5478)"><path d="M0.301,-0.485c-0.144,0 -0.25,0.106 -0.25,0.247c-0,0.142 0.106,0.248 0.25,0.248c0.145,-0 0.252,-0.106 0.252,-0.248c-0,-0.141 -0.107,-0.247 -0.252,-0.247Zm0,0.077c0.096,-0 0.168,0.071 0.168,0.17c0,0.1 -0.072,0.172 -0.168,0.172c-0.095,-0 -0.167,-0.072 -0.167,-0.172c-0,-0.099 0.072,-0.17 0.167,-0.17Z" style="fill:#fff;fill-rule:nonzero;"/></g><g transform="matrix(12,0,0,12,-74.3454,23.5478)"><path d="M0.396,-0.475l-0.183,0l0,-0.081c0,-0.062 0.025,-0.098 0.082,-0.098c0.035,0 0.07,0.013 0.095,0.028l0.03,-0.068c-0.034,-0.021 -0.077,-0.036 -0.131,-0.036c-0.112,0 -0.157,0.074 -0.157,0.174l-0,0.081l-0.106,0l0,0.074l0.106,0l-0,0.401l0.081,-0l0,-0.401l0.183,0l-0,-0.074Z" style="fill:#fff;fill-rule:nonzero;"/></g><g transform="matrix(12,0,0,12,-66.0294,23.5478)"><path d="M0.525,-0.475l-0.09,0l-0.163,0.292l-0.171,-0.292l-0.091,0l0.217,0.373l-0.176,0.304l0.09,0l0.384,-0.677Z" style="fill:#fff;fill-rule:nonzero;"/></g><g transform="matrix(12,0,0,12,-59.6274,23.5478)"><path d="M0.301,-0.485c-0.144,0 -0.25,0.106 -0.25,0.247c-0,0.142 0.106,0.248 0.25,0.248c0.145,-0 0.252,-0.106 0.252,-0.248c-0,-0.141 -0.107,-0.247 -0.252,-0.247Zm0,0.077c0.096,-0 0.168,0.071 0.168,0.17c0,0.1 -0.072,0.172 -0.168,0.172c-0.095,-0 -0.167,-0.072 -0.167,-0.172c-0,-0.099 0.072,-0.17 0.167,-0.17Z" style="fill:#fff;fill-rule:nonzero;"/></g><g transform="matrix(12,0,0,12,-52.2654,23.5478)"><path d="M0.515,-0.475l-0.082,0l0,0.269c0,0.097 -0.057,0.14 -0.135,0.14c-0.077,-0 -0.135,-0.043 -0.135,-0.14l0,-0.269l-0.081,0l-0,0.276c-0,0.144 0.102,0.209 0.216,0.209c0.114,-0 0.217,-0.065 0.217,-0.209l-0,-0.276Z" style="fill:#fff;fill-rule:nonzero;"/></g><g transform="matrix(12,0,0,12,-44.9874,23.5478)"><path d="M0.306,-0.485c-0.057,0 -0.106,0.026 -0.139,0.072l-0,-0.062l-0.08,0l-0,0.475l0.081,-0l-0,-0.264c-0,-0.088 0.051,-0.144 0.123,-0.144c0.027,0 0.059,0.007 0.082,0.019l0.02,-0.08c-0.026,-0.011 -0.053,-0.016 -0.087,-0.016Z" style="fill:#fff;fill-rule:nonzero;"/></g><g transform="matrix(12,0,0,12,-36.6414,23.5478)"><path d="M0.168,-0.475l-0.081,0l-0,0.475l0.081,-0l-0,-0.475Zm-0.041,-0.225c-0.033,-0 -0.058,0.025 -0.058,0.058c0,0.033 0.025,0.057 0.058,0.057c0.032,0 0.058,-0.024 0.058,-0.057c-0,-0.033 -0.026,-0.058 -0.058,-0.058Z" style="fill:#fff;fill-rule:nonzero;"/></g><g transform="matrix(12,0,0,12,-33.4674,23.5478)"><path d="M0.288,-0.485c-0.134,0 -0.237,0.104 -0.237,0.247c-0,0.144 0.103,0.248 0.237,0.248c0.075,-0 0.13,-0.029 0.168,-0.073l-0,0.063l0.081,-0l0,-0.72l-0.081,0l-0,0.309c-0.038,-0.045 -0.093,-0.074 -0.168,-0.074Zm0.01,0.077c0.096,-0 0.163,0.073 0.163,0.17c-0,0.098 -0.067,0.172 -0.163,0.172c-0.098,-0 -0.164,-0.077 -0.164,-0.172c-0,-0.094 0.064,-0.17 0.164,-0.17Z" style="fill:#fff;fill-rule:nonzero;"/></g><g transform="matrix(12,0,0,12,-25.8594,23.5478)"><path d="M0.301,-0.485c-0.144,0 -0.25,0.106 -0.25,0.247c-0,0.142 0.106,0.248 0.25,0.248c0.145,-0 0.252,-0.106 0.252,-0.248c-0,-0.141 -0.107,-0.247 -0.252,-0.247Zm0,0.077c0.096,-0 0.168,0.071 0.168,0.17c0,0.1 -0.072,0.172 -0.168,0.172c-0.095,-0 -0.167,-0.072 -0.167,-0.172c-0,-0.099 0.072,-0.17 0.167,-0.17Z" style="fill:#fff;fill-rule:nonzero;"/></g><g transform="matrix(12,0,0,12,-18.4974,23.5478)"><rect x="0.087" y="-0.72" width="0.081" height="0.72" style="fill:#fff;fill-rule:nonzero;"/></g><g transform="matrix(12,0,0,12,-15.3234,23.5478)"><path d="M0.442,-0.433c-0.046,-0.031 -0.114,-0.051 -0.19,-0.051c-0.115,-0 -0.19,0.054 -0.19,0.145c-0,0.072 0.051,0.121 0.157,0.134l0.056,0.006c0.064,0.008 0.095,0.03 0.095,0.065c0,0.047 -0.048,0.073 -0.126,0.073c-0.08,-0 -0.127,-0.023 -0.162,-0.051l-0.038,0.061c0.062,0.047 0.141,0.061 0.199,0.061c0.13,-0 0.211,-0.058 0.211,-0.149c-0,-0.078 -0.059,-0.121 -0.16,-0.135l-0.056,-0.007c-0.057,-0.007 -0.092,-0.024 -0.092,-0.062c0,-0.043 0.042,-0.071 0.107,-0.071c0.063,0 0.124,0.024 0.154,0.044l0.035,-0.063Z" style="fill:#fff;fill-rule:nonzero;"/></g><g transform="matrix(12,0,0,12,-5.90943,23.5478)"><path d="M0.288,-0.485c-0.134,0 -0.237,0.104 -0.237,0.247c-0,0.144 0.103,0.248 0.237,0.248c0.075,-0 0.13,-0.029 0.168,-0.073l-0,0.063l0.081,-0l0,-0.72l-0.081,0l-0,0.309c-0.038,-0.045 -0.093,-0.074 -0.168,-0.074Zm0.01,0.077c0.096,-0 0.163,0.073 0.163,0.17c-0,0.098 -0.067,0.172 -0.163,0.172c-0.098,-0 -0.164,-0.077 -0.164,-0.172c-0,-0.094 0.064,-0.17 0.164,-0.17Z" style="fill:#fff;fill-rule:nonzero;"/></g><g transform="matrix(12,0,0,12,1.69857,23.5478)"><path d="M0.301,-0.485c-0.144,0 -0.25,0.106 -0.25,0.247c-0,0.142 0.106,0.248 0.25,0.248c0.145,-0 0.252,-0.106 0.252,-0.248c-0,-0.141 -0.107,-0.247 -0.252,-0.247Zm0,0.077c0.096,-0 0.168,0.071 0.168,0.17c0,0.1 -0.072,0.172 -0.168,0.172c-0.095,-0 -0.167,-0.072 -0.167,-0.172c-0,-0.099 0.072,-0.17 0.167,-0.17Z" style="fill:#fff;fill-rule:nonzero;"/></g><g transform="matrix(12,0,0,12,12.3906,23.5478)"><path d="M0.168,-0.475l-0.081,0l-0,0.475l0.081,-0l-0,-0.475Zm-0.041,-0.225c-0.033,-0 -0.058,0.025 -0.058,0.058c0,0.033 0.025,0.057 0.058,0.057c0.032,0 0.058,-0.024 0.058,-0.057c-0,-0.033 -0.026,-0.058 -0.058,-0.058Z" style="fill:#fff;fill-rule:nonzero;"/></g><g transform="matrix(12,0,0,12,15.5646,23.5478)"><path d="M0.323,-0.485c-0.055,0 -0.117,0.019 -0.156,0.072l0,-0.062l-0.08,0l-0,0.475l0.081,-0l-0,-0.266c-0,-0.089 0.064,-0.142 0.141,-0.142c0.082,0 0.13,0.052 0.13,0.139l0,0.269l0.082,-0l-0,-0.295c-0,-0.114 -0.081,-0.19 -0.198,-0.19Z" style="fill:#fff;fill-rule:nonzero;"/></g><g transform="matrix(12,0,0,12,26.0226,23.5478)"><path d="M0.525,-0.475l-0.09,0l-0.163,0.292l-0.171,-0.292l-0.091,0l0.217,0.373l-0.176,0.304l0.09,0l0.384,-0.677Z" style="fill:#fff;fill-rule:nonzero;"/></g><g transform="matrix(12,0,0,12,32.4246,23.5478)"><path d="M0.301,-0.485c-0.144,0 -0.25,0.106 -0.25,0.247c-0,0.142 0.106,0.248 0.25,0.248c0.145,-0 0.252,-0.106 0.252,-0.248c-0,-0.141 -0.107,-0.247 -0.252,-0.247Zm0,0.077c0.096,-0 0.168,0.071 0.168,0.17c0,0.1 -0.072,0.172 -0.168,0.172c-0.095,-0 -0.167,-0.072 -0.167,-0.172c-0,-0.099 0.072,-0.17 0.167,-0.17Z" style="fill:#fff;fill-rule:nonzero;"/></g><g transform="matrix(12,0,0,12,39.7866,23.5478)"><path d="M0.515,-0.475l-0.082,0l0,0.269c0,0.097 -0.057,0.14 -0.135,0.14c-0.077,-0 -0.135,-0.043 -0.135,-0.14l0,-0.269l-0.081,0l-0,0.276c-0,0.144 0.102,0.209 0.216,0.209c0.114,-0 0.217,-0.065 0.217,-0.209l-0,-0.276Z" style="fill:#fff;fill-rule:nonzero;"/></g><g transform="matrix(12,0,0,12,47.0646,23.5478)"><path d="M0.306,-0.485c-0.057,0 -0.106,0.026 -0.139,0.072l-0,-0.062l-0.08,0l-0,0.475l0.081,-0l-0,-0.264c-0,-0.088 0.051,-0.144 0.123,-0.144c0.027,0 0.059,0.007 0.082,0.019l0.02,-0.08c-0.026,-0.011 -0.053,-0.016 -0.087,-0.016Z" style="fill:#fff;fill-rule:nonzero;"/></g><g transform="matrix(12,0,0,12,55.4106,23.5478)"><path d="M0.442,-0.433c-0.046,-0.031 -0.114,-0.051 -0.19,-0.051c-0.115,-0 -0.19,0.054 -0.19,0.145c-0,0.072 0.051,0.121 0.157,0.134l0.056,0.006c0.064,0.008 0.095,0.03 0.095,0.065c0,0.047 -0.048,0.073 -0.126,0.073c-0.08,-0 -0.127,-0.023 -0.162,-0.051l-0.038,0.061c0.062,0.047 0.141,0.061 0.199,0.061c0.13,-0 0.211,-0.058 0.211,-0.149c-0,-0.078 -0.059,-0.121 -0.16,-0.135l-0.056,-0.007c-0.057,-0.007 -0.092,-0.024 -0.092,-0.062c0,-0.043 0.042,-0.071 0.107,-0.071c0.063,0 0.124,0.024 0.154,0.044l0.035,-0.063Z" style="fill:#fff;fill-rule:nonzero;"/></g><g transform="matrix(12,0,0,12,61.4946,23.5478)"><path d="M0.168,-0.475l-0.081,0l-0,0.475l0.081,-0l-0,-0.475Zm-0.041,-0.225c-0.033,-0 -0.058,0.025 -0.058,0.058c0,0.033 0.025,0.057 0.058,0.057c0.032,0 0.058,-0.024 0.058,-0.057c-0,-0.033 -0.026,-0.058 -0.058,-0.058Z" style="fill:#fff;fill-rule:nonzero;"/></g><g transform="matrix(12,0,0,12,64.6686,23.5478)"><path d="M0.409,-0.475l-0.2,0l0,-0.149l-0.081,0l-0,0.149l-0.102,0l0,0.074l0.102,0l-0,0.234c-0,0.121 0.061,0.177 0.164,0.177c0.058,-0 0.106,-0.021 0.142,-0.047l-0.038,-0.061c-0.027,0.018 -0.062,0.032 -0.097,0.032c-0.052,-0 -0.09,-0.031 -0.09,-0.103l0,-0.232l0.2,0l-0,-0.074Z" style="fill:#fff;fill-rule:nonzero;"/></g><g transform="matrix(12,0,0,12,70.2306,23.5478)"><path d="M0.515,-0.475l-0.082,0l0,0.269c0,0.097 -0.057,0.14 -0.135,0.14c-0.077,-0 -0.135,-0.043 -0.135,-0.14l0,-0.269l-0.081,0l-0,0.276c-0,0.144 0.102,0.209 0.216,0.209c0.114,-0 0.217,-0.065 0.217,-0.209l-0,-0.276Z" style="fill:#fff;fill-rule:nonzero;"/></g><g transform="matrix(12,0,0,12,77.5086,23.5478)"><path d="M0.537,-0.475l-0.081,0l-0,0.064c-0.038,-0.045 -0.093,-0.074 -0.168,-0.074c-0.134,0 -0.237,0.104 -0.237,0.247c-0,0.144 0.103,0.248 0.237,0.248c0.075,-0 0.13,-0.029 0.168,-0.073l-0,0.063l0.081,-0l0,-0.475Zm-0.239,0.067c0.096,-0 0.163,0.073 0.163,0.17c-0,0.098 -0.067,0.172 -0.163,0.172c-0.098,-0 -0.164,-0.077 -0.164,-0.172c-0,-0.094 0.064,-0.17 0.164,-0.17Z" style="fill:#fff;fill-rule:nonzero;"/></g><g transform="matrix(12,0,0,12,85.1166,23.5478)"><path d="M0.409,-0.475l-0.2,0l0,-0.149l-0.081,0l-0,0.149l-0.102,0l0,0.074l0.102,0l-0,0.234c-0,0.121 0.061,0.177 0.164,0.177c0.058,-0 0.106,-0.021 0.142,-0.047l-0.038,-0.061c-0.027,0.018 -0.062,0.032 -0.097,0.032c-0.052,-0 -0.09,-0.031 -0.09,-0.103l0,-0.232l0.2,0l-0,-0.074Z" style="fill:#fff;fill-rule:nonzero;"/></g><g transform="matrix(12,0,0,12,90.6786,23.5478)"><path d="M0.168,-0.475l-0.081,0l-0,0.475l0.081,-0l-0,-0.475Zm-0.041,-0.225c-0.033,-0 -0.058,0.025 -0.058,0.058c0,0.033 0.025,0.057 0.058,0.057c0.032,0 0.058,-0.024 0.058,-0.057c-0,-0.033 -0.026,-0.058 -0.058,-0.058Z" style="fill:#fff;fill-rule:nonzero;"/></g><g transform="matrix(12,0,0,12,93.8526,23.5478)"><path d="M0.301,-0.485c-0.144,0 -0.25,0.106 -0.25,0.247c-0,0.142 0.106,0.248 0.25,0.248c0.145,-0 0.252,-0.106 0.252,-0.248c-0,-0.141 -0.107,-0.247 -0.252,-0.247Zm0,0.077c0.096,-0 0.168,0.071 0.168,0.17c0,0.1 -0.072,0.172 -0.168,0.172c-0.095,-0 -0.167,-0.072 -0.167,-0.172c-0,-0.099 0.072,-0.17 0.167,-0.17Z" style="fill:#fff;fill-rule:nonzero;"/></g><g transform="matrix(12,0,0,12,101.215,23.5478)"><path d="M0.323,-0.485c-0.055,0 -0.117,0.019 -0.156,0.072l0,-0.062l-0.08,0l-0,0.475l0.081,-0l-0,-0.266c-0,-0.089 0.064,-0.142 0.141,-0.142c0.082,0 0.13,0.052 0.13,0.139l0,0.269l0.082,-0l-0,-0.295c-0,-0.114 -0.081,-0.19 -0.198,-0.19Z" style="fill:#fff;fill-rule:nonzero;"/></g><g transform="matrix(12,0,0,12,111.805,23.5478)"><path d="M0.409,-0.475l-0.2,0l0,-0.149l-0.081,0l-0,0.149l-0.102,0l0,0.074l0.102,0l-0,0.234c-0,0.121 0.061,0.177 0.164,0.177c0.058,-0 0.106,-0.021 0.142,-0.047l-0.038,-0.061c-0.027,0.018 -0.062,0.032 -0.097,0.032c-0.052,-0 -0.09,-0.031 -0.09,-0.103l0,-0.232l0.2,0l-0,-0.074Z" style="fill:#fff;fill-rule:nonzero;"/></g><g transform="matrix(12,0,0,12,117.355,23.5478)"><path d="M0.301,-0.485c-0.144,0 -0.25,0.106 -0.25,0.247c-0,0.142 0.106,0.248 0.25,0.248c0.145,-0 0.252,-0.106 0.252,-0.248c-0,-0.141 -0.107,-0.247 -0.252,-0.247Zm0,0.077c0.096,-0 0.168,0.071 0.168,0.17c0,0.1 -0.072,0.172 -0.168,0.172c-0.095,-0 -0.167,-0.072 -0.167,-0.172c-0,-0.099 0.072,-0.17 0.167,-0.17Z" style="fill:#fff;fill-rule:nonzero;"/></g><g transform="matrix(12,0,0,12,-106.535,37.9478)"><path d="M0.676,-0.485c-0.065,0 -0.139,0.024 -0.178,0.095c-0.031,-0.059 -0.094,-0.095 -0.175,-0.095c-0.055,0 -0.117,0.019 -0.156,0.072l0,-0.062l-0.08,0l-0,0.475l0.081,-0l-0,-0.266c-0,-0.089 0.064,-0.142 0.141,-0.142c0.082,0 0.13,0.052 0.13,0.139l0,0.269l0.082,-0l-0,-0.267c-0,-0.086 0.061,-0.141 0.14,-0.141c0.083,0 0.131,0.052 0.131,0.139l-0,0.269l0.081,-0l0,-0.295c0,-0.114 -0.08,-0.19 -0.197,-0.19Z" style="fill:#fff;fill-rule:nonzero;"/></g><g transform="matrix(12,0,0,12,-94.9554,37.9478)"><path d="M0.301,-0.485c-0.144,0 -0.25,0.106 -0.25,0.247c-0,0.142 0.106,0.248 0.25,0.248c0.145,-0 0.252,-0.106 0.252,-0.248c-0,-0.141 -0.107,-0.247 -0.252,-0.247Zm0,0.077c0.096,-0 0.168,0.071 0.168,0.17c0,0.1 -0.072,0.172 -0.168,0.172c-0.095,-0 -0.167,-0.072 -0.167,-0.172c-0,-0.099 0.072,-0.17 0.167,-0.17Z" style="fill:#fff;fill-rule:nonzero;"/></g><g transform="matrix(12,0,0,12,-87.6714,37.9478)"><path d="M0.509,-0.475l-0.087,0l-0.159,0.392l-0.16,-0.392l-0.089,0l0.2,0.475l0.096,0l0.199,-0.475Z" style="fill:#fff;fill-rule:nonzero;"/></g><g transform="matrix(12,0,0,12,-81.3474,37.9478)"><path d="M0.287,-0.485c-0.137,0 -0.236,0.101 -0.236,0.247c-0,0.149 0.099,0.248 0.241,0.248c0.07,-0 0.136,-0.017 0.194,-0.072l-0.043,-0.056c-0.04,0.035 -0.091,0.057 -0.146,0.057c-0.082,-0 -0.151,-0.049 -0.162,-0.148l0.373,0c0.001,-0.009 0.002,-0.02 0.002,-0.03c-0.001,-0.146 -0.094,-0.246 -0.223,-0.246Zm-0.002,0.072c0.077,0 0.132,0.054 0.142,0.139l-0.291,-0c0.012,-0.082 0.065,-0.139 0.149,-0.139Z" style="fill:#fff;fill-rule:nonzero;"/></g><g transform="matrix(12,0,0,12,-71.1714,37.9478)"><path d="M0.301,-0.485c-0.144,0 -0.25,0.106 -0.25,0.247c-0,0.142 0.106,0.248 0.25,0.248c0.145,-0 0.252,-0.106 0.252,-0.248c-0,-0.141 -0.107,-0.247 -0.252,-0.247Zm0,0.077c0.096,-0 0.168,0.071 0.168,0.17c0,0.1 -0.072,0.172 -0.168,0.172c-0.095,-0 -0.167,-0.072 -0.167,-0.172c-0,-0.099 0.072,-0.17 0.167,-0.17Z" style="fill:#fff;fill-rule:nonzero;"/></g><g transform="matrix(12,0,0,12,-63.8094,37.9478)"><path d="M0.323,-0.485c-0.055,0 -0.117,0.019 -0.156,0.072l0,-0.062l-0.08,0l-0,0.475l0.081,-0l-0,-0.266c-0,-0.089 0.064,-0.142 0.141,-0.142c0.082,0 0.13,0.052 0.13,0.139l0,0.269l0.082,-0l-0,-0.295c-0,-0.114 -0.081,-0.19 -0.198,-0.19Z" style="fill:#fff;fill-rule:nonzero;"/></g><g transform="matrix(12,0,0,12,-56.4594,37.9478)"><path d="M0.177,-0.225l0.004,-0.082c0.145,-0.016 0.226,-0.088 0.226,-0.205c0,-0.122 -0.099,-0.201 -0.262,-0.201c-0.026,0 -0.06,0.003 -0.082,0.006l0.007,0.084c0.019,-0.002 0.045,-0.004 0.071,-0.004c0.109,-0 0.175,0.044 0.175,0.118c0,0.08 -0.065,0.127 -0.178,0.127l-0.035,-0l0,0.157l0.074,0Zm-0.037,0.098c-0.036,0 -0.068,0.032 -0.068,0.068c-0,0.037 0.032,0.069 0.068,0.069c0.036,-0 0.068,-0.032 0.068,-0.069c-0,-0.036 -0.032,-0.068 -0.068,-0.068Z" style="fill:#fff;fill-rule:nonzero;"/></g></g><path d="M117.523,32.779l78.307,0" style="fill:none;fill-rule:nonzero;stroke:#fff;stroke-width:1.5px;"/><path d="M284.539,334.349c0,-6.623 -5.377,-12 -12,-12l-148.57,0c-6.623,0 -12,5.377 -12,12l-0,16.758c-0,6.623 5.377,12 12,12l148.57,0c6.623,0 12,-5.377 12,-12l0,-16.758Z" style="fill:#fff;"/><path d="M119.506,313.015l-1.21,-0l-2.111,4.702l-2.111,-4.702l-1.21,-0l0,6.304l0.792,-0l-0,-5.386l2.11,4.706l0.838,0l2.11,-4.742l0,5.422l0.792,-0l-0,-6.304Z" style="fill:#fff;fill-rule:nonzero;"/><path d="M125.131,315.044l-0.81,0l-1.462,2.628l-1.539,-2.628l-0.824,0l1.949,3.362l-1.58,2.735l0.815,0l3.451,-6.097Z" style="fill:#fff;fill-rule:nonzero;"/><path d="M128.911,315.044l-0.733,0l-0,4.275l0.733,-0l-0,-4.275Zm-0.373,-2.029c-0.293,-0 -0.518,0.229 -0.518,0.526c0,0.293 0.225,0.513 0.518,0.513c0.292,0 0.526,-0.22 0.526,-0.513c-0,-0.297 -0.234,-0.526 -0.526,-0.526Z" style="fill:#fff;fill-rule:nonzero;"/><path d="M132.281,314.954c-1.201,0 -2.137,0.936 -2.137,2.228c0,1.291 0.936,2.227 2.137,2.227c0.671,-0 1.171,-0.261 1.508,-0.661l0,0.571l0.738,-0l-0,-6.48l-0.738,0l0,2.781c-0.337,-0.405 -0.837,-0.666 -1.508,-0.666Zm0.086,0.693c0.864,-0 1.467,0.661 1.467,1.534c0,0.878 -0.603,1.54 -1.467,1.54c-0.878,-0 -1.472,-0.689 -1.472,-1.539c0,-0.851 0.581,-1.535 1.472,-1.535Z" style="fill:#fff;fill-rule:nonzero;"/><path d="M138.019,314.954c-1.296,0 -2.259,0.958 -2.259,2.228c0,1.269 0.963,2.227 2.259,2.227c1.296,-0 2.263,-0.958 2.263,-2.227c0,-1.27 -0.967,-2.228 -2.263,-2.228Zm-0,0.693c0.855,-0 1.508,0.639 1.508,1.535c-0,0.895 -0.653,1.539 -1.508,1.539c-0.86,-0 -1.508,-0.644 -1.508,-1.539c0,-0.896 0.648,-1.535 1.508,-1.535Z" style="fill:#fff;fill-rule:nonzero;"/><rect x="141.516" y="312.839" width="0.733" height="6.479" style="fill:#fff;fill-rule:nonzero;"/><path d="M144.211,314.954c-0.328,0 -0.616,0.284 -0.616,0.612c-0,0.333 0.288,0.621 0.616,0.621c0.328,-0 0.612,-0.288 0.612,-0.621c-0,-0.328 -0.284,-0.612 -0.612,-0.612Zm0,3.218c-0.328,-0 -0.616,0.283 -0.616,0.616c-0,0.329 0.288,0.621 0.616,0.621c0.328,-0 0.612,-0.292 0.612,-0.621c-0,-0.333 -0.284,-0.616 -0.612,-0.616Z" style="fill:#fff;fill-rule:nonzero;"/><path d="M48.504,271.037c-15.829,0 -28.661,-10.519 -28.661,-23.493l-0,-117.468c-0,-12.975 12.832,-23.493 28.661,-23.493l200.63,-0c15.829,-0 28.661,10.518 28.661,23.493l0,117.468c0,12.974 -12.832,23.493 -28.661,23.493l-58.929,0l-77.67,23.766l21.953,-23.766l-85.984,0Z" style="fill:#fff;fill-rule:nonzero;"/><path d="M22.515,394.4c-1.323,0 -2.218,0.958 -2.218,2.228c0,1.269 0.895,2.227 2.218,2.227c0.635,-0 1.202,-0.234 1.589,-0.67l-0.455,-0.509c-0.297,0.288 -0.697,0.491 -1.152,0.491c-0.823,-0 -1.449,-0.644 -1.449,-1.539c0,-0.896 0.626,-1.535 1.449,-1.535c0.455,-0 0.819,0.175 1.134,0.481l0.473,-0.499c-0.383,-0.441 -0.954,-0.675 -1.589,-0.675Z" style="fill:#fff;fill-rule:nonzero;"/><path d="M29.216,394.49l-0.738,0l0,0.576c-0.337,-0.405 -0.837,-0.666 -1.507,-0.666c-1.202,0 -2.138,0.936 -2.138,2.228c0,1.291 0.936,2.227 2.138,2.227c0.67,-0 1.17,-0.261 1.507,-0.661l0,0.571l0.738,-0l-0,-4.275Zm-2.16,0.603c0.864,-0 1.467,0.661 1.467,1.535c0,0.877 -0.603,1.539 -1.467,1.539c-0.878,-0 -1.472,-0.689 -1.472,-1.539c0,-0.851 0.581,-1.535 1.472,-1.535Z" style="fill:#fff;fill-rule:nonzero;"/><path d="M32.748,394.4c-0.508,0 -0.954,0.234 -1.251,0.652l0,-0.562l-0.724,0l0,4.275l0.733,-0l0,-2.38c0,-0.788 0.459,-1.288 1.112,-1.288c0.243,0 0.531,0.059 0.733,0.167l0.18,-0.724c-0.229,-0.099 -0.477,-0.14 -0.783,-0.14Z" style="fill:#fff;fill-rule:nonzero;"/><path d="M36.178,394.4c-1.202,0 -2.138,0.936 -2.138,2.228c0,1.291 0.936,2.227 2.138,2.227c0.67,-0 1.17,-0.261 1.507,-0.661l0,0.571l0.738,-0l-0,-6.48l-0.738,0l0,2.781c-0.337,-0.405 -0.837,-0.666 -1.507,-0.666Zm0.085,0.693c0.864,-0 1.467,0.661 1.467,1.534c0,0.878 -0.603,1.54 -1.467,1.54c-0.878,-0 -1.472,-0.689 -1.472,-1.539c0,-0.851 0.581,-1.535 1.472,-1.535Z" style="fill:#fff;fill-rule:nonzero;"/><path d="M43.179,394.868c-0.413,-0.283 -1.03,-0.463 -1.705,-0.463c-1.04,-0 -1.719,0.494 -1.719,1.313c0,0.648 0.463,1.081 1.422,1.198l0.495,0.058c0.581,0.072 0.86,0.27 0.86,0.585c-0,0.423 -0.432,0.653 -1.135,0.653c-0.715,-0 -1.143,-0.207 -1.462,-0.455l-0.342,0.549c0.563,0.423 1.273,0.549 1.8,0.549c1.166,-0 1.894,-0.526 1.894,-1.341c0,-0.706 -0.535,-1.089 -1.444,-1.211l-0.495,-0.063c-0.518,-0.063 -0.828,-0.22 -0.828,-0.562c-0,-0.387 0.378,-0.635 0.963,-0.635c0.563,0 1.107,0.212 1.377,0.396l0.319,-0.571Z" style="fill:#fff;fill-rule:nonzero;"/><path d="M47.58,395.003l-0.76,0l0,1.742l-1.998,-0l2.304,-4.271l-0.864,0l-2.353,4.406l-0,0.584l2.911,0l0,1.301l0.76,-0l0,-1.301l1.049,0l-0,-0.719l-1.049,-0l0,-1.742Z" style="fill:#fff;fill-rule:nonzero;"/><path d="M49.79,393.869c0.302,-0.405 0.675,-0.765 1.377,-0.765c0.797,-0 1.256,0.535 1.256,1.237c-0,0.518 -0.252,0.941 -0.63,1.337l-2.358,2.489l-0,0.598l3.982,-0l-0,-0.724l-2.853,-0l1.809,-1.922c0.405,-0.427 0.846,-0.99 0.846,-1.773c-0,-1.13 -0.747,-1.971 -2.034,-1.971c-1.089,0 -1.647,0.612 -1.944,1.048l0.549,0.446Z" style="fill:#fff;fill-rule:nonzero;"/><path d="M55.141,397.622c-0.329,0 -0.617,0.284 -0.617,0.612c0,0.333 0.288,0.621 0.617,0.621c0.328,-0 0.611,-0.288 0.611,-0.621c0,-0.328 -0.283,-0.612 -0.611,-0.612Z" style="fill:#fff;fill-rule:nonzero;"/><path d="M58.966,394.4c-1.297,0 -2.259,0.958 -2.259,2.228c-0,1.269 0.962,2.227 2.259,2.227c1.296,-0 2.263,-0.958 2.263,-2.227c-0,-1.27 -0.967,-2.228 -2.263,-2.228Zm-0,0.693c0.855,-0 1.507,0.639 1.507,1.535c0,0.895 -0.652,1.539 -1.507,1.539c-0.86,-0 -1.508,-0.644 -1.508,-1.539c-0,-0.896 0.648,-1.535 1.508,-1.535Z" style="fill:#fff;fill-rule:nonzero;"/><path d="M64.437,394.4c-0.508,0 -0.954,0.234 -1.251,0.652l0,-0.562l-0.724,0l0,4.275l0.733,-0l0,-2.38c0,-0.788 0.459,-1.288 1.112,-1.288c0.243,0 0.531,0.059 0.733,0.167l0.18,-0.724c-0.229,-0.099 -0.477,-0.14 -0.783,-0.14Z" style="fill:#fff;fill-rule:nonzero;"/><path d="M67.844,394.4c-1.202,0 -2.115,0.891 -2.115,2.192c0,1.305 0.913,2.195 2.115,2.195c0.662,0 1.148,-0.256 1.472,-0.665l-0,0.378c-0,0.949 -0.617,1.467 -1.535,1.467c-0.554,-0 -1.062,-0.185 -1.472,-0.477l-0.319,0.594c0.436,0.35 1.125,0.553 1.791,0.553c1.35,-0 2.272,-0.787 2.272,-2.169l0,-3.978l-0.737,0l-0,0.581c-0.324,-0.41 -0.81,-0.671 -1.472,-0.671Zm0.086,0.693c0.85,-0 1.449,0.648 1.449,1.499c-0,0.855 -0.599,1.503 -1.449,1.503c-0.878,-0 -1.45,-0.671 -1.45,-1.503c0,-0.824 0.572,-1.499 1.45,-1.499Z" style="fill:#fff;fill-rule:nonzero;"/><path d="M75.4,391.835l-0.81,0l-3.821,7.83l0.81,-0l3.821,-7.83Z" style="fill:#fff;fill-rule:nonzero;"/><path d="M76.826,394.49l-0.733,0l-0,4.275l0.733,-0l-0,-4.275Zm-0.373,-2.029c-0.293,-0 -0.518,0.229 -0.518,0.526c0,0.293 0.225,0.513 0.518,0.513c0.292,0 0.526,-0.22 0.526,-0.513c-0,-0.297 -0.234,-0.526 -0.526,-0.526Z" style="fill:#fff;fill-rule:nonzero;"/><path d="M80.197,394.4c-1.202,0 -2.138,0.936 -2.138,2.228c0,1.291 0.936,2.227 2.138,2.227c0.67,-0 1.17,-0.261 1.507,-0.661l0,0.571l0.738,-0l-0,-6.48l-0.738,0l0,2.781c-0.337,-0.405 -0.837,-0.666 -1.507,-0.666Zm0.085,0.693c0.864,-0 1.467,0.661 1.467,1.534c0,0.878 -0.603,1.54 -1.467,1.54c-0.878,-0 -1.472,-0.689 -1.472,-1.539c0,-0.851 0.581,-1.535 1.472,-1.535Z" style="fill:#fff;fill-rule:nonzero;"/><path d="M85.934,394.4c-1.296,0 -2.259,0.958 -2.259,2.228c0,1.269 0.963,2.227 2.259,2.227c1.296,-0 2.263,-0.958 2.263,-2.227c0,-1.27 -0.967,-2.228 -2.263,-2.228Zm0,0.693c0.855,-0 1.508,0.639 1.508,1.535c-0,0.895 -0.653,1.539 -1.508,1.539c-0.86,-0 -1.508,-0.644 -1.508,-1.539c0,-0.896 0.648,-1.535 1.508,-1.535Z" style="fill:#fff;fill-rule:nonzero;"/><rect x="89.431" y="392.285" width="0.733" height="6.479" style="fill:#fff;fill-rule:nonzero;"/><path d="M68.018,342.882c-0,2.959 -2.402,5.357 -5.364,5.357c-2.962,0 -5.363,-2.398 -5.363,-5.357m21.454,-0c0,2.959 -2.401,5.357 -5.363,5.357c-2.963,0 -5.364,-2.398 -5.364,-5.357l-0,-7.501m-4.291,0l8.582,0m-16.091,-17.144c0.591,-0.002 1.071,0.476 1.073,1.066l-0,0.005m-2.146,0c0,-0.592 0.48,-1.071 1.073,-1.071m-0,2.14c-0.593,-0 -1.073,-0.48 -1.073,-1.072m2.146,0.003c-0,0.591 -0.479,1.069 -1.07,1.069l-0.003,-0m23.6,-2.14c0.591,-0.002 1.071,0.476 1.073,1.066l-0,0.005m-2.146,0c0,-0.592 0.48,-1.071 1.073,-1.071m-0,2.14c-0.593,-0 -1.073,-0.48 -1.073,-1.072m2.146,0.003c-0,0.591 -0.479,1.069 -1.07,1.069l-0.003,-0m-36.049,-9.244c-2.536,4.227 -4.483,8.778 -5.787,13.53c-4.986,17.43 5.103,28.342 20.911,31.3c1.886,3.237 5.376,5.203 9.125,5.143c3.75,0.061 7.241,-1.906 9.128,-5.143c15.808,-2.955 25.891,-13.87 20.908,-31.3c-1.302,-4.753 -3.248,-9.306 -5.784,-13.533m-9.3,-9.955c-4.428,-2.93 -9.641,-4.453 -14.952,-4.369c-5.311,-0.083 -10.522,1.44 -14.95,4.369m38.55,32.063l7.721,0m-62.639,0l7.718,0m47.2,8.572l6.03,0m-59.226,0l5.996,0m23.6,-45.004l-0,15.002m-8.582,-4.289c0,-0 2.146,-2.143 8.582,-2.143c6.436,-0 8.582,2.143 8.582,2.143m6.37,-6.344l0.066,-0.082c0,-0 5.721,-6.898 12.873,-2.143c6.436,4.286 -0,15.001 -0,15.001l-1.122,1.868m-41.719,-14.644l-0.068,-0.082c-0,-0 -5.721,-6.898 -12.873,-2.143c-6.436,4.286 0,15.001 0,15.001l1.124,1.868" style="fill:none;fill-rule:nonzero;stroke:#d8d8d8;stroke-width:4px;stroke-linejoin:round;"/></g></svg>