<?xml version="1.0" encoding="UTF-8" standalone="no"?><!DOCTYPE svg PUBLIC "-//W3C//DTD SVG 1.1//EN" "http://www.w3.org/Graphics/SVG/1.1/DTD/svg11.dtd"><svg width="100%" height="100%" viewBox="0 0 298 420" version="1.1" xmlns="http://www.w3.org/2000/svg" xmlns:xlink="http://www.w3.org/1999/xlink" xml:space="preserve" xmlns:serif="http://www.serif.com/" style="fill-rule:evenodd;clip-rule:evenodd;stroke-linecap:round;stroke-linejoin:round;"><g id="Ebene-1" serif:id="Ebene 1"><rect x="-9.978" y="-15.969" width="324.567" height="445.984" style="fill:#f39260;"/><g><rect x="218.758" y="385.673" width="3.28" height="13.775" style="fill:#fff;"/><path d="M245.758,399.449l-0,-13.776l-3.28,0l-0,8.423l-6.298,-8.423l-3.148,0l-0,8.423l-6.271,-8.423l-3.149,0l-0,13.776l3.28,-0l-0,-8.397l6.271,8.397l3.175,-0l-0,-8.397l6.271,8.397l3.149,-0Z" style="fill:#fff;fill-rule:nonzero;"/><path d="M254.154,388.56c2.23,-0 3.831,1.627 3.831,3.988c-0,2.362 -1.601,3.988 -3.831,3.988c-2.257,0 -3.831,-1.626 -3.831,-3.988c0,-2.361 1.601,-3.988 3.831,-3.988m0,-3.149c-4.251,0 -7.268,3.044 -7.268,7.137c-0,4.093 3.017,7.137 7.268,7.137c4.251,0 7.268,-3.044 7.268,-7.137c0,-4.093 -3.017,-7.137 -7.268,-7.137" style="fill:#fff;fill-rule:nonzero;"/><path d="M269.609,388.56c2.23,-0 3.831,1.627 3.831,3.988c-0,0.446 -0.053,0.866 -0.158,1.26l-0.446,-0.604l-3.568,0l2.177,2.913c-0.524,0.262 -1.154,0.419 -1.81,0.419c-2.23,0 -3.831,-1.626 -3.831,-3.988c-0.026,-2.335 1.574,-3.988 3.805,-3.988m-0,-3.149c-4.251,0 -7.268,3.044 -7.268,7.137c-0,4.093 3.017,7.137 7.268,7.137c1.443,0 2.676,-0.394 3.726,-1.076l0.603,0.814l3.857,-0l-2.178,-2.939c0.761,-1.102 1.207,-2.388 1.207,-3.936c0.053,-4.093 -2.965,-7.137 -7.215,-7.137" style="fill:#004153;fill-rule:nonzero;"/></g></g><g id="Ebene-11" serif:id="Ebene 1"><path d="M30.994,20.163l-3.008,-0l-2.503,4.471l-2.512,-4.471l-3.096,-0l4.256,6.903l0,4.296l2.679,-0l0,-4.312l4.184,-6.887Z" style="fill:#004153;fill-rule:nonzero;"/><path d="M34.019,23.299c-2.449,-0 -4.256,1.759 -4.256,4.135c0,2.376 1.807,4.136 4.256,4.136c2.456,-0 4.263,-1.76 4.263,-4.136c0,-2.376 -1.807,-4.135 -4.263,-4.135Zm-0,2.335c0.984,-0 1.704,0.744 1.704,1.8c0,1.056 -0.72,1.801 -1.704,1.801c-0.977,-0 -1.697,-0.745 -1.697,-1.801c0,-1.056 0.72,-1.8 1.697,-1.8Z" style="fill:#004153;fill-rule:nonzero;"/><path d="M47.146,23.515l-2.495,-0l0,4.264c0,1 -0.544,1.456 -1.288,1.456c-0.753,-0 -1.289,-0.456 -1.289,-1.456l0,-4.264l-2.503,-0l0,4.48c0,2.463 1.695,3.575 3.792,3.575c2.088,-0 3.783,-1.112 3.783,-3.567l0,-4.488Z" style="fill:#004153;fill-rule:nonzero;"/><path d="M53.394,23.299c-0.96,-0 -1.688,0.359 -2.144,1.119l0,-0.903l-2.399,-0l0,7.847l2.503,-0l0,-4.24c0,-0.976 0.544,-1.416 1.432,-1.416c0.448,-0 0.92,0.096 1.256,0.208l0.232,-2.496c-0.192,-0.056 -0.512,-0.119 -0.88,-0.119Z" style="fill:#004153;fill-rule:nonzero;"/><path d="M63.627,23.299c-1.065,-0 -1.777,0.447 -2.249,1.063l0,-0.847l-2.415,-0l0,11.047l2.495,-0l0,-3.944c0.472,0.56 1.16,0.952 2.169,0.952c2.096,-0 3.655,-1.824 3.655,-4.143c0,-2.305 -1.559,-4.128 -3.655,-4.128Zm-0.601,2.335c1.009,-0 1.681,0.776 1.681,1.8c0,1.024 -0.672,1.801 -1.681,1.801c-0.984,-0 -1.672,-0.761 -1.672,-1.801c0,-1.04 0.688,-1.8 1.672,-1.8Z" style="fill:#004153;fill-rule:nonzero;"/><path d="M73.17,23.299c-0.96,-0 -1.688,0.359 -2.144,1.119l0,-0.903l-2.399,-0l0,7.847l2.503,-0l0,-4.24c0,-0.976 0.544,-1.416 1.432,-1.416c0.448,-0 0.92,0.096 1.256,0.208l0.232,-2.496c-0.192,-0.056 -0.512,-0.119 -0.88,-0.119Z" style="fill:#004153;fill-rule:nonzero;"/><path d="M78.827,23.299c-2.449,-0 -4.256,1.759 -4.256,4.135c0,2.376 1.807,4.136 4.256,4.136c2.456,-0 4.263,-1.76 4.263,-4.136c0,-2.376 -1.807,-4.135 -4.263,-4.135Zm-0,2.335c0.984,-0 1.704,0.744 1.704,1.8c0,1.056 -0.72,1.801 -1.704,1.801c-0.977,-0 -1.697,-0.745 -1.697,-1.801c0,-1.056 0.72,-1.8 1.697,-1.8Z" style="fill:#004153;fill-rule:nonzero;"/><path d="M87.674,23.299c-2.104,-0 -3.655,1.823 -3.655,4.127c0,2.32 1.551,4.144 3.647,4.144c1.065,-0 1.785,-0.44 2.257,-1.056l-0,0.848l2.415,-0l0,-11.519l-2.495,-0l0,4.423c-0.472,-0.568 -1.168,-0.967 -2.169,-0.967Zm0.593,2.335c0.984,-0 1.68,0.76 1.68,1.8c-0,1.04 -0.696,1.801 -1.68,1.801c-1.001,-0 -1.673,-0.777 -1.673,-1.801c0,-1.024 0.672,-1.8 1.673,-1.8Z" style="fill:#004153;fill-rule:nonzero;"/><path d="M101.61,23.515l-2.495,-0l0,4.264c0,1 -0.544,1.456 -1.288,1.456c-0.753,-0 -1.289,-0.456 -1.289,-1.456l0,-4.264l-2.503,-0l0,4.48c0,2.463 1.695,3.575 3.792,3.575c2.088,-0 3.783,-1.112 3.783,-3.567l0,-4.488Z" style="fill:#004153;fill-rule:nonzero;"/><path d="M107.13,23.299c-2.504,-0 -4.231,1.735 -4.231,4.135c0,2.4 1.727,4.136 4.231,4.136c1.456,-0 2.608,-0.64 3.36,-1.704l-1.952,-1.392c-0.392,0.496 -0.888,0.761 -1.48,0.761c-0.872,-0 -1.6,-0.665 -1.6,-1.801c0,-1.128 0.744,-1.8 1.616,-1.8c0.608,-0 1.056,0.248 1.448,0.752l1.96,-1.368c-0.752,-1.072 -1.896,-1.719 -3.352,-1.719Z" style="fill:#004153;fill-rule:nonzero;"/><path d="M117.73,23.515l-2.68,-0l0,-2.288l-2.503,-0l0,2.288l-1.464,-0l0,2.215l1.464,-0l0,2.616c0,1.968 0.952,3.224 3.055,3.224c1.264,-0 2.048,-0.36 2.784,-0.872l-0.864,-1.952c-0.392,0.232 -0.896,0.489 -1.36,0.489c-0.632,-0 -1.112,-0.305 -1.112,-1.209l0,-2.296l2.68,-0l0,-2.215Z" style="fill:#004153;fill-rule:nonzero;"/><path d="M127.627,23.299c-1.009,-0 -1.697,0.399 -2.169,0.967l0,-4.423l-2.495,-0l0,11.519l2.415,-0l0,-0.84c0.472,0.616 1.184,1.048 2.249,1.048c2.096,-0 3.655,-1.824 3.655,-4.144c0,-2.304 -1.559,-4.127 -3.655,-4.127Zm-0.601,2.335c1.009,-0 1.681,0.776 1.681,1.8c0,1.024 -0.672,1.801 -1.681,1.801c-0.984,-0 -1.672,-0.761 -1.672,-1.801c0,-1.04 0.688,-1.8 1.672,-1.8Z" style="fill:#004153;fill-rule:nonzero;"/><path d="M136.467,23.299c-2.449,-0 -4.256,1.759 -4.256,4.135c0,2.376 1.807,4.136 4.256,4.136c2.456,-0 4.263,-1.76 4.263,-4.136c0,-2.376 -1.807,-4.135 -4.263,-4.135Zm-0,2.335c0.984,-0 1.704,0.744 1.704,1.8c0,1.056 -0.72,1.801 -1.704,1.801c-0.977,-0 -1.697,-0.745 -1.697,-1.801c0,-1.056 0.72,-1.8 1.697,-1.8Z" style="fill:#004153;fill-rule:nonzero;"/><path d="M149.531,23.515l-2.88,-0l-1.44,2.231l-1.456,-2.231l-2.928,-0l2.704,3.887l-2.792,3.96l2.88,-0l1.496,-2.256l1.544,2.256l2.912,-0l-2.768,-3.96l2.728,-3.887Z" style="fill:#004153;fill-rule:nonzero;"/><g><path d="M265.707,91.513l-176.827,-0l-20.3,18.702l0,233.471l176.826,0l20.301,-18.702l-0,-233.471Z" style="fill:#fff;fill-rule:nonzero;stroke:#004153;stroke-width:1.5px;"/><rect x="68.58" y="111.218" width="175.434" height="232.468" style="fill:#fff;stroke:#004153;stroke-width:1.5px;"/><path d="M244.09,111.395l21.617,-19.882" style="fill:none;fill-rule:nonzero;stroke:#004153;stroke-width:1.5px;"/></g><path d="M21.037,45.594l-0,8.4l3.203,-0c2.713,-0 4.452,-1.644 4.452,-4.2c0,-2.556 -1.739,-4.2 -4.452,-4.2l-3.203,0Zm3.203,1.002c2.203,-0 3.343,1.284 3.343,3.198c-0,1.902 -1.14,3.198 -3.343,3.198l-2.148,0l0,-6.396l2.148,-0Z" style="fill:#004153;fill-rule:nonzero;"/><path d="M32.863,48.174c-1.639,0 -2.832,1.218 -2.832,2.97c-0,1.776 1.199,2.97 2.892,2.97c0.84,-0 1.632,-0.204 2.339,-0.864l-0.521,-0.672c-0.486,0.42 -1.092,0.678 -1.758,0.678c-0.979,0 -1.801,-0.582 -1.939,-1.764l4.482,-0c0.006,-0.108 0.018,-0.24 0.018,-0.366c-0.012,-1.746 -1.127,-2.952 -2.681,-2.952Zm-0.018,0.87c0.924,-0 1.578,0.648 1.698,1.656l-3.487,0c0.15,-0.972 0.78,-1.656 1.789,-1.656Z" style="fill:#004153;fill-rule:nonzero;"/><path d="M41.454,48.798c-0.551,-0.378 -1.373,-0.618 -2.274,-0.618c-1.386,0 -2.291,0.66 -2.291,1.752c-0,0.864 0.617,1.44 1.895,1.596l0.661,0.078c0.774,0.096 1.146,0.36 1.146,0.78c-0,0.564 -0.576,0.87 -1.513,0.87c-0.954,0 -1.524,-0.276 -1.949,-0.606l-0.456,0.732c0.75,0.564 1.697,0.732 2.399,0.732c1.555,-0 2.526,-0.702 2.526,-1.788c0,-0.942 -0.713,-1.452 -1.925,-1.614l-0.661,-0.084c-0.69,-0.084 -1.104,-0.294 -1.104,-0.75c0,-0.516 0.504,-0.846 1.284,-0.846c0.751,-0 1.477,0.282 1.837,0.528l0.425,-0.762Z" style="fill:#004153;fill-rule:nonzero;"/><path d="M44.13,48.294l-0.977,0l-0,5.7l0.977,-0l0,-5.7Zm-0.497,-2.706c-0.39,0 -0.69,0.306 -0.69,0.702c-0,0.39 0.3,0.684 0.69,0.684c0.389,0 0.701,-0.294 0.701,-0.684c0,-0.396 -0.312,-0.702 -0.701,-0.702Z" style="fill:#004153;fill-rule:nonzero;"/><path d="M48.595,48.174c-1.603,0 -2.82,1.188 -2.82,2.922c-0,1.74 1.217,2.928 2.82,2.928c0.882,-0 1.53,-0.342 1.962,-0.888l-0,0.504c-0,1.266 -0.822,1.956 -2.047,1.956c-0.738,0 -1.416,-0.246 -1.962,-0.636l-0.425,0.792c0.581,0.468 1.499,0.738 2.387,0.738c1.801,-0 3.03,-1.05 3.03,-2.892l0,-5.304l-0.983,0l-0,0.774c-0.432,-0.546 -1.08,-0.894 -1.962,-0.894Zm0.114,0.924c1.134,-0 1.932,0.864 1.932,1.998c-0,1.14 -0.798,2.004 -1.932,2.004c-1.171,0 -1.933,-0.894 -1.933,-2.004c0,-1.098 0.762,-1.998 1.933,-1.998Z" style="fill:#004153;fill-rule:nonzero;"/><path d="M56.455,48.174c-0.661,0 -1.399,0.222 -1.867,0.864l0,-0.744l-0.971,0l-0,5.7l0.977,-0l0,-3.198c0,-1.062 0.768,-1.692 1.687,-1.692c0.99,-0 1.566,0.618 1.566,1.668l-0,3.222l0.983,-0l0,-3.54c0,-1.368 -0.971,-2.28 -2.375,-2.28Z" style="fill:#004153;fill-rule:nonzero;"/><path d="M67.836,48.294l-2.394,0l0,-1.788l-0.983,0l-0,1.788l-1.218,0l-0,0.894l1.218,-0l-0,2.796c-0,1.452 0.737,2.13 1.973,2.13c0.702,-0 1.272,-0.246 1.71,-0.564l-0.462,-0.738c-0.324,0.222 -0.744,0.384 -1.164,0.384c-0.618,0 -1.074,-0.372 -1.074,-1.23l0,-2.778l2.394,-0l0,-0.894Z" style="fill:#004153;fill-rule:nonzero;"/><path d="M70.386,45.354l-0.977,0l-0,8.64l0.977,-0l0,-3.198c0,-1.062 0.768,-1.692 1.687,-1.692c0.99,-0 1.566,0.618 1.566,1.668l-0,3.222l0.983,-0l0,-3.54c0,-1.368 -0.971,-2.28 -2.375,-2.28c-0.661,0 -1.393,0.216 -1.861,0.858l0,-3.678Z" style="fill:#004153;fill-rule:nonzero;"/><path d="M79.039,48.174c-1.639,0 -2.832,1.218 -2.832,2.97c-0,1.776 1.199,2.97 2.892,2.97c0.84,-0 1.632,-0.204 2.339,-0.864l-0.521,-0.672c-0.486,0.42 -1.092,0.678 -1.758,0.678c-0.979,0 -1.801,-0.582 -1.939,-1.764l4.482,-0c0.006,-0.108 0.018,-0.24 0.018,-0.366c-0.012,-1.746 -1.127,-2.952 -2.681,-2.952Zm-0.018,0.87c0.924,-0 1.578,0.648 1.698,1.656l-3.487,0c0.15,-0.972 0.78,-1.656 1.789,-1.656Z" style="fill:#004153;fill-rule:nonzero;"/><path d="M89.208,48.174c-0.678,0 -1.272,0.312 -1.668,0.87l0,-0.75l-0.965,0l-0,5.7l0.977,-0l0,-3.174c0,-1.05 0.612,-1.716 1.482,-1.716c0.324,-0 0.708,0.078 0.978,0.222l0.24,-0.966c-0.306,-0.132 -0.636,-0.186 -1.044,-0.186Z" style="fill:#004153;fill-rule:nonzero;"/><path d="M93.763,48.174c-1.639,0 -2.832,1.218 -2.832,2.97c-0,1.776 1.199,2.97 2.892,2.97c0.84,-0 1.632,-0.204 2.339,-0.864l-0.521,-0.672c-0.486,0.42 -1.092,0.678 -1.758,0.678c-0.979,0 -1.801,-0.582 -1.939,-1.764l4.482,-0c0.006,-0.108 0.018,-0.24 0.018,-0.366c-0.012,-1.746 -1.127,-2.952 -2.681,-2.952Zm-0.018,0.87c0.924,-0 1.578,0.648 1.698,1.656l-3.487,0c0.15,-0.972 0.78,-1.656 1.789,-1.656Z" style="fill:#004153;fill-rule:nonzero;"/><path d="M101.898,48.294l-2.394,0l0,-1.788l-0.983,0l-0,1.788l-1.218,0l-0,0.894l1.218,-0l-0,2.796c-0,1.452 0.737,2.13 1.973,2.13c0.702,-0 1.272,-0.246 1.71,-0.564l-0.462,-0.738c-0.324,0.222 -0.744,0.384 -1.164,0.384c-0.618,0 -1.074,-0.372 -1.074,-1.23l0,-2.778l2.394,-0l0,-0.894Z" style="fill:#004153;fill-rule:nonzero;"/><path d="M108.87,48.294l-0.983,0l-0,0.768c-0.45,-0.54 -1.116,-0.888 -2.01,-0.888c-1.603,0 -2.85,1.248 -2.85,2.97c-0,1.722 1.247,2.97 2.85,2.97c0.894,-0 1.56,-0.348 2.01,-0.882l-0,0.762l0.983,-0l0,-5.7Zm-2.879,0.804c1.152,-0 1.956,0.882 1.956,2.046c-0,1.17 -0.804,2.052 -1.956,2.052c-1.171,0 -1.963,-0.918 -1.963,-2.052c0,-1.134 0.774,-2.046 1.963,-2.046Z" style="fill:#004153;fill-rule:nonzero;"/><path d="M111.924,48.294l-0.977,0l-0,5.7l0.977,-0l0,-5.7Zm-0.497,-2.706c-0.39,0 -0.69,0.306 -0.69,0.702c-0,0.39 0.3,0.684 0.69,0.684c0.389,0 0.701,-0.294 0.701,-0.684c0,-0.396 -0.312,-0.702 -0.701,-0.702Z" style="fill:#004153;fill-rule:nonzero;"/><rect x="114.001" y="45.354" width="0.977" height="8.639" style="fill:#004153;fill-rule:nonzero;"/><path d="M123.253,48.174c-0.901,0 -1.567,0.348 -2.011,0.882l0,-0.762l-0.977,0l-0,8.1l0.977,-0l0,-3.162c0.444,0.534 1.11,0.882 2.011,0.882c1.596,-0 2.849,-1.248 2.849,-2.97c0,-1.722 -1.253,-2.97 -2.849,-2.97Zm-0.114,0.924c1.164,-0 1.956,0.912 1.956,2.046c-0,1.134 -0.774,2.052 -1.956,2.052c-1.153,0 -1.957,-0.882 -1.957,-2.052c0,-1.164 0.804,-2.046 1.957,-2.046Z" style="fill:#004153;fill-rule:nonzero;"/><path d="M133.158,48.294l-0.983,0l-0,0.768c-0.45,-0.54 -1.116,-0.888 -2.01,-0.888c-1.603,0 -2.85,1.248 -2.85,2.97c-0,1.722 1.247,2.97 2.85,2.97c0.894,-0 1.56,-0.348 2.01,-0.882l-0,0.762l0.983,-0l0,-5.7Zm-2.879,0.804c1.152,-0 1.956,0.882 1.956,2.046c-0,1.17 -0.804,2.052 -1.956,2.052c-1.171,0 -1.963,-0.918 -1.963,-2.052c0,-1.134 0.774,-2.046 1.963,-2.046Z" style="fill:#004153;fill-rule:nonzero;"/><path d="M137.76,48.174c-1.764,0 -2.957,1.278 -2.957,2.97c-0,1.692 1.193,2.97 2.957,2.97c0.846,-0 1.602,-0.312 2.118,-0.894l-0.606,-0.678c-0.396,0.384 -0.93,0.654 -1.536,0.654c-1.098,0 -1.932,-0.858 -1.932,-2.052c0,-1.194 0.834,-2.046 1.932,-2.046c0.606,-0 1.092,0.234 1.512,0.642l0.63,-0.666c-0.51,-0.588 -1.272,-0.9 -2.118,-0.9Z" style="fill:#004153;fill-rule:nonzero;"/><path d="M142.362,45.354l-0.977,0l-0,8.64l0.977,-0l0,-2.532l0.774,-0l2.154,2.532l1.242,-0l-2.58,-3.012l2.544,-2.688l-1.236,0l-2.118,2.28l-0.78,0l0,-5.22Z" style="fill:#004153;fill-rule:nonzero;"/><path d="M152.94,48.294l-0.983,0l-0,0.768c-0.45,-0.54 -1.116,-0.888 -2.01,-0.888c-1.603,0 -2.85,1.248 -2.85,2.97c-0,1.722 1.247,2.97 2.85,2.97c0.894,-0 1.56,-0.348 2.01,-0.882l-0,0.762l0.983,-0l0,-5.7Zm-2.879,0.804c1.152,-0 1.956,0.882 1.956,2.046c-0,1.17 -0.804,2.052 -1.956,2.052c-1.171,0 -1.963,-0.918 -1.963,-2.052c0,-1.134 0.774,-2.046 1.963,-2.046Z" style="fill:#004153;fill-rule:nonzero;"/><path d="M157.405,48.174c-1.603,0 -2.82,1.188 -2.82,2.922c-0,1.74 1.217,2.928 2.82,2.928c0.882,-0 1.53,-0.342 1.962,-0.888l-0,0.504c-0,1.266 -0.822,1.956 -2.047,1.956c-0.738,0 -1.416,-0.246 -1.962,-0.636l-0.425,0.792c0.581,0.468 1.499,0.738 2.387,0.738c1.801,-0 3.03,-1.05 3.03,-2.892l0,-5.304l-0.983,0l-0,0.774c-0.432,-0.546 -1.08,-0.894 -1.962,-0.894Zm0.114,0.924c1.134,-0 1.932,0.864 1.932,1.998c-0,1.14 -0.798,2.004 -1.932,2.004c-1.171,0 -1.933,-0.894 -1.933,-2.004c0,-1.098 0.762,-1.998 1.933,-1.998Z" style="fill:#004153;fill-rule:nonzero;"/><path d="M164.827,48.174c-1.639,0 -2.832,1.218 -2.832,2.97c-0,1.776 1.199,2.97 2.892,2.97c0.84,-0 1.632,-0.204 2.339,-0.864l-0.521,-0.672c-0.486,0.42 -1.092,0.678 -1.758,0.678c-0.979,0 -1.801,-0.582 -1.939,-1.764l4.482,-0c0.006,-0.108 0.018,-0.24 0.018,-0.366c-0.012,-1.746 -1.127,-2.952 -2.681,-2.952Zm-0.018,0.87c0.924,-0 1.578,0.648 1.698,1.656l-3.487,0c0.15,-0.972 0.78,-1.656 1.789,-1.656Z" style="fill:#004153;fill-rule:nonzero;"/><path d="M175.986,48.294l-2.19,0l0,-0.972c0,-0.738 0.3,-1.17 0.978,-1.17c0.42,-0 0.846,0.15 1.146,0.33l0.354,-0.822c-0.408,-0.246 -0.918,-0.426 -1.566,-0.426c-1.344,0 -1.895,0.894 -1.895,2.088l-0,0.972l-1.266,0l-0,0.894l1.266,-0l-0,4.806l0.983,-0l0,-4.806l2.19,-0l0,-0.894Z" style="fill:#004153;fill-rule:nonzero;"/><path d="M179.779,48.174c-1.729,0 -3.012,1.278 -3.012,2.97c-0,1.692 1.283,2.97 3.012,2.97c1.728,-0 3.017,-1.278 3.017,-2.97c0,-1.692 -1.289,-2.97 -3.017,-2.97Zm-0,0.924c1.14,-0 2.01,0.852 2.01,2.046c-0,1.194 -0.87,2.052 -2.01,2.052c-1.147,0 -2.011,-0.858 -2.011,-2.052c0,-1.194 0.864,-2.046 2.011,-2.046Z" style="fill:#004153;fill-rule:nonzero;"/><path d="M187.074,48.174c-0.678,0 -1.272,0.312 -1.668,0.87l0,-0.75l-0.965,0l-0,5.7l0.977,-0l0,-3.174c0,-1.05 0.612,-1.716 1.482,-1.716c0.324,-0 0.708,0.078 0.978,0.222l0.24,-0.966c-0.306,-0.132 -0.636,-0.186 -1.044,-0.186Z" style="fill:#004153;fill-rule:nonzero;"/><path d="M197.587,48.294l-1.08,0l-1.95,3.504l-2.052,-3.504l-1.098,0l2.598,4.482l-2.106,3.648l1.086,-0l4.602,-8.13Z" style="fill:#004153;fill-rule:nonzero;"/><path d="M201.187,48.174c-1.729,0 -3.012,1.278 -3.012,2.97c-0,1.692 1.283,2.97 3.012,2.97c1.728,-0 3.017,-1.278 3.017,-2.97c0,-1.692 -1.289,-2.97 -3.017,-2.97Zm-0,0.924c1.14,-0 2.01,0.852 2.01,2.046c-0,1.194 -0.87,2.052 -2.01,2.052c-1.147,0 -2.011,-0.858 -2.011,-2.052c0,-1.194 0.864,-2.046 2.011,-2.046Z" style="fill:#004153;fill-rule:nonzero;"/><path d="M210.99,48.294l-0.983,0l-0,3.222c-0,1.164 -0.69,1.68 -1.614,1.68c-0.931,0 -1.621,-0.516 -1.621,-1.68l0,-3.222l-0.983,0l-0,3.312c-0,1.722 1.229,2.508 2.604,2.508c1.362,-0 2.597,-0.786 2.597,-2.508l0,-3.312Z" style="fill:#004153;fill-rule:nonzero;"/><path d="M215.64,48.174c-0.678,0 -1.272,0.312 -1.668,0.87l0,-0.75l-0.965,0l-0,5.7l0.977,-0l0,-3.174c0,-1.05 0.612,-1.716 1.482,-1.716c0.324,-0 0.708,0.078 0.978,0.222l0.24,-0.966c-0.306,-0.132 -0.636,-0.186 -1.044,-0.186Z" style="fill:#004153;fill-rule:nonzero;"/><path d="M225.378,48.798c-0.551,-0.378 -1.373,-0.618 -2.274,-0.618c-1.386,0 -2.291,0.66 -2.291,1.752c-0,0.864 0.617,1.44 1.895,1.596l0.661,0.078c0.774,0.096 1.146,0.36 1.146,0.78c-0,0.564 -0.576,0.87 -1.513,0.87c-0.954,0 -1.524,-0.276 -1.949,-0.606l-0.456,0.732c0.75,0.564 1.697,0.732 2.399,0.732c1.555,-0 2.526,-0.702 2.526,-1.788c0,-0.942 -0.713,-1.452 -1.925,-1.614l-0.661,-0.084c-0.69,-0.084 -1.104,-0.294 -1.104,-0.75c0,-0.516 0.504,-0.846 1.284,-0.846c0.751,-0 1.477,0.282 1.837,0.528l0.425,-0.762Z" style="fill:#004153;fill-rule:nonzero;"/><path d="M229.657,48.174c-1.729,0 -3.012,1.278 -3.012,2.97c-0,1.692 1.283,2.97 3.012,2.97c1.728,-0 3.017,-1.278 3.017,-2.97c0,-1.692 -1.289,-2.97 -3.017,-2.97Zm-0,0.924c1.14,-0 2.01,0.852 2.01,2.046c-0,1.194 -0.87,2.052 -2.01,2.052c-1.147,0 -2.011,-0.858 -2.011,-2.052c0,-1.194 0.864,-2.046 2.011,-2.046Z" style="fill:#004153;fill-rule:nonzero;"/><path d="M237.972,48.294l-2.19,0l0,-0.972c0,-0.738 0.3,-1.17 0.978,-1.17c0.42,-0 0.846,0.15 1.146,0.33l0.354,-0.822c-0.408,-0.246 -0.918,-0.426 -1.566,-0.426c-1.344,0 -1.895,0.894 -1.895,2.088l-0,0.972l-1.266,0l-0,0.894l1.266,-0l-0,4.806l0.983,-0l0,-4.806l2.19,-0l0,-0.894Z" style="fill:#004153;fill-rule:nonzero;"/><path d="M243.138,48.294l-2.394,0l0,-1.788l-0.983,0l-0,1.788l-1.218,0l-0,0.894l1.218,-0l-0,2.796c-0,1.452 0.737,2.13 1.973,2.13c0.702,-0 1.272,-0.246 1.71,-0.564l-0.462,-0.738c-0.324,0.222 -0.744,0.384 -1.164,0.384c-0.618,0 -1.074,-0.372 -1.074,-1.23l0,-2.778l2.394,-0l0,-0.894Z" style="fill:#004153;fill-rule:nonzero;"/><path d="M249.325,48.294l-1.11,0l-1.626,4.662l-1.614,-4.662l-1.05,0l2.052,5.7l1.152,-0l1.626,-4.638l1.632,4.638l1.17,-0l2.052,-5.7l-1.026,0l-1.62,4.674l-1.638,-4.674Z" style="fill:#004153;fill-rule:nonzero;"/><path d="M260.304,48.294l-0.983,0l-0,0.768c-0.45,-0.54 -1.116,-0.888 -2.01,-0.888c-1.603,0 -2.85,1.248 -2.85,2.97c-0,1.722 1.247,2.97 2.85,2.97c0.894,-0 1.56,-0.348 2.01,-0.882l-0,0.762l0.983,-0l0,-5.7Zm-2.879,0.804c1.152,-0 1.956,0.882 1.956,2.046c-0,1.17 -0.804,2.052 -1.956,2.052c-1.171,0 -1.963,-0.918 -1.963,-2.052c0,-1.134 0.774,-2.046 1.963,-2.046Z" style="fill:#004153;fill-rule:nonzero;"/><path d="M265.014,48.174c-0.678,0 -1.272,0.312 -1.668,0.87l0,-0.75l-0.965,0l-0,5.7l0.977,-0l0,-3.174c0,-1.05 0.612,-1.716 1.482,-1.716c0.324,-0 0.708,0.078 0.978,0.222l0.24,-0.966c-0.306,-0.132 -0.636,-0.186 -1.044,-0.186Z" style="fill:#004153;fill-rule:nonzero;"/><path d="M269.569,48.174c-1.639,0 -2.832,1.218 -2.832,2.97c-0,1.776 1.199,2.97 2.892,2.97c0.84,-0 1.632,-0.204 2.339,-0.864l-0.521,-0.672c-0.486,0.42 -1.092,0.678 -1.758,0.678c-0.979,0 -1.801,-0.582 -1.939,-1.764l4.482,-0c0.006,-0.108 0.018,-0.24 0.018,-0.366c-0.012,-1.746 -1.127,-2.952 -2.681,-2.952Zm-0.018,0.87c0.924,-0 1.578,0.648 1.698,1.656l-3.487,0c0.15,-0.972 0.78,-1.656 1.789,-1.656Z" style="fill:#004153;fill-rule:nonzero;"/><path d="M275.028,45.594l-1.199,0l0.156,5.706l0.887,-0l0.156,-5.706Zm-0.593,6.87c-0.438,0 -0.822,0.378 -0.822,0.822c-0,0.438 0.384,0.828 0.822,0.828c0.437,-0 0.815,-0.39 0.815,-0.828c0,-0.444 -0.378,-0.822 -0.815,-0.822Z" style="fill:#004153;fill-rule:nonzero;"/><path d="M28.128,130.634l-1.055,-0l-0,6.593l-5.083,-6.599l-0.953,-0l-0,8.405l1.055,-0l0.006,-6.593l5.077,6.599l0.953,-0l0,-8.405Z" style="fill:#004153;fill-rule:nonzero;"/><path d="M35.778,133.334l-0.983,-0l-0,0.768c-0.45,-0.541 -1.116,-0.888 -2.01,-0.888c-1.603,-0 -2.85,1.247 -2.85,2.969c-0,1.723 1.247,2.97 2.85,2.97c0.894,-0 1.56,-0.348 2.01,-0.881l-0,0.761l0.983,-0l0,-5.699Zm-2.879,0.803c1.152,-0 1.956,0.882 1.956,2.046c-0,1.171 -0.804,2.053 -1.956,2.053c-1.171,-0 -1.963,-0.918 -1.963,-2.053c0,-1.134 0.774,-2.046 1.963,-2.046Z" style="fill:#004153;fill-rule:nonzero;"/><path d="M44.923,133.214c-0.775,-0 -1.657,0.281 -2.125,1.145c-0.377,-0.714 -1.139,-1.145 -2.105,-1.145c-0.661,-0 -1.399,0.222 -1.867,0.863l0,-0.743l-0.971,-0l-0,5.699l0.977,-0l0,-3.198c0,-1.062 0.768,-1.692 1.687,-1.692c0.99,-0 1.566,0.618 1.566,1.668l-0,3.222l0.983,-0l0,-3.198c0,-1.038 0.738,-1.692 1.681,-1.692c0.99,-0 1.566,0.618 1.566,1.668l-0,3.222l0.983,-0l0,-3.54c0,-1.368 -0.965,-2.279 -2.375,-2.279Z" style="fill:#004153;fill-rule:nonzero;"/><path d="M51.715,133.214c-1.639,-0 -2.832,1.217 -2.832,2.969c-0,1.777 1.199,2.97 2.892,2.97c0.84,-0 1.632,-0.204 2.339,-0.863l-0.521,-0.673c-0.486,0.421 -1.092,0.679 -1.758,0.679c-0.979,-0 -1.801,-0.583 -1.939,-1.765l4.482,-0c0.006,-0.108 0.018,-0.24 0.018,-0.366c-0.012,-1.746 -1.127,-2.951 -2.681,-2.951Zm-0.018,0.869c0.924,-0 1.578,0.648 1.698,1.657l-3.487,-0c0.15,-0.973 0.78,-1.657 1.789,-1.657Z" style="fill:#004153;fill-rule:nonzero;"/><g><path d="M89.224,144.214l-0.377,0" style="fill:none;fill-rule:nonzero;stroke:#d8d8d8;stroke-width:1px;stroke-linejoin:miter;stroke-miterlimit:10;"/><path d="M87.154,144.214l-65.302,0" style="fill:none;fill-rule:nonzero;stroke:#d8d8d8;stroke-width:1px;stroke-linejoin:miter;stroke-miterlimit:10;stroke-dasharray:2.04,2.04;stroke-dashoffset:1.02;"/><path d="M20.85,144.214l-0.377,0" style="fill:none;fill-rule:nonzero;stroke:#d8d8d8;stroke-width:1px;stroke-linejoin:miter;stroke-miterlimit:10;"/><path d="M88.016,142.215l7.461,1.998l-7.461,2.001l-0,-3.999Z" style="fill:#d8d8d8;fill-rule:nonzero;stroke:#d8d8d8;stroke-width:1px;stroke-linecap:butt;stroke-linejoin:miter;stroke-miterlimit:10;"/></g><path d="M27.191,194.979c-0.792,-0.546 -1.758,-0.918 -3.024,-0.918c-1.77,0 -3.209,0.906 -3.209,2.526c-0,1.434 1.103,2.076 2.489,2.244l0.78,0.096c1.308,0.162 2.011,0.534 2.011,1.314c-0,0.948 -0.985,1.458 -2.239,1.458c-1.068,0 -2.154,-0.426 -2.736,-0.93l-0.575,0.84c0.809,0.678 2.117,1.092 3.311,1.092c1.818,-0 3.336,-0.876 3.336,-2.55c-0,-1.482 -1.217,-2.058 -2.64,-2.232l-0.738,-0.09c-1.26,-0.156 -1.902,-0.546 -1.902,-1.308c-0,-0.906 0.876,-1.458 2.106,-1.458c0.972,-0 1.807,0.312 2.49,0.774l0.54,-0.858Z" style="fill:#004153;fill-rule:nonzero;"/><rect x="29.094" y="193.941" width="0.977" height="8.639" style="fill:#004153;fill-rule:nonzero;"/><path d="M34.727,196.761c-1.728,0 -3.011,1.278 -3.011,2.97c-0,1.692 1.283,2.97 3.011,2.97c1.728,-0 3.018,-1.278 3.018,-2.97c-0,-1.692 -1.29,-2.97 -3.018,-2.97Zm0,0.924c1.14,-0 2.011,0.852 2.011,2.046c-0,1.194 -0.871,2.052 -2.011,2.052c-1.146,0 -2.01,-0.858 -2.01,-2.052c-0,-1.194 0.864,-2.046 2.01,-2.046Z" style="fill:#004153;fill-rule:nonzero;"/><path d="M41.777,196.761c-1.602,0 -2.819,1.188 -2.819,2.922c-0,1.74 1.217,2.928 2.819,2.928c0.882,-0 1.53,-0.342 1.963,-0.888l-0,0.504c-0,1.266 -0.823,1.956 -2.047,1.956c-0.738,0 -1.416,-0.246 -1.962,-0.636l-0.426,0.792c0.582,0.468 1.5,0.738 2.388,0.738c1.8,-0 3.03,-1.05 3.03,-2.892l-0,-5.304l-0.983,0l-0,0.774c-0.433,-0.546 -1.081,-0.894 -1.963,-0.894Zm0.114,0.924c1.134,-0 1.932,0.864 1.932,1.998c0,1.14 -0.798,2.004 -1.932,2.004c-1.17,0 -1.932,-0.894 -1.932,-2.004c-0,-1.098 0.762,-1.998 1.932,-1.998Z" style="fill:#004153;fill-rule:nonzero;"/><path d="M52.211,196.881l-0.983,0l-0,0.768c-0.451,-0.54 -1.117,-0.888 -2.011,-0.888c-1.602,0 -2.849,1.248 -2.849,2.97c-0,1.722 1.247,2.97 2.849,2.97c0.894,-0 1.56,-0.348 2.011,-0.882l-0,0.762l0.983,-0l-0,-5.7Zm-2.88,0.804c1.152,-0 1.956,0.882 1.956,2.046c0,1.17 -0.804,2.052 -1.956,2.052c-1.17,0 -1.962,-0.918 -1.962,-2.052c-0,-1.134 0.774,-2.046 1.962,-2.046Z" style="fill:#004153;fill-rule:nonzero;"/><path d="M57.125,196.761c-0.66,0 -1.398,0.222 -1.866,0.864l-0,-0.744l-0.971,0l-0,5.7l0.977,-0l-0,-3.198c-0,-1.062 0.768,-1.692 1.686,-1.692c0.99,-0 1.567,0.618 1.567,1.668l-0,3.222l0.983,-0l-0,-3.54c-0,-1.368 -0.971,-2.28 -2.376,-2.28Z" style="fill:#004153;fill-rule:nonzero;"/><g><path d="M90.218,207.762l-0.396,-0" style="fill:none;fill-rule:nonzero;stroke:#d8d8d8;stroke-width:1px;stroke-linejoin:miter;stroke-miterlimit:10;"/><path d="M88.119,207.762l-66.247,-0" style="fill:none;fill-rule:nonzero;stroke:#d8d8d8;stroke-width:1px;stroke-linejoin:miter;stroke-miterlimit:10;stroke-dasharray:2.07,2.07;stroke-dashoffset:1.04;"/><path d="M20.869,207.762l-0.396,-0" style="fill:none;fill-rule:nonzero;stroke:#d8d8d8;stroke-width:1px;stroke-linejoin:miter;stroke-miterlimit:10;"/><path d="M88.979,205.76l7.576,2l-7.576,2.004l-0,-4.004Z" style="fill:#d8d8d8;fill-rule:nonzero;stroke:#d8d8d8;stroke-width:1px;stroke-linecap:butt;stroke-linejoin:miter;stroke-miterlimit:10;"/></g><path d="M27.804,363.699l-1.062,-0l0,5.028c0,1.722 -1.02,2.478 -2.424,2.478c-1.404,-0 -2.43,-0.756 -2.43,-2.478l-0,-5.028l-1.056,-0l0,5.106c0,2.292 1.548,3.413 3.486,3.413c1.938,-0 3.486,-1.121 3.486,-3.413l-0,-5.106Z" style="fill:#004153;fill-rule:nonzero;"/><path d="M32.76,366.279c-0.66,-0 -1.398,0.221 -1.866,0.863l-0,-0.743l-0.972,-0l0,5.699l0.978,-0l-0,-3.198c-0,-1.062 0.768,-1.692 1.686,-1.692c0.99,-0 1.566,0.618 1.566,1.668l0,3.222l0.984,-0l-0,-3.54c-0,-1.368 -0.972,-2.279 -2.376,-2.279Z" style="fill:#004153;fill-rule:nonzero;"/><path d="M38.13,366.399l-0.978,-0l0,5.699l0.978,-0l-0,-5.699Zm-0.498,-2.706c-0.39,-0 -0.69,0.306 -0.69,0.702c0,0.39 0.3,0.684 0.69,0.684c0.39,-0 0.702,-0.294 0.702,-0.684c-0,-0.396 -0.312,-0.702 -0.702,-0.702Z" style="fill:#004153;fill-rule:nonzero;"/><path d="M42.624,366.279c-1.602,-0 -2.85,1.247 -2.85,2.969c0,1.723 1.248,2.97 2.85,2.97c0.894,-0 1.56,-0.348 2.01,-0.881l0,3.161l0.984,-0l-0,-8.099l-0.984,-0l0,0.768c-0.45,-0.541 -1.116,-0.888 -2.01,-0.888Zm0.114,0.923c1.152,-0 1.956,0.882 1.956,2.046c0,1.17 -0.804,2.053 -1.956,2.053c-1.17,-0 -1.962,-0.919 -1.962,-2.053c-0,-1.134 0.774,-2.046 1.962,-2.046Z" style="fill:#004153;fill-rule:nonzero;"/><path d="M52.836,366.399l-0.984,-0l0,3.222c0,1.164 -0.69,1.68 -1.614,1.68c-0.93,-0 -1.62,-0.516 -1.62,-1.68l-0,-3.222l-0.984,-0l0,3.312c0,1.722 1.23,2.507 2.604,2.507c1.362,-0 2.598,-0.785 2.598,-2.507l-0,-3.312Z" style="fill:#004153;fill-rule:nonzero;"/><path d="M57.252,366.279c-1.638,-0 -2.832,1.217 -2.832,2.969c0,1.776 1.2,2.97 2.892,2.97c0.84,-0 1.632,-0.204 2.34,-0.863l-0.522,-0.673c-0.486,0.421 -1.092,0.679 -1.758,0.679c-0.978,-0 -1.8,-0.583 -1.938,-1.765l4.482,-0c0.006,-0.108 0.018,-0.24 0.018,-0.366c-0.012,-1.746 -1.128,-2.951 -2.682,-2.951Zm-0.018,0.869c0.924,-0 1.578,0.648 1.698,1.657l-3.486,-0c0.15,-0.973 0.78,-1.657 1.788,-1.657Z" style="fill:#004153;fill-rule:nonzero;"/><path d="M69.054,366.902c-0.552,-0.378 -1.374,-0.617 -2.274,-0.617c-1.386,-0 -2.292,0.659 -2.292,1.751c0,0.864 0.618,1.44 1.896,1.596l0.66,0.078c0.774,0.096 1.146,0.36 1.146,0.78c0,0.565 -0.576,0.871 -1.512,0.871c-0.954,-0 -1.524,-0.276 -1.95,-0.606l-0.456,0.732c0.75,0.563 1.698,0.731 2.4,0.731c1.554,-0 2.526,-0.702 2.526,-1.788c-0,-0.942 -0.714,-1.452 -1.926,-1.614l-0.66,-0.084c-0.69,-0.084 -1.104,-0.294 -1.104,-0.75c-0,-0.516 0.504,-0.846 1.284,-0.846c0.75,-0 1.476,0.282 1.836,0.528l0.426,-0.762Z" style="fill:#004153;fill-rule:nonzero;"/><path d="M73.152,366.279c-1.638,-0 -2.832,1.217 -2.832,2.969c0,1.776 1.2,2.97 2.892,2.97c0.84,-0 1.632,-0.204 2.34,-0.863l-0.522,-0.673c-0.486,0.421 -1.092,0.679 -1.758,0.679c-0.978,-0 -1.8,-0.583 -1.938,-1.765l4.482,-0c0.006,-0.108 0.018,-0.24 0.018,-0.366c-0.012,-1.746 -1.128,-2.951 -2.682,-2.951Zm-0.018,0.869c0.924,-0 1.578,0.648 1.698,1.657l-3.486,-0c0.15,-0.973 0.78,-1.657 1.788,-1.657Z" style="fill:#004153;fill-rule:nonzero;"/><rect x="77.478" y="363.459" width="0.977" height="8.639" style="fill:#004153;fill-rule:nonzero;"/><rect x="80.532" y="363.459" width="0.977" height="8.639" style="fill:#004153;fill-rule:nonzero;"/><path d="M84.564,366.399l-0.978,-0l0,5.699l0.978,-0l-0,-5.699Zm-0.498,-2.706c-0.39,-0 -0.69,0.306 -0.69,0.702c0,0.39 0.3,0.684 0.69,0.684c0.39,-0 0.702,-0.294 0.702,-0.684c-0,-0.396 -0.312,-0.702 -0.702,-0.702Z" style="fill:#004153;fill-rule:nonzero;"/><path d="M89.478,366.279c-0.66,-0 -1.398,0.221 -1.866,0.863l-0,-0.743l-0.972,-0l0,5.699l0.978,-0l-0,-3.198c-0,-1.062 0.768,-1.692 1.686,-1.692c0.99,-0 1.566,0.618 1.566,1.668l0,3.222l0.984,-0l-0,-3.54c-0,-1.368 -0.972,-2.279 -2.376,-2.279Z" style="fill:#004153;fill-rule:nonzero;"/><path d="M96.258,366.279c-1.602,-0 -2.82,1.187 -2.82,2.921c0,1.741 1.218,2.928 2.82,2.928c0.882,-0 1.53,-0.342 1.962,-0.887l0,0.503c0,1.266 -0.822,1.957 -2.046,1.957c-0.738,-0 -1.416,-0.246 -1.962,-0.637l-0.426,0.792c0.582,0.468 1.5,0.738 2.388,0.738c1.8,-0 3.03,-1.049 3.03,-2.892l-0,-5.303l-0.984,-0l0,0.774c-0.432,-0.547 -1.08,-0.894 -1.962,-0.894Zm0.114,0.923c1.134,-0 1.932,0.864 1.932,1.998c0,1.14 -0.798,2.005 -1.932,2.005c-1.17,-0 -1.932,-0.895 -1.932,-2.005c-0,-1.098 0.762,-1.998 1.932,-1.998Z" style="fill:#004153;fill-rule:nonzero;"/><path d="M107.478,366.279c-0.9,-0 -1.566,0.347 -2.01,0.881l-0,-0.761l-0.978,-0l0,8.099l0.978,-0l-0,-3.161c0.444,0.533 1.11,0.881 2.01,0.881c1.596,-0 2.85,-1.247 2.85,-2.969c-0,-1.723 -1.254,-2.97 -2.85,-2.97Zm-0.114,0.923c1.164,-0 1.956,0.912 1.956,2.046c0,1.134 -0.774,2.053 -1.956,2.053c-1.152,-0 -1.956,-0.883 -1.956,-2.053c-0,-1.164 0.804,-2.046 1.956,-2.046Z" style="fill:#004153;fill-rule:nonzero;"/><path d="M114.552,366.279c-1.728,-0 -3.012,1.277 -3.012,2.969c0,1.693 1.284,2.97 3.012,2.97c1.728,-0 3.018,-1.277 3.018,-2.97c-0,-1.692 -1.29,-2.969 -3.018,-2.969Zm-0,0.923c1.14,-0 2.01,0.852 2.01,2.046c0,1.194 -0.87,2.053 -2.01,2.053c-1.146,-0 -2.01,-0.859 -2.01,-2.053c-0,-1.194 0.864,-2.046 2.01,-2.046Z" style="fill:#004153;fill-rule:nonzero;"/><path d="M120.192,366.399l-0.978,-0l0,5.699l0.978,-0l-0,-5.699Zm-0.498,-2.706c-0.39,-0 -0.69,0.306 -0.69,0.702c0,0.39 0.3,0.684 0.69,0.684c0.39,-0 0.702,-0.294 0.702,-0.684c-0,-0.396 -0.312,-0.702 -0.702,-0.702Z" style="fill:#004153;fill-rule:nonzero;"/><path d="M125.106,366.279c-0.66,-0 -1.398,0.221 -1.866,0.863l-0,-0.743l-0.972,-0l0,5.699l0.978,-0l-0,-3.198c-0,-1.062 0.768,-1.692 1.686,-1.692c0.99,-0 1.566,0.618 1.566,1.668l0,3.222l0.984,-0l-0,-3.54c-0,-1.368 -0.972,-2.279 -2.376,-2.279Z" style="fill:#004153;fill-rule:nonzero;"/><path d="M133.29,366.399l-2.394,-0l-0,-1.788l-0.984,-0l0,1.788l-1.218,-0l0,0.893l1.218,-0l0,2.796c0,1.452 0.738,2.13 1.974,2.13c0.702,-0 1.272,-0.246 1.71,-0.564l-0.462,-0.737c-0.324,0.222 -0.744,0.384 -1.164,0.384c-0.618,-0 -1.074,-0.372 -1.074,-1.231l-0,-2.778l2.394,-0l-0,-0.893Z" style="fill:#004153;fill-rule:nonzero;"/><path d="M139.128,366.902c-0.552,-0.378 -1.374,-0.617 -2.274,-0.617c-1.386,-0 -2.292,0.659 -2.292,1.751c0,0.864 0.618,1.44 1.896,1.596l0.66,0.078c0.774,0.096 1.146,0.36 1.146,0.78c0,0.565 -0.576,0.871 -1.512,0.871c-0.954,-0 -1.524,-0.276 -1.95,-0.606l-0.456,0.732c0.75,0.563 1.698,0.731 2.4,0.731c1.554,-0 2.526,-0.702 2.526,-1.788c-0,-0.942 -0.714,-1.452 -1.926,-1.614l-0.66,-0.084c-0.69,-0.084 -1.104,-0.294 -1.104,-0.75c-0,-0.516 0.504,-0.846 1.284,-0.846c0.75,-0 1.476,0.282 1.836,0.528l0.426,-0.762Z" style="fill:#004153;fill-rule:nonzero;"/><path d="M120.95,329.561l-6.738,33.398" style="fill:none;fill-rule:nonzero;stroke:#d8d8d8;stroke-width:1px;stroke-linejoin:miter;stroke-miterlimit:10;stroke-dasharray:2.13,2.13;stroke-dashoffset:1.06;"/><path d="M117.854,329.255l4.265,-6.516l1.188,7.996l-5.453,-1.48Z" style="fill:#d8d8d8;fill-rule:nonzero;stroke:#d8d8d8;stroke-width:1px;stroke-linecap:butt;stroke-linejoin:miter;stroke-miterlimit:10;"/><path d="M22.515,394.69c-1.323,0 -2.218,0.958 -2.218,2.227c0,1.27 0.895,2.228 2.218,2.228c0.635,-0 1.202,-0.234 1.589,-0.67l-0.455,-0.509c-0.297,0.288 -0.697,0.491 -1.152,0.491c-0.823,-0 -1.449,-0.644 -1.449,-1.54c0,-0.895 0.626,-1.534 1.449,-1.534c0.455,-0 0.819,0.175 1.134,0.481l0.473,-0.499c-0.383,-0.441 -0.954,-0.675 -1.589,-0.675Z" style="fill:#004153;fill-rule:nonzero;"/><path d="M29.216,394.78l-0.738,0l0,0.576c-0.337,-0.405 -0.837,-0.666 -1.507,-0.666c-1.202,0 -2.138,0.936 -2.138,2.227c0,1.292 0.936,2.228 2.138,2.228c0.67,-0 1.17,-0.261 1.507,-0.661l0,0.571l0.738,-0l-0,-4.275Zm-2.16,0.603c0.864,-0 1.467,0.661 1.467,1.534c0,0.878 -0.603,1.54 -1.467,1.54c-0.878,-0 -1.472,-0.689 -1.472,-1.54c0,-0.85 0.581,-1.534 1.472,-1.534Z" style="fill:#004153;fill-rule:nonzero;"/><path d="M32.748,394.69c-0.508,0 -0.954,0.234 -1.251,0.652l0,-0.562l-0.724,0l0,4.275l0.733,-0l0,-2.381c0,-0.787 0.459,-1.287 1.112,-1.287c0.243,0 0.531,0.059 0.733,0.167l0.18,-0.725c-0.229,-0.098 -0.477,-0.139 -0.783,-0.139Z" style="fill:#004153;fill-rule:nonzero;"/><path d="M36.178,394.69c-1.202,0 -2.138,0.936 -2.138,2.227c0,1.292 0.936,2.228 2.138,2.228c0.67,-0 1.17,-0.261 1.507,-0.661l0,0.571l0.738,-0l-0,-6.48l-0.738,0l0,2.781c-0.337,-0.405 -0.837,-0.666 -1.507,-0.666Zm0.085,0.693c0.864,-0 1.467,0.661 1.467,1.534c0,0.878 -0.603,1.54 -1.467,1.54c-0.878,-0 -1.472,-0.689 -1.472,-1.54c0,-0.85 0.581,-1.534 1.472,-1.534Z" style="fill:#004153;fill-rule:nonzero;"/><path d="M43.179,395.158c-0.413,-0.284 -1.03,-0.463 -1.705,-0.463c-1.04,-0 -1.719,0.494 -1.719,1.313c0,0.648 0.463,1.08 1.422,1.197l0.495,0.059c0.581,0.072 0.86,0.27 0.86,0.585c-0,0.423 -0.432,0.653 -1.135,0.653c-0.715,-0 -1.143,-0.207 -1.462,-0.455l-0.342,0.549c0.563,0.423 1.273,0.549 1.8,0.549c1.166,-0 1.894,-0.527 1.894,-1.341c0,-0.707 -0.535,-1.089 -1.444,-1.211l-0.495,-0.063c-0.518,-0.063 -0.828,-0.22 -0.828,-0.562c-0,-0.387 0.378,-0.635 0.963,-0.635c0.563,0 1.107,0.212 1.377,0.396l0.319,-0.571Z" style="fill:#004153;fill-rule:nonzero;"/><path d="M47.58,395.293l-0.76,0l0,1.742l-1.998,-0l2.304,-4.271l-0.864,0l-2.353,4.405l-0,0.585l2.911,0l0,1.301l0.76,-0l0,-1.301l1.049,0l-0,-0.719l-1.049,-0l0,-1.742Z" style="fill:#004153;fill-rule:nonzero;"/><path d="M49.79,394.159c0.302,-0.405 0.675,-0.765 1.377,-0.765c0.797,-0 1.256,0.535 1.256,1.237c-0,0.518 -0.252,0.941 -0.63,1.337l-2.358,2.489l-0,0.598l3.982,-0l-0,-0.724l-2.853,-0l1.809,-1.922c0.405,-0.428 0.846,-0.99 0.846,-1.773c-0,-1.13 -0.747,-1.971 -2.034,-1.971c-1.089,0 -1.647,0.612 -1.944,1.048l0.549,0.446Z" style="fill:#004153;fill-rule:nonzero;"/><path d="M55.141,397.912c-0.329,0 -0.617,0.283 -0.617,0.612c0,0.333 0.288,0.621 0.617,0.621c0.328,-0 0.611,-0.288 0.611,-0.621c0,-0.329 -0.283,-0.612 -0.611,-0.612Z" style="fill:#004153;fill-rule:nonzero;"/><path d="M58.966,394.69c-1.297,0 -2.259,0.958 -2.259,2.227c-0,1.27 0.962,2.228 2.259,2.228c1.296,-0 2.263,-0.958 2.263,-2.228c-0,-1.269 -0.967,-2.227 -2.263,-2.227Zm-0,0.693c0.855,-0 1.507,0.639 1.507,1.534c0,0.896 -0.652,1.54 -1.507,1.54c-0.86,-0 -1.508,-0.644 -1.508,-1.54c-0,-0.895 0.648,-1.534 1.508,-1.534Z" style="fill:#004153;fill-rule:nonzero;"/><path d="M64.437,394.69c-0.508,0 -0.954,0.234 -1.251,0.652l0,-0.562l-0.724,0l0,4.275l0.733,-0l0,-2.381c0,-0.787 0.459,-1.287 1.112,-1.287c0.243,0 0.531,0.059 0.733,0.167l0.18,-0.725c-0.229,-0.098 -0.477,-0.139 -0.783,-0.139Z" style="fill:#004153;fill-rule:nonzero;"/><path d="M67.844,394.69c-1.202,0 -2.115,0.891 -2.115,2.191c0,1.306 0.913,2.196 2.115,2.196c0.662,0 1.148,-0.256 1.472,-0.665l-0,0.377c-0,0.95 -0.617,1.468 -1.535,1.468c-0.554,-0 -1.062,-0.185 -1.472,-0.478l-0.319,0.595c0.436,0.35 1.125,0.553 1.791,0.553c1.35,-0 2.272,-0.787 2.272,-2.169l0,-3.978l-0.737,0l-0,0.581c-0.324,-0.41 -0.81,-0.671 -1.472,-0.671Zm0.086,0.693c0.85,-0 1.449,0.648 1.449,1.498c-0,0.855 -0.599,1.504 -1.449,1.504c-0.878,-0 -1.45,-0.671 -1.45,-1.504c0,-0.823 0.572,-1.498 1.45,-1.498Z" style="fill:#004153;fill-rule:nonzero;"/><path d="M75.4,392.125l-0.81,0l-3.821,7.83l0.81,-0l3.821,-7.83Z" style="fill:#004153;fill-rule:nonzero;"/><path d="M77.794,394.69c-0.676,0 -1.175,0.261 -1.508,0.661l-0,-0.571l-0.733,0l-0,6.075l0.733,-0l-0,-2.371c0.333,0.4 0.832,0.661 1.508,0.661c1.197,-0 2.137,-0.936 2.137,-2.227c-0,-1.292 -0.94,-2.228 -2.137,-2.228Zm-0.086,0.693c0.873,-0 1.467,0.684 1.467,1.534c0,0.851 -0.58,1.54 -1.467,1.54c-0.864,-0 -1.467,-0.662 -1.467,-1.54c-0,-0.873 0.603,-1.534 1.467,-1.534Z" style="fill:#004153;fill-rule:nonzero;"/><path d="M83.139,394.69c-0.508,0 -0.954,0.234 -1.251,0.652l0,-0.562l-0.724,0l0,4.275l0.733,-0l0,-2.381c0,-0.787 0.459,-1.287 1.112,-1.287c0.243,0 0.531,0.059 0.733,0.167l0.18,-0.725c-0.229,-0.098 -0.477,-0.139 -0.783,-0.139Z" style="fill:#004153;fill-rule:nonzero;"/><path d="M86.69,394.69c-1.296,0 -2.259,0.958 -2.259,2.227c0,1.27 0.963,2.228 2.259,2.228c1.296,-0 2.263,-0.958 2.263,-2.228c0,-1.269 -0.967,-2.227 -2.263,-2.227Zm0,0.693c0.855,-0 1.508,0.639 1.508,1.534c-0,0.896 -0.653,1.54 -1.508,1.54c-0.86,-0 -1.508,-0.644 -1.508,-1.54c0,-0.895 0.648,-1.534 1.508,-1.534Z" style="fill:#004153;fill-rule:nonzero;"/><path d="M92,394.69c-1.202,0 -2.137,0.936 -2.137,2.227c-0,1.292 0.935,2.228 2.137,2.228c0.671,-0 1.17,-0.261 1.508,-0.661l-0,0.571l0.737,-0l0,-6.48l-0.737,0l-0,2.781c-0.338,-0.405 -0.837,-0.666 -1.508,-0.666Zm0.086,0.693c0.864,-0 1.467,0.661 1.467,1.534c-0,0.878 -0.603,1.54 -1.467,1.54c-0.878,-0 -1.472,-0.689 -1.472,-1.54c-0,-0.85 0.58,-1.534 1.472,-1.534Z" style="fill:#004153;fill-rule:nonzero;"/><path d="M99.659,394.78l-0.738,0l0,2.417c0,0.873 -0.517,1.26 -1.21,1.26c-0.698,-0 -1.216,-0.387 -1.216,-1.26l0,-2.417l-0.737,0l-0,2.484c-0,1.292 0.922,1.881 1.953,1.881c1.021,-0 1.948,-0.589 1.948,-1.881l-0,-2.484Z" style="fill:#004153;fill-rule:nonzero;"/><path d="M103.065,394.69c-1.323,0 -2.218,0.958 -2.218,2.227c0,1.27 0.895,2.228 2.218,2.228c0.635,-0 1.202,-0.234 1.589,-0.67l-0.455,-0.509c-0.297,0.288 -0.697,0.491 -1.152,0.491c-0.823,-0 -1.449,-0.644 -1.449,-1.54c0,-0.895 0.626,-1.534 1.449,-1.534c0.455,-0 0.819,0.175 1.134,0.481l0.473,-0.499c-0.383,-0.441 -0.954,-0.675 -1.589,-0.675Z" style="fill:#004153;fill-rule:nonzero;"/><path d="M108.744,394.78l-1.795,0l-0,-1.341l-0.738,0l0,1.341l-0.913,0l-0,0.67l0.913,0l0,2.097c0,1.089 0.553,1.598 1.48,1.598c0.527,-0 0.954,-0.185 1.283,-0.423l-0.347,-0.553c-0.243,0.166 -0.558,0.288 -0.873,0.288c-0.463,-0 -0.805,-0.279 -0.805,-0.923l-0,-2.084l1.795,0l0,-0.67Z" style="fill:#004153;fill-rule:nonzero;"/><path d="M112.165,394.69c-0.676,0 -1.175,0.261 -1.508,0.661l-0,-2.776l-0.733,0l-0,6.48l0.733,-0l-0,-0.572c0.333,0.401 0.832,0.662 1.508,0.662c1.197,-0 2.137,-0.936 2.137,-2.228c-0,-1.291 -0.94,-2.227 -2.137,-2.227Zm-0.086,0.693c0.873,-0 1.467,0.684 1.467,1.534c0,0.851 -0.58,1.54 -1.467,1.54c-0.864,-0 -1.467,-0.662 -1.467,-1.54c-0,-0.873 0.603,-1.534 1.467,-1.534Z" style="fill:#004153;fill-rule:nonzero;"/><path d="M117.47,394.69c-1.296,0 -2.259,0.958 -2.259,2.227c0,1.27 0.963,2.228 2.259,2.228c1.296,-0 2.263,-0.958 2.263,-2.228c0,-1.269 -0.967,-2.227 -2.263,-2.227Zm0,0.693c0.855,-0 1.508,0.639 1.508,1.534c-0,0.896 -0.653,1.54 -1.508,1.54c-0.86,-0 -1.508,-0.644 -1.508,-1.54c0,-0.895 0.648,-1.534 1.508,-1.534Z" style="fill:#004153;fill-rule:nonzero;"/><path d="M124.45,394.78l-0.869,0l-1.237,1.579l-1.229,-1.579l-0.9,0l1.647,2.092l-1.687,2.183l0.859,-0l1.269,-1.643l1.287,1.643l0.905,-0l-1.692,-2.192l1.647,-2.083Z" style="fill:#004153;fill-rule:nonzero;"/><rect x="23.528" y="32.031" width="3.969" height="13.331" style="fill:none;"/></g></svg>