<?xml version="1.0" encoding="UTF-8" standalone="no"?><!DOCTYPE svg PUBLIC "-//W3C//DTD SVG 1.1//EN" "http://www.w3.org/Graphics/SVG/1.1/DTD/svg11.dtd"><svg width="100%" height="100%" viewBox="0 0 298 420" version="1.1" xmlns="http://www.w3.org/2000/svg" xmlns:xlink="http://www.w3.org/1999/xlink" xml:space="preserve" xmlns:serif="http://www.serif.com/" style="fill-rule:evenodd;clip-rule:evenodd;"><g id="Ebene-1" serif:id="Ebene 1"><rect x="218.758" y="385.673" width="3.28" height="13.775" style="fill:#004153;"/><path d="M245.758,399.449l-0,-13.776l-3.28,0l-0,8.423l-6.298,-8.423l-3.148,0l-0,8.423l-6.271,-8.423l-3.149,0l-0,13.776l3.28,-0l-0,-8.397l6.271,8.397l3.175,-0l-0,-8.397l6.271,8.397l3.149,-0Z" style="fill:#004153;fill-rule:nonzero;"/><path d="M254.154,388.56c2.23,-0 3.831,1.627 3.831,3.988c-0,2.362 -1.601,3.988 -3.831,3.988c-2.257,0 -3.831,-1.626 -3.831,-3.988c0,-2.361 1.601,-3.988 3.831,-3.988m0,-3.149c-4.251,0 -7.268,3.044 -7.268,7.137c-0,4.093 3.017,7.137 7.268,7.137c4.251,0 7.268,-3.044 7.268,-7.137c0,-4.093 -3.017,-7.137 -7.268,-7.137" style="fill:#004153;fill-rule:nonzero;"/><path d="M269.609,388.56c2.23,-0 3.831,1.627 3.831,3.988c-0,0.446 -0.053,0.866 -0.158,1.26l-0.446,-0.604l-3.568,0l2.177,2.913c-0.524,0.262 -1.154,0.419 -1.81,0.419c-2.23,0 -3.831,-1.626 -3.831,-3.988c-0.026,-2.335 1.574,-3.988 3.805,-3.988m-0,-3.149c-4.251,0 -7.268,3.044 -7.268,7.137c-0,4.093 3.017,7.137 7.268,7.137c1.443,0 2.676,-0.394 3.726,-1.076l0.603,0.814l3.857,-0l-2.178,-2.939c0.761,-1.102 1.207,-2.388 1.207,-3.936c0.053,-4.093 -2.965,-7.137 -7.215,-7.137" style="fill:#f39260;fill-rule:nonzero;"/></g><g id="Ebene-11" serif:id="Ebene 1"><rect x="24.843" y="93.346" width="248.276" height="264.65" style="fill:#d8d8d8;stroke:#004153;stroke-width:10px;"/><g transform="matrix(1,0,0,1,148.819,65.9055)"><g transform="matrix(16,0,0,16,-128.976,-34.5435)"><path d="M0.594,-0.7l-0.581,0l-0,0.155l0.207,-0l0,0.545l0.167,-0l-0,-0.545l0.207,-0l-0,-0.155Z" style="fill:#004153;fill-rule:nonzero;"/></g><g transform="matrix(16,0,0,16,-119.272,-34.5435)"><path d="M0.211,-0.72l-0.156,-0l0,0.72l0.156,-0l0,-0.264c0,-0.064 0.036,-0.093 0.08,-0.093c0.049,-0 0.078,0.032 0.078,0.09l-0,0.267l0.156,-0l-0,-0.322c-0,-0.113 -0.076,-0.182 -0.174,-0.182c-0.061,0 -0.109,0.021 -0.14,0.065l0,-0.281Z" style="fill:#004153;fill-rule:nonzero;"/></g><g transform="matrix(16,0,0,16,-110.048,-34.5435)"><path d="M0.281,-0.504c-0.15,0 -0.252,0.107 -0.252,0.261c0,0.154 0.104,0.256 0.259,0.256c0.09,-0 0.164,-0.03 0.215,-0.08l-0.1,-0.095c-0.031,0.029 -0.071,0.044 -0.107,0.044c-0.055,-0 -0.093,-0.025 -0.106,-0.079l0.333,-0c0.002,-0.011 0.003,-0.033 0.003,-0.049c-0.001,-0.153 -0.1,-0.258 -0.245,-0.258Zm0,0.133c0.046,-0 0.076,0.026 0.089,0.075l-0.179,0c0.012,-0.049 0.041,-0.075 0.09,-0.075Z" style="fill:#004153;fill-rule:nonzero;"/></g><g transform="matrix(16,0,0,16,-97.5764,-34.5435)"><path d="M0.63,-0.638c-0.106,-0.059 -0.188,-0.074 -0.283,-0.074c-0.163,-0 -0.279,0.085 -0.281,0.221c-0.003,0.126 0.075,0.192 0.219,0.214l0.035,0.006c0.092,0.014 0.139,0.026 0.139,0.068c-0,0.043 -0.048,0.065 -0.112,0.065c-0.098,-0 -0.172,-0.037 -0.225,-0.074l-0.084,0.136c0.078,0.058 0.191,0.089 0.308,0.089c0.15,-0 0.293,-0.07 0.293,-0.236c0,-0.114 -0.085,-0.178 -0.221,-0.202l-0.029,-0.005c-0.078,-0.013 -0.144,-0.024 -0.144,-0.068c-0,-0.041 0.046,-0.063 0.11,-0.063c0.082,0 0.151,0.029 0.2,0.059l0.075,-0.136Z" style="fill:#004153;fill-rule:nonzero;"/></g><g transform="matrix(16,0,0,16,-86.7364,-34.5435)"><path d="M0.525,-0.49l-0.156,-0l0,0.266c0,0.063 -0.034,0.091 -0.081,0.091c-0.047,0 -0.08,-0.028 -0.08,-0.091l-0,-0.266l-0.156,-0l-0,0.28c-0,0.153 0.105,0.223 0.236,0.223c0.131,-0 0.237,-0.07 0.237,-0.223l-0,-0.28Z" style="fill:#004153;fill-rule:nonzero;"/></g><g transform="matrix(16,0,0,16,-77.5124,-34.5435)"><path d="M0.347,-0.504c-0.067,0 -0.112,0.028 -0.141,0.067l-0,-0.053l-0.151,-0l0,0.69l0.156,-0l-0,-0.247c0.029,0.035 0.072,0.06 0.136,0.06c0.131,-0 0.228,-0.114 0.228,-0.259c-0,-0.144 -0.097,-0.258 -0.228,-0.258Zm-0.038,0.146c0.063,-0 0.105,0.048 0.105,0.113c0,0.064 -0.042,0.112 -0.105,0.112c-0.062,0 -0.105,-0.047 -0.105,-0.112c0,-0.066 0.043,-0.113 0.105,-0.113Z" style="fill:#004153;fill-rule:nonzero;"/></g><g transform="matrix(16,0,0,16,-67.8484,-34.5435)"><path d="M0.281,-0.504c-0.15,0 -0.252,0.107 -0.252,0.261c0,0.154 0.104,0.256 0.259,0.256c0.09,-0 0.164,-0.03 0.215,-0.08l-0.1,-0.095c-0.031,0.029 -0.071,0.044 -0.107,0.044c-0.055,-0 -0.093,-0.025 -0.106,-0.079l0.333,-0c0.002,-0.011 0.003,-0.033 0.003,-0.049c-0.001,-0.153 -0.1,-0.258 -0.245,-0.258Zm0,0.133c0.046,-0 0.076,0.026 0.089,0.075l-0.179,0c0.012,-0.049 0.041,-0.075 0.09,-0.075Z" style="fill:#004153;fill-rule:nonzero;"/></g><g transform="matrix(16,0,0,16,-58.9684,-34.5435)"><path d="M0.339,-0.504c-0.06,0 -0.106,0.023 -0.134,0.07l-0,-0.056l-0.15,-0l0,0.49l0.156,-0l0,-0.265c0,-0.061 0.034,-0.089 0.09,-0.089c0.028,0 0.057,0.006 0.078,0.013l0.015,-0.155c-0.012,-0.004 -0.032,-0.008 -0.055,-0.008Z" style="fill:#004153;fill-rule:nonzero;"/></g><g transform="matrix(16,0,0,16,-52.6084,-34.5435)"><path d="M0.549,-0.49l-0.151,-0l0,0.053c-0.029,-0.039 -0.074,-0.067 -0.141,-0.067c-0.131,0 -0.228,0.114 -0.228,0.258c0,0.145 0.097,0.259 0.228,0.259c0.067,-0 0.112,-0.028 0.141,-0.066l0,0.053l0.151,-0l0,-0.49Zm-0.254,0.132c0.061,-0 0.105,0.047 0.105,0.113c-0,0.065 -0.044,0.112 -0.105,0.112c-0.063,0 -0.105,-0.048 -0.105,-0.112c-0,-0.065 0.042,-0.113 0.105,-0.113Z" style="fill:#004153;fill-rule:nonzero;"/></g><g transform="matrix(16,0,0,16,-42.9444,-34.5435)"><path d="M0.339,-0.504c-0.06,0 -0.106,0.023 -0.134,0.07l-0,-0.056l-0.15,-0l0,0.49l0.156,-0l0,-0.265c0,-0.061 0.034,-0.089 0.09,-0.089c0.028,0 0.057,0.006 0.078,0.013l0.015,-0.155c-0.012,-0.004 -0.032,-0.008 -0.055,-0.008Z" style="fill:#004153;fill-rule:nonzero;"/></g><g transform="matrix(16,0,0,16,-36.5844,-34.5435)"><path d="M0.293,-0.504c-0.156,0 -0.264,0.108 -0.264,0.259c0,0.15 0.108,0.258 0.264,0.258c0.091,-0 0.163,-0.04 0.21,-0.106l-0.122,-0.087c-0.024,0.031 -0.055,0.047 -0.092,0.047c-0.055,0 -0.1,-0.041 -0.1,-0.112c-0,-0.071 0.046,-0.113 0.101,-0.113c0.038,-0 0.066,0.015 0.09,0.047l0.123,-0.086c-0.047,-0.066 -0.119,-0.107 -0.21,-0.107Z" style="fill:#004153;fill-rule:nonzero;"/></g><g transform="matrix(16,0,0,16,-28.2804,-34.5435)"><path d="M0.211,-0.72l-0.156,-0l0,0.72l0.156,-0l0,-0.264c0,-0.064 0.036,-0.093 0.08,-0.093c0.049,-0 0.078,0.032 0.078,0.09l-0,0.267l0.156,-0l-0,-0.322c-0,-0.113 -0.076,-0.182 -0.174,-0.182c-0.061,0 -0.109,0.021 -0.14,0.065l0,-0.281Z" style="fill:#004153;fill-rule:nonzero;"/></g><g transform="matrix(16,0,0,16,-19.0564,-34.5435)"><path d="M0.211,-0.49l-0.156,-0l0,0.49l0.156,-0l0,-0.49Zm-0.078,-0.245c-0.053,-0 -0.094,0.041 -0.094,0.094c0,0.052 0.041,0.093 0.094,0.093c0.052,-0 0.093,-0.041 0.093,-0.093c-0,-0.053 -0.041,-0.094 -0.093,-0.094Z" style="fill:#004153;fill-rule:nonzero;"/></g><g transform="matrix(16,0,0,16,-14.8004,-34.5435)"><path d="M0.432,-0.49l-0.168,-0l0,-0.143l-0.156,-0l0,0.143l-0.091,-0l-0,0.138l0.091,-0l0,0.164c0,0.123 0.06,0.201 0.191,0.201c0.079,-0 0.128,-0.023 0.174,-0.055l-0.054,-0.121c-0.025,0.014 -0.056,0.03 -0.085,0.03c-0.04,0 -0.07,-0.019 -0.07,-0.075l0,-0.144l0.168,-0l-0,-0.138Z" style="fill:#004153;fill-rule:nonzero;"/></g><g transform="matrix(16,0,0,16,-7.32838,-34.5435)"><path d="M0.281,-0.504c-0.15,0 -0.252,0.107 -0.252,0.261c0,0.154 0.104,0.256 0.259,0.256c0.09,-0 0.164,-0.03 0.215,-0.08l-0.1,-0.095c-0.031,0.029 -0.071,0.044 -0.107,0.044c-0.055,-0 -0.093,-0.025 -0.106,-0.079l0.333,-0c0.002,-0.011 0.003,-0.033 0.003,-0.049c-0.001,-0.153 -0.1,-0.258 -0.245,-0.258Zm0,0.133c0.046,-0 0.076,0.026 0.089,0.075l-0.179,0c0.012,-0.049 0.041,-0.075 0.09,-0.075Z" style="fill:#004153;fill-rule:nonzero;"/></g><g transform="matrix(16,0,0,16,1.55162,-34.5435)"><path d="M0.293,-0.504c-0.156,0 -0.264,0.108 -0.264,0.259c0,0.15 0.108,0.258 0.264,0.258c0.091,-0 0.163,-0.04 0.21,-0.106l-0.122,-0.087c-0.024,0.031 -0.055,0.047 -0.092,0.047c-0.055,0 -0.1,-0.041 -0.1,-0.112c-0,-0.071 0.046,-0.113 0.101,-0.113c0.038,-0 0.066,0.015 0.09,0.047l0.123,-0.086c-0.047,-0.066 -0.119,-0.107 -0.21,-0.107Z" style="fill:#004153;fill-rule:nonzero;"/></g><g transform="matrix(16,0,0,16,9.93562,-34.5435)"><path d="M0.432,-0.49l-0.168,-0l0,-0.143l-0.156,-0l0,0.143l-0.091,-0l-0,0.138l0.091,-0l0,0.164c0,0.123 0.06,0.201 0.191,0.201c0.079,-0 0.128,-0.023 0.174,-0.055l-0.054,-0.121c-0.025,0.014 -0.056,0.03 -0.085,0.03c-0.04,0 -0.07,-0.019 -0.07,-0.075l0,-0.144l0.168,-0l-0,-0.138Z" style="fill:#004153;fill-rule:nonzero;"/></g><g transform="matrix(16,0,0,16,17.4076,-34.5435)"><path d="M0.295,-0.504c-0.153,0 -0.266,0.11 -0.266,0.259c0,0.148 0.113,0.258 0.266,0.258c0.154,-0 0.266,-0.11 0.266,-0.258c0,-0.149 -0.112,-0.259 -0.266,-0.259Zm-0,0.146c0.062,-0 0.107,0.046 0.107,0.113c-0,0.066 -0.045,0.112 -0.107,0.112c-0.061,0 -0.106,-0.046 -0.106,-0.112c-0,-0.067 0.045,-0.113 0.106,-0.113Z" style="fill:#004153;fill-rule:nonzero;"/></g><g transform="matrix(16,0,0,16,26.8556,-34.5435)"><path d="M0.257,-0.504c-0.131,0 -0.228,0.114 -0.228,0.258c0,0.145 0.097,0.259 0.228,0.259c0.067,-0 0.112,-0.028 0.141,-0.066l0,0.053l0.151,-0l-0,-0.72l-0.156,0l0,0.277c-0.029,-0.036 -0.073,-0.061 -0.136,-0.061Zm0.038,0.146c0.061,-0 0.105,0.047 0.105,0.112c-0,0.066 -0.044,0.113 -0.105,0.113c-0.063,0 -0.105,-0.048 -0.105,-0.112c-0,-0.065 0.042,-0.113 0.105,-0.113Z" style="fill:#004153;fill-rule:nonzero;"/></g><g transform="matrix(16,0,0,16,36.5116,-34.5435)"><path d="M0.295,-0.504c-0.153,0 -0.266,0.11 -0.266,0.259c0,0.148 0.113,0.258 0.266,0.258c0.154,-0 0.266,-0.11 0.266,-0.258c0,-0.149 -0.112,-0.259 -0.266,-0.259Zm-0,0.146c0.062,-0 0.107,0.046 0.107,0.113c-0,0.066 -0.045,0.112 -0.107,0.112c-0.061,0 -0.106,-0.046 -0.106,-0.112c-0,-0.067 0.045,-0.113 0.106,-0.113Z" style="fill:#004153;fill-rule:nonzero;"/></g><g transform="matrix(16,0,0,16,45.9596,-34.5435)"><path d="M0.351,-0.504c-0.066,0 -0.115,0.024 -0.146,0.075l-0,-0.061l-0.15,-0l0,0.49l0.156,-0l0,-0.264c0,-0.064 0.036,-0.093 0.08,-0.093c0.049,-0 0.078,0.032 0.078,0.09l-0,0.267l0.156,-0l-0,-0.322c-0,-0.113 -0.076,-0.182 -0.174,-0.182Z" style="fill:#004153;fill-rule:nonzero;"/></g><g transform="matrix(12,0,0,12,-128.976,-11.6396)"><path d="M1.069,-0.7l-0.09,0l-0.188,0.601l-0.191,-0.601l-0.1,-0l-0.192,0.601l-0.187,-0.601l-0.093,0l0.225,0.7l0.108,0l0.188,-0.584l0.187,0.584l0.109,0l0.224,-0.7Z" style="fill:#004153;fill-rule:nonzero;"/></g><g transform="matrix(12,0,0,12,-115.812,-11.6396)"><path d="M0.168,-0.72l-0.081,0l-0,0.72l0.081,-0l-0,-0.267c-0,-0.088 0.064,-0.141 0.141,-0.141c0.082,0 0.13,0.052 0.13,0.139l0,0.269l0.082,-0l-0,-0.295c-0,-0.114 -0.081,-0.19 -0.198,-0.19c-0.055,0 -0.116,0.018 -0.155,0.071l-0,-0.306Z" style="fill:#004153;fill-rule:nonzero;"/></g><g transform="matrix(12,0,0,12,-108.582,-11.6396)"><path d="M0.537,-0.475l-0.081,0l-0,0.064c-0.038,-0.045 -0.093,-0.074 -0.168,-0.074c-0.134,0 -0.237,0.104 -0.237,0.247c-0,0.144 0.103,0.248 0.237,0.248c0.075,-0 0.13,-0.029 0.168,-0.073l-0,0.063l0.081,-0l0,-0.475Zm-0.239,0.067c0.096,-0 0.163,0.073 0.163,0.17c-0,0.098 -0.067,0.172 -0.163,0.172c-0.098,-0 -0.164,-0.077 -0.164,-0.172c-0,-0.094 0.064,-0.17 0.164,-0.17Z" style="fill:#004153;fill-rule:nonzero;"/></g><g transform="matrix(12,0,0,12,-101.094,-11.6396)"><path d="M0.409,-0.475l-0.2,0l0,-0.149l-0.081,0l-0,0.149l-0.102,0l0,0.074l0.102,0l-0,0.234c-0,0.121 0.061,0.177 0.164,0.177c0.058,-0 0.106,-0.021 0.142,-0.047l-0.038,-0.061c-0.027,0.018 -0.062,0.032 -0.097,0.032c-0.052,-0 -0.09,-0.031 -0.09,-0.103l0,-0.232l0.2,0l-0,-0.074Z" style="fill:#004153;fill-rule:nonzero;"/></g><g transform="matrix(12,0,0,12,-92.4424,-11.6396)"><path d="M0.537,-0.475l-0.081,0l-0,0.064c-0.038,-0.045 -0.093,-0.074 -0.168,-0.074c-0.134,0 -0.237,0.104 -0.237,0.247c-0,0.144 0.103,0.248 0.237,0.248c0.075,-0 0.13,-0.029 0.168,-0.073l-0,0.063l0.081,-0l0,-0.475Zm-0.239,0.067c0.096,-0 0.163,0.073 0.163,0.17c-0,0.098 -0.067,0.172 -0.163,0.172c-0.098,-0 -0.164,-0.077 -0.164,-0.172c-0,-0.094 0.064,-0.17 0.164,-0.17Z" style="fill:#004153;fill-rule:nonzero;"/></g><g transform="matrix(12,0,0,12,-84.9544,-11.6396)"><path d="M0.306,-0.485c-0.057,0 -0.106,0.026 -0.139,0.072l-0,-0.062l-0.08,0l-0,0.475l0.081,-0l-0,-0.264c-0,-0.088 0.051,-0.144 0.123,-0.144c0.027,0 0.059,0.007 0.082,0.019l0.02,-0.08c-0.026,-0.011 -0.053,-0.016 -0.087,-0.016Z" style="fill:#004153;fill-rule:nonzero;"/></g><g transform="matrix(12,0,0,12,-80.1664,-11.6396)"><path d="M0.287,-0.485c-0.137,0 -0.236,0.101 -0.236,0.247c-0,0.149 0.099,0.248 0.241,0.248c0.07,-0 0.136,-0.017 0.194,-0.072l-0.043,-0.056c-0.04,0.035 -0.091,0.057 -0.146,0.057c-0.082,-0 -0.151,-0.049 -0.162,-0.148l0.373,0c0.001,-0.009 0.002,-0.02 0.002,-0.03c-0.001,-0.146 -0.094,-0.246 -0.223,-0.246Zm-0.002,0.072c0.077,0 0.132,0.054 0.142,0.139l-0.291,-0c0.012,-0.082 0.065,-0.139 0.149,-0.139Z" style="fill:#004153;fill-rule:nonzero;"/></g><g transform="matrix(12,0,0,12,-70.3204,-11.6396)"><path d="M0.409,-0.475l-0.2,0l0,-0.149l-0.081,0l-0,0.149l-0.102,0l0,0.074l0.102,0l-0,0.234c-0,0.121 0.061,0.177 0.164,0.177c0.058,-0 0.106,-0.021 0.142,-0.047l-0.038,-0.061c-0.027,0.018 -0.062,0.032 -0.097,0.032c-0.052,-0 -0.09,-0.031 -0.09,-0.103l0,-0.232l0.2,0l-0,-0.074Z" style="fill:#004153;fill-rule:nonzero;"/></g><g transform="matrix(12,0,0,12,-64.8784,-11.6396)"><path d="M0.168,-0.72l-0.081,0l-0,0.72l0.081,-0l-0,-0.267c-0,-0.088 0.064,-0.141 0.141,-0.141c0.082,0 0.13,0.052 0.13,0.139l0,0.269l0.082,-0l-0,-0.295c-0,-0.114 -0.081,-0.19 -0.198,-0.19c-0.055,0 -0.116,0.018 -0.155,0.071l-0,-0.306Z" style="fill:#004153;fill-rule:nonzero;"/></g><g transform="matrix(12,0,0,12,-57.6484,-11.6396)"><path d="M0.287,-0.485c-0.137,0 -0.236,0.101 -0.236,0.247c-0,0.149 0.099,0.248 0.241,0.248c0.07,-0 0.136,-0.017 0.194,-0.072l-0.043,-0.056c-0.04,0.035 -0.091,0.057 -0.146,0.057c-0.082,-0 -0.151,-0.049 -0.162,-0.148l0.373,0c0.001,-0.009 0.002,-0.02 0.002,-0.03c-0.001,-0.146 -0.094,-0.246 -0.223,-0.246Zm-0.002,0.072c0.077,0 0.132,0.054 0.142,0.139l-0.291,-0c0.012,-0.082 0.065,-0.139 0.149,-0.139Z" style="fill:#004153;fill-rule:nonzero;"/></g><g transform="matrix(12,0,0,12,-47.8024,-11.6396)"><path d="M0.396,-0.475l-0.183,0l0,-0.081c0,-0.062 0.025,-0.098 0.082,-0.098c0.035,0 0.07,0.013 0.095,0.028l0.03,-0.068c-0.034,-0.021 -0.077,-0.036 -0.131,-0.036c-0.112,0 -0.157,0.074 -0.157,0.174l-0,0.081l-0.106,0l0,0.074l0.106,0l-0,0.401l0.081,-0l0,-0.401l0.183,0l-0,-0.074Z" style="fill:#004153;fill-rule:nonzero;"/></g><g transform="matrix(12,0,0,12,-42.8764,-11.6396)"><path d="M0.301,-0.485c-0.144,0 -0.25,0.106 -0.25,0.247c-0,0.142 0.106,0.248 0.25,0.248c0.145,-0 0.252,-0.106 0.252,-0.248c-0,-0.141 -0.107,-0.247 -0.252,-0.247Zm0,0.077c0.096,-0 0.168,0.071 0.168,0.17c0,0.1 -0.072,0.172 -0.168,0.172c-0.095,-0 -0.167,-0.072 -0.167,-0.172c-0,-0.099 0.072,-0.17 0.167,-0.17Z" style="fill:#004153;fill-rule:nonzero;"/></g><g transform="matrix(12,0,0,12,-35.6344,-11.6396)"><path d="M0.515,-0.475l-0.082,0l0,0.269c0,0.097 -0.057,0.14 -0.135,0.14c-0.077,-0 -0.135,-0.043 -0.135,-0.14l0,-0.269l-0.081,0l-0,0.276c-0,0.144 0.102,0.209 0.216,0.209c0.114,-0 0.217,-0.065 0.217,-0.209l-0,-0.276Z" style="fill:#004153;fill-rule:nonzero;"/></g><g transform="matrix(12,0,0,12,-28.4764,-11.6396)"><path d="M0.306,-0.485c-0.057,0 -0.106,0.026 -0.139,0.072l-0,-0.062l-0.08,0l-0,0.475l0.081,-0l-0,-0.264c-0,-0.088 0.051,-0.144 0.123,-0.144c0.027,0 0.059,0.007 0.082,0.019l0.02,-0.08c-0.026,-0.011 -0.053,-0.016 -0.087,-0.016Z" style="fill:#004153;fill-rule:nonzero;"/></g><g transform="matrix(12,0,0,12,-20.3704,-11.6396)"><path d="M0.442,-0.433c-0.046,-0.031 -0.114,-0.051 -0.19,-0.051c-0.115,-0 -0.19,0.054 -0.19,0.145c-0,0.072 0.051,0.121 0.157,0.134l0.056,0.006c0.064,0.008 0.095,0.03 0.095,0.065c0,0.047 -0.048,0.073 -0.126,0.073c-0.08,-0 -0.127,-0.023 -0.162,-0.051l-0.038,0.061c0.062,0.047 0.141,0.061 0.199,0.061c0.13,-0 0.211,-0.058 0.211,-0.149c-0,-0.078 -0.059,-0.121 -0.16,-0.135l-0.056,-0.007c-0.057,-0.007 -0.092,-0.024 -0.092,-0.062c0,-0.043 0.042,-0.071 0.107,-0.071c0.063,0 0.124,0.024 0.154,0.044l0.035,-0.063Z" style="fill:#004153;fill-rule:nonzero;"/></g><g transform="matrix(12,0,0,12,-14.4064,-11.6396)"><path d="M0.515,-0.475l-0.082,0l0,0.269c0,0.097 -0.057,0.14 -0.135,0.14c-0.077,-0 -0.135,-0.043 -0.135,-0.14l0,-0.269l-0.081,0l-0,0.276c-0,0.144 0.102,0.209 0.216,0.209c0.114,-0 0.217,-0.065 0.217,-0.209l-0,-0.276Z" style="fill:#004153;fill-rule:nonzero;"/></g><g transform="matrix(12,0,0,12,-7.24838,-11.6396)"><path d="M0.336,-0.485c-0.076,0 -0.131,0.029 -0.168,0.073l-0,-0.063l-0.081,0l-0,0.675l0.081,-0l-0,-0.263c0.037,0.044 0.092,0.073 0.168,0.073c0.133,-0 0.237,-0.104 0.237,-0.247c-0,-0.144 -0.104,-0.248 -0.237,-0.248Zm-0.01,0.077c0.097,-0 0.163,0.076 0.163,0.17c0,0.095 -0.064,0.172 -0.163,0.172c-0.096,-0 -0.163,-0.074 -0.163,-0.172c-0,-0.097 0.067,-0.17 0.163,-0.17Z" style="fill:#004153;fill-rule:nonzero;"/></g><g transform="matrix(12,0,0,12,0.233622,-11.6396)"><path d="M0.287,-0.485c-0.137,0 -0.236,0.101 -0.236,0.247c-0,0.149 0.099,0.248 0.241,0.248c0.07,-0 0.136,-0.017 0.194,-0.072l-0.043,-0.056c-0.04,0.035 -0.091,0.057 -0.146,0.057c-0.082,-0 -0.151,-0.049 -0.162,-0.148l0.373,0c0.001,-0.009 0.002,-0.02 0.002,-0.03c-0.001,-0.146 -0.094,-0.246 -0.223,-0.246Zm-0.002,0.072c0.077,0 0.132,0.054 0.142,0.139l-0.291,-0c0.012,-0.082 0.065,-0.139 0.149,-0.139Z" style="fill:#004153;fill-rule:nonzero;"/></g><g transform="matrix(12,0,0,12,6.95962,-11.6396)"><path d="M0.306,-0.485c-0.057,0 -0.106,0.026 -0.139,0.072l-0,-0.062l-0.08,0l-0,0.475l0.081,-0l-0,-0.264c-0,-0.088 0.051,-0.144 0.123,-0.144c0.027,0 0.059,0.007 0.082,0.019l0.02,-0.08c-0.026,-0.011 -0.053,-0.016 -0.087,-0.016Z" style="fill:#004153;fill-rule:nonzero;"/></g><g transform="matrix(12,0,0,12,11.9876,-11.6396)"><path d="M0.336,-0.485c-0.076,0 -0.131,0.029 -0.168,0.073l-0,-0.063l-0.081,0l-0,0.675l0.081,-0l-0,-0.263c0.037,0.044 0.092,0.073 0.168,0.073c0.133,-0 0.237,-0.104 0.237,-0.247c-0,-0.144 -0.104,-0.248 -0.237,-0.248Zm-0.01,0.077c0.097,-0 0.163,0.076 0.163,0.17c0,0.095 -0.064,0.172 -0.163,0.172c-0.096,-0 -0.163,-0.074 -0.163,-0.172c-0,-0.097 0.067,-0.17 0.163,-0.17Z" style="fill:#004153;fill-rule:nonzero;"/></g><g transform="matrix(12,0,0,12,19.4696,-11.6396)"><path d="M0.301,-0.485c-0.144,0 -0.25,0.106 -0.25,0.247c-0,0.142 0.106,0.248 0.25,0.248c0.145,-0 0.252,-0.106 0.252,-0.248c-0,-0.141 -0.107,-0.247 -0.252,-0.247Zm0,0.077c0.096,-0 0.168,0.071 0.168,0.17c0,0.1 -0.072,0.172 -0.168,0.172c-0.095,-0 -0.167,-0.072 -0.167,-0.172c-0,-0.099 0.072,-0.17 0.167,-0.17Z" style="fill:#004153;fill-rule:nonzero;"/></g><g transform="matrix(12,0,0,12,26.6756,-11.6396)"><path d="M0.471,-0.475l-0.093,0l-0.135,0.388l-0.135,-0.388l-0.087,0l0.171,0.475l0.096,-0l0.135,-0.386l0.136,0.386l0.098,-0l0.171,-0.475l-0.086,0l-0.135,0.389l-0.136,-0.389Z" style="fill:#004153;fill-rule:nonzero;"/></g><g transform="matrix(12,0,0,12,36.8576,-11.6396)"><path d="M0.287,-0.485c-0.137,0 -0.236,0.101 -0.236,0.247c-0,0.149 0.099,0.248 0.241,0.248c0.07,-0 0.136,-0.017 0.194,-0.072l-0.043,-0.056c-0.04,0.035 -0.091,0.057 -0.146,0.057c-0.082,-0 -0.151,-0.049 -0.162,-0.148l0.373,0c0.001,-0.009 0.002,-0.02 0.002,-0.03c-0.001,-0.146 -0.094,-0.246 -0.223,-0.246Zm-0.002,0.072c0.077,0 0.132,0.054 0.142,0.139l-0.291,-0c0.012,-0.082 0.065,-0.139 0.149,-0.139Z" style="fill:#004153;fill-rule:nonzero;"/></g><g transform="matrix(12,0,0,12,43.5836,-11.6396)"><path d="M0.306,-0.485c-0.057,0 -0.106,0.026 -0.139,0.072l-0,-0.062l-0.08,0l-0,0.475l0.081,-0l-0,-0.264c-0,-0.088 0.051,-0.144 0.123,-0.144c0.027,0 0.059,0.007 0.082,0.019l0.02,-0.08c-0.026,-0.011 -0.053,-0.016 -0.087,-0.016Z" style="fill:#004153;fill-rule:nonzero;"/></g><g transform="matrix(12,0,0,12,48.5096,-11.6396)"><path d="M0.442,-0.433c-0.046,-0.031 -0.114,-0.051 -0.19,-0.051c-0.115,-0 -0.19,0.054 -0.19,0.145c-0,0.072 0.051,0.121 0.157,0.134l0.056,0.006c0.064,0.008 0.095,0.03 0.095,0.065c0,0.047 -0.048,0.073 -0.126,0.073c-0.08,-0 -0.127,-0.023 -0.162,-0.051l-0.038,0.061c0.062,0.047 0.141,0.061 0.199,0.061c0.13,-0 0.211,-0.058 0.211,-0.149c-0,-0.078 -0.059,-0.121 -0.16,-0.135l-0.056,-0.007c-0.057,-0.007 -0.092,-0.024 -0.092,-0.062c0,-0.043 0.042,-0.071 0.107,-0.071c0.063,0 0.124,0.024 0.154,0.044l0.035,-0.063Z" style="fill:#004153;fill-rule:nonzero;"/></g><g transform="matrix(12,0,0,12,57.6836,-11.6396)"><path d="M0.537,-0.475l-0.081,0l-0,0.064c-0.038,-0.045 -0.093,-0.074 -0.168,-0.074c-0.134,0 -0.237,0.104 -0.237,0.247c-0,0.144 0.103,0.248 0.237,0.248c0.075,-0 0.13,-0.029 0.168,-0.073l-0,0.063l0.081,-0l0,-0.475Zm-0.239,0.067c0.096,-0 0.163,0.073 0.163,0.17c-0,0.098 -0.067,0.172 -0.163,0.172c-0.098,-0 -0.164,-0.077 -0.164,-0.172c-0,-0.094 0.064,-0.17 0.164,-0.17Z" style="fill:#004153;fill-rule:nonzero;"/></g><g transform="matrix(12,0,0,12,68.3816,-11.6396)"><path d="M0.442,-0.433c-0.046,-0.031 -0.114,-0.051 -0.19,-0.051c-0.115,-0 -0.19,0.054 -0.19,0.145c-0,0.072 0.051,0.121 0.157,0.134l0.056,0.006c0.064,0.008 0.095,0.03 0.095,0.065c0,0.047 -0.048,0.073 -0.126,0.073c-0.08,-0 -0.127,-0.023 -0.162,-0.051l-0.038,0.061c0.062,0.047 0.141,0.061 0.199,0.061c0.13,-0 0.211,-0.058 0.211,-0.149c-0,-0.078 -0.059,-0.121 -0.16,-0.135l-0.056,-0.007c-0.057,-0.007 -0.092,-0.024 -0.092,-0.062c0,-0.043 0.042,-0.071 0.107,-0.071c0.063,0 0.124,0.024 0.154,0.044l0.035,-0.063Z" style="fill:#004153;fill-rule:nonzero;"/></g><g transform="matrix(12,0,0,12,74.3456,-11.6396)"><path d="M0.301,-0.485c-0.144,0 -0.25,0.106 -0.25,0.247c-0,0.142 0.106,0.248 0.25,0.248c0.145,-0 0.252,-0.106 0.252,-0.248c-0,-0.141 -0.107,-0.247 -0.252,-0.247Zm0,0.077c0.096,-0 0.168,0.071 0.168,0.17c0,0.1 -0.072,0.172 -0.168,0.172c-0.095,-0 -0.167,-0.072 -0.167,-0.172c-0,-0.099 0.072,-0.17 0.167,-0.17Z" style="fill:#004153;fill-rule:nonzero;"/></g><g transform="matrix(12,0,0,12,81.5276,-11.6396)"><path d="M0.396,-0.475l-0.183,0l0,-0.081c0,-0.062 0.025,-0.098 0.082,-0.098c0.035,0 0.07,0.013 0.095,0.028l0.03,-0.068c-0.034,-0.021 -0.077,-0.036 -0.131,-0.036c-0.112,0 -0.157,0.074 -0.157,0.174l-0,0.081l-0.106,0l0,0.074l0.106,0l-0,0.401l0.081,-0l0,-0.401l0.183,0l-0,-0.074Z" style="fill:#004153;fill-rule:nonzero;"/></g><g transform="matrix(12,0,0,12,86.5376,-11.6396)"><path d="M0.409,-0.475l-0.2,0l0,-0.149l-0.081,0l-0,0.149l-0.102,0l0,0.074l0.102,0l-0,0.234c-0,0.121 0.061,0.177 0.164,0.177c0.058,-0 0.106,-0.021 0.142,-0.047l-0.038,-0.061c-0.027,0.018 -0.062,0.032 -0.097,0.032c-0.052,-0 -0.09,-0.031 -0.09,-0.103l0,-0.232l0.2,0l-0,-0.074Z" style="fill:#004153;fill-rule:nonzero;"/></g><g transform="matrix(12,0,0,12,91.9796,-11.6396)"><path d="M0.471,-0.475l-0.093,0l-0.135,0.388l-0.135,-0.388l-0.087,0l0.171,0.475l0.096,-0l0.135,-0.386l0.136,0.386l0.098,-0l0.171,-0.475l-0.086,0l-0.135,0.389l-0.136,-0.389Z" style="fill:#004153;fill-rule:nonzero;"/></g><g transform="matrix(12,0,0,12,102.162,-11.6396)"><path d="M0.537,-0.475l-0.081,0l-0,0.064c-0.038,-0.045 -0.093,-0.074 -0.168,-0.074c-0.134,0 -0.237,0.104 -0.237,0.247c-0,0.144 0.103,0.248 0.237,0.248c0.075,-0 0.13,-0.029 0.168,-0.073l-0,0.063l0.081,-0l0,-0.475Zm-0.239,0.067c0.096,-0 0.163,0.073 0.163,0.17c-0,0.098 -0.067,0.172 -0.163,0.172c-0.098,-0 -0.164,-0.077 -0.164,-0.172c-0,-0.094 0.064,-0.17 0.164,-0.17Z" style="fill:#004153;fill-rule:nonzero;"/></g><g transform="matrix(12,0,0,12,109.65,-11.6396)"><path d="M0.306,-0.485c-0.057,0 -0.106,0.026 -0.139,0.072l-0,-0.062l-0.08,0l-0,0.475l0.081,-0l-0,-0.264c-0,-0.088 0.051,-0.144 0.123,-0.144c0.027,0 0.059,0.007 0.082,0.019l0.02,-0.08c-0.026,-0.011 -0.053,-0.016 -0.087,-0.016Z" style="fill:#004153;fill-rule:nonzero;"/></g><g transform="matrix(12,0,0,12,114.438,-11.6396)"><path d="M0.287,-0.485c-0.137,0 -0.236,0.101 -0.236,0.247c-0,0.149 0.099,0.248 0.241,0.248c0.07,-0 0.136,-0.017 0.194,-0.072l-0.043,-0.056c-0.04,0.035 -0.091,0.057 -0.146,0.057c-0.082,-0 -0.151,-0.049 -0.162,-0.148l0.373,0c0.001,-0.009 0.002,-0.02 0.002,-0.03c-0.001,-0.146 -0.094,-0.246 -0.223,-0.246Zm-0.002,0.072c0.077,0 0.132,0.054 0.142,0.139l-0.291,-0c0.012,-0.082 0.065,-0.139 0.149,-0.139Z" style="fill:#004153;fill-rule:nonzero;"/></g><g transform="matrix(12,0,0,12,-128.976,2.76045)"><path d="M0.537,-0.475l-0.081,0l-0,0.064c-0.038,-0.045 -0.093,-0.074 -0.168,-0.074c-0.134,0 -0.237,0.104 -0.237,0.247c-0,0.144 0.103,0.248 0.237,0.248c0.075,-0 0.13,-0.029 0.168,-0.073l-0,0.063l0.081,-0l0,-0.475Zm-0.239,0.067c0.096,-0 0.163,0.073 0.163,0.17c-0,0.098 -0.067,0.172 -0.163,0.172c-0.098,-0 -0.164,-0.077 -0.164,-0.172c-0,-0.094 0.064,-0.17 0.164,-0.17Z" style="fill:#004153;fill-rule:nonzero;"/></g><g transform="matrix(12,0,0,12,-121.488,2.76045)"><path d="M0.306,-0.485c-0.057,0 -0.106,0.026 -0.139,0.072l-0,-0.062l-0.08,0l-0,0.475l0.081,-0l-0,-0.264c-0,-0.088 0.051,-0.144 0.123,-0.144c0.027,0 0.059,0.007 0.082,0.019l0.02,-0.08c-0.026,-0.011 -0.053,-0.016 -0.087,-0.016Z" style="fill:#004153;fill-rule:nonzero;"/></g><g transform="matrix(12,0,0,12,-116.7,2.76045)"><path d="M0.297,-0.485c-0.147,0 -0.246,0.106 -0.246,0.247c-0,0.142 0.099,0.248 0.246,0.248c0.07,-0 0.133,-0.026 0.176,-0.074l-0.05,-0.057c-0.033,0.032 -0.078,0.055 -0.128,0.055c-0.092,-0 -0.161,-0.072 -0.161,-0.172c-0,-0.099 0.069,-0.17 0.161,-0.17c0.05,-0 0.091,0.019 0.126,0.053l0.052,-0.055c-0.042,-0.049 -0.106,-0.075 -0.176,-0.075Z" style="fill:#004153;fill-rule:nonzero;"/></g><g transform="matrix(12,0,0,12,-110.55,2.76045)"><path d="M0.168,-0.72l-0.081,0l-0,0.72l0.081,-0l-0,-0.267c-0,-0.088 0.064,-0.141 0.141,-0.141c0.082,0 0.13,0.052 0.13,0.139l0,0.269l0.082,-0l-0,-0.295c-0,-0.114 -0.081,-0.19 -0.198,-0.19c-0.055,0 -0.116,0.018 -0.155,0.071l-0,-0.306Z" style="fill:#004153;fill-rule:nonzero;"/></g><g transform="matrix(12,0,0,12,-103.32,2.76045)"><path d="M0.168,-0.475l-0.081,0l-0,0.475l0.081,-0l-0,-0.475Zm-0.041,-0.225c-0.033,-0 -0.058,0.025 -0.058,0.058c0,0.033 0.025,0.057 0.058,0.057c0.032,0 0.058,-0.024 0.058,-0.057c-0,-0.033 -0.026,-0.058 -0.058,-0.058Z" style="fill:#004153;fill-rule:nonzero;"/></g><g transform="matrix(12,0,0,12,-100.266,2.76045)"><path d="M0.409,-0.475l-0.2,0l0,-0.149l-0.081,0l-0,0.149l-0.102,0l0,0.074l0.102,0l-0,0.234c-0,0.121 0.061,0.177 0.164,0.177c0.058,-0 0.106,-0.021 0.142,-0.047l-0.038,-0.061c-0.027,0.018 -0.062,0.032 -0.097,0.032c-0.052,-0 -0.09,-0.031 -0.09,-0.103l0,-0.232l0.2,0l-0,-0.074Z" style="fill:#004153;fill-rule:nonzero;"/></g><g transform="matrix(12,0,0,12,-94.8364,2.76045)"><path d="M0.287,-0.485c-0.137,0 -0.236,0.101 -0.236,0.247c-0,0.149 0.099,0.248 0.241,0.248c0.07,-0 0.136,-0.017 0.194,-0.072l-0.043,-0.056c-0.04,0.035 -0.091,0.057 -0.146,0.057c-0.082,-0 -0.151,-0.049 -0.162,-0.148l0.373,0c0.001,-0.009 0.002,-0.02 0.002,-0.03c-0.001,-0.146 -0.094,-0.246 -0.223,-0.246Zm-0.002,0.072c0.077,0 0.132,0.054 0.142,0.139l-0.291,-0c0.012,-0.082 0.065,-0.139 0.149,-0.139Z" style="fill:#004153;fill-rule:nonzero;"/></g><g transform="matrix(12,0,0,12,-88.1104,2.76045)"><path d="M0.297,-0.485c-0.147,0 -0.246,0.106 -0.246,0.247c-0,0.142 0.099,0.248 0.246,0.248c0.07,-0 0.133,-0.026 0.176,-0.074l-0.05,-0.057c-0.033,0.032 -0.078,0.055 -0.128,0.055c-0.092,-0 -0.161,-0.072 -0.161,-0.172c-0,-0.099 0.069,-0.17 0.161,-0.17c0.05,-0 0.091,0.019 0.126,0.053l0.052,-0.055c-0.042,-0.049 -0.106,-0.075 -0.176,-0.075Z" style="fill:#004153;fill-rule:nonzero;"/></g><g transform="matrix(12,0,0,12,-81.8824,2.76045)"><path d="M0.409,-0.475l-0.2,0l0,-0.149l-0.081,0l-0,0.149l-0.102,0l0,0.074l0.102,0l-0,0.234c-0,0.121 0.061,0.177 0.164,0.177c0.058,-0 0.106,-0.021 0.142,-0.047l-0.038,-0.061c-0.027,0.018 -0.062,0.032 -0.097,0.032c-0.052,-0 -0.09,-0.031 -0.09,-0.103l0,-0.232l0.2,0l-0,-0.074Z" style="fill:#004153;fill-rule:nonzero;"/></g><g transform="matrix(12,0,0,12,-73.2304,2.76045)"><path d="M0.323,-0.485c-0.055,0 -0.117,0.019 -0.156,0.072l0,-0.062l-0.08,0l-0,0.475l0.081,-0l-0,-0.266c-0,-0.089 0.064,-0.142 0.141,-0.142c0.082,0 0.13,0.052 0.13,0.139l0,0.269l0.082,-0l-0,-0.295c-0,-0.114 -0.081,-0.19 -0.198,-0.19Z" style="fill:#004153;fill-rule:nonzero;"/></g><g transform="matrix(12,0,0,12,-66.0004,2.76045)"><path d="M0.287,-0.485c-0.137,0 -0.236,0.101 -0.236,0.247c-0,0.149 0.099,0.248 0.241,0.248c0.07,-0 0.136,-0.017 0.194,-0.072l-0.043,-0.056c-0.04,0.035 -0.091,0.057 -0.146,0.057c-0.082,-0 -0.151,-0.049 -0.162,-0.148l0.373,0c0.001,-0.009 0.002,-0.02 0.002,-0.03c-0.001,-0.146 -0.094,-0.246 -0.223,-0.246Zm-0.002,0.072c0.077,0 0.132,0.054 0.142,0.139l-0.291,-0c0.012,-0.082 0.065,-0.139 0.149,-0.139Z" style="fill:#004153;fill-rule:nonzero;"/></g><g transform="matrix(12,0,0,12,-59.2744,2.76045)"><path d="M0.287,-0.485c-0.137,0 -0.236,0.101 -0.236,0.247c-0,0.149 0.099,0.248 0.241,0.248c0.07,-0 0.136,-0.017 0.194,-0.072l-0.043,-0.056c-0.04,0.035 -0.091,0.057 -0.146,0.057c-0.082,-0 -0.151,-0.049 -0.162,-0.148l0.373,0c0.001,-0.009 0.002,-0.02 0.002,-0.03c-0.001,-0.146 -0.094,-0.246 -0.223,-0.246Zm-0.002,0.072c0.077,0 0.132,0.054 0.142,0.139l-0.291,-0c0.012,-0.082 0.065,-0.139 0.149,-0.139Z" style="fill:#004153;fill-rule:nonzero;"/></g><g transform="matrix(12,0,0,12,-52.5484,2.76045)"><path d="M0.288,-0.485c-0.134,0 -0.237,0.104 -0.237,0.247c-0,0.144 0.103,0.248 0.237,0.248c0.075,-0 0.13,-0.029 0.168,-0.073l-0,0.063l0.081,-0l0,-0.72l-0.081,0l-0,0.309c-0.038,-0.045 -0.093,-0.074 -0.168,-0.074Zm0.01,0.077c0.096,-0 0.163,0.073 0.163,0.17c-0,0.098 -0.067,0.172 -0.163,0.172c-0.098,-0 -0.164,-0.077 -0.164,-0.172c-0,-0.094 0.064,-0.17 0.164,-0.17Z" style="fill:#004153;fill-rule:nonzero;"/></g><g transform="matrix(12,0,0,12,-45.0604,2.76045)"><path d="M0.442,-0.433c-0.046,-0.031 -0.114,-0.051 -0.19,-0.051c-0.115,-0 -0.19,0.054 -0.19,0.145c-0,0.072 0.051,0.121 0.157,0.134l0.056,0.006c0.064,0.008 0.095,0.03 0.095,0.065c0,0.047 -0.048,0.073 -0.126,0.073c-0.08,-0 -0.127,-0.023 -0.162,-0.051l-0.038,0.061c0.062,0.047 0.141,0.061 0.199,0.061c0.13,-0 0.211,-0.058 0.211,-0.149c-0,-0.078 -0.059,-0.121 -0.16,-0.135l-0.056,-0.007c-0.057,-0.007 -0.092,-0.024 -0.092,-0.062c0,-0.043 0.042,-0.071 0.107,-0.071c0.063,0 0.124,0.024 0.154,0.044l0.035,-0.063Z" style="fill:#004153;fill-rule:nonzero;"/></g><g transform="matrix(12,0,0,12,-35.8864,2.76045)"><path d="M0.168,-0.475l-0.081,0l-0,0.475l0.081,-0l-0,-0.475Zm-0.041,-0.225c-0.033,-0 -0.058,0.025 -0.058,0.058c0,0.033 0.025,0.057 0.058,0.057c0.032,0 0.058,-0.024 0.058,-0.057c-0,-0.033 -0.026,-0.058 -0.058,-0.058Z" style="fill:#004153;fill-rule:nonzero;"/></g><g transform="matrix(12,0,0,12,-32.8324,2.76045)"><path d="M0.323,-0.485c-0.055,0 -0.117,0.019 -0.156,0.072l0,-0.062l-0.08,0l-0,0.475l0.081,-0l-0,-0.266c-0,-0.089 0.064,-0.142 0.141,-0.142c0.082,0 0.13,0.052 0.13,0.139l0,0.269l0.082,-0l-0,-0.295c-0,-0.114 -0.081,-0.19 -0.198,-0.19Z" style="fill:#004153;fill-rule:nonzero;"/></g><g transform="matrix(12,0,0,12,-22.6144,2.76045)"><path d="M0.525,-0.475l-0.09,0l-0.163,0.292l-0.171,-0.292l-0.091,0l0.217,0.373l-0.176,0.304l0.09,0l0.384,-0.677Z" style="fill:#004153;fill-rule:nonzero;"/></g><g transform="matrix(12,0,0,12,-16.3324,2.76045)"><path d="M0.301,-0.485c-0.144,0 -0.25,0.106 -0.25,0.247c-0,0.142 0.106,0.248 0.25,0.248c0.145,-0 0.252,-0.106 0.252,-0.248c-0,-0.141 -0.107,-0.247 -0.252,-0.247Zm0,0.077c0.096,-0 0.168,0.071 0.168,0.17c0,0.1 -0.072,0.172 -0.168,0.172c-0.095,-0 -0.167,-0.072 -0.167,-0.172c-0,-0.099 0.072,-0.17 0.167,-0.17Z" style="fill:#004153;fill-rule:nonzero;"/></g><g transform="matrix(12,0,0,12,-9.09038,2.76045)"><path d="M0.515,-0.475l-0.082,0l0,0.269c0,0.097 -0.057,0.14 -0.135,0.14c-0.077,-0 -0.135,-0.043 -0.135,-0.14l0,-0.269l-0.081,0l-0,0.276c-0,0.144 0.102,0.209 0.216,0.209c0.114,-0 0.217,-0.065 0.217,-0.209l-0,-0.276Z" style="fill:#004153;fill-rule:nonzero;"/></g><g transform="matrix(12,0,0,12,-1.93238,2.76045)"><path d="M0.306,-0.485c-0.057,0 -0.106,0.026 -0.139,0.072l-0,-0.062l-0.08,0l-0,0.475l0.081,-0l-0,-0.264c-0,-0.088 0.051,-0.144 0.123,-0.144c0.027,0 0.059,0.007 0.082,0.019l0.02,-0.08c-0.026,-0.011 -0.053,-0.016 -0.087,-0.016Z" style="fill:#004153;fill-rule:nonzero;"/></g><g transform="matrix(12,0,0,12,6.17362,2.76045)"><path d="M0.442,-0.433c-0.046,-0.031 -0.114,-0.051 -0.19,-0.051c-0.115,-0 -0.19,0.054 -0.19,0.145c-0,0.072 0.051,0.121 0.157,0.134l0.056,0.006c0.064,0.008 0.095,0.03 0.095,0.065c0,0.047 -0.048,0.073 -0.126,0.073c-0.08,-0 -0.127,-0.023 -0.162,-0.051l-0.038,0.061c0.062,0.047 0.141,0.061 0.199,0.061c0.13,-0 0.211,-0.058 0.211,-0.149c-0,-0.078 -0.059,-0.121 -0.16,-0.135l-0.056,-0.007c-0.057,-0.007 -0.092,-0.024 -0.092,-0.062c0,-0.043 0.042,-0.071 0.107,-0.071c0.063,0 0.124,0.024 0.154,0.044l0.035,-0.063Z" style="fill:#004153;fill-rule:nonzero;"/></g><g transform="matrix(12,0,0,12,12.1376,2.76045)"><path d="M0.301,-0.485c-0.144,0 -0.25,0.106 -0.25,0.247c-0,0.142 0.106,0.248 0.25,0.248c0.145,-0 0.252,-0.106 0.252,-0.248c-0,-0.141 -0.107,-0.247 -0.252,-0.247Zm0,0.077c0.096,-0 0.168,0.071 0.168,0.17c0,0.1 -0.072,0.172 -0.168,0.172c-0.095,-0 -0.167,-0.072 -0.167,-0.172c-0,-0.099 0.072,-0.17 0.167,-0.17Z" style="fill:#004153;fill-rule:nonzero;"/></g><g transform="matrix(12,0,0,12,19.3196,2.76045)"><path d="M0.396,-0.475l-0.183,0l0,-0.081c0,-0.062 0.025,-0.098 0.082,-0.098c0.035,0 0.07,0.013 0.095,0.028l0.03,-0.068c-0.034,-0.021 -0.077,-0.036 -0.131,-0.036c-0.112,0 -0.157,0.074 -0.157,0.174l-0,0.081l-0.106,0l0,0.074l0.106,0l-0,0.401l0.081,-0l0,-0.401l0.183,0l-0,-0.074Z" style="fill:#004153;fill-rule:nonzero;"/></g><g transform="matrix(12,0,0,12,24.3296,2.76045)"><path d="M0.409,-0.475l-0.2,0l0,-0.149l-0.081,0l-0,0.149l-0.102,0l0,0.074l0.102,0l-0,0.234c-0,0.121 0.061,0.177 0.164,0.177c0.058,-0 0.106,-0.021 0.142,-0.047l-0.038,-0.061c-0.027,0.018 -0.062,0.032 -0.097,0.032c-0.052,-0 -0.09,-0.031 -0.09,-0.103l0,-0.232l0.2,0l-0,-0.074Z" style="fill:#004153;fill-rule:nonzero;"/></g><g transform="matrix(12,0,0,12,29.7716,2.76045)"><path d="M0.471,-0.475l-0.093,0l-0.135,0.388l-0.135,-0.388l-0.087,0l0.171,0.475l0.096,-0l0.135,-0.386l0.136,0.386l0.098,-0l0.171,-0.475l-0.086,0l-0.135,0.389l-0.136,-0.389Z" style="fill:#004153;fill-rule:nonzero;"/></g><g transform="matrix(12,0,0,12,39.9536,2.76045)"><path d="M0.537,-0.475l-0.081,0l-0,0.064c-0.038,-0.045 -0.093,-0.074 -0.168,-0.074c-0.134,0 -0.237,0.104 -0.237,0.247c-0,0.144 0.103,0.248 0.237,0.248c0.075,-0 0.13,-0.029 0.168,-0.073l-0,0.063l0.081,-0l0,-0.475Zm-0.239,0.067c0.096,-0 0.163,0.073 0.163,0.17c-0,0.098 -0.067,0.172 -0.163,0.172c-0.098,-0 -0.164,-0.077 -0.164,-0.172c-0,-0.094 0.064,-0.17 0.164,-0.17Z" style="fill:#004153;fill-rule:nonzero;"/></g><g transform="matrix(12,0,0,12,47.4416,2.76045)"><path d="M0.306,-0.485c-0.057,0 -0.106,0.026 -0.139,0.072l-0,-0.062l-0.08,0l-0,0.475l0.081,-0l-0,-0.264c-0,-0.088 0.051,-0.144 0.123,-0.144c0.027,0 0.059,0.007 0.082,0.019l0.02,-0.08c-0.026,-0.011 -0.053,-0.016 -0.087,-0.016Z" style="fill:#004153;fill-rule:nonzero;"/></g><g transform="matrix(12,0,0,12,52.2296,2.76045)"><path d="M0.287,-0.485c-0.137,0 -0.236,0.101 -0.236,0.247c-0,0.149 0.099,0.248 0.241,0.248c0.07,-0 0.136,-0.017 0.194,-0.072l-0.043,-0.056c-0.04,0.035 -0.091,0.057 -0.146,0.057c-0.082,-0 -0.151,-0.049 -0.162,-0.148l0.373,0c0.001,-0.009 0.002,-0.02 0.002,-0.03c-0.001,-0.146 -0.094,-0.246 -0.223,-0.246Zm-0.002,0.072c0.077,0 0.132,0.054 0.142,0.139l-0.291,-0c0.012,-0.082 0.065,-0.139 0.149,-0.139Z" style="fill:#004153;fill-rule:nonzero;"/></g><g transform="matrix(12,0,0,12,62.1656,2.76045)"><path d="M0.336,-0.485c-0.076,0 -0.131,0.029 -0.168,0.073l-0,-0.063l-0.081,0l-0,0.675l0.081,-0l-0,-0.263c0.037,0.044 0.092,0.073 0.168,0.073c0.133,-0 0.237,-0.104 0.237,-0.247c-0,-0.144 -0.104,-0.248 -0.237,-0.248Zm-0.01,0.077c0.097,-0 0.163,0.076 0.163,0.17c0,0.095 -0.064,0.172 -0.163,0.172c-0.096,-0 -0.163,-0.074 -0.163,-0.172c-0,-0.097 0.067,-0.17 0.163,-0.17Z" style="fill:#004153;fill-rule:nonzero;"/></g><g transform="matrix(12,0,0,12,69.6476,2.76045)"><path d="M0.306,-0.485c-0.057,0 -0.106,0.026 -0.139,0.072l-0,-0.062l-0.08,0l-0,0.475l0.081,-0l-0,-0.264c-0,-0.088 0.051,-0.144 0.123,-0.144c0.027,0 0.059,0.007 0.082,0.019l0.02,-0.08c-0.026,-0.011 -0.053,-0.016 -0.087,-0.016Z" style="fill:#004153;fill-rule:nonzero;"/></g><g transform="matrix(12,0,0,12,74.4356,2.76045)"><path d="M0.301,-0.485c-0.144,0 -0.25,0.106 -0.25,0.247c-0,0.142 0.106,0.248 0.25,0.248c0.145,-0 0.252,-0.106 0.252,-0.248c-0,-0.141 -0.107,-0.247 -0.252,-0.247Zm0,0.077c0.096,-0 0.168,0.071 0.168,0.17c0,0.1 -0.072,0.172 -0.168,0.172c-0.095,-0 -0.167,-0.072 -0.167,-0.172c-0,-0.099 0.072,-0.17 0.167,-0.17Z" style="fill:#004153;fill-rule:nonzero;"/></g><g transform="matrix(12,0,0,12,81.6776,2.76045)"><path d="M0.17,-0.475l-0.081,0l-0,0.545c-0,0.043 -0.02,0.061 -0.049,0.061c-0.015,0 -0.03,-0.004 -0.042,-0.009l-0.02,0.07c0.018,0.009 0.045,0.016 0.069,0.016c0.075,-0 0.123,-0.047 0.123,-0.134l0,-0.549Zm-0.041,-0.225c-0.033,-0 -0.058,0.025 -0.058,0.058c0,0.033 0.025,0.057 0.058,0.057c0.032,0 0.058,-0.024 0.058,-0.057c-0,-0.033 -0.026,-0.058 -0.058,-0.058Z" style="fill:#004153;fill-rule:nonzero;"/></g><g transform="matrix(12,0,0,12,84.7616,2.76045)"><path d="M0.287,-0.485c-0.137,0 -0.236,0.101 -0.236,0.247c-0,0.149 0.099,0.248 0.241,0.248c0.07,-0 0.136,-0.017 0.194,-0.072l-0.043,-0.056c-0.04,0.035 -0.091,0.057 -0.146,0.057c-0.082,-0 -0.151,-0.049 -0.162,-0.148l0.373,0c0.001,-0.009 0.002,-0.02 0.002,-0.03c-0.001,-0.146 -0.094,-0.246 -0.223,-0.246Zm-0.002,0.072c0.077,0 0.132,0.054 0.142,0.139l-0.291,-0c0.012,-0.082 0.065,-0.139 0.149,-0.139Z" style="fill:#004153;fill-rule:nonzero;"/></g><g transform="matrix(12,0,0,12,91.4876,2.76045)"><path d="M0.297,-0.485c-0.147,0 -0.246,0.106 -0.246,0.247c-0,0.142 0.099,0.248 0.246,0.248c0.07,-0 0.133,-0.026 0.176,-0.074l-0.05,-0.057c-0.033,0.032 -0.078,0.055 -0.128,0.055c-0.092,-0 -0.161,-0.072 -0.161,-0.172c-0,-0.099 0.069,-0.17 0.161,-0.17c0.05,-0 0.091,0.019 0.126,0.053l0.052,-0.055c-0.042,-0.049 -0.106,-0.075 -0.176,-0.075Z" style="fill:#004153;fill-rule:nonzero;"/></g><g transform="matrix(12,0,0,12,97.7156,2.76045)"><path d="M0.409,-0.475l-0.2,0l0,-0.149l-0.081,0l-0,0.149l-0.102,0l0,0.074l0.102,0l-0,0.234c-0,0.121 0.061,0.177 0.164,0.177c0.058,-0 0.106,-0.021 0.142,-0.047l-0.038,-0.061c-0.027,0.018 -0.062,0.032 -0.097,0.032c-0.052,-0 -0.09,-0.031 -0.09,-0.103l0,-0.232l0.2,0l-0,-0.074Z" style="fill:#004153;fill-rule:nonzero;"/></g><g transform="matrix(12,0,0,12,103.158,2.76045)"><path d="M0.177,-0.225l0.004,-0.082c0.145,-0.016 0.226,-0.088 0.226,-0.205c0,-0.122 -0.099,-0.201 -0.262,-0.201c-0.026,0 -0.06,0.003 -0.082,0.006l0.007,0.084c0.019,-0.002 0.045,-0.004 0.071,-0.004c0.109,-0 0.175,0.044 0.175,0.118c0,0.08 -0.065,0.127 -0.178,0.127l-0.035,-0l0,0.157l0.074,0Zm-0.037,0.098c-0.036,0 -0.068,0.032 -0.068,0.068c-0,0.037 0.032,0.069 0.068,0.069c0.036,-0 0.068,-0.032 0.068,-0.069c-0,-0.036 -0.032,-0.068 -0.068,-0.068Z" style="fill:#004153;fill-rule:nonzero;"/></g></g><path d="M22.515,394.69c-1.323,0 -2.218,0.958 -2.218,2.227c0,1.27 0.895,2.228 2.218,2.228c0.635,-0 1.202,-0.234 1.589,-0.67l-0.455,-0.509c-0.297,0.288 -0.697,0.491 -1.152,0.491c-0.823,-0 -1.449,-0.644 -1.449,-1.54c0,-0.895 0.626,-1.534 1.449,-1.534c0.455,-0 0.819,0.175 1.134,0.481l0.473,-0.499c-0.383,-0.441 -0.954,-0.675 -1.589,-0.675Z" style="fill:#004153;fill-rule:nonzero;"/><path d="M29.216,394.78l-0.738,0l0,0.576c-0.337,-0.405 -0.837,-0.666 -1.507,-0.666c-1.202,0 -2.138,0.936 -2.138,2.227c0,1.292 0.936,2.228 2.138,2.228c0.67,-0 1.17,-0.261 1.507,-0.661l0,0.571l0.738,-0l-0,-4.275Zm-2.16,0.603c0.864,-0 1.467,0.661 1.467,1.534c0,0.878 -0.603,1.54 -1.467,1.54c-0.878,-0 -1.472,-0.689 -1.472,-1.54c0,-0.85 0.581,-1.534 1.472,-1.534Z" style="fill:#004153;fill-rule:nonzero;"/><path d="M32.748,394.69c-0.508,0 -0.954,0.234 -1.251,0.652l0,-0.562l-0.724,0l0,4.275l0.733,-0l0,-2.381c0,-0.787 0.459,-1.287 1.112,-1.287c0.243,0 0.531,0.059 0.733,0.167l0.18,-0.725c-0.229,-0.098 -0.477,-0.139 -0.783,-0.139Z" style="fill:#004153;fill-rule:nonzero;"/><path d="M36.178,394.69c-1.202,0 -2.138,0.936 -2.138,2.227c0,1.292 0.936,2.228 2.138,2.228c0.67,-0 1.17,-0.261 1.507,-0.661l0,0.571l0.738,-0l-0,-6.48l-0.738,0l0,2.781c-0.337,-0.405 -0.837,-0.666 -1.507,-0.666Zm0.085,0.693c0.864,-0 1.467,0.661 1.467,1.534c0,0.878 -0.603,1.54 -1.467,1.54c-0.878,-0 -1.472,-0.689 -1.472,-1.54c0,-0.85 0.581,-1.534 1.472,-1.534Z" style="fill:#004153;fill-rule:nonzero;"/><path d="M43.179,395.158c-0.413,-0.284 -1.03,-0.463 -1.705,-0.463c-1.04,-0 -1.719,0.494 -1.719,1.313c0,0.648 0.463,1.08 1.422,1.197l0.495,0.059c0.581,0.072 0.86,0.27 0.86,0.585c-0,0.423 -0.432,0.653 -1.135,0.653c-0.715,-0 -1.143,-0.207 -1.462,-0.455l-0.342,0.549c0.563,0.423 1.273,0.549 1.8,0.549c1.166,-0 1.894,-0.527 1.894,-1.341c0,-0.707 -0.535,-1.089 -1.444,-1.211l-0.495,-0.063c-0.518,-0.063 -0.828,-0.22 -0.828,-0.562c-0,-0.387 0.378,-0.635 0.963,-0.635c0.563,0 1.107,0.212 1.377,0.396l0.319,-0.571Z" style="fill:#004153;fill-rule:nonzero;"/><path d="M47.58,395.293l-0.76,0l0,1.742l-1.998,-0l2.304,-4.271l-0.864,0l-2.353,4.405l-0,0.585l2.911,0l0,1.301l0.76,-0l0,-1.301l1.049,0l-0,-0.719l-1.049,-0l0,-1.742Z" style="fill:#004153;fill-rule:nonzero;"/><path d="M49.79,394.159c0.302,-0.405 0.675,-0.765 1.377,-0.765c0.797,-0 1.256,0.535 1.256,1.237c-0,0.518 -0.252,0.941 -0.63,1.337l-2.358,2.489l-0,0.598l3.982,-0l-0,-0.724l-2.853,-0l1.809,-1.922c0.405,-0.428 0.846,-0.99 0.846,-1.773c-0,-1.13 -0.747,-1.971 -2.034,-1.971c-1.089,0 -1.647,0.612 -1.944,1.048l0.549,0.446Z" style="fill:#004153;fill-rule:nonzero;"/><path d="M55.141,397.912c-0.329,0 -0.617,0.283 -0.617,0.612c0,0.333 0.288,0.621 0.617,0.621c0.328,-0 0.611,-0.288 0.611,-0.621c0,-0.329 -0.283,-0.612 -0.611,-0.612Z" style="fill:#004153;fill-rule:nonzero;"/><path d="M58.966,394.69c-1.297,0 -2.259,0.958 -2.259,2.227c-0,1.27 0.962,2.228 2.259,2.228c1.296,-0 2.263,-0.958 2.263,-2.228c-0,-1.269 -0.967,-2.227 -2.263,-2.227Zm-0,0.693c0.855,-0 1.507,0.639 1.507,1.534c0,0.896 -0.652,1.54 -1.507,1.54c-0.86,-0 -1.508,-0.644 -1.508,-1.54c-0,-0.895 0.648,-1.534 1.508,-1.534Z" style="fill:#004153;fill-rule:nonzero;"/><path d="M64.437,394.69c-0.508,0 -0.954,0.234 -1.251,0.652l0,-0.562l-0.724,0l0,4.275l0.733,-0l0,-2.381c0,-0.787 0.459,-1.287 1.112,-1.287c0.243,0 0.531,0.059 0.733,0.167l0.18,-0.725c-0.229,-0.098 -0.477,-0.139 -0.783,-0.139Z" style="fill:#004153;fill-rule:nonzero;"/><path d="M67.844,394.69c-1.202,0 -2.115,0.891 -2.115,2.191c0,1.306 0.913,2.196 2.115,2.196c0.662,0 1.148,-0.256 1.472,-0.665l-0,0.377c-0,0.95 -0.617,1.468 -1.535,1.468c-0.554,-0 -1.062,-0.185 -1.472,-0.478l-0.319,0.595c0.436,0.35 1.125,0.553 1.791,0.553c1.35,-0 2.272,-0.787 2.272,-2.169l0,-3.978l-0.737,0l-0,0.581c-0.324,-0.41 -0.81,-0.671 -1.472,-0.671Zm0.086,0.693c0.85,-0 1.449,0.648 1.449,1.498c-0,0.855 -0.599,1.504 -1.449,1.504c-0.878,-0 -1.45,-0.671 -1.45,-1.504c0,-0.823 0.572,-1.498 1.45,-1.498Z" style="fill:#004153;fill-rule:nonzero;"/><path d="M75.4,392.125l-0.81,0l-3.821,7.83l0.81,-0l3.821,-7.83Z" style="fill:#004153;fill-rule:nonzero;"/><path d="M78.572,395.158c-0.414,-0.284 -1.03,-0.463 -1.705,-0.463c-1.04,-0 -1.719,0.494 -1.719,1.313c-0,0.648 0.463,1.08 1.421,1.197l0.496,0.059c0.58,0.072 0.859,0.27 0.859,0.585c0,0.423 -0.432,0.653 -1.134,0.653c-0.716,-0 -1.143,-0.207 -1.462,-0.455l-0.342,0.549c0.562,0.423 1.273,0.549 1.799,0.549c1.166,-0 1.895,-0.527 1.895,-1.341c-0,-0.707 -0.535,-1.089 -1.444,-1.211l-0.496,-0.063c-0.517,-0.063 -0.828,-0.22 -0.828,-0.562c0,-0.387 0.378,-0.635 0.964,-0.635c0.562,0 1.107,0.212 1.377,0.396l0.319,-0.571Z" style="fill:#004153;fill-rule:nonzero;"/><path d="M83.702,394.78l-0.738,0l0,2.417c0,0.873 -0.517,1.26 -1.21,1.26c-0.698,-0 -1.216,-0.387 -1.216,-1.26l0,-2.417l-0.737,0l-0,2.484c-0,1.292 0.922,1.881 1.953,1.881c1.021,-0 1.948,-0.589 1.948,-1.881l-0,-2.484Z" style="fill:#004153;fill-rule:nonzero;"/><path d="M87.455,394.69c-0.675,0 -1.175,0.261 -1.508,0.661l0,-0.571l-0.733,0l0,6.075l0.733,-0l0,-2.371c0.333,0.4 0.833,0.661 1.508,0.661c1.197,-0 2.137,-0.936 2.137,-2.227c0,-1.292 -0.94,-2.228 -2.137,-2.228Zm-0.085,0.693c0.873,-0 1.467,0.684 1.467,1.534c-0,0.851 -0.581,1.54 -1.467,1.54c-0.865,-0 -1.468,-0.662 -1.468,-1.54c0,-0.873 0.603,-1.534 1.468,-1.534Z" style="fill:#004153;fill-rule:nonzero;"/><path d="M92.626,394.69c-1.229,0 -2.124,0.913 -2.124,2.227c-0,1.332 0.899,2.228 2.169,2.228c0.63,-0 1.224,-0.153 1.754,-0.648l-0.391,-0.504c-0.364,0.315 -0.819,0.509 -1.318,0.509c-0.734,-0 -1.351,-0.437 -1.454,-1.324l3.361,0c0.005,-0.081 0.014,-0.18 0.014,-0.274c-0.009,-1.31 -0.846,-2.214 -2.011,-2.214Zm-0.014,0.652c0.693,0 1.184,0.486 1.274,1.243l-2.615,-0c0.112,-0.73 0.585,-1.243 1.341,-1.243Z" style="fill:#004153;fill-rule:nonzero;"/><path d="M97.845,394.69c-0.508,0 -0.954,0.234 -1.251,0.652l0,-0.562l-0.724,0l0,4.275l0.733,-0l0,-2.381c0,-0.787 0.459,-1.287 1.112,-1.287c0.243,0 0.531,0.059 0.733,0.167l0.18,-0.725c-0.229,-0.098 -0.477,-0.139 -0.783,-0.139Z" style="fill:#004153;fill-rule:nonzero;"/><path d="M101.882,394.69c-0.675,0 -1.175,0.261 -1.508,0.661l0,-0.571l-0.733,0l0,6.075l0.733,-0l0,-2.371c0.333,0.4 0.833,0.661 1.508,0.661c1.197,-0 2.137,-0.936 2.137,-2.227c0,-1.292 -0.94,-2.228 -2.137,-2.228Zm-0.085,0.693c0.873,-0 1.467,0.684 1.467,1.534c-0,0.851 -0.581,1.54 -1.467,1.54c-0.865,-0 -1.468,-0.662 -1.468,-1.54c0,-0.873 0.603,-1.534 1.468,-1.534Z" style="fill:#004153;fill-rule:nonzero;"/><path d="M107.188,394.69c-1.297,0 -2.259,0.958 -2.259,2.227c-0,1.27 0.962,2.228 2.259,2.228c1.296,-0 2.263,-0.958 2.263,-2.228c-0,-1.269 -0.967,-2.227 -2.263,-2.227Zm-0,0.693c0.855,-0 1.507,0.639 1.507,1.534c0,0.896 -0.652,1.54 -1.507,1.54c-0.86,-0 -1.508,-0.644 -1.508,-1.54c-0,-0.895 0.648,-1.534 1.508,-1.534Z" style="fill:#004153;fill-rule:nonzero;"/><path d="M114.118,394.78l-0.833,0l-1.219,3.496l-1.211,-3.496l-0.787,0l1.539,4.275l0.864,-0l1.219,-3.478l1.224,3.478l0.878,-0l1.539,-4.275l-0.77,0l-1.215,3.505l-1.228,-3.505Z" style="fill:#004153;fill-rule:nonzero;"/><path d="M120.094,394.69c-1.229,0 -2.124,0.913 -2.124,2.227c-0,1.332 0.899,2.228 2.169,2.228c0.63,-0 1.224,-0.153 1.754,-0.648l-0.391,-0.504c-0.364,0.315 -0.819,0.509 -1.318,0.509c-0.734,-0 -1.351,-0.437 -1.454,-1.324l3.361,0c0.005,-0.081 0.014,-0.18 0.014,-0.274c-0.009,-1.31 -0.846,-2.214 -2.011,-2.214Zm-0.014,0.652c0.693,0 1.184,0.486 1.274,1.243l-2.615,-0c0.112,-0.73 0.585,-1.243 1.341,-1.243Z" style="fill:#004153;fill-rule:nonzero;"/><path d="M125.313,394.69c-0.508,0 -0.954,0.234 -1.251,0.652l0,-0.562l-0.724,0l0,4.275l0.733,-0l0,-2.381c0,-0.787 0.459,-1.287 1.112,-1.287c0.243,0 0.531,0.059 0.733,0.167l0.18,-0.725c-0.229,-0.098 -0.477,-0.139 -0.783,-0.139Z" style="fill:#004153;fill-rule:nonzero;"/><path d="M130.232,395.158c-0.414,-0.284 -1.03,-0.463 -1.705,-0.463c-1.04,-0 -1.719,0.494 -1.719,1.313c-0,0.648 0.463,1.08 1.421,1.197l0.496,0.059c0.58,0.072 0.859,0.27 0.859,0.585c0,0.423 -0.432,0.653 -1.134,0.653c-0.716,-0 -1.143,-0.207 -1.462,-0.455l-0.342,0.549c0.562,0.423 1.273,0.549 1.799,0.549c1.166,-0 1.895,-0.527 1.895,-1.341c-0,-0.707 -0.535,-1.089 -1.444,-1.211l-0.496,-0.063c-0.517,-0.063 -0.828,-0.22 -0.828,-0.562c0,-0.387 0.378,-0.635 0.964,-0.635c0.562,0 1.107,0.212 1.377,0.396l0.319,-0.571Z" style="fill:#004153;fill-rule:nonzero;"/><g><path d="M119.824,191.521l58.32,0m0,0l15.506,86.727c0.171,0.979 -0.135,1.994 -0.778,2.571c-3.172,3.028 -6.981,4.775 -10.937,5.014c-6.814,0.217 -13.16,-4.413 -16.473,-12.018c-3.318,7.603 -9.663,12.231 -16.478,12.018c-6.815,0.216 -13.162,-4.413 -16.477,-12.018c-3.316,7.605 -9.662,12.234 -16.478,12.018c-3.957,-0.239 -7.768,-1.985 -10.941,-5.014c-0.642,-0.577 -0.949,-1.592 -0.777,-2.571l15.513,-86.727" style="fill:#f39260;fill-rule:nonzero;"/><path d="M148.744,154.761c11.663,0 21.118,8.716 21.118,19.466c0,10.752 -9.455,19.466 -21.118,19.466c-11.663,0 -21.118,-8.714 -21.118,-19.466c-0,-10.75 9.455,-19.466 21.118,-19.466Zm0,47.584c-15.551,-0 -28.157,11.62 -28.157,25.955l-0,17.303l14.078,-0l4.693,43.258l18.772,-0l4.693,-43.258l14.078,-0l0,-17.303c0,-14.335 -12.606,-25.955 -28.157,-25.955Z" style="fill:#004153;fill-rule:nonzero;stroke:#004153;stroke-width:6px;stroke-linecap:round;stroke-linejoin:round;"/></g><path d="M195.874,236.727" style="fill:#989799;fill-rule:nonzero;stroke:#1d1d1b;stroke-width:1px;"/><path d="M25.984,145.613l0,160.158l47.717,-6.149l-0,-146.922l-47.717,-7.087Z" style="fill:#fff;fill-rule:nonzero;stroke:#f39260;stroke-width:2px;"/><path d="M271.976,145.613l0,160.158l-47.716,-5.865l-0,-147.206l47.716,-7.087Z" style="fill:#fff;fill-rule:nonzero;stroke:#f39260;stroke-width:2px;"/><path d="M229.038,92.939l-160.157,0l5.315,47.717l147.755,-0l7.087,-47.717Z" style="fill:#fff;fill-rule:nonzero;stroke:#f39260;stroke-width:2px;"/><path d="M229.038,357.457l-160.157,-0l5.315,-47.717l147.755,0l7.087,47.717Z" style="fill:#fff;fill-rule:nonzero;stroke:#f39260;stroke-width:2px;"/></g></svg>