<?xml version="1.0" encoding="UTF-8" standalone="no"?><!DOCTYPE svg PUBLIC "-//W3C//DTD SVG 1.1//EN" "http://www.w3.org/Graphics/SVG/1.1/DTD/svg11.dtd"><svg width="100%" height="100%" viewBox="0 0 298 420" version="1.1" xmlns="http://www.w3.org/2000/svg" xmlns:xlink="http://www.w3.org/1999/xlink" xml:space="preserve" xmlns:serif="http://www.serif.com/" style="fill-rule:evenodd;clip-rule:evenodd;"><g id="Ebene-1" serif:id="Ebene 1"><rect x="218.758" y="385.673" width="3.28" height="13.775" style="fill:#f39260;"/><path d="M245.758,399.449l-0,-13.776l-3.28,0l-0,8.423l-6.298,-8.423l-3.148,0l-0,8.423l-6.271,-8.423l-3.149,0l-0,13.776l3.28,-0l-0,-8.397l6.271,8.397l3.175,-0l-0,-8.397l6.271,8.397l3.149,-0Z" style="fill:#f39260;fill-rule:nonzero;"/><path d="M254.154,388.56c2.23,-0 3.831,1.627 3.831,3.988c-0,2.362 -1.601,3.988 -3.831,3.988c-2.257,0 -3.831,-1.626 -3.831,-3.988c0,-2.361 1.601,-3.988 3.831,-3.988m0,-3.149c-4.251,0 -7.268,3.044 -7.268,7.137c-0,4.093 3.017,7.137 7.268,7.137c4.251,0 7.268,-3.044 7.268,-7.137c0,-4.093 -3.017,-7.137 -7.268,-7.137" style="fill:#f39260;fill-rule:nonzero;"/><path d="M269.609,388.56c2.23,-0 3.831,1.627 3.831,3.988c-0,0.446 -0.053,0.866 -0.158,1.26l-0.446,-0.604l-3.568,0l2.177,2.913c-0.524,0.262 -1.154,0.419 -1.81,0.419c-2.23,0 -3.831,-1.626 -3.831,-3.988c-0.026,-2.335 1.574,-3.988 3.805,-3.988m-0,-3.149c-4.251,0 -7.268,3.044 -7.268,7.137c-0,4.093 3.017,7.137 7.268,7.137c1.443,0 2.676,-0.394 3.726,-1.076l0.603,0.814l3.857,-0l-2.178,-2.939c0.761,-1.102 1.207,-2.388 1.207,-3.936c0.053,-4.093 -2.965,-7.137 -7.215,-7.137" style="fill:#004153;fill-rule:nonzero;"/></g><g id="Ebene-11" serif:id="Ebene 1"><path d="M241.545,126.323l-18.882,111.725" style="fill:none;fill-rule:nonzero;stroke:#004153;stroke-width:3px;"/><path d="M250.827,77.509c14.941,3.449 24.256,18.357 20.807,33.297c-3.449,14.941 -18.357,24.256 -33.298,20.807c-14.94,-3.449 -24.256,-18.357 -20.806,-33.298c3.449,-14.94 18.357,-24.256 33.297,-20.806Z" style="fill:#fff;fill-rule:nonzero;stroke:#f39260;stroke-width:4px;stroke-linecap:round;stroke-linejoin:round;"/><path d="M240.668,91.897l-1.277,8.065c-0.089,0.494 -0.47,0.883 -0.963,0.983c-4.662,1.086 -7.555,5.736 -6.461,10.385c1.094,4.65 5.761,7.539 10.423,6.452c4.663,-1.086 7.556,-5.735 6.462,-10.385c-0.537,-2.281 -1.979,-4.248 -3.997,-5.451c-0.427,-0.272 -0.648,-0.773 -0.56,-1.27l1.268,-8.004m1.616,24.638c0.508,1.315 1.719,2.231 3.126,2.362c2.009,0.123 3.773,-1.317 4.048,-3.305l3.06,-19.317c0.106,-0.674 -0.355,-1.307 -1.031,-1.414l-4.894,-0.775c-0.676,-0.107 -1.311,0.352 -1.417,1.026l-1.063,6.709m-17.203,7.903l16.429,2.602m-1.255,-21.454c0.107,-0.674 -0.354,-1.307 -1.03,-1.414l-4.895,-0.775c-0.675,-0.107 -1.31,0.352 -1.417,1.026c-0.106,0.673 0.355,1.306 1.031,1.413l4.895,0.775c0.675,0.107 1.31,-0.352 1.416,-1.025Zm9.661,10.282l-3.671,-0.581m3.091,4.24l-1.835,-0.29m1.256,3.949l-3.671,-0.581m3.091,4.241l-1.835,-0.291" style="fill:none;fill-rule:nonzero;stroke:#004153;stroke-width:2px;stroke-linecap:round;stroke-linejoin:round;"/><g transform="matrix(1,0,0,1,148.819,65.9055)"><g transform="matrix(16,0,0,16,-128.976,-34.5435)"><path d="M0.594,-0.7l-0.581,0l-0,0.155l0.207,-0l0,0.545l0.167,-0l-0,-0.545l0.207,-0l-0,-0.155Z" style="fill:#f39260;fill-rule:nonzero;"/></g><g transform="matrix(16,0,0,16,-120.696,-34.5435)"><path d="M0.281,-0.504c-0.15,0 -0.252,0.107 -0.252,0.261c0,0.154 0.104,0.256 0.259,0.256c0.09,-0 0.164,-0.03 0.215,-0.08l-0.1,-0.095c-0.031,0.029 -0.071,0.044 -0.107,0.044c-0.055,-0 -0.093,-0.025 -0.106,-0.079l0.333,-0c0.002,-0.011 0.003,-0.033 0.003,-0.049c-0.001,-0.153 -0.1,-0.258 -0.245,-0.258Zm0,0.133c0.046,-0 0.076,0.026 0.089,0.075l-0.179,0c0.012,-0.049 0.041,-0.075 0.09,-0.075Z" style="fill:#f39260;fill-rule:nonzero;"/></g><g transform="matrix(16,0,0,16,-111.816,-34.5435)"><path d="M0.293,-0.504c-0.156,0 -0.264,0.108 -0.264,0.259c0,0.15 0.108,0.258 0.264,0.258c0.091,-0 0.163,-0.04 0.21,-0.106l-0.122,-0.087c-0.024,0.031 -0.055,0.047 -0.092,0.047c-0.055,0 -0.1,-0.041 -0.1,-0.112c-0,-0.071 0.046,-0.113 0.101,-0.113c0.038,-0 0.066,0.015 0.09,0.047l0.123,-0.086c-0.047,-0.066 -0.119,-0.107 -0.21,-0.107Z" style="fill:#f39260;fill-rule:nonzero;"/></g><g transform="matrix(16,0,0,16,-103.512,-34.5435)"><path d="M0.211,-0.72l-0.156,-0l0,0.72l0.156,-0l0,-0.264c0,-0.064 0.036,-0.093 0.08,-0.093c0.049,-0 0.078,0.032 0.078,0.09l-0,0.267l0.156,-0l-0,-0.322c-0,-0.113 -0.076,-0.182 -0.174,-0.182c-0.061,0 -0.109,0.021 -0.14,0.065l0,-0.281Z" style="fill:#f39260;fill-rule:nonzero;"/></g><g transform="matrix(16,0,0,16,-94.2884,-34.5435)"><path d="M0.351,-0.504c-0.066,0 -0.115,0.024 -0.146,0.075l-0,-0.061l-0.15,-0l0,0.49l0.156,-0l0,-0.264c0,-0.064 0.036,-0.093 0.08,-0.093c0.049,-0 0.078,0.032 0.078,0.09l-0,0.267l0.156,-0l-0,-0.322c-0,-0.113 -0.076,-0.182 -0.174,-0.182Z" style="fill:#f39260;fill-rule:nonzero;"/></g><g transform="matrix(16,0,0,16,-85.0644,-34.5435)"><path d="M0.295,-0.504c-0.153,0 -0.266,0.11 -0.266,0.259c0,0.148 0.113,0.258 0.266,0.258c0.154,-0 0.266,-0.11 0.266,-0.258c0,-0.149 -0.112,-0.259 -0.266,-0.259Zm-0,0.146c0.062,-0 0.107,0.046 0.107,0.113c-0,0.066 -0.045,0.112 -0.107,0.112c-0.061,0 -0.106,-0.046 -0.106,-0.112c-0,-0.067 0.045,-0.113 0.106,-0.113Z" style="fill:#f39260;fill-rule:nonzero;"/></g><g transform="matrix(16,0,0,16,-75.6164,-34.5435)"><rect x="0.055" y="-0.72" width="0.156" height="0.72" style="fill:#f39260;fill-rule:nonzero;"/></g><g transform="matrix(16,0,0,16,-71.3604,-34.5435)"><path d="M0.295,-0.504c-0.153,0 -0.266,0.11 -0.266,0.259c0,0.148 0.113,0.258 0.266,0.258c0.154,-0 0.266,-0.11 0.266,-0.258c0,-0.149 -0.112,-0.259 -0.266,-0.259Zm-0,0.146c0.062,-0 0.107,0.046 0.107,0.113c-0,0.066 -0.045,0.112 -0.107,0.112c-0.061,0 -0.106,-0.046 -0.106,-0.112c-0,-0.067 0.045,-0.113 0.106,-0.113Z" style="fill:#f39260;fill-rule:nonzero;"/></g><g transform="matrix(16,0,0,16,-61.9124,-34.5435)"><path d="M0.256,-0.504c-0.131,0 -0.227,0.109 -0.227,0.248c0,0.139 0.096,0.247 0.227,0.247c0.064,0 0.107,-0.025 0.136,-0.062l-0,0.031c-0,0.078 -0.06,0.113 -0.124,0.113c-0.058,0 -0.11,-0.016 -0.157,-0.05l-0.056,0.124c0.058,0.042 0.142,0.063 0.224,0.063c0.161,-0 0.266,-0.096 0.266,-0.257l-0,-0.443l-0.151,-0l-0,0.051c-0.029,-0.038 -0.073,-0.065 -0.138,-0.065Zm0.038,0.143c0.059,-0 0.1,0.044 0.1,0.105c-0,0.061 -0.041,0.105 -0.1,0.105c-0.062,0 -0.104,-0.045 -0.104,-0.105c0,-0.06 0.042,-0.105 0.104,-0.105Z" style="fill:#f39260;fill-rule:nonzero;"/></g><g transform="matrix(16,0,0,16,-52.3204,-34.5435)"><path d="M0.576,-0.49l-0.171,-0l-0.11,0.22l-0.111,-0.22l-0.18,-0l0.207,0.382l-0.168,0.309l0.171,-0l0.362,-0.691Z" style="fill:#f39260;fill-rule:nonzero;"/></g><g transform="matrix(16,0,0,16,-39.7204,-34.5435)"><path d="M0.339,-0.504c-0.06,0 -0.106,0.023 -0.134,0.07l-0,-0.056l-0.15,-0l0,0.49l0.156,-0l0,-0.265c0,-0.061 0.034,-0.089 0.09,-0.089c0.028,0 0.057,0.006 0.078,0.013l0.015,-0.155c-0.012,-0.004 -0.032,-0.008 -0.055,-0.008Z" style="fill:#f39260;fill-rule:nonzero;"/></g><g transform="matrix(16,0,0,16,-33.3604,-34.5435)"><path d="M0.295,-0.504c-0.153,0 -0.266,0.11 -0.266,0.259c0,0.148 0.113,0.258 0.266,0.258c0.154,-0 0.266,-0.11 0.266,-0.258c0,-0.149 -0.112,-0.259 -0.266,-0.259Zm-0,0.146c0.062,-0 0.107,0.046 0.107,0.113c-0,0.066 -0.045,0.112 -0.107,0.112c-0.061,0 -0.106,-0.046 -0.106,-0.112c-0,-0.067 0.045,-0.113 0.106,-0.113Z" style="fill:#f39260;fill-rule:nonzero;"/></g><g transform="matrix(16,0,0,16,-23.9124,-34.5435)"><path d="M0.549,-0.49l-0.151,-0l0,0.053c-0.029,-0.039 -0.074,-0.067 -0.141,-0.067c-0.131,0 -0.228,0.114 -0.228,0.258c0,0.145 0.097,0.259 0.228,0.259c0.067,-0 0.112,-0.028 0.141,-0.066l0,0.053l0.151,-0l0,-0.49Zm-0.254,0.132c0.061,-0 0.105,0.047 0.105,0.113c-0,0.065 -0.044,0.112 -0.105,0.112c-0.063,0 -0.105,-0.048 -0.105,-0.112c-0,-0.065 0.042,-0.113 0.105,-0.113Z" style="fill:#f39260;fill-rule:nonzero;"/></g><g transform="matrix(16,0,0,16,-14.2484,-34.5435)"><path d="M0.257,-0.504c-0.131,0 -0.228,0.114 -0.228,0.258c0,0.145 0.097,0.259 0.228,0.259c0.067,-0 0.112,-0.028 0.141,-0.066l0,0.053l0.151,-0l-0,-0.72l-0.156,0l0,0.277c-0.029,-0.036 -0.073,-0.061 -0.136,-0.061Zm0.038,0.146c0.061,-0 0.105,0.047 0.105,0.112c-0,0.066 -0.044,0.113 -0.105,0.113c-0.063,0 -0.105,-0.048 -0.105,-0.112c-0,-0.065 0.042,-0.113 0.105,-0.113Z" style="fill:#f39260;fill-rule:nonzero;"/></g><g transform="matrix(16,0,0,16,-4.59238,-34.5435)"><path d="M0.656,-0.504c-0.068,0 -0.123,0.026 -0.156,0.082c-0.03,-0.052 -0.084,-0.082 -0.149,-0.082c-0.066,0 -0.115,0.024 -0.146,0.075l-0,-0.061l-0.15,-0l0,0.49l0.156,-0l0,-0.264c0,-0.064 0.036,-0.093 0.08,-0.093c0.049,-0 0.078,0.032 0.078,0.09l-0,0.267l0.156,-0l-0,-0.264c-0,-0.064 0.036,-0.093 0.08,-0.093c0.049,-0 0.078,0.032 0.078,0.09l-0,0.267l0.156,-0l-0,-0.322c-0,-0.113 -0.071,-0.182 -0.183,-0.182Z" style="fill:#f39260;fill-rule:nonzero;"/></g><g transform="matrix(16,0,0,16,9.65562,-34.5435)"><path d="M0.549,-0.49l-0.151,-0l0,0.053c-0.029,-0.039 -0.074,-0.067 -0.141,-0.067c-0.131,0 -0.228,0.114 -0.228,0.258c0,0.145 0.097,0.259 0.228,0.259c0.067,-0 0.112,-0.028 0.141,-0.066l0,0.053l0.151,-0l0,-0.49Zm-0.254,0.132c0.061,-0 0.105,0.047 0.105,0.113c-0,0.065 -0.044,0.112 -0.105,0.112c-0.063,0 -0.105,-0.048 -0.105,-0.112c-0,-0.065 0.042,-0.113 0.105,-0.113Z" style="fill:#f39260;fill-rule:nonzero;"/></g><g transform="matrix(16,0,0,16,19.3196,-34.5435)"><path d="M0.347,-0.504c-0.067,0 -0.112,0.028 -0.141,0.067l-0,-0.053l-0.151,-0l0,0.69l0.156,-0l-0,-0.247c0.029,0.035 0.072,0.06 0.136,0.06c0.131,-0 0.228,-0.114 0.228,-0.259c-0,-0.144 -0.097,-0.258 -0.228,-0.258Zm-0.038,0.146c0.063,-0 0.105,0.048 0.105,0.113c0,0.064 -0.042,0.112 -0.105,0.112c-0.062,0 -0.105,-0.047 -0.105,-0.112c0,-0.066 0.043,-0.113 0.105,-0.113Z" style="fill:#f39260;fill-rule:nonzero;"/></g><g transform="matrix(12,0,0,12,-128.976,-11.6396)"><path d="M0.422,-0.71c-0.21,-0 -0.362,0.15 -0.362,0.36c0,0.21 0.152,0.36 0.362,0.36c0.121,0 0.226,-0.053 0.285,-0.141l-0.072,-0.052c-0.046,0.068 -0.123,0.109 -0.213,0.109c-0.154,0 -0.27,-0.111 -0.27,-0.276c-0,-0.165 0.116,-0.276 0.27,-0.276c0.091,-0 0.168,0.042 0.213,0.11l0.074,-0.05c-0.055,-0.09 -0.164,-0.144 -0.287,-0.144Z" style="fill:#004153;fill-rule:nonzero;"/></g><g transform="matrix(12,0,0,12,-119.916,-11.6396)"><rect x="0.087" y="-0.72" width="0.081" height="0.72" style="fill:#004153;fill-rule:nonzero;"/></g><g transform="matrix(12,0,0,12,-116.982,-11.6396)"><path d="M0.537,-0.475l-0.081,0l-0,0.064c-0.038,-0.045 -0.093,-0.074 -0.168,-0.074c-0.134,0 -0.237,0.104 -0.237,0.247c-0,0.144 0.103,0.248 0.237,0.248c0.075,-0 0.13,-0.029 0.168,-0.073l-0,0.063l0.081,-0l0,-0.475Zm-0.239,0.067c0.096,-0 0.163,0.073 0.163,0.17c-0,0.098 -0.067,0.172 -0.163,0.172c-0.098,-0 -0.164,-0.077 -0.164,-0.172c-0,-0.094 0.064,-0.17 0.164,-0.17Z" style="fill:#004153;fill-rule:nonzero;"/></g><g transform="matrix(12,0,0,12,-109.614,-11.6396)"><path d="M0.306,-0.485c-0.057,0 -0.106,0.026 -0.139,0.072l-0,-0.062l-0.08,0l-0,0.475l0.081,-0l-0,-0.264c-0,-0.088 0.051,-0.144 0.123,-0.144c0.027,0 0.059,0.007 0.082,0.019l0.02,-0.08c-0.026,-0.011 -0.053,-0.016 -0.087,-0.016Z" style="fill:#004153;fill-rule:nonzero;"/></g><g transform="matrix(12,0,0,12,-104.706,-11.6396)"><path d="M0.168,-0.475l-0.081,0l-0,0.475l0.081,-0l-0,-0.475Zm-0.041,-0.225c-0.033,-0 -0.058,0.025 -0.058,0.058c0,0.033 0.025,0.057 0.058,0.057c0.032,0 0.058,-0.024 0.058,-0.057c-0,-0.033 -0.026,-0.058 -0.058,-0.058Z" style="fill:#004153;fill-rule:nonzero;"/></g><g transform="matrix(12,0,0,12,-101.772,-11.6396)"><path d="M0.396,-0.475l-0.183,0l0,-0.081c0,-0.062 0.025,-0.098 0.082,-0.098c0.035,0 0.07,0.013 0.095,0.028l0.03,-0.068c-0.034,-0.021 -0.077,-0.036 -0.131,-0.036c-0.112,0 -0.157,0.074 -0.157,0.174l-0,0.081l-0.106,0l0,0.074l0.106,0l-0,0.401l0.081,-0l0,-0.401l0.183,0l-0,-0.074Z" style="fill:#004153;fill-rule:nonzero;"/></g><g transform="matrix(12,0,0,12,-96.6784,-11.6396)"><path d="M0.525,-0.475l-0.09,0l-0.163,0.292l-0.171,-0.292l-0.091,0l0.217,0.373l-0.176,0.304l0.09,0l0.384,-0.677Z" style="fill:#004153;fill-rule:nonzero;"/></g><g transform="matrix(12,0,0,12,-87.5944,-11.6396)"><path d="M0.537,-0.475l-0.081,0l-0,0.064c-0.038,-0.045 -0.093,-0.074 -0.168,-0.074c-0.134,0 -0.237,0.104 -0.237,0.247c-0,0.144 0.103,0.248 0.237,0.248c0.075,-0 0.13,-0.029 0.168,-0.073l-0,0.063l0.081,-0l0,-0.475Zm-0.239,0.067c0.096,-0 0.163,0.073 0.163,0.17c-0,0.098 -0.067,0.172 -0.163,0.172c-0.098,-0 -0.164,-0.077 -0.164,-0.172c-0,-0.094 0.064,-0.17 0.164,-0.17Z" style="fill:#004153;fill-rule:nonzero;"/></g><g transform="matrix(12,0,0,12,-80.2264,-11.6396)"><path d="M0.323,-0.485c-0.055,0 -0.117,0.019 -0.156,0.072l0,-0.062l-0.08,0l-0,0.475l0.081,-0l-0,-0.266c-0,-0.089 0.064,-0.142 0.141,-0.142c0.082,0 0.13,0.052 0.13,0.139l0,0.269l0.082,-0l-0,-0.295c-0,-0.114 -0.081,-0.19 -0.198,-0.19Z" style="fill:#004153;fill-rule:nonzero;"/></g><g transform="matrix(12,0,0,12,-73.1164,-11.6396)"><path d="M0.288,-0.485c-0.134,0 -0.237,0.104 -0.237,0.247c-0,0.144 0.103,0.248 0.237,0.248c0.075,-0 0.13,-0.029 0.168,-0.073l-0,0.063l0.081,-0l0,-0.72l-0.081,0l-0,0.309c-0.038,-0.045 -0.093,-0.074 -0.168,-0.074Zm0.01,0.077c0.096,-0 0.163,0.073 0.163,0.17c-0,0.098 -0.067,0.172 -0.163,0.172c-0.098,-0 -0.164,-0.077 -0.164,-0.172c-0,-0.094 0.064,-0.17 0.164,-0.17Z" style="fill:#004153;fill-rule:nonzero;"/></g><g transform="matrix(12,0,0,12,-62.6584,-11.6396)"><path d="M0.297,-0.485c-0.147,0 -0.246,0.106 -0.246,0.247c-0,0.142 0.099,0.248 0.246,0.248c0.07,-0 0.133,-0.026 0.176,-0.074l-0.05,-0.057c-0.033,0.032 -0.078,0.055 -0.128,0.055c-0.092,-0 -0.161,-0.072 -0.161,-0.172c-0,-0.099 0.069,-0.17 0.161,-0.17c0.05,-0 0.091,0.019 0.126,0.053l0.052,-0.055c-0.042,-0.049 -0.106,-0.075 -0.176,-0.075Z" style="fill:#004153;fill-rule:nonzero;"/></g><g transform="matrix(12,0,0,12,-56.7304,-11.6396)"><path d="M0.301,-0.485c-0.144,0 -0.25,0.106 -0.25,0.247c-0,0.142 0.106,0.248 0.25,0.248c0.145,-0 0.252,-0.106 0.252,-0.248c-0,-0.141 -0.107,-0.247 -0.252,-0.247Zm0,0.077c0.096,-0 0.168,0.071 0.168,0.17c0,0.1 -0.072,0.172 -0.168,0.172c-0.095,-0 -0.167,-0.072 -0.167,-0.172c-0,-0.099 0.072,-0.17 0.167,-0.17Z" style="fill:#004153;fill-rule:nonzero;"/></g><g transform="matrix(12,0,0,12,-49.6084,-11.6396)"><path d="M0.676,-0.485c-0.065,0 -0.139,0.024 -0.178,0.095c-0.031,-0.059 -0.094,-0.095 -0.175,-0.095c-0.055,0 -0.117,0.019 -0.156,0.072l0,-0.062l-0.08,0l-0,0.475l0.081,-0l-0,-0.266c-0,-0.089 0.064,-0.142 0.141,-0.142c0.082,0 0.13,0.052 0.13,0.139l0,0.269l0.082,-0l-0,-0.267c-0,-0.086 0.061,-0.141 0.14,-0.141c0.083,0 0.131,0.052 0.131,0.139l-0,0.269l0.081,-0l0,-0.295c0,-0.114 -0.08,-0.19 -0.197,-0.19Z" style="fill:#004153;fill-rule:nonzero;"/></g><g transform="matrix(12,0,0,12,-38.2684,-11.6396)"><path d="M0.676,-0.485c-0.065,0 -0.139,0.024 -0.178,0.095c-0.031,-0.059 -0.094,-0.095 -0.175,-0.095c-0.055,0 -0.117,0.019 -0.156,0.072l0,-0.062l-0.08,0l-0,0.475l0.081,-0l-0,-0.266c-0,-0.089 0.064,-0.142 0.141,-0.142c0.082,0 0.13,0.052 0.13,0.139l0,0.269l0.082,-0l-0,-0.267c-0,-0.086 0.061,-0.141 0.14,-0.141c0.083,0 0.131,0.052 0.131,0.139l-0,0.269l0.081,-0l0,-0.295c0,-0.114 -0.08,-0.19 -0.197,-0.19Z" style="fill:#004153;fill-rule:nonzero;"/></g><g transform="matrix(12,0,0,12,-26.9284,-11.6396)"><path d="M0.515,-0.475l-0.082,0l0,0.269c0,0.097 -0.057,0.14 -0.135,0.14c-0.077,-0 -0.135,-0.043 -0.135,-0.14l0,-0.269l-0.081,0l-0,0.276c-0,0.144 0.102,0.209 0.216,0.209c0.114,-0 0.217,-0.065 0.217,-0.209l-0,-0.276Z" style="fill:#004153;fill-rule:nonzero;"/></g><g transform="matrix(12,0,0,12,-19.8904,-11.6396)"><path d="M0.323,-0.485c-0.055,0 -0.117,0.019 -0.156,0.072l0,-0.062l-0.08,0l-0,0.475l0.081,-0l-0,-0.266c-0,-0.089 0.064,-0.142 0.141,-0.142c0.082,0 0.13,0.052 0.13,0.139l0,0.269l0.082,-0l-0,-0.295c-0,-0.114 -0.081,-0.19 -0.198,-0.19Z" style="fill:#004153;fill-rule:nonzero;"/></g><g transform="matrix(12,0,0,12,-12.7804,-11.6396)"><path d="M0.168,-0.475l-0.081,0l-0,0.475l0.081,-0l-0,-0.475Zm-0.041,-0.225c-0.033,-0 -0.058,0.025 -0.058,0.058c0,0.033 0.025,0.057 0.058,0.057c0.032,0 0.058,-0.024 0.058,-0.057c-0,-0.033 -0.026,-0.058 -0.058,-0.058Z" style="fill:#004153;fill-rule:nonzero;"/></g><g transform="matrix(12,0,0,12,-9.84638,-11.6396)"><path d="M0.297,-0.485c-0.147,0 -0.246,0.106 -0.246,0.247c-0,0.142 0.099,0.248 0.246,0.248c0.07,-0 0.133,-0.026 0.176,-0.074l-0.05,-0.057c-0.033,0.032 -0.078,0.055 -0.128,0.055c-0.092,-0 -0.161,-0.072 -0.161,-0.172c-0,-0.099 0.069,-0.17 0.161,-0.17c0.05,-0 0.091,0.019 0.126,0.053l0.052,-0.055c-0.042,-0.049 -0.106,-0.075 -0.176,-0.075Z" style="fill:#004153;fill-rule:nonzero;"/></g><g transform="matrix(12,0,0,12,-3.91838,-11.6396)"><path d="M0.537,-0.475l-0.081,0l-0,0.064c-0.038,-0.045 -0.093,-0.074 -0.168,-0.074c-0.134,0 -0.237,0.104 -0.237,0.247c-0,0.144 0.103,0.248 0.237,0.248c0.075,-0 0.13,-0.029 0.168,-0.073l-0,0.063l0.081,-0l0,-0.475Zm-0.239,0.067c0.096,-0 0.163,0.073 0.163,0.17c-0,0.098 -0.067,0.172 -0.163,0.172c-0.098,-0 -0.164,-0.077 -0.164,-0.172c-0,-0.094 0.064,-0.17 0.164,-0.17Z" style="fill:#004153;fill-rule:nonzero;"/></g><g transform="matrix(12,0,0,12,3.44962,-11.6396)"><path d="M0.409,-0.475l-0.2,0l0,-0.149l-0.081,0l-0,0.149l-0.102,0l0,0.074l0.102,0l-0,0.234c-0,0.121 0.061,0.177 0.164,0.177c0.058,-0 0.106,-0.021 0.142,-0.047l-0.038,-0.061c-0.027,0.018 -0.062,0.032 -0.097,0.032c-0.052,-0 -0.09,-0.031 -0.09,-0.103l0,-0.232l0.2,0l-0,-0.074Z" style="fill:#004153;fill-rule:nonzero;"/></g><g transform="matrix(12,0,0,12,8.75962,-11.6396)"><path d="M0.287,-0.485c-0.137,0 -0.236,0.101 -0.236,0.247c-0,0.149 0.099,0.248 0.241,0.248c0.07,-0 0.136,-0.017 0.194,-0.072l-0.043,-0.056c-0.04,0.035 -0.091,0.057 -0.146,0.057c-0.082,-0 -0.151,-0.049 -0.162,-0.148l0.373,0c0.001,-0.009 0.002,-0.02 0.002,-0.03c-0.001,-0.146 -0.094,-0.246 -0.223,-0.246Zm-0.002,0.072c0.077,0 0.132,0.054 0.142,0.139l-0.291,-0c0.012,-0.082 0.065,-0.139 0.149,-0.139Z" style="fill:#004153;fill-rule:nonzero;"/></g><g transform="matrix(12,0,0,12,18.3656,-11.6396)"><path d="M0.396,-0.475l-0.183,0l0,-0.081c0,-0.062 0.025,-0.098 0.082,-0.098c0.035,0 0.07,0.013 0.095,0.028l0.03,-0.068c-0.034,-0.021 -0.077,-0.036 -0.131,-0.036c-0.112,0 -0.157,0.074 -0.157,0.174l-0,0.081l-0.106,0l0,0.074l0.106,0l-0,0.401l0.081,-0l0,-0.401l0.183,0l-0,-0.074Z" style="fill:#004153;fill-rule:nonzero;"/></g><g transform="matrix(12,0,0,12,23.1716,-11.6396)"><path d="M0.301,-0.485c-0.144,0 -0.25,0.106 -0.25,0.247c-0,0.142 0.106,0.248 0.25,0.248c0.145,-0 0.252,-0.106 0.252,-0.248c-0,-0.141 -0.107,-0.247 -0.252,-0.247Zm0,0.077c0.096,-0 0.168,0.071 0.168,0.17c0,0.1 -0.072,0.172 -0.168,0.172c-0.095,-0 -0.167,-0.072 -0.167,-0.172c-0,-0.099 0.072,-0.17 0.167,-0.17Z" style="fill:#004153;fill-rule:nonzero;"/></g><g transform="matrix(12,0,0,12,30.2936,-11.6396)"><path d="M0.306,-0.485c-0.057,0 -0.106,0.026 -0.139,0.072l-0,-0.062l-0.08,0l-0,0.475l0.081,-0l-0,-0.264c-0,-0.088 0.051,-0.144 0.123,-0.144c0.027,0 0.059,0.007 0.082,0.019l0.02,-0.08c-0.026,-0.011 -0.053,-0.016 -0.087,-0.016Z" style="fill:#004153;fill-rule:nonzero;"/></g><g transform="matrix(12,0,0,12,37.9376,-11.6396)"><path d="M0.525,-0.475l-0.09,0l-0.163,0.292l-0.171,-0.292l-0.091,0l0.217,0.373l-0.176,0.304l0.09,0l0.384,-0.677Z" style="fill:#004153;fill-rule:nonzero;"/></g><g transform="matrix(12,0,0,12,44.0996,-11.6396)"><path d="M0.301,-0.485c-0.144,0 -0.25,0.106 -0.25,0.247c-0,0.142 0.106,0.248 0.25,0.248c0.145,-0 0.252,-0.106 0.252,-0.248c-0,-0.141 -0.107,-0.247 -0.252,-0.247Zm0,0.077c0.096,-0 0.168,0.071 0.168,0.17c0,0.1 -0.072,0.172 -0.168,0.172c-0.095,-0 -0.167,-0.072 -0.167,-0.172c-0,-0.099 0.072,-0.17 0.167,-0.17Z" style="fill:#004153;fill-rule:nonzero;"/></g><g transform="matrix(12,0,0,12,51.2216,-11.6396)"><path d="M0.515,-0.475l-0.082,0l0,0.269c0,0.097 -0.057,0.14 -0.135,0.14c-0.077,-0 -0.135,-0.043 -0.135,-0.14l0,-0.269l-0.081,0l-0,0.276c-0,0.144 0.102,0.209 0.216,0.209c0.114,-0 0.217,-0.065 0.217,-0.209l-0,-0.276Z" style="fill:#004153;fill-rule:nonzero;"/></g><g transform="matrix(12,0,0,12,58.2596,-11.6396)"><path d="M0.306,-0.485c-0.057,0 -0.106,0.026 -0.139,0.072l-0,-0.062l-0.08,0l-0,0.475l0.081,-0l-0,-0.264c-0,-0.088 0.051,-0.144 0.123,-0.144c0.027,0 0.059,0.007 0.082,0.019l0.02,-0.08c-0.026,-0.011 -0.053,-0.016 -0.087,-0.016Z" style="fill:#004153;fill-rule:nonzero;"/></g><g transform="matrix(12,0,0,12,66.1256,-11.6396)"><path d="M0.323,-0.485c-0.055,0 -0.117,0.019 -0.156,0.072l0,-0.062l-0.08,0l-0,0.475l0.081,-0l-0,-0.266c-0,-0.089 0.064,-0.142 0.141,-0.142c0.082,0 0.13,0.052 0.13,0.139l0,0.269l0.082,-0l-0,-0.295c-0,-0.114 -0.081,-0.19 -0.198,-0.19Z" style="fill:#004153;fill-rule:nonzero;"/></g><g transform="matrix(12,0,0,12,73.2356,-11.6396)"><path d="M0.287,-0.485c-0.137,0 -0.236,0.101 -0.236,0.247c-0,0.149 0.099,0.248 0.241,0.248c0.07,-0 0.136,-0.017 0.194,-0.072l-0.043,-0.056c-0.04,0.035 -0.091,0.057 -0.146,0.057c-0.082,-0 -0.151,-0.049 -0.162,-0.148l0.373,0c0.001,-0.009 0.002,-0.02 0.002,-0.03c-0.001,-0.146 -0.094,-0.246 -0.223,-0.246Zm-0.002,0.072c0.077,0 0.132,0.054 0.142,0.139l-0.291,-0c0.012,-0.082 0.065,-0.139 0.149,-0.139Z" style="fill:#004153;fill-rule:nonzero;"/></g><g transform="matrix(12,0,0,12,79.8056,-11.6396)"><path d="M0.471,-0.475l-0.093,0l-0.135,0.388l-0.135,-0.388l-0.087,0l0.171,0.475l0.096,-0l0.135,-0.386l0.136,0.386l0.098,-0l0.171,-0.475l-0.086,0l-0.135,0.389l-0.136,-0.389Z" style="fill:#004153;fill-rule:nonzero;"/></g><g transform="matrix(12,0,0,12,92.8796,-11.6396)"><path d="M0.301,-0.485c-0.144,0 -0.25,0.106 -0.25,0.247c-0,0.142 0.106,0.248 0.25,0.248c0.145,-0 0.252,-0.106 0.252,-0.248c-0,-0.141 -0.107,-0.247 -0.252,-0.247Zm0,0.077c0.096,-0 0.168,0.071 0.168,0.17c0,0.1 -0.072,0.172 -0.168,0.172c-0.095,-0 -0.167,-0.072 -0.167,-0.172c-0,-0.099 0.072,-0.17 0.167,-0.17Z" style="fill:#004153;fill-rule:nonzero;"/></g><g transform="matrix(12,0,0,12,100.002,-11.6396)"><path d="M0.306,-0.485c-0.057,0 -0.106,0.026 -0.139,0.072l-0,-0.062l-0.08,0l-0,0.475l0.081,-0l-0,-0.264c-0,-0.088 0.051,-0.144 0.123,-0.144c0.027,0 0.059,0.007 0.082,0.019l0.02,-0.08c-0.026,-0.011 -0.053,-0.016 -0.087,-0.016Z" style="fill:#004153;fill-rule:nonzero;"/></g><g transform="matrix(12,0,0,12,-128.976,2.76045)"><path d="M0.287,-0.485c-0.137,0 -0.236,0.101 -0.236,0.247c-0,0.149 0.099,0.248 0.241,0.248c0.07,-0 0.136,-0.017 0.194,-0.072l-0.043,-0.056c-0.04,0.035 -0.091,0.057 -0.146,0.057c-0.082,-0 -0.151,-0.049 -0.162,-0.148l0.373,0c0.001,-0.009 0.002,-0.02 0.002,-0.03c-0.001,-0.146 -0.094,-0.246 -0.223,-0.246Zm-0.002,0.072c0.077,0 0.132,0.054 0.142,0.139l-0.291,-0c0.012,-0.082 0.065,-0.139 0.149,-0.139Z" style="fill:#004153;fill-rule:nonzero;"/></g><g transform="matrix(12,0,0,12,-122.598,2.76045)"><path d="M0.493,-0.475l-0.097,0l-0.138,0.176l-0.136,-0.176l-0.1,0l0.183,0.233l-0.188,0.242l0.096,-0l0.141,-0.183l0.143,0.183l0.1,-0l-0.188,-0.243l0.184,-0.232Z" style="fill:#004153;fill-rule:nonzero;"/></g><g transform="matrix(12,0,0,12,-116.538,2.76045)"><path d="M0.168,-0.475l-0.081,0l-0,0.475l0.081,-0l-0,-0.475Zm-0.041,-0.225c-0.033,-0 -0.058,0.025 -0.058,0.058c0,0.033 0.025,0.057 0.058,0.057c0.032,0 0.058,-0.024 0.058,-0.057c-0,-0.033 -0.026,-0.058 -0.058,-0.058Z" style="fill:#004153;fill-rule:nonzero;"/></g><g transform="matrix(12,0,0,12,-113.604,2.76045)"><path d="M0.442,-0.433c-0.046,-0.031 -0.114,-0.051 -0.19,-0.051c-0.115,-0 -0.19,0.054 -0.19,0.145c-0,0.072 0.051,0.121 0.157,0.134l0.056,0.006c0.064,0.008 0.095,0.03 0.095,0.065c0,0.047 -0.048,0.073 -0.126,0.073c-0.08,-0 -0.127,-0.023 -0.162,-0.051l-0.038,0.061c0.062,0.047 0.141,0.061 0.199,0.061c0.13,-0 0.211,-0.058 0.211,-0.149c-0,-0.078 -0.059,-0.121 -0.16,-0.135l-0.056,-0.007c-0.057,-0.007 -0.092,-0.024 -0.092,-0.062c0,-0.043 0.042,-0.071 0.107,-0.071c0.063,0 0.124,0.024 0.154,0.044l0.035,-0.063Z" style="fill:#004153;fill-rule:nonzero;"/></g><g transform="matrix(12,0,0,12,-107.76,2.76045)"><path d="M0.409,-0.475l-0.2,0l0,-0.149l-0.081,0l-0,0.149l-0.102,0l0,0.074l0.102,0l-0,0.234c-0,0.121 0.061,0.177 0.164,0.177c0.058,-0 0.106,-0.021 0.142,-0.047l-0.038,-0.061c-0.027,0.018 -0.062,0.032 -0.097,0.032c-0.052,-0 -0.09,-0.031 -0.09,-0.103l0,-0.232l0.2,0l-0,-0.074Z" style="fill:#004153;fill-rule:nonzero;"/></g><g transform="matrix(12,0,0,12,-102.438,2.76045)"><path d="M0.168,-0.475l-0.081,0l-0,0.475l0.081,-0l-0,-0.475Zm-0.041,-0.225c-0.033,-0 -0.058,0.025 -0.058,0.058c0,0.033 0.025,0.057 0.058,0.057c0.032,0 0.058,-0.024 0.058,-0.057c-0,-0.033 -0.026,-0.058 -0.058,-0.058Z" style="fill:#004153;fill-rule:nonzero;"/></g><g transform="matrix(12,0,0,12,-99.5044,2.76045)"><path d="M0.323,-0.485c-0.055,0 -0.117,0.019 -0.156,0.072l0,-0.062l-0.08,0l-0,0.475l0.081,-0l-0,-0.266c-0,-0.089 0.064,-0.142 0.141,-0.142c0.082,0 0.13,0.052 0.13,0.139l0,0.269l0.082,-0l-0,-0.295c-0,-0.114 -0.081,-0.19 -0.198,-0.19Z" style="fill:#004153;fill-rule:nonzero;"/></g><g transform="matrix(12,0,0,12,-92.3944,2.76045)"><path d="M0.285,-0.485c-0.133,0 -0.234,0.099 -0.234,0.244c-0,0.145 0.101,0.243 0.234,0.243c0.074,0 0.128,-0.028 0.164,-0.073l0,0.041c0,0.106 -0.068,0.164 -0.171,0.164c-0.061,-0 -0.118,-0.021 -0.163,-0.053l-0.035,0.066c0.048,0.038 0.124,0.061 0.198,0.061c0.151,-0 0.253,-0.087 0.253,-0.241l-0,-0.442l-0.082,0l0,0.065c-0.036,-0.046 -0.09,-0.075 -0.164,-0.075Zm0.01,0.077c0.095,-0 0.161,0.072 0.161,0.167c0,0.095 -0.066,0.167 -0.161,0.167c-0.098,-0 -0.161,-0.075 -0.161,-0.167c-0,-0.092 0.063,-0.167 0.161,-0.167Z" style="fill:#004153;fill-rule:nonzero;"/></g><g transform="matrix(12,0,0,12,-82.1044,2.76045)"><path d="M0.409,-0.475l-0.2,0l0,-0.149l-0.081,0l-0,0.149l-0.102,0l0,0.074l0.102,0l-0,0.234c-0,0.121 0.061,0.177 0.164,0.177c0.058,-0 0.106,-0.021 0.142,-0.047l-0.038,-0.061c-0.027,0.018 -0.062,0.032 -0.097,0.032c-0.052,-0 -0.09,-0.031 -0.09,-0.103l0,-0.232l0.2,0l-0,-0.074Z" style="fill:#004153;fill-rule:nonzero;"/></g><g transform="matrix(12,0,0,12,-76.7944,2.76045)"><path d="M0.287,-0.485c-0.137,0 -0.236,0.101 -0.236,0.247c-0,0.149 0.099,0.248 0.241,0.248c0.07,-0 0.136,-0.017 0.194,-0.072l-0.043,-0.056c-0.04,0.035 -0.091,0.057 -0.146,0.057c-0.082,-0 -0.151,-0.049 -0.162,-0.148l0.373,0c0.001,-0.009 0.002,-0.02 0.002,-0.03c-0.001,-0.146 -0.094,-0.246 -0.223,-0.246Zm-0.002,0.072c0.077,0 0.132,0.054 0.142,0.139l-0.291,-0c0.012,-0.082 0.065,-0.139 0.149,-0.139Z" style="fill:#004153;fill-rule:nonzero;"/></g><g transform="matrix(12,0,0,12,-70.1884,2.76045)"><path d="M0.297,-0.485c-0.147,0 -0.246,0.106 -0.246,0.247c-0,0.142 0.099,0.248 0.246,0.248c0.07,-0 0.133,-0.026 0.176,-0.074l-0.05,-0.057c-0.033,0.032 -0.078,0.055 -0.128,0.055c-0.092,-0 -0.161,-0.072 -0.161,-0.172c-0,-0.099 0.069,-0.17 0.161,-0.17c0.05,-0 0.091,0.019 0.126,0.053l0.052,-0.055c-0.042,-0.049 -0.106,-0.075 -0.176,-0.075Z" style="fill:#004153;fill-rule:nonzero;"/></g><g transform="matrix(12,0,0,12,-64.1584,2.76045)"><path d="M0.168,-0.72l-0.081,0l-0,0.72l0.081,-0l-0,-0.267c-0,-0.088 0.064,-0.141 0.141,-0.141c0.082,0 0.13,0.052 0.13,0.139l0,0.269l0.082,-0l-0,-0.295c-0,-0.114 -0.081,-0.19 -0.198,-0.19c-0.055,0 -0.116,0.018 -0.155,0.071l-0,-0.306Z" style="fill:#004153;fill-rule:nonzero;"/></g><g transform="matrix(12,0,0,12,-57.0484,2.76045)"><path d="M0.323,-0.485c-0.055,0 -0.117,0.019 -0.156,0.072l0,-0.062l-0.08,0l-0,0.475l0.081,-0l-0,-0.266c-0,-0.089 0.064,-0.142 0.141,-0.142c0.082,0 0.13,0.052 0.13,0.139l0,0.269l0.082,-0l-0,-0.295c-0,-0.114 -0.081,-0.19 -0.198,-0.19Z" style="fill:#004153;fill-rule:nonzero;"/></g><g transform="matrix(12,0,0,12,-49.9384,2.76045)"><path d="M0.301,-0.485c-0.144,0 -0.25,0.106 -0.25,0.247c-0,0.142 0.106,0.248 0.25,0.248c0.145,-0 0.252,-0.106 0.252,-0.248c-0,-0.141 -0.107,-0.247 -0.252,-0.247Zm0,0.077c0.096,-0 0.168,0.071 0.168,0.17c0,0.1 -0.072,0.172 -0.168,0.172c-0.095,-0 -0.167,-0.072 -0.167,-0.172c-0,-0.099 0.072,-0.17 0.167,-0.17Z" style="fill:#004153;fill-rule:nonzero;"/></g><g transform="matrix(12,0,0,12,-42.8164,2.76045)"><rect x="0.087" y="-0.72" width="0.081" height="0.72" style="fill:#004153;fill-rule:nonzero;"/></g><g transform="matrix(12,0,0,12,-39.8824,2.76045)"><path d="M0.301,-0.485c-0.144,0 -0.25,0.106 -0.25,0.247c-0,0.142 0.106,0.248 0.25,0.248c0.145,-0 0.252,-0.106 0.252,-0.248c-0,-0.141 -0.107,-0.247 -0.252,-0.247Zm0,0.077c0.096,-0 0.168,0.071 0.168,0.17c0,0.1 -0.072,0.172 -0.168,0.172c-0.095,-0 -0.167,-0.072 -0.167,-0.172c-0,-0.099 0.072,-0.17 0.167,-0.17Z" style="fill:#004153;fill-rule:nonzero;"/></g><g transform="matrix(12,0,0,12,-32.7604,2.76045)"><path d="M0.285,-0.485c-0.133,0 -0.234,0.099 -0.234,0.244c-0,0.145 0.101,0.243 0.234,0.243c0.074,0 0.128,-0.028 0.164,-0.073l0,0.041c0,0.106 -0.068,0.164 -0.171,0.164c-0.061,-0 -0.118,-0.021 -0.163,-0.053l-0.035,0.066c0.048,0.038 0.124,0.061 0.198,0.061c0.151,-0 0.253,-0.087 0.253,-0.241l-0,-0.442l-0.082,0l0,0.065c-0.036,-0.046 -0.09,-0.075 -0.164,-0.075Zm0.01,0.077c0.095,-0 0.161,0.072 0.161,0.167c0,0.095 -0.066,0.167 -0.161,0.167c-0.098,-0 -0.161,-0.075 -0.161,-0.167c-0,-0.092 0.063,-0.167 0.161,-0.167Z" style="fill:#004153;fill-rule:nonzero;"/></g><g transform="matrix(12,0,0,12,-25.4704,2.76045)"><path d="M0.168,-0.475l-0.081,0l-0,0.475l0.081,-0l-0,-0.475Zm-0.041,-0.225c-0.033,-0 -0.058,0.025 -0.058,0.058c0,0.033 0.025,0.057 0.058,0.057c0.032,0 0.058,-0.024 0.058,-0.057c-0,-0.033 -0.026,-0.058 -0.058,-0.058Z" style="fill:#004153;fill-rule:nonzero;"/></g><g transform="matrix(12,0,0,12,-22.5364,2.76045)"><path d="M0.287,-0.485c-0.137,0 -0.236,0.101 -0.236,0.247c-0,0.149 0.099,0.248 0.241,0.248c0.07,-0 0.136,-0.017 0.194,-0.072l-0.043,-0.056c-0.04,0.035 -0.091,0.057 -0.146,0.057c-0.082,-0 -0.151,-0.049 -0.162,-0.148l0.373,0c0.001,-0.009 0.002,-0.02 0.002,-0.03c-0.001,-0.146 -0.094,-0.246 -0.223,-0.246Zm-0.002,0.072c0.077,0 0.132,0.054 0.142,0.139l-0.291,-0c0.012,-0.082 0.065,-0.139 0.149,-0.139Z" style="fill:#004153;fill-rule:nonzero;"/></g><g transform="matrix(12,0,0,12,-15.9304,2.76045)"><path d="M0.442,-0.433c-0.046,-0.031 -0.114,-0.051 -0.19,-0.051c-0.115,-0 -0.19,0.054 -0.19,0.145c-0,0.072 0.051,0.121 0.157,0.134l0.056,0.006c0.064,0.008 0.095,0.03 0.095,0.065c0,0.047 -0.048,0.073 -0.126,0.073c-0.08,-0 -0.127,-0.023 -0.162,-0.051l-0.038,0.061c0.062,0.047 0.141,0.061 0.199,0.061c0.13,-0 0.211,-0.058 0.211,-0.149c-0,-0.078 -0.059,-0.121 -0.16,-0.135l-0.056,-0.007c-0.057,-0.007 -0.092,-0.024 -0.092,-0.062c0,-0.043 0.042,-0.071 0.107,-0.071c0.063,0 0.124,0.024 0.154,0.044l0.035,-0.063Z" style="fill:#004153;fill-rule:nonzero;"/></g><g transform="matrix(12,0,0,12,-6.99638,2.76045)"><path d="M0.168,-0.475l-0.081,0l-0,0.475l0.081,-0l-0,-0.475Zm-0.041,-0.225c-0.033,-0 -0.058,0.025 -0.058,0.058c0,0.033 0.025,0.057 0.058,0.057c0.032,0 0.058,-0.024 0.058,-0.057c-0,-0.033 -0.026,-0.058 -0.058,-0.058Z" style="fill:#004153;fill-rule:nonzero;"/></g><g transform="matrix(12,0,0,12,-4.06238,2.76045)"><path d="M0.323,-0.485c-0.055,0 -0.117,0.019 -0.156,0.072l0,-0.062l-0.08,0l-0,0.475l0.081,-0l-0,-0.266c-0,-0.089 0.064,-0.142 0.141,-0.142c0.082,0 0.13,0.052 0.13,0.139l0,0.269l0.082,-0l-0,-0.295c-0,-0.114 -0.081,-0.19 -0.198,-0.19Z" style="fill:#004153;fill-rule:nonzero;"/></g><g transform="matrix(12,0,0,12,6.04762,2.76045)"><path d="M0.471,-0.475l-0.093,0l-0.135,0.388l-0.135,-0.388l-0.087,0l0.171,0.475l0.096,-0l0.135,-0.386l0.136,0.386l0.098,-0l0.171,-0.475l-0.086,0l-0.135,0.389l-0.136,-0.389Z" style="fill:#004153;fill-rule:nonzero;"/></g><g transform="matrix(12,0,0,12,16.1216,2.76045)"><path d="M0.168,-0.72l-0.081,0l-0,0.72l0.081,-0l-0,-0.267c-0,-0.088 0.064,-0.141 0.141,-0.141c0.082,0 0.13,0.052 0.13,0.139l0,0.269l0.082,-0l-0,-0.295c-0,-0.114 -0.081,-0.19 -0.198,-0.19c-0.055,0 -0.116,0.018 -0.155,0.071l-0,-0.306Z" style="fill:#004153;fill-rule:nonzero;"/></g><g transform="matrix(12,0,0,12,23.2316,2.76045)"><path d="M0.537,-0.475l-0.081,0l-0,0.064c-0.038,-0.045 -0.093,-0.074 -0.168,-0.074c-0.134,0 -0.237,0.104 -0.237,0.247c-0,0.144 0.103,0.248 0.237,0.248c0.075,-0 0.13,-0.029 0.168,-0.073l-0,0.063l0.081,-0l0,-0.475Zm-0.239,0.067c0.096,-0 0.163,0.073 0.163,0.17c-0,0.098 -0.067,0.172 -0.163,0.172c-0.098,-0 -0.164,-0.077 -0.164,-0.172c-0,-0.094 0.064,-0.17 0.164,-0.17Z" style="fill:#004153;fill-rule:nonzero;"/></g><g transform="matrix(12,0,0,12,30.5996,2.76045)"><path d="M0.409,-0.475l-0.2,0l0,-0.149l-0.081,0l-0,0.149l-0.102,0l0,0.074l0.102,0l-0,0.234c-0,0.121 0.061,0.177 0.164,0.177c0.058,-0 0.106,-0.021 0.142,-0.047l-0.038,-0.061c-0.027,0.018 -0.062,0.032 -0.097,0.032c-0.052,-0 -0.09,-0.031 -0.09,-0.103l0,-0.232l0.2,0l-0,-0.074Z" style="fill:#004153;fill-rule:nonzero;"/></g><g transform="matrix(12,0,0,12,39.0116,2.76045)"><path d="M0.442,-0.433c-0.046,-0.031 -0.114,-0.051 -0.19,-0.051c-0.115,-0 -0.19,0.054 -0.19,0.145c-0,0.072 0.051,0.121 0.157,0.134l0.056,0.006c0.064,0.008 0.095,0.03 0.095,0.065c0,0.047 -0.048,0.073 -0.126,0.073c-0.08,-0 -0.127,-0.023 -0.162,-0.051l-0.038,0.061c0.062,0.047 0.141,0.061 0.199,0.061c0.13,-0 0.211,-0.058 0.211,-0.149c-0,-0.078 -0.059,-0.121 -0.16,-0.135l-0.056,-0.007c-0.057,-0.007 -0.092,-0.024 -0.092,-0.062c0,-0.043 0.042,-0.071 0.107,-0.071c0.063,0 0.124,0.024 0.154,0.044l0.035,-0.063Z" style="fill:#004153;fill-rule:nonzero;"/></g><g transform="matrix(12,0,0,12,44.8556,2.76045)"><path d="M0.409,-0.475l-0.2,0l0,-0.149l-0.081,0l-0,0.149l-0.102,0l0,0.074l0.102,0l-0,0.234c-0,0.121 0.061,0.177 0.164,0.177c0.058,-0 0.106,-0.021 0.142,-0.047l-0.038,-0.061c-0.027,0.018 -0.062,0.032 -0.097,0.032c-0.052,-0 -0.09,-0.031 -0.09,-0.103l0,-0.232l0.2,0l-0,-0.074Z" style="fill:#004153;fill-rule:nonzero;"/></g><g transform="matrix(12,0,0,12,50.1656,2.76045)"><path d="M0.537,-0.475l-0.081,0l-0,0.064c-0.038,-0.045 -0.093,-0.074 -0.168,-0.074c-0.134,0 -0.237,0.104 -0.237,0.247c-0,0.144 0.103,0.248 0.237,0.248c0.075,-0 0.13,-0.029 0.168,-0.073l-0,0.063l0.081,-0l0,-0.475Zm-0.239,0.067c0.096,-0 0.163,0.073 0.163,0.17c-0,0.098 -0.067,0.172 -0.163,0.172c-0.098,-0 -0.164,-0.077 -0.164,-0.172c-0,-0.094 0.064,-0.17 0.164,-0.17Z" style="fill:#004153;fill-rule:nonzero;"/></g><g transform="matrix(12,0,0,12,57.5336,2.76045)"><path d="M0.285,-0.485c-0.133,0 -0.234,0.099 -0.234,0.244c-0,0.145 0.101,0.243 0.234,0.243c0.074,0 0.128,-0.028 0.164,-0.073l0,0.041c0,0.106 -0.068,0.164 -0.171,0.164c-0.061,-0 -0.118,-0.021 -0.163,-0.053l-0.035,0.066c0.048,0.038 0.124,0.061 0.198,0.061c0.151,-0 0.253,-0.087 0.253,-0.241l-0,-0.442l-0.082,0l0,0.065c-0.036,-0.046 -0.09,-0.075 -0.164,-0.075Zm0.01,0.077c0.095,-0 0.161,0.072 0.161,0.167c0,0.095 -0.066,0.167 -0.161,0.167c-0.098,-0 -0.161,-0.075 -0.161,-0.167c-0,-0.092 0.063,-0.167 0.161,-0.167Z" style="fill:#004153;fill-rule:nonzero;"/></g><g transform="matrix(12,0,0,12,64.8236,2.76045)"><path d="M0.287,-0.485c-0.137,0 -0.236,0.101 -0.236,0.247c-0,0.149 0.099,0.248 0.241,0.248c0.07,-0 0.136,-0.017 0.194,-0.072l-0.043,-0.056c-0.04,0.035 -0.091,0.057 -0.146,0.057c-0.082,-0 -0.151,-0.049 -0.162,-0.148l0.373,0c0.001,-0.009 0.002,-0.02 0.002,-0.03c-0.001,-0.146 -0.094,-0.246 -0.223,-0.246Zm-0.002,0.072c0.077,0 0.132,0.054 0.142,0.139l-0.291,-0c0.012,-0.082 0.065,-0.139 0.149,-0.139Z" style="fill:#004153;fill-rule:nonzero;"/></g><g transform="matrix(12,0,0,12,74.5196,2.76045)"><path d="M0.301,-0.485c-0.144,0 -0.25,0.106 -0.25,0.247c-0,0.142 0.106,0.248 0.25,0.248c0.145,-0 0.252,-0.106 0.252,-0.248c-0,-0.141 -0.107,-0.247 -0.252,-0.247Zm0,0.077c0.096,-0 0.168,0.071 0.168,0.17c0,0.1 -0.072,0.172 -0.168,0.172c-0.095,-0 -0.167,-0.072 -0.167,-0.172c-0,-0.099 0.072,-0.17 0.167,-0.17Z" style="fill:#004153;fill-rule:nonzero;"/></g><g transform="matrix(12,0,0,12,81.5816,2.76045)"><path d="M0.396,-0.475l-0.183,0l0,-0.081c0,-0.062 0.025,-0.098 0.082,-0.098c0.035,0 0.07,0.013 0.095,0.028l0.03,-0.068c-0.034,-0.021 -0.077,-0.036 -0.131,-0.036c-0.112,0 -0.157,0.074 -0.157,0.174l-0,0.081l-0.106,0l0,0.074l0.106,0l-0,0.401l0.081,-0l0,-0.401l0.183,0l-0,-0.074Z" style="fill:#004153;fill-rule:nonzero;"/></g><g transform="matrix(12,0,0,12,-128.976,17.1604)"><path d="M0.537,-0.475l-0.081,0l-0,0.064c-0.038,-0.045 -0.093,-0.074 -0.168,-0.074c-0.134,0 -0.237,0.104 -0.237,0.247c-0,0.144 0.103,0.248 0.237,0.248c0.075,-0 0.13,-0.029 0.168,-0.073l-0,0.063l0.081,-0l0,-0.475Zm-0.239,0.067c0.096,-0 0.163,0.073 0.163,0.17c-0,0.098 -0.067,0.172 -0.163,0.172c-0.098,-0 -0.164,-0.077 -0.164,-0.172c-0,-0.094 0.064,-0.17 0.164,-0.17Z" style="fill:#004153;fill-rule:nonzero;"/></g><g transform="matrix(12,0,0,12,-121.608,17.1604)"><path d="M0.288,-0.485c-0.134,0 -0.237,0.104 -0.237,0.247c-0,0.144 0.103,0.248 0.237,0.248c0.075,-0 0.13,-0.029 0.168,-0.073l-0,0.063l0.081,-0l0,-0.72l-0.081,0l-0,0.309c-0.038,-0.045 -0.093,-0.074 -0.168,-0.074Zm0.01,0.077c0.096,-0 0.163,0.073 0.163,0.17c-0,0.098 -0.067,0.172 -0.163,0.172c-0.098,-0 -0.164,-0.077 -0.164,-0.172c-0,-0.094 0.064,-0.17 0.164,-0.17Z" style="fill:#004153;fill-rule:nonzero;"/></g><g transform="matrix(12,0,0,12,-114.24,17.1604)"><path d="M0.301,-0.485c-0.144,0 -0.25,0.106 -0.25,0.247c-0,0.142 0.106,0.248 0.25,0.248c0.145,-0 0.252,-0.106 0.252,-0.248c-0,-0.141 -0.107,-0.247 -0.252,-0.247Zm0,0.077c0.096,-0 0.168,0.071 0.168,0.17c0,0.1 -0.072,0.172 -0.168,0.172c-0.095,-0 -0.167,-0.072 -0.167,-0.172c-0,-0.099 0.072,-0.17 0.167,-0.17Z" style="fill:#004153;fill-rule:nonzero;"/></g><g transform="matrix(12,0,0,12,-107.118,17.1604)"><path d="M0.336,-0.485c-0.076,0 -0.131,0.029 -0.168,0.073l-0,-0.063l-0.081,0l-0,0.675l0.081,-0l-0,-0.263c0.037,0.044 0.092,0.073 0.168,0.073c0.133,-0 0.237,-0.104 0.237,-0.247c-0,-0.144 -0.104,-0.248 -0.237,-0.248Zm-0.01,0.077c0.097,-0 0.163,0.076 0.163,0.17c0,0.095 -0.064,0.172 -0.163,0.172c-0.096,-0 -0.163,-0.074 -0.163,-0.172c-0,-0.097 0.067,-0.17 0.163,-0.17Z" style="fill:#004153;fill-rule:nonzero;"/></g><g transform="matrix(12,0,0,12,-99.8164,17.1604)"><path d="M0.409,-0.475l-0.2,0l0,-0.149l-0.081,0l-0,0.149l-0.102,0l0,0.074l0.102,0l-0,0.234c-0,0.121 0.061,0.177 0.164,0.177c0.058,-0 0.106,-0.021 0.142,-0.047l-0.038,-0.061c-0.027,0.018 -0.062,0.032 -0.097,0.032c-0.052,-0 -0.09,-0.031 -0.09,-0.103l0,-0.232l0.2,0l-0,-0.074Z" style="fill:#004153;fill-rule:nonzero;"/></g><g transform="matrix(12,0,0,12,-94.4944,17.1604)"><path d="M0.168,-0.475l-0.081,0l-0,0.475l0.081,-0l-0,-0.475Zm-0.041,-0.225c-0.033,-0 -0.058,0.025 -0.058,0.058c0,0.033 0.025,0.057 0.058,0.057c0.032,0 0.058,-0.024 0.058,-0.057c-0,-0.033 -0.026,-0.058 -0.058,-0.058Z" style="fill:#004153;fill-rule:nonzero;"/></g><g transform="matrix(12,0,0,12,-91.5604,17.1604)"><path d="M0.301,-0.485c-0.144,0 -0.25,0.106 -0.25,0.247c-0,0.142 0.106,0.248 0.25,0.248c0.145,-0 0.252,-0.106 0.252,-0.248c-0,-0.141 -0.107,-0.247 -0.252,-0.247Zm0,0.077c0.096,-0 0.168,0.071 0.168,0.17c0,0.1 -0.072,0.172 -0.168,0.172c-0.095,-0 -0.167,-0.072 -0.167,-0.172c-0,-0.099 0.072,-0.17 0.167,-0.17Z" style="fill:#004153;fill-rule:nonzero;"/></g><g transform="matrix(12,0,0,12,-84.4384,17.1604)"><path d="M0.323,-0.485c-0.055,0 -0.117,0.019 -0.156,0.072l0,-0.062l-0.08,0l-0,0.475l0.081,-0l-0,-0.266c-0,-0.089 0.064,-0.142 0.141,-0.142c0.082,0 0.13,0.052 0.13,0.139l0,0.269l0.082,-0l-0,-0.295c-0,-0.114 -0.081,-0.19 -0.198,-0.19Z" style="fill:#004153;fill-rule:nonzero;"/></g><g transform="matrix(12,0,0,12,-74.3284,17.1604)"><path d="M0.409,-0.475l-0.2,0l0,-0.149l-0.081,0l-0,0.149l-0.102,0l0,0.074l0.102,0l-0,0.234c-0,0.121 0.061,0.177 0.164,0.177c0.058,-0 0.106,-0.021 0.142,-0.047l-0.038,-0.061c-0.027,0.018 -0.062,0.032 -0.097,0.032c-0.052,-0 -0.09,-0.031 -0.09,-0.103l0,-0.232l0.2,0l-0,-0.074Z" style="fill:#004153;fill-rule:nonzero;"/></g><g transform="matrix(12,0,0,12,-69.0064,17.1604)"><path d="M0.168,-0.72l-0.081,0l-0,0.72l0.081,-0l-0,-0.267c-0,-0.088 0.064,-0.141 0.141,-0.141c0.082,0 0.13,0.052 0.13,0.139l0,0.269l0.082,-0l-0,-0.295c-0,-0.114 -0.081,-0.19 -0.198,-0.19c-0.055,0 -0.116,0.018 -0.155,0.071l-0,-0.306Z" style="fill:#004153;fill-rule:nonzero;"/></g><g transform="matrix(12,0,0,12,-61.8964,17.1604)"><path d="M0.287,-0.485c-0.137,0 -0.236,0.101 -0.236,0.247c-0,0.149 0.099,0.248 0.241,0.248c0.07,-0 0.136,-0.017 0.194,-0.072l-0.043,-0.056c-0.04,0.035 -0.091,0.057 -0.146,0.057c-0.082,-0 -0.151,-0.049 -0.162,-0.148l0.373,0c0.001,-0.009 0.002,-0.02 0.002,-0.03c-0.001,-0.146 -0.094,-0.246 -0.223,-0.246Zm-0.002,0.072c0.077,0 0.132,0.054 0.142,0.139l-0.291,-0c0.012,-0.082 0.065,-0.139 0.149,-0.139Z" style="fill:#004153;fill-rule:nonzero;"/></g><g transform="matrix(12,0,0,12,-55.4704,17.1604)"><path d="M0.525,-0.475l-0.09,0l-0.163,0.292l-0.171,-0.292l-0.091,0l0.217,0.373l-0.176,0.304l0.09,0l0.384,-0.677Z" style="fill:#004153;fill-rule:nonzero;"/></g><g transform="matrix(12,0,0,12,-46.3864,17.1604)"><path d="M0.297,-0.485c-0.147,0 -0.246,0.106 -0.246,0.247c-0,0.142 0.099,0.248 0.246,0.248c0.07,-0 0.133,-0.026 0.176,-0.074l-0.05,-0.057c-0.033,0.032 -0.078,0.055 -0.128,0.055c-0.092,-0 -0.161,-0.072 -0.161,-0.172c-0,-0.099 0.069,-0.17 0.161,-0.17c0.05,-0 0.091,0.019 0.126,0.053l0.052,-0.055c-0.042,-0.049 -0.106,-0.075 -0.176,-0.075Z" style="fill:#004153;fill-rule:nonzero;"/></g><g transform="matrix(12,0,0,12,-40.3564,17.1604)"><path d="M0.515,-0.475l-0.082,0l0,0.269c0,0.097 -0.057,0.14 -0.135,0.14c-0.077,-0 -0.135,-0.043 -0.135,-0.14l0,-0.269l-0.081,0l-0,0.276c-0,0.144 0.102,0.209 0.216,0.209c0.114,-0 0.217,-0.065 0.217,-0.209l-0,-0.276Z" style="fill:#004153;fill-rule:nonzero;"/></g><g transform="matrix(12,0,0,12,-33.3184,17.1604)"><path d="M0.306,-0.485c-0.057,0 -0.106,0.026 -0.139,0.072l-0,-0.062l-0.08,0l-0,0.475l0.081,-0l-0,-0.264c-0,-0.088 0.051,-0.144 0.123,-0.144c0.027,0 0.059,0.007 0.082,0.019l0.02,-0.08c-0.026,-0.011 -0.053,-0.016 -0.087,-0.016Z" style="fill:#004153;fill-rule:nonzero;"/></g><g transform="matrix(12,0,0,12,-28.4104,17.1604)"><path d="M0.306,-0.485c-0.057,0 -0.106,0.026 -0.139,0.072l-0,-0.062l-0.08,0l-0,0.475l0.081,-0l-0,-0.264c-0,-0.088 0.051,-0.144 0.123,-0.144c0.027,0 0.059,0.007 0.082,0.019l0.02,-0.08c-0.026,-0.011 -0.053,-0.016 -0.087,-0.016Z" style="fill:#004153;fill-rule:nonzero;"/></g><g transform="matrix(12,0,0,12,-23.7424,17.1604)"><path d="M0.287,-0.485c-0.137,0 -0.236,0.101 -0.236,0.247c-0,0.149 0.099,0.248 0.241,0.248c0.07,-0 0.136,-0.017 0.194,-0.072l-0.043,-0.056c-0.04,0.035 -0.091,0.057 -0.146,0.057c-0.082,-0 -0.151,-0.049 -0.162,-0.148l0.373,0c0.001,-0.009 0.002,-0.02 0.002,-0.03c-0.001,-0.146 -0.094,-0.246 -0.223,-0.246Zm-0.002,0.072c0.077,0 0.132,0.054 0.142,0.139l-0.291,-0c0.012,-0.082 0.065,-0.139 0.149,-0.139Z" style="fill:#004153;fill-rule:nonzero;"/></g><g transform="matrix(12,0,0,12,-17.1364,17.1604)"><path d="M0.323,-0.485c-0.055,0 -0.117,0.019 -0.156,0.072l0,-0.062l-0.08,0l-0,0.475l0.081,-0l-0,-0.266c-0,-0.089 0.064,-0.142 0.141,-0.142c0.082,0 0.13,0.052 0.13,0.139l0,0.269l0.082,-0l-0,-0.295c-0,-0.114 -0.081,-0.19 -0.198,-0.19Z" style="fill:#004153;fill-rule:nonzero;"/></g><g transform="matrix(12,0,0,12,-10.1044,17.1604)"><path d="M0.409,-0.475l-0.2,0l0,-0.149l-0.081,0l-0,0.149l-0.102,0l0,0.074l0.102,0l-0,0.234c-0,0.121 0.061,0.177 0.164,0.177c0.058,-0 0.106,-0.021 0.142,-0.047l-0.038,-0.061c-0.027,0.018 -0.062,0.032 -0.097,0.032c-0.052,-0 -0.09,-0.031 -0.09,-0.103l0,-0.232l0.2,0l-0,-0.074Z" style="fill:#004153;fill-rule:nonzero;"/></g><g transform="matrix(12,0,0,12,-4.78238,17.1604)"><rect x="0.087" y="-0.72" width="0.081" height="0.72" style="fill:#004153;fill-rule:nonzero;"/></g><g transform="matrix(12,0,0,12,-1.84838,17.1604)"><path d="M0.525,-0.475l-0.09,0l-0.163,0.292l-0.171,-0.292l-0.091,0l0.217,0.373l-0.176,0.304l0.09,0l0.384,-0.677Z" style="fill:#004153;fill-rule:nonzero;"/></g><g transform="matrix(12,0,0,12,7.23562,17.1604)"><path d="M0.537,-0.475l-0.081,0l-0,0.064c-0.038,-0.045 -0.093,-0.074 -0.168,-0.074c-0.134,0 -0.237,0.104 -0.237,0.247c-0,0.144 0.103,0.248 0.237,0.248c0.075,-0 0.13,-0.029 0.168,-0.073l-0,0.063l0.081,-0l0,-0.475Zm-0.239,0.067c0.096,-0 0.163,0.073 0.163,0.17c-0,0.098 -0.067,0.172 -0.163,0.172c-0.098,-0 -0.164,-0.077 -0.164,-0.172c-0,-0.094 0.064,-0.17 0.164,-0.17Z" style="fill:#004153;fill-rule:nonzero;"/></g><g transform="matrix(12,0,0,12,14.6036,17.1604)"><path d="M0.306,-0.485c-0.057,0 -0.106,0.026 -0.139,0.072l-0,-0.062l-0.08,0l-0,0.475l0.081,-0l-0,-0.264c-0,-0.088 0.051,-0.144 0.123,-0.144c0.027,0 0.059,0.007 0.082,0.019l0.02,-0.08c-0.026,-0.011 -0.053,-0.016 -0.087,-0.016Z" style="fill:#004153;fill-rule:nonzero;"/></g><g transform="matrix(12,0,0,12,19.2716,17.1604)"><path d="M0.287,-0.485c-0.137,0 -0.236,0.101 -0.236,0.247c-0,0.149 0.099,0.248 0.241,0.248c0.07,-0 0.136,-0.017 0.194,-0.072l-0.043,-0.056c-0.04,0.035 -0.091,0.057 -0.146,0.057c-0.082,-0 -0.151,-0.049 -0.162,-0.148l0.373,0c0.001,-0.009 0.002,-0.02 0.002,-0.03c-0.001,-0.146 -0.094,-0.246 -0.223,-0.246Zm-0.002,0.072c0.077,0 0.132,0.054 0.142,0.139l-0.291,-0c0.012,-0.082 0.065,-0.139 0.149,-0.139Z" style="fill:#004153;fill-rule:nonzero;"/></g><g transform="matrix(12,0,0,12,25.7876,17.1604)"><path d="M0.131,-0.127c-0.036,0 -0.068,0.032 -0.068,0.068c0,0.037 0.032,0.069 0.068,0.069c0.037,-0 0.068,-0.032 0.068,-0.069c0,-0.036 -0.031,-0.068 -0.068,-0.068Z" style="fill:#004153;fill-rule:nonzero;"/></g></g><path d="M22.515,394.69c-1.323,0 -2.218,0.958 -2.218,2.227c0,1.27 0.895,2.228 2.218,2.228c0.635,-0 1.202,-0.234 1.589,-0.67l-0.455,-0.509c-0.297,0.288 -0.697,0.491 -1.152,0.491c-0.823,-0 -1.449,-0.644 -1.449,-1.54c0,-0.895 0.626,-1.534 1.449,-1.534c0.455,-0 0.819,0.175 1.134,0.481l0.473,-0.499c-0.383,-0.441 -0.954,-0.675 -1.589,-0.675Z" style="fill:#004153;fill-rule:nonzero;"/><path d="M29.216,394.78l-0.738,0l0,0.576c-0.337,-0.405 -0.837,-0.666 -1.507,-0.666c-1.202,0 -2.138,0.936 -2.138,2.227c0,1.292 0.936,2.228 2.138,2.228c0.67,-0 1.17,-0.261 1.507,-0.661l0,0.571l0.738,-0l-0,-4.275Zm-2.16,0.603c0.864,-0 1.467,0.661 1.467,1.534c0,0.878 -0.603,1.54 -1.467,1.54c-0.878,-0 -1.472,-0.689 -1.472,-1.54c0,-0.85 0.581,-1.534 1.472,-1.534Z" style="fill:#004153;fill-rule:nonzero;"/><path d="M32.748,394.69c-0.508,0 -0.954,0.234 -1.251,0.652l0,-0.562l-0.724,0l0,4.275l0.733,-0l0,-2.381c0,-0.787 0.459,-1.287 1.112,-1.287c0.243,0 0.531,0.059 0.733,0.167l0.18,-0.725c-0.229,-0.098 -0.477,-0.139 -0.783,-0.139Z" style="fill:#004153;fill-rule:nonzero;"/><path d="M36.178,394.69c-1.202,0 -2.138,0.936 -2.138,2.227c0,1.292 0.936,2.228 2.138,2.228c0.67,-0 1.17,-0.261 1.507,-0.661l0,0.571l0.738,-0l-0,-6.48l-0.738,0l0,2.781c-0.337,-0.405 -0.837,-0.666 -1.507,-0.666Zm0.085,0.693c0.864,-0 1.467,0.661 1.467,1.534c0,0.878 -0.603,1.54 -1.467,1.54c-0.878,-0 -1.472,-0.689 -1.472,-1.54c0,-0.85 0.581,-1.534 1.472,-1.534Z" style="fill:#004153;fill-rule:nonzero;"/><path d="M43.179,395.158c-0.413,-0.284 -1.03,-0.463 -1.705,-0.463c-1.04,-0 -1.719,0.494 -1.719,1.313c0,0.648 0.463,1.08 1.422,1.197l0.495,0.059c0.581,0.072 0.86,0.27 0.86,0.585c-0,0.423 -0.432,0.653 -1.135,0.653c-0.715,-0 -1.143,-0.207 -1.462,-0.455l-0.342,0.549c0.563,0.423 1.273,0.549 1.8,0.549c1.166,-0 1.894,-0.527 1.894,-1.341c0,-0.707 -0.535,-1.089 -1.444,-1.211l-0.495,-0.063c-0.518,-0.063 -0.828,-0.22 -0.828,-0.562c-0,-0.387 0.378,-0.635 0.963,-0.635c0.563,0 1.107,0.212 1.377,0.396l0.319,-0.571Z" style="fill:#004153;fill-rule:nonzero;"/><path d="M47.58,395.293l-0.76,0l0,1.742l-1.998,-0l2.304,-4.271l-0.864,0l-2.353,4.405l-0,0.585l2.911,0l0,1.301l0.76,-0l0,-1.301l1.049,0l-0,-0.719l-1.049,-0l0,-1.742Z" style="fill:#004153;fill-rule:nonzero;"/><path d="M49.79,394.159c0.302,-0.405 0.675,-0.765 1.377,-0.765c0.797,-0 1.256,0.535 1.256,1.237c-0,0.518 -0.252,0.941 -0.63,1.337l-2.358,2.489l-0,0.598l3.982,-0l-0,-0.724l-2.853,-0l1.809,-1.922c0.405,-0.428 0.846,-0.99 0.846,-1.773c-0,-1.13 -0.747,-1.971 -2.034,-1.971c-1.089,0 -1.647,0.612 -1.944,1.048l0.549,0.446Z" style="fill:#004153;fill-rule:nonzero;"/><path d="M55.141,397.912c-0.329,0 -0.617,0.283 -0.617,0.612c0,0.333 0.288,0.621 0.617,0.621c0.328,-0 0.611,-0.288 0.611,-0.621c0,-0.329 -0.283,-0.612 -0.611,-0.612Z" style="fill:#004153;fill-rule:nonzero;"/><path d="M58.966,394.69c-1.297,0 -2.259,0.958 -2.259,2.227c-0,1.27 0.962,2.228 2.259,2.228c1.296,-0 2.263,-0.958 2.263,-2.228c-0,-1.269 -0.967,-2.227 -2.263,-2.227Zm-0,0.693c0.855,-0 1.507,0.639 1.507,1.534c0,0.896 -0.652,1.54 -1.507,1.54c-0.86,-0 -1.508,-0.644 -1.508,-1.54c-0,-0.895 0.648,-1.534 1.508,-1.534Z" style="fill:#004153;fill-rule:nonzero;"/><path d="M64.437,394.69c-0.508,0 -0.954,0.234 -1.251,0.652l0,-0.562l-0.724,0l0,4.275l0.733,-0l0,-2.381c0,-0.787 0.459,-1.287 1.112,-1.287c0.243,0 0.531,0.059 0.733,0.167l0.18,-0.725c-0.229,-0.098 -0.477,-0.139 -0.783,-0.139Z" style="fill:#004153;fill-rule:nonzero;"/><path d="M67.844,394.69c-1.202,0 -2.115,0.891 -2.115,2.191c0,1.306 0.913,2.196 2.115,2.196c0.662,0 1.148,-0.256 1.472,-0.665l-0,0.377c-0,0.95 -0.617,1.468 -1.535,1.468c-0.554,-0 -1.062,-0.185 -1.472,-0.478l-0.319,0.595c0.436,0.35 1.125,0.553 1.791,0.553c1.35,-0 2.272,-0.787 2.272,-2.169l0,-3.978l-0.737,0l-0,0.581c-0.324,-0.41 -0.81,-0.671 -1.472,-0.671Zm0.086,0.693c0.85,-0 1.449,0.648 1.449,1.498c-0,0.855 -0.599,1.504 -1.449,1.504c-0.878,-0 -1.45,-0.671 -1.45,-1.504c0,-0.823 0.572,-1.498 1.45,-1.498Z" style="fill:#004153;fill-rule:nonzero;"/><path d="M75.4,392.125l-0.81,0l-3.821,7.83l0.81,-0l3.821,-7.83Z" style="fill:#004153;fill-rule:nonzero;"/><path d="M77.528,394.69c-0.509,0 -0.954,0.234 -1.251,0.652l-0,-0.562l-0.724,0l-0,4.275l0.733,-0l-0,-2.381c-0,-0.787 0.459,-1.287 1.111,-1.287c0.243,0 0.531,0.059 0.734,0.167l0.18,-0.725c-0.23,-0.098 -0.477,-0.139 -0.783,-0.139Z" style="fill:#004153;fill-rule:nonzero;"/><path d="M81.079,394.69c-1.297,0 -2.259,0.958 -2.259,2.227c-0,1.27 0.962,2.228 2.259,2.228c1.296,-0 2.263,-0.958 2.263,-2.228c-0,-1.269 -0.967,-2.227 -2.263,-2.227Zm-0,0.693c0.855,-0 1.507,0.639 1.507,1.534c0,0.896 -0.652,1.54 -1.507,1.54c-0.86,-0 -1.508,-0.644 -1.508,-1.54c-0,-0.895 0.648,-1.534 1.508,-1.534Z" style="fill:#004153;fill-rule:nonzero;"/><path d="M88.634,394.78l-0.738,0l0,0.576c-0.337,-0.405 -0.837,-0.666 -1.507,-0.666c-1.202,0 -2.138,0.936 -2.138,2.227c0,1.292 0.936,2.228 2.138,2.228c0.67,-0 1.17,-0.261 1.507,-0.661l0,0.571l0.738,-0l-0,-4.275Zm-2.16,0.603c0.864,-0 1.467,0.661 1.467,1.534c0,0.878 -0.603,1.54 -1.467,1.54c-0.878,-0 -1.472,-0.689 -1.472,-1.54c0,-0.85 0.581,-1.534 1.472,-1.534Z" style="fill:#004153;fill-rule:nonzero;"/><path d="M92.005,394.69c-1.202,0 -2.138,0.936 -2.138,2.227c0,1.292 0.936,2.228 2.138,2.228c0.67,-0 1.17,-0.261 1.507,-0.661l0,0.571l0.738,-0l-0,-6.48l-0.738,0l0,2.781c-0.337,-0.405 -0.837,-0.666 -1.507,-0.666Zm0.085,0.693c0.864,-0 1.467,0.661 1.467,1.534c0,0.878 -0.603,1.54 -1.467,1.54c-0.878,-0 -1.472,-0.689 -1.472,-1.54c0,-0.85 0.581,-1.534 1.472,-1.534Z" style="fill:#004153;fill-rule:nonzero;"/><path d="M101.108,394.69c-0.581,0 -1.242,0.211 -1.593,0.859c-0.283,-0.535 -0.855,-0.859 -1.579,-0.859c-0.496,0 -1.049,0.166 -1.4,0.648l-0,-0.558l-0.729,0l0,4.275l0.733,-0l0,-2.399c0,-0.796 0.576,-1.269 1.265,-1.269c0.743,0 1.175,0.464 1.175,1.251l-0,2.417l0.737,-0l0,-2.399c0,-0.778 0.554,-1.269 1.261,-1.269c0.742,0 1.174,0.464 1.174,1.251l0,2.417l0.738,-0l-0,-2.655c-0,-1.026 -0.724,-1.71 -1.782,-1.71Z" style="fill:#004153;fill-rule:nonzero;"/><path d="M108.461,394.78l-0.738,0l0,0.576c-0.337,-0.405 -0.837,-0.666 -1.507,-0.666c-1.202,0 -2.138,0.936 -2.138,2.227c0,1.292 0.936,2.228 2.138,2.228c0.67,-0 1.17,-0.261 1.507,-0.661l0,0.571l0.738,-0l-0,-4.275Zm-2.16,0.603c0.864,-0 1.467,0.661 1.467,1.534c0,0.878 -0.603,1.54 -1.467,1.54c-0.878,-0 -1.472,-0.689 -1.472,-1.54c0,-0.85 0.581,-1.534 1.472,-1.534Z" style="fill:#004153;fill-rule:nonzero;"/><path d="M112.259,394.69c-0.675,0 -1.175,0.261 -1.508,0.661l0,-0.571l-0.733,0l0,6.075l0.733,-0l0,-2.371c0.333,0.4 0.833,0.661 1.508,0.661c1.197,-0 2.137,-0.936 2.137,-2.227c0,-1.292 -0.94,-2.228 -2.137,-2.228Zm-0.085,0.693c0.873,-0 1.467,0.684 1.467,1.534c-0,0.851 -0.581,1.54 -1.467,1.54c-0.865,-0 -1.468,-0.662 -1.468,-1.54c0,-0.873 0.603,-1.534 1.468,-1.534Z" style="fill:#004153;fill-rule:nonzero;"/><path d="M238.995,295.304l-1.154,76.528" style="fill:none;fill-rule:nonzero;stroke:#004153;stroke-width:3px;"/><path d="M239.762,237.615c15.331,0.268 27.542,12.913 27.275,28.244c-0.268,15.332 -12.913,27.543 -28.245,27.276c-15.331,-0.268 -27.542,-12.913 -27.275,-28.245c0.268,-15.331 12.913,-27.542 28.245,-27.275Z" style="fill:#fff;fill-rule:nonzero;stroke:#f39260;stroke-width:4px;stroke-linecap:round;stroke-linejoin:round;"/><path d="M253.671,270.675l0.156,-8.918l-15.448,-0.27c-0.818,0.031 -1.602,0.336 -2.227,0.865l-2.518,2.36c-0.282,0.296 -0.452,0.68 -0.481,1.088l-0.079,4.516m6.592,-8.806l1.981,-6.518c0.499,-1.422 1.823,-2.386 3.326,-2.424l5.793,0.101c0.74,0.042 1.365,0.566 1.536,1.289l1.525,7.799m-28.863,-6.312c1.888,2.615 2.954,5.734 3.063,8.959l-0.072,4.129c-0.222,3.219 -1.396,6.3 -3.374,8.846m3.434,-12.314l5.312,0.092m-5.357,2.488l5.149,0.09m3.907,-2.513l5.149,0.09m-5.194,2.49l5.149,0.09m-9.136,7.053c-0.032,1.781 1.384,3.251 3.161,3.282l14.161,0.247c1.777,0.031 3.243,-1.388 3.274,-3.17c0.031,-1.781 -1.384,-3.25 -3.162,-3.281l-14.16,-0.248c-1.777,-0.031 -3.243,1.388 -3.274,3.17Zm4.528,-1.212c0.71,0.013 1.277,0.6 1.264,1.313c-0.012,0.713 -0.599,1.28 -1.31,1.268c-0.71,-0.013 -1.277,-0.6 -1.264,-1.313c0.012,-0.713 0.599,-1.28 1.31,-1.268Zm5.792,0.101c0.711,0.013 1.278,0.6 1.265,1.313c-0.012,0.713 -0.599,1.28 -1.31,1.268c-0.711,-0.013 -1.277,-0.6 -1.264,-1.313c0.012,-0.712 0.598,-1.28 1.309,-1.268Zm5.793,0.102c0.711,0.012 1.277,0.6 1.265,1.312c-0.013,0.713 -0.599,1.28 -1.31,1.268c-0.711,-0.012 -1.277,-0.6 -1.265,-1.313c0.013,-0.712 0.599,-1.28 1.31,-1.267Z" style="fill:#fff;fill-rule:nonzero;stroke:#004153;stroke-width:2px;stroke-linecap:round;stroke-linejoin:round;"/><path d="M142.51,278.291l2.931,99.162" style="fill:none;fill-rule:nonzero;stroke:#004153;stroke-width:3px;"/><path d="M139.286,225.265c15.305,-0.936 28.471,10.712 29.407,26.017c0.936,15.305 -10.712,28.471 -26.017,29.407c-15.305,0.936 -28.471,-10.712 -29.407,-26.017c-0.936,-15.305 10.712,-28.471 26.017,-29.407Z" style="fill:#fff;fill-rule:nonzero;stroke:#f39260;stroke-width:4px;stroke-linecap:round;stroke-linejoin:round;"/><path d="M124.463,249.905l32.539,-1.99c0.748,-0.046 1.392,0.524 1.438,1.273l0.332,5.423c0.046,0.749 -0.524,1.393 -1.273,1.438l-32.539,1.991c-0.748,0.045 -1.393,-0.524 -1.438,-1.273l-0.332,-5.423c-0.046,-0.749 0.524,-1.393 1.273,-1.439Z" style="fill:none;fill-rule:nonzero;stroke:#004153;stroke-width:2px;stroke-linecap:round;stroke-linejoin:round;"/><path d="M57.429,154.669l-2.14,87.846" style="fill:none;fill-rule:nonzero;stroke:#004153;stroke-width:3px;"/><path d="M106.705,182.835l-96.033,-5.873l-2.932,47.934l96.033,5.873l2.932,-47.934Z" style="fill:#f4f4f4;stroke:#004153;stroke-width:0.97px;"/><path d="M17.529,181.095l-1.751,0.621l-0.032,0.527l1.232,-0.442l-0.215,3.509l0.506,0.031l0.26,-4.246Z" style="fill:#989799;fill-rule:nonzero;"/><path d="M18.723,184.667c-0.218,-0.013 -0.421,0.163 -0.435,0.382c-0.013,0.221 0.167,0.425 0.385,0.438c0.219,0.013 0.419,-0.167 0.432,-0.388c0.014,-0.219 -0.163,-0.419 -0.382,-0.432Z" style="fill:#989799;fill-rule:nonzero;"/><path d="M22.442,181.45l-0.526,-0.032l-0.257,4.192l0.527,0.032l0.114,-1.863l2.474,0.152l-0.114,1.862l0.526,0.032l0.257,-4.191l-0.527,-0.033l-0.112,1.833l-2.474,-0.151l0.112,-1.833Z" style="fill:#989799;fill-rule:nonzero;"/><path d="M27.769,183.068c-0.863,-0.053 -1.542,0.546 -1.594,1.39c-0.052,0.845 0.55,1.522 1.412,1.574c0.863,0.053 1.545,-0.545 1.597,-1.39c0.052,-0.844 -0.553,-1.521 -1.415,-1.574Zm-0.029,0.461c0.57,0.035 0.978,0.487 0.941,1.083c-0.036,0.596 -0.497,0.997 -1.066,0.963c-0.572,-0.035 -0.977,-0.49 -0.94,-1.086c0.036,-0.596 0.493,-0.995 1.065,-0.96Z" style="fill:#989799;fill-rule:nonzero;"/><path d="M30.669,181.833l-0.487,-0.03l-0.264,4.312l0.488,0.03l0.263,-4.312Z" style="fill:#989799;fill-rule:nonzero;"/><path d="M32.826,183.378c-0.799,-0.049 -1.46,0.535 -1.513,1.395c-0.052,0.859 0.532,1.52 1.332,1.569c0.446,0.027 0.789,-0.126 1.03,-0.379l-0.023,0.38l0.491,0.03l0.263,-4.311l-0.49,-0.03l-0.114,1.85c-0.208,-0.283 -0.53,-0.477 -0.976,-0.504Zm0.029,0.464c0.575,0.035 0.949,0.5 0.914,1.081c-0.036,0.584 -0.464,1 -1.039,0.964c-0.584,-0.035 -0.952,-0.518 -0.917,-1.084c0.035,-0.566 0.449,-0.997 1.042,-0.961Z" style="fill:#989799;fill-rule:nonzero;"/><path d="M59.838,111.205c15.334,0 27.764,12.431 27.764,27.764c0,15.334 -12.43,27.764 -27.764,27.764c-15.333,-0 -27.764,-12.43 -27.764,-27.764c0,-15.333 12.431,-27.764 27.764,-27.764Z" style="fill:#fff;fill-rule:nonzero;stroke:#f39260;stroke-width:4px;stroke-linecap:round;stroke-linejoin:round;"/><path d="M64.713,147.887c-0.045,0.874 -0.799,1.545 -1.683,1.499l-8.001,-0.419c-0.884,-0.047 -1.563,-0.793 -1.517,-1.667l1.161,-22.154c0.092,-1.748 1.599,-3.09 3.366,-2.998l4.801,0.252c1.767,0.093 3.126,1.585 3.034,3.333l-1.161,22.154Zm-4.854,-14.535c1.326,0.069 2.345,1.188 2.276,2.499c-0.069,1.311 -1.199,2.317 -2.525,2.248c-1.325,-0.07 -2.344,-1.189 -2.276,-2.5c0.069,-1.31 1.199,-2.317 2.525,-2.247Zm-0.415,7.912c1.326,0.069 2.345,1.188 2.276,2.499c-0.068,1.311 -1.199,2.318 -2.524,2.248c-1.326,-0.069 -2.345,-1.188 -2.276,-2.499c0.068,-1.311 1.199,-2.318 2.524,-2.248Zm0.83,-15.825c1.325,0.07 2.344,1.189 2.276,2.5c-0.069,1.311 -1.199,2.317 -2.525,2.248c-1.326,-0.07 -2.345,-1.189 -2.276,-2.5c0.069,-1.311 1.199,-2.317 2.525,-2.248Zm-2.044,23.695l-0.498,9.495m8.142,-32.896l4.641,0.243c0.221,0.011 0.391,0.197 0.38,0.416c-0.005,0.105 -0.053,0.204 -0.132,0.274l-5.179,4.605m-0.124,2.374l4.64,0.243c0.221,0.011 0.391,0.198 0.38,0.416c-0.005,0.105 -0.053,0.204 -0.132,0.275l-5.179,4.605m-0.124,2.373l4.641,0.244c0.221,0.011 0.391,0.197 0.38,0.416c-0.006,0.105 -0.053,0.204 -0.133,0.274l-5.178,4.605m-10.082,-21.95l-4.641,-0.244c-0.22,-0.011 -0.409,0.156 -0.421,0.374c-0.006,0.106 0.031,0.209 0.103,0.287l4.669,5.121m-0.125,2.374l-4.64,-0.243c-0.221,-0.012 -0.41,0.155 -0.422,0.374c-0.005,0.105 0.032,0.208 0.103,0.287l4.669,5.121m-0.124,2.373l-4.641,-0.243c-0.221,-0.012 -0.41,0.156 -0.421,0.374c-0.006,0.105 0.031,0.209 0.102,0.287l4.669,5.121" style="fill:none;fill-rule:nonzero;stroke:#004153;stroke-width:2px;stroke-linecap:round;stroke-linejoin:round;"/><circle cx="60.308" cy="127.65" r="2.338" style="fill:#004153;"/><path d="M146.313,143.863l6.589,76.259" style="fill:none;fill-rule:nonzero;stroke:#004153;stroke-width:3px;"/><path d="M195.259,158.9l-95.916,7.548l3.768,47.876l95.916,-7.549l-3.768,-47.875Z" style="fill:#f4f4f4;stroke:#004153;stroke-width:0.97px;"/><path d="M106.091,172.299c0.179,-0.285 0.409,-0.544 0.875,-0.581c0.53,-0.041 0.863,0.29 0.899,0.757c0.027,0.344 -0.118,0.638 -0.348,0.921l-1.437,1.778l0.031,0.397l2.646,-0.208l-0.038,-0.481l-1.895,0.149l1.101,-1.372c0.247,-0.305 0.511,-0.702 0.47,-1.223c-0.059,-0.75 -0.6,-1.27 -1.455,-1.203c-0.724,0.057 -1.063,0.493 -1.237,0.798l0.388,0.268Z" style="fill:#989799;fill-rule:nonzero;"/><path d="M109.843,174.513c-0.218,0.018 -0.394,0.221 -0.377,0.439c0.017,0.221 0.223,0.398 0.442,0.381c0.218,-0.018 0.391,-0.224 0.374,-0.445c-0.017,-0.218 -0.221,-0.392 -0.439,-0.375Z" style="fill:#989799;fill-rule:nonzero;"/><path d="M114.329,170.712l-0.655,0.051l-1.372,4.321l0.547,-0.043l0.368,-1.179l2.03,-0.159l0.551,1.106l0.565,-0.045l-2.034,-4.052Zm-0.294,0.547l0.973,1.96l-1.63,0.129l0.657,-2.089Z" style="fill:#989799;fill-rule:nonzero;"/><path d="M118.908,171.958c-0.29,-0.166 -0.709,-0.254 -1.158,-0.218c-0.691,0.054 -1.116,0.418 -1.074,0.962c0.034,0.431 0.365,0.694 1.008,0.722l0.332,0.013c0.39,0.017 0.585,0.134 0.602,0.344c0.022,0.281 -0.253,0.456 -0.72,0.493c-0.475,0.037 -0.77,-0.078 -0.995,-0.226l-0.199,0.383c0.396,0.251 0.875,0.298 1.225,0.27c0.775,-0.061 1.231,-0.448 1.189,-0.99c-0.037,-0.469 -0.413,-0.696 -1.023,-0.729l-0.333,-0.016c-0.347,-0.015 -0.562,-0.103 -0.58,-0.33c-0.02,-0.258 0.218,-0.442 0.607,-0.473c0.374,-0.029 0.747,0.083 0.936,0.192l0.183,-0.397Z" style="fill:#989799;fill-rule:nonzero;"/><path d="M121.88,171.724c-0.289,-0.166 -0.709,-0.254 -1.157,-0.218c-0.691,0.054 -1.117,0.418 -1.074,0.962c0.034,0.431 0.365,0.694 1.008,0.722l0.332,0.013c0.389,0.017 0.585,0.134 0.602,0.344c0.022,0.281 -0.253,0.456 -0.72,0.493c-0.476,0.037 -0.77,-0.078 -0.996,-0.226l-0.198,0.383c0.396,0.251 0.875,0.298 1.225,0.27c0.774,-0.061 1.231,-0.448 1.188,-0.99c-0.036,-0.469 -0.412,-0.696 -1.023,-0.729l-0.332,-0.016c-0.347,-0.015 -0.562,-0.103 -0.58,-0.33c-0.02,-0.258 0.218,-0.442 0.607,-0.473c0.374,-0.029 0.747,0.083 0.936,0.192l0.182,-0.397Z" style="fill:#989799;fill-rule:nonzero;"/><path d="M123.899,171.253c-0.817,0.064 -1.364,0.718 -1.295,1.591c0.069,0.885 0.714,1.433 1.558,1.367c0.418,-0.033 0.805,-0.166 1.132,-0.522l-0.286,-0.315c-0.226,0.229 -0.518,0.381 -0.85,0.407c-0.488,0.038 -0.92,-0.22 -1.036,-0.804l2.235,-0.175c-0.002,-0.054 -0.001,-0.121 -0.006,-0.183c-0.074,-0.87 -0.678,-1.427 -1.452,-1.366Zm0.025,0.434c0.461,-0.037 0.812,0.261 0.911,0.759l-1.738,0.137c0.037,-0.491 0.324,-0.857 0.827,-0.896Z" style="fill:#989799;fill-rule:nonzero;"/><path d="M128.206,171.226c-0.29,-0.166 -0.709,-0.254 -1.158,-0.218c-0.691,0.054 -1.116,0.418 -1.073,0.963c0.034,0.43 0.364,0.693 1.007,0.721l0.332,0.013c0.39,0.017 0.586,0.134 0.602,0.344c0.022,0.281 -0.253,0.456 -0.72,0.493c-0.475,0.037 -0.77,-0.078 -0.995,-0.226l-0.199,0.383c0.396,0.252 0.875,0.298 1.225,0.27c0.775,-0.061 1.232,-0.448 1.189,-0.99c-0.037,-0.469 -0.413,-0.695 -1.023,-0.729l-0.333,-0.016c-0.347,-0.014 -0.562,-0.103 -0.579,-0.33c-0.021,-0.258 0.218,-0.442 0.607,-0.472c0.374,-0.03 0.747,0.082 0.935,0.191l0.183,-0.397Z" style="fill:#989799;fill-rule:nonzero;"/><path d="M131.179,170.992c-0.29,-0.166 -0.709,-0.254 -1.158,-0.218c-0.691,0.054 -1.116,0.418 -1.074,0.963c0.034,0.43 0.365,0.693 1.008,0.721l0.332,0.013c0.39,0.017 0.586,0.135 0.602,0.344c0.022,0.281 -0.253,0.456 -0.72,0.493c-0.475,0.037 -0.77,-0.078 -0.995,-0.226l-0.199,0.383c0.396,0.252 0.875,0.298 1.225,0.271c0.775,-0.061 1.231,-0.449 1.189,-0.991c-0.037,-0.469 -0.413,-0.695 -1.023,-0.729l-0.333,-0.016c-0.347,-0.014 -0.562,-0.103 -0.58,-0.33c-0.02,-0.257 0.218,-0.442 0.607,-0.472c0.374,-0.03 0.747,0.082 0.936,0.191l0.183,-0.397Z" style="fill:#989799;fill-rule:nonzero;"/><path d="M144.981,94.064c15.331,0.268 27.543,12.913 27.275,28.245c-0.268,15.331 -12.913,27.542 -28.244,27.275c-15.331,-0.268 -27.543,-12.913 -27.275,-28.245c0.267,-15.331 12.913,-27.542 28.244,-27.275Z" style="fill:#fff;fill-rule:nonzero;stroke:#f39260;stroke-width:4px;stroke-linecap:round;stroke-linejoin:round;"/><path d="M140.149,126.914l9.437,-0.743m-6.31,-19.851c8.563,-0.674 16.051,5.721 16.725,14.284c0.674,8.563 -5.722,16.05 -14.284,16.724c-8.563,0.674 -16.051,-5.721 -16.725,-14.284c-0.674,-8.563 5.721,-16.05 14.284,-16.724Zm-9.262,11.581c0.334,-0.801 1.059,-1.371 1.916,-1.507c1.348,-0.106 2.128,1.189 3.476,1.083c0.857,-0.136 1.582,-0.707 1.917,-1.508m9.437,-0.742c1.861,-0.147 3.489,1.243 3.636,3.105c0.146,1.861 -1.244,3.489 -3.106,3.636c-1.861,0.146 -3.489,-1.244 -3.635,-3.106c-0.147,-1.861 1.243,-3.489 3.105,-3.635Zm0.239,3.033c-0.187,0.015 -0.326,0.177 -0.311,0.364c0.015,0.186 0.178,0.325 0.364,0.31c0.186,-0.014 0.325,-0.177 0.31,-0.363c-0.014,-0.187 -0.177,-0.326 -0.363,-0.311m2.245,-5.942c-1.234,-1.401 -3.37,-1.537 -4.772,-0.303c-0.24,0.212 -0.449,0.457 -0.621,0.727m-12.171,9.098l4.045,-0.319" style="fill:none;fill-rule:nonzero;stroke:#004153;stroke-width:2px;stroke-linecap:round;stroke-linejoin:round;"/><path d="M59.595,318.177l-1.165,70.856" style="fill:none;fill-rule:nonzero;stroke:#004153;stroke-width:3px;"/><path d="M109.502,334.242l-95.978,-6.711l-3.35,47.906l95.978,6.712l3.35,-47.907Z" style="fill:#f4f4f4;stroke:#004153;stroke-width:0.97px;"/><path d="M20.604,333.798l-0.505,-0.035l-0.081,1.158l-1.329,-0.093l1.731,-2.733l-0.575,-0.04l-1.77,2.82l-0.027,0.389l1.936,0.135l-0.06,0.865l0.505,0.036l0.061,-0.865l0.697,0.048l0.034,-0.478l-0.698,-0.049l0.081,-1.158Z" style="fill:#989799;fill-rule:nonzero;"/><path d="M22.212,335.661c-0.218,-0.016 -0.423,0.16 -0.438,0.378c-0.015,0.221 0.163,0.426 0.381,0.441c0.219,0.016 0.42,-0.163 0.436,-0.384c0.015,-0.218 -0.16,-0.42 -0.379,-0.435Z" style="fill:#989799;fill-rule:nonzero;"/><path d="M27.211,332.564l-0.656,-0.046l-1.996,4.07l0.548,0.039l0.538,-1.112l2.032,0.143l0.381,1.175l0.566,0.039l-1.413,-4.308Zm-0.372,0.497l0.672,2.083l-1.631,-0.114l0.959,-1.969Z" style="fill:#989799;fill-rule:nonzero;"/><path d="M30.631,334.096c-0.799,-0.056 -1.465,0.523 -1.525,1.382c-0.06,0.859 0.519,1.525 1.318,1.581c0.446,0.031 0.79,-0.119 1.033,-0.37l-0.026,0.38l0.49,0.034l0.302,-4.309l-0.491,-0.034l-0.129,1.849c-0.206,-0.285 -0.526,-0.482 -0.972,-0.513Zm0.025,0.465c0.574,0.04 0.945,0.508 0.904,1.088c-0.041,0.584 -0.472,0.996 -1.047,0.956c-0.584,-0.041 -0.947,-0.526 -0.907,-1.092c0.039,-0.566 0.457,-0.994 1.05,-0.952Z" style="fill:#989799;fill-rule:nonzero;"/><path d="M34.447,334.363c-0.862,-0.06 -1.547,0.532 -1.606,1.376c-0.059,0.844 0.537,1.526 1.399,1.586c0.862,0.061 1.549,-0.531 1.608,-1.376c0.059,-0.844 -0.539,-1.526 -1.401,-1.586Zm-0.032,0.46c0.568,0.04 0.973,0.496 0.931,1.091c-0.042,0.596 -0.506,0.994 -1.074,0.954c-0.572,-0.04 -0.973,-0.498 -0.932,-1.094c0.042,-0.596 0.503,-0.991 1.075,-0.951Z" style="fill:#989799;fill-rule:nonzero;"/><path d="M38.262,334.63c-0.449,-0.032 -0.793,0.119 -1.033,0.369l0.027,-0.379l-0.488,-0.035l-0.282,4.04l0.487,0.034l0.11,-1.577c0.203,0.282 0.523,0.479 0.972,0.51c0.797,0.056 1.465,-0.523 1.525,-1.381c0.06,-0.86 -0.521,-1.526 -1.318,-1.581Zm-0.089,0.456c0.581,0.041 0.944,0.524 0.905,1.089c-0.04,0.566 -0.458,0.997 -1.048,0.956c-0.574,-0.04 -0.945,-0.509 -0.904,-1.092c0.041,-0.581 0.473,-0.993 1.047,-0.953Z" style="fill:#989799;fill-rule:nonzero;"/><path d="M42.4,334.979l-1.194,-0.083l0.062,-0.892l-0.49,-0.034l-0.063,0.891l-0.607,-0.042l-0.031,0.446l0.607,0.042l-0.097,1.395c-0.051,0.724 0.293,1.088 0.91,1.131c0.35,0.024 0.643,-0.078 0.872,-0.222l-0.204,-0.384c-0.17,0.1 -0.385,0.166 -0.594,0.151c-0.309,-0.021 -0.523,-0.223 -0.493,-0.651l0.097,-1.386l1.194,0.084l0.031,-0.446Z" style="fill:#989799;fill-rule:nonzero;"/><path d="M63.631,262.865c15.25,1.603 26.313,15.265 24.71,30.514c-1.603,15.25 -15.264,26.313 -30.514,24.71c-15.249,-1.603 -26.312,-15.265 -24.709,-30.514c1.602,-15.25 15.264,-26.312 30.513,-24.71Z" style="fill:#fff;fill-rule:nonzero;stroke:#f39260;stroke-width:4px;stroke-linecap:round;stroke-linejoin:round;"/><g><path d="M74.202,278.79c-0.104,-0.324 -0.452,-0.502 -0.777,-0.397c-0.103,0.033 -0.196,0.093 -0.268,0.173l-1.731,1.926c-0.093,0.104 -0.219,0.173 -0.357,0.195l-1.949,0.321c-0.183,0.028 -0.37,-0.027 -0.508,-0.151c-0.139,-0.124 -0.213,-0.304 -0.203,-0.49l0.115,-1.971c0.008,-0.14 0.063,-0.273 0.158,-0.376l1.725,-1.931c0.228,-0.254 0.206,-0.644 -0.047,-0.872c-0.081,-0.072 -0.179,-0.122 -0.285,-0.144c-0.467,-0.105 -0.945,-0.148 -1.423,-0.129l-0.007,0.001c-3.062,0.16 -5.414,2.772 -5.253,5.834c0.16,3.062 2.772,5.414 5.834,5.253c3.061,-0.159 5.413,-2.769 5.254,-5.83c0,-0.002 0,-0.003 0,-0.004c-0.03,-0.48 -0.124,-0.953 -0.278,-1.408Z" style="fill:none;fill-rule:nonzero;stroke:#004153;stroke-width:2px;stroke-miterlimit:10;"/><path d="M49.905,298.799l-2.934,3.265m17.066,-18.961l-2.956,3.283m-8.512,12.303c-0.686,0.765 -1.862,0.829 -2.626,0.143c-0.003,-0.002 -0.005,-0.004 -0.007,-0.005l-1.636,-1.458c-0.765,-0.686 -0.829,-1.862 -0.143,-2.626c0.002,-0.003 0.004,-0.005 0.005,-0.007c0.329,-0.375 0.798,-0.597 1.296,-0.616c0.493,-0.033 0.977,0.141 1.337,0.478l1.636,1.459c0.765,0.685 0.829,1.86 0.144,2.625c-0.002,0.002 -0.004,0.004 -0.006,0.007Zm-2.949,-5.182c-0.75,-0.705 -0.786,-1.886 -0.081,-2.636c0.684,-0.727 1.819,-0.787 2.576,-0.136l2.857,2.574c0.367,0.329 0.586,0.79 0.61,1.281c0.027,0.496 -0.145,0.983 -0.477,1.352c-0.703,0.734 -1.856,0.795 -2.633,0.138l-2.852,-2.573Zm7.949,-0.37c-0.686,0.765 -1.862,0.829 -2.626,0.143c-0.002,-0.001 -0.005,-0.003 -0.007,-0.005l-2.858,-2.573c-0.765,-0.687 -0.828,-1.865 -0.14,-2.63c0,-0.001 0.001,-0.002 0.002,-0.002c0.327,-0.369 0.788,-0.591 1.279,-0.616c0.497,-0.027 0.984,0.145 1.354,0.478l2.858,2.572c0.765,0.688 0.828,1.865 0.14,2.63c-0,0.001 -0.001,0.002 -0.002,0.003Zm1.792,-3.887c0.002,0.053 0.005,0.105 0.008,0.156c0.033,0.344 -0.148,0.673 -0.458,0.827c-0.691,0.337 -1.517,0.233 -2.104,-0.266l-1.618,-1.476c-0.373,-0.323 -0.595,-0.787 -0.612,-1.281c-0.033,-0.497 0.141,-0.987 0.48,-1.352c0.704,-0.734 1.857,-0.794 2.633,-0.138l1.55,1.421c0.015,0.013 0.028,0.028 0.041,0.041m-3.651,16.482l-2.742,-2.467m-2.514,2.754l11.398,-12.489l-2.184,-1.963c-0.728,-0.675 -0.77,-1.811 -0.096,-2.539c0.661,-0.712 1.768,-0.77 2.499,-0.131l2.668,2.404c1.968,1.77 2.128,4.801 0.358,6.768c-0.001,0.001 -0.002,0.002 -0.003,0.003l-0.394,0.438c-1.325,1.475 -1.206,3.744 0.266,5.072l1.633,1.642m-2.344,-14.362l2.799,-3.11" style="fill:none;fill-rule:nonzero;stroke:#004153;stroke-width:2px;stroke-linecap:round;stroke-linejoin:round;"/></g><path d="M191.764,290.722l-95.978,6.711l3.35,47.907l95.978,-6.711l-3.35,-47.907Z" style="fill:#f4f4f4;stroke:#004153;stroke-width:0.97px;"/><path d="M288.391,151.396l-95.028,-15.05l-7.512,47.432l95.028,15.051l7.512,-47.433Z" style="fill:#f4f4f4;stroke:#004153;stroke-width:0.97px;"/><path d="M199.509,141.196c-0.617,-0.098 -1.095,0.102 -1.389,0.423l0.313,0.363c0.218,-0.221 0.56,-0.389 0.969,-0.324c0.501,0.08 0.846,0.411 0.777,0.846c-0.075,0.475 -0.504,0.65 -0.998,0.571l-0.534,-0.084l-0.072,0.459l0.533,0.084c0.539,0.086 0.936,0.416 0.863,0.881c-0.079,0.495 -0.537,0.663 -1.037,0.583c-0.4,-0.063 -0.751,-0.283 -0.967,-0.59l-0.373,0.287c0.247,0.397 0.688,0.68 1.277,0.773c0.735,0.117 1.495,-0.155 1.62,-0.949c0.077,-0.483 -0.164,-0.858 -0.567,-1.092c0.405,-0.106 0.704,-0.384 0.78,-0.864c0.109,-0.684 -0.372,-1.237 -1.195,-1.367Z" style="fill:#989799;fill-rule:nonzero;"/><path d="M201.539,145.059c-0.216,-0.034 -0.435,0.122 -0.469,0.338c-0.035,0.219 0.124,0.439 0.341,0.473c0.216,0.035 0.432,-0.125 0.467,-0.345c0.034,-0.216 -0.123,-0.432 -0.339,-0.466Z" style="fill:#989799;fill-rule:nonzero;"/><path d="M207.798,142.569l-3.35,-0.53l-0.079,0.494l1.417,0.224l-0.579,3.654l0.521,0.082l0.579,-3.653l1.413,0.224l0.078,-0.495Z" style="fill:#989799;fill-rule:nonzero;"/><path d="M209.152,144.09c-0.335,-0.053 -0.652,0.054 -0.891,0.299l0.058,-0.37l-0.477,-0.076l-0.445,2.815l0.482,0.076l0.249,-1.567c0.082,-0.519 0.436,-0.8 0.866,-0.732c0.16,0.025 0.343,0.094 0.465,0.186l0.194,-0.458c-0.14,-0.089 -0.299,-0.141 -0.501,-0.173Z" style="fill:#989799;fill-rule:nonzero;"/><path d="M210.808,144.413l-0.482,-0.077l-0.446,2.815l0.482,0.076l0.446,-2.814Zm-0.034,-1.375c-0.192,-0.031 -0.364,0.097 -0.395,0.292c-0.031,0.193 0.094,0.362 0.287,0.392c0.192,0.031 0.369,-0.09 0.4,-0.283c0.031,-0.195 -0.1,-0.371 -0.292,-0.401Z" style="fill:#989799;fill-rule:nonzero;"/><path d="M214.506,144.999l-0.486,-0.077l-0.06,0.379c-0.18,-0.302 -0.481,-0.526 -0.923,-0.596c-0.791,-0.125 -1.505,0.393 -1.64,1.244c-0.134,0.85 0.384,1.564 1.175,1.689c0.442,0.07 0.798,-0.049 1.062,-0.278l-0.059,0.376l0.485,0.077l0.446,-2.814Zm-1.485,0.171c0.569,0.09 0.897,0.589 0.806,1.164c-0.091,0.577 -0.557,0.95 -1.126,0.86c-0.578,-0.091 -0.898,-0.607 -0.809,-1.167c0.089,-0.56 0.542,-0.95 1.129,-0.857Z" style="fill:#989799;fill-rule:nonzero;"/><path d="M216.244,143.786l-0.482,-0.077l-0.676,4.267l0.482,0.076l0.676,-4.266Z" style="fill:#989799;fill-rule:nonzero;"/><path d="M105.035,301.254l-2.289,0.16l0.102,2.146l0.925,-0.065c0.805,-0.056 1.112,0.293 1.142,0.727c0.031,0.446 -0.263,0.845 -0.861,0.887c-0.413,0.029 -0.836,-0.128 -1.125,-0.427l-0.312,0.353c0.384,0.409 0.878,0.597 1.474,0.555c0.79,-0.055 1.408,-0.579 1.348,-1.447c-0.047,-0.668 -0.56,-1.206 -1.544,-1.137l-0.602,0.042l-0.047,-1.188l1.823,-0.127l-0.034,-0.479Z" style="fill:#989799;fill-rule:nonzero;"/><path d="M106.61,304.591c-0.219,0.015 -0.397,0.217 -0.382,0.435c0.016,0.221 0.221,0.399 0.439,0.384c0.218,-0.015 0.394,-0.22 0.378,-0.441c-0.015,-0.218 -0.217,-0.394 -0.435,-0.378Z" style="fill:#989799;fill-rule:nonzero;"/><path d="M112.383,301.14c-0.414,-0.244 -0.909,-0.396 -1.54,-0.352c-0.883,0.062 -1.569,0.563 -1.513,1.372c0.05,0.715 0.623,0.997 1.32,1.032l0.392,0.021c0.659,0.035 1.022,0.196 1.049,0.585c0.033,0.473 -0.44,0.762 -1.066,0.806c-0.532,0.037 -1.089,-0.138 -1.397,-0.369l-0.257,0.439c0.427,0.31 1.094,0.471 1.689,0.429c0.907,-0.063 1.634,-0.553 1.575,-1.388c-0.051,-0.739 -0.679,-0.984 -1.394,-1.021l-0.371,-0.02c-0.635,-0.033 -0.968,-0.206 -0.995,-0.586c-0.032,-0.452 0.386,-0.758 1,-0.8c0.485,-0.034 0.912,0.092 1.269,0.299l0.239,-0.447Z" style="fill:#989799;fill-rule:nonzero;"/><path d="M115.283,301.891l-1.194,0.083l-0.062,-0.891l-0.49,0.034l0.062,0.892l-0.608,0.042l0.032,0.446l0.607,-0.043l0.098,1.395c0.05,0.724 0.442,1.037 1.058,0.993c0.35,-0.024 0.626,-0.167 0.833,-0.34l-0.256,-0.352c-0.154,0.122 -0.358,0.217 -0.567,0.232c-0.308,0.022 -0.549,-0.148 -0.579,-0.576l-0.097,-1.386l1.195,-0.084l-0.032,-0.445Z" style="fill:#989799;fill-rule:nonzero;"/><path d="M117.344,301.687c-0.862,0.06 -1.457,0.742 -1.398,1.586c0.059,0.844 0.743,1.436 1.606,1.376c0.862,-0.06 1.46,-0.742 1.401,-1.586c-0.059,-0.845 -0.747,-1.437 -1.609,-1.376Zm0.033,0.46c0.568,-0.04 1.032,0.355 1.074,0.951c0.041,0.595 -0.363,1.054 -0.931,1.094c-0.572,0.039 -1.033,-0.358 -1.075,-0.954c-0.041,-0.596 0.36,-1.051 0.932,-1.091Z" style="fill:#989799;fill-rule:nonzero;"/><path d="M121.16,301.42c-0.449,0.031 -0.769,0.228 -0.972,0.51l-0.026,-0.38l-0.488,0.034l0.283,4.04l0.487,-0.034l-0.11,-1.577c0.24,0.25 0.584,0.401 1.033,0.369c0.796,-0.055 1.378,-0.721 1.318,-1.58c-0.06,-0.859 -0.729,-1.438 -1.525,-1.382Zm-0.025,0.464c0.581,-0.04 1.008,0.387 1.048,0.953c0.039,0.565 -0.315,1.05 -0.905,1.092c-0.574,0.04 -1.006,-0.372 -1.047,-0.956c-0.041,-0.58 0.33,-1.049 0.904,-1.089Z" style="fill:#989799;fill-rule:nonzero;"/><path d="M286.975,307.534l-96.209,0.84l0.419,48.022l96.209,-0.84l-0.419,-48.022Z" style="fill:#f4f4f4;stroke:#004153;stroke-width:0.97px;"/><path d="M198.013,311.955l-0.621,0.005l-1.223,1.937c-0.207,0.329 -0.321,0.624 -0.318,0.963c0.007,0.783 0.651,1.368 1.509,1.36c0.861,-0.007 1.491,-0.6 1.485,-1.386c-0.007,-0.787 -0.642,-1.369 -1.422,-1.362c-0.207,0.002 -0.363,0.045 -0.479,0.103l1.069,-1.62Zm-0.673,1.988c0.558,-0.004 0.975,0.367 0.98,0.895c0.005,0.528 -0.406,0.907 -0.964,0.912c-0.558,0.005 -0.979,-0.367 -0.983,-0.895c-0.005,-0.528 0.409,-0.907 0.967,-0.912Z" style="fill:#989799;fill-rule:nonzero;"/><path d="M199.891,315.377c-0.219,0.002 -0.41,0.192 -0.408,0.411c0.002,0.222 0.196,0.412 0.415,0.41c0.219,-0.002 0.406,-0.195 0.404,-0.417c-0.002,-0.219 -0.193,-0.406 -0.411,-0.404Z" style="fill:#989799;fill-rule:nonzero;"/><path d="M202.849,311.913l0.036,4.199l0.528,-0.004l-0.016,-1.812l0.492,-0.005l1.459,1.8l0.654,-0.006l-1.495,-1.799l0.033,-0c0.9,-0.008 1.463,-0.481 1.456,-1.21c-0.006,-0.765 -0.532,-1.186 -1.48,-1.178l-1.667,0.015Zm1.66,0.48c0.609,-0.005 0.935,0.223 0.939,0.688c0.004,0.471 -0.309,0.72 -0.927,0.725l-1.128,0.01l-0.012,-1.413l1.128,-0.01Z" style="fill:#989799;fill-rule:nonzero;"/><path d="M207.956,313.158c-0.819,0.007 -1.41,0.621 -1.402,1.497c0.007,0.888 0.612,1.48 1.458,1.472c0.42,-0.003 0.816,-0.109 1.166,-0.441l-0.263,-0.334c-0.241,0.212 -0.543,0.344 -0.876,0.347c-0.489,0.004 -0.903,-0.284 -0.977,-0.874l2.241,-0.02c0.002,-0.054 0.008,-0.12 0.007,-0.183c-0.013,-0.873 -0.576,-1.471 -1.354,-1.464Zm-0.005,0.435c0.462,-0.004 0.792,0.317 0.857,0.821l-1.744,0.015c0.071,-0.487 0.383,-0.832 0.887,-0.836Z" style="fill:#989799;fill-rule:nonzero;"/><path d="M213.653,313.108c-0.387,0.004 -0.827,0.149 -1.057,0.582c-0.192,-0.355 -0.575,-0.567 -1.058,-0.563c-0.33,0.003 -0.698,0.117 -0.929,0.44l-0.003,-0.372l-0.486,0.004l0.025,2.85l0.489,-0.004l-0.014,-1.599c-0.005,-0.531 0.376,-0.85 0.835,-0.854c0.495,-0.004 0.786,0.302 0.791,0.827l0.014,1.611l0.491,-0.004l-0.013,-1.599c-0.005,-0.519 0.361,-0.849 0.832,-0.853c0.495,-0.005 0.786,0.302 0.791,0.827l0.014,1.611l0.491,-0.004l-0.015,-1.77c-0.006,-0.684 -0.493,-1.136 -1.198,-1.13Z" style="fill:#989799;fill-rule:nonzero;"/><path d="M217.139,313.078c-0.864,0.008 -1.5,0.652 -1.493,1.498c0.008,0.846 0.655,1.479 1.519,1.472c0.864,-0.008 1.503,-0.652 1.496,-1.498c-0.008,-0.847 -0.658,-1.48 -1.522,-1.472Zm0.004,0.462c0.57,-0.005 1.009,0.417 1.014,1.014c0.005,0.597 -0.426,1.03 -0.996,1.035c-0.573,0.005 -1.009,-0.42 -1.014,-1.017c-0.005,-0.598 0.423,-1.027 0.996,-1.032Z" style="fill:#989799;fill-rule:nonzero;"/><path d="M221.966,313.096l-0.519,0.004l-0.939,2.363l-0.977,-2.346l-0.534,0.005l1.224,2.842l0.576,-0.005l1.169,-2.863Z" style="fill:#989799;fill-rule:nonzero;"/><path d="M223.733,313.02c-0.819,0.008 -1.411,0.622 -1.403,1.498c0.008,0.888 0.613,1.479 1.459,1.472c0.42,-0.004 0.815,-0.109 1.166,-0.442l-0.264,-0.334c-0.241,0.212 -0.543,0.344 -0.876,0.347c-0.489,0.004 -0.903,-0.283 -0.977,-0.874l2.241,-0.02c0.003,-0.054 0.008,-0.12 0.008,-0.182c-0.014,-0.873 -0.577,-1.471 -1.354,-1.465Zm-0.005,0.435c0.462,-0.004 0.792,0.317 0.856,0.821l-1.743,0.015c0.071,-0.487 0.383,-0.831 0.887,-0.836Z" style="fill:#989799;fill-rule:nonzero;"/></g></svg>