<?xml version="1.0" encoding="UTF-8" standalone="no"?><!DOCTYPE svg PUBLIC "-//W3C//DTD SVG 1.1//EN" "http://www.w3.org/Graphics/SVG/1.1/DTD/svg11.dtd"><svg width="100%" height="100%" viewBox="0 0 298 420" version="1.1" xmlns="http://www.w3.org/2000/svg" xmlns:xlink="http://www.w3.org/1999/xlink" xml:space="preserve" xmlns:serif="http://www.serif.com/" style="fill-rule:evenodd;clip-rule:evenodd;stroke-linecap:round;stroke-linejoin:round;"><g id="Ebene-1" serif:id="Ebene 1"><rect x="218.758" y="385.673" width="3.28" height="13.775" style="fill:#004153;"/><path d="M245.758,399.449l-0,-13.776l-3.28,0l-0,8.423l-6.298,-8.423l-3.148,0l-0,8.423l-6.271,-8.423l-3.149,0l-0,13.776l3.28,-0l-0,-8.397l6.271,8.397l3.175,-0l-0,-8.397l6.271,8.397l3.149,-0Z" style="fill:#004153;fill-rule:nonzero;"/><path d="M254.154,388.56c2.23,-0 3.831,1.627 3.831,3.988c-0,2.362 -1.601,3.988 -3.831,3.988c-2.257,0 -3.831,-1.626 -3.831,-3.988c0,-2.361 1.601,-3.988 3.831,-3.988m0,-3.149c-4.251,0 -7.268,3.044 -7.268,7.137c-0,4.093 3.017,7.137 7.268,7.137c4.251,0 7.268,-3.044 7.268,-7.137c0,-4.093 -3.017,-7.137 -7.268,-7.137" style="fill:#004153;fill-rule:nonzero;"/><path d="M269.609,388.56c2.23,-0 3.831,1.627 3.831,3.988c-0,0.446 -0.053,0.866 -0.158,1.26l-0.446,-0.604l-3.568,0l2.177,2.913c-0.524,0.262 -1.154,0.419 -1.81,0.419c-2.23,0 -3.831,-1.626 -3.831,-3.988c-0.026,-2.335 1.574,-3.988 3.805,-3.988m-0,-3.149c-4.251,0 -7.268,3.044 -7.268,7.137c-0,4.093 3.017,7.137 7.268,7.137c1.443,0 2.676,-0.394 3.726,-1.076l0.603,0.814l3.857,-0l-2.178,-2.939c0.761,-1.102 1.207,-2.388 1.207,-3.936c0.053,-4.093 -2.965,-7.137 -7.215,-7.137" style="fill:#f39260;fill-rule:nonzero;"/></g><g id="Ebene-11" serif:id="Ebene 1"><g transform="matrix(1,0,0,1,148.819,73.4173)"><g transform="matrix(16,0,0,16,-128.976,-42.0553)"><path d="M0.594,-0.7l-0.581,0l-0,0.155l0.207,-0l0,0.545l0.167,-0l-0,-0.545l0.207,-0l-0,-0.155Z" style="fill:#004153;fill-rule:nonzero;"/></g><g transform="matrix(16,0,0,16,-120.696,-42.0553)"><path d="M0.281,-0.504c-0.15,0 -0.252,0.107 -0.252,0.261c0,0.154 0.104,0.256 0.259,0.256c0.09,-0 0.164,-0.03 0.215,-0.08l-0.1,-0.095c-0.031,0.029 -0.071,0.044 -0.107,0.044c-0.055,-0 -0.093,-0.025 -0.106,-0.079l0.333,-0c0.002,-0.011 0.003,-0.033 0.003,-0.049c-0.001,-0.153 -0.1,-0.258 -0.245,-0.258Zm0,0.133c0.046,-0 0.076,0.026 0.089,0.075l-0.179,0c0.012,-0.049 0.041,-0.075 0.09,-0.075Z" style="fill:#004153;fill-rule:nonzero;"/></g><g transform="matrix(16,0,0,16,-111.816,-42.0553)"><path d="M0.293,-0.504c-0.156,0 -0.264,0.108 -0.264,0.259c0,0.15 0.108,0.258 0.264,0.258c0.091,-0 0.163,-0.04 0.21,-0.106l-0.122,-0.087c-0.024,0.031 -0.055,0.047 -0.092,0.047c-0.055,0 -0.1,-0.041 -0.1,-0.112c-0,-0.071 0.046,-0.113 0.101,-0.113c0.038,-0 0.066,0.015 0.09,0.047l0.123,-0.086c-0.047,-0.066 -0.119,-0.107 -0.21,-0.107Z" style="fill:#004153;fill-rule:nonzero;"/></g><g transform="matrix(16,0,0,16,-103.512,-42.0553)"><path d="M0.211,-0.72l-0.156,-0l0,0.72l0.156,-0l0,-0.264c0,-0.064 0.036,-0.093 0.08,-0.093c0.049,-0 0.078,0.032 0.078,0.09l-0,0.267l0.156,-0l-0,-0.322c-0,-0.113 -0.076,-0.182 -0.174,-0.182c-0.061,0 -0.109,0.021 -0.14,0.065l0,-0.281Z" style="fill:#004153;fill-rule:nonzero;"/></g><g transform="matrix(16,0,0,16,-94.2884,-42.0553)"><path d="M0.351,-0.504c-0.066,0 -0.115,0.024 -0.146,0.075l-0,-0.061l-0.15,-0l0,0.49l0.156,-0l0,-0.264c0,-0.064 0.036,-0.093 0.08,-0.093c0.049,-0 0.078,0.032 0.078,0.09l-0,0.267l0.156,-0l-0,-0.322c-0,-0.113 -0.076,-0.182 -0.174,-0.182Z" style="fill:#004153;fill-rule:nonzero;"/></g><g transform="matrix(16,0,0,16,-85.0644,-42.0553)"><path d="M0.211,-0.49l-0.156,-0l0,0.49l0.156,-0l0,-0.49Zm-0.078,-0.245c-0.053,-0 -0.094,0.041 -0.094,0.094c0,0.052 0.041,0.093 0.094,0.093c0.052,-0 0.093,-0.041 0.093,-0.093c-0,-0.053 -0.041,-0.094 -0.093,-0.094Z" style="fill:#004153;fill-rule:nonzero;"/></g><g transform="matrix(16,0,0,16,-80.8084,-42.0553)"><path d="M0.293,-0.504c-0.156,0 -0.264,0.108 -0.264,0.259c0,0.15 0.108,0.258 0.264,0.258c0.091,-0 0.163,-0.04 0.21,-0.106l-0.122,-0.087c-0.024,0.031 -0.055,0.047 -0.092,0.047c-0.055,0 -0.1,-0.041 -0.1,-0.112c-0,-0.071 0.046,-0.113 0.101,-0.113c0.038,-0 0.066,0.015 0.09,0.047l0.123,-0.086c-0.047,-0.066 -0.119,-0.107 -0.21,-0.107Z" style="fill:#004153;fill-rule:nonzero;"/></g><g transform="matrix(16,0,0,16,-72.6644,-42.0553)"><path d="M0.549,-0.49l-0.151,-0l0,0.053c-0.029,-0.039 -0.074,-0.067 -0.141,-0.067c-0.131,0 -0.228,0.114 -0.228,0.258c0,0.145 0.097,0.259 0.228,0.259c0.067,-0 0.112,-0.028 0.141,-0.066l0,0.053l0.151,-0l0,-0.49Zm-0.254,0.132c0.061,-0 0.105,0.047 0.105,0.113c-0,0.065 -0.044,0.112 -0.105,0.112c-0.063,0 -0.105,-0.048 -0.105,-0.112c-0,-0.065 0.042,-0.113 0.105,-0.113Z" style="fill:#004153;fill-rule:nonzero;"/></g><g transform="matrix(16,0,0,16,-63.0004,-42.0553)"><rect x="0.055" y="-0.72" width="0.156" height="0.72" style="fill:#004153;fill-rule:nonzero;"/></g><g transform="matrix(16,0,0,16,-55.1524,-42.0553)"><path d="M0.257,-0.504c-0.131,0 -0.228,0.114 -0.228,0.258c0,0.145 0.097,0.259 0.228,0.259c0.067,-0 0.112,-0.028 0.141,-0.066l0,0.053l0.151,-0l-0,-0.72l-0.156,0l0,0.277c-0.029,-0.036 -0.073,-0.061 -0.136,-0.061Zm0.038,0.146c0.061,-0 0.105,0.047 0.105,0.112c-0,0.066 -0.044,0.113 -0.105,0.113c-0.063,0 -0.105,-0.048 -0.105,-0.112c-0,-0.065 0.042,-0.113 0.105,-0.113Z" style="fill:#004153;fill-rule:nonzero;"/></g><g transform="matrix(16,0,0,16,-45.4964,-42.0553)"><path d="M0.281,-0.504c-0.15,0 -0.252,0.107 -0.252,0.261c0,0.154 0.104,0.256 0.259,0.256c0.09,-0 0.164,-0.03 0.215,-0.08l-0.1,-0.095c-0.031,0.029 -0.071,0.044 -0.107,0.044c-0.055,-0 -0.093,-0.025 -0.106,-0.079l0.333,-0c0.002,-0.011 0.003,-0.033 0.003,-0.049c-0.001,-0.153 -0.1,-0.258 -0.245,-0.258Zm0,0.133c0.046,-0 0.076,0.026 0.089,0.075l-0.179,0c0.012,-0.049 0.041,-0.075 0.09,-0.075Z" style="fill:#004153;fill-rule:nonzero;"/></g><g transform="matrix(16,0,0,16,-36.6164,-42.0553)"><path d="M0.347,-0.504c-0.064,0 -0.107,0.025 -0.136,0.061l-0,-0.277l-0.156,0l0,0.72l0.151,-0l-0,-0.053c0.029,0.039 0.074,0.066 0.141,0.066c0.131,-0 0.228,-0.114 0.228,-0.259c-0,-0.144 -0.097,-0.258 -0.228,-0.258Zm-0.038,0.146c0.063,-0 0.105,0.048 0.105,0.113c0,0.064 -0.042,0.112 -0.105,0.112c-0.062,0 -0.105,-0.047 -0.105,-0.112c0,-0.066 0.043,-0.113 0.105,-0.113Z" style="fill:#004153;fill-rule:nonzero;"/></g><g transform="matrix(16,0,0,16,-27.0324,-42.0553)"><path d="M0.432,-0.49l-0.168,-0l0,-0.143l-0.156,-0l0,0.143l-0.091,-0l-0,0.138l0.091,-0l0,0.164c0,0.123 0.06,0.201 0.191,0.201c0.079,-0 0.128,-0.023 0.174,-0.055l-0.054,-0.121c-0.025,0.014 -0.056,0.03 -0.085,0.03c-0.04,0 -0.07,-0.019 -0.07,-0.075l0,-0.144l0.168,-0l-0,-0.138Z" style="fill:#004153;fill-rule:nonzero;"/></g><g transform="matrix(12,0,0,12,-128.976,-19.1514)"><path d="M0.1,-0.7l-0,0.7l0.266,-0c0.227,-0 0.371,-0.137 0.371,-0.35c0,-0.213 -0.144,-0.35 -0.371,-0.35l-0.266,0Zm0.266,0.083c0.184,0 0.279,0.107 0.279,0.267c0,0.159 -0.095,0.267 -0.279,0.267l-0.179,-0l0,-0.534l0.179,0Z" style="fill:#004153;fill-rule:nonzero;"/></g><g transform="matrix(12,0,0,12,-119.286,-19.1514)"><path d="M0.306,-0.485c-0.057,0 -0.106,0.026 -0.139,0.072l-0,-0.062l-0.08,0l-0,0.475l0.081,-0l-0,-0.264c-0,-0.088 0.051,-0.144 0.123,-0.144c0.027,0 0.059,0.007 0.082,0.019l0.02,-0.08c-0.026,-0.011 -0.053,-0.016 -0.087,-0.016Z" style="fill:#004153;fill-rule:nonzero;"/></g><g transform="matrix(12,0,0,12,-114.378,-19.1514)"><path d="M0.537,-0.475l-0.081,0l-0,0.064c-0.038,-0.045 -0.093,-0.074 -0.168,-0.074c-0.134,0 -0.237,0.104 -0.237,0.247c-0,0.144 0.103,0.248 0.237,0.248c0.075,-0 0.13,-0.029 0.168,-0.073l-0,0.063l0.081,-0l0,-0.475Zm-0.239,0.067c0.096,-0 0.163,0.073 0.163,0.17c-0,0.098 -0.067,0.172 -0.163,0.172c-0.098,-0 -0.164,-0.077 -0.164,-0.172c-0,-0.094 0.064,-0.17 0.164,-0.17Z" style="fill:#004153;fill-rule:nonzero;"/></g><g transform="matrix(12,0,0,12,-106.77,-19.1514)"><path d="M0.471,-0.475l-0.093,0l-0.135,0.388l-0.135,-0.388l-0.087,0l0.171,0.475l0.096,-0l0.135,-0.386l0.136,0.386l0.098,-0l0.171,-0.475l-0.086,0l-0.135,0.389l-0.136,-0.389Z" style="fill:#004153;fill-rule:nonzero;"/></g><g transform="matrix(12,0,0,12,-93.2164,-19.1514)"><path d="M0.537,-0.475l-0.081,0l-0,0.064c-0.038,-0.045 -0.093,-0.074 -0.168,-0.074c-0.134,0 -0.237,0.104 -0.237,0.247c-0,0.144 0.103,0.248 0.237,0.248c0.075,-0 0.13,-0.029 0.168,-0.073l-0,0.063l0.081,-0l0,-0.475Zm-0.239,0.067c0.096,-0 0.163,0.073 0.163,0.17c-0,0.098 -0.067,0.172 -0.163,0.172c-0.098,-0 -0.164,-0.077 -0.164,-0.172c-0,-0.094 0.064,-0.17 0.164,-0.17Z" style="fill:#004153;fill-rule:nonzero;"/></g><g transform="matrix(12,0,0,12,-82.2784,-19.1514)"><path d="M0.297,-0.485c-0.147,0 -0.246,0.106 -0.246,0.247c-0,0.142 0.099,0.248 0.246,0.248c0.07,-0 0.133,-0.026 0.176,-0.074l-0.05,-0.057c-0.033,0.032 -0.078,0.055 -0.128,0.055c-0.092,-0 -0.161,-0.072 -0.161,-0.172c-0,-0.099 0.069,-0.17 0.161,-0.17c0.05,-0 0.091,0.019 0.126,0.053l0.052,-0.055c-0.042,-0.049 -0.106,-0.075 -0.176,-0.075Z" style="fill:#004153;fill-rule:nonzero;"/></g><g transform="matrix(12,0,0,12,-76.0084,-19.1514)"><path d="M0.168,-0.475l-0.081,0l-0,0.475l0.081,-0l-0,-0.475Zm-0.041,-0.225c-0.033,-0 -0.058,0.025 -0.058,0.058c0,0.033 0.025,0.057 0.058,0.057c0.032,0 0.058,-0.024 0.058,-0.057c-0,-0.033 -0.026,-0.058 -0.058,-0.058Z" style="fill:#004153;fill-rule:nonzero;"/></g><g transform="matrix(12,0,0,12,-72.8344,-19.1514)"><path d="M0.306,-0.485c-0.057,0 -0.106,0.026 -0.139,0.072l-0,-0.062l-0.08,0l-0,0.475l0.081,-0l-0,-0.264c-0,-0.088 0.051,-0.144 0.123,-0.144c0.027,0 0.059,0.007 0.082,0.019l0.02,-0.08c-0.026,-0.011 -0.053,-0.016 -0.087,-0.016Z" style="fill:#004153;fill-rule:nonzero;"/></g><g transform="matrix(12,0,0,12,-67.9264,-19.1514)"><path d="M0.297,-0.485c-0.147,0 -0.246,0.106 -0.246,0.247c-0,0.142 0.099,0.248 0.246,0.248c0.07,-0 0.133,-0.026 0.176,-0.074l-0.05,-0.057c-0.033,0.032 -0.078,0.055 -0.128,0.055c-0.092,-0 -0.161,-0.072 -0.161,-0.172c-0,-0.099 0.069,-0.17 0.161,-0.17c0.05,-0 0.091,0.019 0.126,0.053l0.052,-0.055c-0.042,-0.049 -0.106,-0.075 -0.176,-0.075Z" style="fill:#004153;fill-rule:nonzero;"/></g><g transform="matrix(12,0,0,12,-61.6564,-19.1514)"><rect x="0.087" y="-0.72" width="0.081" height="0.72" style="fill:#004153;fill-rule:nonzero;"/></g><g transform="matrix(12,0,0,12,-58.4824,-19.1514)"><path d="M0.287,-0.485c-0.137,0 -0.236,0.101 -0.236,0.247c-0,0.149 0.099,0.248 0.241,0.248c0.07,-0 0.136,-0.017 0.194,-0.072l-0.043,-0.056c-0.04,0.035 -0.091,0.057 -0.146,0.057c-0.082,-0 -0.151,-0.049 -0.162,-0.148l0.373,0c0.001,-0.009 0.002,-0.02 0.002,-0.03c-0.001,-0.146 -0.094,-0.246 -0.223,-0.246Zm-0.002,0.072c0.077,0 0.132,0.054 0.142,0.139l-0.291,-0c0.012,-0.082 0.065,-0.139 0.149,-0.139Z" style="fill:#004153;fill-rule:nonzero;"/></g><g transform="matrix(12,0,0,12,-48.3064,-19.1514)"><path d="M0.301,-0.485c-0.144,0 -0.25,0.106 -0.25,0.247c-0,0.142 0.106,0.248 0.25,0.248c0.145,-0 0.252,-0.106 0.252,-0.248c-0,-0.141 -0.107,-0.247 -0.252,-0.247Zm0,0.077c0.096,-0 0.168,0.071 0.168,0.17c0,0.1 -0.072,0.172 -0.168,0.172c-0.095,-0 -0.167,-0.072 -0.167,-0.172c-0,-0.099 0.072,-0.17 0.167,-0.17Z" style="fill:#004153;fill-rule:nonzero;"/></g><g transform="matrix(12,0,0,12,-40.9444,-19.1514)"><path d="M0.323,-0.485c-0.055,0 -0.117,0.019 -0.156,0.072l0,-0.062l-0.08,0l-0,0.475l0.081,-0l-0,-0.266c-0,-0.089 0.064,-0.142 0.141,-0.142c0.082,0 0.13,0.052 0.13,0.139l0,0.269l0.082,-0l-0,-0.295c-0,-0.114 -0.081,-0.19 -0.198,-0.19Z" style="fill:#004153;fill-rule:nonzero;"/></g><g transform="matrix(12,0,0,12,-30.3544,-19.1514)"><path d="M0.409,-0.475l-0.2,0l0,-0.149l-0.081,0l-0,0.149l-0.102,0l0,0.074l0.102,0l-0,0.234c-0,0.121 0.061,0.177 0.164,0.177c0.058,-0 0.106,-0.021 0.142,-0.047l-0.038,-0.061c-0.027,0.018 -0.062,0.032 -0.097,0.032c-0.052,-0 -0.09,-0.031 -0.09,-0.103l0,-0.232l0.2,0l-0,-0.074Z" style="fill:#004153;fill-rule:nonzero;"/></g><g transform="matrix(12,0,0,12,-24.7924,-19.1514)"><path d="M0.168,-0.72l-0.081,0l-0,0.72l0.081,-0l-0,-0.267c-0,-0.088 0.064,-0.141 0.141,-0.141c0.082,0 0.13,0.052 0.13,0.139l0,0.269l0.082,-0l-0,-0.295c-0,-0.114 -0.081,-0.19 -0.198,-0.19c-0.055,0 -0.116,0.018 -0.155,0.071l-0,-0.306Z" style="fill:#004153;fill-rule:nonzero;"/></g><g transform="matrix(12,0,0,12,-17.4424,-19.1514)"><path d="M0.287,-0.485c-0.137,0 -0.236,0.101 -0.236,0.247c-0,0.149 0.099,0.248 0.241,0.248c0.07,-0 0.136,-0.017 0.194,-0.072l-0.043,-0.056c-0.04,0.035 -0.091,0.057 -0.146,0.057c-0.082,-0 -0.151,-0.049 -0.162,-0.148l0.373,0c0.001,-0.009 0.002,-0.02 0.002,-0.03c-0.001,-0.146 -0.094,-0.246 -0.223,-0.246Zm-0.002,0.072c0.077,0 0.132,0.054 0.142,0.139l-0.291,-0c0.012,-0.082 0.065,-0.139 0.149,-0.139Z" style="fill:#004153;fill-rule:nonzero;"/></g><g transform="matrix(12,0,0,12,-7.26638,-19.1514)"><path d="M0.336,-0.485c-0.076,0 -0.131,0.029 -0.168,0.073l-0,-0.308l-0.081,0l-0,0.72l0.081,-0l-0,-0.064c0.037,0.045 0.092,0.074 0.168,0.074c0.133,-0 0.237,-0.104 0.237,-0.248c-0,-0.143 -0.104,-0.247 -0.237,-0.247Zm-0.01,0.077c0.097,-0 0.163,0.076 0.163,0.17c0,0.095 -0.064,0.172 -0.163,0.172c-0.096,-0 -0.163,-0.074 -0.163,-0.172c-0,-0.097 0.067,-0.17 0.163,-0.17Z" style="fill:#004153;fill-rule:nonzero;"/></g><g transform="matrix(12,0,0,12,0.335622,-19.1514)"><path d="M0.537,-0.475l-0.081,0l-0,0.064c-0.038,-0.045 -0.093,-0.074 -0.168,-0.074c-0.134,0 -0.237,0.104 -0.237,0.247c-0,0.144 0.103,0.248 0.237,0.248c0.075,-0 0.13,-0.029 0.168,-0.073l-0,0.063l0.081,-0l0,-0.475Zm-0.239,0.067c0.096,-0 0.163,0.073 0.163,0.17c-0,0.098 -0.067,0.172 -0.163,0.172c-0.098,-0 -0.164,-0.077 -0.164,-0.172c-0,-0.094 0.064,-0.17 0.164,-0.17Z" style="fill:#004153;fill-rule:nonzero;"/></g><g transform="matrix(12,0,0,12,7.94362,-19.1514)"><path d="M0.297,-0.485c-0.147,0 -0.246,0.106 -0.246,0.247c-0,0.142 0.099,0.248 0.246,0.248c0.07,-0 0.133,-0.026 0.176,-0.074l-0.05,-0.057c-0.033,0.032 -0.078,0.055 -0.128,0.055c-0.092,-0 -0.161,-0.072 -0.161,-0.172c-0,-0.099 0.069,-0.17 0.161,-0.17c0.05,-0 0.091,0.019 0.126,0.053l0.052,-0.055c-0.042,-0.049 -0.106,-0.075 -0.176,-0.075Z" style="fill:#004153;fill-rule:nonzero;"/></g><g transform="matrix(12,0,0,12,14.2136,-19.1514)"><path d="M0.168,-0.72l-0.081,0l-0,0.72l0.081,-0l-0,-0.211l0.064,-0l0.18,0.211l0.103,-0l-0.215,-0.251l0.212,-0.224l-0.103,0l-0.176,0.19l-0.065,0l-0,-0.435Z" style="fill:#004153;fill-rule:nonzero;"/></g><g transform="matrix(12,0,0,12,23.9576,-19.1514)"><path d="M0.301,-0.485c-0.144,0 -0.25,0.106 -0.25,0.247c-0,0.142 0.106,0.248 0.25,0.248c0.145,-0 0.252,-0.106 0.252,-0.248c-0,-0.141 -0.107,-0.247 -0.252,-0.247Zm0,0.077c0.096,-0 0.168,0.071 0.168,0.17c0,0.1 -0.072,0.172 -0.168,0.172c-0.095,-0 -0.167,-0.072 -0.167,-0.172c-0,-0.099 0.072,-0.17 0.167,-0.17Z" style="fill:#004153;fill-rule:nonzero;"/></g><g transform="matrix(12,0,0,12,31.2596,-19.1514)"><path d="M0.396,-0.475l-0.183,0l0,-0.081c0,-0.062 0.025,-0.098 0.082,-0.098c0.035,0 0.07,0.013 0.095,0.028l0.03,-0.068c-0.034,-0.021 -0.077,-0.036 -0.131,-0.036c-0.112,0 -0.157,0.074 -0.157,0.174l-0,0.081l-0.106,0l0,0.074l0.106,0l-0,0.401l0.081,-0l0,-0.401l0.183,0l-0,-0.074Z" style="fill:#004153;fill-rule:nonzero;"/></g><g transform="matrix(12,0,0,12,39.7076,-19.1514)"><path d="M0.409,-0.475l-0.2,0l0,-0.149l-0.081,0l-0,0.149l-0.102,0l0,0.074l0.102,0l-0,0.234c-0,0.121 0.061,0.177 0.164,0.177c0.058,-0 0.106,-0.021 0.142,-0.047l-0.038,-0.061c-0.027,0.018 -0.062,0.032 -0.097,0.032c-0.052,-0 -0.09,-0.031 -0.09,-0.103l0,-0.232l0.2,0l-0,-0.074Z" style="fill:#004153;fill-rule:nonzero;"/></g><g transform="matrix(12,0,0,12,45.2696,-19.1514)"><path d="M0.168,-0.72l-0.081,0l-0,0.72l0.081,-0l-0,-0.267c-0,-0.088 0.064,-0.141 0.141,-0.141c0.082,0 0.13,0.052 0.13,0.139l0,0.269l0.082,-0l-0,-0.295c-0,-0.114 -0.081,-0.19 -0.198,-0.19c-0.055,0 -0.116,0.018 -0.155,0.071l-0,-0.306Z" style="fill:#004153;fill-rule:nonzero;"/></g><g transform="matrix(12,0,0,12,52.6196,-19.1514)"><path d="M0.287,-0.485c-0.137,0 -0.236,0.101 -0.236,0.247c-0,0.149 0.099,0.248 0.241,0.248c0.07,-0 0.136,-0.017 0.194,-0.072l-0.043,-0.056c-0.04,0.035 -0.091,0.057 -0.146,0.057c-0.082,-0 -0.151,-0.049 -0.162,-0.148l0.373,0c0.001,-0.009 0.002,-0.02 0.002,-0.03c-0.001,-0.146 -0.094,-0.246 -0.223,-0.246Zm-0.002,0.072c0.077,0 0.132,0.054 0.142,0.139l-0.291,-0c0.012,-0.082 0.065,-0.139 0.149,-0.139Z" style="fill:#004153;fill-rule:nonzero;"/></g><g transform="matrix(12,0,0,12,62.7056,-19.1514)"><path d="M0.409,-0.475l-0.2,0l0,-0.149l-0.081,0l-0,0.149l-0.102,0l0,0.074l0.102,0l-0,0.234c-0,0.121 0.061,0.177 0.164,0.177c0.058,-0 0.106,-0.021 0.142,-0.047l-0.038,-0.061c-0.027,0.018 -0.062,0.032 -0.097,0.032c-0.052,-0 -0.09,-0.031 -0.09,-0.103l0,-0.232l0.2,0l-0,-0.074Z" style="fill:#004153;fill-rule:nonzero;"/></g><g transform="matrix(12,0,0,12,68.2556,-19.1514)"><path d="M0.301,-0.485c-0.144,0 -0.25,0.106 -0.25,0.247c-0,0.142 0.106,0.248 0.25,0.248c0.145,-0 0.252,-0.106 0.252,-0.248c-0,-0.141 -0.107,-0.247 -0.252,-0.247Zm0,0.077c0.096,-0 0.168,0.071 0.168,0.17c0,0.1 -0.072,0.172 -0.168,0.172c-0.095,-0 -0.167,-0.072 -0.167,-0.172c-0,-0.099 0.072,-0.17 0.167,-0.17Z" style="fill:#004153;fill-rule:nonzero;"/></g><g transform="matrix(12,0,0,12,75.6176,-19.1514)"><path d="M0.306,-0.485c-0.057,0 -0.106,0.026 -0.139,0.072l-0,-0.062l-0.08,0l-0,0.475l0.081,-0l-0,-0.264c-0,-0.088 0.051,-0.144 0.123,-0.144c0.027,0 0.059,0.007 0.082,0.019l0.02,-0.08c-0.026,-0.011 -0.053,-0.016 -0.087,-0.016Z" style="fill:#004153;fill-rule:nonzero;"/></g><g transform="matrix(12,0,0,12,80.8856,-19.1514)"><path d="M0.409,-0.475l-0.2,0l0,-0.149l-0.081,0l-0,0.149l-0.102,0l0,0.074l0.102,0l-0,0.234c-0,0.121 0.061,0.177 0.164,0.177c0.058,-0 0.106,-0.021 0.142,-0.047l-0.038,-0.061c-0.027,0.018 -0.062,0.032 -0.097,0.032c-0.052,-0 -0.09,-0.031 -0.09,-0.103l0,-0.232l0.2,0l-0,-0.074Z" style="fill:#004153;fill-rule:nonzero;"/></g><g transform="matrix(12,0,0,12,86.4356,-19.1514)"><path d="M0.301,-0.485c-0.144,0 -0.25,0.106 -0.25,0.247c-0,0.142 0.106,0.248 0.25,0.248c0.145,-0 0.252,-0.106 0.252,-0.248c-0,-0.141 -0.107,-0.247 -0.252,-0.247Zm0,0.077c0.096,-0 0.168,0.071 0.168,0.17c0,0.1 -0.072,0.172 -0.168,0.172c-0.095,-0 -0.167,-0.072 -0.167,-0.172c-0,-0.099 0.072,-0.17 0.167,-0.17Z" style="fill:#004153;fill-rule:nonzero;"/></g><g transform="matrix(12,0,0,12,93.7976,-19.1514)"><path d="M0.168,-0.475l-0.081,0l-0,0.475l0.081,-0l-0,-0.475Zm-0.041,-0.225c-0.033,-0 -0.058,0.025 -0.058,0.058c0,0.033 0.025,0.057 0.058,0.057c0.032,0 0.058,-0.024 0.058,-0.057c-0,-0.033 -0.026,-0.058 -0.058,-0.058Z" style="fill:#004153;fill-rule:nonzero;"/></g><g transform="matrix(12,0,0,12,96.9716,-19.1514)"><path d="M0.442,-0.433c-0.046,-0.031 -0.114,-0.051 -0.19,-0.051c-0.115,-0 -0.19,0.054 -0.19,0.145c-0,0.072 0.051,0.121 0.157,0.134l0.056,0.006c0.064,0.008 0.095,0.03 0.095,0.065c0,0.047 -0.048,0.073 -0.126,0.073c-0.08,-0 -0.127,-0.023 -0.162,-0.051l-0.038,0.061c0.062,0.047 0.141,0.061 0.199,0.061c0.13,-0 0.211,-0.058 0.211,-0.149c-0,-0.078 -0.059,-0.121 -0.16,-0.135l-0.056,-0.007c-0.057,-0.007 -0.092,-0.024 -0.092,-0.062c0,-0.043 0.042,-0.071 0.107,-0.071c0.063,0 0.124,0.024 0.154,0.044l0.035,-0.063Z" style="fill:#004153;fill-rule:nonzero;"/></g><g transform="matrix(12,0,0,12,103.056,-19.1514)"><path d="M0.287,-0.485c-0.137,0 -0.236,0.101 -0.236,0.247c-0,0.149 0.099,0.248 0.241,0.248c0.07,-0 0.136,-0.017 0.194,-0.072l-0.043,-0.056c-0.04,0.035 -0.091,0.057 -0.146,0.057c-0.082,-0 -0.151,-0.049 -0.162,-0.148l0.373,0c0.001,-0.009 0.002,-0.02 0.002,-0.03c-0.001,-0.146 -0.094,-0.246 -0.223,-0.246Zm-0.002,0.072c0.077,0 0.132,0.054 0.142,0.139l-0.291,-0c0.012,-0.082 0.065,-0.139 0.149,-0.139Z" style="fill:#004153;fill-rule:nonzero;"/></g><g transform="matrix(12,0,0,12,109.812,-19.1514)"><path d="M0.09,-0.126l-0.029,0.257l0.07,-0l0.054,-0.257l-0.096,-0Z" style="fill:#004153;fill-rule:nonzero;"/></g><g transform="matrix(12,0,0,12,-128.976,-4.75137)"><path d="M0.442,-0.433c-0.046,-0.031 -0.114,-0.051 -0.19,-0.051c-0.115,-0 -0.19,0.054 -0.19,0.145c-0,0.072 0.051,0.121 0.157,0.134l0.056,0.006c0.064,0.008 0.095,0.03 0.095,0.065c0,0.047 -0.048,0.073 -0.126,0.073c-0.08,-0 -0.127,-0.023 -0.162,-0.051l-0.038,0.061c0.062,0.047 0.141,0.061 0.199,0.061c0.13,-0 0.211,-0.058 0.211,-0.149c-0,-0.078 -0.059,-0.121 -0.16,-0.135l-0.056,-0.007c-0.057,-0.007 -0.092,-0.024 -0.092,-0.062c0,-0.043 0.042,-0.071 0.107,-0.071c0.063,0 0.124,0.024 0.154,0.044l0.035,-0.063Z" style="fill:#004153;fill-rule:nonzero;"/></g><g transform="matrix(12,0,0,12,-122.892,-4.75137)"><path d="M0.525,-0.475l-0.09,0l-0.163,0.292l-0.171,-0.292l-0.091,0l0.217,0.373l-0.176,0.304l0.09,0l0.384,-0.677Z" style="fill:#004153;fill-rule:nonzero;"/></g><g transform="matrix(12,0,0,12,-116.388,-4.75137)"><path d="M0.676,-0.485c-0.065,0 -0.139,0.024 -0.178,0.095c-0.031,-0.059 -0.094,-0.095 -0.175,-0.095c-0.055,0 -0.117,0.019 -0.156,0.072l0,-0.062l-0.08,0l-0,0.475l0.081,-0l-0,-0.266c-0,-0.089 0.064,-0.142 0.141,-0.142c0.082,0 0.13,0.052 0.13,0.139l0,0.269l0.082,-0l-0,-0.267c-0,-0.086 0.061,-0.141 0.14,-0.141c0.083,0 0.131,0.052 0.131,0.139l-0,0.269l0.081,-0l0,-0.295c0,-0.114 -0.08,-0.19 -0.197,-0.19Z" style="fill:#004153;fill-rule:nonzero;"/></g><g transform="matrix(12,0,0,12,-104.808,-4.75137)"><path d="M0.336,-0.485c-0.076,0 -0.131,0.029 -0.168,0.073l-0,-0.308l-0.081,0l-0,0.72l0.081,-0l-0,-0.064c0.037,0.045 0.092,0.074 0.168,0.074c0.133,-0 0.237,-0.104 0.237,-0.248c-0,-0.143 -0.104,-0.247 -0.237,-0.247Zm-0.01,0.077c0.097,-0 0.163,0.076 0.163,0.17c0,0.095 -0.064,0.172 -0.163,0.172c-0.096,-0 -0.163,-0.074 -0.163,-0.172c-0,-0.097 0.067,-0.17 0.163,-0.17Z" style="fill:#004153;fill-rule:nonzero;"/></g><g transform="matrix(12,0,0,12,-97.2064,-4.75137)"><path d="M0.301,-0.485c-0.144,0 -0.25,0.106 -0.25,0.247c-0,0.142 0.106,0.248 0.25,0.248c0.145,-0 0.252,-0.106 0.252,-0.248c-0,-0.141 -0.107,-0.247 -0.252,-0.247Zm0,0.077c0.096,-0 0.168,0.071 0.168,0.17c0,0.1 -0.072,0.172 -0.168,0.172c-0.095,-0 -0.167,-0.072 -0.167,-0.172c-0,-0.099 0.072,-0.17 0.167,-0.17Z" style="fill:#004153;fill-rule:nonzero;"/></g><g transform="matrix(12,0,0,12,-89.8444,-4.75137)"><rect x="0.087" y="-0.72" width="0.081" height="0.72" style="fill:#004153;fill-rule:nonzero;"/></g><g transform="matrix(12,0,0,12,-86.6704,-4.75137)"><path d="M0.168,-0.475l-0.081,0l-0,0.475l0.081,-0l-0,-0.475Zm-0.041,-0.225c-0.033,-0 -0.058,0.025 -0.058,0.058c0,0.033 0.025,0.057 0.058,0.057c0.032,0 0.058,-0.024 0.058,-0.057c-0,-0.033 -0.026,-0.058 -0.058,-0.058Z" style="fill:#004153;fill-rule:nonzero;"/></g><g transform="matrix(12,0,0,12,-83.4964,-4.75137)"><path d="M0.462,-0.475l-0.393,0l0,0.074l0.288,0l-0.297,0.342l0,0.059l0.406,-0l-0,-0.074l-0.297,0l0.292,-0.342l0,-0.059Z" style="fill:#004153;fill-rule:nonzero;"/></g><g transform="matrix(12,0,0,12,-77.0584,-4.75137)"><path d="M0.168,-0.475l-0.081,0l-0,0.475l0.081,-0l-0,-0.475Zm-0.041,-0.225c-0.033,-0 -0.058,0.025 -0.058,0.058c0,0.033 0.025,0.057 0.058,0.057c0.032,0 0.058,-0.024 0.058,-0.057c-0,-0.033 -0.026,-0.058 -0.058,-0.058Z" style="fill:#004153;fill-rule:nonzero;"/></g><g transform="matrix(12,0,0,12,-73.8844,-4.75137)"><path d="M0.323,-0.485c-0.055,0 -0.117,0.019 -0.156,0.072l0,-0.062l-0.08,0l-0,0.475l0.081,-0l-0,-0.266c-0,-0.089 0.064,-0.142 0.141,-0.142c0.082,0 0.13,0.052 0.13,0.139l0,0.269l0.082,-0l-0,-0.295c-0,-0.114 -0.081,-0.19 -0.198,-0.19Z" style="fill:#004153;fill-rule:nonzero;"/></g><g transform="matrix(12,0,0,12,-66.5344,-4.75137)"><path d="M0.285,-0.485c-0.133,0 -0.234,0.099 -0.234,0.244c-0,0.145 0.101,0.243 0.234,0.243c0.074,0 0.128,-0.028 0.164,-0.073l0,0.041c0,0.106 -0.068,0.164 -0.171,0.164c-0.061,-0 -0.118,-0.021 -0.163,-0.053l-0.035,0.066c0.048,0.038 0.124,0.061 0.198,0.061c0.151,-0 0.253,-0.087 0.253,-0.241l-0,-0.442l-0.082,0l0,0.065c-0.036,-0.046 -0.09,-0.075 -0.164,-0.075Zm0.01,0.077c0.095,-0 0.161,0.072 0.161,0.167c0,0.095 -0.066,0.167 -0.161,0.167c-0.098,-0 -0.161,-0.075 -0.161,-0.167c-0,-0.092 0.063,-0.167 0.161,-0.167Z" style="fill:#004153;fill-rule:nonzero;"/></g><g transform="matrix(12,0,0,12,-55.7644,-4.75137)"><path d="M0.409,-0.475l-0.2,0l0,-0.149l-0.081,0l-0,0.149l-0.102,0l0,0.074l0.102,0l-0,0.234c-0,0.121 0.061,0.177 0.164,0.177c0.058,-0 0.106,-0.021 0.142,-0.047l-0.038,-0.061c-0.027,0.018 -0.062,0.032 -0.097,0.032c-0.052,-0 -0.09,-0.031 -0.09,-0.103l0,-0.232l0.2,0l-0,-0.074Z" style="fill:#004153;fill-rule:nonzero;"/></g><g transform="matrix(12,0,0,12,-50.2024,-4.75137)"><path d="M0.168,-0.72l-0.081,0l-0,0.72l0.081,-0l-0,-0.267c-0,-0.088 0.064,-0.141 0.141,-0.141c0.082,0 0.13,0.052 0.13,0.139l0,0.269l0.082,-0l-0,-0.295c-0,-0.114 -0.081,-0.19 -0.198,-0.19c-0.055,0 -0.116,0.018 -0.155,0.071l-0,-0.306Z" style="fill:#004153;fill-rule:nonzero;"/></g><g transform="matrix(12,0,0,12,-42.8524,-4.75137)"><path d="M0.287,-0.485c-0.137,0 -0.236,0.101 -0.236,0.247c-0,0.149 0.099,0.248 0.241,0.248c0.07,-0 0.136,-0.017 0.194,-0.072l-0.043,-0.056c-0.04,0.035 -0.091,0.057 -0.146,0.057c-0.082,-0 -0.151,-0.049 -0.162,-0.148l0.373,0c0.001,-0.009 0.002,-0.02 0.002,-0.03c-0.001,-0.146 -0.094,-0.246 -0.223,-0.246Zm-0.002,0.072c0.077,0 0.132,0.054 0.142,0.139l-0.291,-0c0.012,-0.082 0.065,-0.139 0.149,-0.139Z" style="fill:#004153;fill-rule:nonzero;"/></g><g transform="matrix(12,0,0,12,-32.6764,-4.75137)"><path d="M0.336,-0.485c-0.076,0 -0.131,0.029 -0.168,0.073l-0,-0.308l-0.081,0l-0,0.72l0.081,-0l-0,-0.064c0.037,0.045 0.092,0.074 0.168,0.074c0.133,-0 0.237,-0.104 0.237,-0.248c-0,-0.143 -0.104,-0.247 -0.237,-0.247Zm-0.01,0.077c0.097,-0 0.163,0.076 0.163,0.17c0,0.095 -0.064,0.172 -0.163,0.172c-0.096,-0 -0.163,-0.074 -0.163,-0.172c-0,-0.097 0.067,-0.17 0.163,-0.17Z" style="fill:#004153;fill-rule:nonzero;"/></g><g transform="matrix(12,0,0,12,-25.0744,-4.75137)"><path d="M0.515,-0.475l-0.082,0l0,0.269c0,0.097 -0.057,0.14 -0.135,0.14c-0.077,-0 -0.135,-0.043 -0.135,-0.14l0,-0.269l-0.081,0l-0,0.276c-0,0.144 0.102,0.209 0.216,0.209c0.114,-0 0.217,-0.065 0.217,-0.209l-0,-0.276Z" style="fill:#004153;fill-rule:nonzero;"/></g><g transform="matrix(12,0,0,12,-17.7964,-4.75137)"><path d="M0.306,-0.485c-0.057,0 -0.106,0.026 -0.139,0.072l-0,-0.062l-0.08,0l-0,0.475l0.081,-0l-0,-0.264c-0,-0.088 0.051,-0.144 0.123,-0.144c0.027,0 0.059,0.007 0.082,0.019l0.02,-0.08c-0.026,-0.011 -0.053,-0.016 -0.087,-0.016Z" style="fill:#004153;fill-rule:nonzero;"/></g><g transform="matrix(12,0,0,12,-12.8884,-4.75137)"><path d="M0.288,-0.485c-0.134,0 -0.237,0.104 -0.237,0.247c-0,0.144 0.103,0.248 0.237,0.248c0.075,-0 0.13,-0.029 0.168,-0.073l-0,0.063l0.081,-0l0,-0.72l-0.081,0l-0,0.309c-0.038,-0.045 -0.093,-0.074 -0.168,-0.074Zm0.01,0.077c0.096,-0 0.163,0.073 0.163,0.17c-0,0.098 -0.067,0.172 -0.163,0.172c-0.098,-0 -0.164,-0.077 -0.164,-0.172c-0,-0.094 0.064,-0.17 0.164,-0.17Z" style="fill:#004153;fill-rule:nonzero;"/></g><g transform="matrix(12,0,0,12,-5.28038,-4.75137)"><path d="M0.287,-0.485c-0.137,0 -0.236,0.101 -0.236,0.247c-0,0.149 0.099,0.248 0.241,0.248c0.07,-0 0.136,-0.017 0.194,-0.072l-0.043,-0.056c-0.04,0.035 -0.091,0.057 -0.146,0.057c-0.082,-0 -0.151,-0.049 -0.162,-0.148l0.373,0c0.001,-0.009 0.002,-0.02 0.002,-0.03c-0.001,-0.146 -0.094,-0.246 -0.223,-0.246Zm-0.002,0.072c0.077,0 0.132,0.054 0.142,0.139l-0.291,-0c0.012,-0.082 0.065,-0.139 0.149,-0.139Z" style="fill:#004153;fill-rule:nonzero;"/></g><g transform="matrix(12,0,0,12,1.56562,-4.75137)"><path d="M0.323,-0.485c-0.055,0 -0.117,0.019 -0.156,0.072l0,-0.062l-0.08,0l-0,0.475l0.081,-0l-0,-0.266c-0,-0.089 0.064,-0.142 0.141,-0.142c0.082,0 0.13,0.052 0.13,0.139l0,0.269l0.082,-0l-0,-0.295c-0,-0.114 -0.081,-0.19 -0.198,-0.19Z" style="fill:#004153;fill-rule:nonzero;"/></g><g transform="matrix(12,0,0,12,12.2456,-4.75137)"><path d="M0.301,-0.485c-0.144,0 -0.25,0.106 -0.25,0.247c-0,0.142 0.106,0.248 0.25,0.248c0.145,-0 0.252,-0.106 0.252,-0.248c-0,-0.141 -0.107,-0.247 -0.252,-0.247Zm0,0.077c0.096,-0 0.168,0.071 0.168,0.17c0,0.1 -0.072,0.172 -0.168,0.172c-0.095,-0 -0.167,-0.072 -0.167,-0.172c-0,-0.099 0.072,-0.17 0.167,-0.17Z" style="fill:#004153;fill-rule:nonzero;"/></g><g transform="matrix(12,0,0,12,19.5476,-4.75137)"><path d="M0.396,-0.475l-0.183,0l0,-0.081c0,-0.062 0.025,-0.098 0.082,-0.098c0.035,0 0.07,0.013 0.095,0.028l0.03,-0.068c-0.034,-0.021 -0.077,-0.036 -0.131,-0.036c-0.112,0 -0.157,0.074 -0.157,0.174l-0,0.081l-0.106,0l0,0.074l0.106,0l-0,0.401l0.081,-0l0,-0.401l0.183,0l-0,-0.074Z" style="fill:#004153;fill-rule:nonzero;"/></g><g transform="matrix(12,0,0,12,27.8636,-4.75137)"><path d="M0.525,-0.475l-0.09,0l-0.163,0.292l-0.171,-0.292l-0.091,0l0.217,0.373l-0.176,0.304l0.09,0l0.384,-0.677Z" style="fill:#004153;fill-rule:nonzero;"/></g><g transform="matrix(12,0,0,12,34.2656,-4.75137)"><path d="M0.301,-0.485c-0.144,0 -0.25,0.106 -0.25,0.247c-0,0.142 0.106,0.248 0.25,0.248c0.145,-0 0.252,-0.106 0.252,-0.248c-0,-0.141 -0.107,-0.247 -0.252,-0.247Zm0,0.077c0.096,-0 0.168,0.071 0.168,0.17c0,0.1 -0.072,0.172 -0.168,0.172c-0.095,-0 -0.167,-0.072 -0.167,-0.172c-0,-0.099 0.072,-0.17 0.167,-0.17Z" style="fill:#004153;fill-rule:nonzero;"/></g><g transform="matrix(12,0,0,12,41.6276,-4.75137)"><path d="M0.515,-0.475l-0.082,0l0,0.269c0,0.097 -0.057,0.14 -0.135,0.14c-0.077,-0 -0.135,-0.043 -0.135,-0.14l0,-0.269l-0.081,0l-0,0.276c-0,0.144 0.102,0.209 0.216,0.209c0.114,-0 0.217,-0.065 0.217,-0.209l-0,-0.276Z" style="fill:#004153;fill-rule:nonzero;"/></g><g transform="matrix(12,0,0,12,48.9056,-4.75137)"><path d="M0.306,-0.485c-0.057,0 -0.106,0.026 -0.139,0.072l-0,-0.062l-0.08,0l-0,0.475l0.081,-0l-0,-0.264c-0,-0.088 0.051,-0.144 0.123,-0.144c0.027,0 0.059,0.007 0.082,0.019l0.02,-0.08c-0.026,-0.011 -0.053,-0.016 -0.087,-0.016Z" style="fill:#004153;fill-rule:nonzero;"/></g><g transform="matrix(12,0,0,12,57.2516,-4.75137)"><path d="M0.42,-0.484l-0.176,-0l0,-0.144l-0.13,-0l0,0.144l-0.093,-0l-0,0.115l0.093,0l0,0.188c0,0.126 0.062,0.193 0.181,0.193c0.069,0 0.118,-0.022 0.161,-0.051l-0.048,-0.101c-0.027,0.016 -0.06,0.031 -0.091,0.031c-0.041,0 -0.073,-0.022 -0.073,-0.082l0,-0.178l0.176,0l-0,-0.115Z" style="fill:#f39260;fill-rule:nonzero;"/></g><g transform="matrix(12,0,0,12,62.8976,-4.75137)"><path d="M0.284,-0.497c-0.146,-0 -0.245,0.103 -0.245,0.256c-0,0.153 0.102,0.253 0.251,0.253c0.082,0 0.152,-0.023 0.206,-0.073l-0.076,-0.084c-0.035,0.03 -0.08,0.047 -0.122,0.047c-0.062,-0 -0.111,-0.031 -0.125,-0.101l0.343,-0c0.002,-0.011 0.003,-0.029 0.003,-0.044c-0.001,-0.151 -0.096,-0.254 -0.235,-0.254Zm-0.001,0.112c0.056,-0 0.093,0.035 0.105,0.097l-0.215,0c0.012,-0.06 0.048,-0.097 0.11,-0.097Z" style="fill:#f39260;fill-rule:nonzero;"/></g><g transform="matrix(12,0,0,12,69.7016,-4.75137)"><path d="M0.296,-0.497c-0.154,-0 -0.257,0.108 -0.257,0.255c-0,0.147 0.103,0.254 0.257,0.254c0.081,0 0.149,-0.032 0.195,-0.09l-0.093,-0.08c-0.028,0.03 -0.064,0.049 -0.106,0.049c-0.067,0 -0.121,-0.052 -0.121,-0.133c0,-0.081 0.054,-0.134 0.122,-0.134c0.042,-0 0.074,0.017 0.103,0.048l0.094,-0.078c-0.044,-0.058 -0.113,-0.091 -0.194,-0.091Z" style="fill:#f39260;fill-rule:nonzero;"/></g><g transform="matrix(12,0,0,12,76.0196,-4.75137)"><path d="M0.199,-0.72l-0.13,-0l-0,0.72l0.13,-0l-0,-0.266c-0,-0.073 0.046,-0.109 0.103,-0.109c0.059,-0 0.094,0.038 0.094,0.108l0,0.267l0.13,-0l0,-0.309c0,-0.112 -0.078,-0.188 -0.188,-0.188c-0.053,-0 -0.105,0.017 -0.139,0.064l-0,-0.287Z" style="fill:#f39260;fill-rule:nonzero;"/></g><g transform="matrix(12,0,0,12,83.2316,-4.75137)"><path d="M0.338,-0.497c-0.055,-0 -0.108,0.018 -0.143,0.069l0,-0.056l-0.126,-0l-0,0.484l0.13,-0l-0,-0.265c-0,-0.074 0.046,-0.11 0.103,-0.11c0.059,-0 0.094,0.038 0.094,0.108l0,0.267l0.13,-0l0,-0.309c0,-0.112 -0.078,-0.188 -0.188,-0.188Z" style="fill:#f39260;fill-rule:nonzero;"/></g><g transform="matrix(12,0,0,12,90.4436,-4.75137)"><path d="M0.199,-0.484l-0.13,-0l-0,0.484l0.13,-0l-0,-0.484Zm-0.066,-0.243c-0.047,0 -0.083,0.037 -0.083,0.084c0,0.047 0.036,0.083 0.083,0.083c0.047,0 0.083,-0.036 0.083,-0.083c0,-0.047 -0.036,-0.084 -0.083,-0.084Z" style="fill:#f39260;fill-rule:nonzero;"/></g><g transform="matrix(12,0,0,12,93.7736,-4.75137)"><path d="M0.296,-0.497c-0.154,-0 -0.257,0.108 -0.257,0.255c-0,0.147 0.103,0.254 0.257,0.254c0.081,0 0.149,-0.032 0.195,-0.09l-0.093,-0.08c-0.028,0.03 -0.064,0.049 -0.106,0.049c-0.067,0 -0.121,-0.052 -0.121,-0.133c0,-0.081 0.054,-0.134 0.122,-0.134c0.042,-0 0.074,0.017 0.103,0.048l0.094,-0.078c-0.044,-0.058 -0.113,-0.091 -0.194,-0.091Z" style="fill:#f39260;fill-rule:nonzero;"/></g><g transform="matrix(12,0,0,12,99.9716,-4.75137)"><path d="M0.545,-0.484l-0.127,-0l0,0.053c-0.032,-0.039 -0.078,-0.066 -0.145,-0.066c-0.134,-0 -0.234,0.109 -0.234,0.255c-0,0.145 0.1,0.254 0.234,0.254c0.067,0 0.114,-0.027 0.145,-0.065l0,0.053l0.127,-0l0,-0.484Zm-0.248,0.108c0.075,-0 0.125,0.057 0.125,0.134c0,0.076 -0.05,0.133 -0.125,0.133c-0.077,0 -0.125,-0.059 -0.125,-0.133c-0,-0.075 0.048,-0.134 0.125,-0.134Z" style="fill:#f39260;fill-rule:nonzero;"/></g><g transform="matrix(12,0,0,12,107.46,-4.75137)"><rect x="0.069" y="-0.72" width="0.13" height="0.72" style="fill:#f39260;fill-rule:nonzero;"/></g><g transform="matrix(12,0,0,12,-128.976,9.64863)"><path d="M0.273,-0.497c-0.134,-0 -0.234,0.109 -0.234,0.255c-0,0.145 0.1,0.254 0.234,0.254c0.067,0 0.114,-0.027 0.145,-0.065l0,0.053l0.127,-0l0,-0.72l-0.129,0l-0,0.286c-0.032,-0.038 -0.078,-0.063 -0.143,-0.063Zm0.024,0.121c0.075,-0 0.125,0.057 0.125,0.133c0,0.077 -0.05,0.134 -0.125,0.134c-0.077,0 -0.125,-0.059 -0.125,-0.133c-0,-0.075 0.048,-0.134 0.125,-0.134Z" style="fill:#f39260;fill-rule:nonzero;"/></g><g transform="matrix(12,0,0,12,-121.488,9.64863)"><path d="M0.284,-0.497c-0.146,-0 -0.245,0.103 -0.245,0.256c-0,0.153 0.102,0.253 0.251,0.253c0.082,0 0.152,-0.023 0.206,-0.073l-0.076,-0.084c-0.035,0.03 -0.08,0.047 -0.122,0.047c-0.062,-0 -0.111,-0.031 -0.125,-0.101l0.343,-0c0.002,-0.011 0.003,-0.029 0.003,-0.044c-0.001,-0.151 -0.096,-0.254 -0.235,-0.254Zm-0.001,0.112c0.056,-0 0.093,0.035 0.105,0.097l-0.215,0c0.012,-0.06 0.048,-0.097 0.11,-0.097Z" style="fill:#f39260;fill-rule:nonzero;"/></g><g transform="matrix(12,0,0,12,-114.684,9.64863)"><path d="M0.341,-0.497c-0.066,-0 -0.111,0.025 -0.143,0.063l0,-0.286l-0.129,0l-0,0.72l0.127,-0l-0,-0.054c0.031,0.039 0.078,0.066 0.145,0.066c0.134,0 0.234,-0.109 0.234,-0.254c0,-0.146 -0.1,-0.255 -0.234,-0.255Zm-0.025,0.121c0.078,-0 0.126,0.059 0.126,0.134c-0,0.074 -0.048,0.133 -0.126,0.133c-0.074,0 -0.124,-0.057 -0.124,-0.133c-0,-0.077 0.05,-0.134 0.124,-0.134Z" style="fill:#f39260;fill-rule:nonzero;"/></g><g transform="matrix(12,0,0,12,-107.262,9.64863)"><path d="M0.42,-0.484l-0.176,-0l0,-0.144l-0.13,-0l0,0.144l-0.093,-0l-0,0.115l0.093,0l0,0.188c0,0.126 0.062,0.193 0.181,0.193c0.069,0 0.118,-0.022 0.161,-0.051l-0.048,-0.101c-0.027,0.016 -0.06,0.031 -0.091,0.031c-0.041,0 -0.073,-0.022 -0.073,-0.082l0,-0.178l0.176,0l-0,-0.115Z" style="fill:#f39260;fill-rule:nonzero;"/></g><g transform="matrix(12,0,0,12,-98.3044,9.64863)"><path d="M0.409,-0.475l-0.2,0l0,-0.149l-0.081,0l-0,0.149l-0.102,0l0,0.074l0.102,0l-0,0.234c-0,0.121 0.061,0.177 0.164,0.177c0.058,-0 0.106,-0.021 0.142,-0.047l-0.038,-0.061c-0.027,0.018 -0.062,0.032 -0.097,0.032c-0.052,-0 -0.09,-0.031 -0.09,-0.103l0,-0.232l0.2,0l-0,-0.074Z" style="fill:#004153;fill-rule:nonzero;"/></g><g transform="matrix(12,0,0,12,-92.7424,9.64863)"><path d="M0.168,-0.72l-0.081,0l-0,0.72l0.081,-0l-0,-0.267c-0,-0.088 0.064,-0.141 0.141,-0.141c0.082,0 0.13,0.052 0.13,0.139l0,0.269l0.082,-0l-0,-0.295c-0,-0.114 -0.081,-0.19 -0.198,-0.19c-0.055,0 -0.116,0.018 -0.155,0.071l-0,-0.306Z" style="fill:#004153;fill-rule:nonzero;"/></g><g transform="matrix(12,0,0,12,-85.3924,9.64863)"><path d="M0.537,-0.475l-0.081,0l-0,0.064c-0.038,-0.045 -0.093,-0.074 -0.168,-0.074c-0.134,0 -0.237,0.104 -0.237,0.247c-0,0.144 0.103,0.248 0.237,0.248c0.075,-0 0.13,-0.029 0.168,-0.073l-0,0.063l0.081,-0l0,-0.475Zm-0.239,0.067c0.096,-0 0.163,0.073 0.163,0.17c-0,0.098 -0.067,0.172 -0.163,0.172c-0.098,-0 -0.164,-0.077 -0.164,-0.172c-0,-0.094 0.064,-0.17 0.164,-0.17Z" style="fill:#004153;fill-rule:nonzero;"/></g><g transform="matrix(12,0,0,12,-77.7844,9.64863)"><path d="M0.409,-0.475l-0.2,0l0,-0.149l-0.081,0l-0,0.149l-0.102,0l0,0.074l0.102,0l-0,0.234c-0,0.121 0.061,0.177 0.164,0.177c0.058,-0 0.106,-0.021 0.142,-0.047l-0.038,-0.061c-0.027,0.018 -0.062,0.032 -0.097,0.032c-0.052,-0 -0.09,-0.031 -0.09,-0.103l0,-0.232l0.2,0l-0,-0.074Z" style="fill:#004153;fill-rule:nonzero;"/></g><g transform="matrix(12,0,0,12,-68.8924,9.64863)"><path d="M0.442,-0.433c-0.046,-0.031 -0.114,-0.051 -0.19,-0.051c-0.115,-0 -0.19,0.054 -0.19,0.145c-0,0.072 0.051,0.121 0.157,0.134l0.056,0.006c0.064,0.008 0.095,0.03 0.095,0.065c0,0.047 -0.048,0.073 -0.126,0.073c-0.08,-0 -0.127,-0.023 -0.162,-0.051l-0.038,0.061c0.062,0.047 0.141,0.061 0.199,0.061c0.13,-0 0.211,-0.058 0.211,-0.149c-0,-0.078 -0.059,-0.121 -0.16,-0.135l-0.056,-0.007c-0.057,-0.007 -0.092,-0.024 -0.092,-0.062c0,-0.043 0.042,-0.071 0.107,-0.071c0.063,0 0.124,0.024 0.154,0.044l0.035,-0.063Z" style="fill:#004153;fill-rule:nonzero;"/></g><g transform="matrix(12,0,0,12,-62.8084,9.64863)"><rect x="0.087" y="-0.72" width="0.081" height="0.72" style="fill:#004153;fill-rule:nonzero;"/></g><g transform="matrix(12,0,0,12,-59.6344,9.64863)"><path d="M0.301,-0.485c-0.144,0 -0.25,0.106 -0.25,0.247c-0,0.142 0.106,0.248 0.25,0.248c0.145,-0 0.252,-0.106 0.252,-0.248c-0,-0.141 -0.107,-0.247 -0.252,-0.247Zm0,0.077c0.096,-0 0.168,0.071 0.168,0.17c0,0.1 -0.072,0.172 -0.168,0.172c-0.095,-0 -0.167,-0.072 -0.167,-0.172c-0,-0.099 0.072,-0.17 0.167,-0.17Z" style="fill:#004153;fill-rule:nonzero;"/></g><g transform="matrix(12,0,0,12,-52.3084,9.64863)"><path d="M0.471,-0.475l-0.093,0l-0.135,0.388l-0.135,-0.388l-0.087,0l0.171,0.475l0.096,-0l0.135,-0.386l0.136,0.386l0.098,-0l0.171,-0.475l-0.086,0l-0.135,0.389l-0.136,-0.389Z" style="fill:#004153;fill-rule:nonzero;"/></g><g transform="matrix(12,0,0,12,-41.9944,9.64863)"><path d="M0.442,-0.433c-0.046,-0.031 -0.114,-0.051 -0.19,-0.051c-0.115,-0 -0.19,0.054 -0.19,0.145c-0,0.072 0.051,0.121 0.157,0.134l0.056,0.006c0.064,0.008 0.095,0.03 0.095,0.065c0,0.047 -0.048,0.073 -0.126,0.073c-0.08,-0 -0.127,-0.023 -0.162,-0.051l-0.038,0.061c0.062,0.047 0.141,0.061 0.199,0.061c0.13,-0 0.211,-0.058 0.211,-0.149c-0,-0.078 -0.059,-0.121 -0.16,-0.135l-0.056,-0.007c-0.057,-0.007 -0.092,-0.024 -0.092,-0.062c0,-0.043 0.042,-0.071 0.107,-0.071c0.063,0 0.124,0.024 0.154,0.044l0.035,-0.063Z" style="fill:#004153;fill-rule:nonzero;"/></g><g transform="matrix(12,0,0,12,-32.8024,9.64863)"><path d="M0.525,-0.475l-0.09,0l-0.163,0.292l-0.171,-0.292l-0.091,0l0.217,0.373l-0.176,0.304l0.09,0l0.384,-0.677Z" style="fill:#004153;fill-rule:nonzero;"/></g><g transform="matrix(12,0,0,12,-26.4004,9.64863)"><path d="M0.301,-0.485c-0.144,0 -0.25,0.106 -0.25,0.247c-0,0.142 0.106,0.248 0.25,0.248c0.145,-0 0.252,-0.106 0.252,-0.248c-0,-0.141 -0.107,-0.247 -0.252,-0.247Zm0,0.077c0.096,-0 0.168,0.071 0.168,0.17c0,0.1 -0.072,0.172 -0.168,0.172c-0.095,-0 -0.167,-0.072 -0.167,-0.172c-0,-0.099 0.072,-0.17 0.167,-0.17Z" style="fill:#004153;fill-rule:nonzero;"/></g><g transform="matrix(12,0,0,12,-19.0384,9.64863)"><path d="M0.515,-0.475l-0.082,0l0,0.269c0,0.097 -0.057,0.14 -0.135,0.14c-0.077,-0 -0.135,-0.043 -0.135,-0.14l0,-0.269l-0.081,0l-0,0.276c-0,0.144 0.102,0.209 0.216,0.209c0.114,-0 0.217,-0.065 0.217,-0.209l-0,-0.276Z" style="fill:#004153;fill-rule:nonzero;"/></g><g transform="matrix(12,0,0,12,-8.43038,9.64863)"><path d="M0.288,-0.485c-0.134,0 -0.237,0.104 -0.237,0.247c-0,0.144 0.103,0.248 0.237,0.248c0.075,-0 0.13,-0.029 0.168,-0.073l-0,0.063l0.081,-0l0,-0.72l-0.081,0l-0,0.309c-0.038,-0.045 -0.093,-0.074 -0.168,-0.074Zm0.01,0.077c0.096,-0 0.163,0.073 0.163,0.17c-0,0.098 -0.067,0.172 -0.163,0.172c-0.098,-0 -0.164,-0.077 -0.164,-0.172c-0,-0.094 0.064,-0.17 0.164,-0.17Z" style="fill:#004153;fill-rule:nonzero;"/></g><g transform="matrix(12,0,0,12,-0.822378,9.64863)"><path d="M0.301,-0.485c-0.144,0 -0.25,0.106 -0.25,0.247c-0,0.142 0.106,0.248 0.25,0.248c0.145,-0 0.252,-0.106 0.252,-0.248c-0,-0.141 -0.107,-0.247 -0.252,-0.247Zm0,0.077c0.096,-0 0.168,0.071 0.168,0.17c0,0.1 -0.072,0.172 -0.168,0.172c-0.095,-0 -0.167,-0.072 -0.167,-0.172c-0,-0.099 0.072,-0.17 0.167,-0.17Z" style="fill:#004153;fill-rule:nonzero;"/></g><g transform="matrix(12,0,0,12,6.50362,9.64863)"><path d="M0.471,-0.475l-0.093,0l-0.135,0.388l-0.135,-0.388l-0.087,0l0.171,0.475l0.096,-0l0.135,-0.386l0.136,0.386l0.098,-0l0.171,-0.475l-0.086,0l-0.135,0.389l-0.136,-0.389Z" style="fill:#004153;fill-rule:nonzero;"/></g><g transform="matrix(12,0,0,12,16.8176,9.64863)"><path d="M0.323,-0.485c-0.055,0 -0.117,0.019 -0.156,0.072l0,-0.062l-0.08,0l-0,0.475l0.081,-0l-0,-0.266c-0,-0.089 0.064,-0.142 0.141,-0.142c0.082,0 0.13,0.052 0.13,0.139l0,0.269l0.082,-0l-0,-0.295c-0,-0.114 -0.081,-0.19 -0.198,-0.19Z" style="fill:#004153;fill-rule:nonzero;"/></g><g transform="matrix(12,0,0,12,24.1676,9.64863)"><path d="M0.131,-0.127c-0.036,0 -0.068,0.032 -0.068,0.068c0,0.037 0.032,0.069 0.068,0.069c0.037,-0 0.068,-0.032 0.068,-0.069c0,-0.036 -0.031,-0.068 -0.068,-0.068Z" style="fill:#004153;fill-rule:nonzero;"/></g><g transform="matrix(12,0,0,12,30.6356,9.64863)"><path d="M1.069,-0.7l-0.09,0l-0.188,0.601l-0.191,-0.601l-0.1,-0l-0.192,0.601l-0.187,-0.601l-0.093,0l0.225,0.7l0.108,0l0.188,-0.584l0.187,0.584l0.109,0l0.224,-0.7Z" style="fill:#004153;fill-rule:nonzero;"/></g><g transform="matrix(12,0,0,12,43.5596,9.64863)"><path d="M0.306,-0.485c-0.057,0 -0.106,0.026 -0.139,0.072l-0,-0.062l-0.08,0l-0,0.475l0.081,-0l-0,-0.264c-0,-0.088 0.051,-0.144 0.123,-0.144c0.027,0 0.059,0.007 0.082,0.019l0.02,-0.08c-0.026,-0.011 -0.053,-0.016 -0.087,-0.016Z" style="fill:#004153;fill-rule:nonzero;"/></g><g transform="matrix(12,0,0,12,48.7076,9.64863)"><path d="M0.168,-0.475l-0.081,0l-0,0.475l0.081,-0l-0,-0.475Zm-0.041,-0.225c-0.033,-0 -0.058,0.025 -0.058,0.058c0,0.033 0.025,0.057 0.058,0.057c0.032,0 0.058,-0.024 0.058,-0.057c-0,-0.033 -0.026,-0.058 -0.058,-0.058Z" style="fill:#004153;fill-rule:nonzero;"/></g><g transform="matrix(12,0,0,12,51.8816,9.64863)"><path d="M0.409,-0.475l-0.2,0l0,-0.149l-0.081,0l-0,0.149l-0.102,0l0,0.074l0.102,0l-0,0.234c-0,0.121 0.061,0.177 0.164,0.177c0.058,-0 0.106,-0.021 0.142,-0.047l-0.038,-0.061c-0.027,0.018 -0.062,0.032 -0.097,0.032c-0.052,-0 -0.09,-0.031 -0.09,-0.103l0,-0.232l0.2,0l-0,-0.074Z" style="fill:#004153;fill-rule:nonzero;"/></g><g transform="matrix(12,0,0,12,57.4316,9.64863)"><path d="M0.287,-0.485c-0.137,0 -0.236,0.101 -0.236,0.247c-0,0.149 0.099,0.248 0.241,0.248c0.07,-0 0.136,-0.017 0.194,-0.072l-0.043,-0.056c-0.04,0.035 -0.091,0.057 -0.146,0.057c-0.082,-0 -0.151,-0.049 -0.162,-0.148l0.373,0c0.001,-0.009 0.002,-0.02 0.002,-0.03c-0.001,-0.146 -0.094,-0.246 -0.223,-0.246Zm-0.002,0.072c0.077,0 0.132,0.054 0.142,0.139l-0.291,-0c0.012,-0.082 0.065,-0.139 0.149,-0.139Z" style="fill:#004153;fill-rule:nonzero;"/></g><g transform="matrix(12,0,0,12,67.6076,9.64863)"><path d="M0.288,-0.485c-0.134,0 -0.237,0.104 -0.237,0.247c-0,0.144 0.103,0.248 0.237,0.248c0.075,-0 0.13,-0.029 0.168,-0.073l-0,0.063l0.081,-0l0,-0.72l-0.081,0l-0,0.309c-0.038,-0.045 -0.093,-0.074 -0.168,-0.074Zm0.01,0.077c0.096,-0 0.163,0.073 0.163,0.17c-0,0.098 -0.067,0.172 -0.163,0.172c-0.098,-0 -0.164,-0.077 -0.164,-0.172c-0,-0.094 0.064,-0.17 0.164,-0.17Z" style="fill:#004153;fill-rule:nonzero;"/></g><g transform="matrix(12,0,0,12,75.2156,9.64863)"><path d="M0.301,-0.485c-0.144,0 -0.25,0.106 -0.25,0.247c-0,0.142 0.106,0.248 0.25,0.248c0.145,-0 0.252,-0.106 0.252,-0.248c-0,-0.141 -0.107,-0.247 -0.252,-0.247Zm0,0.077c0.096,-0 0.168,0.071 0.168,0.17c0,0.1 -0.072,0.172 -0.168,0.172c-0.095,-0 -0.167,-0.072 -0.167,-0.172c-0,-0.099 0.072,-0.17 0.167,-0.17Z" style="fill:#004153;fill-rule:nonzero;"/></g><g transform="matrix(12,0,0,12,82.5416,9.64863)"><path d="M0.471,-0.475l-0.093,0l-0.135,0.388l-0.135,-0.388l-0.087,0l0.171,0.475l0.096,-0l0.135,-0.386l0.136,0.386l0.098,-0l0.171,-0.475l-0.086,0l-0.135,0.389l-0.136,-0.389Z" style="fill:#004153;fill-rule:nonzero;"/></g><g transform="matrix(12,0,0,12,92.8556,9.64863)"><path d="M0.323,-0.485c-0.055,0 -0.117,0.019 -0.156,0.072l0,-0.062l-0.08,0l-0,0.475l0.081,-0l-0,-0.266c-0,-0.089 0.064,-0.142 0.141,-0.142c0.082,0 0.13,0.052 0.13,0.139l0,0.269l0.082,-0l-0,-0.295c-0,-0.114 -0.081,-0.19 -0.198,-0.19Z" style="fill:#004153;fill-rule:nonzero;"/></g><g transform="matrix(12,0,0,12,103.446,9.64863)"><path d="M0.409,-0.475l-0.2,0l0,-0.149l-0.081,0l-0,0.149l-0.102,0l0,0.074l0.102,0l-0,0.234c-0,0.121 0.061,0.177 0.164,0.177c0.058,-0 0.106,-0.021 0.142,-0.047l-0.038,-0.061c-0.027,0.018 -0.062,0.032 -0.097,0.032c-0.052,-0 -0.09,-0.031 -0.09,-0.103l0,-0.232l0.2,0l-0,-0.074Z" style="fill:#004153;fill-rule:nonzero;"/></g><g transform="matrix(12,0,0,12,109.008,9.64863)"><path d="M0.168,-0.72l-0.081,0l-0,0.72l0.081,-0l-0,-0.267c-0,-0.088 0.064,-0.141 0.141,-0.141c0.082,0 0.13,0.052 0.13,0.139l0,0.269l0.082,-0l-0,-0.295c-0,-0.114 -0.081,-0.19 -0.198,-0.19c-0.055,0 -0.116,0.018 -0.155,0.071l-0,-0.306Z" style="fill:#004153;fill-rule:nonzero;"/></g><g transform="matrix(12,0,0,12,116.358,9.64863)"><path d="M0.287,-0.485c-0.137,0 -0.236,0.101 -0.236,0.247c-0,0.149 0.099,0.248 0.241,0.248c0.07,-0 0.136,-0.017 0.194,-0.072l-0.043,-0.056c-0.04,0.035 -0.091,0.057 -0.146,0.057c-0.082,-0 -0.151,-0.049 -0.162,-0.148l0.373,0c0.001,-0.009 0.002,-0.02 0.002,-0.03c-0.001,-0.146 -0.094,-0.246 -0.223,-0.246Zm-0.002,0.072c0.077,0 0.132,0.054 0.142,0.139l-0.291,-0c0.012,-0.082 0.065,-0.139 0.149,-0.139Z" style="fill:#004153;fill-rule:nonzero;"/></g><g transform="matrix(12,0,0,12,-128.976,24.0486)"><path d="M0.306,-0.485c-0.057,0 -0.106,0.026 -0.139,0.072l-0,-0.062l-0.08,0l-0,0.475l0.081,-0l-0,-0.264c-0,-0.088 0.051,-0.144 0.123,-0.144c0.027,0 0.059,0.007 0.082,0.019l0.02,-0.08c-0.026,-0.011 -0.053,-0.016 -0.087,-0.016Z" style="fill:#004153;fill-rule:nonzero;"/></g><g transform="matrix(12,0,0,12,-124.068,24.0486)"><path d="M0.287,-0.485c-0.137,0 -0.236,0.101 -0.236,0.247c-0,0.149 0.099,0.248 0.241,0.248c0.07,-0 0.136,-0.017 0.194,-0.072l-0.043,-0.056c-0.04,0.035 -0.091,0.057 -0.146,0.057c-0.082,-0 -0.151,-0.049 -0.162,-0.148l0.373,0c0.001,-0.009 0.002,-0.02 0.002,-0.03c-0.001,-0.146 -0.094,-0.246 -0.223,-0.246Zm-0.002,0.072c0.077,0 0.132,0.054 0.142,0.139l-0.291,-0c0.012,-0.082 0.065,-0.139 0.149,-0.139Z" style="fill:#004153;fill-rule:nonzero;"/></g><g transform="matrix(12,0,0,12,-117.222,24.0486)"><path d="M0.537,-0.475l-0.081,0l-0,0.064c-0.038,-0.045 -0.093,-0.074 -0.168,-0.074c-0.134,0 -0.237,0.104 -0.237,0.247c-0,0.144 0.103,0.248 0.237,0.248c0.075,-0 0.13,-0.029 0.168,-0.073l-0,0.063l0.081,-0l0,-0.475Zm-0.239,0.067c0.096,-0 0.163,0.073 0.163,0.17c-0,0.098 -0.067,0.172 -0.163,0.172c-0.098,-0 -0.164,-0.077 -0.164,-0.172c-0,-0.094 0.064,-0.17 0.164,-0.17Z" style="fill:#004153;fill-rule:nonzero;"/></g><g transform="matrix(12,0,0,12,-109.614,24.0486)"><path d="M0.442,-0.433c-0.046,-0.031 -0.114,-0.051 -0.19,-0.051c-0.115,-0 -0.19,0.054 -0.19,0.145c-0,0.072 0.051,0.121 0.157,0.134l0.056,0.006c0.064,0.008 0.095,0.03 0.095,0.065c0,0.047 -0.048,0.073 -0.126,0.073c-0.08,-0 -0.127,-0.023 -0.162,-0.051l-0.038,0.061c0.062,0.047 0.141,0.061 0.199,0.061c0.13,-0 0.211,-0.058 0.211,-0.149c-0,-0.078 -0.059,-0.121 -0.16,-0.135l-0.056,-0.007c-0.057,-0.007 -0.092,-0.024 -0.092,-0.062c0,-0.043 0.042,-0.071 0.107,-0.071c0.063,0 0.124,0.024 0.154,0.044l0.035,-0.063Z" style="fill:#004153;fill-rule:nonzero;"/></g><g transform="matrix(12,0,0,12,-103.53,24.0486)"><path d="M0.301,-0.485c-0.144,0 -0.25,0.106 -0.25,0.247c-0,0.142 0.106,0.248 0.25,0.248c0.145,-0 0.252,-0.106 0.252,-0.248c-0,-0.141 -0.107,-0.247 -0.252,-0.247Zm0,0.077c0.096,-0 0.168,0.071 0.168,0.17c0,0.1 -0.072,0.172 -0.168,0.172c-0.095,-0 -0.167,-0.072 -0.167,-0.172c-0,-0.099 0.072,-0.17 0.167,-0.17Z" style="fill:#004153;fill-rule:nonzero;"/></g><g transform="matrix(12,0,0,12,-96.1684,24.0486)"><path d="M0.323,-0.485c-0.055,0 -0.117,0.019 -0.156,0.072l0,-0.062l-0.08,0l-0,0.475l0.081,-0l-0,-0.266c-0,-0.089 0.064,-0.142 0.141,-0.142c0.082,0 0.13,0.052 0.13,0.139l0,0.269l0.082,-0l-0,-0.295c-0,-0.114 -0.081,-0.19 -0.198,-0.19Z" style="fill:#004153;fill-rule:nonzero;"/></g><g transform="matrix(12,0,0,12,-88.8184,24.0486)"><path d="M0.442,-0.433c-0.046,-0.031 -0.114,-0.051 -0.19,-0.051c-0.115,-0 -0.19,0.054 -0.19,0.145c-0,0.072 0.051,0.121 0.157,0.134l0.056,0.006c0.064,0.008 0.095,0.03 0.095,0.065c0,0.047 -0.048,0.073 -0.126,0.073c-0.08,-0 -0.127,-0.023 -0.162,-0.051l-0.038,0.061c0.062,0.047 0.141,0.061 0.199,0.061c0.13,-0 0.211,-0.058 0.211,-0.149c-0,-0.078 -0.059,-0.121 -0.16,-0.135l-0.056,-0.007c-0.057,-0.007 -0.092,-0.024 -0.092,-0.062c0,-0.043 0.042,-0.071 0.107,-0.071c0.063,0 0.124,0.024 0.154,0.044l0.035,-0.063Z" style="fill:#004153;fill-rule:nonzero;"/></g><g transform="matrix(12,0,0,12,-79.4944,24.0486)"><path d="M0.396,-0.475l-0.183,0l0,-0.081c0,-0.062 0.025,-0.098 0.082,-0.098c0.035,0 0.07,0.013 0.095,0.028l0.03,-0.068c-0.034,-0.021 -0.077,-0.036 -0.131,-0.036c-0.112,0 -0.157,0.074 -0.157,0.174l-0,0.081l-0.106,0l0,0.074l0.106,0l-0,0.401l0.081,-0l0,-0.401l0.183,0l-0,-0.074Z" style="fill:#004153;fill-rule:nonzero;"/></g><g transform="matrix(12,0,0,12,-74.4484,24.0486)"><path d="M0.301,-0.485c-0.144,0 -0.25,0.106 -0.25,0.247c-0,0.142 0.106,0.248 0.25,0.248c0.145,-0 0.252,-0.106 0.252,-0.248c-0,-0.141 -0.107,-0.247 -0.252,-0.247Zm0,0.077c0.096,-0 0.168,0.071 0.168,0.17c0,0.1 -0.072,0.172 -0.168,0.172c-0.095,-0 -0.167,-0.072 -0.167,-0.172c-0,-0.099 0.072,-0.17 0.167,-0.17Z" style="fill:#004153;fill-rule:nonzero;"/></g><g transform="matrix(12,0,0,12,-67.0864,24.0486)"><path d="M0.306,-0.485c-0.057,0 -0.106,0.026 -0.139,0.072l-0,-0.062l-0.08,0l-0,0.475l0.081,-0l-0,-0.264c-0,-0.088 0.051,-0.144 0.123,-0.144c0.027,0 0.059,0.007 0.082,0.019l0.02,-0.08c-0.026,-0.011 -0.053,-0.016 -0.087,-0.016Z" style="fill:#004153;fill-rule:nonzero;"/></g><g transform="matrix(12,0,0,12,-58.7404,24.0486)"><path d="M0.168,-0.475l-0.081,0l-0,0.475l0.081,-0l-0,-0.475Zm-0.041,-0.225c-0.033,-0 -0.058,0.025 -0.058,0.058c0,0.033 0.025,0.057 0.058,0.057c0.032,0 0.058,-0.024 0.058,-0.057c-0,-0.033 -0.026,-0.058 -0.058,-0.058Z" style="fill:#004153;fill-rule:nonzero;"/></g><g transform="matrix(12,0,0,12,-55.5664,24.0486)"><path d="M0.409,-0.475l-0.2,0l0,-0.149l-0.081,0l-0,0.149l-0.102,0l0,0.074l0.102,0l-0,0.234c-0,0.121 0.061,0.177 0.164,0.177c0.058,-0 0.106,-0.021 0.142,-0.047l-0.038,-0.061c-0.027,0.018 -0.062,0.032 -0.097,0.032c-0.052,-0 -0.09,-0.031 -0.09,-0.103l0,-0.232l0.2,0l-0,-0.074Z" style="fill:#004153;fill-rule:nonzero;"/></g><g transform="matrix(12,0,0,12,-46.6744,24.0486)"><path d="M0.168,-0.475l-0.081,0l-0,0.475l0.081,-0l-0,-0.475Zm-0.041,-0.225c-0.033,-0 -0.058,0.025 -0.058,0.058c0,0.033 0.025,0.057 0.058,0.057c0.032,0 0.058,-0.024 0.058,-0.057c-0,-0.033 -0.026,-0.058 -0.058,-0.058Z" style="fill:#004153;fill-rule:nonzero;"/></g><g transform="matrix(12,0,0,12,-43.5004,24.0486)"><path d="M0.323,-0.485c-0.055,0 -0.117,0.019 -0.156,0.072l0,-0.062l-0.08,0l-0,0.475l0.081,-0l-0,-0.266c-0,-0.089 0.064,-0.142 0.141,-0.142c0.082,0 0.13,0.052 0.13,0.139l0,0.269l0.082,-0l-0,-0.295c-0,-0.114 -0.081,-0.19 -0.198,-0.19Z" style="fill:#004153;fill-rule:nonzero;"/></g><g transform="matrix(12,0,0,12,-32.9104,24.0486)"><path d="M0.409,-0.475l-0.2,0l0,-0.149l-0.081,0l-0,0.149l-0.102,0l0,0.074l0.102,0l-0,0.234c-0,0.121 0.061,0.177 0.164,0.177c0.058,-0 0.106,-0.021 0.142,-0.047l-0.038,-0.061c-0.027,0.018 -0.062,0.032 -0.097,0.032c-0.052,-0 -0.09,-0.031 -0.09,-0.103l0,-0.232l0.2,0l-0,-0.074Z" style="fill:#004153;fill-rule:nonzero;"/></g><g transform="matrix(12,0,0,12,-27.3484,24.0486)"><path d="M0.168,-0.72l-0.081,0l-0,0.72l0.081,-0l-0,-0.267c-0,-0.088 0.064,-0.141 0.141,-0.141c0.082,0 0.13,0.052 0.13,0.139l0,0.269l0.082,-0l-0,-0.295c-0,-0.114 -0.081,-0.19 -0.198,-0.19c-0.055,0 -0.116,0.018 -0.155,0.071l-0,-0.306Z" style="fill:#004153;fill-rule:nonzero;"/></g><g transform="matrix(12,0,0,12,-19.9984,24.0486)"><path d="M0.287,-0.485c-0.137,0 -0.236,0.101 -0.236,0.247c-0,0.149 0.099,0.248 0.241,0.248c0.07,-0 0.136,-0.017 0.194,-0.072l-0.043,-0.056c-0.04,0.035 -0.091,0.057 -0.146,0.057c-0.082,-0 -0.151,-0.049 -0.162,-0.148l0.373,0c0.001,-0.009 0.002,-0.02 0.002,-0.03c-0.001,-0.146 -0.094,-0.246 -0.223,-0.246Zm-0.002,0.072c0.077,0 0.132,0.054 0.142,0.139l-0.291,-0c0.012,-0.082 0.065,-0.139 0.149,-0.139Z" style="fill:#004153;fill-rule:nonzero;"/></g><g transform="matrix(12,0,0,12,-9.82238,24.0486)"><path d="M0.297,-0.485c-0.147,0 -0.246,0.106 -0.246,0.247c-0,0.142 0.099,0.248 0.246,0.248c0.07,-0 0.133,-0.026 0.176,-0.074l-0.05,-0.057c-0.033,0.032 -0.078,0.055 -0.128,0.055c-0.092,-0 -0.161,-0.072 -0.161,-0.172c-0,-0.099 0.069,-0.17 0.161,-0.17c0.05,-0 0.091,0.019 0.126,0.053l0.052,-0.055c-0.042,-0.049 -0.106,-0.075 -0.176,-0.075Z" style="fill:#004153;fill-rule:nonzero;"/></g><g transform="matrix(12,0,0,12,-3.55238,24.0486)"><path d="M0.168,-0.475l-0.081,0l-0,0.475l0.081,-0l-0,-0.475Zm-0.041,-0.225c-0.033,-0 -0.058,0.025 -0.058,0.058c0,0.033 0.025,0.057 0.058,0.057c0.032,0 0.058,-0.024 0.058,-0.057c-0,-0.033 -0.026,-0.058 -0.058,-0.058Z" style="fill:#004153;fill-rule:nonzero;"/></g><g transform="matrix(12,0,0,12,-0.378378,24.0486)"><path d="M0.306,-0.485c-0.057,0 -0.106,0.026 -0.139,0.072l-0,-0.062l-0.08,0l-0,0.475l0.081,-0l-0,-0.264c-0,-0.088 0.051,-0.144 0.123,-0.144c0.027,0 0.059,0.007 0.082,0.019l0.02,-0.08c-0.026,-0.011 -0.053,-0.016 -0.087,-0.016Z" style="fill:#004153;fill-rule:nonzero;"/></g><g transform="matrix(12,0,0,12,4.52962,24.0486)"><path d="M0.297,-0.485c-0.147,0 -0.246,0.106 -0.246,0.247c-0,0.142 0.099,0.248 0.246,0.248c0.07,-0 0.133,-0.026 0.176,-0.074l-0.05,-0.057c-0.033,0.032 -0.078,0.055 -0.128,0.055c-0.092,-0 -0.161,-0.072 -0.161,-0.172c-0,-0.099 0.069,-0.17 0.161,-0.17c0.05,-0 0.091,0.019 0.126,0.053l0.052,-0.055c-0.042,-0.049 -0.106,-0.075 -0.176,-0.075Z" style="fill:#004153;fill-rule:nonzero;"/></g><g transform="matrix(12,0,0,12,10.7996,24.0486)"><rect x="0.087" y="-0.72" width="0.081" height="0.72" style="fill:#004153;fill-rule:nonzero;"/></g><g transform="matrix(12,0,0,12,13.9736,24.0486)"><path d="M0.287,-0.485c-0.137,0 -0.236,0.101 -0.236,0.247c-0,0.149 0.099,0.248 0.241,0.248c0.07,-0 0.136,-0.017 0.194,-0.072l-0.043,-0.056c-0.04,0.035 -0.091,0.057 -0.146,0.057c-0.082,-0 -0.151,-0.049 -0.162,-0.148l0.373,0c0.001,-0.009 0.002,-0.02 0.002,-0.03c-0.001,-0.146 -0.094,-0.246 -0.223,-0.246Zm-0.002,0.072c0.077,0 0.132,0.054 0.142,0.139l-0.291,-0c0.012,-0.082 0.065,-0.139 0.149,-0.139Z" style="fill:#004153;fill-rule:nonzero;"/></g><g transform="matrix(12,0,0,12,20.8196,24.0486)"><path d="M0.181,-0.7l-0.1,0l0.013,0.475l0.074,0l0.013,-0.475Zm-0.05,0.573c-0.036,-0 -0.068,0.031 -0.068,0.068c0,0.036 0.032,0.069 0.068,0.069c0.037,-0 0.068,-0.033 0.068,-0.069c0,-0.037 -0.031,-0.068 -0.068,-0.068Z" style="fill:#004153;fill-rule:nonzero;"/></g></g><path d="M200.15,375.532l4.14,-0c11.838,-0 21.435,-9.641 21.435,-21.534l-0,-21.534l7.145,-0c3.946,-0 7.145,-3.214 7.145,-7.179l-0,-14.356c-0,-7.928 -6.398,-14.356 -14.29,-14.356l-17.863,0c-6.363,1.845 -10.737,7.704 -10.717,14.356l-0,7.178" style="fill:none;fill-rule:nonzero;stroke:#004153;stroke-width:5px;"/><path d="M183.563,329.038l-39.276,39.276" style="fill:none;fill-rule:nonzero;stroke:#004153;stroke-width:5px;"/><path d="M156.249,327.855l32.895,32.895" style="fill:none;fill-rule:nonzero;stroke:#004153;stroke-width:5px;"/><path d="M143.666,340.534l27.776,27.775" style="fill:none;fill-rule:nonzero;stroke:#004153;stroke-width:5px;"/><path d="M160.914,382.821l-0,7.182c-0,3.966 -3.216,7.182 -7.183,7.182l-11.309,0c-1.983,-0 -3.591,-1.608 -3.591,-3.591c0,-1.092 0.497,-2.124 1.35,-2.806l9.959,-7.967l10.774,-0Zm21.546,-0l-0,7.182c-0,3.966 3.215,7.182 7.182,7.182l11.309,0c1.984,-0 3.591,-1.608 3.591,-3.591c-0,-1.092 -0.497,-2.124 -1.35,-2.806l-11.142,-8.925m26.32,-72.659c0.992,0 1.796,0.804 1.796,1.796m-3.591,-0c-0,-0.992 0.804,-1.796 1.795,-1.796m0,3.591c-0.991,0 -1.795,-0.804 -1.795,-1.795m3.591,-0c-0,0.991 -0.804,1.795 -1.796,1.795m-79.003,55.662c-3.966,-0 -7.182,3.215 -7.182,7.182c0,3.966 3.216,7.182 7.182,7.182l46.684,-0c14.364,-0 17.955,-14.364 17.955,-21.547c0.016,-10.887 -4.917,-21.193 -13.406,-28.01c1.753,4.335 2.648,8.97 2.633,13.646c0,7.182 -3.591,21.547 -17.955,21.547l-35.911,-0Zm51.209,-35.188c-6.369,-5.128 -14.304,-7.918 -22.48,-7.905c-19.833,-0 -28.729,16.078 -28.729,35.91l0,7.183" style="fill:none;fill-rule:nonzero;stroke:#004153;stroke-width:5px;"/><circle cx="217.517" cy="309.98" r="1.768" style="fill:#fff;"/><path d="M22.515,394.69c-1.323,0 -2.218,0.958 -2.218,2.227c0,1.27 0.895,2.228 2.218,2.228c0.635,-0 1.202,-0.234 1.589,-0.67l-0.455,-0.509c-0.297,0.288 -0.697,0.491 -1.152,0.491c-0.823,-0 -1.449,-0.644 -1.449,-1.54c0,-0.895 0.626,-1.534 1.449,-1.534c0.455,-0 0.819,0.175 1.134,0.481l0.473,-0.499c-0.383,-0.441 -0.954,-0.675 -1.589,-0.675Z" style="fill:#004153;fill-rule:nonzero;"/><path d="M29.216,394.78l-0.738,0l0,0.576c-0.337,-0.405 -0.837,-0.666 -1.507,-0.666c-1.202,0 -2.138,0.936 -2.138,2.227c0,1.292 0.936,2.228 2.138,2.228c0.67,-0 1.17,-0.261 1.507,-0.661l0,0.571l0.738,-0l-0,-4.275Zm-2.16,0.603c0.864,-0 1.467,0.661 1.467,1.534c0,0.878 -0.603,1.54 -1.467,1.54c-0.878,-0 -1.472,-0.689 -1.472,-1.54c0,-0.85 0.581,-1.534 1.472,-1.534Z" style="fill:#004153;fill-rule:nonzero;"/><path d="M32.748,394.69c-0.508,0 -0.954,0.234 -1.251,0.652l0,-0.562l-0.724,0l0,4.275l0.733,-0l0,-2.381c0,-0.787 0.459,-1.287 1.112,-1.287c0.243,0 0.531,0.059 0.733,0.167l0.18,-0.725c-0.229,-0.098 -0.477,-0.139 -0.783,-0.139Z" style="fill:#004153;fill-rule:nonzero;"/><path d="M36.178,394.69c-1.202,0 -2.138,0.936 -2.138,2.227c0,1.292 0.936,2.228 2.138,2.228c0.67,-0 1.17,-0.261 1.507,-0.661l0,0.571l0.738,-0l-0,-6.48l-0.738,0l0,2.781c-0.337,-0.405 -0.837,-0.666 -1.507,-0.666Zm0.085,0.693c0.864,-0 1.467,0.661 1.467,1.534c0,0.878 -0.603,1.54 -1.467,1.54c-0.878,-0 -1.472,-0.689 -1.472,-1.54c0,-0.85 0.581,-1.534 1.472,-1.534Z" style="fill:#004153;fill-rule:nonzero;"/><path d="M43.179,395.158c-0.413,-0.284 -1.03,-0.463 -1.705,-0.463c-1.04,-0 -1.719,0.494 -1.719,1.313c0,0.648 0.463,1.08 1.422,1.197l0.495,0.059c0.581,0.072 0.86,0.27 0.86,0.585c-0,0.423 -0.432,0.653 -1.135,0.653c-0.715,-0 -1.143,-0.207 -1.462,-0.455l-0.342,0.549c0.563,0.423 1.273,0.549 1.8,0.549c1.166,-0 1.894,-0.527 1.894,-1.341c0,-0.707 -0.535,-1.089 -1.444,-1.211l-0.495,-0.063c-0.518,-0.063 -0.828,-0.22 -0.828,-0.562c-0,-0.387 0.378,-0.635 0.963,-0.635c0.563,0 1.107,0.212 1.377,0.396l0.319,-0.571Z" style="fill:#004153;fill-rule:nonzero;"/><path d="M47.58,395.293l-0.76,0l0,1.742l-1.998,-0l2.304,-4.271l-0.864,0l-2.353,4.405l-0,0.585l2.911,0l0,1.301l0.76,-0l0,-1.301l1.049,0l-0,-0.719l-1.049,-0l0,-1.742Z" style="fill:#004153;fill-rule:nonzero;"/><path d="M49.79,394.159c0.302,-0.405 0.675,-0.765 1.377,-0.765c0.797,-0 1.256,0.535 1.256,1.237c-0,0.518 -0.252,0.941 -0.63,1.337l-2.358,2.489l-0,0.598l3.982,-0l-0,-0.724l-2.853,-0l1.809,-1.922c0.405,-0.428 0.846,-0.99 0.846,-1.773c-0,-1.13 -0.747,-1.971 -2.034,-1.971c-1.089,0 -1.647,0.612 -1.944,1.048l0.549,0.446Z" style="fill:#004153;fill-rule:nonzero;"/><path d="M55.141,397.912c-0.329,0 -0.617,0.283 -0.617,0.612c0,0.333 0.288,0.621 0.617,0.621c0.328,-0 0.611,-0.288 0.611,-0.621c0,-0.329 -0.283,-0.612 -0.611,-0.612Z" style="fill:#004153;fill-rule:nonzero;"/><path d="M58.966,394.69c-1.297,0 -2.259,0.958 -2.259,2.227c-0,1.27 0.962,2.228 2.259,2.228c1.296,-0 2.263,-0.958 2.263,-2.228c-0,-1.269 -0.967,-2.227 -2.263,-2.227Zm-0,0.693c0.855,-0 1.507,0.639 1.507,1.534c0,0.896 -0.652,1.54 -1.507,1.54c-0.86,-0 -1.508,-0.644 -1.508,-1.54c-0,-0.895 0.648,-1.534 1.508,-1.534Z" style="fill:#004153;fill-rule:nonzero;"/><path d="M64.437,394.69c-0.508,0 -0.954,0.234 -1.251,0.652l0,-0.562l-0.724,0l0,4.275l0.733,-0l0,-2.381c0,-0.787 0.459,-1.287 1.112,-1.287c0.243,0 0.531,0.059 0.733,0.167l0.18,-0.725c-0.229,-0.098 -0.477,-0.139 -0.783,-0.139Z" style="fill:#004153;fill-rule:nonzero;"/><path d="M67.844,394.69c-1.202,0 -2.115,0.891 -2.115,2.191c0,1.306 0.913,2.196 2.115,2.196c0.662,0 1.148,-0.256 1.472,-0.665l-0,0.377c-0,0.95 -0.617,1.468 -1.535,1.468c-0.554,-0 -1.062,-0.185 -1.472,-0.478l-0.319,0.595c0.436,0.35 1.125,0.553 1.791,0.553c1.35,-0 2.272,-0.787 2.272,-2.169l0,-3.978l-0.737,0l-0,0.581c-0.324,-0.41 -0.81,-0.671 -1.472,-0.671Zm0.086,0.693c0.85,-0 1.449,0.648 1.449,1.498c-0,0.855 -0.599,1.504 -1.449,1.504c-0.878,-0 -1.45,-0.671 -1.45,-1.504c0,-0.823 0.572,-1.498 1.45,-1.498Z" style="fill:#004153;fill-rule:nonzero;"/><path d="M75.4,392.125l-0.81,0l-3.821,7.83l0.81,-0l3.821,-7.83Z" style="fill:#004153;fill-rule:nonzero;"/><path d="M77.051,394.69c-1.202,0 -2.137,0.936 -2.137,2.227c-0,1.292 0.935,2.228 2.137,2.228c0.671,-0 1.17,-0.261 1.508,-0.661l-0,0.571l0.737,-0l0,-6.48l-0.737,0l-0,2.781c-0.338,-0.405 -0.837,-0.666 -1.508,-0.666Zm0.086,0.693c0.864,-0 1.467,0.661 1.467,1.534c-0,0.878 -0.603,1.54 -1.467,1.54c-0.878,-0 -1.472,-0.689 -1.472,-1.54c-0,-0.85 0.58,-1.534 1.472,-1.534Z" style="fill:#004153;fill-rule:nonzero;"/><path d="M82.654,394.69c-1.229,0 -2.124,0.913 -2.124,2.227c-0,1.332 0.899,2.228 2.169,2.228c0.63,-0 1.224,-0.153 1.754,-0.648l-0.391,-0.504c-0.364,0.315 -0.819,0.509 -1.318,0.509c-0.734,-0 -1.351,-0.437 -1.454,-1.324l3.361,0c0.005,-0.081 0.014,-0.18 0.014,-0.274c-0.009,-1.31 -0.846,-2.214 -2.011,-2.214Zm-0.014,0.652c0.693,0 1.184,0.486 1.274,1.243l-2.615,-0c0.112,-0.73 0.585,-1.243 1.341,-1.243Z" style="fill:#004153;fill-rule:nonzero;"/><path d="M88.139,394.69c-0.675,0 -1.175,0.261 -1.508,0.661l0,-2.776l-0.733,0l0,6.48l0.733,-0l0,-0.572c0.333,0.401 0.833,0.662 1.508,0.662c1.197,-0 2.137,-0.936 2.137,-2.228c0,-1.291 -0.94,-2.227 -2.137,-2.227Zm-0.085,0.693c0.873,-0 1.467,0.684 1.467,1.534c-0,0.851 -0.581,1.54 -1.467,1.54c-0.865,-0 -1.468,-0.662 -1.468,-1.54c0,-0.873 0.603,-1.534 1.468,-1.534Z" style="fill:#004153;fill-rule:nonzero;"/><path d="M94.367,394.78l-1.796,0l0,-1.341l-0.737,0l-0,1.341l-0.914,0l0,0.67l0.914,0l-0,2.097c-0,1.089 0.553,1.598 1.48,1.598c0.526,-0 0.954,-0.185 1.282,-0.423l-0.346,-0.553c-0.243,0.166 -0.558,0.288 -0.873,0.288c-0.464,-0 -0.806,-0.279 -0.806,-0.923l0,-2.084l1.796,0l-0,-0.67Z" style="fill:#004153;fill-rule:nonzero;"/></g></svg>